<svg version="1.1" id="Layer_1" xmlns="http://www.w3.org/2000/svg" xmlns:xlink="http://www.w3.org/1999/xlink" x="0px" y="0px"
	 width="100%" viewBox="0 0 1445 444" enable-background="new 0 0 1445 444" xml:space="preserve">
<path fill="#FEFEFE" opacity="1.000000" stroke="none" 
	d="
M920.000000,445.000000 
	C613.373840,445.000000 307.247650,445.000000 1.060742,445.000000 
	C1.060742,297.060089 1.060742,149.120148 1.060742,1.090104 
	C482.542877,1.090104 964.085754,1.090104 1445.814331,1.090104 
	C1445.814331,148.999817 1445.814331,296.999878 1445.814331,445.000000 
	C1270.786743,445.000000 1095.643433,445.000000 920.000000,445.000000 
M183.837891,188.488922 
	C187.997574,153.150772 220.500961,124.095650 256.019775,124.057068 
	C295.680542,124.013977 335.341400,124.047165 375.002197,124.047150 
	C376.925446,124.047150 378.848694,124.047142 381.094635,124.047142 
	C352.413727,70.457245 275.082092,15.320973 178.737534,33.559120 
	C88.182899,50.701229 14.800941,133.958908 22.750099,239.079514 
	C29.749804,331.644409 106.163536,414.330383 212.547318,416.558258 
	C258.039734,417.510956 299.121307,403.616791 335.105408,375.606934 
	C353.656189,361.167084 369.306366,344.025482 381.733795,322.727844 
	C378.529999,322.727844 376.551117,322.727875 374.572235,322.727875 
	C335.744659,322.727783 296.917023,322.752594 258.089478,322.720215 
	C222.790970,322.690796 192.574600,298.561646 184.937897,264.168579 
	C183.899612,259.492523 183.305878,254.614624 183.303162,249.829742 
	C183.291718,229.678802 183.582489,209.527679 183.837891,188.488922 
M1011.365967,247.076660 
	C1007.450562,245.801590 1003.546936,243.464905 999.617859,243.421188 
	C970.971375,243.102646 942.319580,243.267593 913.669678,243.204330 
	C911.024597,243.198486 910.132812,244.237167 910.216309,246.764145 
	C910.337280,250.424652 910.498169,254.114502 910.177124,257.750793 
	C909.818787,261.810333 911.403870,262.772888 915.288513,262.748871 
	C941.272522,262.588226 967.257935,262.664337 993.242920,262.668671 
	C994.741211,262.668945 996.594543,262.165680 997.661133,262.856384 
	C999.648438,264.143280 1001.177917,266.137024 1002.897949,267.836578 
	C1001.129211,269.516754 999.517883,271.431183 997.521545,272.772705 
	C996.600464,273.391693 994.926758,272.896637 993.594299,272.896851 
	C974.605286,272.899780 955.615112,272.773468 936.627625,272.941833 
	C920.597717,273.083984 910.298889,283.493439 910.247803,299.193207 
	C910.228821,305.023102 910.509949,310.869232 910.156982,316.677765 
	C909.895020,320.989777 911.538391,321.913147 915.568359,321.895905 
	C949.548096,321.750305 983.528625,321.816956 1017.508972,321.799957 
	C1019.092468,321.799164 1020.675781,321.610168 1022.265747,321.508423 
	C1022.265747,315.047699 1022.265747,309.153351 1022.265747,302.922913 
	C1020.047058,302.922913 1018.232117,302.922943 1016.417114,302.922943 
	C989.432739,302.922821 962.448303,302.942505 935.464050,302.883636 
	C933.378296,302.879089 930.448303,303.946381 930.182617,300.158905 
	C929.925781,296.498749 930.852417,293.449005 934.776001,292.363495 
	C936.177490,291.975739 937.754944,292.187683 939.252075,292.187042 
	C958.574219,292.178589 977.896484,292.214569 997.218567,292.168640 
	C1009.047913,292.140533 1018.242676,285.557007 1021.857483,274.686005 
	C1025.039551,265.116272 1021.180603,254.498428 1011.365967,247.076660 
M1192.468872,279.968201 
	C1187.318970,284.987274 1184.697388,290.951447 1184.929565,298.282593 
	C1185.174438,306.013855 1184.984497,313.758850 1184.984497,321.809998 
	C1187.685181,321.809998 1189.498901,321.809967 1191.312622,321.809967 
	C1224.470703,321.809967 1257.628784,321.810211 1290.786865,321.809082 
	C1292.119751,321.809052 1293.604370,322.159760 1294.742432,321.685394 
	C1295.849121,321.224060 1297.334595,319.948975 1297.385498,318.965668 
	C1297.649658,313.854797 1297.508423,308.722961 1297.508423,302.924835 
	C1295.013428,302.924835 1293.072388,302.924835 1291.131226,302.924835 
	C1263.971558,302.924774 1236.811890,302.933167 1209.652222,302.916779 
	C1204.820312,302.913849 1203.805908,301.542938 1204.927856,296.892151 
	C1205.927612,292.748199 1208.982300,292.152771 1212.593262,292.160248 
	C1232.421509,292.201355 1252.249634,292.186859 1272.077881,292.174408 
	C1281.494995,292.168488 1288.901001,288.139496 1293.815796,280.240540 
	C1298.794678,272.238525 1298.795166,263.790405 1294.033813,255.612183 
	C1289.182861,247.280441 1281.656860,243.284195 1272.107300,243.263412 
	C1244.614502,243.203598 1217.121460,243.236893 1189.628540,243.255554 
	C1188.185669,243.256531 1186.743042,243.460526 1185.362915,243.565231 
	C1185.362915,250.088348 1185.362915,256.156067 1185.362915,262.662506 
	C1191.370117,262.662506 1197.005127,262.662506 1202.640259,262.662506 
	C1224.301392,262.662506 1245.962402,262.662231 1267.623535,262.663177 
	C1268.956421,262.663239 1270.290894,262.634735 1271.622070,262.685760 
	C1274.867188,262.810211 1277.249512,264.238434 1277.239502,267.701263 
	C1277.229004,271.356384 1274.901123,272.912079 1271.330811,272.907990 
	C1251.669189,272.885498 1232.007568,272.938965 1212.346191,272.879333 
	C1205.096436,272.857330 1198.497437,274.499237 1192.468872,279.968201 
M947.716064,141.719467 
	C949.569092,142.124893 951.420105,142.871231 953.275452,142.882202 
	C969.099548,142.975739 984.924377,142.934402 1000.749023,142.936569 
	C1006.079346,142.937286 1011.419067,142.750565 1016.737610,143.003571 
	C1023.001099,143.301544 1025.942261,146.346390 1025.573730,152.027176 
	C1023.799744,152.027176 1021.989075,152.027054 1020.178406,152.027191 
	C1004.686951,152.028351 989.195190,151.968292 973.704102,152.048187 
	C958.646790,152.125839 947.787842,162.708374 947.755920,177.167007 
	C947.724182,191.573029 958.159485,201.891403 973.328247,201.993073 
	C996.314575,202.147110 1019.303162,201.958466 1042.289429,202.115875 
	C1046.129272,202.142181 1047.057983,200.804581 1047.015259,197.183975 
	C1046.840210,182.360870 1046.974854,167.534424 1046.932495,152.709381 
	C1046.884399,135.886322 1033.984131,122.950241 1017.230042,122.925636 
	C995.741943,122.894073 974.253723,122.917786 952.765564,122.917679 
	C951.153564,122.917671 949.541565,122.917679 947.459045,122.917679 
	C947.459045,129.282654 947.459045,135.074066 947.716064,141.719467 
M482.500122,273.982971 
	C475.406189,273.982971 468.312225,273.982971 461.070648,273.982971 
	C461.070648,272.432098 460.880798,271.575195 461.101685,270.842072 
	C462.475006,266.284058 466.015533,264.020325 472.028503,264.008636 
	C492.681671,263.968597 513.335266,264.036896 533.987671,263.903778 
	C535.643372,263.893158 538.670471,262.753235 538.723267,261.978729 
	C539.124329,256.096680 538.942749,250.174881 538.942749,243.987808 
	C536.752197,243.987808 535.432556,243.987793 534.112854,243.987823 
	C512.460266,243.988174 490.807556,243.949463 469.155060,244.001740 
	C452.935455,244.040894 440.174133,256.923523 440.082764,273.254822 
	C440.044525,280.083496 440.050568,286.912689 440.079132,293.741455 
	C440.141846,308.734680 451.462097,322.118347 466.313019,322.632385 
	C489.435730,323.432709 512.601257,323.026947 535.748413,322.987854 
	C536.821350,322.986053 538.783386,321.617432 538.820801,320.815033 
	C539.088257,315.073273 538.963684,309.313293 538.963684,303.126038 
	C536.403625,303.126038 534.603882,303.126160 532.804077,303.126068 
	C512.317383,303.124725 491.830597,303.159149 471.344055,303.101196 
	C464.831573,303.082794 461.228394,299.585724 461.284271,292.914734 
	C463.192078,292.914734 465.128326,292.914734 467.064545,292.914734 
	C489.383392,292.914673 511.702942,292.821747 534.020386,293.000763 
	C538.003723,293.032745 539.462524,291.874054 539.072937,287.901428 
	C538.781738,284.931946 538.763245,281.884277 539.076843,278.919373 
	C539.508789,274.834381 537.837402,273.858948 533.966309,273.902283 
	C517.146057,274.090576 500.322418,273.983032 482.500122,273.982971 
M698.500000,243.990540 
	C689.746521,243.990540 680.992981,243.990540 672.309692,243.990540 
	C672.309692,280.649750 672.309692,316.503113 672.309692,352.774933 
	C677.691711,352.774933 682.667236,352.610870 687.625549,352.831940 
	C690.994934,352.982178 691.955078,351.607574 691.868896,348.438324 
	C691.696960,342.115509 692.143921,335.762604 691.716431,329.464142 
	C691.371521,324.382874 693.023987,322.856689 698.127747,322.975464 
	C712.273621,323.304810 726.434998,323.259186 740.585266,323.040375 
	C758.867859,322.757629 771.030396,310.165192 771.055359,291.870758 
	C771.063782,285.709778 771.111450,279.548157 771.044373,273.387909 
	C770.863892,256.814606 757.992981,244.030701 741.461426,243.996674 
	C727.474365,243.967880 713.487122,243.990601 698.500000,243.990540 
M1051.500854,310.958313 
	C1056.994507,318.575928 1064.457642,321.927185 1073.817993,321.860321 
	C1093.969116,321.716309 1114.121948,321.832611 1134.274170,321.810822 
	C1149.583862,321.794250 1160.099854,311.411957 1160.173950,296.237091 
	C1160.218628,287.077209 1160.221069,277.916748 1160.173340,268.756927 
	C1160.096069,253.931259 1149.508667,243.304565 1134.635742,243.252899 
	C1114.150879,243.181747 1093.665161,243.189484 1073.180054,243.250046 
	C1058.071533,243.294708 1047.485352,253.897171 1047.342285,269.078003 
	C1047.257568,278.070740 1046.905273,287.092743 1047.495972,296.047302 
	C1047.813721,300.865906 1049.867432,305.569977 1051.500854,310.958313 
M246.058228,269.503571 
	C250.746368,270.886169 255.416656,273.389130 260.125641,273.464203 
	C285.118042,273.862549 310.120178,273.651550 335.118927,273.651367 
	C356.117889,273.651245 377.117218,273.704346 398.115082,273.553284 
	C399.877594,273.540588 402.910980,272.470306 403.184692,271.357666 
	C405.352936,262.544922 406.994934,253.602692 408.882721,244.285324 
	C349.885559,244.285324 291.831268,244.285324 233.817383,244.285324 
	C232.668976,252.717484 237.307617,262.390503 246.058228,269.503571 
M236.085556,189.644882 
	C234.981796,193.805756 233.878036,197.966644 232.677994,202.490509 
	C291.967163,202.490509 349.855316,202.490509 408.676880,202.490509 
	C406.890533,192.652359 405.185638,183.262756 403.423859,173.560074 
	C400.583679,173.560074 398.448883,173.560074 396.314087,173.560074 
	C352.178345,173.560059 308.038208,173.907166 263.909637,173.344711 
	C250.971786,173.179825 242.182999,177.811295 236.085556,189.644882 
M787.554077,265.154480 
	C785.330505,277.704498 784.517334,290.419403 788.013855,302.701416 
	C791.363770,314.468323 800.152954,321.846893 812.322693,322.582184 
	C827.910034,323.523895 843.628296,323.427887 859.232422,322.638245 
	C874.089417,321.886414 885.500549,308.720459 885.666992,293.809875 
	C885.744995,286.817261 885.767334,279.821716 885.661865,272.829803 
	C885.423340,257.010437 872.311768,244.063889 856.473938,243.999359 
	C842.986694,243.944427 829.499084,243.974197 816.011597,243.991821 
	C802.702271,244.009216 792.209351,251.601791 787.554077,265.154480 
M812.572266,188.958755 
	C814.293030,183.981369 816.943420,179.108139 817.515686,174.002045 
	C818.363464,166.436523 818.172974,158.675964 817.649841,151.051590 
	C816.501099,134.309067 803.985840,122.933548 787.302490,122.920235 
	C774.146362,122.909729 760.990234,122.900108 747.834167,122.923050 
	C733.054199,122.948814 721.088623,132.676880 718.960266,147.416443 
	C717.851135,155.097031 718.167969,163.011642 718.178101,170.820114 
	C718.201660,189.029816 730.614441,201.713348 748.767273,201.997849 
	C761.587158,202.198776 774.414490,202.166580 787.235229,201.994888 
	C797.457153,201.858002 806.018555,198.061142 812.572266,188.958755 
M1232.157715,125.520958 
	C1220.816284,131.155365 1214.917236,140.171829 1215.021118,152.968109 
	C1215.073730,159.458023 1215.016235,165.948730 1215.032837,172.439041 
	C1215.072998,188.132004 1226.112671,200.832764 1241.910400,201.660507 
	C1257.006958,202.451523 1272.212402,202.458267 1287.306641,201.639160 
	C1302.886475,200.793686 1313.913574,187.865585 1313.958862,172.138611 
	C1313.978027,165.481918 1313.984497,158.825012 1313.955566,152.168381 
	C1313.884521,135.823242 1301.167969,122.992111 1284.916260,122.929474 
	C1271.436401,122.877518 1257.953125,122.753418 1244.478516,123.022064 
	C1240.589478,123.099602 1236.725342,124.425049 1232.157715,125.520958 
M1155.875244,196.334381 
	C1155.875244,191.738693 1155.875244,187.142990 1155.875244,182.061646 
	C1153.356323,182.061646 1151.560303,182.061707 1149.764282,182.061630 
	C1139.442017,182.061264 1129.119629,182.079559 1118.797363,182.054779 
	C1110.009155,182.033676 1106.620361,178.703430 1106.598145,170.104691 
	C1106.579712,162.945740 1106.887695,155.770340 1106.489990,148.633469 
	C1106.225220,143.885757 1107.917847,142.737015 1112.426025,142.835571 
	C1125.239380,143.115723 1138.064697,143.029007 1150.880737,142.815887 
	C1152.546021,142.788193 1155.527588,141.283081 1155.612793,140.270264 
	C1156.080322,134.704269 1155.835938,129.078476 1155.835938,122.859589 
	C1139.179443,122.859589 1123.123413,122.859589 1106.591919,122.859589 
	C1106.591919,117.274216 1106.476318,112.304688 1106.634155,107.343857 
	C1106.733032,104.232330 1105.817261,102.719421 1102.403320,102.908447 
	C1098.253784,103.138199 1094.075928,103.102928 1089.921753,102.920700 
	C1086.823242,102.784767 1085.837891,104.043129 1085.940674,107.030441 
	C1086.116211,112.133049 1085.989136,117.246071 1085.989136,122.918777 
	C1080.598389,122.918777 1075.815796,122.918777 1071.033203,122.918777 
	C1066.279175,122.918777 1061.525146,122.918777 1056.298584,122.918777 
	C1056.298584,128.603882 1056.465942,133.575165 1056.242920,138.528854 
	C1056.079346,142.162125 1057.663574,143.081665 1061.003540,142.990021 
	C1067.824341,142.802841 1074.657959,143.075592 1081.478271,142.877502 
	C1085.018921,142.774658 1086.125488,144.144348 1086.043945,147.566269 
	C1085.861816,155.220383 1085.983765,162.881836 1085.988892,170.540298 
	C1086.001343,189.288391 1098.360107,201.825272 1117.173584,202.015488 
	C1128.493530,202.129944 1139.818359,201.902023 1151.135498,202.114197 
	C1154.871948,202.184235 1156.441528,201.007050 1155.875244,196.334381 
M517.500000,122.917953 
	C507.254333,122.917953 497.008636,122.917953 486.340973,122.917953 
	C486.340973,148.720505 486.290955,173.679962 486.501678,198.637222 
	C486.511353,199.779922 488.769745,201.713730 490.148804,201.879196 
	C493.926361,202.332504 497.809631,201.820129 501.620911,202.100174 
	C505.524811,202.387039 506.857025,201.061661 506.805420,197.038055 
	C506.602448,181.213867 506.720978,165.385544 506.723083,149.558746 
	C506.723938,142.938934 506.727264,142.936676 513.577820,142.935776 
	C526.405823,142.934082 539.233887,142.931763 552.061890,142.936401 
	C562.440247,142.940155 565.747009,146.263092 565.757324,156.736954 
	C565.770813,170.397964 565.839294,184.059769 565.703552,197.719437 
	C565.671936,200.904694 566.551697,202.285431 569.921021,202.091202 
	C573.906128,201.861481 577.919983,201.909866 581.911133,202.079880 
	C584.901428,202.207260 586.036682,201.155045 586.013184,198.066452 
	C585.896545,182.740356 586.264160,167.404846 585.866760,152.088089 
	C585.424194,135.025772 572.533691,122.947830 555.484741,122.922195 
	C543.156494,122.903656 530.828247,122.918129 517.500000,122.917953 
M1417.555908,202.037109 
	C1420.221802,202.033432 1422.948120,202.359177 1425.527588,201.885406 
	C1426.793457,201.652924 1428.750244,199.945541 1428.759277,198.891464 
	C1428.899170,182.733765 1429.416748,166.537689 1428.521118,150.424240 
	C1427.608765,134.012726 1414.592529,122.929207 1398.063965,122.922005 
	C1377.069824,122.912857 1356.075684,122.919785 1335.081543,122.919777 
	C1333.320679,122.919769 1331.559814,122.919769 1329.298828,122.919769 
	C1329.298828,126.914627 1329.298828,130.213623 1329.298828,133.512619 
	C1329.298950,154.673370 1329.382568,175.834747 1329.224487,196.994308 
	C1329.194946,200.941879 1330.414185,202.439850 1334.385376,202.095551 
	C1337.692871,201.808777 1341.070435,201.777802 1344.371094,202.101593 
	C1348.526611,202.509262 1349.351929,200.684036 1349.311523,196.919769 
	C1349.137939,180.759476 1349.390503,164.593887 1349.139160,148.435638 
	C1349.068970,143.916489 1350.618530,142.776993 1354.896362,142.847549 
	C1368.722168,143.075562 1382.554077,142.904602 1396.383423,142.944122 
	C1404.795776,142.968170 1408.247192,146.408188 1408.270020,154.766373 
	C1408.305420,167.762634 1408.261963,180.759109 1408.286133,193.755432 
	C1408.303467,203.096649 1407.455322,201.962814 1417.555908,202.037109 
M682.889038,188.490936 
	C682.889465,191.654175 683.028809,194.825317 682.849854,197.978378 
	C682.681091,200.950394 683.696716,202.236664 686.815247,202.084595 
	C690.801392,201.890228 694.812561,201.879120 698.797302,202.087997 
	C702.070374,202.259537 703.144958,201.024399 703.117554,197.770218 
	C702.988892,182.454514 703.242920,167.134216 703.000488,151.821243 
	C702.742065,135.494370 689.732117,122.943405 673.447632,122.924568 
	C652.137329,122.899918 630.827087,122.912086 609.516785,122.930382 
	C607.759216,122.931892 606.001770,123.101257 603.900208,123.210526 
	C603.900208,148.888962 603.859497,174.006439 604.052734,199.122101 
	C604.060242,200.101685 606.241394,201.781830 607.524231,201.900803 
	C611.485962,202.268250 615.517883,201.825684 619.494568,202.100967 
	C623.120239,202.351959 623.966248,200.866379 623.936279,197.485580 
	C623.791809,181.171188 623.862488,164.854782 623.884399,148.539139 
	C623.886780,146.786072 624.067505,145.033234 624.184875,142.934998 
	C640.048645,142.934998 655.343445,142.918152 670.638245,142.941605 
	C679.197876,142.954727 682.838806,146.533432 682.876770,155.029755 
	C682.925171,165.851166 682.888733,176.672958 682.889038,188.490936 
M1429.098633,271.500000 
	C1429.098633,262.240997 1429.098633,252.981964 1429.098633,243.245773 
	C1423.455933,243.245773 1418.484009,243.435516 1413.534912,243.181747 
	C1409.996704,243.000320 1408.909424,244.284546 1408.978882,247.758667 
	C1409.168579,257.247009 1409.015259,266.741791 1409.059448,276.233734 
	C1409.070801,278.689911 1408.669312,280.426880 1405.582397,280.416351 
	C1384.600342,280.344879 1363.617798,280.400970 1342.635864,280.305450 
	C1338.684937,280.287476 1336.514893,278.063293 1336.513062,273.979889 
	C1336.510620,268.817505 1336.505371,263.655090 1336.505127,258.492706 
	C1336.504028,242.607727 1336.507446,242.697159 1320.737915,243.174072 
	C1317.421753,243.274353 1316.444092,244.432587 1316.497314,247.617920 
	C1316.653076,256.940948 1316.459106,266.269470 1316.581543,275.593506 
	C1316.686890,283.624207 1320.279297,289.973724 1326.639160,294.755157 
	C1331.940796,298.740784 1338.127930,299.794647 1344.566162,299.800049 
	C1364.383057,299.816681 1384.200928,299.904907 1404.016235,299.723785 
	C1408.010010,299.687317 1409.368652,300.924591 1409.111206,304.874390 
	C1408.819458,309.351501 1408.909912,313.869751 1409.144287,318.353912 
	C1409.205322,319.520142 1410.379028,321.575653 1411.115234,321.609192 
	C1417.009644,321.878052 1422.921631,321.759460 1429.098633,321.759460 
	C1429.098633,304.782684 1429.098633,288.641327 1429.098633,271.500000 
M561.933777,253.587402 
	C571.471802,263.769806 581.009766,273.952209 590.784790,284.387665 
	C578.871094,297.006805 567.226807,309.340515 555.582581,321.674225 
	C555.813171,322.147644 556.043762,322.621033 556.274353,323.094452 
	C562.521179,323.094452 568.805359,322.671783 575.003967,323.218781 
	C580.681274,323.719849 584.274170,321.411133 587.784119,317.324860 
	C593.056458,311.186890 598.888062,305.529358 604.932312,299.195526 
	C609.380798,303.925812 613.643188,307.889740 617.225098,312.394745 
	C623.238281,319.957611 629.965088,325.158142 640.429688,323.193695 
	C643.808960,322.559326 647.408447,323.142365 650.904480,323.057404 
	C651.906738,323.033081 652.899536,322.620148 654.377869,322.272125 
	C653.453735,321.128510 652.985107,320.463837 652.432983,319.877930 
	C642.502930,309.341400 632.659119,298.720795 622.566040,288.342590 
	C619.555481,285.246979 619.690735,283.381378 622.734375,280.283325 
	C632.173767,270.675171 641.226746,260.687103 650.420410,250.837875 
	C652.251587,248.876144 654.041809,246.876221 656.677856,243.987640 
	C648.433350,243.987640 641.617798,244.288422 634.844238,243.884216 
	C630.156433,243.604477 627.149841,245.430862 624.183167,248.806839 
	C618.075806,255.756912 611.565491,262.352966 604.891846,269.444458 
	C598.355286,262.547913 592.003662,256.229828 586.123718,249.499634 
	C582.567383,245.429016 578.786987,243.431625 573.231262,243.871887 
	C566.910889,244.372711 560.520264,243.987625 552.858643,243.987625 
	C556.454346,247.793594 558.949707,250.434799 561.933777,253.587402 
M823.601624,126.788208 
	C835.914368,147.510986 848.952759,167.849014 860.231384,189.120132 
	C865.807190,199.636017 872.320496,203.857910 883.907288,202.274551 
	C888.167419,201.692398 890.744385,200.724945 892.932068,196.972412 
	C903.903381,178.153534 915.146851,159.493439 926.273010,140.764679 
	C929.623718,135.124420 932.904602,129.442703 936.721985,122.917664 
	C929.567749,122.917664 923.605042,123.116348 917.664612,122.838982 
	C914.392944,122.686234 912.482788,123.816444 910.877136,126.596924 
	C905.472107,135.957260 899.866028,145.201477 894.334229,154.488571 
	C889.434143,162.714905 884.530640,170.939163 879.139282,179.985413 
	C877.470764,177.400574 876.283203,175.677155 875.212463,173.883987 
	C865.833618,158.177170 856.526428,142.427032 847.034851,126.788734 
	C846.053589,125.171936 844.073425,123.205750 842.448669,123.102577 
	C835.851318,122.683609 829.211853,122.928383 822.085815,122.928383 
	C822.597290,124.369125 822.909851,125.249596 823.601624,126.788208 
M1196.863892,180.499847 
	C1196.863892,161.430511 1196.863892,142.361160 1196.863892,123.060623 
	C1189.720703,123.060623 1183.321533,123.060623 1176.962524,123.060623 
	C1176.699219,123.800270 1176.392822,124.260574 1176.391968,124.721466 
	C1176.344727,149.340317 1176.273438,173.959579 1176.453857,198.576935 
	C1176.462402,199.738556 1178.649658,201.755692 1179.961426,201.877686 
	C1184.414307,202.291718 1188.931519,201.956635 1193.420532,202.060867 
	C1196.031250,202.121506 1196.937012,200.990067 1196.892212,198.467255 
	C1196.791504,192.813034 1196.862549,187.155792 1196.863892,180.499847 
M417.274841,108.218552 
	C422.584595,91.190132 433.823822,80.274986 450.041809,75.869881 
	C443.470551,71.728691 435.376495,68.285904 429.596924,62.522259 
	C423.744537,56.685974 420.181335,48.554192 415.804718,41.723339 
	C411.393097,58.868477 399.453888,69.840736 381.107513,75.186897 
	C398.694763,80.315659 410.303223,90.360840 415.434662,107.234764 
	C415.623199,107.854782 416.445923,108.281944 417.274841,108.218552 
M465.332733,126.604591 
	C464.645020,125.343063 464.013702,123.027977 463.260620,122.987656 
	C457.538971,122.681328 451.793518,122.820007 445.801117,122.820007 
	C445.801117,148.685867 445.824524,173.648666 445.766937,198.611252 
	C445.760834,201.266891 446.878876,202.123062 449.372162,202.048706 
	C453.031586,201.939560 456.716705,201.786163 460.354248,202.089920 
	C464.340057,202.422806 465.447174,200.943329 465.418488,197.010117 
	C465.249725,173.869339 465.335602,150.726700 465.332733,126.604591 
z"/>
<path fill="#B30A3A" opacity="1.000000" stroke="none" 
	d="
M183.800293,188.932770 
	C183.582489,209.527679 183.291718,229.678802 183.303162,249.829742 
	C183.305878,254.614624 183.899612,259.492523 184.937897,264.168579 
	C192.574600,298.561646 222.790970,322.690796 258.089478,322.720215 
	C296.917023,322.752594 335.744659,322.727783 374.572235,322.727875 
	C376.551117,322.727875 378.529999,322.727844 381.733795,322.727844 
	C369.306366,344.025482 353.656189,361.167084 335.105408,375.606934 
	C299.121307,403.616791 258.039734,417.510956 212.547318,416.558258 
	C106.163536,414.330383 29.749804,331.644409 22.750099,239.079514 
	C14.800941,133.958908 88.182899,50.701229 178.737534,33.559120 
	C275.082092,15.320973 352.413727,70.457245 381.094635,124.047142 
	C378.848694,124.047142 376.925446,124.047150 375.002197,124.047150 
	C335.341400,124.047165 295.680542,124.013977 256.019775,124.057068 
	C220.500961,124.095650 187.997574,153.150772 183.800293,188.932770 
M99.630753,235.499878 
	C99.630753,264.422089 99.630753,293.344269 99.630753,322.431366 
	C116.122932,322.431366 131.875107,322.431366 147.778839,322.431366 
	C147.778839,256.253479 147.778839,190.372559 147.778839,124.346809 
	C131.680664,124.346809 115.937965,124.346809 99.630608,124.346809 
	C99.630608,161.262344 99.630608,197.881104 99.630753,235.499878 
z"/>
<path fill="#B5113F" opacity="1.000000" stroke="none" 
	d="
M1011.668274,247.279297 
	C1021.180603,254.498428 1025.039551,265.116272 1021.857483,274.686005 
	C1018.242676,285.557007 1009.047913,292.140533 997.218567,292.168640 
	C977.896484,292.214569 958.574219,292.178589 939.252075,292.187042 
	C937.754944,292.187683 936.177490,291.975739 934.776001,292.363495 
	C930.852417,293.449005 929.925781,296.498749 930.182617,300.158905 
	C930.448303,303.946381 933.378296,302.879089 935.464050,302.883636 
	C962.448303,302.942505 989.432739,302.922821 1016.417114,302.922943 
	C1018.232117,302.922943 1020.047058,302.922913 1022.265747,302.922913 
	C1022.265747,309.153351 1022.265747,315.047699 1022.265747,321.508423 
	C1020.675781,321.610168 1019.092468,321.799164 1017.508972,321.799957 
	C983.528625,321.816956 949.548096,321.750305 915.568359,321.895905 
	C911.538391,321.913147 909.895020,320.989777 910.156982,316.677765 
	C910.509949,310.869232 910.228821,305.023102 910.247803,299.193207 
	C910.298889,283.493439 920.597717,273.083984 936.627625,272.941833 
	C955.615112,272.773468 974.605286,272.899780 993.594299,272.896851 
	C994.926758,272.896637 996.600464,273.391693 997.521545,272.772705 
	C999.517883,271.431183 1001.129211,269.516754 1002.897949,267.836548 
	C1001.177917,266.137024 999.648438,264.143280 997.661133,262.856384 
	C996.594543,262.165680 994.741211,262.668945 993.242920,262.668671 
	C967.257935,262.664337 941.272522,262.588226 915.288513,262.748871 
	C911.403870,262.772888 909.818787,261.810333 910.177124,257.750793 
	C910.498169,254.114502 910.337280,250.424652 910.216309,246.764145 
	C910.132812,244.237167 911.024597,243.198486 913.669678,243.204330 
	C942.319580,243.267593 970.971375,243.102646 999.617859,243.421188 
	C1003.546936,243.464905 1007.450562,245.801590 1011.668274,247.279297 
z"/>
<path fill="#B5103F" opacity="1.000000" stroke="none" 
	d="
M1192.740723,279.738922 
	C1198.497437,274.499237 1205.096436,272.857330 1212.346191,272.879333 
	C1232.007568,272.938965 1251.669189,272.885498 1271.330811,272.907990 
	C1274.901123,272.912079 1277.229004,271.356384 1277.239502,267.701263 
	C1277.249512,264.238434 1274.867188,262.810211 1271.622070,262.685760 
	C1270.290894,262.634735 1268.956421,262.663239 1267.623535,262.663177 
	C1245.962402,262.662231 1224.301392,262.662506 1202.640259,262.662506 
	C1197.005127,262.662506 1191.370117,262.662506 1185.362915,262.662506 
	C1185.362915,256.156067 1185.362915,250.088348 1185.362915,243.565231 
	C1186.743042,243.460526 1188.185669,243.256531 1189.628540,243.255554 
	C1217.121460,243.236893 1244.614502,243.203598 1272.107300,243.263412 
	C1281.656860,243.284195 1289.182861,247.280441 1294.033813,255.612183 
	C1298.795166,263.790405 1298.794678,272.238525 1293.815796,280.240540 
	C1288.901001,288.139496 1281.494995,292.168488 1272.077881,292.174408 
	C1252.249634,292.186859 1232.421509,292.201355 1212.593262,292.160248 
	C1208.982300,292.152771 1205.927612,292.748199 1204.927856,296.892151 
	C1203.805908,301.542938 1204.820312,302.913849 1209.652222,302.916779 
	C1236.811890,302.933167 1263.971558,302.924774 1291.131226,302.924835 
	C1293.072388,302.924835 1295.013428,302.924835 1297.508423,302.924835 
	C1297.508423,308.722961 1297.649658,313.854797 1297.385498,318.965668 
	C1297.334595,319.948975 1295.849121,321.224060 1294.742432,321.685394 
	C1293.604370,322.159760 1292.119751,321.809052 1290.786865,321.809082 
	C1257.628784,321.810211 1224.470703,321.809967 1191.312622,321.809967 
	C1189.498901,321.809967 1187.685181,321.809998 1184.984497,321.809998 
	C1184.984497,313.758850 1185.174438,306.013855 1184.929565,298.282593 
	C1184.697388,290.951447 1187.318970,284.987274 1192.740723,279.738922 
z"/>
<path fill="#828485" opacity="1.000000" stroke="none" 
	d="
M947.587524,141.292480 
	C947.459045,135.074066 947.459045,129.282654 947.459045,122.917679 
	C949.541565,122.917679 951.153564,122.917671 952.765564,122.917679 
	C974.253723,122.917786 995.741943,122.894073 1017.230042,122.925636 
	C1033.984131,122.950241 1046.884399,135.886322 1046.932495,152.709381 
	C1046.974854,167.534424 1046.840210,182.360870 1047.015259,197.183975 
	C1047.057983,200.804581 1046.129272,202.142181 1042.289429,202.115875 
	C1019.303162,201.958466 996.314575,202.147110 973.328247,201.993073 
	C958.159485,201.891403 947.724182,191.573029 947.755920,177.167007 
	C947.787842,162.708374 958.646790,152.125839 973.704102,152.048187 
	C989.195190,151.968292 1004.686951,152.028351 1020.178406,152.027191 
	C1021.989075,152.027054 1023.799744,152.027176 1025.573730,152.027176 
	C1025.942261,146.346390 1023.001099,143.301544 1016.737610,143.003571 
	C1011.419067,142.750565 1006.079346,142.937286 1000.749023,142.936569 
	C984.924377,142.934402 969.099548,142.975739 953.275452,142.882202 
	C951.420105,142.871231 949.569092,142.124893 947.587524,141.292480 
M1025.960449,181.754364 
	C1026.247070,180.674088 1026.736328,179.603409 1026.787964,178.511993 
	C1027.148438,170.901535 1027.119385,170.899139 1019.381287,170.898972 
	C1004.417358,170.898636 989.452881,170.964340 974.489746,170.856033 
	C970.582214,170.827759 967.975830,171.771744 967.914246,176.255600 
	C967.849304,180.989960 970.645020,182.109756 974.704529,182.093124 
	C991.496826,182.024323 1008.289429,182.035248 1025.960449,181.754364 
z"/>
<path fill="#838586" opacity="1.000000" stroke="none" 
	d="
M483.000061,273.982971 
	C500.322418,273.983032 517.146057,274.090576 533.966309,273.902283 
	C537.837402,273.858948 539.508789,274.834381 539.076843,278.919373 
	C538.763245,281.884277 538.781738,284.931946 539.072937,287.901428 
	C539.462524,291.874054 538.003723,293.032745 534.020386,293.000763 
	C511.702942,292.821747 489.383392,292.914673 467.064545,292.914734 
	C465.128326,292.914734 463.192078,292.914734 461.284271,292.914734 
	C461.228394,299.585724 464.831573,303.082794 471.344055,303.101196 
	C491.830597,303.159149 512.317383,303.124725 532.804077,303.126068 
	C534.603882,303.126160 536.403625,303.126038 538.963684,303.126038 
	C538.963684,309.313293 539.088257,315.073273 538.820801,320.815033 
	C538.783386,321.617432 536.821350,322.986053 535.748413,322.987854 
	C512.601257,323.026947 489.435730,323.432709 466.313019,322.632385 
	C451.462097,322.118347 440.141846,308.734680 440.079132,293.741455 
	C440.050568,286.912689 440.044525,280.083496 440.082764,273.254822 
	C440.174133,256.923523 452.935455,244.040894 469.155060,244.001740 
	C490.807556,243.949463 512.460266,243.988174 534.112854,243.987823 
	C535.432556,243.987793 536.752197,243.987808 538.942749,243.987808 
	C538.942749,250.174881 539.124329,256.096680 538.723267,261.978729 
	C538.670471,262.753235 535.643372,263.893158 533.987671,263.903778 
	C513.335266,264.036896 492.681671,263.968597 472.028503,264.008636 
	C466.015533,264.020325 462.475006,266.284058 461.101685,270.842072 
	C460.880798,271.575195 461.070648,272.432098 461.070648,273.982971 
	C468.312225,273.982971 475.406189,273.982971 483.000061,273.982971 
z"/>
<path fill="#828485" opacity="1.000000" stroke="none" 
	d="
M699.000000,243.990540 
	C713.487122,243.990601 727.474365,243.967880 741.461426,243.996674 
	C757.992981,244.030701 770.863892,256.814606 771.044373,273.387909 
	C771.111450,279.548157 771.063782,285.709778 771.055359,291.870758 
	C771.030396,310.165192 758.867859,322.757629 740.585266,323.040375 
	C726.434998,323.259186 712.273621,323.304810 698.127747,322.975464 
	C693.023987,322.856689 691.371521,324.382874 691.716431,329.464142 
	C692.143921,335.762604 691.696960,342.115509 691.868896,348.438324 
	C691.955078,351.607574 690.994934,352.982178 687.625549,352.831940 
	C682.667236,352.610870 677.691711,352.774933 672.309692,352.774933 
	C672.309692,316.503113 672.309692,280.649750 672.309692,243.990540 
	C680.992981,243.990540 689.746521,243.990540 699.000000,243.990540 
M702.526855,263.978027 
	C700.031860,263.981323 697.485474,263.690338 695.063721,264.113037 
	C693.866821,264.321991 691.984314,265.830780 691.967407,266.779083 
	C691.755615,278.694672 691.828491,290.615326 691.828491,303.017517 
	C709.022583,303.017517 725.607666,303.189301 742.184937,302.907654 
	C746.857727,302.828247 750.600281,298.136810 750.721252,293.362854 
	C750.864441,287.711060 750.765381,282.053009 750.760376,276.397675 
	C750.752502,267.510254 747.324158,264.017120 738.450623,263.987640 
	C726.807434,263.948944 715.163940,263.978027 702.526855,263.978027 
z"/>
<path fill="#B51140" opacity="1.000000" stroke="none" 
	d="
M1051.319336,310.642029 
	C1049.867432,305.569977 1047.813721,300.865906 1047.495972,296.047302 
	C1046.905273,287.092743 1047.257568,278.070740 1047.342285,269.078003 
	C1047.485352,253.897171 1058.071533,243.294708 1073.180054,243.250046 
	C1093.665161,243.189484 1114.150879,243.181747 1134.635742,243.252899 
	C1149.508667,243.304565 1160.096069,253.931259 1160.173340,268.756927 
	C1160.221069,277.916748 1160.218628,287.077209 1160.173950,296.237091 
	C1160.099854,311.411957 1149.583862,321.794250 1134.274170,321.810822 
	C1114.121948,321.832611 1093.969116,321.716309 1073.817993,321.860321 
	C1064.457642,321.927185 1056.994507,318.575928 1051.319336,310.642029 
M1129.381592,262.657715 
	C1111.555664,262.658051 1093.729858,262.643707 1075.903931,262.665894 
	C1068.794556,262.674713 1067.677002,263.773987 1067.655151,270.672333 
	C1067.629883,278.668915 1067.631470,286.665680 1067.656372,294.662262 
	C1067.676636,301.178162 1069.357056,302.900146 1075.960205,302.914337 
	C1094.619141,302.954437 1113.278076,302.956390 1131.936890,302.913696 
	C1137.997192,302.899841 1140.065674,300.870758 1140.143677,294.832825 
	C1140.240479,287.337189 1140.175781,279.839386 1140.166992,272.342499 
	C1140.156738,263.638824 1139.195190,262.697479 1129.381592,262.657715 
z"/>
<path fill="#B40E3D" opacity="1.000000" stroke="none" 
	d="
M245.781189,269.269409 
	C237.307617,262.390503 232.668976,252.717484 233.817383,244.285324 
	C291.831268,244.285324 349.885559,244.285324 408.882721,244.285324 
	C406.994934,253.602692 405.352936,262.544922 403.184692,271.357666 
	C402.910980,272.470306 399.877594,273.540588 398.115082,273.553284 
	C377.117218,273.704346 356.117889,273.651245 335.118927,273.651367 
	C310.120178,273.651550 285.118042,273.862549 260.125641,273.464203 
	C255.416656,273.389130 250.746368,270.886169 245.781189,269.269409 
z"/>
<path fill="#B30C3B" opacity="1.000000" stroke="none" 
	d="
M236.212967,189.290344 
	C242.182999,177.811295 250.971786,173.179825 263.909637,173.344711 
	C308.038208,173.907166 352.178345,173.560059 396.314087,173.560074 
	C398.448883,173.560074 400.583679,173.560074 403.423859,173.560074 
	C405.185638,183.262756 406.890533,192.652359 408.676880,202.490509 
	C349.855316,202.490509 291.967163,202.490509 232.677994,202.490509 
	C233.878036,197.966644 234.981796,193.805756 236.212967,189.290344 
z"/>
<path fill="#838586" opacity="1.000000" stroke="none" 
	d="
M787.665039,264.767914 
	C792.209351,251.601791 802.702271,244.009216 816.011597,243.991821 
	C829.499084,243.974197 842.986694,243.944427 856.473938,243.999359 
	C872.311768,244.063889 885.423340,257.010437 885.661865,272.829803 
	C885.767334,279.821716 885.744995,286.817261 885.666992,293.809875 
	C885.500549,308.720459 874.089417,321.886414 859.232422,322.638245 
	C843.628296,323.427887 827.910034,323.523895 812.322693,322.582184 
	C800.152954,321.846893 791.363770,314.468323 788.013855,302.701416 
	C784.517334,290.419403 785.330505,277.704498 787.665039,264.767914 
M806.729736,289.396423 
	C806.752563,298.661713 809.409607,302.896118 816.112610,303.024689 
	C829.252319,303.276794 842.402832,303.259125 855.543457,303.037079 
	C861.346436,302.939056 865.110596,298.808929 865.224243,293.083466 
	C865.349731,286.763214 865.343140,280.436859 865.227295,274.116241 
	C865.117371,268.115936 861.693359,264.196747 855.749084,264.085724 
	C842.609070,263.840271 829.458435,263.844177 816.318054,264.079651 
	C810.117493,264.190735 806.843628,268.064972 806.745422,274.446899 
	C806.673828,279.104675 806.729919,283.764465 806.729736,289.396423 
z"/>
<path fill="#828485" opacity="1.000000" stroke="none" 
	d="
M812.344116,189.241272 
	C806.018555,198.061142 797.457153,201.858002 787.235229,201.994888 
	C774.414490,202.166580 761.587158,202.198776 748.767273,201.997849 
	C730.614441,201.713348 718.201660,189.029816 718.178101,170.820114 
	C718.167969,163.011642 717.851135,155.097031 718.960266,147.416443 
	C721.088623,132.676880 733.054199,122.948814 747.834167,122.923050 
	C760.990234,122.900108 774.146362,122.909729 787.302490,122.920235 
	C803.985840,122.933548 816.501099,134.309067 817.649841,151.051590 
	C818.172974,158.675964 818.363464,166.436523 817.515686,174.002045 
	C816.943420,179.108139 814.293030,183.981369 812.344116,189.241272 
M797.709778,159.609619 
	C797.709717,158.279327 797.723755,156.948837 797.707214,155.618759 
	C797.595764,146.650375 793.867371,142.938141 784.913452,142.926788 
	C773.107178,142.911835 761.300598,142.865936 749.494812,142.945358 
	C742.226013,142.994247 738.469482,146.785660 738.349304,154.076309 
	C738.258850,159.562225 738.278442,165.051498 738.345764,170.538086 
	C738.435791,177.882950 742.466431,182.003189 749.742126,182.046494 
	C761.880554,182.118729 774.019958,182.118317 786.158386,182.044662 
	C793.226929,182.001785 797.285400,178.108139 797.662476,171.045029 
	C797.848450,167.562744 797.704224,164.062836 797.709778,159.609619 
z"/>
<path fill="#828485" opacity="1.000000" stroke="none" 
	d="
M1232.503662,125.349670 
	C1236.725342,124.425049 1240.589478,123.099602 1244.478516,123.022064 
	C1257.953125,122.753418 1271.436401,122.877518 1284.916260,122.929474 
	C1301.167969,122.992111 1313.884521,135.823242 1313.955566,152.168381 
	C1313.984497,158.825012 1313.978027,165.481918 1313.958862,172.138611 
	C1313.913574,187.865585 1302.886475,200.793686 1287.306641,201.639160 
	C1272.212402,202.458267 1257.006958,202.451523 1241.910400,201.660507 
	C1226.112671,200.832764 1215.072998,188.132004 1215.032837,172.439041 
	C1215.016235,165.948730 1215.073730,159.458023 1215.021118,152.968109 
	C1214.917236,140.171829 1220.816284,131.155365 1232.503662,125.349670 
M1267.499390,142.927338 
	C1260.341187,142.928085 1253.182373,142.864426 1246.025146,142.947647 
	C1238.821899,143.031403 1235.058838,146.873062 1234.978882,154.146118 
	C1234.916504,159.805374 1234.898926,165.466888 1234.984497,171.125549 
	C1235.086182,177.840393 1239.185913,181.984924 1245.951538,182.035492 
	C1258.269531,182.127548 1270.589111,182.126984 1282.907104,182.035721 
	C1289.675781,181.985580 1293.843506,177.820282 1293.937988,171.184326 
	C1294.020874,165.359085 1294.015991,159.530945 1293.938965,153.705551 
	C1293.850342,146.993698 1290.148315,143.153763 1283.480347,142.961533 
	C1278.490479,142.817688 1273.493042,142.929337 1267.499390,142.927338 
z"/>
<path fill="#828485" opacity="1.000000" stroke="none" 
	d="
M1155.875000,196.809021 
	C1156.441528,201.007050 1154.871948,202.184235 1151.135498,202.114197 
	C1139.818359,201.902023 1128.493530,202.129944 1117.173584,202.015488 
	C1098.360107,201.825272 1086.001343,189.288391 1085.988892,170.540298 
	C1085.983765,162.881836 1085.861816,155.220383 1086.043945,147.566269 
	C1086.125488,144.144348 1085.018921,142.774658 1081.478271,142.877502 
	C1074.657959,143.075592 1067.824341,142.802841 1061.003540,142.990021 
	C1057.663574,143.081665 1056.079346,142.162125 1056.242920,138.528854 
	C1056.465942,133.575165 1056.298584,128.603882 1056.298584,122.918777 
	C1061.525146,122.918777 1066.279175,122.918777 1071.033203,122.918777 
	C1075.815796,122.918777 1080.598389,122.918777 1085.989136,122.918777 
	C1085.989136,117.246071 1086.116211,112.133049 1085.940674,107.030441 
	C1085.837891,104.043129 1086.823242,102.784767 1089.921753,102.920700 
	C1094.075928,103.102928 1098.253784,103.138199 1102.403320,102.908447 
	C1105.817261,102.719421 1106.733032,104.232330 1106.634155,107.343857 
	C1106.476318,112.304688 1106.591919,117.274216 1106.591919,122.859589 
	C1123.123413,122.859589 1139.179443,122.859589 1155.835938,122.859589 
	C1155.835938,129.078476 1156.080322,134.704269 1155.612793,140.270264 
	C1155.527588,141.283081 1152.546021,142.788193 1150.880737,142.815887 
	C1138.064697,143.029007 1125.239380,143.115723 1112.426025,142.835571 
	C1107.917847,142.737015 1106.225220,143.885757 1106.489990,148.633469 
	C1106.887695,155.770340 1106.579712,162.945740 1106.598145,170.104691 
	C1106.620361,178.703430 1110.009155,182.033676 1118.797363,182.054779 
	C1129.119629,182.079559 1139.442017,182.061264 1149.764282,182.061630 
	C1151.560303,182.061707 1153.356323,182.061646 1155.875244,182.061646 
	C1155.875244,187.142990 1155.875244,191.738693 1155.875000,196.809021 
z"/>
<path fill="#828485" opacity="1.000000" stroke="none" 
	d="
M518.000000,122.917915 
	C530.828247,122.918129 543.156494,122.903656 555.484741,122.922195 
	C572.533691,122.947830 585.424194,135.025772 585.866760,152.088089 
	C586.264160,167.404846 585.896545,182.740356 586.013184,198.066452 
	C586.036682,201.155045 584.901428,202.207260 581.911133,202.079880 
	C577.919983,201.909866 573.906128,201.861481 569.921021,202.091202 
	C566.551697,202.285431 565.671936,200.904694 565.703552,197.719437 
	C565.839294,184.059769 565.770813,170.397964 565.757324,156.736954 
	C565.747009,146.263092 562.440247,142.940155 552.061890,142.936401 
	C539.233887,142.931763 526.405823,142.934082 513.577820,142.935776 
	C506.727264,142.936676 506.723938,142.938934 506.723083,149.558746 
	C506.720978,165.385544 506.602448,181.213867 506.805420,197.038055 
	C506.857025,201.061661 505.524811,202.387039 501.620911,202.100174 
	C497.809631,201.820129 493.926361,202.332504 490.148804,201.879196 
	C488.769745,201.713730 486.511353,199.779922 486.501678,198.637222 
	C486.290955,173.679962 486.340973,148.720505 486.340973,122.917953 
	C497.008636,122.917953 507.254333,122.917953 518.000000,122.917915 
z"/>
<path fill="#828485" opacity="1.000000" stroke="none" 
	d="
M1417.075073,202.037140 
	C1407.455322,201.962814 1408.303467,203.096649 1408.286133,193.755432 
	C1408.261963,180.759109 1408.305420,167.762634 1408.270020,154.766373 
	C1408.247192,146.408188 1404.795776,142.968170 1396.383423,142.944122 
	C1382.554077,142.904602 1368.722168,143.075562 1354.896362,142.847549 
	C1350.618530,142.776993 1349.068970,143.916489 1349.139160,148.435638 
	C1349.390503,164.593887 1349.137939,180.759476 1349.311523,196.919769 
	C1349.351929,200.684036 1348.526611,202.509262 1344.371094,202.101593 
	C1341.070435,201.777802 1337.692871,201.808777 1334.385376,202.095551 
	C1330.414185,202.439850 1329.194946,200.941879 1329.224487,196.994308 
	C1329.382568,175.834747 1329.298950,154.673370 1329.298828,133.512619 
	C1329.298828,130.213623 1329.298828,126.914627 1329.298828,122.919769 
	C1331.559814,122.919769 1333.320679,122.919769 1335.081543,122.919777 
	C1356.075684,122.919785 1377.069824,122.912857 1398.063965,122.922005 
	C1414.592529,122.929207 1427.608765,134.012726 1428.521118,150.424240 
	C1429.416748,166.537689 1428.899170,182.733765 1428.759277,198.891464 
	C1428.750244,199.945541 1426.793457,201.652924 1425.527588,201.885406 
	C1422.948120,202.359177 1420.221802,202.033432 1417.075073,202.037140 
z"/>
<path fill="#828485" opacity="1.000000" stroke="none" 
	d="
M682.888916,187.992767 
	C682.888733,176.672958 682.925171,165.851166 682.876770,155.029755 
	C682.838806,146.533432 679.197876,142.954727 670.638245,142.941605 
	C655.343445,142.918152 640.048645,142.934998 624.184875,142.934998 
	C624.067505,145.033234 623.886780,146.786072 623.884399,148.539139 
	C623.862488,164.854782 623.791809,181.171188 623.936279,197.485580 
	C623.966248,200.866379 623.120239,202.351959 619.494568,202.100967 
	C615.517883,201.825684 611.485962,202.268250 607.524231,201.900803 
	C606.241394,201.781830 604.060242,200.101685 604.052734,199.122101 
	C603.859497,174.006439 603.900208,148.888962 603.900208,123.210526 
	C606.001770,123.101257 607.759216,122.931892 609.516785,122.930382 
	C630.827087,122.912086 652.137329,122.899918 673.447632,122.924568 
	C689.732117,122.943405 702.742065,135.494370 703.000488,151.821243 
	C703.242920,167.134216 702.988892,182.454514 703.117554,197.770218 
	C703.144958,201.024399 702.070374,202.259537 698.797302,202.087997 
	C694.812561,201.879120 690.801392,201.890228 686.815247,202.084595 
	C683.696716,202.236664 682.681091,200.950394 682.849854,197.978378 
	C683.028809,194.825317 682.889465,191.654175 682.888916,187.992767 
z"/>
<path fill="#B40F3E" opacity="1.000000" stroke="none" 
	d="
M1429.098633,272.000000 
	C1429.098633,288.641327 1429.098633,304.782684 1429.098633,321.759460 
	C1422.921631,321.759460 1417.009644,321.878052 1411.115234,321.609192 
	C1410.379028,321.575653 1409.205322,319.520142 1409.144287,318.353912 
	C1408.909912,313.869751 1408.819458,309.351501 1409.111206,304.874390 
	C1409.368652,300.924591 1408.010010,299.687317 1404.016235,299.723785 
	C1384.200928,299.904907 1364.383057,299.816681 1344.566162,299.800049 
	C1338.127930,299.794647 1331.940796,298.740784 1326.639160,294.755157 
	C1320.279297,289.973724 1316.686890,283.624207 1316.581543,275.593506 
	C1316.459106,266.269470 1316.653076,256.940948 1316.497314,247.617920 
	C1316.444092,244.432587 1317.421753,243.274353 1320.737915,243.174072 
	C1336.507446,242.697159 1336.504028,242.607727 1336.505127,258.492706 
	C1336.505371,263.655090 1336.510620,268.817505 1336.513062,273.979889 
	C1336.514893,278.063293 1338.684937,280.287476 1342.635864,280.305450 
	C1363.617798,280.400970 1384.600342,280.344879 1405.582397,280.416351 
	C1408.669312,280.426880 1409.070801,278.689911 1409.059448,276.233734 
	C1409.015259,266.741791 1409.168579,257.247009 1408.978882,247.758667 
	C1408.909424,244.284546 1409.996704,243.000320 1413.534912,243.181747 
	C1418.484009,243.435516 1423.455933,243.245773 1429.098633,243.245773 
	C1429.098633,252.981964 1429.098633,262.240997 1429.098633,272.000000 
z"/>
<path fill="#838586" opacity="1.000000" stroke="none" 
	d="
M561.689392,253.331696 
	C558.949707,250.434799 556.454346,247.793594 552.858643,243.987625 
	C560.520264,243.987625 566.910889,244.372711 573.231262,243.871887 
	C578.786987,243.431625 582.567383,245.429016 586.123718,249.499634 
	C592.003662,256.229828 598.355286,262.547913 604.891846,269.444458 
	C611.565491,262.352966 618.075806,255.756912 624.183167,248.806839 
	C627.149841,245.430862 630.156433,243.604477 634.844238,243.884216 
	C641.617798,244.288422 648.433350,243.987640 656.677856,243.987640 
	C654.041809,246.876221 652.251587,248.876144 650.420410,250.837875 
	C641.226746,260.687103 632.173767,270.675171 622.734375,280.283325 
	C619.690735,283.381378 619.555481,285.246979 622.566040,288.342590 
	C632.659119,298.720795 642.502930,309.341400 652.432983,319.877930 
	C652.985107,320.463837 653.453735,321.128510 654.377869,322.272125 
	C652.899536,322.620148 651.906738,323.033081 650.904480,323.057404 
	C647.408447,323.142365 643.808960,322.559326 640.429688,323.193695 
	C629.965088,325.158142 623.238281,319.957611 617.225098,312.394745 
	C613.643188,307.889740 609.380798,303.925812 604.932312,299.195526 
	C598.888062,305.529358 593.056458,311.186890 587.784119,317.324860 
	C584.274170,321.411133 580.681274,323.719849 575.003967,323.218781 
	C568.805359,322.671783 562.521179,323.094452 556.274353,323.094452 
	C556.043762,322.621033 555.813171,322.147644 555.582581,321.674225 
	C567.226807,309.340515 578.871094,297.006805 590.784790,284.387665 
	C581.009766,273.952209 571.471802,263.769806 561.689392,253.331696 
z"/>
<path fill="#828485" opacity="1.000000" stroke="none" 
	d="
M823.412048,126.459137 
	C822.909851,125.249596 822.597290,124.369125 822.085815,122.928383 
	C829.211853,122.928383 835.851318,122.683609 842.448669,123.102577 
	C844.073425,123.205750 846.053589,125.171936 847.034851,126.788734 
	C856.526428,142.427032 865.833618,158.177170 875.212463,173.883987 
	C876.283203,175.677155 877.470764,177.400574 879.139282,179.985413 
	C884.530640,170.939163 889.434143,162.714905 894.334229,154.488571 
	C899.866028,145.201477 905.472107,135.957260 910.877136,126.596924 
	C912.482788,123.816444 914.392944,122.686234 917.664612,122.838982 
	C923.605042,123.116348 929.567749,122.917664 936.721985,122.917664 
	C932.904602,129.442703 929.623718,135.124420 926.273010,140.764679 
	C915.146851,159.493439 903.903381,178.153534 892.932068,196.972412 
	C890.744385,200.724945 888.167419,201.692398 883.907288,202.274551 
	C872.320496,203.857910 865.807190,199.636017 860.231384,189.120132 
	C848.952759,167.849014 835.914368,147.510986 823.412048,126.459137 
z"/>
<path fill="#828485" opacity="1.000000" stroke="none" 
	d="
M1196.863770,180.999817 
	C1196.862549,187.155792 1196.791504,192.813034 1196.892212,198.467255 
	C1196.937012,200.990067 1196.031250,202.121506 1193.420532,202.060867 
	C1188.931519,201.956635 1184.414307,202.291718 1179.961426,201.877686 
	C1178.649658,201.755692 1176.462402,199.738556 1176.453857,198.576935 
	C1176.273438,173.959579 1176.344727,149.340317 1176.391968,124.721466 
	C1176.392822,124.260574 1176.699219,123.800270 1176.962524,123.060623 
	C1183.321533,123.060623 1189.720703,123.060623 1196.863892,123.060623 
	C1196.863892,142.361160 1196.863892,161.430511 1196.863770,180.999817 
z"/>
<path fill="#838586" opacity="1.000000" stroke="none" 
	d="
M417.123993,108.508766 
	C416.445923,108.281944 415.623199,107.854782 415.434662,107.234764 
	C410.303223,90.360840 398.694763,80.315659 381.107513,75.186897 
	C399.453888,69.840736 411.393097,58.868477 415.804718,41.723339 
	C420.181335,48.554192 423.744537,56.685974 429.596924,62.522259 
	C435.376495,68.285904 443.470551,71.728691 450.041809,75.869881 
	C433.823822,80.274986 422.584595,91.190132 417.123993,108.508766 
z"/>
<path fill="#808283" opacity="1.000000" stroke="none" 
	d="
M465.334198,127.094643 
	C465.335602,150.726700 465.249725,173.869339 465.418488,197.010117 
	C465.447174,200.943329 464.340057,202.422806 460.354248,202.089920 
	C456.716705,201.786163 453.031586,201.939560 449.372162,202.048706 
	C446.878876,202.123062 445.760834,201.266891 445.766937,198.611252 
	C445.824524,173.648666 445.801117,148.685867 445.801117,122.820007 
	C451.793518,122.820007 457.538971,122.681328 463.260620,122.987656 
	C464.013702,123.027977 464.645020,125.343063 465.334198,127.094643 
z"/>
<path fill="#FFFEFE" opacity="1.000000" stroke="none" 
	d="
M99.630676,234.999878 
	C99.630608,197.881104 99.630608,161.262344 99.630608,124.346809 
	C115.937965,124.346809 131.680664,124.346809 147.778839,124.346809 
	C147.778839,190.372559 147.778839,256.253479 147.778839,322.431366 
	C131.875107,322.431366 116.122932,322.431366 99.630753,322.431366 
	C99.630753,293.344269 99.630753,264.422089 99.630676,234.999878 
z"/>
<path fill="#FBFBFB" opacity="1.000000" stroke="none" 
	d="
M1025.521240,181.885620 
	C1008.289429,182.035248 991.496826,182.024323 974.704529,182.093124 
	C970.645020,182.109756 967.849304,180.989960 967.914246,176.255600 
	C967.975830,171.771744 970.582214,170.827759 974.489746,170.856033 
	C989.452881,170.964340 1004.417358,170.898636 1019.381287,170.898972 
	C1027.119385,170.899139 1027.148438,170.901535 1026.787964,178.511993 
	C1026.736328,179.603409 1026.247070,180.674088 1025.521240,181.885620 
z"/>
<path fill="#FDFDFD" opacity="1.000000" stroke="none" 
	d="
M703.023682,263.977997 
	C715.163940,263.978027 726.807434,263.948944 738.450623,263.987640 
	C747.324158,264.017120 750.752502,267.510254 750.760376,276.397675 
	C750.765381,282.053009 750.864441,287.711060 750.721252,293.362854 
	C750.600281,298.136810 746.857727,302.828247 742.184937,302.907654 
	C725.607666,303.189301 709.022583,303.017517 691.828491,303.017517 
	C691.828491,290.615326 691.755615,278.694672 691.967407,266.779083 
	C691.984314,265.830780 693.866821,264.321991 695.063721,264.113037 
	C697.485474,263.690338 700.031860,263.981323 703.023682,263.977997 
z"/>
<path fill="#FEFBFC" opacity="1.000000" stroke="none" 
	d="
M1129.862915,262.657532 
	C1139.195190,262.697479 1140.156738,263.638824 1140.166992,272.342499 
	C1140.175781,279.839386 1140.240479,287.337189 1140.143677,294.832825 
	C1140.065674,300.870758 1137.997192,302.899841 1131.936890,302.913696 
	C1113.278076,302.956390 1094.619141,302.954437 1075.960205,302.914337 
	C1069.357056,302.900146 1067.676636,301.178162 1067.656372,294.662262 
	C1067.631470,286.665680 1067.629883,278.668915 1067.655151,270.672333 
	C1067.677002,263.773987 1068.794556,262.674713 1075.903931,262.665894 
	C1093.729858,262.643707 1111.555664,262.658051 1129.862915,262.657532 
z"/>
<path fill="#FDFDFD" opacity="1.000000" stroke="none" 
	d="
M806.729370,288.909882 
	C806.729919,283.764465 806.673828,279.104675 806.745422,274.446899 
	C806.843628,268.064972 810.117493,264.190735 816.318054,264.079651 
	C829.458435,263.844177 842.609070,263.840271 855.749084,264.085724 
	C861.693359,264.196747 865.117371,268.115936 865.227295,274.116241 
	C865.343140,280.436859 865.349731,286.763214 865.224243,293.083466 
	C865.110596,298.808929 861.346436,302.939056 855.543457,303.037079 
	C842.402832,303.259125 829.252319,303.276794 816.112610,303.024689 
	C809.409607,302.896118 806.752563,298.661713 806.729370,288.909882 
z"/>
<path fill="#FCFCFC" opacity="1.000000" stroke="none" 
	d="
M797.709595,160.090256 
	C797.704224,164.062836 797.848450,167.562744 797.662476,171.045029 
	C797.285400,178.108139 793.226929,182.001785 786.158386,182.044662 
	C774.019958,182.118317 761.880554,182.118729 749.742126,182.046494 
	C742.466431,182.003189 738.435791,177.882950 738.345764,170.538086 
	C738.278442,165.051498 738.258850,159.562225 738.349304,154.076309 
	C738.469482,146.785660 742.226013,142.994247 749.494812,142.945358 
	C761.300598,142.865936 773.107178,142.911835 784.913452,142.926788 
	C793.867371,142.938141 797.595764,146.650375 797.707214,155.618759 
	C797.723755,156.948837 797.709717,158.279327 797.709595,160.090256 
z"/>
<path fill="#FDFDFD" opacity="1.000000" stroke="none" 
	d="
M1267.999268,142.927277 
	C1273.493042,142.929337 1278.490479,142.817688 1283.480347,142.961533 
	C1290.148315,143.153763 1293.850342,146.993698 1293.938965,153.705551 
	C1294.015991,159.530945 1294.020874,165.359085 1293.937988,171.184326 
	C1293.843506,177.820282 1289.675781,181.985580 1282.907104,182.035721 
	C1270.589111,182.126984 1258.269531,182.127548 1245.951538,182.035492 
	C1239.185913,181.984924 1235.086182,177.840393 1234.984497,171.125549 
	C1234.898926,165.466888 1234.916504,159.805374 1234.978882,154.146118 
	C1235.058838,146.873062 1238.821899,143.031403 1246.025146,142.947647 
	C1253.182373,142.864426 1260.341187,142.928085 1267.999268,142.927277 
z"/>
</svg>