<svg xmlns="http://www.w3.org/2000/svg" xml:space="preserve" viewBox="0 0 1445 444">
  <path fill="#FEFEFE" d="M920 445H1.06V1.09h1444.754V445H920M183.838 188.489c4.16-35.338 36.663-64.393 72.182-64.432 39.66-.043 79.321-.01 118.982-.01h6.093C352.414 70.457 275.082 15.321 178.738 33.56 88.183 50.701 14.8 133.96 22.75 239.08c7 92.565 83.414 175.251 189.797 177.48 45.493.952 86.574-12.942 122.558-40.952 18.551-14.44 34.201-31.582 46.629-52.88h-7.162c-38.827 0-77.655.026-116.483-.007-35.298-.03-65.514-24.158-73.151-58.551-1.038-4.676-1.632-9.554-1.635-14.34-.011-20.15.28-40.301.535-61.34m827.528 58.588c-3.915-1.275-7.82-3.612-11.748-3.656-28.647-.318-57.298-.153-85.948-.217-2.645-.006-3.537 1.033-3.454 3.56.121 3.66.282 7.35-.039 10.987-.358 4.06 1.227 5.022 5.112 4.998 25.984-.16 51.969-.085 77.954-.08 1.498 0 3.352-.503 4.418.187 1.987 1.287 3.517 3.281 5.237 4.98-1.769 1.68-3.38 3.595-5.376 4.937-.922.619-2.595.124-3.928.124-18.989.003-37.979-.124-56.966.045-16.03.142-26.33 10.551-26.38 26.251-.02 5.83.262 11.676-.091 17.485-.262 4.312 1.381 5.235 5.411 5.218 33.98-.146 67.96-.079 101.941-.096 1.583 0 3.167-.19 4.757-.292v-18.585h-5.849c-26.984 0-53.969.02-80.953-.04-2.086-.004-5.016 1.063-5.281-2.724-.257-3.66.67-6.71 4.593-7.796 1.401-.387 2.979-.175 4.476-.176 19.322-.008 38.644.028 57.967-.018 11.829-.028 21.024-6.612 24.638-17.483 3.183-9.57-.676-20.188-10.491-27.61m181.103 32.892c-5.15 5.02-7.772 10.983-7.54 18.315.245 7.73.055 15.476.055 23.527h105.803c1.333 0 2.817.35 3.955-.125 1.107-.46 2.593-1.736 2.643-2.72.265-5.11.123-10.242.123-16.04h-6.377c-27.16 0-54.32.008-81.479-.008-4.832-.003-5.846-1.374-4.724-6.025 1-4.144 4.054-4.74 7.665-4.732 19.829.041 39.657.027 59.485.014 9.417-.006 16.823-4.035 21.738-11.933 4.979-8.002 4.98-16.45.218-24.629-4.851-8.332-12.377-12.328-21.927-12.349-27.492-.06-54.986-.026-82.478-.007-1.443 0-2.886.205-4.266.31v19.097h82.261c1.332 0 2.667-.028 3.998.023 3.245.124 5.628 1.552 5.618 5.015-.011 3.655-2.339 5.211-5.91 5.207-19.66-.023-39.322.031-58.984-.029-7.25-.022-13.849 1.62-19.877 7.09M947.716 141.72c1.853.406 3.704 1.152 5.56 1.163 15.824.094 31.648.052 47.473.055 5.33 0 10.67-.186 15.989.067 6.263.298 9.204 3.342 8.836 9.023h-5.396c-15.491.001-30.983-.059-46.474.021-15.057.078-25.916 10.66-25.948 25.119-.032 14.406 10.403 24.724 25.572 24.826 22.987.154 45.975-.035 68.961.123 3.84.026 4.769-1.311 4.726-4.932-.175-14.823-.04-29.65-.083-44.475-.048-16.823-12.948-29.759-29.702-29.783-21.488-.032-42.976-.008-64.464-.008h-5.307c0 6.365 0 12.156.257 18.801M482.5 273.983h-21.43c0-1.55-.19-2.408.032-3.14 1.373-4.559 4.914-6.823 10.927-6.834 20.653-.04 41.306.028 61.959-.105 1.655-.01 4.682-1.15 4.735-1.925.401-5.882.22-11.804.22-17.991h-4.83c-21.653 0-43.305-.039-64.958.014-16.22.039-28.98 12.922-29.072 29.253a2094.24 2094.24 0 0 0-.004 20.486c.063 14.994 11.383 28.377 26.234 28.891 23.123.8 46.288.395 69.435.356 1.073-.002 3.035-1.37 3.073-2.173.267-5.742.143-11.502.143-17.689h-6.16c-20.487-.001-40.973.033-61.46-.025-6.512-.018-10.116-3.515-10.06-10.186h5.78c22.32 0 44.639-.093 66.956.086 3.984.032 5.443-1.127 5.053-5.1-.291-2.97-.31-6.017.004-8.982.432-4.085-1.24-5.06-5.11-5.017-16.82.189-33.645.081-51.467.081m216-29.992h-26.19v108.784c5.382 0 10.357-.164 15.316.057 3.369.15 4.33-1.224 4.243-4.394-.172-6.322.275-12.675-.153-18.974-.344-5.081 1.308-6.607 6.412-6.489 14.146.33 28.307.284 42.457.065 18.283-.282 30.445-12.875 30.47-31.17.009-6.16.056-12.322-.01-18.482-.181-16.573-13.052-29.357-29.584-29.391-13.987-.03-27.974-.006-42.961-.006m353 66.967c5.495 7.618 12.958 10.97 22.318 10.902 20.151-.144 40.304-.027 60.456-.05 15.31-.016 25.826-10.398 25.9-25.573.045-9.16.047-18.32 0-27.48-.078-14.826-10.665-25.452-25.538-25.504a9558.11 9558.11 0 0 0-61.456-.003c-15.108.045-25.695 10.647-25.838 25.828-.084 8.993-.437 18.015.154 26.97.318 4.818 2.371 9.522 4.005 14.91m-805.443-41.454c4.688 1.382 9.359 3.885 14.068 3.96 24.992.399 49.994.188 74.993.187 20.999 0 41.998.053 62.996-.098 1.763-.012 4.796-1.083 5.07-2.195 2.168-8.813 3.81-17.755 5.698-27.073H233.817c-1.148 8.432 3.49 18.106 12.241 25.219m-9.972-79.86-3.408 12.847h175.999l-5.253-28.93h-7.11c-44.136 0-88.276.346-132.404-.216-12.938-.165-21.727 4.466-27.824 16.3m551.468 75.51c-2.223 12.55-3.037 25.264.46 37.546 3.35 11.767 12.139 19.146 24.309 19.881 15.587.942 31.305.846 46.91.056 14.856-.752 26.268-13.918 26.434-28.828.078-6.993.1-13.988-.005-20.98-.239-15.82-13.35-28.766-29.188-28.83-13.487-.056-26.975-.026-40.462-.008-13.31.017-23.803 7.61-28.458 21.162m25.018-76.195c1.721-4.978 4.371-9.85 4.944-14.957.847-7.565.657-15.326.134-22.95-1.149-16.743-13.664-28.118-30.348-28.132-13.156-.01-26.312-.02-39.468.003-14.78.026-26.745 9.754-28.874 24.493-1.109 7.681-.792 15.596-.782 23.404.024 18.21 12.436 30.893 30.59 31.178 12.82.2 25.646.169 38.467-.003 10.222-.137 18.784-3.934 25.337-13.036m419.586-63.438c-11.342 5.634-17.24 14.65-17.137 27.447.053 6.49-.005 12.98.012 19.471.04 15.693 11.08 28.394 26.877 29.222a426.94 426.94 0 0 0 45.397-.022c15.58-.845 26.607-13.773 26.652-29.5.019-6.657.025-13.314-.003-19.97-.071-16.346-12.788-29.177-29.04-29.24-13.48-.051-26.963-.176-40.437.093-3.89.078-7.754 1.403-12.321 2.499m-76.283 70.813v-14.272h-6.11c-10.323 0-20.645.018-30.968-.007-8.788-.021-12.177-3.352-12.199-11.95-.018-7.16.29-14.335-.108-21.472-.265-4.747 1.428-5.896 5.936-5.797 12.813.28 25.639.193 38.455-.02 1.665-.028 4.647-1.533 4.732-2.546.467-5.566.223-11.192.223-17.41h-49.244c0-5.586-.116-10.555.042-15.516.099-3.112-.817-4.625-4.23-4.436-4.15.23-8.328.195-12.482.013-3.099-.136-4.084 1.122-3.981 4.11.175 5.102.048 10.215.048 15.888H1056.3c0 5.685.167 10.656-.056 15.61-.164 3.633 1.42 4.553 4.76 4.461 6.821-.187 13.655.086 20.475-.112 3.54-.103 4.647 1.266 4.566 4.688-.182 7.654-.06 15.316-.055 22.974.012 18.748 12.371 31.285 31.185 31.475 11.32.115 22.644-.113 33.961.1 3.737.07 5.307-1.108 4.74-5.78M517.5 122.917h-31.159c0 25.803-.05 50.762.16 75.72.01 1.142 2.269 3.076 3.648 3.241 3.777.454 7.66-.059 11.472.221 3.904.287 5.236-1.038 5.184-5.062-.203-15.824-.084-31.652-.082-47.48 0-6.62.004-6.621 6.855-6.622 12.828-.002 25.656-.004 38.484 0 10.378.004 13.685 3.327 13.695 13.801.014 13.661.082 27.323-.053 40.982-.032 3.186.848 4.566 4.217 4.372 3.985-.23 7.999-.181 11.99-.011 2.99.127 4.126-.925 4.102-4.014-.116-15.326.251-30.661-.146-45.978-.443-17.062-13.333-29.14-30.382-29.166-12.329-.018-24.657-.004-37.985-.004m900.056 79.12c2.666-.005 5.392.321 7.972-.153 1.265-.232 3.222-1.94 3.231-2.994.14-16.157.658-32.353-.238-48.467-.912-16.411-13.928-27.495-30.457-27.502-20.994-.01-41.988-.002-62.982-.002h-5.783v10.593c0 21.16.084 42.322-.075 63.481-.03 3.948 1.19 5.446 5.161 5.102 3.308-.287 6.685-.318 9.986.006 4.156.407 4.98-1.418 4.94-5.182-.173-16.16.08-32.326-.172-48.484-.07-4.52 1.48-5.659 5.757-5.588 13.826.228 27.658.057 41.487.096 8.413.024 11.864 3.464 11.887 11.822.035 12.997-.008 25.993.016 38.99.017 9.34-.83 8.207 9.27 8.281M682.889 188.49c0 3.163.14 6.334-.04 9.487-.168 2.972.848 4.259 3.966 4.107 3.986-.195 7.998-.206 11.982.003 3.273.172 4.348-1.064 4.32-4.318-.128-15.315.126-30.636-.117-45.949-.258-16.327-13.268-28.878-29.552-28.896-21.31-.025-42.62-.013-63.931.005-1.758.002-3.515.171-5.617.28 0 25.679-.04 50.796.153 75.912.007.98 2.188 2.66 3.471 2.779 3.962.367 7.994-.075 11.97.2 3.626.251 4.472-1.235 4.442-4.615-.144-16.315-.074-32.631-.052-48.947.003-1.753.184-3.506.3-5.604 15.865 0 31.16-.017 46.454.007 8.56.013 12.2 3.591 12.239 12.088.048 10.821.012 21.643.012 33.46m746.21 83.01v-28.254c-5.643 0-10.615.19-15.564-.064-3.538-.182-4.626 1.103-4.556 4.577.19 9.488.036 18.983.08 28.475.012 2.456-.39 4.193-3.477 4.182-20.982-.071-41.964-.015-62.946-.11-3.951-.019-6.121-2.243-6.123-6.326-.002-5.162-.008-10.325-.008-15.487-.001-15.885.002-15.796-15.767-15.319-3.316.1-4.294 1.259-4.24 4.444.155 9.323-.039 18.651.084 27.976.105 8.03 3.697 14.38 10.057 19.161 5.302 3.986 11.489 5.04 17.927 5.045 19.817.017 39.635.105 59.45-.076 3.994-.037 5.353 1.2 5.095 5.15-.292 4.478-.201 8.996.033 13.48.061 1.166 1.235 3.222 1.971 3.255 5.895.27 11.807.15 17.984.15V271.5m-867.165-17.913 28.85 30.8-35.201 37.287.691 1.42c6.247 0 12.531-.422 18.73.125 5.677.5 9.27-1.808 12.78-5.894 5.272-6.138 11.104-11.796 17.148-18.13 4.449 4.73 8.711 8.695 12.293 13.2 6.013 7.563 12.74 12.763 23.205 10.799 3.379-.635 6.978-.052 10.474-.137 1.003-.024 1.996-.437 3.474-.785-.924-1.143-1.393-1.808-1.945-2.394-9.93-10.537-19.774-21.157-29.867-31.535-3.01-3.096-2.875-4.962.168-8.06 9.44-9.608 18.493-19.596 27.686-29.445 1.832-1.962 3.622-3.962 6.258-6.85-8.245 0-15.06.3-21.834-.104-4.688-.28-7.694 1.547-10.66 4.923-6.108 6.95-12.619 13.546-19.292 20.637-6.537-6.896-12.888-13.214-18.768-19.944-3.557-4.071-7.337-6.068-12.893-5.628-6.32.5-12.71.116-20.372.116a13250.9 13250.9 0 0 0 9.075 9.6m261.668-126.8c12.312 20.723 25.35 41.061 36.63 62.332 5.575 10.516 12.088 14.738 23.675 13.155 4.26-.583 6.837-1.55 9.025-5.303 10.971-18.818 22.215-37.479 33.341-56.207 3.35-5.64 6.632-11.322 10.449-17.847-7.154 0-13.117.198-19.057-.079-3.272-.153-5.182.977-6.788 3.758-5.405 9.36-11.011 18.604-16.543 27.892-4.9 8.226-9.803 16.45-15.195 25.496-1.668-2.584-2.856-4.308-3.927-6.101-9.378-15.707-18.686-31.457-28.177-47.095-.981-1.617-2.962-3.583-4.586-3.686-6.598-.42-13.237-.175-20.363-.175.511 1.441.824 2.322 1.516 3.86m373.262 53.712v-57.44h-19.901c-.264.74-.57 1.2-.571 1.661-.047 24.62-.119 49.239.062 73.856.008 1.162 2.196 3.179 3.507 3.3 4.453.415 8.97.08 13.46.184 2.61.06 3.516-1.07 3.471-3.594-.1-5.654-.03-11.311-.028-17.967m-779.59-72.281c5.31-17.029 16.55-27.944 32.768-32.35-6.571-4.14-14.666-7.583-20.445-13.347-5.852-5.836-9.416-13.968-13.792-20.799-4.412 17.145-16.351 28.118-34.697 33.464 17.587 5.129 29.195 15.174 34.327 32.048.188.62 1.01 1.047 1.84.984m48.058 18.386c-.688-1.262-1.32-3.577-2.072-3.617-5.722-.307-11.467-.168-17.46-.168 0 25.866.024 50.829-.034 75.791-.006 2.656 1.112 3.512 3.605 3.438 3.66-.11 7.345-.263 10.982.04 3.986.334 5.093-1.146 5.064-5.079-.168-23.14-.082-46.283-.085-70.405z"/>
  <path fill="#B30A3A" d="M183.8 188.933c-.218 20.595-.508 40.746-.497 60.897.003 4.785.597 9.663 1.635 14.339 7.637 34.393 37.853 58.522 73.151 58.551 38.828.033 77.656.008 116.483.008h7.162c-12.428 21.297-28.078 38.44-46.629 52.879-35.984 28.01-77.065 41.904-122.558 40.951C106.164 414.33 29.75 331.644 22.75 239.08 14.8 133.959 88.183 50.7 178.738 33.56c96.344-18.239 173.676 36.897 202.357 90.487h-6.093c-39.66 0-79.321-.033-118.982.01-35.519.039-68.022 29.094-72.22 64.876M99.63 235.5v86.931h48.149V124.347H99.63V235.5z"/>
  <path fill="#B5113F" d="M1011.668 247.28c9.513 7.218 13.372 17.836 10.19 27.406-3.615 10.871-12.81 17.455-24.64 17.483-19.322.046-38.644.01-57.966.018-1.497 0-3.075-.211-4.476.176-3.924 1.086-4.85 4.136-4.593 7.796.265 3.787 3.195 2.72 5.281 2.725 26.984.059 53.969.039 80.953.039h5.849v18.585c-1.59.102-3.174.291-4.757.292-33.98.017-67.96-.05-101.94.096-4.03.017-5.674-.906-5.412-5.218.353-5.809.072-11.655.09-17.485.052-15.7 10.35-26.109 26.38-26.251 18.988-.169 37.978-.042 56.967-.045 1.333 0 3.006.495 3.928-.124 1.996-1.342 3.607-3.256 5.376-4.936-1.72-1.7-3.25-3.694-5.237-4.98-1.066-.691-2.92-.188-4.418-.188-25.985-.005-51.97-.08-77.954.08-3.885.024-5.47-.939-5.112-4.998.321-3.636.16-7.326.04-10.987-.084-2.527.808-3.566 3.453-3.56 28.65.064 57.301-.101 85.948.217 3.929.044 7.833 2.38 12.05 3.858z"/>
  <path fill="#B5103F" d="M1192.74 279.739c5.757-5.24 12.356-6.882 19.606-6.86 19.662.06 39.323.006 58.985.029 3.57.004 5.898-1.552 5.909-5.207.01-3.463-2.373-4.89-5.618-5.015-1.331-.051-2.666-.023-3.998-.023h-82.261v-19.098c1.38-.104 2.823-.308 4.266-.31 27.492-.018 54.986-.051 82.478.008 9.55.021 17.076 4.017 21.927 12.35 4.761 8.177 4.76 16.626-.218 24.628-4.915 7.898-12.321 11.927-21.738 11.933-19.828.013-39.656.027-59.485-.014-3.61-.007-6.665.588-7.665 4.732-1.122 4.65-.108 6.022 4.724 6.025 27.16.016 54.32.008 81.48.008h6.376c0 5.798.142 10.93-.123 16.04-.05.984-1.536 2.26-2.643 2.72-1.138.475-2.622.124-3.955.124l-99.474.001h-6.329c0-8.051.19-15.796-.054-23.527-.233-7.332 2.389-13.296 7.81-18.544z"/>
  <path fill="#828485" d="M947.588 141.292c-.129-6.218-.129-12.01-.129-18.374h5.307c21.488 0 42.976-.024 64.464.008 16.754.024 29.654 12.96 29.702 29.783.043 14.825-.092 29.652.083 44.475.043 3.62-.886 4.958-4.726 4.932-22.986-.158-45.974.031-68.96-.123-15.17-.102-25.605-10.42-25.573-24.826.032-14.459 10.89-25.041 25.948-25.119 15.491-.08 30.983-.02 46.474-.02h5.396c.368-5.682-2.573-8.726-8.836-9.024-5.319-.253-10.659-.067-15.989-.067-15.825-.003-31.65.039-47.474-.055-1.855-.01-3.706-.757-5.687-1.59m78.372 40.462c.287-1.08.776-2.15.828-3.242.36-7.61.331-7.613-7.407-7.613-14.964 0-29.928.065-44.891-.043-3.908-.028-6.514.916-6.576 5.4-.065 4.734 2.731 5.854 6.79 5.837 16.793-.069 33.585-.058 51.256-.339z"/>
  <path fill="#838586" d="M483 273.983c17.322 0 34.146.108 50.966-.08 3.871-.044 5.543.931 5.11 5.016-.313 2.965-.294 6.013-.003 8.982.39 3.973-1.07 5.132-5.053 5.1-22.317-.18-44.637-.086-66.955-.086h-5.78c-.057 6.67 3.547 10.168 10.06 10.186 20.486.058 40.972.024 61.46.025h6.159c0 6.187.124 11.947-.143 17.689-.038.802-2 2.171-3.073 2.173-23.147.039-46.312.445-69.435-.356-14.85-.514-26.171-13.897-26.234-28.89a2094.24 2094.24 0 0 1 .004-20.487c.091-16.331 12.852-29.214 29.072-29.253 21.653-.053 43.305-.014 64.958-.014h4.83c0 6.187.181 12.109-.22 17.99-.053.775-3.08 1.915-4.735 1.926-20.653.133-41.306.065-61.96.105-6.012.011-9.553 2.275-10.926 6.833-.221.733-.031 1.59-.031 3.141H483z"/>
  <path fill="#828485" d="M699 243.99c14.487 0 28.474-.022 42.461.007 16.532.034 29.403 12.818 29.583 29.39.067 6.161.02 12.323.011 18.484-.025 18.294-12.187 30.887-30.47 31.17-14.15.218-28.311.264-42.457-.066-5.104-.118-6.756 1.408-6.412 6.49.428 6.298-.019 12.65.153 18.973.086 3.17-.874 4.544-4.243 4.394-4.959-.221-9.934-.057-15.316-.057V243.99H699m3.527 19.987c-2.495.003-5.042-.288-7.463.135-1.197.209-3.08 1.718-3.097 2.666-.211 11.916-.139 23.836-.139 36.239 17.195 0 33.78.171 50.357-.11 4.673-.08 8.415-4.771 8.536-9.545.143-5.652.044-11.31.04-16.965-.008-8.888-3.437-12.38-12.31-12.41-11.644-.04-23.287-.01-35.924-.01z"/>
  <path fill="#B51140" d="M1051.32 310.642c-1.453-5.072-3.506-9.776-3.824-14.595-.59-8.954-.238-17.976-.154-26.969.143-15.18 10.73-25.783 25.838-25.828 20.485-.06 40.97-.068 61.456.003 14.873.052 25.46 10.678 25.537 25.504.048 9.16.046 18.32.001 27.48-.074 15.175-10.59 25.557-25.9 25.574-20.152.022-40.305-.095-60.456.05-9.36.066-16.823-3.285-22.499-11.219m78.063-47.984c-17.826 0-35.652-.014-53.478.008-7.11.009-8.227 1.108-8.249 8.006-.025 7.997-.024 15.994.001 23.99.02 6.516 1.701 8.238 8.304 8.252 18.66.04 37.318.042 55.977 0 6.06-.014 8.129-2.043 8.207-8.081.096-7.496.032-14.994.023-22.49-.01-8.704-.972-9.646-10.785-9.685z"/>
  <path fill="#B40E3D" d="M245.781 269.27c-8.473-6.88-13.112-16.553-11.964-24.985h175.066c-1.888 9.318-3.53 18.26-5.698 27.073-.274 1.112-3.307 2.183-5.07 2.195-20.998.151-41.997.098-62.996.098-24.999 0-50.001.212-74.993-.187-4.71-.075-9.38-2.578-14.345-4.195z"/>
  <path fill="#B30C3B" d="M236.213 189.29c5.97-11.479 14.759-16.11 27.697-15.945 44.128.562 88.268.215 132.404.215h7.11l5.253 28.93H232.678c1.2-4.523 2.304-8.684 3.535-13.2z"/>
  <path fill="#838586" d="M787.665 264.768c4.544-13.166 15.037-20.759 28.347-20.776 13.487-.018 26.975-.048 40.462.007 15.838.065 28.95 13.011 29.188 28.83.105 6.993.083 13.988.005 20.98-.166 14.911-11.578 28.077-26.435 28.83-15.604.789-31.322.885-46.91-.057-12.169-.735-20.958-8.114-24.308-19.88-3.497-12.283-2.683-24.998-.349-37.934m19.065 24.628c.023 9.266 2.68 13.5 9.383 13.629 13.14.252 26.29.234 39.43.012 5.803-.098 9.568-4.228 9.681-9.954.126-6.32.12-12.646.003-18.967-.11-6-3.534-9.92-9.478-10.03a1075.28 1075.28 0 0 0-39.43-.006c-6.202.11-9.475 3.985-9.574 10.367-.071 4.658-.015 9.317-.015 14.95z"/>
  <path fill="#828485" d="M812.344 189.241c-6.325 8.82-14.887 12.617-25.109 12.754-12.82.172-25.648.204-38.468.003-18.153-.285-30.565-12.968-30.589-31.178-.01-7.808-.327-15.723.782-23.404 2.129-14.74 14.094-24.467 28.874-24.493 13.156-.023 26.312-.013 39.468-.003 16.684.014 29.2 11.39 30.348 28.132.523 7.624.713 15.385-.134 22.95-.573 5.106-3.223 9.98-5.172 15.24M797.71 159.61c0-1.33.014-2.661-.003-3.991-.111-8.969-3.84-12.68-12.794-12.692-11.806-.015-23.612-.061-35.418.018-7.269.05-11.026 3.84-11.146 11.131-.09 5.486-.07 10.975-.003 16.462.09 7.345 4.12 11.465 11.396 11.508 12.139.073 24.278.072 36.416-.001 7.069-.043 11.127-3.937 11.504-11 .186-3.482.042-6.982.048-11.435zm434.794-34.26c4.221-.925 8.085-2.25 11.975-2.328 13.474-.269 26.957-.144 40.437-.093 16.252.063 28.969 12.894 29.04 29.24.028 6.656.022 13.313.003 19.97-.045 15.727-11.073 28.655-26.652 29.5-15.095.82-30.3.813-45.397.022-15.797-.828-26.837-13.529-26.877-29.222-.017-6.49.04-12.981-.012-19.47-.104-12.797 5.795-21.814 17.483-27.62m34.995 17.578c-7.158.001-14.317-.063-21.474.02-7.203.084-10.966 3.926-11.046 11.2-.062 5.658-.08 11.32.005 16.979.102 6.714 4.202 10.859 10.968 10.91 12.318.092 24.637.091 36.955 0 6.769-.05 10.937-4.216 11.031-10.852.083-5.825.078-11.653.001-17.478-.089-6.712-3.79-10.552-10.459-10.744-4.99-.144-9.987-.033-15.98-.035zm-111.624 53.882c.567 4.198-1.003 5.375-4.74 5.305-11.317-.212-22.641.016-33.961-.099-18.814-.19-31.173-12.727-31.185-31.475-.005-7.658-.127-15.32.055-22.974.081-3.422-1.025-4.791-4.566-4.688-6.82.198-13.654-.075-20.474.112-3.34.092-4.925-.828-4.761-4.461.223-4.954.056-9.925.056-15.61h29.69c0-5.673.127-10.786-.048-15.889-.103-2.987.882-4.245 3.98-4.11 4.155.183 8.333.218 12.482-.012 3.414-.189 4.33 1.324 4.231 4.436-.158 4.96-.042 9.93-.042 15.516h49.244c0 6.218.244 11.844-.223 17.41-.085 1.013-3.067 2.518-4.732 2.546-12.816.213-25.642.3-38.455.02-4.508-.099-6.2 1.05-5.936 5.797.398 7.137.09 14.313.108 21.472.022 8.598 3.411 11.929 12.2 11.95 10.322.025 20.644.006 30.966.007h6.111v14.747zM518 122.918c12.828 0 25.156-.014 37.485.004 17.049.026 29.94 12.104 30.382 29.166.397 15.317.03 30.652.146 45.978.024 3.089-1.112 4.141-4.102 4.014-3.991-.17-8.005-.219-11.99.011-3.37.194-4.25-1.186-4.217-4.372.135-13.66.067-27.321.053-40.982-.01-10.474-3.317-13.797-13.695-13.8-12.828-.005-25.656-.003-38.484-.001-6.85 0-6.854.003-6.855 6.623-.002 15.827-.12 31.655.082 47.48.052 4.023-1.28 5.348-5.184 5.061-3.811-.28-7.695.233-11.472-.22-1.38-.166-3.638-2.1-3.647-3.243-.211-24.957-.161-49.916-.161-75.719H518zm899.075 79.119c-9.62-.074-8.772 1.06-8.789-8.282-.024-12.996.02-25.992-.016-38.989-.023-8.358-3.474-11.798-11.887-11.822-13.829-.04-27.66.132-41.487-.096-4.277-.071-5.827 1.068-5.757 5.588.252 16.158-.001 32.323.173 48.484.04 3.764-.785 5.59-4.94 5.182-3.302-.324-6.68-.293-9.987-.006-3.97.344-5.19-1.154-5.16-5.102.158-21.16.074-42.32.074-63.481V122.92h5.783c20.994 0 41.988-.007 62.982.002 16.529.007 29.545 11.09 30.457 27.502.896 16.114.378 32.31.238 48.467-.009 1.055-1.966 2.762-3.231 2.994-2.58.474-5.306.148-8.453.152zm-734.186-14.044c0-11.32.036-22.142-.012-32.963-.038-8.497-3.68-12.075-12.239-12.088-15.295-.024-30.59-.007-46.453-.007-.117 2.098-.298 3.851-.3 5.604-.023 16.316-.093 32.632.051 48.947.03 3.38-.816 4.866-4.441 4.615-3.977-.275-8.009.167-11.97-.2-1.284-.12-3.465-1.8-3.472-2.779-.194-25.116-.153-50.233-.153-75.911 2.102-.11 3.86-.28 5.617-.28 21.31-.019 42.62-.031 63.93-.006 16.285.018 29.295 12.57 29.553 28.896.243 15.313-.011 30.634.118 45.95.027 3.253-1.048 4.489-4.32 4.317a118.754 118.754 0 0 0-11.983-.003c-3.118.152-4.134-1.135-3.965-4.107.179-3.153.04-6.324.039-9.985z"/>
  <path fill="#B40F3E" d="M1429.099 272v49.76c-6.177 0-12.09.118-17.984-.15-.736-.034-1.91-2.09-1.97-3.256-.235-4.484-.326-9.002-.034-13.48.258-3.95-1.101-5.187-5.095-5.15-19.815.18-39.633.093-59.45.076-6.438-.005-12.625-1.06-17.927-5.045-6.36-4.781-9.952-11.13-10.057-19.161-.123-9.325.071-18.653-.085-27.976-.053-3.185.925-4.344 4.24-4.444 15.77-.477 15.767-.566 15.768 15.319 0 5.162.006 10.325.008 15.487.002 4.083 2.172 6.307 6.123 6.325 20.982.096 41.964.04 62.946.111 3.087.01 3.489-1.726 3.477-4.182-.044-9.492.11-18.987-.08-28.475-.07-3.474 1.018-4.759 4.556-4.577 4.949.254 9.92.064 15.564.064V272z"/>
  <path fill="#838586" d="M561.69 253.332c-2.74-2.897-5.236-5.538-8.831-9.344 7.661 0 14.052.385 20.372-.116 5.556-.44 9.336 1.557 12.893 5.628 5.88 6.73 12.231 13.048 18.768 19.944 6.673-7.091 13.184-13.687 19.291-20.637 2.967-3.376 5.973-5.203 10.661-4.923 6.774.404 13.59.104 21.834.104-2.636 2.888-4.426 4.888-6.258 6.85-9.193 9.85-18.246 19.837-27.686 29.445-3.043 3.098-3.179 4.964-.168 8.06 10.093 10.378 19.937 20.998 29.867 31.535.552.586 1.02 1.25 1.945 2.394-1.478.348-2.471.761-3.474.785-3.496.085-7.095-.498-10.474.137-10.465 1.964-17.192-3.236-23.205-10.8-3.582-4.504-7.844-8.468-12.293-13.198-6.044 6.333-11.876 11.99-17.148 18.129-3.51 4.086-7.103 6.395-12.78 5.894-6.199-.547-12.483-.125-18.73-.125l-.691-1.42 35.202-37.286c-9.775-10.436-19.313-20.618-29.096-31.056z"/>
  <path fill="#828485" d="M823.412 126.46c-.502-1.21-.815-2.09-1.326-3.532 7.126 0 13.765-.244 20.363.175 1.624.103 3.605 2.069 4.586 3.686 9.491 15.638 18.799 31.388 28.177 47.095 1.071 1.793 2.259 3.517 3.927 6.101 5.392-9.046 10.295-17.27 15.195-25.496 5.532-9.288 11.138-18.532 16.543-27.892 1.606-2.78 3.516-3.91 6.788-3.758 5.94.277 11.903.079 19.057.079-3.817 6.525-7.098 12.206-10.449 17.847-11.126 18.728-22.37 37.389-33.34 56.207-2.189 3.753-4.766 4.72-9.026 5.303-11.587 1.583-18.1-2.639-23.676-13.155-11.278-21.271-24.317-41.609-36.819-62.66zM1196.864 181c-.001 6.156-.072 11.813.028 17.467.045 2.523-.86 3.655-3.471 3.594-4.49-.104-9.007.23-13.46-.183-1.311-.122-3.499-2.14-3.507-3.301-.18-24.617-.11-49.237-.062-73.856 0-.46.307-.92.57-1.66h19.902V181z"/>
  <path fill="#838586" d="M417.124 108.509c-.678-.227-1.5-.654-1.69-1.274-5.13-16.874-16.74-26.92-34.326-32.048 18.346-5.346 30.285-16.319 34.697-33.464 4.376 6.831 7.94 14.963 13.792 20.8 5.78 5.763 13.874 9.206 20.445 13.347-16.218 4.405-27.457 15.32-32.918 32.639z"/>
  <path fill="#808283" d="M465.334 127.095c.002 23.632-.084 46.774.084 69.915.03 3.933-1.078 5.413-5.064 5.08-3.637-.304-7.322-.15-10.982-.041-2.493.074-3.611-.782-3.605-3.438.058-24.962.034-49.925.034-75.791 5.993 0 11.738-.139 17.46.168.753.04 1.384 2.355 2.073 4.107z"/>
  <path fill="#FFFEFE" d="M99.63 235V124.347h48.149V322.43H99.63V235z"/>
  <path fill="#FBFBFB" d="M1025.521 181.886c-17.232.15-34.024.138-50.816.207-4.06.017-6.856-1.103-6.79-5.837.06-4.484 2.667-5.428 6.575-5.4 14.963.108 29.927.043 44.891.043 7.738 0 7.767.003 7.407 7.613-.052 1.091-.54 2.162-1.267 3.374z"/>
  <path fill="#FDFDFD" d="M703.024 263.978c12.14 0 23.783-.03 35.427.01 8.873.03 12.302 3.522 12.31 12.41.004 5.655.103 11.313-.04 16.965-.12 4.774-3.863 9.465-8.536 9.545-16.577.281-33.162.11-50.357.11 0-12.403-.072-24.323.14-36.239.016-.948 1.899-2.457 3.096-2.666 2.421-.423 4.968-.132 7.96-.135z"/>
  <path fill="#FEFBFC" d="M1129.863 262.658c9.332.04 10.294.98 10.304 9.684.009 7.497.073 14.995-.023 22.49-.078 6.039-2.147 8.068-8.207 8.082-18.659.042-37.318.04-55.977 0-6.603-.014-8.283-1.736-8.304-8.252-.025-7.996-.026-15.993 0-23.99.021-6.898 1.139-7.997 8.248-8.006 17.826-.022 35.652-.008 53.959-.008z"/>
  <path fill="#FDFDFD" d="M806.73 288.91c0-5.146-.056-9.805.015-14.463.099-6.382 3.372-10.256 9.573-10.367 13.14-.236 26.291-.24 39.431.006 5.944.11 9.368 4.03 9.478 10.03.116 6.32.123 12.647-.003 18.967-.113 5.726-3.878 9.856-9.68 9.954-13.141.222-26.292.24-39.431-.012-6.703-.129-9.36-4.363-9.384-14.115z"/>
  <path fill="#FCFCFC" d="M797.71 160.09c-.006 3.973.138 7.473-.048 10.955-.377 7.063-4.435 10.957-11.504 11a3027.71 3027.71 0 0 1-36.416.001c-7.276-.043-11.306-4.163-11.396-11.508-.068-5.487-.087-10.976.003-16.462.12-7.29 3.877-11.082 11.146-11.13 11.806-.08 23.612-.034 35.418-.02 8.954.012 12.683 3.724 12.794 12.693.017 1.33.003 2.66.003 4.471z"/>
  <path fill="#FDFDFD" d="M1268 142.927c5.493.002 10.49-.11 15.48.035 6.668.192 10.37 4.032 10.459 10.744.077 5.825.082 11.653-.001 17.478-.094 6.636-4.262 10.802-11.03 10.852-12.319.091-24.638.092-36.956 0-6.766-.051-10.866-4.196-10.968-10.91-.085-5.66-.067-11.32-.005-16.98.08-7.273 3.843-11.115 11.046-11.198 7.157-.084 14.316-.02 21.974-.02z"/>
</svg>
