<svg xmlns="http://www.w3.org/2000/svg" viewBox="0 0 1377 392" xml:space="preserve">
  <path fill="#FEFEFE" d="M1072 393H1V1h1377v392h-306m-54.982-265.5v124.114h40.797V114.795c1.672.977 2.435 2.17 3.151 3.391 23.604 40.215 47.602 80.207 70.52 120.809 5.631 9.974 11.515 14.656 23.042 13.131 7.963-1.053 16.178-.202 24.432-.202V27.742h-40.277V173.27c-2.143-1.565-3.267-3.49-4.39-5.415-26.523-45.456-53.076-90.893-79.498-136.407-1.83-3.152-3.843-4.282-7.472-4.2-11.158.254-22.326.093-33.49.093h-14.67c1.285 2.245 2.023 3.658 2.873 5 4.28 6.753 8.738 13.4 12.798 20.282 1.266 2.147 2.075 4.908 2.092 7.394.158 22.16.092 44.321.092 67.482m-561.44 24.293c1.821-.113 3.642-.321 5.462-.324 17.667-.025 35.333-.015 53-.015h5.385V112.49h-64.358c-.12-1.954-.286-3.41-.288-4.865-.021-12 .214-24.007-.126-35.997-.13-4.615 1.48-5.48 5.704-5.451 26.665.178 53.332.095 79.999.08 1.717-.002 3.434-.159 5.388-.255l-6.475-38.234H414.544V251.93h5.741c36.5 0 73 .016 109.5-.023 4.127-.004 9.33 1.12 12.057-.922 2.381-1.784 2.099-7.27 2.772-11.158 1.495-8.635 2.852-17.293 4.386-26.684h-94.029c0-20.622 0-40.589.608-61.349m405.284-40.324c-.067-13.324.02-26.653-.29-39.972-.097-4.211 1.262-5.342 5.375-5.317 26.658.165 53.317.085 79.975.084h5.725c-1.902-11.802-3.915-22.774-5.33-33.823-.56-4.383-2.364-5.207-6.401-5.191-38.155.149-76.31.089-114.466.088h-5.067v224.59h91.668c10.83 0 21.662.078 32.49-.096 1.451-.023 3.982-1.117 4.157-2.06 2.207-11.9 4.073-23.864 6.155-36.596h-93.781V151.24h64.174v-38.7c-2.325 0-4.293.01-6.26-.002-19.149-.105-38.298-.214-58.124-1.068M650.058 98.395c-6.525-22.194-13.145-44.361-19.477-66.61-1.03-3.617-2.626-4.654-6.217-4.528-7.655.27-15.326.083-22.99.083H584.63c.574 2.2.866 3.633 1.32 5.013 23.698 71.942 47.428 143.872 71.053 215.838.95 2.892 2.281 3.843 5.272 3.8 11.495-.162 23-.28 34.487.047 4.276.121 5.98-1.34 7.281-5.317 23.511-71.806 47.181-143.56 70.8-215.331.39-1.187.55-2.449.9-4.05-13.594 0-26.747.146-39.892-.094-3.721-.067-5.045 1.19-6.055 4.692-15.685 54.38-31.538 108.71-47.364 163.05-.469 1.608-1.072 3.177-1.613 4.764l-.993-.13a73232.01 73232.01 0 0 1-29.77-101.227m-562.53 11.601c-3.015-2.08-6.16-3.994-9.019-6.27-7.448-5.931-11.51-13.411-9.29-23.174 2.175-9.574 9.026-14.447 18.03-16.672 10.961-2.708 22.035-2.063 32.502 1.605 10.062 3.527 19.6 8.548 29.48 12.962 0-13.028.087-26.956-.155-40.878-.021-1.206-2.01-2.832-3.44-3.49-21.84-10.057-44.615-13.138-68.182-8.038C51.907 31.57 32.95 45.092 27.21 71.97c-5.794 27.131 1.066 50.463 24.68 66.764 13.96 9.637 28.806 17.983 43.109 27.138 5.022 3.215 10.053 6.653 14.312 10.78 11.748 11.384 9.032 29.169-5.77 36.108-5.547 2.6-12.092 4.015-18.239 4.215-19.162.622-36.223-5.999-51.703-17.01-1.409-1.002-2.801-2.026-5.077-3.674 0 15.437-.07 29.714.131 43.986.017 1.164 1.663 2.804 2.934 3.376 24.337 10.962 49.675 15.3 75.965 9.421 22.753-5.088 40.344-17.304 48.53-40.173 10.688-29.863-.29-59.535-28.605-77.792-13.016-8.392-26.223-16.488-39.95-25.113m1276.51 79.533c.145-16.71-5.3-31.45-17.903-42.37-9.873-8.557-21-15.711-31.838-23.096-10.04-6.842-20.69-12.8-30.6-19.815-9.974-7.06-13.135-16.956-9.217-26.58 3.992-9.805 12.385-13.595 22.128-14.683 19.604-2.189 37.19 3.445 53.236 14.522 1.168.806 2.357 1.581 4.223 2.83 0-13.9-.13-27.002.088-40.098.056-3.412-1.169-5.008-4.156-6.35-18.159-8.16-37.104-11.705-56.924-9.662-16.17 1.667-31.072 6.547-43.883 17.254-24.407 20.398-29.393 71.275 5.244 95.904 9.075 6.453 18.805 11.98 28.156 18.052 9.903 6.43 20.285 12.295 29.433 19.677 14.477 11.684 11.267 31.564-5.911 38.666-4.951 2.047-10.62 3.087-15.997 3.241-18.984.545-35.935-5.791-51.35-16.59-1.658-1.16-3.277-2.375-5.675-4.118 0 15.23-.096 29.207.14 43.178.025 1.474 1.686 3.616 3.123 4.266 23.51 10.648 48.047 14.811 73.553 9.818 34.136-6.683 54.07-30.239 54.13-64.046M207.501 66.26c15.16.001 30.323.18 45.478-.106 4.619-.087 5.825 1.247 5.813 5.84-.156 57.81-.103 115.618-.103 173.427v6.113h40.505V66.26h5.736c19.992 0 39.984-.068 59.975.07 3.309.022 4.65-.907 5.12-4.312 1.343-9.727 3.104-19.396 4.652-29.095.272-1.7.309-3.438.458-5.207H188.774V66.26h18.727M87.194 353.302c4.428 6.224 8.92 12.404 13.263 18.688 3.12 4.514 7.554 2.298 11.409 2.074.694-.04 1.655-3.785 1.674-5.827.142-15.146.088-30.294.063-45.441-.003-1.773-.2-3.545-.307-5.309H102.06v34.917c-7.861-9.396-14.77-19.077-21.605-28.81-4.82-6.864-9.111-8.286-17.922-5.377 5.02 5.25 3.806 11.72 3.827 17.948.037 11.486.181 22.975-.073 34.455-.104 4.713 2.823 4.053 5.576 3.921 2.689-.129 6.306 1.349 6.156-3.876-.235-8.15-.081-16.311-.046-24.468.006-1.305.25-2.608.524-5.258 3.37 4.745 5.854 8.244 8.698 12.363m466.1-15.32c-3.057 14.57 1.987 26.791 13.946 33.79 12.627 7.39 29.542 4.043 38.574-7.634 9.005-11.641 7.852-28.854-2.62-39.123-16.606-16.283-41.314-10.221-49.9 12.967m529.517 36.583c1.842-.758 3.74-1.402 5.516-2.292 13.67-6.848 19.621-23.554 13.606-38.072-6-14.483-22.346-21.814-37.223-16.696-14.38 4.947-22.657 21.069-19.01 35.838 3.843 15.566 20.764 25.751 37.111 21.222M979.07 340.502v33.382h11.313V340.99c7.247 9.844 13.644 18.489 19.991 27.17 5.023 6.868 6.705 7.489 15.373 5.367v-56.002h-11.29v35.058c-2.243-1.249-3.44-2.783-4.548-4.378-5.786-8.33-11.494-16.715-17.337-25.005-4.611-6.543-9.002-7.797-15.943-5.59.839 5.118 1.755 9.99 2.39 14.9.297 2.294.051 4.66.051 7.991m244.917-13.95c-.457-.483-.905-.975-1.373-1.447-9.757-9.835-24.218-11.998-35.644-5.335-12.597 7.345-18.14 20.726-14.28 34.474 3.57 12.71 16.202 22.102 29.629 21.47 11.952-.562 20.957-6.372 25.948-17.295 5.037-11.026 3.67-21.638-4.28-31.868m31.422 38.514c10.363 11.988 28.487 13.71 42.37 5.347 1.009-.607 2.197-1.957 2.223-2.988.188-7.596.102-15.2.102-22.912h-21.38c0 3.354-1.156 7.332.31 8.985 1.604 1.808 5.63 1.467 8.612 2.065 1.492 7.325.729 8.34-6.338 8.379-1.332.007-2.67.049-3.996-.045-8.897-.633-15.692-7.468-15.922-16.773-.234-9.473 3.892-18.177 13.886-18.543 6.139-.224 12.314.569 18.962.932.59-1.546 1.85-3.81 2.21-6.21.193-1.286-.78-3.536-1.874-4.107-12.435-6.48-29.153-3.435-38.045 6.695-8.663 9.868-9.366 27.206-1.12 39.175m-352.643-8.566v17.395h11.327c0-6.521-.153-12.658.12-18.775.06-1.344 1.6-3.718 2.53-3.753 7.926-.302 15.869-.173 24.49-.173v22.774h10.603v-56.41h-10.767c0 6.092-.273 11.76.089 17.388.277 4.322-1.369 5.472-5.407 5.201-4.643-.312-9.323-.07-13.987-.072-7.67 0-7.671-.001-7.672-7.466v-15.204h-11.326V356.5m-551.618-39.34h-9.185c0 12.692-.04 24.808.012 36.924.051 12.086 7.98 20.798 19.617 21.677 12.192.921 22.102-6.214 23.02-18.433.99-13.181.223-26.494.223-39.847h-10.402c-.23.67-.428.978-.43 1.287-.04 11.312-.04 22.625-.099 33.938-.038 7.46-3.975 12.03-10.29 12.07-6.552.043-10.627-4.582-10.663-12.256-.047-9.982.031-19.966-.053-29.948-.015-1.735-.565-3.466-1.75-5.411m432.926 8.408c0 14.818.02 29.635-.02 44.453-.006 2.49-.099 4.64 3.457 4.597 9.64-.12 19.282-.04 29.358-.04l1.855-10.701c-6.74 0-12.875.125-18.996-.103-1.262-.047-3.446-1.304-3.541-2.184-.4-3.69-.17-7.449-.17-11.775h15.449v-10.817c-3.32 0-6.29-.135-9.243.034-3.921.223-6.464-.052-6.492-5.375-.029-5.505 2.535-5.836 6.72-5.651 5.272.234 10.563.056 16.329.056l-1.915-10.636h-32.79v8.142m-306.528 49.02 11.477.001c9.381 0 9.385 0 10.815-9.175.046-.294-.15-.626-.39-1.535-4.286 0-8.736.077-13.183-.016-9.154-.19-9.048 2.396-9.135-9.59-.025-3.38 1.326-4.36 4.452-4.223 3.922.172 7.856.041 11.63.041 1.934-11.094 1.934-11.094-8.245-11.094-.665 0-1.335-.048-1.995.009-3.514.299-6.06.043-5.92-4.803.125-4.325 1.037-6.515 5.887-6.218 5.552.34 11.14.079 17.037.079-.447-3.31-.52-5.817-1.212-8.138-.333-1.116-1.817-2.667-2.807-2.687-9.75-.2-19.506-.121-29.468-.121v57.47h11.057m370.37-52.227c-9.899 7.677-12.596 18.03-10.594 29.82 2.848 16.768 21.607 27.678 37.632 22.259 3.397-1.149 5.448-2.725 4.88-6.72-.335-2.36-.06-4.808-.06-7.469-12.15 5.55-20.39 5.002-26.248-1.414-5.581-6.114-6.833-15.409-2.253-22.714 7.27-11.599 17.625-9.264 28.5-4.868 0-2.69-.264-4.866.055-6.953.662-4.328-1.251-6.299-5.305-7.274-9.463-2.276-18.121-.804-26.607 5.333m-698.966 42.41-10.655-3.543c-.904 12.146.646 13.923 12.514 14.544a28.77 28.77 0 0 0 3.492-.008c8.025-.558 14.97-5.745 16.49-12.277 1.975-8.495-.857-15.378-8.362-20.062-2.676-1.67-5.433-3.217-8.212-4.71-3.243-1.741-6.49-3.794-4.84-8.003 1.509-3.85 5.344-4.192 8.92-3.546 3.35.606 6.604 1.74 9.935 2.652 1.242-11.683 2.112-12.459-11.023-13.753-.823-.082-1.663-.032-2.494-.004-9.105.304-15.417 4.98-17.438 12.908-1.892 7.425 1.55 14.581 9.172 19.189 2.984 1.804 6.262 3.329 8.75 5.676 1.803 1.7 3.845 4.89 3.352 6.783-.48 1.835-4.013 2.944-6.305 4.188-.64.347-1.634.04-3.296-.034m507.598-36.72c2.995-.003 6.012.204 8.973-.112 1.181-.126 2.933-1.206 3.217-2.198.745-2.598.824-5.386 1.19-8.269h-33.692v56.405h11.134v-23.979h18.999v-11.03H647.8c-2.012-10.415-1.706-10.816 8.75-10.816m687.43 28.053c3.599-7.084 7.141-14.197 10.814-21.242 2.963-5.684 6.084-11.285 9.242-17.121-11.845-1.95-12.076-1.837-16.676 7.593-1.53 3.135-3.034 6.285-4.63 9.388-1.3 2.528-2.72 4.995-4.633 8.488-4.01-8.362-7.36-15.565-10.952-22.644-.708-1.395-2.245-3.103-3.595-3.296-3.336-.475-6.785-.156-11.142-.156 5.656 10.53 10.664 20.241 16.058 29.734 2.845 5.008 5.087 9.915 4.452 15.899-.396 3.731-.073 7.54-.073 11.5h11.119c0-5.972 0-11.613.016-18.143M216.49 317.103h-27.146c-1.225 10.885-1.225 10.885 8.802 10.966.167.001.337.023.5-.004 3.911-.638 4.727 1.282 4.672 4.85-.187 11.985-.082 23.976-.059 35.964.003 1.755.166 3.51.262 5.414 1.846.126 3.151.274 4.458.294 6.575.1 6.577.089 6.578-6.352.002-9.991 0-19.982 0-29.972 0-9.833.005-9.746 9.808-10.287 1.506-.084 3.827-1.067 4.235-2.192.918-2.526.87-5.403 1.284-8.681h-13.395m214.705 28.4c0-4.163.25-8.346-.07-12.485-.315-4.088 1.328-5.113 5.178-5.04 8.626.16 8.631-.017 9.972-8.374.102-.635.155-1.278.256-2.135h-40.387v10.59c2.669 0 4.996.258 7.244-.053 4.973-.688 6.156 1.45 6.034 6.153-.314 11.984-.179 23.982-.004 35.972.02 1.383 1.253 3.76 2.227 3.929 2.99.519 6.126.189 9.55.189v-28.745m331.479-23.317.355-4.647h-40.729c-.907 10.278-.907 10.415 8.97 10.45 3.632.012 4.997 1.122 4.936 4.882-.19 11.648-.07 23.3-.069 34.952v6.45h10.408c.246-.61.474-.911.475-1.214.036-11.817.056-23.633.067-35.45.009-9.494.007-9.696 9.472-9.454 3.973.102 5.946-1.128 6.115-5.969M304.5 317.113h-22.197v10.594c.915.14 1.544.296 2.178.324 11.54.51 11.54.507 11.54 12.04v34.146h11.181c0-13.7.163-27.14-.095-40.572-.081-4.27.922-5.865 5.489-5.698 8.712.32 8.724.052 9.781-8.447.078-.628.114-1.26.214-2.387H304.5m849.633 57.117 3.925-10.341c-7.538 0-13.651-.11-19.757.047-2.988.076-4.173-.933-4.1-4.008.16-6.65.048-13.305.047-19.958v-22.503h-10.777v56.814c10.14 0 19.935 0 30.662-.051m-897.771-57.146h-7.143c0 18.686-.039 36.602.103 54.517.008.998 1.415 2.72 2.336 2.84 2.862.373 5.804.136 9.064.136 0-18.773.054-36.698-.147-54.62-.011-.97-2.157-1.915-4.213-2.873m-227.227.824c-.124 17.773-.288 35.546-.272 53.318 0 1.009 1.377 2.765 2.282 2.884 2.858.377 5.797.14 8.598.14v-56.923c-3.605 0-6.741 0-10.608.581z"/>
  <path fill="#A4283A" d="M1017.018 127c0-22.66.066-44.822-.092-66.982-.017-2.486-.826-5.247-2.092-7.394-4.06-6.882-8.518-13.529-12.798-20.283-.85-1.341-1.588-2.754-2.873-5h14.67c11.164 0 22.332.162 33.49-.091 3.63-.083 5.642 1.047 7.472 4.199 26.422 45.514 52.975 90.951 79.497 136.407 1.124 1.926 2.248 3.85 4.391 5.415V27.74h40.277v224.183c-8.254 0-16.469-.85-24.432.202-11.527 1.525-17.41-3.157-23.041-13.131-22.92-40.602-46.917-80.594-70.52-120.809-.717-1.22-1.48-2.414-3.152-3.39v136.818h-40.797V127z"/>
  <path fill="#A5293B" d="M455.275 152.19c-.304 20.363-.304 40.33-.304 60.952h94.03c-1.535 9.391-2.892 18.05-4.387 26.684-.673 3.888-.391 9.374-2.772 11.158-2.726 2.041-7.93.918-12.057.922-36.5.04-73 .023-109.5.023h-5.74V27.767h124.724l6.475 38.234c-1.954.096-3.671.253-5.388.254-26.667.016-53.334.099-80-.08-4.223-.028-5.833.837-5.703 5.452.34 11.99.105 23.997.126 35.997.002 1.455.168 2.911.288 4.865h64.358v38.965h-5.385c-17.667 0-35.333-.01-53 .015-1.82.003-3.64.211-5.765.72zm405.926-40.348c19.488.481 38.637.59 57.786.695 1.967.011 3.935.002 6.26.002v38.7h-64.174v61.937h93.78c-2.081 12.732-3.947 24.696-6.154 36.596-.175.943-2.706 2.037-4.158 2.06-10.827.174-21.658.095-32.489.095h-91.668V27.34h5.067c38.156 0 76.311.06 114.466-.09 4.037-.015 5.84.81 6.402 5.192 1.414 11.049 3.427 22.02 5.329 33.823h-5.725c-26.658 0-53.317.08-79.975-.084-4.113-.025-5.472 1.106-5.374 5.317.308 13.32.222 26.648.627 40.345zM650.147 98.787a144779.71 144779.71 0 0 0 29.68 100.836l.993.13c.54-1.588 1.144-3.157 1.613-4.766 15.826-54.338 31.679-108.67 47.364-163.05 1.01-3.501 2.334-4.758 6.055-4.69 13.145.24 26.298.093 39.892.093-.35 1.601-.51 2.863-.9 4.05-23.619 71.77-47.289 143.525-70.8 215.331-1.302 3.978-3.005 5.438-7.281 5.317-11.488-.327-22.992-.209-34.487-.046-2.991.042-4.322-.91-5.272-3.801-23.625-71.966-47.355-143.896-71.053-215.838-.454-1.38-.746-2.814-1.32-5.013h16.742c7.665 0 15.336.187 22.991-.083 3.591-.126 5.187.911 6.217 4.527 6.332 22.25 12.952 44.417 19.566 67.003z"/>
  <path fill="#A4283A" d="M87.83 110.193c13.424 8.428 26.631 16.524 39.647 24.916 28.316 18.257 39.293 47.93 28.604 77.792-8.185 22.869-25.776 35.085-48.53 40.173-26.289 5.88-51.627 1.541-75.964-9.42-1.27-.573-2.917-2.213-2.934-3.377-.201-14.272-.131-28.55-.131-43.986 2.276 1.648 3.668 2.672 5.077 3.674 15.48 11.011 32.54 17.632 51.703 17.01 6.147-.2 12.692-1.615 18.239-4.215 14.802-6.94 17.518-24.724 5.77-36.107-4.26-4.128-9.29-7.566-14.312-10.781-14.303-9.155-29.15-17.501-43.11-27.138C28.276 122.434 21.416 99.1 27.21 71.97c5.74-26.878 24.697-40.4 50.243-45.929 23.567-5.1 46.343-2.019 68.183 8.038 1.43.658 3.418 2.284 3.439 3.49.242 13.922.155 27.85.155 40.878-9.88-4.414-19.418-9.435-29.48-12.962-10.467-3.668-21.541-4.313-32.503-1.605-9.003 2.225-15.854 7.098-18.03 16.672-2.218 9.763 1.843 17.243 9.291 23.174 2.858 2.276 6.004 4.19 9.322 6.467zm1276.207 79.822c-.06 33.321-19.994 56.877-54.13 63.56-25.506 4.993-50.044.83-73.553-9.818-1.437-.65-3.098-2.792-3.123-4.266-.236-13.971-.14-27.948-.14-43.178 2.398 1.743 4.017 2.958 5.674 4.118 15.416 10.799 32.367 17.135 51.35 16.59 5.379-.154 11.047-1.194 15.998-3.241 17.178-7.102 20.388-26.982 5.91-38.666-9.147-7.382-19.53-13.246-29.432-19.677-9.351-6.072-19.08-11.6-28.156-18.052-34.637-24.63-29.651-75.506-5.244-95.904 12.811-10.707 27.713-15.587 43.883-17.254 19.82-2.043 38.765 1.502 56.924 9.662 2.987 1.342 4.212 2.938 4.156 6.35-.218 13.096-.088 26.198-.088 40.098-1.866-1.249-3.055-2.024-4.223-2.83-16.046-11.077-33.632-16.71-53.236-14.522-9.743 1.088-18.136 4.878-22.128 14.683-3.918 9.624-.757 19.52 9.217 26.58 9.91 7.014 20.56 12.973 30.6 19.815 10.838 7.385 21.965 14.54 31.838 23.096 12.602 10.92 18.048 25.66 17.903 42.856zM207 66.26h-18.226V27.716h186.36c-.148 1.77-.185 3.507-.457 5.207-1.548 9.7-3.31 19.368-4.652 29.095-.47 3.405-1.811 4.334-5.12 4.312-19.991-.138-39.983-.07-59.975-.07h-5.736v185.273H258.69v-6.113c0-57.809-.053-115.618.103-173.426.012-4.594-1.194-5.928-5.813-5.841-15.155.286-30.318.107-45.978.107z"/>
  <path fill="#838383" d="M87.014 352.992c-2.664-3.81-5.149-7.308-8.518-12.053-.273 2.65-.518 3.953-.524 5.258-.035 8.157-.189 16.318.046 24.468.15 5.225-3.467 3.747-6.156 3.876-2.753.132-5.68.792-5.576-3.921.254-11.48.11-22.97.073-34.455-.02-6.227 1.192-12.698-3.827-17.948 8.81-2.909 13.102-1.487 17.922 5.376 6.834 9.734 13.744 19.415 21.605 28.81v-34.916h11.237c.107 1.764.304 3.536.307 5.309.025 15.147.079 30.295-.063 45.441-.02 2.042-.98 5.787-1.674 5.827-3.855.224-8.288 2.44-11.409-2.074-4.343-6.284-8.835-12.464-13.443-18.998z"/>
  <path fill="#848484" d="M553.404 337.593c8.476-22.8 33.184-28.86 49.79-12.578 10.472 10.269 11.625 27.482 2.62 39.123-9.032 11.677-25.947 15.024-38.574 7.634-11.959-6.999-17.003-19.22-13.836-34.18m15.46 20.982c.604.57 1.172 1.186 1.819 1.704 5.998 4.798 15.326 5.195 21.38.928 6.583-4.64 9.282-13.122 6.773-21.286-2.321-7.551-8.777-12.159-16.872-12.222-7.436-.058-12.815 3.366-16.057 9.823-3.635 7.238-2.495 14.17 2.957 21.053zm513.559 16.119c-15.959 4.401-32.88-5.784-36.723-21.35-3.647-14.77 4.63-30.89 19.01-35.838 14.877-5.118 31.223 2.213 37.223 16.696 6.015 14.518.064 31.224-13.606 38.072-1.775.89-3.674 1.534-5.904 2.42m-21.832-40.464c-1.146 2.747-2.837 5.4-3.33 8.26-1.321 7.647.93 14.206 7.47 18.816 5.326 3.756 13.94 3.745 19.348.248 7.018-4.538 9.162-11.253 7.991-19.051-1.011-6.735-4.922-11.92-11.452-13.902-7.238-2.198-14.227-1.216-20.027 5.63z"/>
  <path fill="#828282" d="M979.07 340.003c0-2.833.245-5.198-.052-7.493-.635-4.909-1.551-9.781-2.39-14.9 6.941-2.206 11.332-.952 15.943 5.59 5.843 8.29 11.551 16.675 17.337 25.006 1.108 1.595 2.305 3.13 4.547 4.378v-35.058h11.291v56.002c-8.668 2.122-10.35 1.501-15.373-5.368-6.347-8.68-12.744-17.325-19.99-27.169v32.893h-11.314v-33.881z"/>
  <path fill="#838383" d="M1224.222 326.822c7.715 9.959 9.081 20.57 4.044 31.597-4.99 10.923-13.996 16.733-25.948 17.296-13.427.631-26.06-8.76-29.628-21.47-3.86-13.75 1.682-27.13 14.279-34.475 11.426-6.663 25.887-4.5 35.644 5.335.468.472.916.964 1.61 1.717m-27.871 36.84c1.65.148 3.298.382 4.951.428 6.954.19 12.21-2.944 15.697-8.763 3.594-5.997 3.694-12.295.242-18.46-4.113-7.346-11.776-10.57-20.43-8.734-6.995 1.484-12.543 8.121-13.48 16.128-.937 7.988 3.884 15.493 13.02 19.401z"/>
  <path fill="#848484" d="M1255.185 364.778c-8.023-11.682-7.32-29.02 1.343-38.888 8.892-10.13 25.61-13.174 38.045-6.695 1.095.57 2.067 2.821 1.874 4.108-.36 2.4-1.62 4.663-2.21 6.209-6.648-.363-12.823-1.156-18.962-.932-9.994.366-14.12 9.07-13.886 18.543.23 9.305 7.025 16.14 15.922 16.773 1.327.094 2.664.052 3.996.045 7.067-.038 7.83-1.054 6.338-8.379-2.981-.598-7.008-.257-8.612-2.065-1.466-1.653-.31-5.631-.31-8.985h21.38c0 7.713.086 15.316-.102 22.912-.026 1.031-1.214 2.38-2.223 2.988-13.883 8.363-32.007 6.64-42.593-5.634z"/>
  <path fill="#838383" d="M902.765 356v-38.596h11.326v15.204c.001 7.465.001 7.465 7.672 7.466 4.664.001 9.344-.24 13.987.072 4.038.271 5.684-.88 5.407-5.201-.362-5.627-.089-11.296-.089-17.389h10.767v56.41h-10.603v-22.773c-8.621 0-16.564-.129-24.49.173-.93.035-2.47 2.41-2.53 3.753-.273 6.117-.12 12.254-.12 18.775h-11.327v-17.895z"/>
  <path fill="#828282" d="M351.588 317.266c.744 1.839 1.294 3.57 1.309 5.305.084 9.982.006 19.966.053 29.948.036 7.674 4.11 12.3 10.662 12.256 6.316-.04 10.253-4.61 10.291-12.07.06-11.313.058-22.626.1-33.938 0-.309.199-.617.43-1.287h10.401c0 13.353.766 26.666-.224 39.847-.917 12.219-10.827 19.354-23.019 18.433-11.636-.879-19.566-9.59-19.617-21.677-.052-12.116-.012-24.232-.012-36.923 3.309 0 6.247 0 9.626.106z"/>
  <path fill="#848484" d="M784.073 325.082v-7.656h32.791l1.915 10.636c-5.766 0-11.057.178-16.33-.056-4.184-.185-6.748.146-6.719 5.65.028 5.324 2.57 5.6 6.492 5.376 2.953-.169 5.924-.034 9.243-.034v10.817h-15.448c0 4.326-.232 8.085.169 11.775.095.88 2.279 2.137 3.54 2.184 6.122.228 12.257.103 18.997.103l-1.855 10.7c-10.076 0-19.718-.078-29.358.04-3.556.045-3.463-2.105-3.456-4.596.039-14.818.02-29.635.02-44.94z"/>
  <path fill="#858585" d="M477.056 374.589H466.49v-57.471c9.962 0 19.718-.08 29.468.121.99.02 2.474 1.571 2.807 2.687.692 2.321.765 4.827 1.212 8.138-5.897 0-11.485.261-17.037-.079-4.85-.297-5.762 1.893-5.888 6.218-.14 4.846 2.407 5.102 5.92 4.803.661-.057 1.33-.009 1.996-.009 10.18 0 10.18 0 8.244 11.094-3.773 0-7.707.131-11.629-.041-3.126-.137-4.477.843-4.452 4.223.087 11.986-.019 9.4 9.135 9.59 4.447.093 8.897.016 13.183.016.24.909.436 1.24.39 1.535-1.43 9.176-1.434 9.175-10.815 9.175h-11.967z"/>
  <path fill="#848484" d="M848.195 322.128c8.207-5.904 16.865-7.376 26.328-5.1 4.054.975 5.967 2.946 5.305 7.274-.32 2.087-.055 4.264-.055 6.953-10.875-4.396-21.23-6.73-28.5 4.868-4.58 7.305-3.328 16.6 2.253 22.714 5.858 6.416 14.097 6.964 26.247 1.414 0 2.661-.274 5.108.061 7.469.568 3.995-1.483 5.571-4.88 6.72-16.025 5.419-34.784-5.49-37.632-22.258-2.002-11.791.695-22.144 10.873-30.054zm-698.83 42.677c1.247.04 2.242.347 2.881 0 2.292-1.244 5.826-2.353 6.305-4.188.493-1.892-1.55-5.083-3.352-6.783-2.488-2.347-5.766-3.872-8.75-5.676-7.623-4.608-11.064-11.764-9.172-19.189 2.021-7.928 8.333-12.604 17.438-12.908.831-.028 1.67-.078 2.494.004 13.135 1.294 12.265 2.07 11.023 13.753-3.33-.911-6.585-2.046-9.935-2.652-3.576-.646-7.411-.304-8.92 3.546-1.65 4.209 1.597 6.262 4.84 8.003 2.78 1.493 5.536 3.04 8.212 4.71 7.505 4.684 10.337 11.567 8.362 20.062-1.52 6.532-8.465 11.719-16.49 12.277a28.77 28.77 0 0 1-3.492.008c-11.868-.62-13.418-2.398-12.514-14.544 3.583 1.191 7.119 2.367 11.07 3.577z"/>
  <path fill="#828282" d="M656.067 328.052c-9.974 0-10.28.4-8.268 10.816h18.57v11.03h-19v23.98h-11.133v-56.406h33.691c-.365 2.883-.444 5.671-1.189 8.269-.284.992-2.036 2.072-3.217 2.198-2.96.316-5.978.11-9.454.113z"/>
  <path fill="#838383" d="M1343.97 356.55c-.007 6.085-.007 11.726-.007 17.698h-11.12c0-3.96-.322-7.769.074-11.5.635-5.984-1.607-10.89-4.452-15.9-5.394-9.492-10.402-19.203-16.058-29.733 4.357 0 7.806-.32 11.142.156 1.35.193 2.887 1.9 3.595 3.296 3.593 7.08 6.941 14.282 10.952 22.644 1.914-3.493 3.333-5.96 4.634-8.488 1.595-3.103 3.1-6.253 4.629-9.388 4.6-9.43 4.83-9.543 16.676-7.593-3.158 5.836-6.279 11.437-9.242 17.12a712.45 712.45 0 0 0-10.822 21.687z"/>
  <path fill="#858585" d="M216.985 317.102h12.898c-.414 3.278-.366 6.155-1.284 8.68-.408 1.126-2.729 2.11-4.235 2.193-9.803.541-9.808.454-9.808 10.287 0 9.99.002 19.981 0 29.972-.001 6.44-.003 6.452-6.578 6.352-1.307-.02-2.612-.168-4.458-.294-.096-1.905-.259-3.66-.262-5.414-.023-11.988-.128-23.979.059-35.965.055-3.567-.761-5.487-4.673-4.849-.162.027-.332.005-.499.004-10.027-.081-10.027-.081-8.802-10.966h27.642z"/>
  <path fill="#838383" d="M431.193 346.002v28.246c-3.424 0-6.56.33-9.55-.19-.974-.169-2.206-2.545-2.227-3.928-.175-11.99-.31-23.988.004-35.972.122-4.704-1.061-6.84-6.034-6.153-2.248.31-4.575.053-7.244.053v-10.59h40.387c-.101.857-.154 1.5-.256 2.135-1.34 8.357-1.346 8.535-9.972 8.373-3.85-.072-5.493.953-5.178 5.04.32 4.14.07 8.323.07 12.986z"/>
  <path fill="#848484" d="M762.65 322.621c-.147 4.406-2.12 5.636-6.093 5.534-9.465-.242-9.463-.04-9.472 9.454-.01 11.817-.031 23.633-.067 35.45 0 .303-.229.605-.475 1.215h-10.408v-6.451c0-11.651-.12-23.304.07-34.952.06-3.76-1.305-4.87-4.936-4.883-9.878-.034-9.878-.171-8.97-10.449h40.728a872.527 872.527 0 0 0-.378 5.082z"/>
  <path fill="#838383" d="M304.998 317.112h17.592c-.1 1.127-.136 1.76-.214 2.387-1.057 8.499-1.069 8.766-9.781 8.447-4.567-.167-5.57 1.428-5.489 5.698.258 13.432.095 26.872.095 40.572h-11.18v-34.147c0-11.532 0-11.529-11.54-12.04-.635-.027-1.264-.183-2.18-.323v-10.594h22.697z"/>
  <path fill="#828282" d="M1153.667 374.254c-10.262.026-20.058.026-30.197.026v-56.814h10.777v22.503c0 6.653.112 13.309-.046 19.958-.074 3.075 1.111 4.084 4.099 4.008 6.106-.157 12.219-.047 19.757-.047-1.551 4.086-2.738 7.214-4.39 10.366z"/>
  <path fill="#898989" d="M256.813 317.084c1.604.957 3.75 1.902 3.76 2.872.202 17.922.148 35.847.148 54.62-3.26 0-6.202.237-9.064-.136-.921-.12-2.328-1.842-2.336-2.84-.142-17.915-.103-35.83-.103-54.517h7.595z"/>
  <path fill="#838383" d="M29.5 317.617c3.5-.29 6.637-.29 10.242-.29v56.921c-2.8 0-5.74.238-8.598-.139-.905-.119-2.281-1.875-2.282-2.884-.016-17.772.148-35.545.637-53.608z"/>
  <path fill="#FCFCFC" d="M568.607 358.308c-5.195-6.617-6.335-13.549-2.7-20.787 3.242-6.457 8.62-9.881 16.057-9.823 8.095.063 14.55 4.67 16.872 12.222 2.509 8.164-.19 16.647-6.772 21.286-6.055 4.267-15.383 3.87-21.381-.928-.647-.518-1.215-1.134-2.076-1.97zm492.221-24.363c5.563-6.561 12.552-7.543 19.79-5.345 6.53 1.983 10.44 7.167 11.452 13.902 1.171 7.798-.973 14.513-7.99 19.05-5.41 3.498-14.023 3.509-19.35-.247-6.538-4.61-8.79-11.17-7.47-18.817.494-2.86 2.185-5.512 3.568-8.543z"/>
  <path fill="#FBFBFB" d="M1195.972 363.506c-8.756-3.752-13.577-11.257-12.64-19.245.937-8.007 6.485-14.644 13.48-16.128 8.654-1.835 16.317 1.388 20.43 8.735 3.452 6.164 3.352 12.462-.242 18.46-3.488 5.818-8.743 8.952-15.697 8.762-1.653-.046-3.3-.28-5.33-.584z"/>
</svg>
