<svg version="1.1" id="Layer_1" xmlns="http://www.w3.org/2000/svg" xmlns:xlink="http://www.w3.org/1999/xlink" x="0px" y="0px"
	 width="100%" viewBox="0 0 1377 392" enable-background="new 0 0 1377 392" xml:space="preserve">
<path fill="#FEFEFE" opacity="1.000000" stroke="none" 
	d="
M1072.000000,393.000000 
	C714.666687,393.000000 357.833374,393.000000 1.000048,393.000000 
	C1.000032,262.333374 1.000032,131.666718 1.000016,1.000065 
	C459.999969,1.000044 918.999939,1.000044 1378.000000,1.000022 
	C1378.000000,131.666611 1378.000000,262.333221 1378.000000,392.999908 
	C1276.166626,393.000000 1174.333374,393.000000 1072.000000,393.000000 
M1017.017761,127.500000 
	C1017.017761,168.887054 1017.017761,210.274109 1017.017761,251.613647 
	C1031.061523,251.613647 1044.156738,251.613647 1057.815308,251.613647 
	C1057.815308,205.803513 1057.815308,160.299454 1057.815308,114.795403 
	C1059.487183,115.771805 1060.249756,116.965462 1060.966431,118.186249 
	C1084.570312,158.400757 1108.567871,198.393295 1131.486694,238.994614 
	C1137.117065,248.968750 1143.001343,253.651031 1154.528320,252.126373 
	C1162.491089,251.073135 1170.705688,251.924042 1178.959961,251.924042 
	C1178.959961,176.796570 1178.959961,102.370476 1178.959961,27.741577 
	C1165.546753,27.741577 1152.350342,27.741577 1138.683105,27.741577 
	C1138.683105,76.516518 1138.683105,124.893715 1138.683105,173.270920 
	C1136.540405,171.706451 1135.415894,169.781586 1134.292358,167.856018 
	C1107.770142,122.400284 1081.216553,76.962753 1054.794556,31.448835 
	C1052.964966,28.297243 1050.952393,27.167177 1047.322632,27.249525 
	C1036.164673,27.502659 1024.997192,27.341871 1013.833496,27.341940 
	C1009.239319,27.341969 1004.645142,27.341946 999.163086,27.341946 
	C1000.448303,29.587276 1001.186462,30.999720 1002.036438,32.341316 
	C1006.315735,39.095104 1010.773560,45.742249 1014.833801,52.624420 
	C1016.100281,54.771187 1016.908630,57.531506 1016.926331,60.018078 
	C1017.084351,82.177811 1017.017944,104.339142 1017.017761,127.500000 
M455.578888,151.793472 
	C457.399323,151.680420 459.219666,151.471725 461.040253,151.469177 
	C478.706848,151.444443 496.373474,151.454254 514.040100,151.454224 
	C515.811157,151.454224 517.582214,151.454224 519.424683,151.454224 
	C519.424683,138.139755 519.424683,125.572937 519.424683,112.489487 
	C497.848846,112.489487 476.594971,112.489487 455.067108,112.489487 
	C454.946594,110.535110 454.781403,109.079475 454.778870,107.623558 
	C454.757965,95.623619 454.992859,83.617249 454.653351,71.626884 
	C454.522675,67.011543 456.133148,66.147430 460.356689,66.175613 
	C487.022095,66.353508 513.689270,66.270554 540.355896,66.255074 
	C542.072815,66.254074 543.789612,66.097008 545.744263,66.000839 
	C543.496033,52.725273 541.365540,40.144852 539.269409,27.767338 
	C497.289703,27.767338 455.892761,27.767338 414.544434,27.767338 
	C414.544434,102.618828 414.544434,177.039536 414.544434,251.928833 
	C416.689972,251.928833 418.487549,251.928833 420.285156,251.928833 
	C456.785065,251.928833 493.285034,251.945053 529.784912,251.906311 
	C533.912170,251.901932 539.115601,253.025085 541.841675,250.983612 
	C544.223022,249.200241 543.940735,243.714172 544.614075,239.825668 
	C546.109375,231.191315 547.466003,222.532959 549.000488,213.142151 
	C517.261169,213.142151 486.213287,213.142151 454.971466,213.142151 
	C454.971466,192.520432 454.971466,172.553146 455.578888,151.793472 
M860.863098,111.469414 
	C860.796448,98.144699 860.882141,84.816467 860.573914,71.497345 
	C860.476440,67.285812 861.834717,66.155159 865.947815,66.180496 
	C892.605530,66.344719 919.264709,66.264549 945.923462,66.264458 
	C947.677368,66.264458 949.431274,66.264458 951.647888,66.264458 
	C949.745972,54.461746 947.733276,43.489727 946.318665,32.441143 
	C945.757507,28.058168 943.953613,27.233973 939.916870,27.249754 
	C901.762146,27.398930 863.606628,27.338511 825.451294,27.338499 
	C823.826843,27.338499 822.202393,27.338501 820.384277,27.338501 
	C820.384277,102.397667 820.384277,176.926270 820.384277,251.927429 
	C822.489014,251.927429 824.283508,251.927444 826.078064,251.927444 
	C854.736206,251.927444 883.394348,251.927521 912.052490,251.927399 
	C922.882568,251.927353 933.713989,252.005997 944.541260,251.832397 
	C945.993164,251.809113 948.523743,250.714798 948.698547,249.772202 
	C950.905762,237.871704 952.771973,225.907974 954.853516,213.176025 
	C923.182556,213.176025 892.148010,213.176025 861.072998,213.176025 
	C861.072998,192.249283 861.072998,172.030869 861.072998,151.239471 
	C882.713379,151.239471 903.950012,151.239471 925.246948,151.239471 
	C925.246948,138.098984 925.246948,125.538895 925.246948,112.538712 
	C922.921631,112.538712 920.954407,112.548088 918.987305,112.537262 
	C899.837952,112.431831 880.688538,112.323006 860.863098,111.469414 
M650.057861,98.394890 
	C643.533264,76.200562 636.912659,54.033554 630.580566,31.784430 
	C629.551392,28.168171 627.955017,27.130508 624.364075,27.257162 
	C616.708984,27.527159 609.037842,27.339794 601.373230,27.339823 
	C595.958679,27.339842 590.544128,27.339823 584.630554,27.339823 
	C585.204834,29.539232 585.496826,30.973021 585.951416,32.353245 
	C609.649109,104.294632 633.378967,176.225479 657.004089,248.190689 
	C657.953552,251.082947 659.285034,252.034149 662.276367,251.991867 
	C673.770996,251.829391 685.275330,251.711060 696.762939,252.037521 
	C701.039368,252.159058 702.742126,250.698578 704.044373,246.721313 
	C727.555237,174.915009 751.225464,103.160904 774.843140,31.389547 
	C775.233459,30.203312 775.393982,28.941442 775.743530,27.339834 
	C762.150024,27.339834 748.997314,27.486372 735.851746,27.246420 
	C732.130920,27.178503 730.806885,28.435957 729.796814,31.937923 
	C714.111755,86.317474 698.259155,140.648682 682.432922,194.987473 
	C681.964478,196.595901 681.360657,198.164932 680.820007,199.752335 
	C680.488831,199.709167 680.157654,199.666000 679.826538,199.622818 
	C669.962952,166.141785 660.099426,132.660751 650.057861,98.394890 
M87.526894,109.996239 
	C84.512177,107.916908 81.366302,106.002274 78.508263,103.726212 
	C71.060310,97.794884 66.998848,90.314651 69.217468,80.552322 
	C71.393387,70.977905 78.244431,66.104843 87.247108,63.880413 
	C98.209030,61.171883 109.282791,61.817329 119.750214,65.485435 
	C129.812332,69.011520 139.350479,74.032852 149.229523,78.446609 
	C149.229523,65.419121 149.317139,51.491066 149.074905,37.568760 
	C149.053925,36.363155 147.065689,34.737267 145.635681,34.078793 
	C123.795731,24.022182 101.020294,20.940741 77.453346,26.041128 
	C51.907391,31.569815 32.950279,45.092033 27.210434,71.969589 
	C21.416283,99.101425 28.275919,122.433197 51.889271,138.733673 
	C65.849937,148.370819 80.696289,156.717026 94.998520,165.871582 
	C100.021446,169.086639 105.051628,172.524826 109.311401,176.652740 
	C121.058571,188.036270 118.342926,205.820786 103.540909,212.759689 
	C97.994194,215.359909 91.449142,216.775314 85.302231,216.974960 
	C66.139687,217.597321 49.079079,210.976349 33.598759,199.964890 
	C32.190334,198.963028 30.797655,197.939026 28.521858,196.291138 
	C28.521858,211.727936 28.451525,226.004593 28.653078,240.277405 
	C28.669508,241.440903 30.316277,243.080994 31.586729,243.653244 
	C55.923588,254.615372 81.262459,258.953247 107.551659,253.074295 
	C130.305374,247.985962 147.896103,235.769669 156.081085,212.901352 
	C166.769547,183.038498 155.792526,153.365967 127.477303,135.108932 
	C114.461449,126.716614 101.254372,118.620865 87.526894,109.996239 
M1364.037109,189.529083 
	C1364.181519,172.818130 1358.736206,158.079880 1346.134277,147.158752 
	C1336.261108,138.602371 1325.133789,131.447708 1314.296387,124.062592 
	C1304.256470,117.221001 1293.605225,111.262466 1283.695679,104.247742 
	C1273.721558,97.187332 1270.560669,87.292198 1274.478882,77.667542 
	C1278.470703,67.862511 1286.863892,64.072670 1296.607300,62.984798 
	C1316.210571,60.796066 1333.797119,66.430305 1349.842773,77.507187 
	C1351.010620,78.313477 1352.200195,79.088470 1354.065796,80.337265 
	C1354.065796,66.437309 1353.936401,53.335262 1354.153931,40.238972 
	C1354.210449,36.826740 1352.984985,35.230778 1349.998169,33.888706 
	C1331.839111,25.729265 1312.894043,22.183640 1293.073853,24.227049 
	C1276.903931,25.894136 1262.001953,30.774157 1249.190674,41.481071 
	C1224.783813,61.879059 1219.797974,112.755791 1254.435303,137.385010 
	C1263.510376,143.837906 1273.239502,149.365204 1282.590576,155.437180 
	C1292.493652,161.867661 1302.876343,167.731567 1312.023682,175.114197 
	C1326.500732,186.798340 1323.291260,206.677856 1306.112549,213.779984 
	C1301.161621,215.826828 1295.493652,216.867142 1290.115723,217.021439 
	C1271.131714,217.566162 1254.180908,211.229630 1238.765259,200.431335 
	C1237.108032,199.270508 1235.488647,198.055695 1233.090698,196.312744 
	C1233.090698,211.543457 1232.994995,225.519974 1233.231445,239.490875 
	C1233.256348,240.964859 1234.916992,243.106796 1236.353760,243.757492 
	C1259.863281,254.405060 1284.400757,258.568329 1309.907471,253.574783 
	C1344.042847,246.891983 1363.977295,223.336136 1364.037109,189.529083 
M207.500504,66.259918 
	C222.660614,66.260078 237.824112,66.438889 252.978821,66.152870 
	C257.597961,66.065681 258.804138,67.400093 258.791748,71.993515 
	C258.635803,129.802139 258.689392,187.611328 258.689392,245.420364 
	C258.689392,247.377045 258.689362,249.333725 258.689362,251.533066 
	C272.419464,251.533066 285.610107,251.533066 299.194214,251.533066 
	C299.194214,189.729050 299.194214,128.313644 299.194214,66.259850 
	C301.356750,66.259850 303.143555,66.259811 304.930359,66.259857 
	C324.921967,66.260345 344.914032,66.191933 364.904694,66.329597 
	C368.213959,66.352386 369.554626,65.423012 370.024811,62.017738 
	C371.367889,52.290977 373.129120,42.622372 374.677429,32.923161 
	C374.948853,31.223003 374.985626,29.485386 375.134918,27.715509 
	C312.610870,27.715509 250.742966,27.715509 188.774048,27.715509 
	C188.774048,40.672375 188.774048,53.253815 188.774048,66.260094 
	C194.888062,66.260094 200.694427,66.260094 207.500504,66.259918 
M87.193520,353.302063 
	C91.621849,359.526306 96.113998,365.706451 100.457062,371.989624 
	C103.577644,376.504211 108.010872,374.288025 111.865601,374.064240 
	C112.559807,374.023926 113.520920,370.279449 113.540062,368.237457 
	C113.682045,353.091339 113.627594,337.943207 113.602936,322.795807 
	C113.600052,321.023346 113.402977,319.251251 113.296440,317.487488 
	C109.369484,317.487488 105.975540,317.487488 102.058640,317.487488 
	C102.058640,329.370911 102.058640,340.887329 102.058640,352.403748 
	C94.197914,343.008118 87.288399,333.326843 80.453590,323.593109 
	C75.634308,316.729797 71.342834,315.308411 62.531837,318.216949 
	C67.551086,323.466675 66.338364,329.937805 66.358643,336.165497 
	C66.396042,347.650818 66.540230,359.140137 66.286217,370.619965 
	C66.181923,375.333466 69.108887,374.673431 71.862305,374.541321 
	C74.550529,374.412323 78.168198,375.889923 78.017799,370.664551 
	C77.783234,362.514923 77.937035,354.353577 77.972237,346.197418 
	C77.977867,344.892456 78.222893,343.588531 78.495842,340.938629 
	C81.865479,345.684082 84.349907,349.182861 87.193520,353.302063 
M553.293274,337.981750 
	C550.236816,352.551208 555.281311,364.773254 567.239685,371.772156 
	C579.866577,379.162292 596.781616,375.814514 605.814209,364.137512 
	C614.818665,352.496918 613.665771,335.283783 603.193970,325.015350 
	C586.588013,308.732056 561.880249,314.793915 553.293274,337.981750 
M1082.811401,374.565430 
	C1084.653076,373.807434 1086.551636,373.162903 1088.327393,372.273346 
	C1101.997192,365.425446 1107.947998,348.719391 1101.933228,334.201202 
	C1095.933105,319.718445 1079.587402,312.386902 1064.709595,317.505249 
	C1050.329834,322.452271 1042.052979,338.573700 1045.699585,353.342651 
	C1049.542847,368.908539 1066.464111,379.093964 1082.811401,374.565430 
M979.069092,340.502167 
	C979.069092,351.617218 979.069092,362.732300 979.069092,373.883545 
	C983.067871,373.883545 986.447327,373.883545 990.382446,373.883545 
	C990.382446,363.119751 990.382446,352.750671 990.382446,340.991028 
	C997.629272,350.835022 1004.025635,359.479706 1010.373108,368.160126 
	C1015.395874,375.028961 1017.077881,375.649658 1025.746216,373.527863 
	C1025.746216,354.837280 1025.746216,336.135712 1025.746216,317.526123 
	C1021.915039,317.526123 1018.516235,317.526123 1014.455200,317.526123 
	C1014.455200,329.479980 1014.455200,341.032074 1014.455200,352.584198 
	C1012.212769,351.335052 1011.015930,349.801422 1009.907898,348.206085 
	C1004.122253,339.875488 998.413879,331.490631 992.570801,323.200653 
	C987.959656,316.658478 983.569458,315.404175 976.628052,317.610504 
	C977.466919,322.728699 978.383118,327.601379 979.018311,332.510437 
	C979.315308,334.805237 979.069092,337.170349 979.069092,340.502167 
M1223.985962,326.551392 
	C1223.528687,326.068695 1223.080933,325.576599 1222.612671,325.104706 
	C1212.855835,315.270447 1198.395020,313.107361 1186.968506,319.770111 
	C1174.371826,327.115143 1168.829712,340.495880 1172.689697,354.244324 
	C1176.258057,366.954071 1188.890747,376.346313 1202.317993,375.714508 
	C1214.270386,375.152191 1223.275146,369.342468 1228.265503,358.419067 
	C1233.302979,347.392883 1231.936890,336.780792 1223.985962,326.551392 
M1255.407715,365.064880 
	C1265.770874,377.052826 1283.895386,378.774536 1297.778442,370.412201 
	C1298.786743,369.804840 1299.975464,368.455322 1300.000977,367.424133 
	C1300.189087,359.827759 1300.102661,352.224548 1300.102661,344.512329 
	C1292.611938,344.512329 1285.750122,344.512329 1278.722290,344.512329 
	C1278.722290,347.865997 1277.567139,351.844025 1279.033203,353.496765 
	C1280.637207,355.304993 1284.663940,354.964172 1287.645142,355.562012 
	C1289.136597,362.886749 1288.373779,363.902679 1281.307495,363.940979 
	C1279.975098,363.948212 1278.637573,363.989960 1277.310913,363.895569 
	C1268.414429,363.262665 1261.618652,356.428497 1261.389038,347.123077 
	C1261.155273,337.649841 1265.281006,328.945557 1275.275269,328.580383 
	C1281.413818,328.356079 1287.589478,329.148865 1294.236694,329.511597 
	C1294.826294,327.966339 1296.086060,325.702118 1296.446533,323.302826 
	C1296.639771,322.016235 1295.667847,319.765747 1294.573120,319.195282 
	C1282.138306,312.715546 1265.420410,315.760315 1256.528076,325.889832 
	C1247.864868,335.758362 1247.161743,353.096100 1255.407715,365.064880 
M902.765076,356.498932 
	C902.765076,362.265076 902.765076,368.031250 902.765076,373.893768 
	C906.880920,373.893768 910.259644,373.893768 914.092468,373.893768 
	C914.092468,367.372711 913.938538,361.236145 914.212463,355.118774 
	C914.272644,353.775238 915.812012,351.400940 916.741089,351.365601 
	C924.667664,351.064178 932.610535,351.193024 941.232056,351.193024 
	C941.232056,359.187744 941.232056,366.573059 941.232056,373.966797 
	C945.187134,373.966797 948.438782,373.966797 951.835388,373.966797 
	C951.835388,354.935516 951.835388,336.230774 951.835388,317.556335 
	C948.103699,317.556335 944.737915,317.556335 941.068176,317.556335 
	C941.068176,323.649170 940.795044,329.317505 941.156677,334.945038 
	C941.434448,339.266663 939.788025,340.417114 935.750183,340.146057 
	C931.107300,339.834290 926.427246,340.075104 921.763367,340.074402 
	C914.092224,340.073242 914.091980,340.072723 914.091370,332.607635 
	C914.090942,327.530792 914.091309,322.453949 914.091309,317.404083 
	C909.922424,317.404083 906.655334,317.404083 902.764771,317.404083 
	C902.764771,330.292114 902.764771,342.895813 902.765076,356.498932 
M351.147430,317.159607 
	C348.209167,317.159607 345.270905,317.159607 341.962280,317.159607 
	C341.962280,329.851227 341.921967,341.967499 341.973633,354.083313 
	C342.025146,366.169159 349.954712,374.881134 361.591370,375.760132 
	C373.783234,376.681061 383.692688,369.545990 384.610260,357.326904 
	C385.600067,344.145935 384.834198,330.833099 384.834198,317.479858 
	C381.060913,317.479858 377.683777,317.479858 374.432098,317.479858 
	C374.201508,318.150208 374.003754,318.458252 374.002625,318.766998 
	C373.961151,330.079468 373.962585,341.392151 373.903473,352.704529 
	C373.864502,360.164551 369.927704,364.734192 363.612213,364.775421 
	C357.060730,364.818207 352.986053,360.192780 352.949768,352.519165 
	C352.902588,342.536591 352.980988,332.553253 352.896942,322.571136 
	C352.882355,320.835632 352.332123,319.104645 351.147430,317.159607 
M784.073425,325.568146 
	C784.073303,340.385651 784.092957,355.203247 784.053833,370.020630 
	C784.047241,372.511932 783.954468,374.661804 787.510254,374.617889 
	C797.149841,374.498840 806.791870,374.577087 816.867798,374.577087 
	C817.485046,371.016602 818.057739,367.713135 818.722778,363.876984 
	C811.982605,363.876984 805.848145,364.001984 799.726807,363.774139 
	C798.464905,363.727173 796.281128,362.470093 796.185669,361.590240 
	C795.785095,357.900116 796.016541,354.141388 796.016541,349.814758 
	C801.738525,349.814758 806.626526,349.814758 811.464905,349.814758 
	C811.464905,345.952698 811.464905,342.709595 811.464905,338.998474 
	C808.145508,338.998474 805.175354,338.863373 802.222473,339.031769 
	C798.300781,339.255432 795.758179,338.979919 795.730286,333.656555 
	C795.701477,328.151550 798.265442,327.820618 802.449280,328.005981 
	C807.722046,328.239563 813.013062,328.062317 818.778931,328.062317 
	C818.056519,324.049347 817.456604,320.716583 816.864258,317.425903 
	C805.779541,317.425903 795.205566,317.425903 784.073608,317.425903 
	C784.073608,320.024567 784.073608,322.309967 784.073425,325.568146 
M477.545715,374.588867 
	C481.371490,374.588928 485.197296,374.589020 489.023071,374.589020 
	C498.404480,374.589020 498.408112,374.589600 499.838470,365.414062 
	C499.884338,365.119720 499.688263,364.787659 499.447693,363.879181 
	C495.161774,363.879181 490.711823,363.955872 486.265350,363.863159 
	C477.111115,363.672272 477.217102,366.259369 477.130005,354.272644 
	C477.105438,350.892731 478.456024,349.912659 481.582123,350.049927 
	C485.503632,350.222198 489.438446,350.091400 493.211121,350.091400 
	C495.146057,338.997437 495.146057,338.997437 484.967224,338.997345 
	C484.301880,338.997345 483.632416,338.949432 482.971832,339.005676 
	C479.458466,339.304810 476.911407,339.048615 477.051483,334.203491 
	C477.176514,329.878235 478.089111,327.687927 482.939423,327.984985 
	C488.490662,328.325012 494.078705,328.063782 499.976044,328.063782 
	C499.529480,324.753052 499.455933,322.247437 498.763916,319.926178 
	C498.431305,318.810455 496.947144,317.259399 495.956970,317.239014 
	C486.206726,317.038116 476.450653,317.117615 466.488800,317.117615 
	C466.488800,336.446747 466.488800,355.155945 466.488800,374.588226 
	C470.014465,374.588226 473.290558,374.588226 477.545715,374.588867 
M847.916260,322.361237 
	C838.017334,330.038147 835.319885,340.390900 837.322449,352.181915 
	C840.170166,368.949066 858.928711,379.858582 874.954407,374.440002 
	C878.351379,373.291412 880.401672,371.715027 879.834412,367.720001 
	C879.499207,365.359253 879.773193,362.911957 879.773193,360.251221 
	C867.623474,365.801056 859.383606,365.252869 853.526001,358.836639 
	C847.944702,352.722961 846.693176,343.428375 851.272583,336.122559 
	C858.542725,324.524170 868.897949,326.858795 879.773010,331.254730 
	C879.773010,328.565735 879.508667,326.389008 879.828064,324.301575 
	C880.490173,319.973633 878.576538,318.003021 874.523438,317.028259 
	C865.059937,314.752258 856.401550,316.223969 847.916260,322.361237 
M148.949722,364.770691 
	C145.413651,363.595062 141.877579,362.419464 138.295349,361.228485 
	C137.391418,373.374420 138.940613,375.151215 150.809189,375.771759 
	C151.970230,375.832520 153.142090,375.844604 154.300903,375.763977 
	C162.325897,375.205719 169.271881,370.019135 170.790756,363.487030 
	C172.766083,354.991913 169.934113,348.109161 162.428650,343.424713 
	C159.753433,341.755035 156.996368,340.207947 154.217346,338.715332 
	C150.974487,336.973602 147.727722,334.920624 149.376953,330.711853 
	C150.885559,326.862030 154.720810,326.519989 158.297104,327.166382 
	C161.647079,327.771881 164.901337,328.906799 168.232162,329.818146 
	C169.474228,318.134644 170.343506,317.359222 157.209198,316.064545 
	C156.385635,315.983368 155.546127,316.032990 154.715347,316.060791 
	C145.610168,316.365356 139.297958,321.041351 137.277405,328.968964 
	C135.384918,336.394104 138.826294,343.550293 146.449142,348.157959 
	C149.433228,349.961700 152.711136,351.486786 155.199280,353.834076 
	C157.001785,355.534485 159.044235,358.724579 158.550629,360.616699 
	C158.071930,362.451569 154.538391,363.561279 152.246338,364.804932 
	C151.606766,365.151978 150.612442,364.845215 148.949722,364.770691 
M656.548340,328.051514 
	C659.543030,328.048401 662.560059,328.254639 665.521423,327.938873 
	C666.701965,327.812988 668.454041,326.732544 668.738342,325.740601 
	C669.482605,323.143158 669.561523,320.355042 669.927307,317.472473 
	C658.281006,317.472473 647.237244,317.472473 636.236084,317.472473 
	C636.236084,336.539276 636.236084,355.245880 636.236084,373.877075 
	C640.015015,373.877075 643.399170,373.877075 647.369812,373.877075 
	C647.369812,365.754181 647.369812,358.036926 647.369812,349.898315 
	C654.057556,349.898315 660.147888,349.898315 666.369019,349.898315 
	C666.369019,346.071442 666.369019,342.704926 666.369019,338.868286 
	C659.876587,338.868286 653.784607,338.868286 647.798645,338.868286 
	C645.787170,328.452637 646.092834,328.051514 656.548340,328.051514 
M1343.978638,356.104980 
	C1347.577515,349.021118 1351.120117,341.907837 1354.793213,334.862640 
	C1357.756104,329.179413 1360.876831,323.578308 1364.035034,317.742035 
	C1352.189575,315.791534 1351.959229,315.905365 1347.358887,325.334625 
	C1345.829102,328.470490 1344.325195,331.620178 1342.729614,334.722504 
	C1341.429321,337.250916 1340.009644,339.718048 1338.095947,343.210876 
	C1334.085205,334.848969 1330.736694,327.646057 1327.144043,320.567139 
	C1326.435669,319.171509 1324.899170,317.463684 1323.548950,317.271149 
	C1320.213135,316.795502 1316.764038,317.115143 1312.406860,317.115143 
	C1318.063477,327.644989 1323.071411,337.356354 1328.464722,346.848663 
	C1331.310425,351.857086 1333.552246,356.763580 1332.917358,362.747650 
	C1332.521484,366.479492 1332.843750,370.287506 1332.843750,374.247986 
	C1336.847290,374.247986 1340.251587,374.247986 1343.962524,374.247986 
	C1343.962524,368.276489 1343.962524,362.634949 1343.978638,356.104980 
M216.488220,317.101532 
	C207.401672,317.101532 198.315125,317.101532 189.343323,317.101532 
	C188.117706,327.986908 188.117706,327.986938 198.145248,328.067627 
	C198.311737,328.068970 198.482040,328.090820 198.644226,328.064331 
	C202.555954,327.425568 203.372025,329.345581 203.316544,332.913177 
	C203.130157,344.899078 203.235245,356.889740 203.258072,368.878479 
	C203.261414,370.632935 203.423920,372.387085 203.520416,374.292053 
	C205.366089,374.417755 206.671219,374.565674 207.978302,374.585724 
	C214.552826,374.686493 214.554901,374.674805 214.555954,368.233612 
	C214.557602,358.242950 214.556335,348.252258 214.556351,338.261597 
	C214.556366,328.429230 214.561188,328.515961 224.364090,327.974518 
	C225.870224,327.891327 228.190933,326.907501 228.599472,325.782562 
	C229.516800,323.256683 229.469208,320.380371 229.883270,317.101593 
	C225.406891,317.101593 221.444763,317.101593 216.488220,317.101532 
M431.192657,345.502808 
	C431.192963,341.338959 431.442200,337.155914 431.123077,333.016693 
	C430.807953,328.929260 432.450867,327.903992 436.300751,327.976135 
	C444.927185,328.137878 444.932312,327.959747 446.273468,319.602783 
	C446.375366,318.967773 446.427948,318.324860 446.529205,317.467590 
	C432.948090,317.467590 419.565460,317.467590 406.142029,317.467590 
	C406.142029,321.068573 406.142029,324.299408 406.142029,328.057678 
	C408.810608,328.057678 411.137756,328.315826 413.386230,328.004944 
	C418.358917,327.317474 419.542480,329.454315 419.419586,334.158081 
	C419.106476,346.141785 419.241150,358.140198 419.416473,370.129517 
	C419.436707,371.512573 420.669373,373.889221 421.643402,374.058533 
	C424.632172,374.578003 427.768646,374.247528 431.192932,374.247528 
	C431.192932,364.446564 431.192932,355.474243 431.192657,345.502808 
M762.671814,322.186035 
	C762.783569,320.723877 762.895386,319.261719 763.027100,317.538971 
	C749.252930,317.538971 735.755127,317.538971 722.298218,317.538971 
	C721.391418,327.816895 721.390930,327.953522 731.268921,327.988312 
	C734.899963,328.001129 736.265259,329.110992 736.204102,332.871277 
	C736.014648,344.519043 736.134949,356.171814 736.135010,367.822662 
	C736.135010,369.902893 736.135010,371.983124 736.135010,374.273560 
	C740.169983,374.273560 743.417236,374.273560 746.542847,374.273560 
	C746.789062,373.663818 747.017151,373.361725 747.018127,373.058899 
	C747.053894,361.242371 747.074463,349.425781 747.085022,337.609192 
	C747.093567,328.114838 747.091858,327.912689 756.556885,328.155396 
	C760.529724,328.257263 762.503479,327.027069 762.671814,322.186035 
M304.498993,317.111603 
	C297.083832,317.111603 289.668701,317.111603 282.301575,317.111603 
	C282.301575,321.070801 282.301575,324.325134 282.301575,327.705872 
	C283.217468,327.845856 283.846069,328.001892 284.480286,328.029938 
	C296.020630,328.540314 296.020782,328.537048 296.020782,340.069183 
	C296.020782,351.333466 296.020782,362.597778 296.020782,374.215881 
	C299.944824,374.215881 303.337708,374.215881 307.201172,374.215881 
	C307.201172,360.515869 307.363617,347.076080 307.106445,333.644348 
	C307.024689,329.374146 308.027985,327.778534 312.594849,327.945923 
	C321.307281,328.265289 321.318542,327.997559 322.376099,319.498871 
	C322.454193,318.871460 322.490479,318.238831 322.590088,317.111725 
	C316.742584,317.111725 311.120300,317.111725 304.498993,317.111603 
M1154.131958,374.228851 
	C1155.318848,371.101562 1156.505737,367.974274 1158.056763,363.887787 
	C1150.518799,363.887787 1144.406006,363.778046 1138.300049,363.934662 
	C1135.312256,364.011322 1134.127441,363.002136 1134.200684,359.926514 
	C1134.359131,353.277527 1134.247803,346.622101 1134.247437,339.969330 
	C1134.247070,332.532379 1134.247314,325.095428 1134.247314,317.466431 
	C1130.292725,317.466431 1126.920288,317.466431 1123.469849,317.466431 
	C1123.469849,336.514832 1123.469849,355.211700 1123.469849,374.279663 
	C1133.609375,374.279663 1143.405151,374.279663 1154.131958,374.228851 
M256.360565,317.083191 
	C254.113144,317.083191 251.865738,317.083191 249.217926,317.083191 
	C249.217926,335.769073 249.179184,353.685211 249.321228,371.599915 
	C249.329147,372.598145 250.735931,374.319763 251.656509,374.439728 
	C254.518997,374.812805 257.460938,374.576385 260.720917,374.576385 
	C260.720917,355.803070 260.774628,337.877869 260.573608,319.955536 
	C260.562744,318.986145 258.417297,318.040680 256.360565,317.083191 
M29.134420,317.907318 
	C29.009594,335.680023 28.845852,353.452728 28.861874,371.225311 
	C28.862782,372.233612 30.238716,373.990173 31.144428,374.109406 
	C34.002388,374.485779 36.941193,374.248199 39.742455,374.248199 
	C39.742455,354.744446 39.742455,336.084808 39.742455,317.326324 
	C36.136669,317.326324 33.000500,317.326324 29.134420,317.907318 
z"/>
<path fill="#A4283A" opacity="1.000000" stroke="none" 
	d="
M1017.017761,127.000000 
	C1017.017944,104.339142 1017.084351,82.177811 1016.926331,60.018078 
	C1016.908630,57.531506 1016.100281,54.771187 1014.833801,52.624420 
	C1010.773560,45.742249 1006.315735,39.095104 1002.036438,32.341316 
	C1001.186462,30.999720 1000.448303,29.587276 999.163086,27.341946 
	C1004.645142,27.341946 1009.239319,27.341969 1013.833496,27.341940 
	C1024.997192,27.341871 1036.164673,27.502659 1047.322632,27.249525 
	C1050.952393,27.167177 1052.964966,28.297243 1054.794556,31.448835 
	C1081.216553,76.962753 1107.770142,122.400284 1134.292358,167.856018 
	C1135.415894,169.781586 1136.540405,171.706451 1138.683105,173.270920 
	C1138.683105,124.893715 1138.683105,76.516518 1138.683105,27.741577 
	C1152.350342,27.741577 1165.546753,27.741577 1178.959961,27.741577 
	C1178.959961,102.370476 1178.959961,176.796570 1178.959961,251.924042 
	C1170.705688,251.924042 1162.491089,251.073135 1154.528320,252.126373 
	C1143.001343,253.651031 1137.117065,248.968750 1131.486694,238.994614 
	C1108.567871,198.393295 1084.570312,158.400757 1060.966431,118.186249 
	C1060.249756,116.965462 1059.487183,115.771805 1057.815308,114.795403 
	C1057.815308,160.299454 1057.815308,205.803513 1057.815308,251.613647 
	C1044.156738,251.613647 1031.061523,251.613647 1017.017761,251.613647 
	C1017.017761,210.274109 1017.017761,168.887054 1017.017761,127.000000 
z"/>
<path fill="#A5293B" opacity="1.000000" stroke="none" 
	d="
M455.275177,152.189667 
	C454.971466,172.553146 454.971466,192.520432 454.971466,213.142151 
	C486.213287,213.142151 517.261169,213.142151 549.000488,213.142151 
	C547.466003,222.532959 546.109375,231.191315 544.614075,239.825668 
	C543.940735,243.714172 544.223022,249.200241 541.841675,250.983612 
	C539.115601,253.025085 533.912170,251.901932 529.784912,251.906311 
	C493.285034,251.945053 456.785065,251.928833 420.285156,251.928833 
	C418.487549,251.928833 416.689972,251.928833 414.544434,251.928833 
	C414.544434,177.039536 414.544434,102.618828 414.544434,27.767338 
	C455.892761,27.767338 497.289703,27.767338 539.269409,27.767338 
	C541.365540,40.144852 543.496033,52.725273 545.744263,66.000839 
	C543.789612,66.097008 542.072815,66.254074 540.355896,66.255074 
	C513.689270,66.270554 487.022095,66.353508 460.356689,66.175613 
	C456.133148,66.147430 454.522675,67.011543 454.653351,71.626884 
	C454.992859,83.617249 454.757965,95.623619 454.778870,107.623558 
	C454.781403,109.079475 454.946594,110.535110 455.067108,112.489487 
	C476.594971,112.489487 497.848846,112.489487 519.424683,112.489487 
	C519.424683,125.572937 519.424683,138.139755 519.424683,151.454224 
	C517.582214,151.454224 515.811157,151.454224 514.040100,151.454224 
	C496.373474,151.454254 478.706848,151.444443 461.040253,151.469177 
	C459.219666,151.471725 457.399323,151.680420 455.275177,152.189667 
z"/>
<path fill="#A5293B" opacity="1.000000" stroke="none" 
	d="
M861.201172,111.842285 
	C880.688538,112.323006 899.837952,112.431831 918.987305,112.537262 
	C920.954407,112.548088 922.921631,112.538712 925.246948,112.538712 
	C925.246948,125.538895 925.246948,138.098984 925.246948,151.239471 
	C903.950012,151.239471 882.713379,151.239471 861.072998,151.239471 
	C861.072998,172.030869 861.072998,192.249283 861.072998,213.176025 
	C892.148010,213.176025 923.182556,213.176025 954.853516,213.176025 
	C952.771973,225.907974 950.905762,237.871704 948.698547,249.772202 
	C948.523743,250.714798 945.993164,251.809113 944.541260,251.832397 
	C933.713989,252.005997 922.882568,251.927353 912.052490,251.927399 
	C883.394348,251.927521 854.736206,251.927444 826.078064,251.927444 
	C824.283508,251.927444 822.489014,251.927429 820.384277,251.927429 
	C820.384277,176.926270 820.384277,102.397667 820.384277,27.338501 
	C822.202393,27.338501 823.826843,27.338499 825.451294,27.338499 
	C863.606628,27.338511 901.762146,27.398930 939.916870,27.249754 
	C943.953613,27.233973 945.757507,28.058168 946.318665,32.441143 
	C947.733276,43.489727 949.745972,54.461746 951.647888,66.264458 
	C949.431274,66.264458 947.677368,66.264458 945.923462,66.264458 
	C919.264709,66.264549 892.605530,66.344719 865.947815,66.180496 
	C861.834717,66.155159 860.476440,67.285812 860.573914,71.497345 
	C860.882141,84.816467 860.796448,98.144699 861.201172,111.842285 
z"/>
<path fill="#A5293B" opacity="1.000000" stroke="none" 
	d="
M650.146851,98.787292 
	C660.099426,132.660751 669.962952,166.141785 679.826538,199.622818 
	C680.157654,199.666000 680.488831,199.709167 680.820007,199.752335 
	C681.360657,198.164932 681.964478,196.595901 682.432922,194.987473 
	C698.259155,140.648682 714.111755,86.317474 729.796814,31.937923 
	C730.806885,28.435957 732.130920,27.178503 735.851746,27.246420 
	C748.997314,27.486372 762.150024,27.339834 775.743530,27.339834 
	C775.393982,28.941442 775.233459,30.203312 774.843140,31.389547 
	C751.225464,103.160904 727.555237,174.915009 704.044373,246.721313 
	C702.742126,250.698578 701.039368,252.159058 696.762939,252.037521 
	C685.275330,251.711060 673.770996,251.829391 662.276367,251.991867 
	C659.285034,252.034149 657.953552,251.082947 657.004089,248.190689 
	C633.378967,176.225479 609.649109,104.294632 585.951416,32.353245 
	C585.496826,30.973021 585.204834,29.539232 584.630554,27.339823 
	C590.544128,27.339823 595.958679,27.339842 601.373230,27.339823 
	C609.037842,27.339794 616.708984,27.527159 624.364075,27.257162 
	C627.955017,27.130508 629.551392,28.168171 630.580566,31.784430 
	C636.912659,54.033554 643.533264,76.200562 650.146851,98.787292 
z"/>
<path fill="#A4283A" opacity="1.000000" stroke="none" 
	d="
M87.830452,110.193436 
	C101.254372,118.620865 114.461449,126.716614 127.477303,135.108932 
	C155.792526,153.365967 166.769547,183.038498 156.081085,212.901352 
	C147.896103,235.769669 130.305374,247.985962 107.551659,253.074295 
	C81.262459,258.953247 55.923588,254.615372 31.586729,243.653244 
	C30.316277,243.080994 28.669508,241.440903 28.653078,240.277405 
	C28.451525,226.004593 28.521858,211.727936 28.521858,196.291138 
	C30.797655,197.939026 32.190334,198.963028 33.598759,199.964890 
	C49.079079,210.976349 66.139687,217.597321 85.302231,216.974960 
	C91.449142,216.775314 97.994194,215.359909 103.540909,212.759689 
	C118.342926,205.820786 121.058571,188.036270 109.311401,176.652740 
	C105.051628,172.524826 100.021446,169.086639 94.998520,165.871582 
	C80.696289,156.717026 65.849937,148.370819 51.889271,138.733673 
	C28.275919,122.433197 21.416283,99.101425 27.210434,71.969589 
	C32.950279,45.092033 51.907391,31.569815 77.453346,26.041128 
	C101.020294,20.940741 123.795731,24.022182 145.635681,34.078793 
	C147.065689,34.737267 149.053925,36.363155 149.074905,37.568760 
	C149.317139,51.491066 149.229523,65.419121 149.229523,78.446609 
	C139.350479,74.032852 129.812332,69.011520 119.750214,65.485435 
	C109.282791,61.817329 98.209030,61.171883 87.247108,63.880413 
	C78.244431,66.104843 71.393387,70.977905 69.217468,80.552322 
	C66.998848,90.314651 71.060310,97.794884 78.508263,103.726212 
	C81.366302,106.002274 84.512177,107.916908 87.830452,110.193436 
z"/>
<path fill="#A4283A" opacity="1.000000" stroke="none" 
	d="
M1364.037109,190.014694 
	C1363.977295,223.336136 1344.042847,246.891983 1309.907471,253.574783 
	C1284.400757,258.568329 1259.863281,254.405060 1236.353760,243.757492 
	C1234.916992,243.106796 1233.256348,240.964859 1233.231445,239.490875 
	C1232.994995,225.519974 1233.090698,211.543457 1233.090698,196.312744 
	C1235.488647,198.055695 1237.108032,199.270508 1238.765259,200.431335 
	C1254.180908,211.229630 1271.131714,217.566162 1290.115723,217.021439 
	C1295.493652,216.867142 1301.161621,215.826828 1306.112549,213.779984 
	C1323.291260,206.677856 1326.500732,186.798340 1312.023682,175.114197 
	C1302.876343,167.731567 1292.493652,161.867661 1282.590576,155.437180 
	C1273.239502,149.365204 1263.510376,143.837906 1254.435303,137.385010 
	C1219.797974,112.755791 1224.783813,61.879059 1249.190674,41.481071 
	C1262.001953,30.774157 1276.903931,25.894136 1293.073853,24.227049 
	C1312.894043,22.183640 1331.839111,25.729265 1349.998169,33.888706 
	C1352.984985,35.230778 1354.210449,36.826740 1354.153931,40.238972 
	C1353.936401,53.335262 1354.065796,66.437309 1354.065796,80.337265 
	C1352.200195,79.088470 1351.010620,78.313477 1349.842773,77.507187 
	C1333.797119,66.430305 1316.210571,60.796066 1296.607300,62.984798 
	C1286.863892,64.072670 1278.470703,67.862511 1274.478882,77.667542 
	C1270.560669,87.292198 1273.721558,97.187332 1283.695679,104.247742 
	C1293.605225,111.262466 1304.256470,117.221001 1314.296387,124.062592 
	C1325.133789,131.447708 1336.261108,138.602371 1346.134277,147.158752 
	C1358.736206,158.079880 1364.181519,172.818130 1364.037109,190.014694 
z"/>
<path fill="#A4283A" opacity="1.000000" stroke="none" 
	d="
M207.000641,66.260010 
	C200.694427,66.260094 194.888062,66.260094 188.774048,66.260094 
	C188.774048,53.253815 188.774048,40.672375 188.774048,27.715509 
	C250.742966,27.715509 312.610870,27.715509 375.134918,27.715509 
	C374.985626,29.485386 374.948853,31.223003 374.677429,32.923161 
	C373.129120,42.622372 371.367889,52.290977 370.024811,62.017738 
	C369.554626,65.423012 368.213959,66.352386 364.904694,66.329597 
	C344.914032,66.191933 324.921967,66.260345 304.930359,66.259857 
	C303.143555,66.259811 301.356750,66.259850 299.194214,66.259850 
	C299.194214,128.313644 299.194214,189.729050 299.194214,251.533066 
	C285.610107,251.533066 272.419464,251.533066 258.689362,251.533066 
	C258.689362,249.333725 258.689392,247.377045 258.689392,245.420364 
	C258.689392,187.611328 258.635803,129.802139 258.791748,71.993515 
	C258.804138,67.400093 257.597961,66.065681 252.978821,66.152870 
	C237.824112,66.438889 222.660614,66.260078 207.000641,66.260010 
z"/>
<path fill="#838383" opacity="1.000000" stroke="none" 
	d="
M87.013924,352.991852 
	C84.349907,349.182861 81.865479,345.684082 78.495842,340.938629 
	C78.222893,343.588531 77.977867,344.892456 77.972237,346.197418 
	C77.937035,354.353577 77.783234,362.514923 78.017799,370.664551 
	C78.168198,375.889923 74.550529,374.412323 71.862305,374.541321 
	C69.108887,374.673431 66.181923,375.333466 66.286217,370.619965 
	C66.540230,359.140137 66.396042,347.650818 66.358643,336.165497 
	C66.338364,329.937805 67.551086,323.466675 62.531837,318.216949 
	C71.342834,315.308411 75.634308,316.729797 80.453590,323.593109 
	C87.288399,333.326843 94.197914,343.008118 102.058640,352.403748 
	C102.058640,340.887329 102.058640,329.370911 102.058640,317.487488 
	C105.975540,317.487488 109.369484,317.487488 113.296440,317.487488 
	C113.402977,319.251251 113.600052,321.023346 113.602936,322.795807 
	C113.627594,337.943207 113.682045,353.091339 113.540062,368.237457 
	C113.520920,370.279449 112.559807,374.023926 111.865601,374.064240 
	C108.010872,374.288025 103.577644,376.504211 100.457062,371.989624 
	C96.113998,365.706451 91.621849,359.526306 87.013924,352.991852 
z"/>
<path fill="#848484" opacity="1.000000" stroke="none" 
	d="
M553.403687,337.592865 
	C561.880249,314.793915 586.588013,308.732056 603.193970,325.015350 
	C613.665771,335.283783 614.818665,352.496918 605.814209,364.137512 
	C596.781616,375.814514 579.866577,379.162292 567.239685,371.772156 
	C555.281311,364.773254 550.236816,352.551208 553.403687,337.592865 
M568.863892,358.573975 
	C569.468323,359.144226 570.036072,359.760193 570.682800,360.277588 
	C576.681274,365.076111 586.009399,365.472839 592.063538,361.205994 
	C598.646362,356.566559 601.345032,348.084076 598.835754,339.920013 
	C596.514893,332.368927 590.058960,327.761322 581.963623,327.697968 
	C574.527710,327.639771 569.149231,331.064240 565.907104,337.520721 
	C562.272461,344.758972 563.412048,351.690857 568.863892,358.573975 
z"/>
<path fill="#848484" opacity="1.000000" stroke="none" 
	d="
M1082.422852,374.692657 
	C1066.464111,379.093964 1049.542847,368.908539 1045.699585,353.342651 
	C1042.052979,338.573700 1050.329834,322.452271 1064.709595,317.505249 
	C1079.587402,312.386902 1095.933105,319.718445 1101.933228,334.201202 
	C1107.947998,348.719391 1101.997192,365.425446 1088.327393,372.273346 
	C1086.551636,373.162903 1084.653076,373.807434 1082.422852,374.692657 
M1060.590576,334.229065 
	C1059.445312,336.976044 1057.753662,339.628723 1057.260132,342.488220 
	C1055.939941,350.135742 1058.191650,356.694916 1064.730103,361.305176 
	C1070.056641,365.060883 1078.670288,365.050171 1084.079102,361.552887 
	C1091.096680,357.015320 1093.241089,350.299957 1092.070068,342.501923 
	C1091.058716,335.766541 1087.148071,330.582825 1080.617798,328.599731 
	C1073.379639,326.401703 1066.390869,327.383942 1060.590576,334.229065 
z"/>
<path fill="#828282" opacity="1.000000" stroke="none" 
	d="
M979.069092,340.002869 
	C979.069092,337.170349 979.315308,334.805237 979.018311,332.510437 
	C978.383118,327.601379 977.466919,322.728699 976.628052,317.610504 
	C983.569458,315.404175 987.959656,316.658478 992.570801,323.200653 
	C998.413879,331.490631 1004.122253,339.875488 1009.907898,348.206085 
	C1011.015930,349.801422 1012.212769,351.335052 1014.455200,352.584198 
	C1014.455200,341.032074 1014.455200,329.479980 1014.455200,317.526123 
	C1018.516235,317.526123 1021.915039,317.526123 1025.746216,317.526123 
	C1025.746216,336.135712 1025.746216,354.837280 1025.746216,373.527863 
	C1017.077881,375.649658 1015.395874,375.028961 1010.373108,368.160126 
	C1004.025635,359.479706 997.629272,350.835022 990.382446,340.991028 
	C990.382446,352.750671 990.382446,363.119751 990.382446,373.883545 
	C986.447327,373.883545 983.067871,373.883545 979.069092,373.883545 
	C979.069092,362.732300 979.069092,351.617218 979.069092,340.002869 
z"/>
<path fill="#838383" opacity="1.000000" stroke="none" 
	d="
M1224.222412,326.822021 
	C1231.936890,336.780792 1233.302979,347.392883 1228.265503,358.419067 
	C1223.275146,369.342468 1214.270386,375.152191 1202.317993,375.714508 
	C1188.890747,376.346313 1176.258057,366.954071 1172.689697,354.244324 
	C1168.829712,340.495880 1174.371826,327.115143 1186.968506,319.770111 
	C1198.395020,313.107361 1212.855835,315.270447 1222.612671,325.104706 
	C1223.080933,325.576599 1223.528687,326.068695 1224.222412,326.822021 
M1196.351807,363.662262 
	C1198.002075,363.809814 1199.649902,364.044403 1201.302979,364.089691 
	C1208.256592,364.280212 1213.512329,361.145844 1216.999634,355.327423 
	C1220.594360,349.329559 1220.693970,343.032288 1217.242432,336.867645 
	C1213.129150,329.521240 1205.466187,326.297729 1196.811890,328.133453 
	C1189.817261,329.617096 1184.269165,336.254395 1183.331177,344.260651 
	C1182.395386,352.248901 1187.215820,359.753510 1196.351807,363.662262 
z"/>
<path fill="#848484" opacity="1.000000" stroke="none" 
	d="
M1255.185303,364.777832 
	C1247.161743,353.096100 1247.864868,335.758362 1256.528076,325.889832 
	C1265.420410,315.760315 1282.138306,312.715546 1294.573120,319.195282 
	C1295.667847,319.765747 1296.639771,322.016235 1296.446533,323.302826 
	C1296.086060,325.702118 1294.826294,327.966339 1294.236694,329.511597 
	C1287.589478,329.148865 1281.413818,328.356079 1275.275269,328.580383 
	C1265.281006,328.945557 1261.155273,337.649841 1261.389038,347.123077 
	C1261.618652,356.428497 1268.414429,363.262665 1277.310913,363.895569 
	C1278.637573,363.989960 1279.975098,363.948212 1281.307495,363.940979 
	C1288.373779,363.902679 1289.136597,362.886749 1287.645142,355.562012 
	C1284.663940,354.964172 1280.637207,355.304993 1279.033203,353.496765 
	C1277.567139,351.844025 1278.722290,347.865997 1278.722290,344.512329 
	C1285.750122,344.512329 1292.611938,344.512329 1300.102661,344.512329 
	C1300.102661,352.224548 1300.189087,359.827759 1300.000977,367.424133 
	C1299.975464,368.455322 1298.786743,369.804840 1297.778442,370.412201 
	C1283.895386,378.774536 1265.770874,377.052826 1255.185303,364.777832 
z"/>
<path fill="#838383" opacity="1.000000" stroke="none" 
	d="
M902.764893,355.999207 
	C902.764771,342.895813 902.764771,330.292114 902.764771,317.404083 
	C906.655334,317.404083 909.922424,317.404083 914.091309,317.404083 
	C914.091309,322.453949 914.090942,327.530792 914.091370,332.607635 
	C914.091980,340.072723 914.092224,340.073242 921.763367,340.074402 
	C926.427246,340.075104 931.107300,339.834290 935.750183,340.146057 
	C939.788025,340.417114 941.434448,339.266663 941.156677,334.945038 
	C940.795044,329.317505 941.068176,323.649170 941.068176,317.556335 
	C944.737915,317.556335 948.103699,317.556335 951.835388,317.556335 
	C951.835388,336.230774 951.835388,354.935516 951.835388,373.966797 
	C948.438782,373.966797 945.187134,373.966797 941.232056,373.966797 
	C941.232056,366.573059 941.232056,359.187744 941.232056,351.193024 
	C932.610535,351.193024 924.667664,351.064178 916.741089,351.365601 
	C915.812012,351.400940 914.272644,353.775238 914.212463,355.118774 
	C913.938538,361.236145 914.092468,367.372711 914.092468,373.893768 
	C910.259644,373.893768 906.880920,373.893768 902.765076,373.893768 
	C902.765076,368.031250 902.765076,362.265076 902.764893,355.999207 
z"/>
<path fill="#828282" opacity="1.000000" stroke="none" 
	d="
M351.588348,317.265564 
	C352.332123,319.104645 352.882355,320.835632 352.896942,322.571136 
	C352.980988,332.553253 352.902588,342.536591 352.949768,352.519165 
	C352.986053,360.192780 357.060730,364.818207 363.612213,364.775421 
	C369.927704,364.734192 373.864502,360.164551 373.903473,352.704529 
	C373.962585,341.392151 373.961151,330.079468 374.002625,318.766998 
	C374.003754,318.458252 374.201508,318.150208 374.432098,317.479858 
	C377.683777,317.479858 381.060913,317.479858 384.834198,317.479858 
	C384.834198,330.833099 385.600067,344.145935 384.610260,357.326904 
	C383.692688,369.545990 373.783234,376.681061 361.591370,375.760132 
	C349.954712,374.881134 342.025146,366.169159 341.973633,354.083313 
	C341.921967,341.967499 341.962280,329.851227 341.962280,317.159607 
	C345.270905,317.159607 348.209167,317.159607 351.588348,317.265564 
z"/>
<path fill="#848484" opacity="1.000000" stroke="none" 
	d="
M784.073486,325.081726 
	C784.073608,322.309967 784.073608,320.024567 784.073608,317.425903 
	C795.205566,317.425903 805.779541,317.425903 816.864258,317.425903 
	C817.456604,320.716583 818.056519,324.049347 818.778931,328.062317 
	C813.013062,328.062317 807.722046,328.239563 802.449280,328.005981 
	C798.265442,327.820618 795.701477,328.151550 795.730286,333.656555 
	C795.758179,338.979919 798.300781,339.255432 802.222473,339.031769 
	C805.175354,338.863373 808.145508,338.998474 811.464905,338.998474 
	C811.464905,342.709595 811.464905,345.952698 811.464905,349.814758 
	C806.626526,349.814758 801.738525,349.814758 796.016541,349.814758 
	C796.016541,354.141388 795.785095,357.900116 796.185669,361.590240 
	C796.281128,362.470093 798.464905,363.727173 799.726807,363.774139 
	C805.848145,364.001984 811.982605,363.876984 818.722778,363.876984 
	C818.057739,367.713135 817.485046,371.016602 816.867798,374.577087 
	C806.791870,374.577087 797.149841,374.498840 787.510254,374.617889 
	C783.954468,374.661804 784.047241,372.511932 784.053833,370.020630 
	C784.092957,355.203247 784.073303,340.385651 784.073486,325.081726 
z"/>
<path fill="#858585" opacity="1.000000" stroke="none" 
	d="
M477.056183,374.588562 
	C473.290558,374.588226 470.014465,374.588226 466.488800,374.588226 
	C466.488800,355.155945 466.488800,336.446747 466.488800,317.117615 
	C476.450653,317.117615 486.206726,317.038116 495.956970,317.239014 
	C496.947144,317.259399 498.431305,318.810455 498.763916,319.926178 
	C499.455933,322.247437 499.529480,324.753052 499.976044,328.063782 
	C494.078705,328.063782 488.490662,328.325012 482.939423,327.984985 
	C478.089111,327.687927 477.176514,329.878235 477.051483,334.203491 
	C476.911407,339.048615 479.458466,339.304810 482.971832,339.005676 
	C483.632416,338.949432 484.301880,338.997345 484.967224,338.997345 
	C495.146057,338.997437 495.146057,338.997437 493.211121,350.091400 
	C489.438446,350.091400 485.503632,350.222198 481.582123,350.049927 
	C478.456024,349.912659 477.105438,350.892731 477.130005,354.272644 
	C477.217102,366.259369 477.111115,363.672272 486.265350,363.863159 
	C490.711823,363.955872 495.161774,363.879181 499.447693,363.879181 
	C499.688263,364.787659 499.884338,365.119720 499.838470,365.414062 
	C498.408112,374.589600 498.404480,374.589020 489.023071,374.589020 
	C485.197296,374.589020 481.371490,374.588928 477.056183,374.588562 
z"/>
<path fill="#848484" opacity="1.000000" stroke="none" 
	d="
M848.195312,322.127625 
	C856.401550,316.223969 865.059937,314.752258 874.523438,317.028259 
	C878.576538,318.003021 880.490173,319.973633 879.828064,324.301575 
	C879.508667,326.389008 879.773010,328.565735 879.773010,331.254730 
	C868.897949,326.858795 858.542725,324.524170 851.272583,336.122559 
	C846.693176,343.428375 847.944702,352.722961 853.526001,358.836639 
	C859.383606,365.252869 867.623474,365.801056 879.773193,360.251221 
	C879.773193,362.911957 879.499207,365.359253 879.834412,367.720001 
	C880.401672,371.715027 878.351379,373.291412 874.954407,374.440002 
	C858.928711,379.858582 840.170166,368.949066 837.322449,352.181915 
	C835.319885,340.390900 838.017334,330.038147 848.195312,322.127625 
z"/>
<path fill="#848484" opacity="1.000000" stroke="none" 
	d="
M149.365295,364.804535 
	C150.612442,364.845215 151.606766,365.151978 152.246338,364.804932 
	C154.538391,363.561279 158.071930,362.451569 158.550629,360.616699 
	C159.044235,358.724579 157.001785,355.534485 155.199280,353.834076 
	C152.711136,351.486786 149.433228,349.961700 146.449142,348.157959 
	C138.826294,343.550293 135.384918,336.394104 137.277405,328.968964 
	C139.297958,321.041351 145.610168,316.365356 154.715347,316.060791 
	C155.546127,316.032990 156.385635,315.983368 157.209198,316.064545 
	C170.343506,317.359222 169.474228,318.134644 168.232162,329.818146 
	C164.901337,328.906799 161.647079,327.771881 158.297104,327.166382 
	C154.720810,326.519989 150.885559,326.862030 149.376953,330.711853 
	C147.727722,334.920624 150.974487,336.973602 154.217346,338.715332 
	C156.996368,340.207947 159.753433,341.755035 162.428650,343.424713 
	C169.934113,348.109161 172.766083,354.991913 170.790756,363.487030 
	C169.271881,370.019135 162.325897,375.205719 154.300903,375.763977 
	C153.142090,375.844604 151.970230,375.832520 150.809189,375.771759 
	C138.940613,375.151215 137.391418,373.374420 138.295349,361.228485 
	C141.877579,362.419464 145.413651,363.595062 149.365295,364.804535 
z"/>
<path fill="#828282" opacity="1.000000" stroke="none" 
	d="
M656.067383,328.051575 
	C646.092834,328.051514 645.787170,328.452637 647.798645,338.868286 
	C653.784607,338.868286 659.876587,338.868286 666.369019,338.868286 
	C666.369019,342.704926 666.369019,346.071442 666.369019,349.898315 
	C660.147888,349.898315 654.057556,349.898315 647.369812,349.898315 
	C647.369812,358.036926 647.369812,365.754181 647.369812,373.877075 
	C643.399170,373.877075 640.015015,373.877075 636.236084,373.877075 
	C636.236084,355.245880 636.236084,336.539276 636.236084,317.472473 
	C647.237244,317.472473 658.281006,317.472473 669.927307,317.472473 
	C669.561523,320.355042 669.482605,323.143158 668.738342,325.740601 
	C668.454041,326.732544 666.701965,327.812988 665.521423,327.938873 
	C662.560059,328.254639 659.543030,328.048401 656.067383,328.051575 
z"/>
<path fill="#838383" opacity="1.000000" stroke="none" 
	d="
M1343.970581,356.549194 
	C1343.962524,362.634949 1343.962524,368.276489 1343.962524,374.247986 
	C1340.251587,374.247986 1336.847290,374.247986 1332.843750,374.247986 
	C1332.843750,370.287506 1332.521484,366.479492 1332.917358,362.747650 
	C1333.552246,356.763580 1331.310425,351.857086 1328.464722,346.848663 
	C1323.071411,337.356354 1318.063477,327.644989 1312.406860,317.115143 
	C1316.764038,317.115143 1320.213135,316.795502 1323.548950,317.271149 
	C1324.899170,317.463684 1326.435669,319.171509 1327.144043,320.567139 
	C1330.736694,327.646057 1334.085205,334.848969 1338.095947,343.210876 
	C1340.009644,339.718048 1341.429321,337.250916 1342.729614,334.722504 
	C1344.325195,331.620178 1345.829102,328.470490 1347.358887,325.334625 
	C1351.959229,315.905365 1352.189575,315.791534 1364.035034,317.742035 
	C1360.876831,323.578308 1357.756104,329.179413 1354.793213,334.862640 
	C1351.120117,341.907837 1347.577515,349.021118 1343.970581,356.549194 
z"/>
<path fill="#858585" opacity="1.000000" stroke="none" 
	d="
M216.985428,317.101562 
	C221.444763,317.101593 225.406891,317.101593 229.883270,317.101593 
	C229.469208,320.380371 229.516800,323.256683 228.599472,325.782562 
	C228.190933,326.907501 225.870224,327.891327 224.364090,327.974518 
	C214.561188,328.515961 214.556366,328.429230 214.556351,338.261597 
	C214.556335,348.252258 214.557602,358.242950 214.555954,368.233612 
	C214.554901,374.674805 214.552826,374.686493 207.978302,374.585724 
	C206.671219,374.565674 205.366089,374.417755 203.520416,374.292053 
	C203.423920,372.387085 203.261414,370.632935 203.258072,368.878479 
	C203.235245,356.889740 203.130157,344.899078 203.316544,332.913177 
	C203.372025,329.345581 202.555954,327.425568 198.644226,328.064331 
	C198.482040,328.090820 198.311737,328.068970 198.145248,328.067627 
	C188.117706,327.986938 188.117706,327.986908 189.343323,317.101532 
	C198.315125,317.101532 207.401672,317.101532 216.985428,317.101562 
z"/>
<path fill="#838383" opacity="1.000000" stroke="none" 
	d="
M431.192810,346.002380 
	C431.192932,355.474243 431.192932,364.446564 431.192932,374.247528 
	C427.768646,374.247528 424.632172,374.578003 421.643402,374.058533 
	C420.669373,373.889221 419.436707,371.512573 419.416473,370.129517 
	C419.241150,358.140198 419.106476,346.141785 419.419586,334.158081 
	C419.542480,329.454315 418.358917,327.317474 413.386230,328.004944 
	C411.137756,328.315826 408.810608,328.057678 406.142029,328.057678 
	C406.142029,324.299408 406.142029,321.068573 406.142029,317.467590 
	C419.565460,317.467590 432.948090,317.467590 446.529205,317.467590 
	C446.427948,318.324860 446.375366,318.967773 446.273468,319.602783 
	C444.932312,327.959747 444.927185,328.137878 436.300751,327.976135 
	C432.450867,327.903992 430.807953,328.929260 431.123077,333.016693 
	C431.442200,337.155914 431.192963,341.338959 431.192810,346.002380 
z"/>
<path fill="#848484" opacity="1.000000" stroke="none" 
	d="
M762.649292,322.621094 
	C762.503479,327.027069 760.529724,328.257263 756.556885,328.155396 
	C747.091858,327.912689 747.093567,328.114838 747.085022,337.609192 
	C747.074463,349.425781 747.053894,361.242371 747.018127,373.058899 
	C747.017151,373.361725 746.789062,373.663818 746.542847,374.273560 
	C743.417236,374.273560 740.169983,374.273560 736.135010,374.273560 
	C736.135010,371.983124 736.135010,369.902893 736.135010,367.822662 
	C736.134949,356.171814 736.014648,344.519043 736.204102,332.871277 
	C736.265259,329.110992 734.899963,328.001129 731.268921,327.988312 
	C721.390930,327.953522 721.391418,327.816895 722.298218,317.538971 
	C735.755127,317.538971 749.252930,317.538971 763.027100,317.538971 
	C762.895386,319.261719 762.783569,320.723877 762.649292,322.621094 
z"/>
<path fill="#838383" opacity="1.000000" stroke="none" 
	d="
M304.998474,317.111664 
	C311.120300,317.111725 316.742584,317.111725 322.590088,317.111725 
	C322.490479,318.238831 322.454193,318.871460 322.376099,319.498871 
	C321.318542,327.997559 321.307281,328.265289 312.594849,327.945923 
	C308.027985,327.778534 307.024689,329.374146 307.106445,333.644348 
	C307.363617,347.076080 307.201172,360.515869 307.201172,374.215881 
	C303.337708,374.215881 299.944824,374.215881 296.020782,374.215881 
	C296.020782,362.597778 296.020782,351.333466 296.020782,340.069183 
	C296.020782,328.537048 296.020630,328.540314 284.480286,328.029938 
	C283.846069,328.001892 283.217468,327.845856 282.301575,327.705872 
	C282.301575,324.325134 282.301575,321.070801 282.301575,317.111603 
	C289.668701,317.111603 297.083832,317.111603 304.998474,317.111664 
z"/>
<path fill="#828282" opacity="1.000000" stroke="none" 
	d="
M1153.666504,374.254272 
	C1143.405151,374.279663 1133.609375,374.279663 1123.469849,374.279663 
	C1123.469849,355.211700 1123.469849,336.514832 1123.469849,317.466431 
	C1126.920288,317.466431 1130.292725,317.466431 1134.247314,317.466431 
	C1134.247314,325.095428 1134.247070,332.532379 1134.247437,339.969330 
	C1134.247803,346.622101 1134.359131,353.277527 1134.200684,359.926514 
	C1134.127441,363.002136 1135.312256,364.011322 1138.300049,363.934662 
	C1144.406006,363.778046 1150.518799,363.887787 1158.056763,363.887787 
	C1156.505737,367.974274 1155.318848,371.101562 1153.666504,374.254272 
z"/>
<path fill="#898989" opacity="1.000000" stroke="none" 
	d="
M256.813019,317.083618 
	C258.417297,318.040680 260.562744,318.986145 260.573608,319.955536 
	C260.774628,337.877869 260.720917,355.803070 260.720917,374.576385 
	C257.460938,374.576385 254.518997,374.812805 251.656509,374.439728 
	C250.735931,374.319763 249.329147,372.598145 249.321228,371.599915 
	C249.179184,353.685211 249.217926,335.769073 249.217926,317.083191 
	C251.865738,317.083191 254.113144,317.083191 256.813019,317.083618 
z"/>
<path fill="#838383" opacity="1.000000" stroke="none" 
	d="
M29.499374,317.616821 
	C33.000500,317.326324 36.136669,317.326324 39.742455,317.326324 
	C39.742455,336.084808 39.742455,354.744446 39.742455,374.248199 
	C36.941193,374.248199 34.002388,374.485779 31.144428,374.109406 
	C30.238716,373.990173 28.862782,372.233612 28.861874,371.225311 
	C28.845852,353.452728 29.009594,335.680023 29.499374,317.616821 
z"/>
<path fill="#FCFCFC" opacity="1.000000" stroke="none" 
	d="
M568.606812,358.307648 
	C563.412048,351.690857 562.272461,344.758972 565.907104,337.520721 
	C569.149231,331.064240 574.527710,327.639771 581.963623,327.697968 
	C590.058960,327.761322 596.514893,332.368927 598.835754,339.920013 
	C601.345032,348.084076 598.646362,356.566559 592.063538,361.205994 
	C586.009399,365.472839 576.681274,365.076111 570.682800,360.277588 
	C570.036072,359.760193 569.468323,359.144226 568.606812,358.307648 
z"/>
<path fill="#FCFCFC" opacity="1.000000" stroke="none" 
	d="
M1060.827637,333.944885 
	C1066.390869,327.383942 1073.379639,326.401703 1080.617798,328.599731 
	C1087.148071,330.582825 1091.058716,335.766541 1092.070068,342.501923 
	C1093.241089,350.299957 1091.096680,357.015320 1084.079102,361.552887 
	C1078.670288,365.050171 1070.056641,365.060883 1064.730103,361.305176 
	C1058.191650,356.694916 1055.939941,350.135742 1057.260132,342.488220 
	C1057.753662,339.628723 1059.445312,336.976044 1060.827637,333.944885 
z"/>
<path fill="#FBFBFB" opacity="1.000000" stroke="none" 
	d="
M1195.972412,363.506134 
	C1187.215820,359.753510 1182.395386,352.248901 1183.331177,344.260651 
	C1184.269165,336.254395 1189.817261,329.617096 1196.811890,328.133453 
	C1205.466187,326.297729 1213.129150,329.521240 1217.242432,336.867645 
	C1220.693970,343.032288 1220.594360,349.329559 1216.999634,355.327423 
	C1213.512329,361.145844 1208.256592,364.280212 1201.302979,364.089691 
	C1199.649902,364.044403 1198.002075,363.809814 1195.972412,363.506134 
z"/>
</svg>