<?xml version="1.0" encoding="us-ascii" standalone="no"?><svg xmlns="http://www.w3.org/2000/svg" xmlns:xlink="http://www.w3.org/1999/xlink" contentStyleType="text/css" height="323px" preserveAspectRatio="none" style="width:761px;height:323px;background:#FFFFFF;" version="1.1" viewBox="0 0 761 323" width="761px" zoomAndPan="magnify"><defs/><g><!--cluster fly--><g id="cluster_fly"><path d="M144.9317,29.7354 C161.8025,10.7355 176.3048,8.9413 189.7023,33.3202 C199.5366,15.0509 214.9336,13.5803 228.2727,29.3486 C240.2906,12.7788 255.8395,13.5881 266.8995,30.4551 C281.1405,6.4446 299.0427,12.0324 312.2502,31.5323 C325.0452,13.585 338.128,11.7636 350.5088,31.9479 C362.109,11.5912 374.9339,14.9311 388.5571,29.7603 C401.0165,8.7076 420.1834,14.0225 430.8553,31.7119 C443.1613,6 460.3949,9.9794 475.9728,28.3644 C489.0904,8.531 503.8114,10.9712 515.7943,29.541 C529.9004,11.4497 545.4492,13.6247 556.4119,32.9531 C571.5449,16.0979 585.9535,14.2708 599.2801,35.0127 C610.074,15.3348 624.1364,16.3399 636.4092,33.523 C648.1481,15.3878 661.5474,13.1757 676.42,29.9294 C695.4733,8.4257 711.9586,8.3424 724,36.6299 C727.7089,34.8199 729.8522,36.3518 730.1714,40.2773 C747.4286,49.0968 749.5198,66.273 733.0752,77.7071 C752.1807,89.7702 749.743,105.8478 732.1477,117.0457 C751.9896,131.0682 751.1989,145.3982 732.9085,160.0946 C750.9915,169.7068 752.3673,186.1021 735.468,198.0719 C754.3734,213.195 749.8191,234.1439 729.6265,244.3296 C745.4021,261.4216 741.3412,280.0931 717,284.6099 C719.6954,283.0017 722.2283,284.5484 722.4863,287.526 C709.1959,308.4099 691.8629,311.9276 677.007,289.1569 C667.3917,310.5753 649.936,307.2324 637.7605,291.8901 C625.5741,310.1889 610.1146,308.042 598.1569,291.6292 C586.5641,312.9471 569.5941,312.8705 558.3835,291.2749 C544.8749,311.8999 532.3002,310.6097 518.3497,291.7227 C505.1403,310.5793 484.4245,310.6771 472.9706,289.7219 C463.7621,307.6335 444.1624,308.16 433.2432,291.6991 C423.0915,314.1253 406.3288,315.5228 392.8694,294.7937 C381.7609,316.831 362.6984,315.9025 351.1975,295.1761 C334.9617,316.5658 316.7589,309.1809 306.2458,288.9896 C293.7159,304.5729 282.4473,307.3242 270.0042,288.8971 C256.736,308.5146 244.1634,308.3212 229.1302,290.8417 C216.1886,311.5297 196.6577,310.6378 187.6278,287.1655 C166.5675,310.5102 146.5308,302.1343 134,277.6099 C136.4318,278.2261 136.558,279.6539 135.3072,281.5058 C116.0694,270.1245 115.7326,249.045 135.5697,237.899 C119.9302,227.1037 120.1142,211.5682 135.305,200.5544 C113.6855,191.9762 115.8276,173.638 131.2377,161.2298 C114.007,148.7888 114.2573,128.702 134.3848,119.0482 C119.3423,104.3769 120.6669,89.6564 139.7693,79.6518 C115.8506,64.5151 114.4879,43.5259 141,29.6299 C142.1605,27.6302 143.8706,28.0287 144.9317,29.7354 " fill="none" style="stroke:#181818;stroke-width:1.0;"/><text fill="#000000" font-family="sans-serif" font-size="14" font-weight="bold" lengthAdjust="spacing" textLength="38" x="410" y="48.1651">Fly.io</text></g><!--cluster reg_ewr--><g id="cluster_reg_ewr"><rect fill="none" height="203.48" rx="2.5" ry="2.5" style="stroke:#181818;stroke-width:1.0;" width="267" x="441" y="64.6299"/><path d="M546,64.6299 L546,74.1182 L536,84.1182 L441,84.1182 " fill="none" style="stroke:#181818;stroke-width:1.0;"/><text fill="#000000" font-family="sans-serif" font-size="14" font-weight="bold" lengthAdjust="spacing" textLength="95" x="444" y="79.1651">Region - ewr</text></g><!--cluster reg_cdg--><g id="cluster_reg_cdg"><rect fill="none" height="97.49" rx="2.5" ry="2.5" style="stroke:#181818;stroke-width:1.0;" width="267" x="150" y="171.1199"/><path d="M254,171.1199 L254,180.6082 L244,190.6082 L150,190.6082 " fill="none" style="stroke:#181818;stroke-width:1.0;"/><text fill="#000000" font-family="sans-serif" font-size="14" font-weight="bold" lengthAdjust="spacing" textLength="94" x="153" y="185.6551">Region - cdg</text></g><!--entity flyproxy--><g id="elem_flyproxy"><polygon fill="#F1F1F1" points="163,109.6299,173,99.6299,267,99.6299,267,136.1182,257,146.1182,163,146.1182,163,109.6299" style="stroke:#181818;stroke-width:0.5;"/><line style="stroke:#181818;stroke-width:0.5;" x1="257" x2="267" y1="109.6299" y2="99.6299"/><line style="stroke:#181818;stroke-width:0.5;" x1="163" x2="257" y1="109.6299" y2="109.6299"/><line style="stroke:#181818;stroke-width:0.5;" x1="257" x2="257" y1="109.6299" y2="146.1182"/><text fill="#000000" font-family="sans-serif" font-size="14" lengthAdjust="spacing" textLength="64" x="178" y="133.1651">fly-proxy</text></g><!--entity Balancer_ewr--><g id="elem_Balancer_ewr"><polygon fill="#F1F1F1" points="457,109.6299,467,99.6299,555,99.6299,555,136.1182,545,146.1182,457,146.1182,457,109.6299" style="stroke:#181818;stroke-width:0.5;"/><line style="stroke:#181818;stroke-width:0.5;" x1="545" x2="555" y1="109.6299" y2="99.6299"/><line style="stroke:#181818;stroke-width:0.5;" x1="457" x2="545" y1="109.6299" y2="109.6299"/><line style="stroke:#181818;stroke-width:0.5;" x1="545" x2="545" y1="109.6299" y2="146.1182"/><text fill="#000000" font-family="sans-serif" font-size="14" lengthAdjust="spacing" textLength="58" x="472" y="133.1651">Balancer</text></g><!--entity Postgres--><g id="elem_Postgres"><path d="M588.5,216.6199 C588.5,206.6199 628,206.6199 628,206.6199 C628,206.6199 667.5,206.6199 667.5,216.6199 L667.5,242.1082 C667.5,252.1082 628,252.1082 628,252.1082 C628,252.1082 588.5,252.1082 588.5,242.1082 L588.5,216.6199 " fill="#F1F1F1" style="stroke:#181818;stroke-width:0.5;"/><path d="M588.5,216.6199 C588.5,226.6199 628,226.6199 628,226.6199 C628,226.6199 667.5,226.6199 667.5,216.6199 " fill="none" style="stroke:#181818;stroke-width:0.5;"/><text fill="#000000" font-family="sans-serif" font-size="14" lengthAdjust="spacing" textLength="59" x="598.5" y="244.1551">Postgres</text></g><!--entity Redis--><g id="elem_Redis"><path d="M483.5,216.6199 C483.5,206.6199 512,206.6199 512,206.6199 C512,206.6199 540.5,206.6199 540.5,216.6199 L540.5,242.1082 C540.5,252.1082 512,252.1082 512,252.1082 C512,252.1082 483.5,252.1082 483.5,242.1082 L483.5,216.6199 " fill="#F1F1F1" style="stroke:#181818;stroke-width:0.5;"/><path d="M483.5,216.6199 C483.5,226.6199 512,226.6199 512,226.6199 C512,226.6199 540.5,226.6199 540.5,216.6199 " fill="none" style="stroke:#181818;stroke-width:0.5;"/><text fill="#000000" font-family="sans-serif" font-size="14" lengthAdjust="spacing" textLength="37" x="493.5" y="244.1551">Redis</text></g><!--entity Monolith_ewr--><g id="elem_Monolith_ewr"><polygon fill="#F1F1F1" points="590.5,109.6299,600.5,99.6299,691.5,99.6299,691.5,136.1182,681.5,146.1182,590.5,146.1182,590.5,109.6299" style="stroke:#181818;stroke-width:0.5;"/><line style="stroke:#181818;stroke-width:0.5;" x1="681.5" x2="691.5" y1="109.6299" y2="99.6299"/><line style="stroke:#181818;stroke-width:0.5;" x1="590.5" x2="681.5" y1="109.6299" y2="109.6299"/><line style="stroke:#181818;stroke-width:0.5;" x1="681.5" x2="681.5" y1="109.6299" y2="146.1182"/><text fill="#000000" font-family="sans-serif" font-size="14" lengthAdjust="spacing" textLength="61" x="605.5" y="133.1651">Monolith</text></g><!--entity Balancer_cdg--><g id="elem_Balancer_cdg"><polygon fill="#F1F1F1" points="166,216.1199,176,206.1199,264,206.1199,264,242.6082,254,252.6082,166,252.6082,166,216.1199" style="stroke:#181818;stroke-width:0.5;"/><line style="stroke:#181818;stroke-width:0.5;" x1="254" x2="264" y1="216.1199" y2="206.1199"/><line style="stroke:#181818;stroke-width:0.5;" x1="166" x2="254" y1="216.1199" y2="216.1199"/><line style="stroke:#181818;stroke-width:0.5;" x1="254" x2="254" y1="216.1199" y2="252.6082"/><text fill="#000000" font-family="sans-serif" font-size="14" lengthAdjust="spacing" textLength="58" x="181" y="239.6551">Balancer</text></g><!--entity Monolith_cdg--><g id="elem_Monolith_cdg"><polygon fill="#F1F1F1" points="299.5,216.1199,309.5,206.1199,400.5,206.1199,400.5,242.6082,390.5,252.6082,299.5,252.6082,299.5,216.1199" style="stroke:#181818;stroke-width:0.5;"/><line style="stroke:#181818;stroke-width:0.5;" x1="390.5" x2="400.5" y1="216.1199" y2="206.1199"/><line style="stroke:#181818;stroke-width:0.5;" x1="299.5" x2="390.5" y1="216.1199" y2="216.1199"/><line style="stroke:#181818;stroke-width:0.5;" x1="390.5" x2="390.5" y1="216.1199" y2="252.6082"/><text fill="#000000" font-family="sans-serif" font-size="14" lengthAdjust="spacing" textLength="61" x="314.5" y="239.6551">Monolith</text></g><!--entity Internet--><g id="elem_Internet"><polygon fill="#F1F1F1" points="16,109.6299,26,99.6299,110,99.6299,110,136.1182,100,146.1182,16,146.1182,16,109.6299" style="stroke:#181818;stroke-width:0.5;"/><line style="stroke:#181818;stroke-width:0.5;" x1="100" x2="110" y1="109.6299" y2="99.6299"/><line style="stroke:#181818;stroke-width:0.5;" x1="16" x2="100" y1="109.6299" y2="109.6299"/><line style="stroke:#181818;stroke-width:0.5;" x1="100" x2="100" y1="109.6299" y2="146.1182"/><text fill="#000000" font-family="sans-serif" font-size="14" lengthAdjust="spacing" textLength="54" x="31" y="133.1651">Internet</text></g><!--link Internet to flyproxy--><g id="link_Internet_flyproxy"><path d="M110.5,122.8799 C125.88,122.8799 141.25,122.8799 156.63,122.8799 " fill="none" id="Internet-to-flyproxy" style="stroke:#181818;stroke-width:1.0;"/><polygon fill="#181818" points="161.24,122.8799,152.24,118.8799,156.24,122.8799,152.24,126.8799,161.24,122.8799" style="stroke:#181818;stroke-width:1.0;"/></g><!--link flyproxy to Balancer_ewr--><g id="link_flyproxy_Balancer_ewr"><path d="M267.29,122.8799 C328.29,122.8799 389.29,122.8799 450.29,122.8799 " fill="none" id="flyproxy-to-Balancer_ewr" style="stroke:#181818;stroke-width:1.0;"/><polygon fill="#181818" points="455.07,122.8799,446.07,118.8799,450.07,122.8799,446.07,126.8799,455.07,122.8799" style="stroke:#181818;stroke-width:1.0;"/></g><!--link flyproxy to Balancer_cdg--><g id="link_flyproxy_Balancer_cdg"><path d="M215,146.5499 C215,162.0199 215,182.6499 215,199.3299 " fill="none" id="flyproxy-to-Balancer_cdg" style="stroke:#181818;stroke-width:1.0;"/><polygon fill="#181818" points="215,204.2199,219,195.2199,215,199.2199,211,195.2199,215,204.2199" style="stroke:#181818;stroke-width:1.0;"/></g><!--link Monolith_ewr to Redis--><g id="link_Monolith_ewr_Redis"><path d="M595.54,146.5099 C587.06,151.5099 578.52,157.1299 571,163.1199 C556.98,174.2999 543.41,188.9499 532.83,201.5399 " fill="none" id="Monolith_ewr-to-Redis" style="stroke:#181818;stroke-width:1.0;"/><polygon fill="#181818" points="529.74,205.2599,538.565,200.8873,532.9325,201.4118,532.408,195.7793,529.74,205.2599" style="stroke:#181818;stroke-width:1.0;"/></g><!--link Monolith_ewr to Postgres--><g id="link_Monolith_ewr_Postgres"><path d="M638.18,146.5499 C636.23,162.2299 633.62,183.2199 631.53,200.0099 " fill="none" id="Monolith_ewr-to-Postgres" style="stroke:#181818;stroke-width:1.0;"/><polygon fill="#181818" points="630.91,204.9499,636.0073,196.5228,631.5372,199.9894,628.0705,195.5193,630.91,204.9499" style="stroke:#181818;stroke-width:1.0;"/></g><!--link Balancer_ewr to Monolith_ewr--><g id="link_Balancer_ewr_Monolith_ewr"><path d="M555.31,122.8799 C564.83,122.8799 574.34,122.8799 583.86,122.8799 " fill="none" id="Balancer_ewr-to-Monolith_ewr" style="stroke:#181818;stroke-width:1.0;"/><polygon fill="#181818" points="588.61,122.8799,579.61,118.8799,583.61,122.8799,579.61,126.8799,588.61,122.8799" style="stroke:#181818;stroke-width:1.0;"/></g><!--link Monolith_cdg to Redis--><g id="link_Monolith_cdg_Redis"><path d="M400.94,229.3699 C426.27,229.3699 451.6,229.3699 476.93,229.3699 " fill="none" id="Monolith_cdg-to-Redis" style="stroke:#181818;stroke-width:1.0;"/><polygon fill="#181818" points="481.85,229.3699,472.85,225.3699,476.85,229.3699,472.85,233.3699,481.85,229.3699" style="stroke:#181818;stroke-width:1.0;"/></g><!--link Monolith_cdg to Postgres--><g id="link_Monolith_cdg_Postgres"><path d="M372.8,205.8699 C393.14,186.9799 424.84,162.3599 458.5,154.6199 C494.02,146.4499 504.98,146.4499 540.5,154.6199 C548.93,156.5599 550.89,158.1999 558,163.1199 C574.06,174.2199 590.02,188.9699 602.63,201.7199 " fill="none" id="Monolith_cdg-to-Postgres" style="stroke:#181818;stroke-width:1.0;"/><polygon fill="#181818" points="606.07,205.2399,602.6459,196.0054,602.5775,201.6619,596.921,201.5935,606.07,205.2399" style="stroke:#181818;stroke-width:1.0;"/></g><!--link Balancer_cdg to Monolith_cdg--><g id="link_Balancer_cdg_Monolith_cdg"><path d="M264.31,229.3699 C273.83,229.3699 283.34,229.3699 292.86,229.3699 " fill="none" id="Balancer_cdg-to-Monolith_cdg" style="stroke:#181818;stroke-width:1.0;"/><polygon fill="#181818" points="297.61,229.3699,288.61,225.3699,292.61,229.3699,288.61,233.3699,297.61,229.3699" style="stroke:#181818;stroke-width:1.0;"/></g><!--SRC=[RP1D2i8m48NNpIc6xkCHNBWGN0ZI2qXifh4G4qaYMiIxE_r9I6YNyzxZcvbdh4GucO3EO62irVObeTC320_rKG-xtjRmPPKPSwG_dVtC9WryccfMTKuy41ogAxxTv3QeUck00maJO2OSX1QcHPToKI189KKGD-4HBjO7vT3dMeEozn5pjiRgFjmJ9Wg4-R7ydbQgyXuIjkw9kVoUSbLC5AjeMImF-3uLn59J9EO_Rnk4PgpuYPCzVxoIKpb5bsJaoGmtthscBUeQjXXvy0y0]--></g></svg>