<?xml version="1.0" encoding="us-ascii" standalone="no"?><svg xmlns="http://www.w3.org/2000/svg" xmlns:xlink="http://www.w3.org/1999/xlink" contentStyleType="text/css" height="322px" preserveAspectRatio="none" style="width:761px;height:322px;background:#FFFFFF;" version="1.1" viewBox="0 0 761 322" width="761px" zoomAndPan="magnify"><defs/><g><!--cluster fly--><g id="cluster_fly"><path d="M144.9317,29.7354 C161.8025,10.7355 176.3048,8.9413 189.7023,33.3202 C199.5366,15.0509 214.9336,13.5803 228.2727,29.3486 C240.2906,12.7788 255.8395,13.5881 266.8995,30.4551 C281.1405,6.4446 299.0427,12.0324 312.2502,31.5323 C325.0452,13.585 338.128,11.7636 350.5088,31.9479 C362.109,11.5912 374.9339,14.9311 388.5571,29.7603 C401.0165,8.7076 420.1834,14.0225 430.8553,31.7119 C443.1613,6 460.3949,9.9794 475.9728,28.3644 C489.0904,8.531 503.8114,10.9712 515.7943,29.541 C529.9004,11.4497 545.4492,13.6247 556.4119,32.9531 C571.5449,16.0979 585.9535,14.2708 599.2801,35.0127 C610.074,15.3348 624.1364,16.3399 636.4092,33.523 C648.1481,15.3878 661.5474,13.1757 676.42,29.9294 C695.4733,8.4257 711.9586,8.3424 724,36.6299 C727.7089,34.8199 729.8522,36.3518 730.1714,40.2773 C747.3567,49.0527 749.4446,66.1538 733.0752,77.5438 C752.1003,89.5587 749.671,105.5693 732.1477,116.7191 C751.9153,130.6871 751.1285,144.9627 732.9085,159.6046 C750.9168,169.1704 752.2915,185.4951 735.468,197.4186 C754.3011,212.4974 749.7534,233.3714 729.6265,243.5129 C745.3241,260.5601 741.2566,279.158 717,283.6299 C719.6954,282.0217 722.2283,283.5684 722.4863,286.546 C709.1959,307.4299 691.8629,310.9476 677.007,288.1769 C667.3917,309.5953 649.936,306.2524 637.7605,290.9101 C625.5741,309.2089 610.1146,307.062 598.1569,290.6492 C586.5641,311.9671 569.5941,311.8905 558.3835,290.2949 C544.8749,310.9199 532.3002,309.6297 518.3497,290.7427 C505.1403,309.5993 484.4245,309.6971 472.9706,288.7419 C463.7621,306.6535 444.1624,307.18 433.2432,290.7191 C423.0915,313.1453 406.3288,314.5428 392.8694,293.8137 C381.7609,315.851 362.6984,314.9225 351.1975,294.1961 C334.9617,315.5858 316.7589,308.2009 306.2458,288.0096 C293.7159,303.5929 282.4473,306.3442 270.0042,287.9171 C256.736,307.5346 244.1634,307.3412 229.1302,289.8617 C216.1886,310.5497 196.6577,309.6578 187.6278,286.1855 C166.5675,309.5302 146.5308,301.1543 134,276.6299 C136.4318,277.2461 136.558,278.6739 135.3072,280.5258 C116.1418,269.1867 115.8066,248.1862 135.5697,237.0823 C119.9983,226.3348 120.181,210.8671 135.305,199.9011 C113.7707,191.3673 115.8962,173.1036 131.2377,160.7398 C114.0769,148.3417 114.3321,128.3324 134.3848,118.7215 C119.4117,104.1015 120.7391,89.4417 139.7693,79.4885 C115.9299,64.3993 114.5733,43.4784 141,29.6299 C142.1605,27.6302 143.8706,28.0287 144.9317,29.7354 " fill="none" style="stroke:#181818;stroke-width:1.0;"/><text fill="#000000" font-family="sans-serif" font-size="14" font-weight="bold" lengthAdjust="spacing" textLength="41" x="408.5" y="47.625">Fly.io</text></g><!--cluster reg_ewr--><g id="cluster_reg_ewr"><rect fill="none" height="202.5" rx="2.5" ry="2.5" style="stroke:#181818;stroke-width:1.0;" width="267" x="441" y="64.6299"/><path d="M552,64.6299 L552,73.9268 L542,83.9268 L441,83.9268 " fill="none" style="stroke:#181818;stroke-width:1.0;"/><text fill="#000000" font-family="sans-serif" font-size="14" font-weight="bold" lengthAdjust="spacing" textLength="101" x="444" y="78.625">Region - ewr</text></g><!--cluster reg_cdg--><g id="cluster_reg_cdg"><rect fill="none" height="97" rx="2.5" ry="2.5" style="stroke:#181818;stroke-width:1.0;" width="267" x="150" y="170.6299"/><path d="M259,170.6299 L259,179.9268 L249,189.9268 L150,189.9268 " fill="none" style="stroke:#181818;stroke-width:1.0;"/><text fill="#000000" font-family="sans-serif" font-size="14" font-weight="bold" lengthAdjust="spacing" textLength="99" x="153" y="184.625">Region - cdg</text></g><!--entity flyproxy--><g id="elem_flyproxy"><polygon fill="#F1F1F1" points="168,109.6299,178,99.6299,264,99.6299,264,135.9268,254,145.9268,168,145.9268,168,109.6299" style="stroke:#181818;stroke-width:0.5;"/><line style="stroke:#181818;stroke-width:0.5;" x1="254" x2="264" y1="109.6299" y2="99.6299"/><line style="stroke:#181818;stroke-width:0.5;" x1="168" x2="254" y1="109.6299" y2="109.6299"/><line style="stroke:#181818;stroke-width:0.5;" x1="254" x2="254" y1="109.6299" y2="145.9268"/><text fill="#000000" font-family="sans-serif" font-size="14" lengthAdjust="spacing" textLength="56" x="183" y="132.625">fly-proxy</text></g><!--entity Balancer_ewr--><g id="elem_Balancer_ewr"><polygon fill="#F1F1F1" points="457,109.6299,467,99.6299,557,99.6299,557,135.9268,547,145.9268,457,145.9268,457,109.6299" style="stroke:#181818;stroke-width:0.5;"/><line style="stroke:#181818;stroke-width:0.5;" x1="547" x2="557" y1="109.6299" y2="99.6299"/><line style="stroke:#181818;stroke-width:0.5;" x1="457" x2="547" y1="109.6299" y2="109.6299"/><line style="stroke:#181818;stroke-width:0.5;" x1="547" x2="547" y1="109.6299" y2="145.9268"/><text fill="#000000" font-family="sans-serif" font-size="14" lengthAdjust="spacing" textLength="60" x="472" y="132.625">Balancer</text></g><!--entity Postgres--><g id="elem_Postgres"><path d="M588,216.1299 C588,206.1299 629,206.1299 629,206.1299 C629,206.1299 670,206.1299 670,216.1299 L670,241.4268 C670,251.4268 629,251.4268 629,251.4268 C629,251.4268 588,251.4268 588,241.4268 L588,216.1299 " fill="#F1F1F1" style="stroke:#181818;stroke-width:0.5;"/><path d="M588,216.1299 C588,226.1299 629,226.1299 629,226.1299 C629,226.1299 670,226.1299 670,216.1299 " fill="none" style="stroke:#181818;stroke-width:0.5;"/><text fill="#000000" font-family="sans-serif" font-size="14" lengthAdjust="spacing" textLength="62" x="598" y="243.125">Postgres</text></g><!--entity Redis--><g id="elem_Redis"><path d="M481.5,216.1299 C481.5,206.1299 511,206.1299 511,206.1299 C511,206.1299 540.5,206.1299 540.5,216.1299 L540.5,241.4268 C540.5,251.4268 511,251.4268 511,251.4268 C511,251.4268 481.5,251.4268 481.5,241.4268 L481.5,216.1299 " fill="#F1F1F1" style="stroke:#181818;stroke-width:0.5;"/><path d="M481.5,216.1299 C481.5,226.1299 511,226.1299 511,226.1299 C511,226.1299 540.5,226.1299 540.5,216.1299 " fill="none" style="stroke:#181818;stroke-width:0.5;"/><text fill="#000000" font-family="sans-serif" font-size="14" lengthAdjust="spacing" textLength="39" x="491.5" y="243.125">Redis</text></g><!--entity Monolith_ewr--><g id="elem_Monolith_ewr"><polygon fill="#F1F1F1" points="592.5,109.6299,602.5,99.6299,691.5,99.6299,691.5,135.9268,681.5,145.9268,592.5,145.9268,592.5,109.6299" style="stroke:#181818;stroke-width:0.5;"/><line style="stroke:#181818;stroke-width:0.5;" x1="681.5" x2="691.5" y1="109.6299" y2="99.6299"/><line style="stroke:#181818;stroke-width:0.5;" x1="592.5" x2="681.5" y1="109.6299" y2="109.6299"/><line style="stroke:#181818;stroke-width:0.5;" x1="681.5" x2="681.5" y1="109.6299" y2="145.9268"/><text fill="#000000" font-family="sans-serif" font-size="14" lengthAdjust="spacing" textLength="59" x="607.5" y="132.625">Monolith</text></g><!--entity Balancer_cdg--><g id="elem_Balancer_cdg"><polygon fill="#F1F1F1" points="166,215.6299,176,205.6299,266,205.6299,266,241.9268,256,251.9268,166,251.9268,166,215.6299" style="stroke:#181818;stroke-width:0.5;"/><line style="stroke:#181818;stroke-width:0.5;" x1="256" x2="266" y1="215.6299" y2="205.6299"/><line style="stroke:#181818;stroke-width:0.5;" x1="166" x2="256" y1="215.6299" y2="215.6299"/><line style="stroke:#181818;stroke-width:0.5;" x1="256" x2="256" y1="215.6299" y2="251.9268"/><text fill="#000000" font-family="sans-serif" font-size="14" lengthAdjust="spacing" textLength="60" x="181" y="238.625">Balancer</text></g><!--entity Monolith_cdg--><g id="elem_Monolith_cdg"><polygon fill="#F1F1F1" points="301.5,215.6299,311.5,205.6299,400.5,205.6299,400.5,241.9268,390.5,251.9268,301.5,251.9268,301.5,215.6299" style="stroke:#181818;stroke-width:0.5;"/><line style="stroke:#181818;stroke-width:0.5;" x1="390.5" x2="400.5" y1="215.6299" y2="205.6299"/><line style="stroke:#181818;stroke-width:0.5;" x1="301.5" x2="390.5" y1="215.6299" y2="215.6299"/><line style="stroke:#181818;stroke-width:0.5;" x1="390.5" x2="390.5" y1="215.6299" y2="251.9268"/><text fill="#000000" font-family="sans-serif" font-size="14" lengthAdjust="spacing" textLength="59" x="316.5" y="238.625">Monolith</text></g><!--entity Internet--><g id="elem_Internet"><polygon fill="#F1F1F1" points="16,109.6299,26,99.6299,110,99.6299,110,135.9268,100,145.9268,16,145.9268,16,109.6299" style="stroke:#181818;stroke-width:0.5;"/><line style="stroke:#181818;stroke-width:0.5;" x1="100" x2="110" y1="109.6299" y2="99.6299"/><line style="stroke:#181818;stroke-width:0.5;" x1="16" x2="100" y1="109.6299" y2="109.6299"/><line style="stroke:#181818;stroke-width:0.5;" x1="100" x2="100" y1="109.6299" y2="145.9268"/><text fill="#000000" font-family="sans-serif" font-size="14" lengthAdjust="spacing" textLength="54" x="31" y="132.625">Internet</text></g><!--link Internet to flyproxy--><g id="link_Internet_flyproxy"><path d="M110.21,122.6299 C127.57,122.6299 144.92,122.6299 162.27,122.6299 " fill="none" id="Internet-to-flyproxy" style="stroke:#181818;stroke-width:1.0;"/><polygon fill="#181818" points="167.65,122.6299,158.65,118.6299,162.65,122.6299,158.65,126.6299,167.65,122.6299" style="stroke:#181818;stroke-width:1.0;"/></g><!--link flyproxy to Balancer_ewr--><g id="link_flyproxy_Balancer_ewr"><path d="M264.03,122.6299 C326.49,122.6299 388.96,122.6299 451.43,122.6299 " fill="none" id="flyproxy-to-Balancer_ewr" style="stroke:#181818;stroke-width:1.0;"/><polygon fill="#181818" points="456.7,122.6299,447.7,118.6299,451.7,122.6299,447.7,126.6299,456.7,122.6299" style="stroke:#181818;stroke-width:1.0;"/></g><!--link flyproxy to Balancer_cdg--><g id="link_flyproxy_Balancer_cdg"><path d="M216,145.6899 C216,161.6799 216,183.4099 216,200.4699 " fill="none" id="flyproxy-to-Balancer_cdg" style="stroke:#181818;stroke-width:1.0;"/><polygon fill="#181818" points="216,205.6099,220,196.6099,216,200.6099,212,196.6099,216,205.6099" style="stroke:#181818;stroke-width:1.0;"/></g><!--link Monolith_ewr to Redis--><g id="link_Monolith_ewr_Redis"><path d="M596.68,145.6599 C587.83,150.7399 578.86,156.4799 571,162.6299 C556.31,174.1199 542.06,189.3399 531.13,202.1599 " fill="none" id="Monolith_ewr-to-Redis" style="stroke:#181818;stroke-width:1.0;"/><polygon fill="#181818" points="527.85,206.0499,536.7098,201.7484,531.0733,202.2276,530.5941,196.5911,527.85,206.0499" style="stroke:#181818;stroke-width:1.0;"/></g><!--link Monolith_ewr to Postgres--><g id="link_Monolith_ewr_Postgres"><path d="M639.24,145.6899 C637.23,161.7899 634.49,183.6999 632.35,200.8199 " fill="none" id="Monolith_ewr-to-Postgres" style="stroke:#181818;stroke-width:1.0;"/><polygon fill="#181818" points="631.71,205.9599,636.8073,197.5328,632.3372,200.9994,628.8705,196.5293,631.71,205.9599" style="stroke:#181818;stroke-width:1.0;"/></g><!--link Balancer_ewr to Monolith_ewr--><g id="link_Balancer_ewr_Monolith_ewr"><path d="M557.1,122.6299 C567.08,122.6299 577.06,122.6299 587.03,122.6299 " fill="none" id="Balancer_ewr-to-Monolith_ewr" style="stroke:#181818;stroke-width:1.0;"/><polygon fill="#181818" points="592.25,122.6299,583.25,118.6299,587.25,122.6299,583.25,126.6299,592.25,122.6299" style="stroke:#181818;stroke-width:1.0;"/></g><!--link Monolith_cdg to Redis--><g id="link_Monolith_cdg_Redis"><path d="M400.69,228.6299 C425.87,228.6299 451.05,228.6299 476.23,228.6299 " fill="none" id="Monolith_cdg-to-Redis" style="stroke:#181818;stroke-width:1.0;"/><polygon fill="#181818" points="481.27,228.6299,472.27,224.6299,476.27,228.6299,472.27,232.6299,481.27,228.6299" style="stroke:#181818;stroke-width:1.0;"/></g><!--link Monolith_cdg to Postgres--><g id="link_Monolith_cdg_Postgres"><path d="M373.16,205.5599 C393.27,186.6799 424.86,161.8699 458.5,154.1299 C494.02,145.9599 504.98,145.9599 540.5,154.1299 C548.93,156.0699 550.87,157.7399 558,162.6299 C574.75,174.0999 591.49,189.4199 604.5,202.4099 " fill="none" id="Monolith_cdg-to-Postgres" style="stroke:#181818;stroke-width:1.0;"/><polygon fill="#181818" points="608.06,206.0099,604.5802,196.7963,604.546,202.453,598.8892,202.4187,608.06,206.0099" style="stroke:#181818;stroke-width:1.0;"/></g><!--link Balancer_cdg to Monolith_cdg--><g id="link_Balancer_cdg_Monolith_cdg"><path d="M266.1,228.6299 C276.08,228.6299 286.06,228.6299 296.03,228.6299 " fill="none" id="Balancer_cdg-to-Monolith_cdg" style="stroke:#181818;stroke-width:1.0;"/><polygon fill="#181818" points="301.25,228.6299,292.25,224.6299,296.25,228.6299,292.25,232.6299,301.25,228.6299" style="stroke:#181818;stroke-width:1.0;"/></g><!--SRC=[RP1D2i8m48NNpIc6xkCHNBWGN0ZI2qXifh4G4qaYMiIxE_r9I6YNyzxZcvbdh4GucO3EO62irVObeTC320_rKG-xtjRmPPKPSwG_dVtC9WryccfMTKuy41ogAxxTv3QeUck00maJO2OSX1QcHPToKI189KKGD-4HBjO7vT3dMeEozn5pjiRgFjmJ9Wg4-R7ydbQgyXuIjkw9kVoUSbLC5AjeMImF-3uLn59J9EO_Rnk4PgpuYPCzVxoIKpb5bsJaoGmtthscBUeQjXXvy0y0]--></g></svg>