<svg aria-roledescription="classDiagram" role="graphics-document document" viewBox="-8 -8 999.529296875 945.5" style="max-width: 999.529px; background-color: white;" xmlns:xlink="http://www.w3.org/1999/xlink" xmlns="http://www.w3.org/2000/svg" width="100%" id="my-svg"><style>#my-svg{font-family:"trebuchet ms",verdana,arial,sans-serif;font-size:16px;fill:#000000;}#my-svg .error-icon{fill:#552222;}#my-svg .error-text{fill:#552222;stroke:#552222;}#my-svg .edge-thickness-normal{stroke-width:2px;}#my-svg .edge-thickness-thick{stroke-width:3.5px;}#my-svg .edge-pattern-solid{stroke-dasharray:0;}#my-svg .edge-pattern-dashed{stroke-dasharray:3;}#my-svg .edge-pattern-dotted{stroke-dasharray:2;}#my-svg .marker{fill:#666;stroke:#666;}#my-svg .marker.cross{stroke:#666;}#my-svg svg{font-family:"trebuchet ms",verdana,arial,sans-serif;font-size:16px;}#my-svg g.classGroup text{fill:#999;stroke:none;font-family:"trebuchet ms",verdana,arial,sans-serif;font-size:10px;}#my-svg g.classGroup text .title{font-weight:bolder;}#my-svg .nodeLabel,#my-svg .edgeLabel{color:#111111;}#my-svg .edgeLabel .label rect{fill:#eee;}#my-svg .label text{fill:#111111;}#my-svg .edgeLabel .label span{background:#eee;}#my-svg .classTitle{font-weight:bolder;}#my-svg .node rect,#my-svg .node circle,#my-svg .node ellipse,#my-svg .node polygon,#my-svg .node path{fill:#eee;stroke:#999;stroke-width:1px;}#my-svg .divider{stroke:#999;stroke-width:1;}#my-svg g.clickable{cursor:pointer;}#my-svg g.classGroup rect{fill:#eee;stroke:#999;}#my-svg g.classGroup line{stroke:#999;stroke-width:1;}#my-svg .classLabel .box{stroke:none;stroke-width:0;fill:#eee;opacity:0.5;}#my-svg .classLabel .label{fill:#999;font-size:10px;}#my-svg .relation{stroke:#666;stroke-width:1;fill:none;}#my-svg .dashed-line{stroke-dasharray:3;}#my-svg .dotted-line{stroke-dasharray:1 2;}#my-svg #compositionStart,#my-svg .composition{fill:#666!important;stroke:#666!important;stroke-width:1;}#my-svg #compositionEnd,#my-svg .composition{fill:#666!important;stroke:#666!important;stroke-width:1;}#my-svg #dependencyStart,#my-svg .dependency{fill:#666!important;stroke:#666!important;stroke-width:1;}#my-svg #dependencyStart,#my-svg .dependency{fill:#666!important;stroke:#666!important;stroke-width:1;}#my-svg #extensionStart,#my-svg .extension{fill:transparent!important;stroke:#666!important;stroke-width:1;}#my-svg #extensionEnd,#my-svg .extension{fill:transparent!important;stroke:#666!important;stroke-width:1;}#my-svg #aggregationStart,#my-svg .aggregation{fill:transparent!important;stroke:#666!important;stroke-width:1;}#my-svg #aggregationEnd,#my-svg .aggregation{fill:transparent!important;stroke:#666!important;stroke-width:1;}#my-svg #lollipopStart,#my-svg .lollipop{fill:#eee!important;stroke:#666!important;stroke-width:1;}#my-svg #lollipopEnd,#my-svg .lollipop{fill:#eee!important;stroke:#666!important;stroke-width:1;}#my-svg .edgeTerminals{font-size:11px;}#my-svg .classTitleText{text-anchor:middle;font-size:18px;fill:#000000;}#my-svg :root{--mermaid-font-family:"trebuchet ms",verdana,arial,sans-serif;}</style><g><defs><marker orient="auto" markerHeight="240" markerWidth="190" refY="7" refX="18" class="marker aggregation classDiagram" id="my-svg_classDiagram-aggregationStart"><path d="M 18,7 L9,13 L1,7 L9,1 Z"/></marker></defs><defs><marker orient="auto" markerHeight="28" markerWidth="20" refY="7" refX="1" class="marker aggregation classDiagram" id="my-svg_classDiagram-aggregationEnd"><path d="M 18,7 L9,13 L1,7 L9,1 Z"/></marker></defs><defs><marker orient="auto" markerHeight="240" markerWidth="190" refY="7" refX="18" class="marker extension classDiagram" id="my-svg_classDiagram-extensionStart"><path d="M 1,7 L18,13 V 1 Z"/></marker></defs><defs><marker orient="auto" markerHeight="28" markerWidth="20" refY="7" refX="1" class="marker extension classDiagram" id="my-svg_classDiagram-extensionEnd"><path d="M 1,1 V 13 L18,7 Z"/></marker></defs><defs><marker orient="auto" markerHeight="240" markerWidth="190" refY="7" refX="18" class="marker composition classDiagram" id="my-svg_classDiagram-compositionStart"><path d="M 18,7 L9,13 L1,7 L9,1 Z"/></marker></defs><defs><marker orient="auto" markerHeight="28" markerWidth="20" refY="7" refX="1" class="marker composition classDiagram" id="my-svg_classDiagram-compositionEnd"><path d="M 18,7 L9,13 L1,7 L9,1 Z"/></marker></defs><defs><marker orient="auto" markerHeight="240" markerWidth="190" refY="7" refX="6" class="marker dependency classDiagram" id="my-svg_classDiagram-dependencyStart"><path d="M 5,7 L9,13 L1,7 L9,1 Z"/></marker></defs><defs><marker orient="auto" markerHeight="28" markerWidth="20" refY="7" refX="13" class="marker dependency classDiagram" id="my-svg_classDiagram-dependencyEnd"><path d="M 18,7 L9,13 L14,7 L9,1 Z"/></marker></defs><defs><marker orient="auto" markerHeight="240" markerWidth="190" refY="7" refX="13" class="marker lollipop classDiagram" id="my-svg_classDiagram-lollipopStart"><circle r="6" cy="7" cx="7" fill="transparent" stroke="black"/></marker></defs><defs><marker orient="auto" markerHeight="240" markerWidth="190" refY="7" refX="1" class="marker lollipop classDiagram" id="my-svg_classDiagram-lollipopEnd"><circle r="6" cy="7" cx="7" fill="transparent" stroke="black"/></marker></defs><g class="root"><g class="clusters"/><g class="edgePaths"><path marker-end="url(#my-svg_classDiagram-dependencyEnd)" style="fill:none" class="edge-pattern-solid relation" id="id1" d="M374.919921875,63.57799920286967L349.1048177083333,73.35666600239139C323.2897135416667,83.13533280191312,271.6595052083333,102.69266640095655,245.84440104166666,117.17966653381161C220.029296875,131.66666666666666,220.029296875,141.08333333333334,220.029296875,145.79166666666666L220.029296875,150.5"/><path marker-end="url(#my-svg_classDiagram-dependencyEnd)" style="fill:none" class="edge-pattern-solid relation" id="id2" d="M457.169921875,65.2158745540237L479.876953125,74.72156212835309C502.583984375,84.22724970268247,547.998046875,103.23862485134123,570.705078125,126.99431242567061C593.412109375,150.75,593.412109375,179.25,593.412109375,207.75C593.412109375,236.25,593.412109375,264.75,581.8122048111104,286.0632551068674C570.2123002472207,307.3765102137348,547.0124911194415,321.50302042746955,535.4125865555519,328.56627553433697L523.8126819916622,335.6295306412043"/><path marker-start="url(#my-svg_classDiagram-aggregationStart)" style="fill:none" class="edge-pattern-solid relation" id="id3" d="M135.48600144326574,258.48779938883234L125.83208453605478,264.28149949069365C116.17816762884382,270.0751995925549,96.87033381442193,281.66259979627745,87.21641690721096,293.16463323147207C77.5625,304.6666666666667,77.5625,316.0833333333333,77.5625,321.7916666666667L77.5625,327.5"/><path marker-start="url(#my-svg_classDiagram-dependencyStart)" style="fill:none" class="edge-pattern-solid relation" id="id4" d="M213.41514011366644,264.960299621446L212.8700386363887,269.6752496845383C212.32493715911096,274.3901997476307,211.23473420455548,283.8200998738153,226.3006353314444,296.7234184782799C241.36653645833334,309.62673708274446,272.5885416666667,326.00347416548885,288.1995442708333,334.19184270686105L303.810546875,342.38021124823325"/><path marker-end="url(#my-svg_classDiagram-dependencyEnd)" style="fill:none" class="edge-pattern-solid relation" id="id5" d="M289.138671875,249.2252889242285L301.3649088541667,256.56274077019043C313.5911458333333,263.9001926161523,338.0436197916667,278.5750963080762,353.58562701580104,292.59996222070237C369.1276342399354,306.6248281333285,375.75917472987084,319.9996562666569,379.07494497483844,326.6870703333212L382.39071521980617,333.3744843999854"/><path marker-end="url(#my-svg_classDiagram-dependencyEnd)" style="fill:none" class="edge-pattern-solid relation" id="id6" d="M333.1297923900463,463.75L323.06942334587194,471.3333333333333C313.0090543016975,478.9166666666667,292.8883162133488,494.0833333333333,282.82794716917437,508.25C272.767578125,522.4166666666666,272.767578125,535.5833333333334,272.767578125,542.1666666666666L272.767578125,548.75"/><path marker-start="url(#my-svg_classDiagram-aggregationStart)" style="fill:none" class="edge-pattern-solid relation" id="id7" d="M459.5707068972015,479.4792728527483L462.3313833518346,484.44106071062356C465.09205980646766,489.4028485684989,470.61341271573383,499.3264242842494,473.3740891703669,518.5382121421247C476.134765625,537.75,476.134765625,566.25,476.134765625,594.75C476.134765625,623.25,476.134765625,651.75,484.4817708333333,673.68459825959C492.8287760416667,695.61919651918,509.5227864583333,710.98839303836,517.8697916666666,718.67299129795L526.216796875,726.3575895575401"/><path marker-start="url(#my-svg_classDiagram-aggregationStart)" style="fill:none" class="edge-pattern-solid relation" id="id8" d="M77.5625,493L77.5625,495.7083333333333C77.5625,498.4166666666667,77.5625,503.8333333333333,77.5625,512.25C77.5625,520.6666666666666,77.5625,532.0833333333334,77.5625,537.7916666666666L77.5625,543.5"/><path marker-start="url(#my-svg_classDiagram-dependencyStart)" style="fill:none" class="edge-pattern-dashed relation" id="id9" d="M77.5625,652L77.5625,656.7083333333334C77.5625,661.4166666666666,77.5625,670.8333333333334,152.33821614583334,694.7247815195657C227.11393229166666,718.6162297057981,376.6653645833333,756.9824594115962,451.4410807291667,776.1655742644954L526.216796875,795.3486891173944"/><path marker-end="url(#my-svg_classDiagram-extensionEnd)" style="fill:none" class="edge-pattern-solid relation" id="id10" d="M670.845703125,634.75L670.845703125,642.3333333333334C670.845703125,649.9166666666666,670.845703125,665.0833333333334,670.0337145326929,675.4917330173515C669.2217259403857,685.9001327013698,667.5977487557712,691.5502654027396,666.7857601634641,694.3753317534243L665.9737715711569,697.2003981041094"/><path marker-end="url(#my-svg_classDiagram-extensionEnd)" style="fill:none" class="edge-pattern-solid relation" id="id11" d="M898.470703125,623.5L898.470703125,632.9583333333334C898.470703125,642.4166666666666,898.470703125,661.3333333333334,873.7099897614966,683.8701325997519C848.9492763979929,706.4069318661703,799.4278496709858,732.5638637323406,774.6671363074823,745.6423296654258L749.9064229439787,758.720795598511"/><path marker-end="url(#my-svg_classDiagram-dependencyEnd)" style="fill:none" class="edge-pattern-solid relation" id="id12" d="M497.154296875,247.75L497.154296875,255.33333333333334C497.154296875,262.9166666666667,497.154296875,278.0833333333333,492.05963513516707,292.4503888677311C486.9649733953341,306.8174444021288,476.7756499156682,320.3848888042576,471.68098817583524,327.168611005322L466.58632643600237,333.9523332063864"/><path style="fill:none" class="edge-pattern-dotted relation" id="edgeNote13" d="M670.845703125,426L670.845703125,439.875C670.845703125,453.75,670.845703125,481.5,670.845703125,502.9583333333333C670.845703125,524.4166666666666,670.845703125,539.5833333333334,670.845703125,547.1666666666666L670.845703125,554.75"/><path style="fill:none" class="edge-pattern-dotted relation" id="edgeNote14" d="M898.470703125,426L898.470703125,439.875C898.470703125,453.75,898.470703125,481.5,898.470703125,504.8333333333333C898.470703125,528.1666666666666,898.470703125,547.0833333333334,898.470703125,556.5416666666666L898.470703125,566"/></g><g class="edgeLabels"><g transform="translate(220.029296875, 122.25)" class="edgeLabel"><g transform="translate(-20.1328125, -9.25)" class="label"><rect height="19.123748779296875" width="40.25947189331055" ry="0" rx="0"/><text style=""><tspan class="row" x="0" dy="1em" xml:space="preserve">starts</tspan></text></g></g><g transform="translate(353.24116610211246, 55.749742277163534)" class="edgeTerminals"><g transform="translate(-2.88671875, -6.5)" class="inner"><text style=""><tspan class="row" x="0" dy="1em" xml:space="preserve">1</tspan></text></g></g><g transform="translate(230.37688258838804, 134.5468990507906)" class="edgeTerminals"><g transform="translate(-2.88671875, -6.5)" class="inner"/><text style=""><tspan class="row" x="0" dy="1em" xml:space="preserve">1</tspan></text></g><g transform="translate(593.412109375, 207.75)" class="edgeLabel"><g transform="translate(-20.1328125, -9.25)" class="label"><rect height="19.123748779296875" width="40.25947189331055" ry="0" rx="0"/><text style=""><tspan class="row" x="0" dy="1em" xml:space="preserve">starts</tspan></text></g></g><g transform="translate(467.52024337588966, 85.81006658059381)" class="edgeTerminals"><g transform="translate(-2.88671875, -6.5)" class="inner"><text style=""><tspan class="row" x="0" dy="1em" xml:space="preserve">1</tspan></text></g></g><g transform="translate(536.4362195879872, 337.460408821955)" class="edgeTerminals"><g transform="translate(-2.88671875, -6.5)" class="inner"/><text style=""><tspan class="row" x="0" dy="1em" xml:space="preserve">1</tspan></text></g><g transform="translate(77.5625, 293.25)" class="edgeLabel"><g transform="translate(-27.70703125, -9.25)" class="label"><rect height="19.123748779296875" width="55.39910888671875" ry="0" rx="0"/><text style=""><tspan class="row" x="0" dy="1em" xml:space="preserve">collects</tspan></text></g></g><g transform="translate(128.19596113315717, 245.3689097527911)" class="edgeTerminals"><g transform="translate(-2.88671875, -6.5)" class="inner"><text style=""><tspan class="row" x="0" dy="1em" xml:space="preserve">1</tspan></text></g></g><g transform="translate(87.88145521130795, 305.46048462759455)" class="edgeTerminals"><g transform="translate(-8.9453125, -6.5)" class="inner"/><text style=""><tspan class="row" x="0" dy="1em" xml:space="preserve">0..*</tspan></text></g><g transform="translate(210.14453125, 293.25)" class="edgeLabel"><g transform="translate(-84.875, -9.25)" class="label"><rect height="19.123748779296875" width="169.69337463378906" ry="0" rx="0"/><text style=""><tspan class="row" x="0" dy="1em" xml:space="preserve">via direct function calls</tspan></text></g></g><g transform="translate(362.49609375, 293.25)" class="edgeLabel"><g transform="translate(-47.4765625, -9.25)" class="label"><rect height="19.123748779296875" width="94.92151641845703" ry="0" rx="0"/><text style=""><tspan class="row" x="0" dy="1em" xml:space="preserve">via event bus</tspan></text></g></g><g transform="translate(272.767578125, 509.25)" class="edgeLabel"><g transform="translate(-41.60546875, -9.25)" class="label"><rect height="19.123748779296875" width="83.18830108642578" ry="0" rx="0"/><text style=""><tspan class="row" x="0" dy="1em" xml:space="preserve">connects to</tspan></text></g></g><g transform="translate(476.134765625, 594.75)" class="edgeLabel"><g transform="translate(-27.70703125, -9.25)" class="label"><rect height="19.123748779296875" width="55.39910888671875" ry="0" rx="0"/><text style=""><tspan class="row" x="0" dy="1em" xml:space="preserve">collects</tspan></text></g></g><g transform="translate(446.21988112504835, 486.33532490450546)" class="edgeTerminals"><g transform="translate(-2.88671875, -6.5)" class="inner"><text style=""><tspan class="row" x="0" dy="1em" xml:space="preserve">1</tspan></text></g></g><g transform="translate(518.5017982414688, 698.4691911250135)" class="edgeTerminals"><g transform="translate(-8.9453125, -6.5)" class="inner"/><text style=""><tspan class="row" x="0" dy="1em" xml:space="preserve">0..*</tspan></text></g><g transform="translate(77.5625, 509.25)" class="edgeLabel"><g transform="translate(-27.70703125, -9.25)" class="label"><rect height="19.123748779296875" width="55.39910888671875" ry="0" rx="0"/><text style=""><tspan class="row" x="0" dy="1em" xml:space="preserve">collects</tspan></text></g></g><g transform="translate(62.5625, 492.5)" class="edgeTerminals"><g transform="translate(-2.88671875, -6.5)" class="inner"><text style=""><tspan class="row" x="0" dy="1em" xml:space="preserve">1</tspan></text></g></g><g transform="translate(87.5625, 521)" class="edgeTerminals"><g transform="translate(-8.9453125, -6.5)" class="inner"/><text style=""><tspan class="row" x="0" dy="1em" xml:space="preserve">0..*</tspan></text></g><g transform="translate(77.5625, 680.25)" class="edgeLabel"><g transform="translate(-54.1796875, -9.25)" class="label"><rect height="19.123748779296875" width="108.31809997558594" ry="0" rx="0"/><text style=""><tspan class="row" x="0" dy="1em" xml:space="preserve">represented by</tspan></text></g></g><g transform="translate(62.92907169854431, 663.5345547564118)" class="edgeTerminals"><g transform="translate(-2.88671875, -6.5)" class="inner"><text style=""><tspan class="row" x="0" dy="1em" xml:space="preserve">1</tspan></text></g></g><g transform="translate(507.9931455450919, 771.4705274181356)" class="edgeTerminals"><g transform="translate(-2.88671875, -6.5)" class="inner"/><text style=""><tspan class="row" x="0" dy="1em" xml:space="preserve">1</tspan></text></g><g transform="translate(670.845703125, 680.25)" class="edgeLabel"><g transform="translate(-27.1875, -9.25)" class="label"><rect height="19.123748779296875" width="54.36323928833008" ry="0" rx="0"/><text style=""><tspan class="row" x="0" dy="1em" xml:space="preserve">inherits</tspan></text></g></g><g transform="translate(898.470703125, 680.25)" class="edgeLabel"><g transform="translate(-27.1875, -9.25)" class="label"><rect height="19.123748779296875" width="54.36323928833008" ry="0" rx="0"/><text style=""><tspan class="row" x="0" dy="1em" xml:space="preserve">inherits</tspan></text></g></g><g transform="translate(497.154296875, 293.25)" class="edgeLabel"><g transform="translate(-41.60546875, -9.25)" class="label"><rect height="19.123748779296875" width="83.18830108642578" ry="0" rx="0"/><text style=""><tspan class="row" x="0" dy="1em" xml:space="preserve">connects to</tspan></text></g></g><g class="edgeLabel"><g transform="translate(0, 0)" class="label"><rect height="0" width="0" ry="0" rx="0"/><text style=""><tspan class="row" x="0" dy="1em" xml:space="preserve"/></text></g></g><g class="edgeLabel"><g transform="translate(0, 0)" class="label"><rect height="0" width="0" ry="0" rx="0"/><text style=""><tspan class="row" x="0" dy="1em" xml:space="preserve"/></text></g></g></g><g class="nodes"><g transform="translate(416.044921875, 48)" id="classId-Monolith-0" class="node default"><rect height="80" width="82.25" y="-40" x="-41.125" class="outer title-state"/><line y2="13" y1="13" x2="41.125" x1="-41.125" class="divider"/><line y2="29" y1="29" x2="41.125" x1="-41.125" class="divider"/><g class="label"><text transform="translate( -33.625, -32.5)" style=""><tspan class="title-row" x="0" dy="1em" xml:space="preserve">«service»</tspan></text><text transform="translate( -32.3984375, -10)" class="classTitle" style=""><tspan class="title-row" x="0" dy="1em" xml:space="preserve">Monolith</tspan></text></g></g><g transform="translate(220.029296875, 207.75)" id="classId-RoomManager-1" class="node default"><rect height="102.5" width="138.21875" y="-51.25" x="-69.109375" class="outer title-state"/><line y2="-20.75" y1="-20.75" x2="69.109375" x1="-69.109375" class="divider"/><line y2="40.25" y1="40.25" x2="69.109375" x1="-69.109375" class="divider"/><g class="label"><text style=""><tspan class="title-row" x="0" dy="1em" xml:space="preserve"/></text><text transform="translate( -52.0546875, -43.75)" class="classTitle" style=""><tspan class="title-row" x="0" dy="1em" xml:space="preserve">RoomManager</tspan></text><text transform="translate( -61.609375, -9.25)" style=""><tspan class="title-row" x="0" dy="1em" xml:space="preserve">Room[] room</tspan></text><text transform="translate( -61.609375, 13.25)" style=""><tspan class="title-row" x="0" dy="1em" xml:space="preserve">EventEmitter bus</tspan></text></g></g><g transform="translate(416.044921875, 401.25)" id="classId-ClientManager-2" class="node default"><rect height="125" width="224.46875" y="-62.5" x="-112.234375" class="outer title-state"/><line y2="-32" y1="-32" x2="112.234375" x1="-112.234375" class="divider"/><line y2="51.5" y1="51.5" x2="112.234375" x1="-112.234375" class="divider"/><g class="label"><text style=""><tspan class="title-row" x="0" dy="1em" xml:space="preserve"/></text><text transform="translate( -53.37109375, -55)" class="classTitle" style=""><tspan class="title-row" x="0" dy="1em" xml:space="preserve">ClientManager</tspan></text><text transform="translate( -104.734375, -20.5)" style=""><tspan class="title-row" x="0" dy="1em" xml:space="preserve">Client[] connections</tspan></text><text transform="translate( -104.734375, 2)" style=""><tspan class="title-row" x="0" dy="1em" xml:space="preserve">Map roomJoins</tspan></text><text transform="translate( -104.734375, 24.5)" style=""><tspan class="title-row" x="0" dy="1em" xml:space="preserve">Option&lt;WebSocket&gt; balancer</tspan></text></g></g><g transform="translate(272.767578125, 594.75)" id="classId-Redis-3" class="node default"><rect height="80" width="82.25" y="-40" x="-41.125" class="outer title-state"/><line y2="13" y1="13" x2="41.125" x1="-41.125" class="divider"/><line y2="29" y1="29" x2="41.125" x1="-41.125" class="divider"/><g class="label"><text transform="translate( -33.625, -32.5)" style=""><tspan class="title-row" x="0" dy="1em" xml:space="preserve">«service»</tspan></text><text transform="translate( -19.9609375, -10)" class="classTitle" style=""><tspan class="title-row" x="0" dy="1em" xml:space="preserve">Redis</tspan></text></g></g><g transform="translate(77.5625, 401.25)" id="classId-Room-4" class="node default"><rect height="147.5" width="139.125" y="-73.75" x="-69.5625" class="outer title-state"/><line y2="-43.25" y1="-43.25" x2="69.5625" x1="-69.5625" class="divider"/><line y2="62.75" y1="62.75" x2="69.5625" x1="-69.5625" class="divider"/><g class="label"><text style=""><tspan class="title-row" x="0" dy="1em" xml:space="preserve"/></text><text transform="translate( -20.81640625, -66.25)" class="classTitle" style=""><tspan class="title-row" x="0" dy="1em" xml:space="preserve">Room</tspan></text><text transform="translate( -62.0625, -31.75)" style=""><tspan class="title-row" x="0" dy="1em" xml:space="preserve">String name</tspan></text><text transform="translate( -62.0625, -9.25)" style=""><tspan class="title-row" x="0" dy="1em" xml:space="preserve">bool isTemporary</tspan></text><text transform="translate( -62.0625, 13.25)" style=""><tspan class="title-row" x="0" dy="1em" xml:space="preserve">RoomUser[] users</tspan></text><text transform="translate( -62.0625, 35.75)" style=""><tspan class="title-row" x="0" dy="1em" xml:space="preserve">...</tspan></text></g></g><g transform="translate(630.103515625, 822)" id="classId-Client-5" class="node default"><rect height="215" width="207.7734375" y="-107.5" x="-103.88671875" class="outer title-state"/><line y2="-54.5" y1="-54.5" x2="103.88671875" x1="-103.88671875" class="divider"/><line y2="96.5" y1="96.5" x2="103.88671875" x1="-103.88671875" class="divider"/><g class="label"><text transform="translate( -37.90625, -100)" style=""><tspan class="title-row" x="0" dy="1em" xml:space="preserve">«abstract»</tspan></text><text transform="translate( -22.1328125, -77.5)" class="classTitle" style=""><tspan class="title-row" x="0" dy="1em" xml:space="preserve">Client</tspan></text><text transform="translate( -96.38671875, -43)" style=""><tspan class="title-row" x="0" dy="1em" xml:space="preserve">String id</tspan></text><text transform="translate( -96.38671875, -20.5)" style=""><tspan class="title-row" x="0" dy="1em" xml:space="preserve">String room</tspan></text><text transform="translate( -96.38671875, 2)" style=""><tspan class="title-row" x="0" dy="1em" xml:space="preserve">AuthToken token</tspan></text><text transform="translate( -96.38671875, 24.5)" style=""><tspan class="title-row" x="0" dy="1em" xml:space="preserve">SessionInfo session</tspan></text><text transform="translate( -96.38671875, 47)" style=""><tspan class="title-row" x="0" dy="1em" xml:space="preserve">ClientJoinStatus joinStatus</tspan></text><text transform="translate( -96.38671875, 69.5)" style=""><tspan class="title-row" x="0" dy="1em" xml:space="preserve">EventEmitter bus</tspan></text></g></g><g transform="translate(77.5625, 594.75)" id="classId-RoomUser-6" class="node default"><rect height="102.5" width="134.9765625" y="-51.25" x="-67.48828125" class="outer title-state"/><line y2="-20.75" y1="-20.75" x2="67.48828125" x1="-67.48828125" class="divider"/><line y2="40.25" y1="40.25" x2="67.48828125" x1="-67.48828125" class="divider"/><g class="label"><text style=""><tspan class="title-row" x="0" dy="1em" xml:space="preserve"/></text><text transform="translate( -37.69921875, -43.75)" class="classTitle" style=""><tspan class="title-row" x="0" dy="1em" xml:space="preserve">RoomUser</tspan></text><text transform="translate( -59.98828125, -9.25)" style=""><tspan class="title-row" x="0" dy="1em" xml:space="preserve">String id</tspan></text><text transform="translate( -59.98828125, 13.25)" style=""><tspan class="title-row" x="0" dy="1em" xml:space="preserve">AuthToken token</tspan></text></g></g><g transform="translate(670.845703125, 594.75)" id="classId-DirectClient-7" class="node default"><rect height="80" width="143.828125" y="-40" x="-71.9140625" class="outer title-state"/><line y2="-9.5" y1="-9.5" x2="71.9140625" x1="-71.9140625" class="divider"/><line y2="29" y1="29" x2="71.9140625" x1="-71.9140625" class="divider"/><g class="label"><text style=""><tspan class="title-row" x="0" dy="1em" xml:space="preserve"/></text><text transform="translate( -44.94140625, -32.5)" class="classTitle" style=""><tspan class="title-row" x="0" dy="1em" xml:space="preserve">DirectClient</tspan></text><text transform="translate( -64.4140625, 2)" style=""><tspan class="title-row" x="0" dy="1em" xml:space="preserve">WebSocket socket</tspan></text></g></g><g transform="translate(898.470703125, 594.75)" id="classId-BalancerClient-8" class="node default"><rect height="57.5" width="124.21875" y="-28.75" x="-62.109375" class="outer title-state"/><line y2="1.75" y1="1.75" x2="62.109375" x1="-62.109375" class="divider"/><line y2="17.75" y1="17.75" x2="62.109375" x1="-62.109375" class="divider"/><g class="label"><text style=""><tspan class="title-row" x="0" dy="1em" xml:space="preserve"/></text><text transform="translate( -54.609375, -21.25)" class="classTitle" style=""><tspan class="title-row" x="0" dy="1em" xml:space="preserve">BalancerClient</tspan></text></g></g><g transform="translate(497.154296875, 207.75)" id="classId-Balancer-9" class="node default"><rect height="80" width="82.25" y="-40" x="-41.125" class="outer title-state"/><line y2="13" y1="13" x2="41.125" x1="-41.125" class="divider"/><line y2="29" y1="29" x2="41.125" x1="-41.125" class="divider"/><g class="label"><text transform="translate( -33.625, -32.5)" style=""><tspan class="title-row" x="0" dy="1em" xml:space="preserve">«service»</tspan></text><text transform="translate( -32.4765625, -10)" class="classTitle" style=""><tspan class="title-row" x="0" dy="1em" xml:space="preserve">Balancer</tspan></text></g></g><g transform="translate(670.845703125, 401.25)" id="note0" class="node undefined"><rect height="49.5" width="185.1328125" y="-24.75" x="-92.56640625" ry="0" rx="0"/><g transform="translate(-85.06640625, -17.25)" style="" class="label"><rect/><text style=""><tspan class="row" x="0" dy="1em" xml:space="preserve">client that connected</tspan><tspan class="row" x="0" dy="1em" xml:space="preserve">directly to the Monolith</tspan></text></g></g><g transform="translate(898.470703125, 401.25)" id="note1" class="node undefined"><rect height="49.5" width="170.1171875" y="-24.75" x="-85.05859375" ry="0" rx="0"/><g transform="translate(-77.55859375, -17.25)" style="" class="label"><rect/><text style=""><tspan class="row" x="0" dy="1em" xml:space="preserve">client that connected</tspan><tspan class="row" x="0" dy="1em" xml:space="preserve">via a Balancer</tspan></text></g></g></g></g></g></svg>