<svg aria-roledescription="classDiagram" role="graphics-document document" viewBox="-8 -8 1004.55078125 924" style="max-width: 1004.55px; background-color: white;" xmlns:xlink="http://www.w3.org/1999/xlink" xmlns="http://www.w3.org/2000/svg" width="100%" id="my-svg"><style>#my-svg{font-family:"trebuchet ms",verdana,arial,sans-serif;font-size:16px;fill:#000000;}#my-svg .error-icon{fill:#552222;}#my-svg .error-text{fill:#552222;stroke:#552222;}#my-svg .edge-thickness-normal{stroke-width:2px;}#my-svg .edge-thickness-thick{stroke-width:3.5px;}#my-svg .edge-pattern-solid{stroke-dasharray:0;}#my-svg .edge-pattern-dashed{stroke-dasharray:3;}#my-svg .edge-pattern-dotted{stroke-dasharray:2;}#my-svg .marker{fill:#666;stroke:#666;}#my-svg .marker.cross{stroke:#666;}#my-svg svg{font-family:"trebuchet ms",verdana,arial,sans-serif;font-size:16px;}#my-svg g.classGroup text{fill:#999;stroke:none;font-family:"trebuchet ms",verdana,arial,sans-serif;font-size:10px;}#my-svg g.classGroup text .title{font-weight:bolder;}#my-svg .nodeLabel,#my-svg .edgeLabel{color:#111111;}#my-svg .edgeLabel .label rect{fill:#eee;}#my-svg .label text{fill:#111111;}#my-svg .edgeLabel .label span{background:#eee;}#my-svg .classTitle{font-weight:bolder;}#my-svg .node rect,#my-svg .node circle,#my-svg .node ellipse,#my-svg .node polygon,#my-svg .node path{fill:#eee;stroke:#999;stroke-width:1px;}#my-svg .divider{stroke:#999;stroke-width:1;}#my-svg g.clickable{cursor:pointer;}#my-svg g.classGroup rect{fill:#eee;stroke:#999;}#my-svg g.classGroup line{stroke:#999;stroke-width:1;}#my-svg .classLabel .box{stroke:none;stroke-width:0;fill:#eee;opacity:0.5;}#my-svg .classLabel .label{fill:#999;font-size:10px;}#my-svg .relation{stroke:#666;stroke-width:1;fill:none;}#my-svg .dashed-line{stroke-dasharray:3;}#my-svg .dotted-line{stroke-dasharray:1 2;}#my-svg #compositionStart,#my-svg .composition{fill:#666!important;stroke:#666!important;stroke-width:1;}#my-svg #compositionEnd,#my-svg .composition{fill:#666!important;stroke:#666!important;stroke-width:1;}#my-svg #dependencyStart,#my-svg .dependency{fill:#666!important;stroke:#666!important;stroke-width:1;}#my-svg #dependencyStart,#my-svg .dependency{fill:#666!important;stroke:#666!important;stroke-width:1;}#my-svg #extensionStart,#my-svg .extension{fill:transparent!important;stroke:#666!important;stroke-width:1;}#my-svg #extensionEnd,#my-svg .extension{fill:transparent!important;stroke:#666!important;stroke-width:1;}#my-svg #aggregationStart,#my-svg .aggregation{fill:transparent!important;stroke:#666!important;stroke-width:1;}#my-svg #aggregationEnd,#my-svg .aggregation{fill:transparent!important;stroke:#666!important;stroke-width:1;}#my-svg #lollipopStart,#my-svg .lollipop{fill:#eee!important;stroke:#666!important;stroke-width:1;}#my-svg #lollipopEnd,#my-svg .lollipop{fill:#eee!important;stroke:#666!important;stroke-width:1;}#my-svg .edgeTerminals{font-size:11px;}#my-svg .classTitleText{text-anchor:middle;font-size:18px;fill:#000000;}#my-svg :root{--mermaid-font-family:"trebuchet ms",verdana,arial,sans-serif;}</style><g><defs><marker orient="auto" markerHeight="240" markerWidth="190" refY="7" refX="18" class="marker aggregation classDiagram" id="my-svg_classDiagram-aggregationStart"><path d="M 18,7 L9,13 L1,7 L9,1 Z"/></marker></defs><defs><marker orient="auto" markerHeight="28" markerWidth="20" refY="7" refX="1" class="marker aggregation classDiagram" id="my-svg_classDiagram-aggregationEnd"><path d="M 18,7 L9,13 L1,7 L9,1 Z"/></marker></defs><defs><marker orient="auto" markerHeight="240" markerWidth="190" refY="7" refX="18" class="marker extension classDiagram" id="my-svg_classDiagram-extensionStart"><path d="M 1,7 L18,13 V 1 Z"/></marker></defs><defs><marker orient="auto" markerHeight="28" markerWidth="20" refY="7" refX="1" class="marker extension classDiagram" id="my-svg_classDiagram-extensionEnd"><path d="M 1,1 V 13 L18,7 Z"/></marker></defs><defs><marker orient="auto" markerHeight="240" markerWidth="190" refY="7" refX="18" class="marker composition classDiagram" id="my-svg_classDiagram-compositionStart"><path d="M 18,7 L9,13 L1,7 L9,1 Z"/></marker></defs><defs><marker orient="auto" markerHeight="28" markerWidth="20" refY="7" refX="1" class="marker composition classDiagram" id="my-svg_classDiagram-compositionEnd"><path d="M 18,7 L9,13 L1,7 L9,1 Z"/></marker></defs><defs><marker orient="auto" markerHeight="240" markerWidth="190" refY="7" refX="6" class="marker dependency classDiagram" id="my-svg_classDiagram-dependencyStart"><path d="M 5,7 L9,13 L1,7 L9,1 Z"/></marker></defs><defs><marker orient="auto" markerHeight="28" markerWidth="20" refY="7" refX="13" class="marker dependency classDiagram" id="my-svg_classDiagram-dependencyEnd"><path d="M 18,7 L9,13 L14,7 L9,1 Z"/></marker></defs><defs><marker orient="auto" markerHeight="240" markerWidth="190" refY="7" refX="13" class="marker lollipop classDiagram" id="my-svg_classDiagram-lollipopStart"><circle r="6" cy="7" cx="7" fill="transparent" stroke="black"/></marker></defs><defs><marker orient="auto" markerHeight="240" markerWidth="190" refY="7" refX="1" class="marker lollipop classDiagram" id="my-svg_classDiagram-lollipopEnd"><circle r="6" cy="7" cx="7" fill="transparent" stroke="black"/></marker></defs><g class="root"><g class="clusters"/><g class="edgePaths"><path marker-end="url(#my-svg_classDiagram-dependencyEnd)" style="fill:none" class="edge-pattern-solid relation" id="id1" d="M298.98046875,70.87981895296575L285.3763020833333,78.81651579413813C271.7721354166667,86.7532126353105,244.56380208333334,102.62660631765526,230.95963541666666,115.14663649216095C217.35546875,127.66666666666667,217.35546875,136.83333333333334,217.35546875,141.41666666666666L217.35546875,146"/><path marker-end="url(#my-svg_classDiagram-dependencyEnd)" style="fill:none" class="edge-pattern-solid relation" id="id2" d="M382.55859375,74.09389553629003L393.7669270833333,81.49491294690836C404.9752604166667,88.8959303575267,427.3919270833333,103.69796517876334,438.6002604166667,124.84898258938166C449.80859375,146,449.80859375,173.5,449.80859375,202.33333333333334C449.80859375,231.16666666666666,449.80859375,261.3333333333333,447.4875377603027,284.12579189006897C445.16648177060546,306.9182504468046,440.52436979121086,322.3365008936092,438.20331380151356,330.04562611701147L435.8822578118163,337.75475134041375"/><path marker-start="url(#my-svg_classDiagram-aggregationStart)" style="fill:none" class="edge-pattern-solid relation" id="id3" d="M133.909369764401,255.96486570091713L124.91796438700082,261.8873880840976C115.92655900960067,267.8099104672781,97.94374825480033,279.65495523363904,88.95234287740016,292.49414428348615C79.9609375,305.3333333333333,79.9609375,319.1666666666667,79.9609375,326.0833333333333L79.9609375,333"/><path marker-start="url(#my-svg_classDiagram-dependencyStart)" style="fill:none" class="edge-pattern-solid relation" id="id4" d="M211.14234943727067,255.96202681837084L210.47279119772554,261.8850223486424C209.80323295818047,267.8080178789139,208.46411647909022,279.65400893945696,224.04850536211612,294.2436711363951C239.632894245142,308.8333333333333,272.140788490284,326.1666666666667,288.394735612855,334.8333333333333L304.648682735426,343.5"/><path marker-end="url(#my-svg_classDiagram-dependencyEnd)" style="fill:none" class="edge-pattern-solid relation" id="id5" d="M285.76953125,246.06345776589998L297.2662760416667,253.63621480491665C308.7630208333333,261.20897184393334,331.7565104166667,276.35448592196667,347.5497104230836,291.7182357600324C363.34291042950053,307.08198559809813,371.935820859001,322.66397119619626,376.2322760737513,330.45496399524535L380.5287312885015,338.2459567942944"/><path marker-end="url(#my-svg_classDiagram-dependencyEnd)" style="fill:none" class="edge-pattern-solid relation" id="id6" d="M342.58637152777777,462.5L333.50882523148147,469.8333333333333C324.43127893518516,477.1666666666667,306.2761863425926,491.8333333333333,297.1986400462963,505.5C288.12109375,519.1666666666666,288.12109375,531.8333333333334,288.12109375,538.1666666666666L288.12109375,544.5"/><path marker-start="url(#my-svg_classDiagram-aggregationStart)" style="fill:none" class="edge-pattern-solid relation" id="id7" d="M459.788122120069,478.0697146375218L462.53697676672414,482.8080955312682C465.2858314133793,487.5464764250146,470.7835407066896,497.0232382125073,473.53239535334484,515.5116191062536C476.28125,534,476.28125,561.5,476.28125,589C476.28125,616.5,476.28125,644,483.3678385416667,664.3395148922431C490.4544270833333,684.6790297844863,504.6276041666667,697.8580595689724,511.7141927083333,704.4475744612155L518.80078125,711.0370893534587"/><path marker-start="url(#my-svg_classDiagram-aggregationStart)" style="fill:none" class="edge-pattern-solid relation" id="id8" d="M79.9609375,491L79.9609375,493.5833333333333C79.9609375,496.1666666666667,79.9609375,501.3333333333333,79.9609375,509.5C79.9609375,517.6666666666666,79.9609375,528.8333333333334,79.9609375,534.4166666666666L79.9609375,540"/><path marker-start="url(#my-svg_classDiagram-dependencyStart)" style="fill:none" class="edge-pattern-dashed relation" id="id9" d="M79.9609375,644L79.9609375,648.5833333333334C79.9609375,653.1666666666666,79.9609375,662.3333333333334,153.10091145833334,685.1508776675684C226.24088541666666,707.9684220018034,372.5208333333333,744.4368440036069,445.6608072916667,762.6710550045085L518.80078125,780.9052660054102"/><path marker-end="url(#my-svg_classDiagram-extensionEnd)" style="fill:none" class="edge-pattern-solid relation" id="id10" d="M689.24609375,627.5L689.24609375,634.8333333333334C689.24609375,642.1666666666666,689.24609375,656.8333333333334,687.7889024711867,667.0689563506102C686.3317111923734,677.3045793678868,683.4173286347469,683.1091587357737,681.9601373559336,686.0114484197171L680.5029460771204,688.9137381036605"/><path marker-end="url(#my-svg_classDiagram-extensionEnd)" style="fill:none" class="edge-pattern-solid relation" id="id11" d="M907.66796875,617L907.66796875,626.0833333333334C907.66796875,635.1666666666666,907.66796875,653.3333333333334,879.7914251695519,675.5658361013487C851.9148815891036,697.7983388693642,796.1617944282074,724.0966777387284,768.2852508477594,737.2458471734104L740.4087072673111,750.3950166080925"/><path marker-end="url(#my-svg_classDiagram-dependencyEnd)" style="fill:none" class="edge-pattern-solid relation" id="id12" d="M580.9765625,85L580.9765625,90.58333333333333C580.9765625,96.16666666666667,580.9765625,107.33333333333333,580.9765625,121C580.9765625,134.66666666666666,580.9765625,150.83333333333334,580.9765625,158.91666666666666L580.9765625,167"/><path marker-end="url(#my-svg_classDiagram-dependencyEnd)" style="fill:none" class="edge-pattern-solid relation" id="id13" d="M580.9765625,229L580.9765625,239.41666666666666C580.9765625,249.83333333333334,580.9765625,270.6666666666667,568.9999380659384,289.18948579689663C557.0233136318767,307.7123049271266,533.0700647637535,323.92460985425316,521.0934403296919,332.0307623178165L509.11681589563034,340.13691478137974"/><path style="fill:none" class="edge-pattern-dotted relation" id="edgeNote14" d="M689.24609375,427L689.24609375,440.25C689.24609375,453.5,689.24609375,480,689.24609375,500.5833333333333C689.24609375,521.1666666666666,689.24609375,535.8333333333334,689.24609375,543.1666666666666L689.24609375,550.5"/><path style="fill:none" class="edge-pattern-dotted relation" id="edgeNote15" d="M907.66796875,427L907.66796875,440.25C907.66796875,453.5,907.66796875,480,907.66796875,502.3333333333333C907.66796875,524.6666666666666,907.66796875,542.8333333333334,907.66796875,551.9166666666666L907.66796875,561"/></g><g class="edgeLabels"><g transform="translate(217.35546875, 118.5)" class="edgeLabel"><g transform="translate(-19.5625, -8.5)" class="label"><rect height="17.93863868713379" width="39.060585021972656" ry="0" rx="0"/><text style=""><tspan class="row" x="0" dy="1em" xml:space="preserve">starts</tspan></text></g></g><g transform="translate(276.3060615243354, 66.74203742525765)" class="edgeTerminals"><g transform="translate(-3.0625, -6)" class="inner"><text style=""><tspan class="row" x="0" dy="1em" xml:space="preserve">1</tspan></text></g></g><g transform="translate(227.9925669995575, 130.43899215681893)" class="edgeTerminals"><g transform="translate(-3.0625, -6)" class="inner"/><text style=""><tspan class="row" x="0" dy="1em" xml:space="preserve">1</tspan></text></g><g transform="translate(449.80859375, 201)" class="edgeLabel"><g transform="translate(-19.5625, -8.5)" class="label"><rect height="17.93863868713379" width="39.060585021972656" ry="0" rx="0"/><text style=""><tspan class="row" x="0" dy="1em" xml:space="preserve">starts</tspan></text></g></g><g transform="translate(388.8967820914346, 96.25416224242205)" class="edgeTerminals"><g transform="translate(-3.0625, -6)" class="inner"><text style=""><tspan class="row" x="0" dy="1em" xml:space="preserve">1</tspan></text></g></g><g transform="translate(448.56077878512417, 326.06745917422097)" class="edgeTerminals"><g transform="translate(-3.0625, -6)" class="inner"/><text style=""><tspan class="row" x="0" dy="1em" xml:space="preserve">1</tspan></text></g><g transform="translate(79.9609375, 291.5)" class="edgeLabel"><g transform="translate(-26.6796875, -8.5)" class="label"><rect height="17.93863868713379" width="53.275352478027344" ry="0" rx="0"/><text style=""><tspan class="row" x="0" dy="1em" xml:space="preserve">collects</tspan></text></g></g><g transform="translate(126.07575277066627, 243.16313317849404)" class="edgeTerminals"><g transform="translate(-3.0625, -6)" class="inner"><text style=""><tspan class="row" x="0" dy="1em" xml:space="preserve">1</tspan></text></g></g><g transform="translate(89.96093874999995, 310.5000010714286)" class="edgeTerminals"><g transform="translate(-8.614990234375, -6)" class="inner"/><text style=""><tspan class="row" x="0" dy="1em" xml:space="preserve">0..*</tspan></text></g><g transform="translate(207.125, 291.5)" class="edgeLabel"><g transform="translate(-80.484375, -8.5)" class="label"><rect height="17.93863868713379" width="160.72698974609375" ry="0" rx="0"/><text style=""><tspan class="row" x="0" dy="1em" xml:space="preserve">via direct function calls</tspan></text></g></g><g transform="translate(354.75, 291.5)" class="edgeLabel"><g transform="translate(-47.140625, -8.5)" class="label"><rect height="17.93863868713379" width="94.15782928466797" ry="0" rx="0"/><text style=""><tspan class="row" x="0" dy="1em" xml:space="preserve">via event bus</tspan></text></g></g><g transform="translate(288.12109375, 506.5)" class="edgeLabel"><g transform="translate(-40.96484375, -8.5)" class="label"><rect height="17.93863868713379" width="81.79234313964844" ry="0" rx="0"/><text style=""><tspan class="row" x="0" dy="1em" xml:space="preserve">connects to</tspan></text></g></g><g transform="translate(476.28125, 589)" class="edgeLabel"><g transform="translate(-26.6796875, -8.5)" class="label"><rect height="17.93863868713379" width="53.275352478027344" ry="0" rx="0"/><text style=""><tspan class="row" x="0" dy="1em" xml:space="preserve">collects</tspan></text></g></g><g transform="translate(446.56246094338553, 485.1642124649553)" class="edgeTerminals"><g transform="translate(-3.0625, -6)" class="inner"><text style=""><tspan class="row" x="0" dy="1em" xml:space="preserve">1</tspan></text></g></g><g transform="translate(511.1994644207223, 683.1354928875252)" class="edgeTerminals"><g transform="translate(-8.614990234375, -6)" class="inner"/><text style=""><tspan class="row" x="0" dy="1em" xml:space="preserve">0..*</tspan></text></g><g transform="translate(79.9609375, 506.5)" class="edgeLabel"><g transform="translate(-26.6796875, -8.5)" class="label"><rect height="17.93863868713379" width="53.275352478027344" ry="0" rx="0"/><text style=""><tspan class="row" x="0" dy="1em" xml:space="preserve">collects</tspan></text></g></g><g transform="translate(64.96093875000004, 490.5000010714286)" class="edgeTerminals"><g transform="translate(-3.0625, -6)" class="inner"><text style=""><tspan class="row" x="0" dy="1em" xml:space="preserve">1</tspan></text></g></g><g transform="translate(89.96093874999995, 517.5000010714285)" class="edgeTerminals"><g transform="translate(-8.614990234375, -6)" class="inner"/><text style=""><tspan class="row" x="0" dy="1em" xml:space="preserve">0..*</tspan></text></g><g transform="translate(79.9609375, 671.5)" class="edgeLabel"><g transform="translate(-53.3671875, -8.5)" class="label"><rect height="17.93863868713379" width="107.55929565429688" ry="0" rx="0"/><text style=""><tspan class="row" x="0" dy="1em" xml:space="preserve">represented by</tspan></text></g></g><g transform="translate(65.7024997040537, 655.575542371281)" class="edgeTerminals"><g transform="translate(-3.0625, -6)" class="inner"><text style=""><tspan class="row" x="0" dy="1em" xml:space="preserve">1</tspan></text></g></g><g transform="translate(500.44903925206273, 757.1174761150517)" class="edgeTerminals"><g transform="translate(-3.0625, -6)" class="inner"/><text style=""><tspan class="row" x="0" dy="1em" xml:space="preserve">1</tspan></text></g><g transform="translate(689.24609375, 671.5)" class="edgeLabel"><g transform="translate(-25.7890625, -8.5)" class="label"><rect height="17.93863868713379" width="51.51352310180664" ry="0" rx="0"/><text style=""><tspan class="row" x="0" dy="1em" xml:space="preserve">inherits</tspan></text></g></g><g transform="translate(907.66796875, 671.5)" class="edgeLabel"><g transform="translate(-25.7890625, -8.5)" class="label"><rect height="17.93863868713379" width="51.51352310180664" ry="0" rx="0"/><text style=""><tspan class="row" x="0" dy="1em" xml:space="preserve">inherits</tspan></text></g></g><g transform="translate(580.9765625, 118.5)" class="edgeLabel"><g transform="translate(-40.96484375, -8.5)" class="label"><rect height="17.93863868713379" width="81.79234313964844" ry="0" rx="0"/><text style=""><tspan class="row" x="0" dy="1em" xml:space="preserve">connects to</tspan></text></g></g><g transform="translate(565.97656125, 102.4999989285714)" class="edgeTerminals"><g transform="translate(-8.614990234375, -6)" class="inner"><text style=""><tspan class="row" x="0" dy="1em" xml:space="preserve">0..*</tspan></text></g></g><g transform="translate(590.97656125, 150.49999892857142)" class="edgeTerminals"><g transform="translate(-3.0625, -6)" class="inner"/><text style=""><tspan class="row" x="0" dy="1em" xml:space="preserve">1</tspan></text></g><g transform="translate(580.9765625, 291.5)" class="edgeLabel"><g transform="translate(-56.03125, -16.5)" class="label"><rect height="33.938636779785156" width="111.8962631225586" ry="0" rx="0"/><text style=""><tspan class="row" x="0" dy="1em" xml:space="preserve">informs of new</tspan><tspan class="row" x="0" dy="1em" xml:space="preserve">BalancerClients</tspan></text></g></g><g transform="translate(565.97656125, 246.49999892857142)" class="edgeTerminals"><g transform="translate(-3.0625, -6)" class="inner"><text style=""><tspan class="row" x="0" dy="1em" xml:space="preserve">1</tspan></text></g></g><g transform="translate(522.0481964992356, 341.11317220809445)" class="edgeTerminals"><g transform="translate(-3.0625, -6)" class="inner"/><text style=""><tspan class="row" x="0" dy="1em" xml:space="preserve">1</tspan></text></g><g class="edgeLabel"><g transform="translate(0, 0)" class="label"><rect height="0" width="0" ry="0" rx="0"/><text style=""><tspan class="row" x="0" dy="1em" xml:space="preserve"/></text></g></g><g class="edgeLabel"><g transform="translate(0, 0)" class="label"><rect height="0" width="0" ry="0" rx="0"/><text style=""><tspan class="row" x="0" dy="1em" xml:space="preserve"/></text></g></g></g><g class="nodes"><g transform="translate(340.76953125, 46.5)" id="classId-Monolith-0" class="node default"><rect height="77" width="83.578125" y="-38.5" x="-41.7890625" class="outer title-state"/><line y2="11.5" y1="11.5" x2="41.7890625" x1="-41.7890625" class="divider"/><line y2="27.5" y1="27.5" x2="41.7890625" x1="-41.7890625" class="divider"/><g class="label"><text transform="translate( -34.2890625, -31)" style=""><tspan class="title-row" x="0" dy="1em" xml:space="preserve">«service»</tspan></text><text transform="translate( -33.3203125, -10)" class="classTitle" style=""><tspan class="title-row" x="0" dy="1em" xml:space="preserve">Monolith</tspan></text></g></g><g transform="translate(217.35546875, 201)" id="classId-RoomManager-1" class="node default"><rect height="98" width="136.828125" y="-49" x="-68.4140625" class="outer title-state"/><line y2="-20" y1="-20" x2="68.4140625" x1="-68.4140625" class="divider"/><line y2="38" y1="38" x2="68.4140625" x1="-68.4140625" class="divider"/><g class="label"><text style=""><tspan class="title-row" x="0" dy="1em" xml:space="preserve"/></text><text transform="translate( -55.5625, -41.5)" class="classTitle" style=""><tspan class="title-row" x="0" dy="1em" xml:space="preserve">RoomManager</tspan></text><text transform="translate( -60.9140625, -8.5)" style=""><tspan class="title-row" x="0" dy="1em" xml:space="preserve">Room[] room</tspan></text><text transform="translate( -60.9140625, 12.5)" style=""><tspan class="title-row" x="0" dy="1em" xml:space="preserve">EventEmitter bus</tspan></text></g></g><g transform="translate(416.23828125, 403)" id="classId-ClientManager-2" class="node default"><rect height="119" width="270.9375" y="-59.5" x="-135.46875" class="outer title-state"/><line y2="-30.5" y1="-30.5" x2="135.46875" x1="-135.46875" class="divider"/><line y2="48.5" y1="48.5" x2="135.46875" x1="-135.46875" class="divider"/><g class="label"><text style=""><tspan class="title-row" x="0" dy="1em" xml:space="preserve"/></text><text transform="translate( -55.125, -52)" class="classTitle" style=""><tspan class="title-row" x="0" dy="1em" xml:space="preserve">ClientManager</tspan></text><text transform="translate( -127.96875, -19)" style=""><tspan class="title-row" x="0" dy="1em" xml:space="preserve">Client[] connections</tspan></text><text transform="translate( -127.96875, 2)" style=""><tspan class="title-row" x="0" dy="1em" xml:space="preserve">Map roomJoins</tspan></text><text transform="translate( -127.96875, 23)" style=""><tspan class="title-row" x="0" dy="1em" xml:space="preserve">BalancerManager balancerManager</tspan></text></g></g><g transform="translate(288.12109375, 589)" id="classId-Redis-3" class="node default"><rect height="77" width="83.578125" y="-38.5" x="-41.7890625" class="outer title-state"/><line y2="11.5" y1="11.5" x2="41.7890625" x1="-41.7890625" class="divider"/><line y2="27.5" y1="27.5" x2="41.7890625" x1="-41.7890625" class="divider"/><g class="label"><text transform="translate( -34.2890625, -31)" style=""><tspan class="title-row" x="0" dy="1em" xml:space="preserve">«service»</tspan></text><text transform="translate( -21.8359375, -10)" class="classTitle" style=""><tspan class="title-row" x="0" dy="1em" xml:space="preserve">Redis</tspan></text></g></g><g transform="translate(79.9609375, 403)" id="classId-Room-4" class="node default"><rect height="140" width="143.921875" y="-70" x="-71.9609375" class="outer title-state"/><line y2="-41" y1="-41" x2="71.9609375" x1="-71.9609375" class="divider"/><line y2="59" y1="59" x2="71.9609375" x1="-71.9609375" class="divider"/><g class="label"><text style=""><tspan class="title-row" x="0" dy="1em" xml:space="preserve"/></text><text transform="translate( -22.6640625, -62.5)" class="classTitle" style=""><tspan class="title-row" x="0" dy="1em" xml:space="preserve">Room</tspan></text><text transform="translate( -64.4609375, -29.5)" style=""><tspan class="title-row" x="0" dy="1em" xml:space="preserve">String name</tspan></text><text transform="translate( -64.4609375, -8.5)" style=""><tspan class="title-row" x="0" dy="1em" xml:space="preserve">bool isTemporary</tspan></text><text transform="translate( -64.4609375, 12.5)" style=""><tspan class="title-row" x="0" dy="1em" xml:space="preserve">RoomUser[] users</tspan></text><text transform="translate( -64.4609375, 33.5)" style=""><tspan class="title-row" x="0" dy="1em" xml:space="preserve">...</tspan></text></g></g><g transform="translate(621.46484375, 806.5)" id="classId-Client-5" class="node default"><rect height="203" width="205.328125" y="-101.5" x="-102.6640625" class="outer title-state"/><line y2="-51.5" y1="-51.5" x2="102.6640625" x1="-102.6640625" class="divider"/><line y2="90.5" y1="90.5" x2="102.6640625" x1="-102.6640625" class="divider"/><g class="label"><text transform="translate( -37.40625, -94)" style=""><tspan class="title-row" x="0" dy="1em" xml:space="preserve">«abstract»</tspan></text><text transform="translate( -22.55859375, -73)" class="classTitle" style=""><tspan class="title-row" x="0" dy="1em" xml:space="preserve">Client</tspan></text><text transform="translate( -95.1640625, -40)" style=""><tspan class="title-row" x="0" dy="1em" xml:space="preserve">String id</tspan></text><text transform="translate( -95.1640625, -19)" style=""><tspan class="title-row" x="0" dy="1em" xml:space="preserve">String room</tspan></text><text transform="translate( -95.1640625, 2)" style=""><tspan class="title-row" x="0" dy="1em" xml:space="preserve">AuthToken token</tspan></text><text transform="translate( -95.1640625, 23)" style=""><tspan class="title-row" x="0" dy="1em" xml:space="preserve">SessionInfo session</tspan></text><text transform="translate( -95.1640625, 44)" style=""><tspan class="title-row" x="0" dy="1em" xml:space="preserve">ClientJoinStatus joinStatus</tspan></text><text transform="translate( -95.1640625, 65)" style=""><tspan class="title-row" x="0" dy="1em" xml:space="preserve">EventEmitter bus</tspan></text></g></g><g transform="translate(79.9609375, 589)" id="classId-RoomUser-6" class="node default"><rect height="98" width="134.203125" y="-49" x="-67.1015625" class="outer title-state"/><line y2="-20" y1="-20" x2="67.1015625" x1="-67.1015625" class="divider"/><line y2="38" y1="38" x2="67.1015625" x1="-67.1015625" class="divider"/><g class="label"><text style=""><tspan class="title-row" x="0" dy="1em" xml:space="preserve"/></text><text transform="translate( -40.453125, -41.5)" class="classTitle" style=""><tspan class="title-row" x="0" dy="1em" xml:space="preserve">RoomUser</tspan></text><text transform="translate( -59.6015625, -8.5)" style=""><tspan class="title-row" x="0" dy="1em" xml:space="preserve">String id</tspan></text><text transform="translate( -59.6015625, 12.5)" style=""><tspan class="title-row" x="0" dy="1em" xml:space="preserve">AuthToken token</tspan></text></g></g><g transform="translate(689.24609375, 589)" id="classId-DirectClient-7" class="node default"><rect height="77" width="147.765625" y="-38.5" x="-73.8828125" class="outer title-state"/><line y2="-9.5" y1="-9.5" x2="73.8828125" x1="-73.8828125" class="divider"/><line y2="27.5" y1="27.5" x2="73.8828125" x1="-73.8828125" class="divider"/><g class="label"><text style=""><tspan class="title-row" x="0" dy="1em" xml:space="preserve"/></text><text transform="translate( -45.234375, -31)" class="classTitle" style=""><tspan class="title-row" x="0" dy="1em" xml:space="preserve">DirectClient</tspan></text><text transform="translate( -66.3828125, 2)" style=""><tspan class="title-row" x="0" dy="1em" xml:space="preserve">WebSocket socket</tspan></text></g></g><g transform="translate(907.66796875, 589)" id="classId-BalancerClient-8" class="node default"><rect height="56" width="127.7109375" y="-28" x="-63.85546875" class="outer title-state"/><line y2="1" y1="1" x2="63.85546875" x1="-63.85546875" class="divider"/><line y2="17" y1="17" x2="63.85546875" x1="-63.85546875" class="divider"/><g class="label"><text style=""><tspan class="title-row" x="0" dy="1em" xml:space="preserve"/></text><text transform="translate( -56.35546875, -20.5)" class="classTitle" style=""><tspan class="title-row" x="0" dy="1em" xml:space="preserve">BalancerClient</tspan></text></g></g><g transform="translate(580.9765625, 46.5)" id="classId-Balancer-9" class="node default"><rect height="77" width="83.578125" y="-38.5" x="-41.7890625" class="outer title-state"/><line y2="11.5" y1="11.5" x2="41.7890625" x1="-41.7890625" class="divider"/><line y2="27.5" y1="27.5" x2="41.7890625" x1="-41.7890625" class="divider"/><g class="label"><text transform="translate( -34.2890625, -31)" style=""><tspan class="title-row" x="0" dy="1em" xml:space="preserve">«service»</tspan></text><text transform="translate( -33.796875, -10)" class="classTitle" style=""><tspan class="title-row" x="0" dy="1em" xml:space="preserve">Balancer</tspan></text></g></g><g transform="translate(580.9765625, 201)" id="classId-BalancerManager-10" class="node default"><rect height="56" width="148.390625" y="-28" x="-74.1953125" class="outer title-state"/><line y2="1" y1="1" x2="74.1953125" x1="-74.1953125" class="divider"/><line y2="17" y1="17" x2="74.1953125" x1="-74.1953125" class="divider"/><g class="label"><text style=""><tspan class="title-row" x="0" dy="1em" xml:space="preserve"/></text><text transform="translate( -66.6953125, -20.5)" class="classTitle" style=""><tspan class="title-row" x="0" dy="1em" xml:space="preserve">BalancerManager</tspan></text></g></g><g transform="translate(689.24609375, 403)" id="note0" class="node undefined"><rect height="48" width="175.078125" y="-24" x="-87.5390625" ry="0" rx="0"/><g transform="translate(-80.0390625, -16.5)" style="" class="label"><rect/><text style=""><tspan class="row" x="0" dy="1em" xml:space="preserve">client that connected</tspan><tspan class="row" x="0" dy="1em" xml:space="preserve">directly to the Monolith</tspan></text></g></g><g transform="translate(907.66796875, 403)" id="note1" class="node undefined"><rect height="48" width="161.765625" y="-24" x="-80.8828125" ry="0" rx="0"/><g transform="translate(-73.3828125, -16.5)" style="" class="label"><rect/><text style=""><tspan class="row" x="0" dy="1em" xml:space="preserve">client that connected</tspan><tspan class="row" x="0" dy="1em" xml:space="preserve">via a Balancer</tspan></text></g></g></g></g></g></svg>