<svg aria-roledescription="classDiagram" role="graphics-document document" viewBox="0 0 500.732421875 837" style="max-width: 500.732px; background-color: white;" xmlns:xlink="http://www.w3.org/1999/xlink" xmlns="http://www.w3.org/2000/svg" width="100%" id="my-svg"><style>#my-svg{font-family:"trebuchet ms",verdana,arial,sans-serif;font-size:16px;fill:#000000;}#my-svg .error-icon{fill:#552222;}#my-svg .error-text{fill:#552222;stroke:#552222;}#my-svg .edge-thickness-normal{stroke-width:2px;}#my-svg .edge-thickness-thick{stroke-width:3.5px;}#my-svg .edge-pattern-solid{stroke-dasharray:0;}#my-svg .edge-pattern-dashed{stroke-dasharray:3;}#my-svg .edge-pattern-dotted{stroke-dasharray:2;}#my-svg .marker{fill:#666;stroke:#666;}#my-svg .marker.cross{stroke:#666;}#my-svg svg{font-family:"trebuchet ms",verdana,arial,sans-serif;font-size:16px;}#my-svg g.classGroup text{fill:#999;stroke:none;font-family:"trebuchet ms",verdana,arial,sans-serif;font-size:10px;}#my-svg g.classGroup text .title{font-weight:bolder;}#my-svg .nodeLabel,#my-svg .edgeLabel{color:#111111;}#my-svg .edgeLabel .label rect{fill:#eee;}#my-svg .label text{fill:#111111;}#my-svg .edgeLabel .label span{background:#eee;}#my-svg .classTitle{font-weight:bolder;}#my-svg .node rect,#my-svg .node circle,#my-svg .node ellipse,#my-svg .node polygon,#my-svg .node path{fill:#eee;stroke:#999;stroke-width:1px;}#my-svg .divider{stroke:#999;stroke-width:1;}#my-svg g.clickable{cursor:pointer;}#my-svg g.classGroup rect{fill:#eee;stroke:#999;}#my-svg g.classGroup line{stroke:#999;stroke-width:1;}#my-svg .classLabel .box{stroke:none;stroke-width:0;fill:#eee;opacity:0.5;}#my-svg .classLabel .label{fill:#999;font-size:10px;}#my-svg .relation{stroke:#666;stroke-width:1;fill:none;}#my-svg .dashed-line{stroke-dasharray:3;}#my-svg .dotted-line{stroke-dasharray:1 2;}#my-svg #compositionStart,#my-svg .composition{fill:#666!important;stroke:#666!important;stroke-width:1;}#my-svg #compositionEnd,#my-svg .composition{fill:#666!important;stroke:#666!important;stroke-width:1;}#my-svg #dependencyStart,#my-svg .dependency{fill:#666!important;stroke:#666!important;stroke-width:1;}#my-svg #dependencyStart,#my-svg .dependency{fill:#666!important;stroke:#666!important;stroke-width:1;}#my-svg #extensionStart,#my-svg .extension{fill:transparent!important;stroke:#666!important;stroke-width:1;}#my-svg #extensionEnd,#my-svg .extension{fill:transparent!important;stroke:#666!important;stroke-width:1;}#my-svg #aggregationStart,#my-svg .aggregation{fill:transparent!important;stroke:#666!important;stroke-width:1;}#my-svg #aggregationEnd,#my-svg .aggregation{fill:transparent!important;stroke:#666!important;stroke-width:1;}#my-svg #lollipopStart,#my-svg .lollipop{fill:#eee!important;stroke:#666!important;stroke-width:1;}#my-svg #lollipopEnd,#my-svg .lollipop{fill:#eee!important;stroke:#666!important;stroke-width:1;}#my-svg .edgeTerminals{font-size:11px;}#my-svg .classTitleText{text-anchor:middle;font-size:18px;fill:#000000;}#my-svg :root{--mermaid-font-family:"trebuchet ms",verdana,arial,sans-serif;}</style><g><defs><marker orient="auto" markerHeight="240" markerWidth="190" refY="7" refX="18" class="marker aggregation classDiagram" id="my-svg_classDiagram-aggregationStart"><path d="M 18,7 L9,13 L1,7 L9,1 Z"/></marker></defs><defs><marker orient="auto" markerHeight="28" markerWidth="20" refY="7" refX="1" class="marker aggregation classDiagram" id="my-svg_classDiagram-aggregationEnd"><path d="M 18,7 L9,13 L1,7 L9,1 Z"/></marker></defs><defs><marker orient="auto" markerHeight="240" markerWidth="190" refY="7" refX="18" class="marker extension classDiagram" id="my-svg_classDiagram-extensionStart"><path d="M 1,7 L18,13 V 1 Z"/></marker></defs><defs><marker orient="auto" markerHeight="28" markerWidth="20" refY="7" refX="1" class="marker extension classDiagram" id="my-svg_classDiagram-extensionEnd"><path d="M 1,1 V 13 L18,7 Z"/></marker></defs><defs><marker orient="auto" markerHeight="240" markerWidth="190" refY="7" refX="18" class="marker composition classDiagram" id="my-svg_classDiagram-compositionStart"><path d="M 18,7 L9,13 L1,7 L9,1 Z"/></marker></defs><defs><marker orient="auto" markerHeight="28" markerWidth="20" refY="7" refX="1" class="marker composition classDiagram" id="my-svg_classDiagram-compositionEnd"><path d="M 18,7 L9,13 L1,7 L9,1 Z"/></marker></defs><defs><marker orient="auto" markerHeight="240" markerWidth="190" refY="7" refX="6" class="marker dependency classDiagram" id="my-svg_classDiagram-dependencyStart"><path d="M 5,7 L9,13 L1,7 L9,1 Z"/></marker></defs><defs><marker orient="auto" markerHeight="28" markerWidth="20" refY="7" refX="13" class="marker dependency classDiagram" id="my-svg_classDiagram-dependencyEnd"><path d="M 18,7 L9,13 L14,7 L9,1 Z"/></marker></defs><defs><marker orient="auto" markerHeight="240" markerWidth="190" refY="7" refX="13" class="marker lollipop classDiagram" id="my-svg_classDiagram-lollipopStart"><circle r="6" cy="7" cx="7" fill="transparent" stroke="black"/></marker></defs><defs><marker orient="auto" markerHeight="240" markerWidth="190" refY="7" refX="1" class="marker lollipop classDiagram" id="my-svg_classDiagram-lollipopEnd"><circle r="6" cy="7" cx="7" fill="transparent" stroke="black"/></marker></defs><g class="root"><g class="clusters"/><g class="edgePaths"><path marker-end="url(#my-svg_classDiagram-dependencyEnd)" style="fill:none" class="edge-pattern-solid relation" id="id1" d="M249.61328125,73.35222241589682L261.3235677083333,80.87685201324734C273.0338541666667,88.40148161059788,296.4544270833333,103.45074080529893,308.1647135416667,115.5587037359828C319.875,127.66666666666667,319.875,136.83333333333334,319.875,141.41666666666666L319.875,146"/><path marker-end="url(#my-svg_classDiagram-dependencyEnd)" style="fill:none" class="edge-pattern-solid relation" id="id2" d="M169.20829264322916,85L163.60814751519095,90.58333333333333C158.00800238715277,96.16666666666667,146.80771213107639,107.33333333333333,141.20756700303818,124.91666666666667C135.607421875,142.5,135.607421875,166.5,135.607421875,190.5C135.607421875,214.5,135.607421875,238.5,140.15201042183966,257.01323424676474C144.6965989686793,275.52646849352953,153.7857760623586,288.552936987059,158.33036460919826,295.06617123382375L162.8749531560379,301.5794054805885"/><path marker-start="url(#my-svg_classDiagram-aggregationStart)" style="fill:none" class="edge-pattern-solid relation" id="id3" d="M388.47852684194527,239.45565948821059L393.8606864307878,243.29638290684215C399.2428460196302,247.13710632547372,410.0071651973151,254.81855316273686,415.3893247861576,264.24260991470175C420.771484375,273.6666666666667,420.771484375,284.8333333333333,420.771484375,290.4166666666667L420.771484375,296"/><path style="fill:none" class="edge-pattern-dashed relation" id="id4" d="M291.4073079427083,229L287.27887641059027,234.58333333333334C283.15044487847223,240.16666666666666,274.8935818142361,251.33333333333334,266.5980810389619,264.25C258.3025802636876,277.1666666666667,249.9684417773752,291.8333333333333,245.80137253421898,299.1666666666667L241.6343032910628,306.5"/><path marker-end="url(#my-svg_classDiagram-dependencyEnd)" style="fill:none" class="edge-pattern-solid relation" id="id5" d="M256.8125,207.26016899052672L222.17122395833334,216.46680749210563C187.52994791666666,225.67344599368448,118.24739583333333,244.08672299684224,83.60611979166667,270.5433614984211C48.96484375,297,48.96484375,331.5,48.96484375,366C48.96484375,400.5,48.96484375,435,51.32780933119824,458.64531403535676C53.69077491239647,482.2906280707136,58.416706074792934,495.0812561414271,60.77967165599117,501.4765701767839L63.14263723718941,507.87188421214074"/><path marker-end="url(#my-svg_classDiagram-dependencyEnd)" style="fill:none" class="edge-pattern-solid relation" id="id6" d="M178.0832012379227,425.5L174.41764165660229,432.8333333333333C170.7520820752818,440.1666666666667,163.4209629126409,454.8333333333333,153.62334978080872,468.7673634372284C143.82573664897654,482.70139354112354,131.5616295479531,495.9027870822472,125.42957599744136,502.503483852809L119.29752244692963,509.1041806233708"/><path marker-start="url(#my-svg_classDiagram-aggregationStart)" style="fill:none" class="edge-pattern-solid relation" id="id7" d="M243.63640635013056,441.77398463989294L245.8203776876088,446.39498719991076C248.004349025087,451.0159897599286,252.37229170004352,460.2579948799643,254.55626303752175,478.6289974399822C256.740234375,497,256.740234375,524.5,256.740234375,552C256.740234375,579.5,256.740234375,607,261.6202942251462,626.3333333333334C266.50035407529236,645.6666666666666,276.2604737755848,656.8333333333334,281.140533625731,662.4166666666666L286.0205934758772,668"/><path marker-start="url(#my-svg_classDiagram-aggregationStart)" style="fill:none" class="edge-pattern-solid relation" id="id8" d="M420.771484375,454L420.771484375,456.5833333333333C420.771484375,459.1666666666667,420.771484375,464.3333333333333,420.771484375,472.5C420.771484375,480.6666666666667,420.771484375,491.8333333333333,420.771484375,497.4166666666667L420.771484375,503"/><path marker-start="url(#my-svg_classDiagram-dependencyStart)" style="fill:none" class="edge-pattern-dashed relation" id="id9" d="M420.771484375,607L420.771484375,611.5833333333334C420.771484375,616.1666666666666,420.771484375,625.3333333333334,417.6178499634503,635.5C414.4642155519006,645.6666666666666,408.1569467288012,656.8333333333334,405.0033123172514,662.4166666666666L401.84967790570175,668"/></g><g class="edgeLabels"><g transform="translate(319.875, 118.5)" class="edgeLabel"><g transform="translate(-19.5625, -8.5)" class="label"><rect height="17.000635147094727" width="39.09520721435547" ry="0" rx="0"/><text style=""><tspan class="row" x="0" dy="1em" xml:space="preserve">starts</tspan></text></g></g><g transform="translate(256.22709277743536, 95.43179504542633)" class="edgeTerminals"><g transform="translate(-3.0625, -6)" class="inner"><text style=""><tspan class="row" x="0" dy="1em" xml:space="preserve">1</tspan></text></g></g><g transform="translate(329.2338999068518, 129.29324332663273)" class="edgeTerminals"><g transform="translate(-3.0625, -6)" class="inner"/><text style=""><tspan class="row" x="0" dy="1em" xml:space="preserve">1</tspan></text></g><g transform="translate(135.607421875, 190.5)" class="edgeLabel"><g transform="translate(-19.5625, -8.5)" class="label"><rect height="17.000635147094727" width="39.09520721435547" ry="0" rx="0"/><text style=""><tspan class="row" x="0" dy="1em" xml:space="preserve">starts</tspan></text></g></g><g transform="translate(146.22469000888202, 86.73322184266863)" class="edgeTerminals"><g transform="translate(-3.0625, -6)" class="inner"><text style=""><tspan class="row" x="0" dy="1em" xml:space="preserve">1</tspan></text></g></g><g transform="translate(163.59589305518608, 278.56494274499363)" class="edgeTerminals"><g transform="translate(-3.0625, -6)" class="inner"/><text style=""><tspan class="row" x="0" dy="1em" xml:space="preserve">1</tspan></text></g><g transform="translate(420.771484375, 262.5)" class="edgeLabel"><g transform="translate(-26.6796875, -8.5)" class="label"><rect height="17.000635147094727" width="53.31448745727539" ry="0" rx="0"/><text style=""><tspan class="row" x="0" dy="1em" xml:space="preserve">collects</tspan></text></g></g><g transform="translate(379.3584753038069, 251.37516949652726)" class="edgeTerminals"><g transform="translate(-3.0625, -6)" class="inner"><text style=""><tspan class="row" x="0" dy="1em" xml:space="preserve">1</tspan></text></g></g><g transform="translate(430.1515316575761, 273.28183099501183)" class="edgeTerminals"><g transform="translate(-8.614990234375, -6)" class="inner"/><text style=""><tspan class="row" x="0" dy="1em" xml:space="preserve">0..*</tspan></text></g><g transform="translate(266.63671875, 262.5)" class="edgeLabel"><g transform="translate(-62.30859375, -8.5)" class="label"><rect height="17.000635147094727" width="124.5090103149414" ry="0" rx="0"/><text style=""><tspan class="row" x="0" dy="1em" xml:space="preserve">via Redis Pubsub</tspan></text></g></g><g transform="translate(48.96484375, 366)" class="edgeLabel"><g transform="translate(-40.96484375, -8.5)" class="label"><rect height="17.000635147094727" width="81.861572265625" ry="0" rx="0"/><text style=""><tspan class="row" x="0" dy="1em" xml:space="preserve">connects to</tspan></text></g></g><g transform="translate(156.08984375, 469.5)" class="edgeLabel"><g transform="translate(-40.96484375, -8.5)" class="label"><rect height="17.000635147094727" width="81.861572265625" ry="0" rx="0"/><text style=""><tspan class="row" x="0" dy="1em" xml:space="preserve">connects to</tspan></text></g></g><g transform="translate(256.740234375, 552)" class="edgeLabel"><g transform="translate(-26.6796875, -8.5)" class="label"><rect height="17.000635147094727" width="53.31448745727539" ry="0" rx="0"/><text style=""><tspan class="row" x="0" dy="1em" xml:space="preserve">collects</tspan></text></g></g><g transform="translate(229.86110048624465, 447.731417250053)" class="edgeTerminals"><g transform="translate(-3.0625, -6)" class="inner"><text style=""><tspan class="row" x="0" dy="1em" xml:space="preserve">1</tspan></text></g></g><g transform="translate(280.79794634493635, 639.9522154623519)" class="edgeTerminals"><g transform="translate(-8.614990234375, -6)" class="inner"/><text style=""><tspan class="row" x="0" dy="1em" xml:space="preserve">0..*</tspan></text></g><g transform="translate(420.771484375, 469.5)" class="edgeLabel"><g transform="translate(-26.6796875, -8.5)" class="label"><rect height="17.000635147094727" width="53.31448745727539" ry="0" rx="0"/><text style=""><tspan class="row" x="0" dy="1em" xml:space="preserve">collects</tspan></text></g></g><g transform="translate(405.7714821875001, 453.499998125)" class="edgeTerminals"><g transform="translate(-3.0625, -6)" class="inner"><text style=""><tspan class="row" x="0" dy="1em" xml:space="preserve">1</tspan></text></g></g><g transform="translate(430.7714821874999, 480.499998125)" class="edgeTerminals"><g transform="translate(-8.614990234375, -6)" class="inner"/><text style=""><tspan class="row" x="0" dy="1em" xml:space="preserve">0..*</tspan></text></g><g transform="translate(420.771484375, 634.5)" class="edgeLabel"><g transform="translate(-53.3671875, -8.5)" class="label"><rect height="17.000635147094727" width="106.64460754394531" ry="0" rx="0"/><text style=""><tspan class="row" x="0" dy="1em" xml:space="preserve">represented by</tspan></text></g></g><g transform="translate(405.406000171066, 618.0851807217769)" class="edgeTerminals"><g transform="translate(-3.0625, -6)" class="inner"><text style=""><tspan class="row" x="0" dy="1em" xml:space="preserve">1</tspan></text></g></g><g transform="translate(418.5168134947901, 655.1396486812014)" class="edgeTerminals"><g transform="translate(-3.0625, -6)" class="inner"/><text style=""><tspan class="row" x="0" dy="1em" xml:space="preserve">1</tspan></text></g></g><g class="nodes"><g transform="translate(207.82421875, 46.5)" id="classId-Monolith-0" class="node default"><rect height="77" width="83.578125" y="-38.5" x="-41.7890625" class="outer title-state"/><line y2="11.5" y1="11.5" x2="41.7890625" x1="-41.7890625" class="divider"/><line y2="27.5" y1="27.5" x2="41.7890625" x1="-41.7890625" class="divider"/><g class="label"><text transform="translate( -34.2890625, -31)" style=""><tspan class="title-row" x="0" dy="1em" xml:space="preserve">«service»</tspan></text><text transform="translate( -33.3203125, -10)" class="classTitle" style=""><tspan class="title-row" x="0" dy="1em" xml:space="preserve">Monolith</tspan></text></g></g><g transform="translate(319.875, 190.5)" id="classId-RoomManager-1" class="node default"><rect height="77" width="126.125" y="-38.5" x="-63.0625" class="outer title-state"/><line y2="-9.5" y1="-9.5" x2="63.0625" x1="-63.0625" class="divider"/><line y2="27.5" y1="27.5" x2="63.0625" x1="-63.0625" class="divider"/><g class="label"><text style=""><tspan class="title-row" x="0" dy="1em" xml:space="preserve"/></text><text transform="translate( -55.5625, -31)" class="classTitle" style=""><tspan class="title-row" x="0" dy="1em" xml:space="preserve">RoomManager</tspan></text><text transform="translate( -55.5625, 2)" style=""><tspan class="title-row" x="0" dy="1em" xml:space="preserve">Room[] room</tspan></text></g></g><g transform="translate(207.82421875, 366)" id="classId-ClientManager-2" class="node default"><rect height="119" width="154.640625" y="-59.5" x="-77.3203125" class="outer title-state"/><line y2="-30.5" y1="-30.5" x2="77.3203125" x1="-77.3203125" class="divider"/><line y2="48.5" y1="48.5" x2="77.3203125" x1="-77.3203125" class="divider"/><g class="label"><text style=""><tspan class="title-row" x="0" dy="1em" xml:space="preserve"/></text><text transform="translate( -55.125, -52)" class="classTitle" style=""><tspan class="title-row" x="0" dy="1em" xml:space="preserve">ClientManager</tspan></text><text transform="translate( -69.8203125, -19)" style=""><tspan class="title-row" x="0" dy="1em" xml:space="preserve">Client[] connections</tspan></text><text transform="translate( -69.8203125, 2)" style=""><tspan class="title-row" x="0" dy="1em" xml:space="preserve">Map roomStates</tspan></text><text transform="translate( -69.8203125, 23)" style=""><tspan class="title-row" x="0" dy="1em" xml:space="preserve">Map roomJoins</tspan></text></g></g><g transform="translate(79.447265625, 552)" id="classId-Redis-3" class="node default"><rect height="77" width="83.578125" y="-38.5" x="-41.7890625" class="outer title-state"/><line y2="11.5" y1="11.5" x2="41.7890625" x1="-41.7890625" class="divider"/><line y2="27.5" y1="27.5" x2="41.7890625" x1="-41.7890625" class="divider"/><g class="label"><text transform="translate( -34.2890625, -31)" style=""><tspan class="title-row" x="0" dy="1em" xml:space="preserve">«service»</tspan></text><text transform="translate( -21.8359375, -10)" class="classTitle" style=""><tspan class="title-row" x="0" dy="1em" xml:space="preserve">Redis</tspan></text></g></g><g transform="translate(420.771484375, 366)" id="classId-Room-4" class="node default"><rect height="140" width="143.921875" y="-70" x="-71.9609375" class="outer title-state"/><line y2="-41" y1="-41" x2="71.9609375" x1="-71.9609375" class="divider"/><line y2="59" y1="59" x2="71.9609375" x1="-71.9609375" class="divider"/><g class="label"><text style=""><tspan class="title-row" x="0" dy="1em" xml:space="preserve"/></text><text transform="translate( -22.6640625, -62.5)" class="classTitle" style=""><tspan class="title-row" x="0" dy="1em" xml:space="preserve">Room</tspan></text><text transform="translate( -64.4609375, -29.5)" style=""><tspan class="title-row" x="0" dy="1em" xml:space="preserve">String name</tspan></text><text transform="translate( -64.4609375, -8.5)" style=""><tspan class="title-row" x="0" dy="1em" xml:space="preserve">bool isTemporary</tspan></text><text transform="translate( -64.4609375, 12.5)" style=""><tspan class="title-row" x="0" dy="1em" xml:space="preserve">RoomUser[] users</tspan></text><text transform="translate( -64.4609375, 33.5)" style=""><tspan class="title-row" x="0" dy="1em" xml:space="preserve">...</tspan></text></g></g><g transform="translate(356.380859375, 748.5)" id="classId-Client-5" class="node default"><rect height="161" width="157.3125" y="-80.5" x="-78.65625" class="outer title-state"/><line y2="-51.5" y1="-51.5" x2="78.65625" x1="-78.65625" class="divider"/><line y2="69.5" y1="69.5" x2="78.65625" x1="-78.65625" class="divider"/><g class="label"><text style=""><tspan class="title-row" x="0" dy="1em" xml:space="preserve"/></text><text transform="translate( -22.55859375, -73)" class="classTitle" style=""><tspan class="title-row" x="0" dy="1em" xml:space="preserve">Client</tspan></text><text transform="translate( -71.15625, -40)" style=""><tspan class="title-row" x="0" dy="1em" xml:space="preserve">String id</tspan></text><text transform="translate( -71.15625, -19)" style=""><tspan class="title-row" x="0" dy="1em" xml:space="preserve">WebSocket socket</tspan></text><text transform="translate( -71.15625, 2)" style=""><tspan class="title-row" x="0" dy="1em" xml:space="preserve">SessionInfo session</tspan></text><text transform="translate( -71.15625, 23)" style=""><tspan class="title-row" x="0" dy="1em" xml:space="preserve">String room</tspan></text><text transform="translate( -71.15625, 44)" style=""><tspan class="title-row" x="0" dy="1em" xml:space="preserve">AuthToken token</tspan></text></g></g><g transform="translate(420.771484375, 552)" id="classId-RoomUser-6" class="node default"><rect height="98" width="134.203125" y="-49" x="-67.1015625" class="outer title-state"/><line y2="-20" y1="-20" x2="67.1015625" x1="-67.1015625" class="divider"/><line y2="38" y1="38" x2="67.1015625" x1="-67.1015625" class="divider"/><g class="label"><text style=""><tspan class="title-row" x="0" dy="1em" xml:space="preserve"/></text><text transform="translate( -40.453125, -41.5)" class="classTitle" style=""><tspan class="title-row" x="0" dy="1em" xml:space="preserve">RoomUser</tspan></text><text transform="translate( -59.6015625, -8.5)" style=""><tspan class="title-row" x="0" dy="1em" xml:space="preserve">String id</tspan></text><text transform="translate( -59.6015625, 12.5)" style=""><tspan class="title-row" x="0" dy="1em" xml:space="preserve">AuthToken token</tspan></text></g></g></g></g></g></svg>