<?xml version="1.0" encoding="us-ascii" standalone="no"?><svg xmlns="http://www.w3.org/2000/svg" xmlns:xlink="http://www.w3.org/1999/xlink" contentStyleType="text/css" height="235px" preserveAspectRatio="none" style="width:610px;height:235px;background:#FFFFFF;" version="1.1" viewBox="0 0 610 235" width="610px" zoomAndPan="magnify"><defs/><g><!--cluster OTT--><g id="cluster_OTT"><rect fill="none" height="222" rx="2.5" ry="2.5" style="stroke:#181818;stroke-width:1.0;" width="478.81" x="126" y="7"/><text fill="#000000" font-family="sans-serif" font-size="14" font-weight="bold" lengthAdjust="spacing" textLength="32" x="349.405" y="22.5352">OTT</text></g><g id="elem_UC1"><ellipse cx="226.668" cy="58.0036" fill="#F1F1F1" rx="67.968" ry="15.9936" style="stroke:#181818;stroke-width:0.5;"/><text fill="#000000" font-family="sans-serif" font-size="14" lengthAdjust="spacing" textLength="88" x="179.7052" y="62.0134">Deploy to Fly</text></g><g id="elem_UC2"><ellipse cx="226.6664" cy="128.0033" fill="#F1F1F1" rx="84.6664" ry="19.3333" style="stroke:#181818;stroke-width:0.5;"/><text fill="#000000" font-family="sans-serif" font-size="14" lengthAdjust="spacing" textLength="129" x="162.1664" y="131.2943">Access Diagnostics</text></g><g id="elem_UC2.1"><ellipse cx="507.5703" cy="195.9981" fill="#F1F1F1" rx="72.5403" ry="16.9081" style="stroke:#181818;stroke-width:0.5;"/><text fill="#000000" font-family="sans-serif" font-size="14" lengthAdjust="spacing" textLength="100" x="457.0732" y="199.4241">Collect Metrics</text></g><g id="elem_UC2.2"><ellipse cx="507.5694" cy="124.9979" fill="#F1F1F1" rx="81.2394" ry="18.6479" style="stroke:#181818;stroke-width:0.5;"/><text fill="#000000" font-family="sans-serif" font-size="14" lengthAdjust="spacing" textLength="121" x="447.0694" y="128.2889">View Stack Traces</text></g><g id="elem_UC2.3"><ellipse cx="507.5666" cy="57.004" fill="#F1F1F1" rx="60.1266" ry="14.774" style="stroke:#181818;stroke-width:0.5;"/><text fill="#000000" font-family="sans-serif" font-size="14" lengthAdjust="spacing" textLength="68" x="470.5666" y="61.0216">View Logs</text></g><!--entity maint--><g id="elem_maint"><ellipse cx="42.5" cy="64.26" fill="#F1F1F1" rx="8" ry="8" style="stroke:#181818;stroke-width:0.5;"/><path d="M42.5,72.26 L42.5,99.26 M29.5,80.26 L55.5,80.26 M42.5,99.26 L29.5,114.26 M42.5,99.26 L55.5,114.26 " fill="none" style="stroke:#181818;stroke-width:0.5;"/><text fill="#000000" font-family="sans-serif" font-size="14" lengthAdjust="spacing" textLength="73" x="6" y="129.2952">Maintainer</text></g><!--link maint to UC1--><g id="link_maint_UC1"><path d="M79.49,86.89 C104.56,81.93 138.56,75.21 167.45,69.5 " fill="none" id="maint-to-UC1" style="stroke:#181818;stroke-width:1.0;"/><polygon fill="#181818" points="172.05,68.6,162.4501,66.3996,167.1427,69.5586,163.9838,74.2512,172.05,68.6" style="stroke:#181818;stroke-width:1.0;"/></g><!--link maint to UC2--><g id="link_maint_UC2"><path d="M79.49,100.72 C100.7,104.68 128.31,109.83 153.8,114.59 " fill="none" id="maint-to-UC2" style="stroke:#181818;stroke-width:1.0;"/><polygon fill="#181818" points="158.4,115.45,150.2835,109.8713,153.4843,114.5355,148.8202,117.7363,158.4,115.45" style="stroke:#181818;stroke-width:1.0;"/></g><!--link UC2 to UC2.1--><g id="link_UC2_UC2.1"><path d="M285.79,142.17 C334.08,153.94 402.35,170.59 450.15,182.24 " fill="none" id="UC2-to-UC2.1" style="stroke:#181818;stroke-width:1.0;stroke-dasharray:7.0,7.0;"/><polygon fill="#181818" points="454.99,183.42,447.1954,177.3997,450.1326,182.2342,445.2981,185.1715,454.99,183.42" style="stroke:#181818;stroke-width:1.0;"/><text fill="#000000" font-family="sans-serif" font-size="13" lengthAdjust="spacing" textLength="53" x="342.33" y="152.5684">includes</text></g><!--link UC2 to UC2.2--><g id="link_UC2_UC2.2"><path d="M311.73,127.1 C345.85,126.73 385.26,126.3 419.67,125.93 " fill="none" id="UC2-to-UC2.2" style="stroke:#181818;stroke-width:1.0;stroke-dasharray:7.0,7.0;"/><polygon fill="#181818" points="424.52,125.88,415.4749,121.9831,419.5203,125.9371,415.5663,129.9826,424.52,125.88" style="stroke:#181818;stroke-width:1.0;"/><text fill="#000000" font-family="sans-serif" font-size="13" lengthAdjust="spacing" textLength="53" x="342.33" y="123.5684">includes</text></g><!--link UC2 to UC2.3--><g id="link_UC2_UC2.3"><path d="M284.44,113.55 C335.76,100.48 410.47,81.47 458.79,69.16 " fill="none" id="UC2-to-UC2.3" style="stroke:#181818;stroke-width:1.0;stroke-dasharray:7.0,7.0;"/><polygon fill="#181818" points="463.38,68,453.6739,66.3291,458.5327,69.2261,455.6357,74.0848,463.38,68" style="stroke:#181818;stroke-width:1.0;"/><text fill="#000000" font-family="sans-serif" font-size="13" lengthAdjust="spacing" textLength="53" x="342.33" y="83.5684">includes</text></g><!--SRC=[ZS_1QW8n40RWUvxYPtjsmVNcGIXAJue7jzw7xBY6naGo8qMAxsvsiUsA21u6CkJBFndFEuL69DVk5OrBRDN5OCXgJ2XMv8BcubI018UkDPsXq7h6kgxnOu2Ji2LX50i- -dZk0Z_ykN_oEHyFmRkrB8A5epP4KMVbfggXcaVlyn2iMDE0b7THMyVVs2ZPBzI9SkmVgnxOChR_rnDpCVqc68rc_GU7NMLo_PxBCTvyNhziIFRSO0eNh3yrB7UgUabDdgah]--></g></svg>