<?xml version="1.0" encoding="us-ascii" standalone="no"?><svg xmlns="http://www.w3.org/2000/svg" xmlns:xlink="http://www.w3.org/1999/xlink" contentStyleType="text/css" height="170px" preserveAspectRatio="none" style="width:512px;height:170px;background:#FFFFFF;" version="1.1" viewBox="0 0 512 170" width="512px" zoomAndPan="magnify"><defs/><g><!--cluster OTT--><g id="cluster_OTT"><rect fill="none" height="157" rx="2.5" ry="2.5" style="stroke:#181818;stroke-width:1.0;" width="211.8" x="295" y="7"/><text fill="#000000" font-family="sans-serif" font-size="14" font-weight="bold" lengthAdjust="spacing" textLength="32" x="384.9" y="22.5352">OTT</text></g><g id="elem_UC1"><ellipse cx="400.8956" cy="132.9971" fill="#F1F1F1" rx="65.1356" ry="15.4271" style="stroke:#181818;stroke-width:0.5;"/><text fill="#000000" font-family="sans-serif" font-size="14" lengthAdjust="spacing" textLength="80" x="357.8956" y="137.0147">Deploy OTT</text></g><g id="elem_UC2"><ellipse cx="400.8988" cy="61.9998" fill="#F1F1F1" rx="89.8988" ry="20.3798" style="stroke:#181818;stroke-width:0.5;"/><text fill="#000000" font-family="sans-serif" font-size="14" lengthAdjust="spacing" textLength="141" x="330.3988" y="65.2908">Use OTT as end user</text></g><!--entity hoster--><g id="elem_hoster"><ellipse cx="45" cy="79.26" fill="#F1F1F1" rx="8" ry="8" style="stroke:#181818;stroke-width:0.5;"/><path d="M45,87.26 L45,114.26 M32,95.26 L58,95.26 M45,114.26 L32,129.26 M45,114.26 L58,129.26 " fill="none" style="stroke:#181818;stroke-width:0.5;"/><text fill="#000000" font-family="sans-serif" font-size="14" lengthAdjust="spacing" textLength="78" x="6" y="144.2952">Self-Hoster</text></g><!--entity user--><g id="elem_user"><ellipse cx="232.5" cy="17.26" fill="#F1F1F1" rx="8" ry="8" style="stroke:#181818;stroke-width:0.5;"/><path d="M232.5,25.26 L232.5,52.26 M219.5,33.26 L245.5,33.26 M232.5,52.26 L219.5,67.26 M232.5,52.26 L245.5,67.26 " fill="none" style="stroke:#181818;stroke-width:0.5;"/><text fill="#000000" font-family="sans-serif" font-size="14" lengthAdjust="spacing" textLength="31" x="217" y="82.2952">User</text></g><!--link hoster to UC1--><g id="link_hoster_UC1"><path d="M84.21,111.59 C143.4,115.61 258.11,123.38 331.74,128.38 " fill="none" id="hoster-to-UC1" style="stroke:#181818;stroke-width:1.0;"/><polygon fill="#181818" points="336.34,128.69,327.6225,124.1068,331.3508,128.3612,327.0964,132.0895,336.34,128.69" style="stroke:#181818;stroke-width:1.0;"/></g><!--link hoster to user--><g id="link_hoster_user"><path d="M84.44,96.15 C117.4,85.14 164.49,69.4 196.44,58.72 " fill="none" id="hoster-to-user" style="stroke:#181818;stroke-width:1.0;"/><polygon fill="none" points="193.98,52.16,215.17,52.46,198.42,65.44,193.98,52.16" style="stroke:#181818;stroke-width:1.0;"/><text fill="#000000" font-family="sans-serif" font-size="13" lengthAdjust="spacing" textLength="71" x="115" y="58.5684">can also be</text></g><!--link user to UC2--><g id="link_user_UC2"><path d="M248.27,48.33 C262.86,49.65 286.46,51.77 310.74,53.96 " fill="none" id="user-to-UC2" style="stroke:#181818;stroke-width:1.0;"/><polygon fill="#181818" points="315.42,54.38,306.8228,49.5749,310.4409,53.9235,306.0924,57.5415,315.42,54.38" style="stroke:#181818;stroke-width:1.0;"/></g><!--SRC=[JOqx3i8m44HxdsBatWKfAT90GKT1SW3ZR19BbetifK30tOat0T7Dllbie9712TbFCsFmcHpx59Lrd3BqXS9eJgamPGrRC8lykdtPy7qHgbPjd0BXt7LuAbJiR27e8zr2UbGkyVwm-tUN6Qai3iL1nhPOezvgVGbZMkdzpbShIUpXR8GD9U5AIj2QRJu0]--></g></svg>