<?xml version="1.0" encoding="us-ascii" standalone="no"?><svg xmlns="http://www.w3.org/2000/svg" xmlns:xlink="http://www.w3.org/1999/xlink" contentStyleType="text/css" height="173px" preserveAspectRatio="none" style="width:518px;height:173px;background:#FFFFFF;" version="1.1" viewBox="0 0 518 173" width="518px" zoomAndPan="magnify"><defs/><g><!--cluster OTT--><g id="cluster_OTT"><rect fill="none" height="160" rx="2.5" ry="2.5" style="stroke:#181818;stroke-width:1.0;" width="216" x="296" y="7"/><text fill="#000000" font-family="sans-serif" font-size="14" font-weight="bold" lengthAdjust="spacing" textLength="32" x="388" y="21.9951">OTT</text></g><g id="elem_UC1"><ellipse cx="403.7655" cy="135.0531" fill="#F1F1F1" rx="65.7655" ry="15.5531" style="stroke:#181818;stroke-width:0.5;"/><text fill="#000000" font-family="sans-serif" font-size="14" lengthAdjust="spacing" textLength="81" x="360.2655" y="138.8007">Deploy OTT</text></g><g id="elem_UC2"><ellipse cx="403.8872" cy="62.7774" fill="#F1F1F1" rx="91.8872" ry="20.7774" style="stroke:#181818;stroke-width:0.5;"/><text fill="#000000" font-family="sans-serif" font-size="14" lengthAdjust="spacing" textLength="146" x="330.8872" y="65.6241">Use OTT as end user</text></g><!--entity hoster--><g id="elem_hoster"><ellipse cx="44" cy="81.5" fill="#F1F1F1" rx="8" ry="8" style="stroke:#181818;stroke-width:0.5;"/><path d="M44,89.5 L44,116.5 M31,97.5 L57,97.5 M44,116.5 L31,131.5 M44,116.5 L57,131.5 " fill="none" style="stroke:#181818;stroke-width:0.5;"/><text fill="#000000" font-family="sans-serif" font-size="14" lengthAdjust="spacing" textLength="76" x="6" y="145.9951">Self-Hoster</text></g><!--entity user--><g id="elem_user"><ellipse cx="233" cy="19.5" fill="#F1F1F1" rx="8" ry="8" style="stroke:#181818;stroke-width:0.5;"/><path d="M233,27.5 L233,54.5 M220,35.5 L246,35.5 M233,54.5 L220,69.5 M233,54.5 L246,69.5 " fill="none" style="stroke:#181818;stroke-width:0.5;"/><text fill="#000000" font-family="sans-serif" font-size="14" lengthAdjust="spacing" textLength="32" x="217" y="83.9951">User</text></g><!--link hoster to UC1--><g id="link_hoster_UC1"><path d="M82.3,113.5 C142.02,117.5 260.01,125.41 335.02,130.44 " fill="none" id="hoster-to-UC1" style="stroke:#181818;stroke-width:1.0;"/><polygon fill="#181818" points="340.34,130.8,331.6356,126.192,335.3518,130.457,331.0868,134.1731,340.34,130.8" style="stroke:#181818;stroke-width:1.0;"/></g><!--link hoster to user--><g id="link_hoster_user"><path d="M82.39,98.6 C115.98,87.47 164.9,71.25 197.55,60.42 " fill="none" id="hoster-to-user" style="stroke:#181818;stroke-width:1.0;"/><polygon fill="none" points="195.57,53.71,216.75,54.06,199.97,66.99,195.57,53.71" style="stroke:#181818;stroke-width:1.0;"/><text fill="#000000" font-family="sans-serif" font-size="13" lengthAdjust="spacing" textLength="73" x="113" y="60.0669">can also be</text></g><!--link user to UC2--><g id="link_user_UC2"><path d="M249.3,50.27 C264.01,51.49 287.55,53.44 311.83,55.45 " fill="none" id="user-to-UC2" style="stroke:#181818;stroke-width:1.0;"/><polygon fill="#181818" points="317.02,55.88,308.3821,51.1485,312.0372,55.466,307.7197,59.121,317.02,55.88" style="stroke:#181818;stroke-width:1.0;"/></g><!--SRC=[JOqx3i8m44HxdsBatWKfAT90GKT1SW3ZR19BbetifK30tOat0T7Dllbie9712TbFCsFmcHpx59Lrd3BqXS9eJgamPGrRC8lykdtPy7qHgbPjd0BXt7LuAbJiR27e8zr2UbGkyVwm-tUN6Qai3iL1nhPOezvgVGbZMkdzpbShIUpXR8GD9U5AIj2QRJu0]--></g></svg>