<?xml version="1.0" encoding="us-ascii" standalone="no"?><svg xmlns="http://www.w3.org/2000/svg" xmlns:xlink="http://www.w3.org/1999/xlink" contentStyleType="text/css" height="262px" preserveAspectRatio="none" style="width:1137px;height:262px;background:#FFFFFF;" version="1.1" viewBox="0 0 1137 262" width="1137px" zoomAndPan="magnify"><defs/><g><!--entity visitor--><g id="elem_visitor"><ellipse cx="236" cy="69.5" fill="#F1F1F1" rx="8" ry="8" style="stroke:#181818;stroke-width:0.5;"/><path d="M236,77.5 L236,104.5 M223,85.5 L249,85.5 M236,104.5 L223,119.5 M236,104.5 L249,119.5 " fill="none" style="stroke:#181818;stroke-width:0.5;"/><text fill="#000000" font-family="sans-serif" font-size="14" lengthAdjust="spacing" textLength="126" x="173" y="133.9951">Expo Booth Visitor</text></g><!--entity Smartphone--><g id="elem_Smartphone"><rect fill="#F1F1F1" height="36.2969" rx="2.5" ry="2.5" style="stroke:#181818;stroke-width:0.5;" width="105" x="7" y="152"/><text fill="#000000" font-family="sans-serif" font-size="14" lengthAdjust="spacing" textLength="85" x="17" y="174.9951">Smartphone</text></g><!--entity Visualization--><g id="elem_Visualization"><rect fill="#F1F1F1" height="36.2969" rx="2.5" ry="2.5" style="stroke:#181818;stroke-width:0.5;" width="105" x="473" y="81"/><text fill="#000000" font-family="sans-serif" font-size="14" lengthAdjust="spacing" textLength="85" x="483" y="103.9951">Visualization</text></g><!--entity Balancer--><g id="elem_Balancer"><rect fill="#F1F1F1" height="36.2969" rx="2.5" ry="2.5" style="stroke:#181818;stroke-width:0.5;" width="80" x="784" y="114"/><text fill="#000000" font-family="sans-serif" font-size="14" lengthAdjust="spacing" textLength="60" x="794" y="136.9951">Balancer</text></g><!--entity M1--><g id="elem_M1"><rect fill="#F1F1F1" height="36.2969" rx="2.5" ry="2.5" style="stroke:#181818;stroke-width:0.5;" width="92" x="1039" y="7"/><text fill="#000000" font-family="sans-serif" font-size="14" lengthAdjust="spacing" textLength="72" x="1049" y="29.9951">Monolith 1</text></g><!--entity M2--><g id="elem_M2"><rect fill="#F1F1F1" height="36.2969" rx="2.5" ry="2.5" style="stroke:#181818;stroke-width:0.5;" width="92" x="1039" y="78"/><text fill="#000000" font-family="sans-serif" font-size="14" lengthAdjust="spacing" textLength="72" x="1049" y="100.9951">Monolith 2</text></g><!--entity M3--><g id="elem_M3"><rect fill="#F1F1F1" height="36.2969" rx="2.5" ry="2.5" style="stroke:#181818;stroke-width:0.5;" width="92" x="1039" y="149"/><text fill="#000000" font-family="sans-serif" font-size="14" lengthAdjust="spacing" textLength="72" x="1049" y="171.9951">Monolith 3</text></g><!--entity MN--><g id="elem_MN"><rect fill="#F1F1F1" height="36.2969" rx="2.5" ry="2.5" style="stroke:#181818;stroke-width:0.5;" width="92" x="1039" y="220"/><text fill="#000000" font-family="sans-serif" font-size="14" lengthAdjust="spacing" textLength="72" x="1049" y="242.9951">Monolith n</text></g><!--link Smartphone to visitor--><g id="link_Smartphone_visitor"><path d="M104.99,151.9 C119.95,145.81 137.15,138.81 154.03,131.94 " fill="none" id="Smartphone-to-visitor" style="stroke:#181818;stroke-width:1.0;"/><polygon fill="none" points="151.66,125.35,172.82,124.3,156.93,138.32,151.66,125.35" style="stroke:#181818;stroke-width:1.0;"/></g><!--link Smartphone to Balancer--><g id="link_Smartphone_Balancer"><path d="M112.34,174.13 C228.35,182.23 517.28,196.05 754,155 C762.14,153.59 770.63,151.4 778.75,148.91 " fill="none" id="Smartphone-to-Balancer" style="stroke:#181818;stroke-width:1.0;stroke-dasharray:7.0,7.0;"/><polygon fill="#181818" points="783.75,147.34,773.9647,146.2232,778.9801,148.8395,776.3639,153.855,783.75,147.34" style="stroke:#181818;stroke-width:1.0;"/><text fill="#000000" font-family="sans-serif" font-size="13" lengthAdjust="spacing" textLength="112" x="330" y="178.0669">connects through</text></g><!--link visitor to Visualization--><g id="link_visitor_Visualization"><path d="M299.03,99 C349.04,99 418.81,99 467.45,99 " fill="none" id="visitor-to-Visualization" style="stroke:#181818;stroke-width:1.0;"/><polygon fill="#181818" points="472.68,99,463.68,95,467.68,99,463.68,103,472.68,99" style="stroke:#181818;stroke-width:1.0;"/><text fill="#000000" font-family="sans-serif" font-size="13" lengthAdjust="spacing" textLength="71" x="350.5" y="95.0669">walks up to</text></g><!--link Visualization to Balancer--><g id="link_Visualization_Balancer"><path d="M578.32,99.63 C624.63,100.85 694.22,104.32 754,114 C762.1,115.31 770.62,117.15 778.82,119.15 " fill="none" id="Visualization-to-Balancer" style="stroke:#181818;stroke-width:1.0;"/><polygon fill="#181818" points="783.87,120.42,776.1131,114.3512,779.0201,119.204,774.1674,122.111,783.87,120.42" style="stroke:#181818;stroke-width:1.0;"/><text fill="#000000" font-family="sans-serif" font-size="13" lengthAdjust="spacing" textLength="144" x="609" y="97.0669">add/remove monoliths</text></g><!--link Balancer to Visualization--><g id="link_Balancer_Visualization"><path d="M783.96,139.25 C740.43,145.96 668.21,152.98 608,139 C591.31,135.12 574.1,127.33 559.82,119.64 " fill="none" id="Balancer-to-Visualization" style="stroke:#181818;stroke-width:1.0;stroke-dasharray:7.0,7.0;"/><polygon fill="#181818" points="555.09,117.04,561.0345,124.8926,559.4668,119.4573,564.9021,117.8896,555.09,117.04" style="stroke:#181818;stroke-width:1.0;"/><text fill="#000000" font-family="sans-serif" font-size="13" lengthAdjust="spacing" textLength="94" x="634" y="135.0669">deliver metrics</text></g><!--link Balancer to M1--><g id="link_Balancer_M1"><path d="M847.91,113.89 C860.87,104.3 877.7,92.91 894,85 C939.27,63.03 994.44,46.65 1033.64,36.61 " fill="none" id="Balancer-to-M1" style="stroke:#181818;stroke-width:1.0;"/><polygon fill="#181818" points="1038.83,35.29,1029.1227,33.6259,1033.9835,36.5195,1031.0899,41.3803,1038.83,35.29" style="stroke:#181818;stroke-width:1.0;"/></g><!--link Balancer to M2--><g id="link_Balancer_M2"><path d="M864.3,123.43 C873.98,121.48 884.34,119.54 894,118 C941.23,110.49 995.46,104.46 1033.86,100.63 " fill="none" id="Balancer-to-M2" style="stroke:#181818;stroke-width:1.0;"/><polygon fill="#181818" points="1038.94,100.13,1029.5937,97.0241,1033.9637,100.6162,1030.3716,104.9862,1038.94,100.13" style="stroke:#181818;stroke-width:1.0;"/></g><!--link Balancer to M3--><g id="link_Balancer_M3"><path d="M864.06,137.28 C909.41,143.41 984.34,153.53 1033.94,160.24 " fill="none" id="Balancer-to-M3" style="stroke:#181818;stroke-width:1.0;"/><polygon fill="#181818" points="1038.96,160.91,1030.5783,155.7382,1034.0052,160.2389,1029.5046,163.6658,1038.96,160.91" style="stroke:#181818;stroke-width:1.0;"/><text fill="#000000" font-family="sans-serif" font-size="13" lengthAdjust="spacing" textLength="113" x="895" y="137.0669">routes user traffic</text></g><!--link Balancer to MN--><g id="link_Balancer_MN"><path d="M862.77,150.04 C872.86,154.71 883.8,159.65 894,164 C940.91,183.99 995.18,204.91 1033.67,219.39 " fill="none" id="Balancer-to-MN" style="stroke:#181818;stroke-width:1.0;"/><polygon fill="#181818" points="1038.76,221.3,1031.7375,214.3946,1034.0784,219.5444,1028.9285,221.8852,1038.76,221.3" style="stroke:#181818;stroke-width:1.0;"/></g><!--SRC=[RP0nRuCm48Lt_ueJUr85jWuCaJecIwJk9sF0gl4X-w1Hr1_V8qJ483RxVU_UFTkPce49WcrQXie6ezcILwYP0cHVzvxWJCGjVDjeHSi08uppMKrkz8qpSEimSD-IDuae8mCw-y1dv5i_eqElJJgVNSYJixBdzDnmEUt2V8RvBYncMEn2FyEhUZU5m-6lNDwIwCTZkNI4Jz3alIH6u3RGqBJgDIBpvVgDOlv5znDXwELJrPfDxYGLg-eZc8v60zshP5GBdofieolZx2YiCnoiJinJidpO-fvlxeKaI7qsqYwAo07hskgDw_eF]--></g></svg>