<svg aria-roledescription="classDiagram" role="graphics-document document" viewBox="-8 -8 1153.54296875 814" style="max-width: 1153.54px; background-color: white;" xmlns:xlink="http://www.w3.org/1999/xlink" xmlns="http://www.w3.org/2000/svg" width="100%" id="my-svg"><style>#my-svg{font-family:"trebuchet ms",verdana,arial,sans-serif;font-size:16px;fill:#000000;}#my-svg .error-icon{fill:#552222;}#my-svg .error-text{fill:#552222;stroke:#552222;}#my-svg .edge-thickness-normal{stroke-width:2px;}#my-svg .edge-thickness-thick{stroke-width:3.5px;}#my-svg .edge-pattern-solid{stroke-dasharray:0;}#my-svg .edge-pattern-dashed{stroke-dasharray:3;}#my-svg .edge-pattern-dotted{stroke-dasharray:2;}#my-svg .marker{fill:#666;stroke:#666;}#my-svg .marker.cross{stroke:#666;}#my-svg svg{font-family:"trebuchet ms",verdana,arial,sans-serif;font-size:16px;}#my-svg g.classGroup text{fill:#999;stroke:none;font-family:"trebuchet ms",verdana,arial,sans-serif;font-size:10px;}#my-svg g.classGroup text .title{font-weight:bolder;}#my-svg .nodeLabel,#my-svg .edgeLabel{color:#111111;}#my-svg .edgeLabel .label rect{fill:#eee;}#my-svg .label text{fill:#111111;}#my-svg .edgeLabel .label span{background:#eee;}#my-svg .classTitle{font-weight:bolder;}#my-svg .node rect,#my-svg .node circle,#my-svg .node ellipse,#my-svg .node polygon,#my-svg .node path{fill:#eee;stroke:#999;stroke-width:1px;}#my-svg .divider{stroke:#999;stroke-width:1;}#my-svg g.clickable{cursor:pointer;}#my-svg g.classGroup rect{fill:#eee;stroke:#999;}#my-svg g.classGroup line{stroke:#999;stroke-width:1;}#my-svg .classLabel .box{stroke:none;stroke-width:0;fill:#eee;opacity:0.5;}#my-svg .classLabel .label{fill:#999;font-size:10px;}#my-svg .relation{stroke:#666;stroke-width:1;fill:none;}#my-svg .dashed-line{stroke-dasharray:3;}#my-svg .dotted-line{stroke-dasharray:1 2;}#my-svg #compositionStart,#my-svg .composition{fill:#666!important;stroke:#666!important;stroke-width:1;}#my-svg #compositionEnd,#my-svg .composition{fill:#666!important;stroke:#666!important;stroke-width:1;}#my-svg #dependencyStart,#my-svg .dependency{fill:#666!important;stroke:#666!important;stroke-width:1;}#my-svg #dependencyStart,#my-svg .dependency{fill:#666!important;stroke:#666!important;stroke-width:1;}#my-svg #extensionStart,#my-svg .extension{fill:transparent!important;stroke:#666!important;stroke-width:1;}#my-svg #extensionEnd,#my-svg .extension{fill:transparent!important;stroke:#666!important;stroke-width:1;}#my-svg #aggregationStart,#my-svg .aggregation{fill:transparent!important;stroke:#666!important;stroke-width:1;}#my-svg #aggregationEnd,#my-svg .aggregation{fill:transparent!important;stroke:#666!important;stroke-width:1;}#my-svg #lollipopStart,#my-svg .lollipop{fill:#eee!important;stroke:#666!important;stroke-width:1;}#my-svg #lollipopEnd,#my-svg .lollipop{fill:#eee!important;stroke:#666!important;stroke-width:1;}#my-svg .edgeTerminals{font-size:11px;}#my-svg .classTitleText{text-anchor:middle;font-size:18px;fill:#000000;}#my-svg :root{--mermaid-font-family:"trebuchet ms",verdana,arial,sans-serif;}</style><g><defs><marker orient="auto" markerHeight="240" markerWidth="190" refY="7" refX="18" class="marker aggregation classDiagram" id="my-svg_classDiagram-aggregationStart"><path d="M 18,7 L9,13 L1,7 L9,1 Z"/></marker></defs><defs><marker orient="auto" markerHeight="28" markerWidth="20" refY="7" refX="1" class="marker aggregation classDiagram" id="my-svg_classDiagram-aggregationEnd"><path d="M 18,7 L9,13 L1,7 L9,1 Z"/></marker></defs><defs><marker orient="auto" markerHeight="240" markerWidth="190" refY="7" refX="18" class="marker extension classDiagram" id="my-svg_classDiagram-extensionStart"><path d="M 1,7 L18,13 V 1 Z"/></marker></defs><defs><marker orient="auto" markerHeight="28" markerWidth="20" refY="7" refX="1" class="marker extension classDiagram" id="my-svg_classDiagram-extensionEnd"><path d="M 1,1 V 13 L18,7 Z"/></marker></defs><defs><marker orient="auto" markerHeight="240" markerWidth="190" refY="7" refX="18" class="marker composition classDiagram" id="my-svg_classDiagram-compositionStart"><path d="M 18,7 L9,13 L1,7 L9,1 Z"/></marker></defs><defs><marker orient="auto" markerHeight="28" markerWidth="20" refY="7" refX="1" class="marker composition classDiagram" id="my-svg_classDiagram-compositionEnd"><path d="M 18,7 L9,13 L1,7 L9,1 Z"/></marker></defs><defs><marker orient="auto" markerHeight="240" markerWidth="190" refY="7" refX="6" class="marker dependency classDiagram" id="my-svg_classDiagram-dependencyStart"><path d="M 5,7 L9,13 L1,7 L9,1 Z"/></marker></defs><defs><marker orient="auto" markerHeight="28" markerWidth="20" refY="7" refX="13" class="marker dependency classDiagram" id="my-svg_classDiagram-dependencyEnd"><path d="M 18,7 L9,13 L14,7 L9,1 Z"/></marker></defs><defs><marker orient="auto" markerHeight="240" markerWidth="190" refY="7" refX="13" class="marker lollipop classDiagram" id="my-svg_classDiagram-lollipopStart"><circle r="6" cy="7" cx="7" fill="transparent" stroke="black"/></marker></defs><defs><marker orient="auto" markerHeight="240" markerWidth="190" refY="7" refX="1" class="marker lollipop classDiagram" id="my-svg_classDiagram-lollipopEnd"><circle r="6" cy="7" cx="7" fill="transparent" stroke="black"/></marker></defs><g class="root"><g class="clusters"/><g class="edgePaths"><path marker-end="url(#my-svg_classDiagram-dependencyEnd)" style="fill:none" class="edge-pattern-solid relation" id="id1" d="M875.927734375,188.81969248831592L897.9703776041666,195.26641040692994C920.0130208333334,201.71312832554395,964.0983072916666,214.60656416277197,986.1409505208334,225.63661541471933C1008.18359375,236.66666666666666,1008.18359375,245.83333333333334,1008.18359375,250.41666666666666L1008.18359375,255"/><path marker-end="url(#my-svg_classDiagram-dependencyEnd)" style="fill:none" class="edge-pattern-solid relation" id="id2" d="M575.654296875,194L575.654296875,199.58333333333334C575.654296875,205.16666666666666,575.654296875,216.33333333333334,575.654296875,235.66666666666666C575.654296875,255,575.654296875,282.5,575.654296875,310C575.654296875,337.5,575.654296875,365,580.0202205050099,383.59074538506337C584.3861441350197,402.1814907701268,593.1179913950394,411.86298154025354,597.4839150250492,416.7037269253169L601.8498386550591,421.54447231038034"/><path marker-end="url(#my-svg_classDiagram-compositionEnd)" style="fill:none" class="edge-pattern-solid relation" id="id3" d="M1026.273224431818,359L1028.3344578598483,364.5833333333333C1030.3956912878787,370.1666666666667,1034.5181581439394,381.3333333333333,1036.5793915719696,408C1038.640625,434.6666666666667,1038.640625,476.8333333333333,1038.640625,519C1038.640625,561.1666666666666,1038.640625,603.3333333333334,996.1937064019077,635.7311559350409C953.7467878038154,668.1289785367485,868.8529506076308,690.757957073497,826.4060320095385,702.0724463418711L783.9591134114461,713.3869356102454"/><path marker-end="url(#my-svg_classDiagram-dependencyEnd)" style="fill:none" class="edge-pattern-solid relation" id="id4" d="M904.5724905303031,359L892.7664634627525,364.5833333333333C880.9604363952021,370.1666666666667,857.3483822601011,381.3333333333333,839.938315276395,391.8399939497338C822.5282482926891,402.34665456613425,811.3201684603782,412.1933091322685,805.7161285442227,417.1166364153357L800.1120886280672,422.03996369840274"/><path marker-end="url(#my-svg_classDiagram-aggregationEnd)" style="fill:none" class="edge-pattern-solid relation" id="id5" d="M285.1319864748024,578.5L304.8127882081687,589.6666666666666C324.49358994153494,600.8333333333334,363.8551934082675,623.1666666666666,415.6340333405063,644.7515264641999C467.4128732727451,666.3363862617331,531.6089496704902,687.1727725234663,563.7069878693628,697.5909656543328L595.8050260682354,708.0091587851994"/><path marker-end="url(#my-svg_classDiagram-dependencyEnd)" style="fill:none" class="edge-pattern-solid relation" id="id6" d="M275.380859375,178.80146496993652L244.0556640625,186.9178874749471C212.73046875,195.0343099799577,150.080078125,211.26715498997885,118.7548828125,233.1335774949894C87.4296875,255,87.4296875,282.5,87.4296875,310C87.4296875,337.5,87.4296875,365,95.03304049729438,389.1104722487748C102.63639349458877,413.2209444975495,117.84309948917753,433.9418889950991,125.44645248647191,444.3023612438738L133.0498054837663,454.66283349264864"/><path marker-end="url(#my-svg_classDiagram-dependencyEnd)" style="fill:none" class="edge-pattern-solid relation" id="id7" d="M169.2875957262846,578.5L167.2272933135705,589.6666666666666C165.1669909008564,600.8333333333334,161.04638607542822,623.1666666666666,158.9860836627141,638.9166666666666C156.92578125,654.6666666666666,156.92578125,663.8333333333334,156.92578125,668.4166666666666L156.92578125,673"/><path marker-end="url(#my-svg_classDiagram-dependencyEnd)" style="fill:none" class="edge-pattern-dashed relation" id="id8" d="M689.74609375,612L689.74609375,617.5833333333334C689.74609375,623.1666666666666,689.74609375,634.3333333333334,689.74609375,646.25C689.74609375,658.1666666666666,689.74609375,670.8333333333334,689.74609375,677.1666666666666L689.74609375,683.5"/><path style="fill:none" class="edge-pattern-dotted relation" id="edgeNote9" d="M294.357421875,334L294.357421875,343.75C294.357421875,353.5,294.357421875,373,284.28607748682475,393.9166666666667C274.21473309864956,414.8333333333333,254.0720443222991,437.1666666666667,244.00069993412384,448.3333333333333L233.92935554594862,459.5"/></g><g class="edgeLabels"><g transform="translate(1008.18359375, 227.5)" class="edgeLabel"><g transform="translate(-21.3515625, -8.5)" class="label"><rect height="17.65666961669922" width="43.476768493652344" ry="0" rx="0"/><text style=""><tspan class="row" x="0" dy="1em" xml:space="preserve">sends</tspan></text></g></g><g transform="translate(575.654296875, 310)" class="edgeLabel"><g transform="translate(-111.6328125, -8.5)" class="label"><rect height="17.65666961669922" width="222.9844207763672" ry="0" rx="0"/><text style=""><tspan class="row" x="0" dy="1em" xml:space="preserve">connected via one way channel</tspan></text></g></g><g transform="translate(1038.640625, 519)" class="edgeLabel"><g transform="translate(-26.6796875, -8.5)" class="label"><rect height="17.65666961669922" width="54.118629455566406" ry="0" rx="0"/><text style=""><tspan class="row" x="0" dy="1em" xml:space="preserve">collects</tspan></text></g></g><g transform="translate(833.736328125, 392.5)" class="edgeLabel"><g transform="translate(-40.9140625, -8.5)" class="label"><rect height="17.65666961669922" width="82.54891204833984" ry="0" rx="0"/><text style=""><tspan class="row" x="0" dy="1em" xml:space="preserve">received by</tspan></text></g></g><g transform="translate(403.216796875, 645.5)" class="edgeLabel"><g transform="translate(-26.6796875, -8.5)" class="label"><rect height="17.65666961669922" width="54.118629455566406" ry="0" rx="0"/><text style=""><tspan class="row" x="0" dy="1em" xml:space="preserve">collects</tspan></text></g></g><g transform="translate(87.4296875, 310)" class="edgeLabel"><g transform="translate(-16.0078125, -8.5)" class="label"><rect height="17.65666961669922" width="32.80371856689453" ry="0" rx="0"/><text style=""><tspan class="row" x="0" dy="1em" xml:space="preserve">calls</tspan></text></g></g><g class="edgeLabel"><g transform="translate(0, 0)" class="label"><rect height="0" width="0" ry="0" rx="0"/><text style=""><tspan class="row" x="0" dy="1em" xml:space="preserve"/></text></g></g><g transform="translate(689.74609375, 645.5)" class="edgeLabel"><g transform="translate(-16.8984375, -8.5)" class="label"><rect height="17.65666961669922" width="34.59035110473633" ry="0" rx="0"/><text style=""><tspan class="row" x="0" dy="1em" xml:space="preserve">uses</tspan></text></g></g><g class="edgeLabel"><g transform="translate(0, 0)" class="label"><rect height="0" width="0" ry="0" rx="0"/><text style=""><tspan class="row" x="0" dy="1em" xml:space="preserve"/></text></g></g></g><g class="nodes"><g transform="translate(180.265625, 519)" id="classId-ServiceDiscoverer-0" class="node default"><rect height="119" width="344.53125" y="-59.5" x="-172.265625" class="outer title-state"/><line y2="-9.5" y1="-9.5" x2="172.265625" x1="-172.265625" class="divider"/><line y2="6.5" y1="6.5" x2="172.265625" x1="-172.265625" class="divider"/><g class="label"><text transform="translate( -22.28515625, -52)" style=""><tspan class="title-row" x="0" dy="1em" xml:space="preserve">«trait»</tspan></text><text transform="translate( -69.828125, -31)" class="classTitle" style=""><tspan class="title-row" x="0" dy="1em" xml:space="preserve">ServiceDiscoverer</tspan></text><text transform="translate( -164.765625, 14)" style=""><tspan class="title-row" x="0" dy="1em" xml:space="preserve">+discover() : Result&lt;Vec&lt;ConnectionConfig&gt;&gt;</tspan></text><text transform="translate( -164.765625, 35)" style=""><tspan class="title-row" x="0" dy="1em" xml:space="preserve">+mode() : DiscoveryMode</tspan></text></g></g><g transform="translate(156.92578125, 738.5)" id="classId-DiscoveryMode-1" class="node default"><rect height="119" width="133.3671875" y="-59.5" x="-66.68359375" class="outer title-state"/><line y2="-9.5" y1="-9.5" x2="66.68359375" x1="-66.68359375" class="divider"/><line y2="48.5" y1="48.5" x2="66.68359375" x1="-66.68359375" class="divider"/><g class="label"><text transform="translate( -28.9609375, -52)" style=""><tspan class="title-row" x="0" dy="1em" xml:space="preserve">«enum»</tspan></text><text transform="translate( -59.18359375, -31)" class="classTitle" style=""><tspan class="title-row" x="0" dy="1em" xml:space="preserve">DiscoveryMode</tspan></text><text transform="translate( -59.18359375, 2)" style=""><tspan class="title-row" x="0" dy="1em" xml:space="preserve">+Polling</tspan></text><text transform="translate( -59.18359375, 23)" style=""><tspan class="title-row" x="0" dy="1em" xml:space="preserve">+Continuous</tspan></text></g></g><g transform="translate(575.654296875, 101)" id="classId-DiscoveryTask-2" class="node default"><rect height="186" width="600.546875" y="-93" x="-300.2734375" class="outer title-state"/><line y2="-64" y1="-64" x2="300.2734375" x1="-300.2734375" class="divider"/><line y2="16" y1="16" x2="300.2734375" x1="-300.2734375" class="divider"/><g class="label"><text style=""><tspan class="title-row" x="0" dy="1em" xml:space="preserve"/></text><text transform="translate( -55.9375, -85.5)" class="classTitle" style=""><tspan class="title-row" x="0" dy="1em" xml:space="preserve">DiscoveryTask</tspan></text><text transform="translate( -292.7734375, -52.5)" style=""><tspan class="title-row" x="0" dy="1em" xml:space="preserve">discovery: dyn ServiceDiscoverer</tspan></text><text transform="translate( -292.7734375, -31.5)" style=""><tspan class="title-row" x="0" dy="1em" xml:space="preserve">monoliths: HashSet&lt;ConnectionConfig&gt;</tspan></text><text transform="translate( -292.7734375, -10.5)" style=""><tspan class="title-row" x="0" dy="1em" xml:space="preserve">discovery_tx: Sender&lt;ServiceDiscoveryMsg&gt;</tspan></text><text transform="translate( -292.7734375, 23.5)" style=""><tspan class="title-row" x="0" dy="1em" xml:space="preserve">+new(discovery: ServiceDiscoverer, discovery_tx: Sender&lt;ServiceDiscoveryMsg&gt;)</tspan></text><text transform="translate( -292.7734375, 45.5)" style=""><tspan class="title-row" x="0" dy="1em" xml:space="preserve">+do_continuous_discovery()</tspan></text><text transform="translate( -292.7734375, 67.5)" style=""><tspan class="title-row" x="0" dy="1em" xml:space="preserve">-do_discovery()</tspan></text></g></g><g transform="translate(1008.18359375, 310)" id="classId-ServiceDiscoveryMsg-3" class="node default"><rect height="98" width="258.71875" y="-49" x="-129.359375" class="outer title-state"/><line y2="-20" y1="-20" x2="129.359375" x1="-129.359375" class="divider"/><line y2="38" y1="38" x2="129.359375" x1="-129.359375" class="divider"/><g class="label"><text style=""><tspan class="title-row" x="0" dy="1em" xml:space="preserve"/></text><text transform="translate( -82.71875, -41.5)" class="classTitle" style=""><tspan class="title-row" x="0" dy="1em" xml:space="preserve">ServiceDiscoveryMsg</tspan></text><text transform="translate( -121.859375, -8.5)" style=""><tspan class="title-row" x="0" dy="1em" xml:space="preserve">added: Vec&lt;ConnectionConfig&gt;</tspan></text><text transform="translate( -121.859375, 12.5)" style=""><tspan class="title-row" x="0" dy="1em" xml:space="preserve">removed: Vec&lt;ConnectionConfig&gt;</tspan></text></g></g><g transform="translate(689.74609375, 519)" id="classId-MonolithConnectionManager-4" class="node default"><rect height="186" width="574.4296875" y="-93" x="-287.21484375" class="outer title-state"/><line y2="-64" y1="-64" x2="287.21484375" x1="-287.21484375" class="divider"/><line y2="38" y1="38" x2="287.21484375" x1="-287.21484375" class="divider"/><g class="label"><text style=""><tspan class="title-row" x="0" dy="1em" xml:space="preserve"/></text><text transform="translate( -110.21875, -85.5)" class="classTitle" style=""><tspan class="title-row" x="0" dy="1em" xml:space="preserve">MonolithConnectionManager</tspan></text><text transform="translate( -279.71484375, -52.5)" style=""><tspan class="title-row" x="0" dy="1em" xml:space="preserve">discovery_rx: Receiver&lt;ServiceDiscoveryMsg&gt;</tspan></text><text transform="translate( -279.71484375, -30.5)" style=""><tspan class="title-row" x="0" dy="1em" xml:space="preserve">link: BalancerLink</tspan></text><text transform="translate( -279.71484375, -9.5)" style=""><tspan class="title-row" x="0" dy="1em" xml:space="preserve">monoliths: HashSet&lt;ConnectionConfig&gt;</tspan></text><text transform="translate( -279.71484375, 11.5)" style=""><tspan class="title-row" x="0" dy="1em" xml:space="preserve">connection_tasks: HashMap</tspan></text><text transform="translate( -279.71484375, 45.5)" style=""><tspan class="title-row" x="0" dy="1em" xml:space="preserve">+new(discovery_rx: Receiver&lt;ServiceDiscoveryMsg&gt;, link: BalancerLink) : Self</tspan></text><text transform="translate( -279.71484375, 67.5)" style=""><tspan class="title-row" x="0" dy="1em" xml:space="preserve">+do_connection_job()</tspan></text></g></g><g transform="translate(689.74609375, 738.5)" id="classId-ConnectionConfig-5" class="node default"><rect height="98" width="153.640625" y="-49" x="-76.8203125" class="outer title-state"/><line y2="-20" y1="-20" x2="76.8203125" x1="-76.8203125" class="divider"/><line y2="38" y1="38" x2="76.8203125" x1="-76.8203125" class="divider"/><g class="label"><text style=""><tspan class="title-row" x="0" dy="1em" xml:space="preserve"/></text><text transform="translate( -69.3203125, -41.5)" class="classTitle" style=""><tspan class="title-row" x="0" dy="1em" xml:space="preserve">ConnectionConfig</tspan></text><text transform="translate( -69.3203125, -8.5)" style=""><tspan class="title-row" x="0" dy="1em" xml:space="preserve">host: HostOrIp</tspan></text><text transform="translate( -69.3203125, 12.5)" style=""><tspan class="title-row" x="0" dy="1em" xml:space="preserve">port: u16</tspan></text></g></g><g transform="translate(294.357421875, 310)" id="note0" class="node undefined"><rect height="48" width="269.328125" y="-24" x="-134.6640625" ry="0" rx="0"/><g transform="translate(-127.1640625, -16.5)" style="" class="label"><rect/><text style=""><tspan class="row" x="0" dy="1em" xml:space="preserve">Abstraction over whatever method</tspan><tspan class="row" x="0" dy="1em" xml:space="preserve">is actually used to discover services</tspan></text></g></g></g></g></g></svg>