<svg aria-roledescription="classDiagram" role="graphics-document document" viewBox="-8 -8 1013.7421875 812" style="max-width: 1013.74px; background-color: white;" xmlns:xlink="http://www.w3.org/1999/xlink" xmlns="http://www.w3.org/2000/svg" width="100%" id="my-svg"><style>#my-svg{font-family:"trebuchet ms",verdana,arial,sans-serif;font-size:16px;fill:#000000;}#my-svg .error-icon{fill:#552222;}#my-svg .error-text{fill:#552222;stroke:#552222;}#my-svg .edge-thickness-normal{stroke-width:2px;}#my-svg .edge-thickness-thick{stroke-width:3.5px;}#my-svg .edge-pattern-solid{stroke-dasharray:0;}#my-svg .edge-pattern-dashed{stroke-dasharray:3;}#my-svg .edge-pattern-dotted{stroke-dasharray:2;}#my-svg .marker{fill:#666;stroke:#666;}#my-svg .marker.cross{stroke:#666;}#my-svg svg{font-family:"trebuchet ms",verdana,arial,sans-serif;font-size:16px;}#my-svg g.classGroup text{fill:#999;stroke:none;font-family:"trebuchet ms",verdana,arial,sans-serif;font-size:10px;}#my-svg g.classGroup text .title{font-weight:bolder;}#my-svg .nodeLabel,#my-svg .edgeLabel{color:#111111;}#my-svg .edgeLabel .label rect{fill:#eee;}#my-svg .label text{fill:#111111;}#my-svg .edgeLabel .label span{background:#eee;}#my-svg .classTitle{font-weight:bolder;}#my-svg .node rect,#my-svg .node circle,#my-svg .node ellipse,#my-svg .node polygon,#my-svg .node path{fill:#eee;stroke:#999;stroke-width:1px;}#my-svg .divider{stroke:#999;stroke-width:1;}#my-svg g.clickable{cursor:pointer;}#my-svg g.classGroup rect{fill:#eee;stroke:#999;}#my-svg g.classGroup line{stroke:#999;stroke-width:1;}#my-svg .classLabel .box{stroke:none;stroke-width:0;fill:#eee;opacity:0.5;}#my-svg .classLabel .label{fill:#999;font-size:10px;}#my-svg .relation{stroke:#666;stroke-width:1;fill:none;}#my-svg .dashed-line{stroke-dasharray:3;}#my-svg .dotted-line{stroke-dasharray:1 2;}#my-svg #compositionStart,#my-svg .composition{fill:#666!important;stroke:#666!important;stroke-width:1;}#my-svg #compositionEnd,#my-svg .composition{fill:#666!important;stroke:#666!important;stroke-width:1;}#my-svg #dependencyStart,#my-svg .dependency{fill:#666!important;stroke:#666!important;stroke-width:1;}#my-svg #dependencyStart,#my-svg .dependency{fill:#666!important;stroke:#666!important;stroke-width:1;}#my-svg #extensionStart,#my-svg .extension{fill:transparent!important;stroke:#666!important;stroke-width:1;}#my-svg #extensionEnd,#my-svg .extension{fill:transparent!important;stroke:#666!important;stroke-width:1;}#my-svg #aggregationStart,#my-svg .aggregation{fill:transparent!important;stroke:#666!important;stroke-width:1;}#my-svg #aggregationEnd,#my-svg .aggregation{fill:transparent!important;stroke:#666!important;stroke-width:1;}#my-svg #lollipopStart,#my-svg .lollipop{fill:#eee!important;stroke:#666!important;stroke-width:1;}#my-svg #lollipopEnd,#my-svg .lollipop{fill:#eee!important;stroke:#666!important;stroke-width:1;}#my-svg .edgeTerminals{font-size:11px;}#my-svg .classTitleText{text-anchor:middle;font-size:18px;fill:#000000;}#my-svg :root{--mermaid-font-family:"trebuchet ms",verdana,arial,sans-serif;}</style><g><defs><marker orient="auto" markerHeight="240" markerWidth="190" refY="7" refX="18" class="marker aggregation classDiagram" id="my-svg_classDiagram-aggregationStart"><path d="M 18,7 L9,13 L1,7 L9,1 Z"/></marker></defs><defs><marker orient="auto" markerHeight="28" markerWidth="20" refY="7" refX="1" class="marker aggregation classDiagram" id="my-svg_classDiagram-aggregationEnd"><path d="M 18,7 L9,13 L1,7 L9,1 Z"/></marker></defs><defs><marker orient="auto" markerHeight="240" markerWidth="190" refY="7" refX="18" class="marker extension classDiagram" id="my-svg_classDiagram-extensionStart"><path d="M 1,7 L18,13 V 1 Z"/></marker></defs><defs><marker orient="auto" markerHeight="28" markerWidth="20" refY="7" refX="1" class="marker extension classDiagram" id="my-svg_classDiagram-extensionEnd"><path d="M 1,1 V 13 L18,7 Z"/></marker></defs><defs><marker orient="auto" markerHeight="240" markerWidth="190" refY="7" refX="18" class="marker composition classDiagram" id="my-svg_classDiagram-compositionStart"><path d="M 18,7 L9,13 L1,7 L9,1 Z"/></marker></defs><defs><marker orient="auto" markerHeight="28" markerWidth="20" refY="7" refX="1" class="marker composition classDiagram" id="my-svg_classDiagram-compositionEnd"><path d="M 18,7 L9,13 L1,7 L9,1 Z"/></marker></defs><defs><marker orient="auto" markerHeight="240" markerWidth="190" refY="7" refX="6" class="marker dependency classDiagram" id="my-svg_classDiagram-dependencyStart"><path d="M 5,7 L9,13 L1,7 L9,1 Z"/></marker></defs><defs><marker orient="auto" markerHeight="28" markerWidth="20" refY="7" refX="13" class="marker dependency classDiagram" id="my-svg_classDiagram-dependencyEnd"><path d="M 18,7 L9,13 L14,7 L9,1 Z"/></marker></defs><defs><marker orient="auto" markerHeight="240" markerWidth="190" refY="7" refX="13" class="marker lollipop classDiagram" id="my-svg_classDiagram-lollipopStart"><circle r="6" cy="7" cx="7" fill="transparent" stroke="black"/></marker></defs><defs><marker orient="auto" markerHeight="240" markerWidth="190" refY="7" refX="1" class="marker lollipop classDiagram" id="my-svg_classDiagram-lollipopEnd"><circle r="6" cy="7" cx="7" fill="transparent" stroke="black"/></marker></defs><g class="root"><g class="clusters"/><g class="edgePaths"><path marker-end="url(#my-svg_classDiagram-dependencyEnd)" style="fill:none" class="edge-pattern-solid relation" id="id1" d="M722.8515625,168.09920378203532L747.1067708333334,177.83266981836277C771.3619791666666,187.5661358546902,819.8723958333334,207.03306792734512,844.1276041666666,221.3498672970059C868.3828125,235.66666666666666,868.3828125,244.83333333333334,868.3828125,249.41666666666666L868.3828125,254"/><path marker-end="url(#my-svg_classDiagram-dependencyEnd)" style="fill:none" class="edge-pattern-solid relation" id="id2" d="M554.3984375,193L554.3984375,198.58333333333334C554.3984375,204.16666666666666,554.3984375,215.33333333333334,554.3984375,234.66666666666666C554.3984375,254,554.3984375,281.5,554.3984375,309C554.3984375,336.5,554.3984375,364,556.5433573566837,382.4244500302134C558.6882772133673,400.84890006042684,562.9781169267347,410.19780012085374,565.1230367834183,414.87225015106713L567.267956640102,419.5467001812805"/><path marker-end="url(#my-svg_classDiagram-compositionEnd)" style="fill:none" class="edge-pattern-solid relation" id="id3" d="M886.4724431818182,358L888.5336766098485,363.5833333333333C890.5949100378788,369.1666666666667,894.7173768939393,380.3333333333333,896.7786103219697,406.9166666666667C898.83984375,433.5,898.83984375,475.5,898.83984375,517.5C898.83984375,559.5,898.83984375,601.5,866.7259458250129,632.9198604693373C834.6120479000259,664.3397209386745,770.3842520500519,685.1794418773492,738.2703541250648,695.5993023466863L706.1564562000779,706.0191628160236"/><path marker-end="url(#my-svg_classDiagram-dependencyEnd)" style="fill:none" class="edge-pattern-solid relation" id="id4" d="M798.1958806818182,358L790.1983901515151,363.5833333333333C782.2008996212121,369.1666666666667,766.2059185606062,380.3333333333333,752.8319977497076,390.8257202271413C739.4580769388091,401.3181071209492,728.7052163776183,411.1362142418985,723.3287860970227,416.0452678023731L717.9523558164273,420.95432136284774"/><path marker-end="url(#my-svg_classDiagram-aggregationEnd)" style="fill:none" class="edge-pattern-solid relation" id="id5" d="M275.51063368055554,577L293.2523509837963,588.0833333333334C310.994068287037,599.1666666666666,346.47750289351853,621.3333333333334,387.0098141968681,641.6218318537833C427.54212550021765,661.9103303742332,473.12331350043524,680.3206607484666,495.9139075005441,689.5258259355833L518.7045015006529,698.7309911226998"/><path marker-end="url(#my-svg_classDiagram-dependencyEnd)" style="fill:none" class="edge-pattern-solid relation" id="id6" d="M385.9453125,145.95292110018067L336.1927083333333,159.37743425015057C286.4401041666667,172.80194740012044,186.93489583333334,199.65097370006023,137.18229166666666,226.8254868500301C87.4296875,254,87.4296875,281.5,87.4296875,309C87.4296875,336.5,87.4296875,364,95.00263813562884,388.0282586763799C102.57558877125769,412.0565173527598,117.72149004251538,432.6130347055195,125.29444067814423,442.8912933818994L132.86739131377308,453.16955205827924"/><path marker-end="url(#my-svg_classDiagram-dependencyEnd)" style="fill:none" class="edge-pattern-solid relation" id="id7" d="M169.24403211805554,577L167.19099030671296,588.0833333333334C165.13794849537035,599.1666666666666,161.0318648726852,621.3333333333334,158.97882306134258,637C156.92578125,652.6666666666666,156.92578125,661.8333333333334,156.92578125,666.4166666666666L156.92578125,671"/><path marker-end="url(#my-svg_classDiagram-dependencyEnd)" style="fill:none" class="edge-pattern-dashed relation" id="id8" d="M612.21484375,610L612.21484375,615.5833333333334C612.21484375,621.1666666666666,612.21484375,632.3333333333334,612.21484375,644.25C612.21484375,656.1666666666666,612.21484375,668.8333333333334,612.21484375,675.1666666666666L612.21484375,681.5"/><path style="fill:none" class="edge-pattern-dotted relation" id="edgeNote9" d="M273.1015625,333L273.1015625,342.75C273.1015625,352.5,273.1015625,372,264.93543836805554,392.8333333333333C256.76931423611114,413.6666666666667,240.43706597222226,435.8333333333333,232.2709418402778,446.9166666666667L224.10481770833334,458"/></g><g class="edgeLabels"><g transform="translate(868.3828125, 226.5)" class="edgeLabel"><g transform="translate(-21.3515625, -8.5)" class="label"><rect height="18.10280990600586" width="42.65070724487305" ry="0" rx="0"/><text style=""><tspan class="row" x="0" dy="1em" xml:space="preserve">sends</tspan></text></g></g><g transform="translate(554.3984375, 309)" class="edgeLabel"><g transform="translate(-111.6328125, -8.5)" class="label"><rect height="18.10280990600586" width="223.0120849609375" ry="0" rx="0"/><text style=""><tspan class="row" x="0" dy="1em" xml:space="preserve">connected via one way channel</tspan></text></g></g><g transform="translate(898.83984375, 517.5)" class="edgeLabel"><g transform="translate(-26.6796875, -8.5)" class="label"><rect height="18.10280990600586" width="53.2982292175293" ry="0" rx="0"/><text style=""><tspan class="row" x="0" dy="1em" xml:space="preserve">collects</tspan></text></g></g><g transform="translate(750.2109375, 391.5)" class="edgeLabel"><g transform="translate(-40.9140625, -8.5)" class="label"><rect height="18.10280990600586" width="82.7859115600586" ry="0" rx="0"/><text style=""><tspan class="row" x="0" dy="1em" xml:space="preserve">received by</tspan></text></g></g><g transform="translate(381.9609375, 643.5)" class="edgeLabel"><g transform="translate(-26.6796875, -8.5)" class="label"><rect height="18.10280990600586" width="53.2982292175293" ry="0" rx="0"/><text style=""><tspan class="row" x="0" dy="1em" xml:space="preserve">collects</tspan></text></g></g><g transform="translate(87.4296875, 309)" class="edgeLabel"><g transform="translate(-16.0078125, -8.5)" class="label"><rect height="18.10280990600586" width="31.98297882080078" ry="0" rx="0"/><text style=""><tspan class="row" x="0" dy="1em" xml:space="preserve">calls</tspan></text></g></g><g class="edgeLabel"><g transform="translate(0, 0)" class="label"><rect height="0" width="0" ry="0" rx="0"/><text style=""><tspan class="row" x="0" dy="1em" xml:space="preserve"/></text></g></g><g transform="translate(612.21484375, 643.5)" class="edgeLabel"><g transform="translate(-16.8984375, -8.5)" class="label"><rect height="18.10280990600586" width="33.76093292236328" ry="0" rx="0"/><text style=""><tspan class="row" x="0" dy="1em" xml:space="preserve">uses</tspan></text></g></g><g class="edgeLabel"><g transform="translate(0, 0)" class="label"><rect height="0" width="0" ry="0" rx="0"/><text style=""><tspan class="row" x="0" dy="1em" xml:space="preserve"/></text></g></g></g><g class="nodes"><g transform="translate(180.265625, 517.5)" id="classId-ServiceDiscoverer-0" class="node default"><rect height="119" width="344.53125" y="-59.5" x="-172.265625" class="outer title-state"/><line y2="-9.5" y1="-9.5" x2="172.265625" x1="-172.265625" class="divider"/><line y2="6.5" y1="6.5" x2="172.265625" x1="-172.265625" class="divider"/><g class="label"><text transform="translate( -22.28515625, -52)" style=""><tspan class="title-row" x="0" dy="1em" xml:space="preserve">«trait»</tspan></text><text transform="translate( -69.828125, -31)" class="classTitle" style=""><tspan class="title-row" x="0" dy="1em" xml:space="preserve">ServiceDiscoverer</tspan></text><text transform="translate( -164.765625, 14)" style=""><tspan class="title-row" x="0" dy="1em" xml:space="preserve">+discover() : Result&lt;Vec&lt;ConnectionConfig&gt;&gt;</tspan></text><text transform="translate( -164.765625, 35)" style=""><tspan class="title-row" x="0" dy="1em" xml:space="preserve">+mode() : DiscoveryMode</tspan></text></g></g><g transform="translate(156.92578125, 736.5)" id="classId-DiscoveryMode-1" class="node default"><rect height="119" width="133.3671875" y="-59.5" x="-66.68359375" class="outer title-state"/><line y2="-9.5" y1="-9.5" x2="66.68359375" x1="-66.68359375" class="divider"/><line y2="48.5" y1="48.5" x2="66.68359375" x1="-66.68359375" class="divider"/><g class="label"><text transform="translate( -28.9609375, -52)" style=""><tspan class="title-row" x="0" dy="1em" xml:space="preserve">«enum»</tspan></text><text transform="translate( -59.18359375, -31)" class="classTitle" style=""><tspan class="title-row" x="0" dy="1em" xml:space="preserve">DiscoveryMode</tspan></text><text transform="translate( -59.18359375, 2)" style=""><tspan class="title-row" x="0" dy="1em" xml:space="preserve">+Polling</tspan></text><text transform="translate( -59.18359375, 23)" style=""><tspan class="title-row" x="0" dy="1em" xml:space="preserve">+Continuous</tspan></text></g></g><g transform="translate(554.3984375, 100.5)" id="classId-DiscoveryTask-2" class="node default"><rect height="185" width="336.90625" y="-92.5" x="-168.453125" class="outer title-state"/><line y2="-63.5" y1="-63.5" x2="168.453125" x1="-168.453125" class="divider"/><line y2="16.5" y1="16.5" x2="168.453125" x1="-168.453125" class="divider"/><g class="label"><text style=""><tspan class="title-row" x="0" dy="1em" xml:space="preserve"/></text><text transform="translate( -55.9375, -85)" class="classTitle" style=""><tspan class="title-row" x="0" dy="1em" xml:space="preserve">DiscoveryTask</tspan></text><text transform="translate( -160.953125, -52)" style=""><tspan class="title-row" x="0" dy="1em" xml:space="preserve">discovery: dyn ServiceDiscoverer</tspan></text><text transform="translate( -160.953125, -31)" style=""><tspan class="title-row" x="0" dy="1em" xml:space="preserve">monoliths: HashSet&lt;ConnectionConfig&gt;</tspan></text><text transform="translate( -160.953125, -10)" style=""><tspan class="title-row" x="0" dy="1em" xml:space="preserve">discovery_tx: Sender&lt;ServiceDiscoveryMsg&gt;</tspan></text><text transform="translate( -160.953125, 24)" style=""><tspan class="title-row" x="0" dy="1em" xml:space="preserve">+new()</tspan></text><text transform="translate( -160.953125, 45)" style=""><tspan class="title-row" x="0" dy="1em" xml:space="preserve">+do_continuous_discovery()</tspan></text><text transform="translate( -160.953125, 67)" style=""><tspan class="title-row" x="0" dy="1em" xml:space="preserve">-do_discovery()</tspan></text></g></g><g transform="translate(868.3828125, 309)" id="classId-ServiceDiscoveryMsg-3" class="node default"><rect height="98" width="258.71875" y="-49" x="-129.359375" class="outer title-state"/><line y2="-20" y1="-20" x2="129.359375" x1="-129.359375" class="divider"/><line y2="38" y1="38" x2="129.359375" x1="-129.359375" class="divider"/><g class="label"><text style=""><tspan class="title-row" x="0" dy="1em" xml:space="preserve"/></text><text transform="translate( -82.71875, -41.5)" class="classTitle" style=""><tspan class="title-row" x="0" dy="1em" xml:space="preserve">ServiceDiscoveryMsg</tspan></text><text transform="translate( -121.859375, -8.5)" style=""><tspan class="title-row" x="0" dy="1em" xml:space="preserve">added: Vec&lt;ConnectionConfig&gt;</tspan></text><text transform="translate( -121.859375, 12.5)" style=""><tspan class="title-row" x="0" dy="1em" xml:space="preserve">removed: Vec&lt;ConnectionConfig&gt;</tspan></text></g></g><g transform="translate(612.21484375, 517.5)" id="classId-MonolithConnectionManager-4" class="node default"><rect height="185" width="349.328125" y="-92.5" x="-174.6640625" class="outer title-state"/><line y2="-63.5" y1="-63.5" x2="174.6640625" x1="-174.6640625" class="divider"/><line y2="38.5" y1="38.5" x2="174.6640625" x1="-174.6640625" class="divider"/><g class="label"><text style=""><tspan class="title-row" x="0" dy="1em" xml:space="preserve"/></text><text transform="translate( -110.21875, -85)" class="classTitle" style=""><tspan class="title-row" x="0" dy="1em" xml:space="preserve">MonolithConnectionManager</tspan></text><text transform="translate( -167.1640625, -52)" style=""><tspan class="title-row" x="0" dy="1em" xml:space="preserve">discovery_rx: Receiver&lt;ServiceDiscoveryMsg&gt;</tspan></text><text transform="translate( -167.1640625, -30)" style=""><tspan class="title-row" x="0" dy="1em" xml:space="preserve">link: BalancerLink</tspan></text><text transform="translate( -167.1640625, -9)" style=""><tspan class="title-row" x="0" dy="1em" xml:space="preserve">monoliths: HashSet&lt;ConnectionConfig&gt;</tspan></text><text transform="translate( -167.1640625, 12)" style=""><tspan class="title-row" x="0" dy="1em" xml:space="preserve">connection_tasks: HashMap</tspan></text><text transform="translate( -167.1640625, 46)" style=""><tspan class="title-row" x="0" dy="1em" xml:space="preserve">+new() : Self</tspan></text><text transform="translate( -167.1640625, 67)" style=""><tspan class="title-row" x="0" dy="1em" xml:space="preserve">+do_connection_job()</tspan></text></g></g><g transform="translate(612.21484375, 736.5)" id="classId-ConnectionConfig-5" class="node default"><rect height="98" width="153.640625" y="-49" x="-76.8203125" class="outer title-state"/><line y2="-20" y1="-20" x2="76.8203125" x1="-76.8203125" class="divider"/><line y2="38" y1="38" x2="76.8203125" x1="-76.8203125" class="divider"/><g class="label"><text style=""><tspan class="title-row" x="0" dy="1em" xml:space="preserve"/></text><text transform="translate( -69.3203125, -41.5)" class="classTitle" style=""><tspan class="title-row" x="0" dy="1em" xml:space="preserve">ConnectionConfig</tspan></text><text transform="translate( -69.3203125, -8.5)" style=""><tspan class="title-row" x="0" dy="1em" xml:space="preserve">host: HostOrIp</tspan></text><text transform="translate( -69.3203125, 12.5)" style=""><tspan class="title-row" x="0" dy="1em" xml:space="preserve">port: u16</tspan></text></g></g><g transform="translate(273.1015625, 309)" id="note0" class="node undefined"><rect height="48" width="269.328125" y="-24" x="-134.6640625" ry="0" rx="0"/><g transform="translate(-127.1640625, -16.5)" style="" class="label"><rect/><text style=""><tspan class="row" x="0" dy="1em" xml:space="preserve">Abstraction over whatever method</tspan><tspan class="row" x="0" dy="1em" xml:space="preserve">is actually used to discover services</tspan></text></g></g></g></g></g></svg>