<svg aria-roledescription="classDiagram" role="graphics-document document" viewBox="0 0 1257.53125 498" style="max-width: 1257.53px; background-color: white;" xmlns:xlink="http://www.w3.org/1999/xlink" xmlns="http://www.w3.org/2000/svg" width="100%" id="my-svg"><style>#my-svg{font-family:"trebuchet ms",verdana,arial,sans-serif;font-size:16px;fill:#000000;}#my-svg .error-icon{fill:#552222;}#my-svg .error-text{fill:#552222;stroke:#552222;}#my-svg .edge-thickness-normal{stroke-width:2px;}#my-svg .edge-thickness-thick{stroke-width:3.5px;}#my-svg .edge-pattern-solid{stroke-dasharray:0;}#my-svg .edge-pattern-dashed{stroke-dasharray:3;}#my-svg .edge-pattern-dotted{stroke-dasharray:2;}#my-svg .marker{fill:#666;stroke:#666;}#my-svg .marker.cross{stroke:#666;}#my-svg svg{font-family:"trebuchet ms",verdana,arial,sans-serif;font-size:16px;}#my-svg g.classGroup text{fill:#999;stroke:none;font-family:"trebuchet ms",verdana,arial,sans-serif;font-size:10px;}#my-svg g.classGroup text .title{font-weight:bolder;}#my-svg .nodeLabel,#my-svg .edgeLabel{color:#111111;}#my-svg .edgeLabel .label rect{fill:#eee;}#my-svg .label text{fill:#111111;}#my-svg .edgeLabel .label span{background:#eee;}#my-svg .classTitle{font-weight:bolder;}#my-svg .node rect,#my-svg .node circle,#my-svg .node ellipse,#my-svg .node polygon,#my-svg .node path{fill:#eee;stroke:#999;stroke-width:1px;}#my-svg .divider{stroke:#999;stroke-width:1;}#my-svg g.clickable{cursor:pointer;}#my-svg g.classGroup rect{fill:#eee;stroke:#999;}#my-svg g.classGroup line{stroke:#999;stroke-width:1;}#my-svg .classLabel .box{stroke:none;stroke-width:0;fill:#eee;opacity:0.5;}#my-svg .classLabel .label{fill:#999;font-size:10px;}#my-svg .relation{stroke:#666;stroke-width:1;fill:none;}#my-svg .dashed-line{stroke-dasharray:3;}#my-svg .dotted-line{stroke-dasharray:1 2;}#my-svg #compositionStart,#my-svg .composition{fill:#666!important;stroke:#666!important;stroke-width:1;}#my-svg #compositionEnd,#my-svg .composition{fill:#666!important;stroke:#666!important;stroke-width:1;}#my-svg #dependencyStart,#my-svg .dependency{fill:#666!important;stroke:#666!important;stroke-width:1;}#my-svg #dependencyStart,#my-svg .dependency{fill:#666!important;stroke:#666!important;stroke-width:1;}#my-svg #extensionStart,#my-svg .extension{fill:transparent!important;stroke:#666!important;stroke-width:1;}#my-svg #extensionEnd,#my-svg .extension{fill:transparent!important;stroke:#666!important;stroke-width:1;}#my-svg #aggregationStart,#my-svg .aggregation{fill:transparent!important;stroke:#666!important;stroke-width:1;}#my-svg #aggregationEnd,#my-svg .aggregation{fill:transparent!important;stroke:#666!important;stroke-width:1;}#my-svg #lollipopStart,#my-svg .lollipop{fill:#eee!important;stroke:#666!important;stroke-width:1;}#my-svg #lollipopEnd,#my-svg .lollipop{fill:#eee!important;stroke:#666!important;stroke-width:1;}#my-svg .edgeTerminals{font-size:11px;}#my-svg .classTitleText{text-anchor:middle;font-size:18px;fill:#000000;}#my-svg :root{--mermaid-font-family:"trebuchet ms",verdana,arial,sans-serif;}</style><g><defs><marker orient="auto" markerHeight="240" markerWidth="190" refY="7" refX="18" class="marker aggregation classDiagram" id="my-svg_classDiagram-aggregationStart"><path d="M 18,7 L9,13 L1,7 L9,1 Z"/></marker></defs><defs><marker orient="auto" markerHeight="28" markerWidth="20" refY="7" refX="1" class="marker aggregation classDiagram" id="my-svg_classDiagram-aggregationEnd"><path d="M 18,7 L9,13 L1,7 L9,1 Z"/></marker></defs><defs><marker orient="auto" markerHeight="240" markerWidth="190" refY="7" refX="18" class="marker extension classDiagram" id="my-svg_classDiagram-extensionStart"><path d="M 1,7 L18,13 V 1 Z"/></marker></defs><defs><marker orient="auto" markerHeight="28" markerWidth="20" refY="7" refX="1" class="marker extension classDiagram" id="my-svg_classDiagram-extensionEnd"><path d="M 1,1 V 13 L18,7 Z"/></marker></defs><defs><marker orient="auto" markerHeight="240" markerWidth="190" refY="7" refX="18" class="marker composition classDiagram" id="my-svg_classDiagram-compositionStart"><path d="M 18,7 L9,13 L1,7 L9,1 Z"/></marker></defs><defs><marker orient="auto" markerHeight="28" markerWidth="20" refY="7" refX="1" class="marker composition classDiagram" id="my-svg_classDiagram-compositionEnd"><path d="M 18,7 L9,13 L1,7 L9,1 Z"/></marker></defs><defs><marker orient="auto" markerHeight="240" markerWidth="190" refY="7" refX="6" class="marker dependency classDiagram" id="my-svg_classDiagram-dependencyStart"><path d="M 5,7 L9,13 L1,7 L9,1 Z"/></marker></defs><defs><marker orient="auto" markerHeight="28" markerWidth="20" refY="7" refX="13" class="marker dependency classDiagram" id="my-svg_classDiagram-dependencyEnd"><path d="M 18,7 L9,13 L14,7 L9,1 Z"/></marker></defs><defs><marker orient="auto" markerHeight="240" markerWidth="190" refY="7" refX="13" class="marker lollipop classDiagram" id="my-svg_classDiagram-lollipopStart"><circle r="6" cy="7" cx="7" fill="transparent" stroke="black"/></marker></defs><defs><marker orient="auto" markerHeight="240" markerWidth="190" refY="7" refX="1" class="marker lollipop classDiagram" id="my-svg_classDiagram-lollipopEnd"><circle r="6" cy="7" cx="7" fill="transparent" stroke="black"/></marker></defs><g class="root"><g class="clusters"/><g class="edgePaths"><path marker-end="url(#my-svg_classDiagram-extensionEnd)" style="fill:none" class="edge-pattern-solid relation" id="id1" d="M150.453125,167.5L150.453125,161.58333333333334C150.453125,155.66666666666666,150.453125,143.83333333333334,217.10438575349454,127.98345592454613C283.75564650698914,112.13357851575894,417.0581680139783,92.2671570315179,483.70942876747284,82.33394628939736L550.3606895209674,72.40073554727682"/><path marker-end="url(#my-svg_classDiagram-extensionEnd)" style="fill:none" class="edge-pattern-solid relation" id="id2" d="M488.90625,167.5L488.90625,161.58333333333334C488.90625,155.66666666666666,488.90625,143.83333333333334,499.3919455358492,133.07773941977072C509.8776410716984,122.32214550620809,530.8490321433968,112.64429101241616,541.334727679246,107.80536376552021L551.8204232150953,102.96643651862425"/><path marker-end="url(#my-svg_classDiagram-extensionEnd)" style="fill:none" class="edge-pattern-solid relation" id="id3" d="M811.78125,157L811.78125,152.83333333333334C811.78125,148.66666666666666,811.78125,140.33333333333334,801.2955544641508,131.32773941977072C790.8098589283017,122.32214550620809,769.8384678566032,112.64429101241616,759.352772320754,107.80536376552021L748.8670767849047,102.96643651862425"/><path marker-end="url(#my-svg_classDiagram-extensionEnd)" style="fill:none" class="edge-pattern-solid relation" id="id4" d="M1119.09375,167.5L1119.09375,161.58333333333334C1119.09375,155.66666666666666,1119.09375,143.83333333333334,1057.628177908258,128.14773840888583C996.1626058165161,112.4621434844383,873.2314616330323,92.92428696887661,811.7658895412904,83.15535871109576L750.3003174495485,73.38643045331492"/><path marker-end="url(#my-svg_classDiagram-aggregationEnd)" style="fill:none" class="edge-pattern-solid relation" id="id5" d="M1119.09375,347L1119.09375,342.8333333333333C1119.09375,338.6666666666667,1119.09375,330.3333333333333,1119.09375,323.25C1119.09375,316.1666666666667,1119.09375,310.3333333333333,1119.09375,307.4166666666667L1119.09375,304.5"/><path marker-end="url(#my-svg_classDiagram-aggregationEnd)" style="fill:none" class="edge-pattern-solid relation" id="id6" d="M811.78125,357.5L811.78125,351.5833333333333C811.78125,345.6666666666667,811.78125,333.8333333333333,811.78125,326.75C811.78125,319.6666666666667,811.78125,317.3333333333333,811.78125,316.1666666666667L811.78125,315"/><path marker-end="url(#my-svg_classDiagram-aggregationEnd)" style="fill:none" class="edge-pattern-solid relation" id="id7" d="M150.453125,380L150.453125,370.3333333333333C150.453125,360.6666666666667,150.453125,341.3333333333333,150.453125,328.75C150.453125,316.1666666666667,150.453125,310.3333333333333,150.453125,307.4166666666667L150.453125,304.5"/><path marker-end="url(#my-svg_classDiagram-aggregationEnd)" style="fill:none" class="edge-pattern-solid relation" id="id8" d="M488.90625,380L488.90625,370.3333333333333C488.90625,360.6666666666667,488.90625,341.3333333333333,488.90625,328.75C488.90625,316.1666666666667,488.90625,310.3333333333333,488.90625,307.4166666666667L488.90625,304.5"/></g><g class="edgeLabels"><g class="edgeLabel"><g transform="translate(0, 0)" class="label"><rect height="0" width="0" ry="0" rx="0"/><text style=""><tspan class="row" x="0" dy="1em" xml:space="preserve"/></text></g></g><g class="edgeLabel"><g transform="translate(0, 0)" class="label"><rect height="0" width="0" ry="0" rx="0"/><text style=""><tspan class="row" x="0" dy="1em" xml:space="preserve"/></text></g></g><g class="edgeLabel"><g transform="translate(0, 0)" class="label"><rect height="0" width="0" ry="0" rx="0"/><text style=""><tspan class="row" x="0" dy="1em" xml:space="preserve"/></text></g></g><g class="edgeLabel"><g transform="translate(0, 0)" class="label"><rect height="0" width="0" ry="0" rx="0"/><text style=""><tspan class="row" x="0" dy="1em" xml:space="preserve"/></text></g></g><g class="edgeLabel"><g transform="translate(0, 0)" class="label"><rect height="0" width="0" ry="0" rx="0"/><text style=""><tspan class="row" x="0" dy="1em" xml:space="preserve"/></text></g></g><g class="edgeLabel"><g transform="translate(0, 0)" class="label"><rect height="0" width="0" ry="0" rx="0"/><text style=""><tspan class="row" x="0" dy="1em" xml:space="preserve"/></text></g></g><g class="edgeLabel"><g transform="translate(0, 0)" class="label"><rect height="0" width="0" ry="0" rx="0"/><text style=""><tspan class="row" x="0" dy="1em" xml:space="preserve"/></text></g></g><g class="edgeLabel"><g transform="translate(0, 0)" class="label"><rect height="0" width="0" ry="0" rx="0"/><text style=""><tspan class="row" x="0" dy="1em" xml:space="preserve"/></text></g></g></g><g class="nodes"><g transform="translate(650.34375, 57.5)" id="classId-MonolithDiscoverer-0" class="node default"><rect height="99" width="164.359375" y="-49.5" x="-82.1796875" class="outer title-state"/><line y2="1.5" y1="1.5" x2="82.1796875" x1="-82.1796875" class="divider"/><line y2="17.5" y1="17.5" x2="82.1796875" x1="-82.1796875" class="divider"/><g class="label"><text transform="translate( -35.32421875, -42)" style=""><tspan class="title-row" x="0" dy="1em" xml:space="preserve">«Trait»</tspan></text><text transform="translate( -74.6796875, -20)" class="classTitle" style=""><tspan class="title-row" x="0" dy="1em" xml:space="preserve">MonolithDiscoverer</tspan></text><text transform="translate( -74.6796875, 25)" style=""><tspan class="title-row" x="0" dy="1em" xml:space="preserve">+discover()</tspan></text></g></g><g transform="translate(150.453125, 227)" id="classId-ManualMonolithDiscoverer-1" class="node default"><rect height="119" width="284.90625" y="-59.5" x="-142.453125" class="outer title-state"/><line y2="-30.5" y1="-30.5" x2="142.453125" x1="-142.453125" class="divider"/><line y2="6.5" y1="6.5" x2="142.453125" x1="-142.453125" class="divider"/><g class="label"><text style=""><tspan class="title-row" x="0" dy="1em" xml:space="preserve"/></text><text transform="translate( -102.2421875, -52)" class="classTitle" style=""><tspan class="title-row" x="0" dy="1em" xml:space="preserve">ManualMonolithDiscoverer</tspan></text><text transform="translate( -134.953125, -19)" style=""><tspan class="title-row" x="0" dy="1em" xml:space="preserve">+ManualDiscoveryConfig config</tspan></text><text transform="translate( -134.953125, 14)" style=""><tspan class="title-row" x="0" dy="1em" xml:space="preserve">+new(config: ManualDiscoveryConfig)</tspan></text><text transform="translate( -134.953125, 35)" style=""><tspan class="title-row" x="0" dy="1em" xml:space="preserve">+discover()</tspan></text></g></g><g transform="translate(488.90625, 227)" id="classId-HarnessMonolithDiscoverer-2" class="node default"><rect height="119" width="292" y="-59.5" x="-146" class="outer title-state"/><line y2="-30.5" y1="-30.5" x2="146" x1="-146" class="divider"/><line y2="6.5" y1="6.5" x2="146" x1="-146" class="divider"/><g class="label"><text style=""><tspan class="title-row" x="0" dy="1em" xml:space="preserve"/></text><text transform="translate( -106.2578125, -52)" class="classTitle" style=""><tspan class="title-row" x="0" dy="1em" xml:space="preserve">HarnessMonolithDiscoverer</tspan></text><text transform="translate( -138.5, -19)" style=""><tspan class="title-row" x="0" dy="1em" xml:space="preserve">+HarnessDiscoveryConfig config</tspan></text><text transform="translate( -138.5, 14)" style=""><tspan class="title-row" x="0" dy="1em" xml:space="preserve">+new(config: HarnessDiscoveryConfig)</tspan></text><text transform="translate( -138.5, 35)" style=""><tspan class="title-row" x="0" dy="1em" xml:space="preserve">+discover()</tspan></text></g></g><g transform="translate(811.78125, 227)" id="classId-FlyMonolithDiscoverer-3" class="node default"><rect height="140" width="253.75" y="-70" x="-126.875" class="outer title-state"/><line y2="-41" y1="-41" x2="126.875" x1="-126.875" class="divider"/><line y2="17" y1="17" x2="126.875" x1="-126.875" class="divider"/><g class="label"><text style=""><tspan class="title-row" x="0" dy="1em" xml:space="preserve"/></text><text transform="translate( -86.2421875, -62.5)" class="classTitle" style=""><tspan class="title-row" x="0" dy="1em" xml:space="preserve">FlyMonolithDiscoverer</tspan></text><text transform="translate( -119.375, -29.5)" style=""><tspan class="title-row" x="0" dy="1em" xml:space="preserve">+FlyDiscoveryConfig config</tspan></text><text transform="translate( -119.375, -8.5)" style=""><tspan class="title-row" x="0" dy="1em" xml:space="preserve">+String query</tspan></text><text transform="translate( -119.375, 24.5)" style=""><tspan class="title-row" x="0" dy="1em" xml:space="preserve">+new(config: FlyDiscoveryConfig)</tspan></text><text transform="translate( -119.375, 45.5)" style=""><tspan class="title-row" x="0" dy="1em" xml:space="preserve">+discover()</tspan></text></g></g><g transform="translate(1119.09375, 227)" id="classId-DnsMonolithDiscoverer-4" class="node default"><rect height="119" width="260.875" y="-59.5" x="-130.4375" class="outer title-state"/><line y2="-30.5" y1="-30.5" x2="130.4375" x1="-130.4375" class="divider"/><line y2="6.5" y1="6.5" x2="130.4375" x1="-130.4375" class="divider"/><g class="label"><text style=""><tspan class="title-row" x="0" dy="1em" xml:space="preserve"/></text><text transform="translate( -89.796875, -52)" class="classTitle" style=""><tspan class="title-row" x="0" dy="1em" xml:space="preserve">DnsMonolithDiscoverer</tspan></text><text transform="translate( -122.9375, -19)" style=""><tspan class="title-row" x="0" dy="1em" xml:space="preserve">+DnsDiscoveryConfig config</tspan></text><text transform="translate( -122.9375, 14)" style=""><tspan class="title-row" x="0" dy="1em" xml:space="preserve">+new(config: DnsDiscoveryConfig)</tspan></text><text transform="translate( -122.9375, 35)" style=""><tspan class="title-row" x="0" dy="1em" xml:space="preserve">+discover()</tspan></text></g></g><g transform="translate(1119.09375, 418.5)" id="classId-DnsDiscoveryConfig-5" class="node default"><rect height="143" width="225.390625" y="-71.5" x="-112.6953125" class="outer title-state"/><line y2="-42.5" y1="-42.5" x2="112.6953125" x1="-112.6953125" class="divider"/><line y2="60.5" y1="60.5" x2="112.6953125" x1="-112.6953125" class="divider"/><g class="label"><text style=""><tspan class="title-row" x="0" dy="1em" xml:space="preserve"/></text><text transform="translate( -78.6875, -64)" class="classTitle" style=""><tspan class="title-row" x="0" dy="1em" xml:space="preserve">DnsDiscoveryConfig</tspan></text><text transform="translate( -105.1953125, -31)" style=""><tspan class="title-row" x="0" dy="1em" xml:space="preserve">+u16 monolith_port</tspan></text><text transform="translate( -105.1953125, -9)" style=""><tspan class="title-row" x="0" dy="1em" xml:space="preserve">+Option&lt;String&gt; dns_server</tspan></text><text transform="translate( -105.1953125, 13)" style=""><tspan class="title-row" x="0" dy="1em" xml:space="preserve">+String query</tspan></text><text transform="translate( -105.1953125, 34)" style=""><tspan class="title-row" x="0" dy="1em" xml:space="preserve">+Option&lt;u8&gt; polling_duration</tspan></text></g></g><g transform="translate(811.78125, 418.5)" id="classId-FlyDiscoveryConfig-6" class="node default"><rect height="122" width="225.390625" y="-61" x="-112.6953125" class="outer title-state"/><line y2="-32" y1="-32" x2="112.6953125" x1="-112.6953125" class="divider"/><line y2="50" y1="50" x2="112.6953125" x1="-112.6953125" class="divider"/><g class="label"><text style=""><tspan class="title-row" x="0" dy="1em" xml:space="preserve"/></text><text transform="translate( -75.1328125, -53.5)" class="classTitle" style=""><tspan class="title-row" x="0" dy="1em" xml:space="preserve">FlyDiscoveryConfig</tspan></text><text transform="translate( -105.1953125, -20.5)" style=""><tspan class="title-row" x="0" dy="1em" xml:space="preserve">+u16 monolith_port</tspan></text><text transform="translate( -105.1953125, 1.5)" style=""><tspan class="title-row" x="0" dy="1em" xml:space="preserve">+String fly_app</tspan></text><text transform="translate( -105.1953125, 23.5)" style=""><tspan class="title-row" x="0" dy="1em" xml:space="preserve">+Option&lt;u8&gt; polling_duration</tspan></text></g></g><g transform="translate(150.453125, 418.5)" id="classId-ManualDiscoveryConfig-7" class="node default"><rect height="77" width="197.265625" y="-38.5" x="-98.6328125" class="outer title-state"/><line y2="-9.5" y1="-9.5" x2="98.6328125" x1="-98.6328125" class="divider"/><line y2="27.5" y1="27.5" x2="98.6328125" x1="-98.6328125" class="divider"/><g class="label"><text style=""><tspan class="title-row" x="0" dy="1em" xml:space="preserve"/></text><text transform="translate( -91.1328125, -31)" class="classTitle" style=""><tspan class="title-row" x="0" dy="1em" xml:space="preserve">ManualDiscoveryConfig</tspan></text><text transform="translate( -91.1328125, 2)" style=""><tspan class="title-row" x="0" dy="1em" xml:space="preserve">+Vec monoliths</tspan></text></g></g><g transform="translate(488.90625, 418.5)" id="classId-HarnessDiscoveryConfig-8" class="node default"><rect height="77" width="205.296875" y="-38.5" x="-102.6484375" class="outer title-state"/><line y2="-9.5" y1="-9.5" x2="102.6484375" x1="-102.6484375" class="divider"/><line y2="27.5" y1="27.5" x2="102.6484375" x1="-102.6484375" class="divider"/><g class="label"><text style=""><tspan class="title-row" x="0" dy="1em" xml:space="preserve"/></text><text transform="translate( -95.1484375, -31)" class="classTitle" style=""><tspan class="title-row" x="0" dy="1em" xml:space="preserve">HarnessDiscoveryConfig</tspan></text><text transform="translate( -95.1484375, 2)" style=""><tspan class="title-row" x="0" dy="1em" xml:space="preserve">+u16 port</tspan></text></g></g></g></g></g></svg>