<svg aria-roledescription="classDiagram" role="graphics-document document" viewBox="0 0 1257.53125 497" style="max-width: 1257.53px; background-color: white;" xmlns:xlink="http://www.w3.org/1999/xlink" xmlns="http://www.w3.org/2000/svg" width="100%" id="my-svg"><style>#my-svg{font-family:"trebuchet ms",verdana,arial,sans-serif;font-size:16px;fill:#000000;}#my-svg .error-icon{fill:#552222;}#my-svg .error-text{fill:#552222;stroke:#552222;}#my-svg .edge-thickness-normal{stroke-width:2px;}#my-svg .edge-thickness-thick{stroke-width:3.5px;}#my-svg .edge-pattern-solid{stroke-dasharray:0;}#my-svg .edge-pattern-dashed{stroke-dasharray:3;}#my-svg .edge-pattern-dotted{stroke-dasharray:2;}#my-svg .marker{fill:#666;stroke:#666;}#my-svg .marker.cross{stroke:#666;}#my-svg svg{font-family:"trebuchet ms",verdana,arial,sans-serif;font-size:16px;}#my-svg g.classGroup text{fill:#999;stroke:none;font-family:"trebuchet ms",verdana,arial,sans-serif;font-size:10px;}#my-svg g.classGroup text .title{font-weight:bolder;}#my-svg .nodeLabel,#my-svg .edgeLabel{color:#111111;}#my-svg .edgeLabel .label rect{fill:#eee;}#my-svg .label text{fill:#111111;}#my-svg .edgeLabel .label span{background:#eee;}#my-svg .classTitle{font-weight:bolder;}#my-svg .node rect,#my-svg .node circle,#my-svg .node ellipse,#my-svg .node polygon,#my-svg .node path{fill:#eee;stroke:#999;stroke-width:1px;}#my-svg .divider{stroke:#999;stroke-width:1;}#my-svg g.clickable{cursor:pointer;}#my-svg g.classGroup rect{fill:#eee;stroke:#999;}#my-svg g.classGroup line{stroke:#999;stroke-width:1;}#my-svg .classLabel .box{stroke:none;stroke-width:0;fill:#eee;opacity:0.5;}#my-svg .classLabel .label{fill:#999;font-size:10px;}#my-svg .relation{stroke:#666;stroke-width:1;fill:none;}#my-svg .dashed-line{stroke-dasharray:3;}#my-svg .dotted-line{stroke-dasharray:1 2;}#my-svg #compositionStart,#my-svg .composition{fill:#666!important;stroke:#666!important;stroke-width:1;}#my-svg #compositionEnd,#my-svg .composition{fill:#666!important;stroke:#666!important;stroke-width:1;}#my-svg #dependencyStart,#my-svg .dependency{fill:#666!important;stroke:#666!important;stroke-width:1;}#my-svg #dependencyStart,#my-svg .dependency{fill:#666!important;stroke:#666!important;stroke-width:1;}#my-svg #extensionStart,#my-svg .extension{fill:transparent!important;stroke:#666!important;stroke-width:1;}#my-svg #extensionEnd,#my-svg .extension{fill:transparent!important;stroke:#666!important;stroke-width:1;}#my-svg #aggregationStart,#my-svg .aggregation{fill:transparent!important;stroke:#666!important;stroke-width:1;}#my-svg #aggregationEnd,#my-svg .aggregation{fill:transparent!important;stroke:#666!important;stroke-width:1;}#my-svg #lollipopStart,#my-svg .lollipop{fill:#eee!important;stroke:#666!important;stroke-width:1;}#my-svg #lollipopEnd,#my-svg .lollipop{fill:#eee!important;stroke:#666!important;stroke-width:1;}#my-svg .edgeTerminals{font-size:11px;}#my-svg .classTitleText{text-anchor:middle;font-size:18px;fill:#000000;}#my-svg :root{--mermaid-font-family:"trebuchet ms",verdana,arial,sans-serif;}</style><g><defs><marker orient="auto" markerHeight="240" markerWidth="190" refY="7" refX="18" class="marker aggregation classDiagram" id="my-svg_classDiagram-aggregationStart"><path d="M 18,7 L9,13 L1,7 L9,1 Z"/></marker></defs><defs><marker orient="auto" markerHeight="28" markerWidth="20" refY="7" refX="1" class="marker aggregation classDiagram" id="my-svg_classDiagram-aggregationEnd"><path d="M 18,7 L9,13 L1,7 L9,1 Z"/></marker></defs><defs><marker orient="auto" markerHeight="240" markerWidth="190" refY="7" refX="18" class="marker extension classDiagram" id="my-svg_classDiagram-extensionStart"><path d="M 1,7 L18,13 V 1 Z"/></marker></defs><defs><marker orient="auto" markerHeight="28" markerWidth="20" refY="7" refX="1" class="marker extension classDiagram" id="my-svg_classDiagram-extensionEnd"><path d="M 1,1 V 13 L18,7 Z"/></marker></defs><defs><marker orient="auto" markerHeight="240" markerWidth="190" refY="7" refX="18" class="marker composition classDiagram" id="my-svg_classDiagram-compositionStart"><path d="M 18,7 L9,13 L1,7 L9,1 Z"/></marker></defs><defs><marker orient="auto" markerHeight="28" markerWidth="20" refY="7" refX="1" class="marker composition classDiagram" id="my-svg_classDiagram-compositionEnd"><path d="M 18,7 L9,13 L1,7 L9,1 Z"/></marker></defs><defs><marker orient="auto" markerHeight="240" markerWidth="190" refY="7" refX="6" class="marker dependency classDiagram" id="my-svg_classDiagram-dependencyStart"><path d="M 5,7 L9,13 L1,7 L9,1 Z"/></marker></defs><defs><marker orient="auto" markerHeight="28" markerWidth="20" refY="7" refX="13" class="marker dependency classDiagram" id="my-svg_classDiagram-dependencyEnd"><path d="M 18,7 L9,13 L14,7 L9,1 Z"/></marker></defs><defs><marker orient="auto" markerHeight="240" markerWidth="190" refY="7" refX="13" class="marker lollipop classDiagram" id="my-svg_classDiagram-lollipopStart"><circle r="6" cy="7" cx="7" fill="transparent" stroke="black"/></marker></defs><defs><marker orient="auto" markerHeight="240" markerWidth="190" refY="7" refX="1" class="marker lollipop classDiagram" id="my-svg_classDiagram-lollipopEnd"><circle r="6" cy="7" cx="7" fill="transparent" stroke="black"/></marker></defs><g class="root"><g class="clusters"/><g class="edgePaths"><path marker-end="url(#my-svg_classDiagram-extensionEnd)" style="fill:none" class="edge-pattern-solid relation" id="id1" d="M150.453125,166.5L150.453125,160.58333333333334C150.453125,154.66666666666666,150.453125,142.83333333333334,217.91254816146252,126.93048756209107C285.37197132292505,111.02764179084885,420.29081764585004,91.05528358169768,487.7502408073126,81.06910447712211L555.2096639687751,71.08292537254653"/><path marker-end="url(#my-svg_classDiagram-extensionEnd)" style="fill:none" class="edge-pattern-solid relation" id="id2" d="M488.90625,166.5L488.90625,160.58333333333334C488.90625,154.66666666666666,488.90625,142.83333333333334,500.1973346880657,131.7410397713241C511.48841937613156,120.64874620931484,534.0705887522631,110.29749241862969,545.3616734403289,105.12186552328711L556.6527581283947,99.94623862794454"/><path marker-end="url(#my-svg_classDiagram-extensionEnd)" style="fill:none" class="edge-pattern-solid relation" id="id3" d="M811.78125,156L811.78125,151.83333333333334C811.78125,147.66666666666666,811.78125,139.33333333333334,800.4901653119342,129.9910397713241C789.1990806238686,120.64874620931484,766.6169112477369,110.29749241862969,755.3258265596711,105.12186552328711L744.0347418716053,99.94623862794454"/><path marker-end="url(#my-svg_classDiagram-extensionEnd)" style="fill:none" class="edge-pattern-solid relation" id="id4" d="M1119.09375,166.5L1119.09375,160.58333333333334C1119.09375,154.66666666666666,1119.09375,142.83333333333334,1056.820072542487,127.08572878537393C994.5463950849738,111.3381242374145,869.9990401699474,91.67624847482902,807.7253627124343,81.84531059353628L745.4516852549211,72.01437271224354"/><path marker-end="url(#my-svg_classDiagram-aggregationEnd)" style="fill:none" class="edge-pattern-solid relation" id="id5" d="M1119.09375,346L1119.09375,341.8333333333333C1119.09375,337.6666666666667,1119.09375,329.3333333333333,1119.09375,322.25C1119.09375,315.1666666666667,1119.09375,309.3333333333333,1119.09375,306.4166666666667L1119.09375,303.5"/><path marker-end="url(#my-svg_classDiagram-aggregationEnd)" style="fill:none" class="edge-pattern-solid relation" id="id6" d="M811.78125,356.5L811.78125,350.5833333333333C811.78125,344.6666666666667,811.78125,332.8333333333333,811.78125,325.75C811.78125,318.6666666666667,811.78125,316.3333333333333,811.78125,315.1666666666667L811.78125,314"/><path marker-end="url(#my-svg_classDiagram-aggregationEnd)" style="fill:none" class="edge-pattern-solid relation" id="id7" d="M150.453125,379L150.453125,369.3333333333333C150.453125,359.6666666666667,150.453125,340.3333333333333,150.453125,327.75C150.453125,315.1666666666667,150.453125,309.3333333333333,150.453125,306.4166666666667L150.453125,303.5"/><path marker-end="url(#my-svg_classDiagram-aggregationEnd)" style="fill:none" class="edge-pattern-solid relation" id="id8" d="M488.90625,379L488.90625,369.3333333333333C488.90625,359.6666666666667,488.90625,340.3333333333333,488.90625,327.75C488.90625,315.1666666666667,488.90625,309.3333333333333,488.90625,306.4166666666667L488.90625,303.5"/></g><g class="edgeLabels"><g class="edgeLabel"><g transform="translate(0, 0)" class="label"><rect height="0" width="0" ry="0" rx="0"/><text style=""><tspan class="row" x="0" dy="1em" xml:space="preserve"/></text></g></g><g class="edgeLabel"><g transform="translate(0, 0)" class="label"><rect height="0" width="0" ry="0" rx="0"/><text style=""><tspan class="row" x="0" dy="1em" xml:space="preserve"/></text></g></g><g class="edgeLabel"><g transform="translate(0, 0)" class="label"><rect height="0" width="0" ry="0" rx="0"/><text style=""><tspan class="row" x="0" dy="1em" xml:space="preserve"/></text></g></g><g class="edgeLabel"><g transform="translate(0, 0)" class="label"><rect height="0" width="0" ry="0" rx="0"/><text style=""><tspan class="row" x="0" dy="1em" xml:space="preserve"/></text></g></g><g class="edgeLabel"><g transform="translate(0, 0)" class="label"><rect height="0" width="0" ry="0" rx="0"/><text style=""><tspan class="row" x="0" dy="1em" xml:space="preserve"/></text></g></g><g class="edgeLabel"><g transform="translate(0, 0)" class="label"><rect height="0" width="0" ry="0" rx="0"/><text style=""><tspan class="row" x="0" dy="1em" xml:space="preserve"/></text></g></g><g class="edgeLabel"><g transform="translate(0, 0)" class="label"><rect height="0" width="0" ry="0" rx="0"/><text style=""><tspan class="row" x="0" dy="1em" xml:space="preserve"/></text></g></g><g class="edgeLabel"><g transform="translate(0, 0)" class="label"><rect height="0" width="0" ry="0" rx="0"/><text style=""><tspan class="row" x="0" dy="1em" xml:space="preserve"/></text></g></g></g><g class="nodes"><g transform="translate(650.34375, 57)" id="classId-ServiceDiscoverer-0" class="node default"><rect height="98" width="154.65625" y="-49" x="-77.328125" class="outer title-state"/><line y2="1" y1="1" x2="77.328125" x1="-77.328125" class="divider"/><line y2="17" y1="17" x2="77.328125" x1="-77.328125" class="divider"/><g class="label"><text transform="translate( -24.65234375, -41.5)" style=""><tspan class="title-row" x="0" dy="1em" xml:space="preserve">«Trait»</tspan></text><text transform="translate( -69.828125, -20.5)" class="classTitle" style=""><tspan class="title-row" x="0" dy="1em" xml:space="preserve">ServiceDiscoverer</tspan></text><text transform="translate( -69.828125, 24.5)" style=""><tspan class="title-row" x="0" dy="1em" xml:space="preserve">+discover()</tspan></text></g></g><g transform="translate(150.453125, 226)" id="classId-ManualServiceDiscoverer-1" class="node default"><rect height="119" width="284.90625" y="-59.5" x="-142.453125" class="outer title-state"/><line y2="-30.5" y1="-30.5" x2="142.453125" x1="-142.453125" class="divider"/><line y2="6.5" y1="6.5" x2="142.453125" x1="-142.453125" class="divider"/><g class="label"><text style=""><tspan class="title-row" x="0" dy="1em" xml:space="preserve"/></text><text transform="translate( -97.390625, -52)" class="classTitle" style=""><tspan class="title-row" x="0" dy="1em" xml:space="preserve">ManualServiceDiscoverer</tspan></text><text transform="translate( -134.953125, -19)" style=""><tspan class="title-row" x="0" dy="1em" xml:space="preserve">+ManualDiscoveryConfig config</tspan></text><text transform="translate( -134.953125, 14)" style=""><tspan class="title-row" x="0" dy="1em" xml:space="preserve">+new(config: ManualDiscoveryConfig)</tspan></text><text transform="translate( -134.953125, 35)" style=""><tspan class="title-row" x="0" dy="1em" xml:space="preserve">+discover()</tspan></text></g></g><g transform="translate(488.90625, 226)" id="classId-HarnessServiceDiscoverer-2" class="node default"><rect height="119" width="292" y="-59.5" x="-146" class="outer title-state"/><line y2="-30.5" y1="-30.5" x2="146" x1="-146" class="divider"/><line y2="6.5" y1="6.5" x2="146" x1="-146" class="divider"/><g class="label"><text style=""><tspan class="title-row" x="0" dy="1em" xml:space="preserve"/></text><text transform="translate( -101.40625, -52)" class="classTitle" style=""><tspan class="title-row" x="0" dy="1em" xml:space="preserve">HarnessServiceDiscoverer</tspan></text><text transform="translate( -138.5, -19)" style=""><tspan class="title-row" x="0" dy="1em" xml:space="preserve">+HarnessDiscoveryConfig config</tspan></text><text transform="translate( -138.5, 14)" style=""><tspan class="title-row" x="0" dy="1em" xml:space="preserve">+new(config: HarnessDiscoveryConfig)</tspan></text><text transform="translate( -138.5, 35)" style=""><tspan class="title-row" x="0" dy="1em" xml:space="preserve">+discover()</tspan></text></g></g><g transform="translate(811.78125, 226)" id="classId-FlyServiceDiscoverer-3" class="node default"><rect height="140" width="253.75" y="-70" x="-126.875" class="outer title-state"/><line y2="-41" y1="-41" x2="126.875" x1="-126.875" class="divider"/><line y2="17" y1="17" x2="126.875" x1="-126.875" class="divider"/><g class="label"><text style=""><tspan class="title-row" x="0" dy="1em" xml:space="preserve"/></text><text transform="translate( -81.390625, -62.5)" class="classTitle" style=""><tspan class="title-row" x="0" dy="1em" xml:space="preserve">FlyServiceDiscoverer</tspan></text><text transform="translate( -119.375, -29.5)" style=""><tspan class="title-row" x="0" dy="1em" xml:space="preserve">+FlyDiscoveryConfig config</tspan></text><text transform="translate( -119.375, -8.5)" style=""><tspan class="title-row" x="0" dy="1em" xml:space="preserve">+String query</tspan></text><text transform="translate( -119.375, 24.5)" style=""><tspan class="title-row" x="0" dy="1em" xml:space="preserve">+new(config: FlyDiscoveryConfig)</tspan></text><text transform="translate( -119.375, 45.5)" style=""><tspan class="title-row" x="0" dy="1em" xml:space="preserve">+discover()</tspan></text></g></g><g transform="translate(1119.09375, 226)" id="classId-DnsServiceDiscoverer-4" class="node default"><rect height="119" width="260.875" y="-59.5" x="-130.4375" class="outer title-state"/><line y2="-30.5" y1="-30.5" x2="130.4375" x1="-130.4375" class="divider"/><line y2="6.5" y1="6.5" x2="130.4375" x1="-130.4375" class="divider"/><g class="label"><text style=""><tspan class="title-row" x="0" dy="1em" xml:space="preserve"/></text><text transform="translate( -84.9453125, -52)" class="classTitle" style=""><tspan class="title-row" x="0" dy="1em" xml:space="preserve">DnsServiceDiscoverer</tspan></text><text transform="translate( -122.9375, -19)" style=""><tspan class="title-row" x="0" dy="1em" xml:space="preserve">+DnsDiscoveryConfig config</tspan></text><text transform="translate( -122.9375, 14)" style=""><tspan class="title-row" x="0" dy="1em" xml:space="preserve">+new(config: DnsDiscoveryConfig)</tspan></text><text transform="translate( -122.9375, 35)" style=""><tspan class="title-row" x="0" dy="1em" xml:space="preserve">+discover()</tspan></text></g></g><g transform="translate(1119.09375, 417.5)" id="classId-DnsDiscoveryConfig-5" class="node default"><rect height="143" width="257.1484375" y="-71.5" x="-128.57421875" class="outer title-state"/><line y2="-42.5" y1="-42.5" x2="128.57421875" x1="-128.57421875" class="divider"/><line y2="60.5" y1="60.5" x2="128.57421875" x1="-128.57421875" class="divider"/><g class="label"><text style=""><tspan class="title-row" x="0" dy="1em" xml:space="preserve"/></text><text transform="translate( -78.6875, -64)" class="classTitle" style=""><tspan class="title-row" x="0" dy="1em" xml:space="preserve">DnsDiscoveryConfig</tspan></text><text transform="translate( -121.07421875, -31)" style=""><tspan class="title-row" x="0" dy="1em" xml:space="preserve">+u16 service_port</tspan></text><text transform="translate( -121.07421875, -9)" style=""><tspan class="title-row" x="0" dy="1em" xml:space="preserve">+Option&lt;SocketAddr&gt; dns_server</tspan></text><text transform="translate( -121.07421875, 13)" style=""><tspan class="title-row" x="0" dy="1em" xml:space="preserve">+String query</tspan></text><text transform="translate( -121.07421875, 34)" style=""><tspan class="title-row" x="0" dy="1em" xml:space="preserve">+Option&lt;u64&gt; polling_duration</tspan></text></g></g><g transform="translate(811.78125, 417.5)" id="classId-FlyDiscoveryConfig-6" class="node default"><rect height="122" width="234.296875" y="-61" x="-117.1484375" class="outer title-state"/><line y2="-32" y1="-32" x2="117.1484375" x1="-117.1484375" class="divider"/><line y2="50" y1="50" x2="117.1484375" x1="-117.1484375" class="divider"/><g class="label"><text style=""><tspan class="title-row" x="0" dy="1em" xml:space="preserve"/></text><text transform="translate( -75.1328125, -53.5)" class="classTitle" style=""><tspan class="title-row" x="0" dy="1em" xml:space="preserve">FlyDiscoveryConfig</tspan></text><text transform="translate( -109.6484375, -20.5)" style=""><tspan class="title-row" x="0" dy="1em" xml:space="preserve">+u16 service_port</tspan></text><text transform="translate( -109.6484375, 1.5)" style=""><tspan class="title-row" x="0" dy="1em" xml:space="preserve">+String fly_app</tspan></text><text transform="translate( -109.6484375, 23.5)" style=""><tspan class="title-row" x="0" dy="1em" xml:space="preserve">+Option&lt;u64&gt; polling_duration</tspan></text></g></g><g transform="translate(150.453125, 417.5)" id="classId-ManualDiscoveryConfig-7" class="node default"><rect height="77" width="197.265625" y="-38.5" x="-98.6328125" class="outer title-state"/><line y2="-9.5" y1="-9.5" x2="98.6328125" x1="-98.6328125" class="divider"/><line y2="27.5" y1="27.5" x2="98.6328125" x1="-98.6328125" class="divider"/><g class="label"><text style=""><tspan class="title-row" x="0" dy="1em" xml:space="preserve"/></text><text transform="translate( -91.1328125, -31)" class="classTitle" style=""><tspan class="title-row" x="0" dy="1em" xml:space="preserve">ManualDiscoveryConfig</tspan></text><text transform="translate( -91.1328125, 2)" style=""><tspan class="title-row" x="0" dy="1em" xml:space="preserve">+Vec monoliths</tspan></text></g></g><g transform="translate(488.90625, 417.5)" id="classId-HarnessDiscoveryConfig-8" class="node default"><rect height="77" width="205.296875" y="-38.5" x="-102.6484375" class="outer title-state"/><line y2="-9.5" y1="-9.5" x2="102.6484375" x1="-102.6484375" class="divider"/><line y2="27.5" y1="27.5" x2="102.6484375" x1="-102.6484375" class="divider"/><g class="label"><text style=""><tspan class="title-row" x="0" dy="1em" xml:space="preserve"/></text><text transform="translate( -95.1484375, -31)" class="classTitle" style=""><tspan class="title-row" x="0" dy="1em" xml:space="preserve">HarnessDiscoveryConfig</tspan></text><text transform="translate( -95.1484375, 2)" style=""><tspan class="title-row" x="0" dy="1em" xml:space="preserve">+u16 port</tspan></text></g></g></g></g></g></svg>