<svg aria-roledescription="classDiagram" role="graphics-document document" viewBox="0 0 1247.546875 513.5" style="max-width: 1247.55px; background-color: white;" xmlns:xlink="http://www.w3.org/1999/xlink" xmlns="http://www.w3.org/2000/svg" width="100%" id="my-svg"><style>#my-svg{font-family:"trebuchet ms",verdana,arial,sans-serif;font-size:16px;fill:#000000;}#my-svg .error-icon{fill:#552222;}#my-svg .error-text{fill:#552222;stroke:#552222;}#my-svg .edge-thickness-normal{stroke-width:2px;}#my-svg .edge-thickness-thick{stroke-width:3.5px;}#my-svg .edge-pattern-solid{stroke-dasharray:0;}#my-svg .edge-pattern-dashed{stroke-dasharray:3;}#my-svg .edge-pattern-dotted{stroke-dasharray:2;}#my-svg .marker{fill:#666;stroke:#666;}#my-svg .marker.cross{stroke:#666;}#my-svg svg{font-family:"trebuchet ms",verdana,arial,sans-serif;font-size:16px;}#my-svg g.classGroup text{fill:#999;stroke:none;font-family:"trebuchet ms",verdana,arial,sans-serif;font-size:10px;}#my-svg g.classGroup text .title{font-weight:bolder;}#my-svg .nodeLabel,#my-svg .edgeLabel{color:#111111;}#my-svg .edgeLabel .label rect{fill:#eee;}#my-svg .label text{fill:#111111;}#my-svg .edgeLabel .label span{background:#eee;}#my-svg .classTitle{font-weight:bolder;}#my-svg .node rect,#my-svg .node circle,#my-svg .node ellipse,#my-svg .node polygon,#my-svg .node path{fill:#eee;stroke:#999;stroke-width:1px;}#my-svg .divider{stroke:#999;stroke-width:1;}#my-svg g.clickable{cursor:pointer;}#my-svg g.classGroup rect{fill:#eee;stroke:#999;}#my-svg g.classGroup line{stroke:#999;stroke-width:1;}#my-svg .classLabel .box{stroke:none;stroke-width:0;fill:#eee;opacity:0.5;}#my-svg .classLabel .label{fill:#999;font-size:10px;}#my-svg .relation{stroke:#666;stroke-width:1;fill:none;}#my-svg .dashed-line{stroke-dasharray:3;}#my-svg .dotted-line{stroke-dasharray:1 2;}#my-svg #compositionStart,#my-svg .composition{fill:#666!important;stroke:#666!important;stroke-width:1;}#my-svg #compositionEnd,#my-svg .composition{fill:#666!important;stroke:#666!important;stroke-width:1;}#my-svg #dependencyStart,#my-svg .dependency{fill:#666!important;stroke:#666!important;stroke-width:1;}#my-svg #dependencyStart,#my-svg .dependency{fill:#666!important;stroke:#666!important;stroke-width:1;}#my-svg #extensionStart,#my-svg .extension{fill:transparent!important;stroke:#666!important;stroke-width:1;}#my-svg #extensionEnd,#my-svg .extension{fill:transparent!important;stroke:#666!important;stroke-width:1;}#my-svg #aggregationStart,#my-svg .aggregation{fill:transparent!important;stroke:#666!important;stroke-width:1;}#my-svg #aggregationEnd,#my-svg .aggregation{fill:transparent!important;stroke:#666!important;stroke-width:1;}#my-svg #lollipopStart,#my-svg .lollipop{fill:#eee!important;stroke:#666!important;stroke-width:1;}#my-svg #lollipopEnd,#my-svg .lollipop{fill:#eee!important;stroke:#666!important;stroke-width:1;}#my-svg .edgeTerminals{font-size:11px;}#my-svg .classTitleText{text-anchor:middle;font-size:18px;fill:#000000;}#my-svg :root{--mermaid-font-family:"trebuchet ms",verdana,arial,sans-serif;}</style><g><defs><marker orient="auto" markerHeight="240" markerWidth="190" refY="7" refX="18" class="marker aggregation classDiagram" id="my-svg_classDiagram-aggregationStart"><path d="M 18,7 L9,13 L1,7 L9,1 Z"/></marker></defs><defs><marker orient="auto" markerHeight="28" markerWidth="20" refY="7" refX="1" class="marker aggregation classDiagram" id="my-svg_classDiagram-aggregationEnd"><path d="M 18,7 L9,13 L1,7 L9,1 Z"/></marker></defs><defs><marker orient="auto" markerHeight="240" markerWidth="190" refY="7" refX="18" class="marker extension classDiagram" id="my-svg_classDiagram-extensionStart"><path d="M 1,7 L18,13 V 1 Z"/></marker></defs><defs><marker orient="auto" markerHeight="28" markerWidth="20" refY="7" refX="1" class="marker extension classDiagram" id="my-svg_classDiagram-extensionEnd"><path d="M 1,1 V 13 L18,7 Z"/></marker></defs><defs><marker orient="auto" markerHeight="240" markerWidth="190" refY="7" refX="18" class="marker composition classDiagram" id="my-svg_classDiagram-compositionStart"><path d="M 18,7 L9,13 L1,7 L9,1 Z"/></marker></defs><defs><marker orient="auto" markerHeight="28" markerWidth="20" refY="7" refX="1" class="marker composition classDiagram" id="my-svg_classDiagram-compositionEnd"><path d="M 18,7 L9,13 L1,7 L9,1 Z"/></marker></defs><defs><marker orient="auto" markerHeight="240" markerWidth="190" refY="7" refX="6" class="marker dependency classDiagram" id="my-svg_classDiagram-dependencyStart"><path d="M 5,7 L9,13 L1,7 L9,1 Z"/></marker></defs><defs><marker orient="auto" markerHeight="28" markerWidth="20" refY="7" refX="13" class="marker dependency classDiagram" id="my-svg_classDiagram-dependencyEnd"><path d="M 18,7 L9,13 L14,7 L9,1 Z"/></marker></defs><defs><marker orient="auto" markerHeight="240" markerWidth="190" refY="7" refX="13" class="marker lollipop classDiagram" id="my-svg_classDiagram-lollipopStart"><circle r="6" cy="7" cx="7" fill="transparent" stroke="black"/></marker></defs><defs><marker orient="auto" markerHeight="240" markerWidth="190" refY="7" refX="1" class="marker lollipop classDiagram" id="my-svg_classDiagram-lollipopEnd"><circle r="6" cy="7" cx="7" fill="transparent" stroke="black"/></marker></defs><g class="root"><g class="clusters"/><g class="edgePaths"><path marker-end="url(#my-svg_classDiagram-extensionEnd)" style="fill:none" class="edge-pattern-solid relation" id="id1" d="M149.38671875,171.75L149.38671875,165.70833333333334C149.38671875,159.66666666666666,149.38671875,147.58333333333334,216.53585363601738,131.21221099305544C283.68498852203476,114.84108865277756,417.98325829406946,94.18217730555511,485.13239318008686,83.85272163194391L552.2815280661042,73.52326595833269"/><path marker-end="url(#my-svg_classDiagram-extensionEnd)" style="fill:none" class="edge-pattern-solid relation" id="id2" d="M484.734375,171.75L484.734375,165.70833333333334C484.734375,159.66666666666666,484.734375,147.58333333333334,496.248122825348,136.06607597948312C507.761870650696,124.54881862563288,530.789366301392,113.59763725126577,542.30311412674,108.12204656408221L553.816861952088,102.64645587689866"/><path marker-end="url(#my-svg_classDiagram-extensionEnd)" style="fill:none" class="edge-pattern-solid relation" id="id3" d="M805.40234375,160.5L805.40234375,156.33333333333334C805.40234375,152.16666666666666,805.40234375,143.83333333333334,793.8885959246521,134.19107597948312C782.374848099304,124.54881862563288,759.347352448608,113.59763725126577,747.8336046232602,108.12204656408221L736.319856797912,102.64645587689866"/><path marker-end="url(#my-svg_classDiagram-extensionEnd)" style="fill:none" class="edge-pattern-solid relation" id="id4" d="M1110.828125,171.75L1110.828125,165.70833333333334C1110.828125,159.66666666666666,1110.828125,147.58333333333334,1048.6614348766168,131.36429525815285C986.4947447532337,115.14525718297239,862.1613645064675,94.79051436594479,799.9946743830843,84.61314295743098L737.8279842597012,74.43577154891719"/><path marker-end="url(#my-svg_classDiagram-aggregationEnd)" style="fill:none" class="edge-pattern-solid relation" id="id5" d="M1110.828125,358L1110.828125,353.8333333333333C1110.828125,349.6666666666667,1110.828125,341.3333333333333,1110.828125,334.125C1110.828125,326.9166666666667,1110.828125,320.8333333333333,1110.828125,317.7916666666667L1110.828125,314.75"/><path marker-end="url(#my-svg_classDiagram-aggregationEnd)" style="fill:none" class="edge-pattern-solid relation" id="id6" d="M805.40234375,369.25L805.40234375,363.2083333333333C805.40234375,357.1666666666667,805.40234375,345.0833333333333,805.40234375,337.875C805.40234375,330.6666666666667,805.40234375,328.3333333333333,805.40234375,327.1666666666667L805.40234375,326"/><path marker-end="url(#my-svg_classDiagram-aggregationEnd)" style="fill:none" class="edge-pattern-solid relation" id="id7" d="M149.38671875,391.75L149.38671875,381.9583333333333C149.38671875,372.1666666666667,149.38671875,352.5833333333333,149.38671875,339.75C149.38671875,326.9166666666667,149.38671875,320.8333333333333,149.38671875,317.7916666666667L149.38671875,314.75"/><path marker-end="url(#my-svg_classDiagram-aggregationEnd)" style="fill:none" class="edge-pattern-solid relation" id="id8" d="M484.734375,391.75L484.734375,381.9583333333333C484.734375,372.1666666666667,484.734375,352.5833333333333,484.734375,339.75C484.734375,326.9166666666667,484.734375,320.8333333333333,484.734375,317.7916666666667L484.734375,314.75"/></g><g class="edgeLabels"><g class="edgeLabel"><g transform="translate(0, 0)" class="label"><rect height="0" width="0" ry="0" rx="0"/><text style=""><tspan class="row" x="0" dy="1em" xml:space="preserve"/></text></g></g><g class="edgeLabel"><g transform="translate(0, 0)" class="label"><rect height="0" width="0" ry="0" rx="0"/><text style=""><tspan class="row" x="0" dy="1em" xml:space="preserve"/></text></g></g><g class="edgeLabel"><g transform="translate(0, 0)" class="label"><rect height="0" width="0" ry="0" rx="0"/><text style=""><tspan class="row" x="0" dy="1em" xml:space="preserve"/></text></g></g><g class="edgeLabel"><g transform="translate(0, 0)" class="label"><rect height="0" width="0" ry="0" rx="0"/><text style=""><tspan class="row" x="0" dy="1em" xml:space="preserve"/></text></g></g><g class="edgeLabel"><g transform="translate(0, 0)" class="label"><rect height="0" width="0" ry="0" rx="0"/><text style=""><tspan class="row" x="0" dy="1em" xml:space="preserve"/></text></g></g><g class="edgeLabel"><g transform="translate(0, 0)" class="label"><rect height="0" width="0" ry="0" rx="0"/><text style=""><tspan class="row" x="0" dy="1em" xml:space="preserve"/></text></g></g><g class="edgeLabel"><g transform="translate(0, 0)" class="label"><rect height="0" width="0" ry="0" rx="0"/><text style=""><tspan class="row" x="0" dy="1em" xml:space="preserve"/></text></g></g><g class="edgeLabel"><g transform="translate(0, 0)" class="label"><rect height="0" width="0" ry="0" rx="0"/><text style=""><tspan class="row" x="0" dy="1em" xml:space="preserve"/></text></g></g></g><g class="nodes"><g transform="translate(645.068359375, 59.25)" id="classId-ServiceDiscoverer-0" class="node default"><rect height="102.5" width="149.9921875" y="-51.25" x="-74.99609375" class="outer title-state"/><line y2="1.75" y1="1.75" x2="74.99609375" x1="-74.99609375" class="divider"/><line y2="17.75" y1="17.75" x2="74.99609375" x1="-74.99609375" class="divider"/><g class="label"><text transform="translate( -24.921875, -43.75)" style=""><tspan class="title-row" x="0" dy="1em" xml:space="preserve">«Trait»</tspan></text><text transform="translate( -67.49609375, -21.25)" class="classTitle" style=""><tspan class="title-row" x="0" dy="1em" xml:space="preserve">ServiceDiscoverer</tspan></text><text transform="translate( -67.49609375, 25.25)" style=""><tspan class="title-row" x="0" dy="1em" xml:space="preserve">+discover()</tspan></text></g></g><g transform="translate(149.38671875, 234.25)" id="classId-ManualServiceDiscoverer-1" class="node default"><rect height="125" width="282.7734375" y="-62.5" x="-141.38671875" class="outer title-state"/><line y2="-32" y1="-32" x2="141.38671875" x1="-141.38671875" class="divider"/><line y2="6.5" y1="6.5" x2="141.38671875" x1="-141.38671875" class="divider"/><g class="label"><text style=""><tspan class="title-row" x="0" dy="1em" xml:space="preserve"/></text><text transform="translate( -93.7890625, -55)" class="classTitle" style=""><tspan class="title-row" x="0" dy="1em" xml:space="preserve">ManualServiceDiscoverer</tspan></text><text transform="translate( -133.88671875, -20.5)" style=""><tspan class="title-row" x="0" dy="1em" xml:space="preserve">+ManualDiscoveryConfig config</tspan></text><text transform="translate( -133.88671875, 14)" style=""><tspan class="title-row" x="0" dy="1em" xml:space="preserve">+new(config: ManualDiscoveryConfig)</tspan></text><text transform="translate( -133.88671875, 36.5)" style=""><tspan class="title-row" x="0" dy="1em" xml:space="preserve">+discover()</tspan></text></g></g><g transform="translate(484.734375, 234.25)" id="classId-HarnessServiceDiscoverer-2" class="node default"><rect height="125" width="287.921875" y="-62.5" x="-143.9609375" class="outer title-state"/><line y2="-32" y1="-32" x2="143.9609375" x1="-143.9609375" class="divider"/><line y2="6.5" y1="6.5" x2="143.9609375" x1="-143.9609375" class="divider"/><g class="label"><text style=""><tspan class="title-row" x="0" dy="1em" xml:space="preserve"/></text><text transform="translate( -96.85546875, -55)" class="classTitle" style=""><tspan class="title-row" x="0" dy="1em" xml:space="preserve">HarnessServiceDiscoverer</tspan></text><text transform="translate( -136.4609375, -20.5)" style=""><tspan class="title-row" x="0" dy="1em" xml:space="preserve">+HarnessDiscoveryConfig config</tspan></text><text transform="translate( -136.4609375, 14)" style=""><tspan class="title-row" x="0" dy="1em" xml:space="preserve">+new(config: HarnessDiscoveryConfig)</tspan></text><text transform="translate( -136.4609375, 36.5)" style=""><tspan class="title-row" x="0" dy="1em" xml:space="preserve">+discover()</tspan></text></g></g><g transform="translate(805.40234375, 234.25)" id="classId-FlyServiceDiscoverer-3" class="node default"><rect height="147.5" width="253.4140625" y="-73.75" x="-126.70703125" class="outer title-state"/><line y2="-43.25" y1="-43.25" x2="126.70703125" x1="-126.70703125" class="divider"/><line y2="17.75" y1="17.75" x2="126.70703125" x1="-126.70703125" class="divider"/><g class="label"><text style=""><tspan class="title-row" x="0" dy="1em" xml:space="preserve"/></text><text transform="translate( -78.79296875, -66.25)" class="classTitle" style=""><tspan class="title-row" x="0" dy="1em" xml:space="preserve">FlyServiceDiscoverer</tspan></text><text transform="translate( -119.20703125, -31.75)" style=""><tspan class="title-row" x="0" dy="1em" xml:space="preserve">+FlyDiscoveryConfig config</tspan></text><text transform="translate( -119.20703125, -9.25)" style=""><tspan class="title-row" x="0" dy="1em" xml:space="preserve">+String query</tspan></text><text transform="translate( -119.20703125, 25.25)" style=""><tspan class="title-row" x="0" dy="1em" xml:space="preserve">+new(config: FlyDiscoveryConfig)</tspan></text><text transform="translate( -119.20703125, 47.75)" style=""><tspan class="title-row" x="0" dy="1em" xml:space="preserve">+discover()</tspan></text></g></g><g transform="translate(1110.828125, 234.25)" id="classId-DnsServiceDiscoverer-4" class="node default"><rect height="125" width="257.4375" y="-62.5" x="-128.71875" class="outer title-state"/><line y2="-32" y1="-32" x2="128.71875" x1="-128.71875" class="divider"/><line y2="6.5" y1="6.5" x2="128.71875" x1="-128.71875" class="divider"/><g class="label"><text style=""><tspan class="title-row" x="0" dy="1em" xml:space="preserve"/></text><text transform="translate( -80.8046875, -55)" class="classTitle" style=""><tspan class="title-row" x="0" dy="1em" xml:space="preserve">DnsServiceDiscoverer</tspan></text><text transform="translate( -121.21875, -20.5)" style=""><tspan class="title-row" x="0" dy="1em" xml:space="preserve">+DnsDiscoveryConfig config</tspan></text><text transform="translate( -121.21875, 14)" style=""><tspan class="title-row" x="0" dy="1em" xml:space="preserve">+new(config: DnsDiscoveryConfig)</tspan></text><text transform="translate( -121.21875, 36.5)" style=""><tspan class="title-row" x="0" dy="1em" xml:space="preserve">+discover()</tspan></text></g></g><g transform="translate(1110.828125, 431.75)" id="classId-DnsDiscoveryConfig-5" class="node default"><rect height="147.5" width="250.4765625" y="-73.75" x="-125.23828125" class="outer title-state"/><line y2="-43.25" y1="-43.25" x2="125.23828125" x1="-125.23828125" class="divider"/><line y2="62.75" y1="62.75" x2="125.23828125" x1="-125.23828125" class="divider"/><g class="label"><text style=""><tspan class="title-row" x="0" dy="1em" xml:space="preserve"/></text><text transform="translate( -72.91015625, -66.25)" class="classTitle" style=""><tspan class="title-row" x="0" dy="1em" xml:space="preserve">DnsDiscoveryConfig</tspan></text><text transform="translate( -117.73828125, -31.75)" style=""><tspan class="title-row" x="0" dy="1em" xml:space="preserve">+u16 service_port</tspan></text><text transform="translate( -117.73828125, -9.25)" style=""><tspan class="title-row" x="0" dy="1em" xml:space="preserve">+Option&lt;SocketAddr&gt; dns_server</tspan></text><text transform="translate( -117.73828125, 13.25)" style=""><tspan class="title-row" x="0" dy="1em" xml:space="preserve">+String query</tspan></text><text transform="translate( -117.73828125, 35.75)" style=""><tspan class="title-row" x="0" dy="1em" xml:space="preserve">+Option&lt;u64&gt; polling_duration</tspan></text></g></g><g transform="translate(805.40234375, 431.75)" id="classId-FlyDiscoveryConfig-6" class="node default"><rect height="125" width="235.625" y="-62.5" x="-117.8125" class="outer title-state"/><line y2="-32" y1="-32" x2="117.8125" x1="-117.8125" class="divider"/><line y2="51.5" y1="51.5" x2="117.8125" x1="-117.8125" class="divider"/><g class="label"><text style=""><tspan class="title-row" x="0" dy="1em" xml:space="preserve"/></text><text transform="translate( -70.8984375, -55)" class="classTitle" style=""><tspan class="title-row" x="0" dy="1em" xml:space="preserve">FlyDiscoveryConfig</tspan></text><text transform="translate( -110.3125, -20.5)" style=""><tspan class="title-row" x="0" dy="1em" xml:space="preserve">+u16 service_port</tspan></text><text transform="translate( -110.3125, 2)" style=""><tspan class="title-row" x="0" dy="1em" xml:space="preserve">+String fly_app</tspan></text><text transform="translate( -110.3125, 24.5)" style=""><tspan class="title-row" x="0" dy="1em" xml:space="preserve">+Option&lt;u64&gt; polling_duration</tspan></text></g></g><g transform="translate(149.38671875, 431.75)" id="classId-ManualDiscoveryConfig-7" class="node default"><rect height="80" width="186.7890625" y="-40" x="-93.39453125" class="outer title-state"/><line y2="-9.5" y1="-9.5" x2="93.39453125" x1="-93.39453125" class="divider"/><line y2="29" y1="29" x2="93.39453125" x1="-93.39453125" class="divider"/><g class="label"><text style=""><tspan class="title-row" x="0" dy="1em" xml:space="preserve"/></text><text transform="translate( -85.89453125, -32.5)" class="classTitle" style=""><tspan class="title-row" x="0" dy="1em" xml:space="preserve">ManualDiscoveryConfig</tspan></text><text transform="translate( -85.89453125, 2)" style=""><tspan class="title-row" x="0" dy="1em" xml:space="preserve">+Vec monoliths</tspan></text></g></g><g transform="translate(484.734375, 431.75)" id="classId-HarnessDiscoveryConfig-8" class="node default"><rect height="80" width="192.921875" y="-40" x="-96.4609375" class="outer title-state"/><line y2="-9.5" y1="-9.5" x2="96.4609375" x1="-96.4609375" class="divider"/><line y2="29" y1="29" x2="96.4609375" x1="-96.4609375" class="divider"/><g class="label"><text style=""><tspan class="title-row" x="0" dy="1em" xml:space="preserve"/></text><text transform="translate( -88.9609375, -32.5)" class="classTitle" style=""><tspan class="title-row" x="0" dy="1em" xml:space="preserve">HarnessDiscoveryConfig</tspan></text><text transform="translate( -88.9609375, 2)" style=""><tspan class="title-row" x="0" dy="1em" xml:space="preserve">+u16 port</tspan></text></g></g></g></g></g></svg>