<svg aria-roledescription="classDiagram" role="graphics-document document" viewBox="-8 -8 927.2578125 306" style="max-width: 927.258px; background-color: white;" xmlns:xlink="http://www.w3.org/1999/xlink" xmlns="http://www.w3.org/2000/svg" width="100%" id="my-svg"><style>#my-svg{font-family:"trebuchet ms",verdana,arial,sans-serif;font-size:16px;fill:#000000;}#my-svg .error-icon{fill:#552222;}#my-svg .error-text{fill:#552222;stroke:#552222;}#my-svg .edge-thickness-normal{stroke-width:2px;}#my-svg .edge-thickness-thick{stroke-width:3.5px;}#my-svg .edge-pattern-solid{stroke-dasharray:0;}#my-svg .edge-pattern-dashed{stroke-dasharray:3;}#my-svg .edge-pattern-dotted{stroke-dasharray:2;}#my-svg .marker{fill:#666;stroke:#666;}#my-svg .marker.cross{stroke:#666;}#my-svg svg{font-family:"trebuchet ms",verdana,arial,sans-serif;font-size:16px;}#my-svg g.classGroup text{fill:#999;stroke:none;font-family:"trebuchet ms",verdana,arial,sans-serif;font-size:10px;}#my-svg g.classGroup text .title{font-weight:bolder;}#my-svg .nodeLabel,#my-svg .edgeLabel{color:#111111;}#my-svg .edgeLabel .label rect{fill:#eee;}#my-svg .label text{fill:#111111;}#my-svg .edgeLabel .label span{background:#eee;}#my-svg .classTitle{font-weight:bolder;}#my-svg .node rect,#my-svg .node circle,#my-svg .node ellipse,#my-svg .node polygon,#my-svg .node path{fill:#eee;stroke:#999;stroke-width:1px;}#my-svg .divider{stroke:#999;stroke-width:1;}#my-svg g.clickable{cursor:pointer;}#my-svg g.classGroup rect{fill:#eee;stroke:#999;}#my-svg g.classGroup line{stroke:#999;stroke-width:1;}#my-svg .classLabel .box{stroke:none;stroke-width:0;fill:#eee;opacity:0.5;}#my-svg .classLabel .label{fill:#999;font-size:10px;}#my-svg .relation{stroke:#666;stroke-width:1;fill:none;}#my-svg .dashed-line{stroke-dasharray:3;}#my-svg .dotted-line{stroke-dasharray:1 2;}#my-svg #compositionStart,#my-svg .composition{fill:#666!important;stroke:#666!important;stroke-width:1;}#my-svg #compositionEnd,#my-svg .composition{fill:#666!important;stroke:#666!important;stroke-width:1;}#my-svg #dependencyStart,#my-svg .dependency{fill:#666!important;stroke:#666!important;stroke-width:1;}#my-svg #dependencyStart,#my-svg .dependency{fill:#666!important;stroke:#666!important;stroke-width:1;}#my-svg #extensionStart,#my-svg .extension{fill:transparent!important;stroke:#666!important;stroke-width:1;}#my-svg #extensionEnd,#my-svg .extension{fill:transparent!important;stroke:#666!important;stroke-width:1;}#my-svg #aggregationStart,#my-svg .aggregation{fill:transparent!important;stroke:#666!important;stroke-width:1;}#my-svg #aggregationEnd,#my-svg .aggregation{fill:transparent!important;stroke:#666!important;stroke-width:1;}#my-svg #lollipopStart,#my-svg .lollipop{fill:#eee!important;stroke:#666!important;stroke-width:1;}#my-svg #lollipopEnd,#my-svg .lollipop{fill:#eee!important;stroke:#666!important;stroke-width:1;}#my-svg .edgeTerminals{font-size:11px;}#my-svg .classTitleText{text-anchor:middle;font-size:18px;fill:#000000;}#my-svg :root{--mermaid-font-family:"trebuchet ms",verdana,arial,sans-serif;}</style><g><defs><marker orient="auto" markerHeight="240" markerWidth="190" refY="7" refX="18" class="marker aggregation classDiagram" id="my-svg_classDiagram-aggregationStart"><path d="M 18,7 L9,13 L1,7 L9,1 Z"/></marker></defs><defs><marker orient="auto" markerHeight="28" markerWidth="20" refY="7" refX="1" class="marker aggregation classDiagram" id="my-svg_classDiagram-aggregationEnd"><path d="M 18,7 L9,13 L1,7 L9,1 Z"/></marker></defs><defs><marker orient="auto" markerHeight="240" markerWidth="190" refY="7" refX="18" class="marker extension classDiagram" id="my-svg_classDiagram-extensionStart"><path d="M 1,7 L18,13 V 1 Z"/></marker></defs><defs><marker orient="auto" markerHeight="28" markerWidth="20" refY="7" refX="1" class="marker extension classDiagram" id="my-svg_classDiagram-extensionEnd"><path d="M 1,1 V 13 L18,7 Z"/></marker></defs><defs><marker orient="auto" markerHeight="240" markerWidth="190" refY="7" refX="18" class="marker composition classDiagram" id="my-svg_classDiagram-compositionStart"><path d="M 18,7 L9,13 L1,7 L9,1 Z"/></marker></defs><defs><marker orient="auto" markerHeight="28" markerWidth="20" refY="7" refX="1" class="marker composition classDiagram" id="my-svg_classDiagram-compositionEnd"><path d="M 18,7 L9,13 L1,7 L9,1 Z"/></marker></defs><defs><marker orient="auto" markerHeight="240" markerWidth="190" refY="7" refX="6" class="marker dependency classDiagram" id="my-svg_classDiagram-dependencyStart"><path d="M 5,7 L9,13 L1,7 L9,1 Z"/></marker></defs><defs><marker orient="auto" markerHeight="28" markerWidth="20" refY="7" refX="13" class="marker dependency classDiagram" id="my-svg_classDiagram-dependencyEnd"><path d="M 18,7 L9,13 L14,7 L9,1 Z"/></marker></defs><defs><marker orient="auto" markerHeight="240" markerWidth="190" refY="7" refX="13" class="marker lollipop classDiagram" id="my-svg_classDiagram-lollipopStart"><circle r="6" cy="7" cx="7" fill="transparent" stroke="black"/></marker></defs><defs><marker orient="auto" markerHeight="240" markerWidth="190" refY="7" refX="1" class="marker lollipop classDiagram" id="my-svg_classDiagram-lollipopEnd"><circle r="6" cy="7" cx="7" fill="transparent" stroke="black"/></marker></defs><g class="root"><g class="clusters"/><g class="edgePaths"><path marker-start="url(#my-svg_classDiagram-compositionStart)" style="fill:none" class="edge-pattern-solid relation" id="id1" d="M117.44393532708617,155.5493791509277L113.28140443923847,159.54114929243977C109.11887355139078,163.5329194339518,100.79381177569537,171.5164597169759,109.31650224201435,182.70993007255478C117.83919270833333,193.90340042813364,143.20963541666666,208.30680085626724,155.89485677083334,215.50850107033406L168.580078125,222.71020128440085"/><path marker-end="url(#my-svg_classDiagram-dependencyEnd)" style="fill:none" class="edge-pattern-dashed relation" id="id2" d="M425.4566819105691,146L423.0146828421409,151.58333333333334C420.57268377371275,157.16666666666666,415.6886856368564,168.33333333333334,390.71559997406416,182.38727985533254C365.74251431127203,196.44122637733176,320.6803411225441,213.38245275466352,298.1492545281801,221.8530659433294L275.61816793381615,230.3236791319953"/><path marker-end="url(#my-svg_classDiagram-dependencyEnd)" style="fill:none" class="edge-pattern-dashed relation" id="id3" d="M489.9765625,143.61447245564892L502.1822916666667,149.59539371304075C514.3880208333334,155.5763149704326,538.7994791666666,167.53815748521632,551.0052083333334,179.8524120759415C563.2109375,192.16666666666666,563.2109375,204.83333333333334,563.2109375,211.16666666666666L563.2109375,217.5"/><path marker-start="url(#my-svg_classDiagram-dependencyStart)" style="fill:none" class="edge-pattern-dashed relation" id="id4" d="M188.17828609733016,133.0757216464171L204.38555091444178,140.81310137201424C220.59281573155343,148.5504810976114,253.0073453657767,164.0252405488057,312.54989664122166,182.99467022237374C372.0924479166667,201.96409989594176,458.7630208333333,224.42819979188346,502.0983072916667,235.66024973985432L545.43359375,246.8922996878252"/><path style="fill:none" class="edge-pattern-dotted relation" id="edgeNote5" d="M725.6171875,134L725.6171875,141.58333333333334C725.6171875,149.16666666666666,725.6171875,164.33333333333334,701.5123697916666,182.60312038996858C677.4075520833334,200.87290744660382,629.1979166666666,222.2458148932076,605.0930989583334,232.93226861650953L580.98828125,243.61872233981143"/><path style="fill:none" class="edge-pattern-dotted relation" id="edgeNote6" d="M437.703125,40L437.703125,44.166666666666664C437.703125,48.333333333333336,437.703125,56.666666666666664,437.703125,65C437.703125,73.33333333333333,437.703125,81.66666666666667,437.703125,85.83333333333333L437.703125,90"/></g><g class="edgeLabels"><g transform="translate(92.46875, 179.5)" class="edgeLabel"><g transform="translate(-84.46875, -8.5)" class="label"><rect height="17.741273880004883" width="169.0723114013672" ry="0" rx="0"/><text style=""><tspan class="row" x="0" dy="1em" xml:space="preserve">Creates DOM Elements</tspan></text></g></g><g transform="translate(410.8046875, 179.5)" class="edgeLabel"><g transform="translate(-16.8984375, -8.5)" class="label"><rect height="17.741273880004883" width="34.052978515625" ry="0" rx="0"/><text style=""><tspan class="row" x="0" dy="1em" xml:space="preserve">uses</tspan></text></g></g><g transform="translate(563.2109375, 179.5)" class="edgeLabel"><g transform="translate(-16.8984375, -8.5)" class="label"><rect height="17.741273880004883" width="34.052978515625" ry="0" rx="0"/><text style=""><tspan class="row" x="0" dy="1em" xml:space="preserve">uses</tspan></text></g></g><g transform="translate(285.421875, 179.5)" class="edgeLabel"><g transform="translate(-88.484375, -8.5)" class="label"><rect height="17.741273880004883" width="177.0885467529297" ry="0" rx="0"/><text style=""><tspan class="row" x="0" dy="1em" xml:space="preserve">Changes DOM Elements</tspan></text></g></g><g class="edgeLabel"><g transform="translate(0, 0)" class="label"><rect height="0" width="0" ry="0" rx="0"/><text style=""><tspan class="row" x="0" dy="1em" xml:space="preserve"/></text></g></g><g class="edgeLabel"><g transform="translate(0, 0)" class="label"><rect height="0" width="0" ry="0" rx="0"/><text style=""><tspan class="row" x="0" dy="1em" xml:space="preserve"/></text></g></g></g><g class="nodes"><g transform="translate(156.599609375, 118)" id="classId-DOM-0" class="node default"><rect height="56" width="52.328125" y="-28" x="-26.1640625" class="outer title-state"/><line y2="1" y1="1" x2="26.1640625" x1="-26.1640625" class="divider"/><line y2="17" y1="17" x2="26.1640625" x1="-26.1640625" class="divider"/><g class="label"><text style=""><tspan class="title-row" x="0" dy="1em" xml:space="preserve"/></text><text transform="translate( -18.6640625, -20.5)" class="classTitle" style=""><tspan class="title-row" x="0" dy="1em" xml:space="preserve">DOM</tspan></text></g></g><g transform="translate(219.291015625, 251.5)" id="classId-React-1" class="node default"><rect height="77" width="101.421875" y="-38.5" x="-50.7109375" class="outer title-state"/><line y2="-9.5" y1="-9.5" x2="50.7109375" x1="-50.7109375" class="divider"/><line y2="6.5" y1="6.5" x2="50.7109375" x1="-50.7109375" class="divider"/><g class="label"><text style=""><tspan class="title-row" x="0" dy="1em" xml:space="preserve"/></text><text transform="translate( -22.125, -31)" class="classTitle" style=""><tspan class="title-row" x="0" dy="1em" xml:space="preserve">React</tspan></text><text transform="translate( -43.2109375, 14)" style=""><tspan class="title-row" x="0" dy="1em" xml:space="preserve">+useEffect()</tspan></text></g></g><g transform="translate(437.703125, 118)" id="classId-Component-2" class="node default"><rect height="56" width="104.546875" y="-28" x="-52.2734375" class="outer title-state"/><line y2="1" y1="1" x2="52.2734375" x1="-52.2734375" class="divider"/><line y2="17" y1="17" x2="52.2734375" x1="-52.2734375" class="divider"/><g class="label"><text style=""><tspan class="title-row" x="0" dy="1em" xml:space="preserve"/></text><text transform="translate( -44.7734375, -20.5)" class="classTitle" style=""><tspan class="title-row" x="0" dy="1em" xml:space="preserve">Component</tspan></text></g></g><g transform="translate(563.2109375, 251.5)" id="classId-D3-3" class="node default"><rect height="56" width="35.5546875" y="-28" x="-17.77734375" class="outer title-state"/><line y2="1" y1="1" x2="17.77734375" x1="-17.77734375" class="divider"/><line y2="17" y1="17" x2="17.77734375" x1="-17.77734375" class="divider"/><g class="label"><text style=""><tspan class="title-row" x="0" dy="1em" xml:space="preserve"/></text><text transform="translate( -10.27734375, -20.5)" class="classTitle" style=""><tspan class="title-row" x="0" dy="1em" xml:space="preserve">D3</tspan></text></g></g><g transform="translate(725.6171875, 118)" id="note0" class="node undefined"><rect height="32" width="371.28125" y="-16" x="-185.640625" ry="0" rx="0"/><g transform="translate(-178.140625, -8.5)" style="" class="label"><rect/><text style=""><tspan class="row" x="0" dy="1em" xml:space="preserve">useEffect() allows D3 to customize DOM elements</tspan></text></g></g><g transform="translate(437.703125, 24)" id="note1" class="node undefined"><rect height="32" width="249.828125" y="-16" x="-124.9140625" ry="0" rx="0"/><g transform="translate(-117.4140625, -8.5)" style="" class="label"><rect/><text style=""><tspan class="row" x="0" dy="1em" xml:space="preserve">Defines what should be rendered</tspan></text></g></g></g></g></g></svg>