<svg aria-roledescription="classDiagram" role="graphics-document document" viewBox="-8 -8 903.00390625 313.5" style="max-width: 903.004px; background-color: white;" xmlns:xlink="http://www.w3.org/1999/xlink" xmlns="http://www.w3.org/2000/svg" width="100%" id="my-svg"><style>#my-svg{font-family:"trebuchet ms",verdana,arial,sans-serif;font-size:16px;fill:#000000;}#my-svg .error-icon{fill:#552222;}#my-svg .error-text{fill:#552222;stroke:#552222;}#my-svg .edge-thickness-normal{stroke-width:2px;}#my-svg .edge-thickness-thick{stroke-width:3.5px;}#my-svg .edge-pattern-solid{stroke-dasharray:0;}#my-svg .edge-pattern-dashed{stroke-dasharray:3;}#my-svg .edge-pattern-dotted{stroke-dasharray:2;}#my-svg .marker{fill:#666;stroke:#666;}#my-svg .marker.cross{stroke:#666;}#my-svg svg{font-family:"trebuchet ms",verdana,arial,sans-serif;font-size:16px;}#my-svg g.classGroup text{fill:#999;stroke:none;font-family:"trebuchet ms",verdana,arial,sans-serif;font-size:10px;}#my-svg g.classGroup text .title{font-weight:bolder;}#my-svg .nodeLabel,#my-svg .edgeLabel{color:#111111;}#my-svg .edgeLabel .label rect{fill:#eee;}#my-svg .label text{fill:#111111;}#my-svg .edgeLabel .label span{background:#eee;}#my-svg .classTitle{font-weight:bolder;}#my-svg .node rect,#my-svg .node circle,#my-svg .node ellipse,#my-svg .node polygon,#my-svg .node path{fill:#eee;stroke:#999;stroke-width:1px;}#my-svg .divider{stroke:#999;stroke-width:1;}#my-svg g.clickable{cursor:pointer;}#my-svg g.classGroup rect{fill:#eee;stroke:#999;}#my-svg g.classGroup line{stroke:#999;stroke-width:1;}#my-svg .classLabel .box{stroke:none;stroke-width:0;fill:#eee;opacity:0.5;}#my-svg .classLabel .label{fill:#999;font-size:10px;}#my-svg .relation{stroke:#666;stroke-width:1;fill:none;}#my-svg .dashed-line{stroke-dasharray:3;}#my-svg .dotted-line{stroke-dasharray:1 2;}#my-svg #compositionStart,#my-svg .composition{fill:#666!important;stroke:#666!important;stroke-width:1;}#my-svg #compositionEnd,#my-svg .composition{fill:#666!important;stroke:#666!important;stroke-width:1;}#my-svg #dependencyStart,#my-svg .dependency{fill:#666!important;stroke:#666!important;stroke-width:1;}#my-svg #dependencyStart,#my-svg .dependency{fill:#666!important;stroke:#666!important;stroke-width:1;}#my-svg #extensionStart,#my-svg .extension{fill:transparent!important;stroke:#666!important;stroke-width:1;}#my-svg #extensionEnd,#my-svg .extension{fill:transparent!important;stroke:#666!important;stroke-width:1;}#my-svg #aggregationStart,#my-svg .aggregation{fill:transparent!important;stroke:#666!important;stroke-width:1;}#my-svg #aggregationEnd,#my-svg .aggregation{fill:transparent!important;stroke:#666!important;stroke-width:1;}#my-svg #lollipopStart,#my-svg .lollipop{fill:#eee!important;stroke:#666!important;stroke-width:1;}#my-svg #lollipopEnd,#my-svg .lollipop{fill:#eee!important;stroke:#666!important;stroke-width:1;}#my-svg .edgeTerminals{font-size:11px;}#my-svg .classTitleText{text-anchor:middle;font-size:18px;fill:#000000;}#my-svg :root{--mermaid-font-family:"trebuchet ms",verdana,arial,sans-serif;}</style><g><defs><marker orient="auto" markerHeight="240" markerWidth="190" refY="7" refX="18" class="marker aggregation classDiagram" id="my-svg_classDiagram-aggregationStart"><path d="M 18,7 L9,13 L1,7 L9,1 Z"/></marker></defs><defs><marker orient="auto" markerHeight="28" markerWidth="20" refY="7" refX="1" class="marker aggregation classDiagram" id="my-svg_classDiagram-aggregationEnd"><path d="M 18,7 L9,13 L1,7 L9,1 Z"/></marker></defs><defs><marker orient="auto" markerHeight="240" markerWidth="190" refY="7" refX="18" class="marker extension classDiagram" id="my-svg_classDiagram-extensionStart"><path d="M 1,7 L18,13 V 1 Z"/></marker></defs><defs><marker orient="auto" markerHeight="28" markerWidth="20" refY="7" refX="1" class="marker extension classDiagram" id="my-svg_classDiagram-extensionEnd"><path d="M 1,1 V 13 L18,7 Z"/></marker></defs><defs><marker orient="auto" markerHeight="240" markerWidth="190" refY="7" refX="18" class="marker composition classDiagram" id="my-svg_classDiagram-compositionStart"><path d="M 18,7 L9,13 L1,7 L9,1 Z"/></marker></defs><defs><marker orient="auto" markerHeight="28" markerWidth="20" refY="7" refX="1" class="marker composition classDiagram" id="my-svg_classDiagram-compositionEnd"><path d="M 18,7 L9,13 L1,7 L9,1 Z"/></marker></defs><defs><marker orient="auto" markerHeight="240" markerWidth="190" refY="7" refX="6" class="marker dependency classDiagram" id="my-svg_classDiagram-dependencyStart"><path d="M 5,7 L9,13 L1,7 L9,1 Z"/></marker></defs><defs><marker orient="auto" markerHeight="28" markerWidth="20" refY="7" refX="13" class="marker dependency classDiagram" id="my-svg_classDiagram-dependencyEnd"><path d="M 18,7 L9,13 L14,7 L9,1 Z"/></marker></defs><defs><marker orient="auto" markerHeight="240" markerWidth="190" refY="7" refX="13" class="marker lollipop classDiagram" id="my-svg_classDiagram-lollipopStart"><circle r="6" cy="7" cx="7" fill="transparent" stroke="black"/></marker></defs><defs><marker orient="auto" markerHeight="240" markerWidth="190" refY="7" refX="1" class="marker lollipop classDiagram" id="my-svg_classDiagram-lollipopEnd"><circle r="6" cy="7" cx="7" fill="transparent" stroke="black"/></marker></defs><g class="root"><g class="clusters"/><g class="edgePaths"><path marker-start="url(#my-svg_classDiagram-compositionStart)" style="fill:none" class="edge-pattern-solid relation" id="id1" d="M110.22913938853598,159.91701175440542L106.66100157377998,163.80584312867117C103.092863759024,167.69467450293695,95.956588129512,175.47233725146847,103.32822896058933,186.31102950706978C110.69986979166667,197.14972176267108,132.57942708333334,211.04944352534213,143.51920572916666,217.99930440667768L154.458984375,224.94916528801323"/><path marker-end="url(#my-svg_classDiagram-dependencyEnd)" style="fill:none" class="edge-pattern-dashed relation" id="id2" d="M404.42469618055554,149L402.1403718171296,154.70833333333334C399.8560474537037,160.41666666666666,395.2873987268519,171.83333333333334,371.6339324012559,186.11720477809646C347.98046607566,200.4010762228596,305.24218215132004,217.55215244571912,283.87304018915,226.1276905571489L262.50389822698,234.70322866857867"/><path marker-end="url(#my-svg_classDiagram-dependencyEnd)" style="fill:none" class="edge-pattern-dashed relation" id="id3" d="M466.12890625,145.50738975806829L478.6311848958333,151.79782479839022C491.1334635416667,158.0882598387122,516.1380208333334,170.6691299193561,528.6402994791666,183.54289829301138C541.142578125,196.41666666666666,541.142578125,209.58333333333334,541.142578125,216.16666666666666L541.142578125,222.75"/><path marker-start="url(#my-svg_classDiagram-dependencyStart)" style="fill:none" class="edge-pattern-dashed relation" id="id4" d="M176.2176928640354,135.05231214561803L192.2771138450295,143.08526012134837C208.33653482602358,151.11820809707868,240.4553767880118,167.18410404853935,298.3881701648392,186.79361267209126C356.3209635416667,206.40312129564313,440.0677083333333,229.55624259128626,481.9410807291667,241.13280323910783L523.814453125,252.7093638869294"/><path style="fill:none" class="edge-pattern-dotted relation" id="edgeNote5" d="M701.56640625,137L701.56640625,144.70833333333334C701.56640625,152.41666666666666,701.56640625,167.83333333333334,677.7171223958334,186.57998526851478C653.8678385416666,205.32663720369627,606.1692708333334,227.40327440739256,582.3199869791666,238.44159300924068L558.470703125,249.4799116110888"/><path style="fill:none" class="edge-pattern-dotted relation" id="edgeNote6" d="M415.9296875,41.5L415.9296875,45.666666666666664C415.9296875,49.833333333333336,415.9296875,58.166666666666664,415.9296875,66.5C415.9296875,74.83333333333333,415.9296875,83.16666666666667,415.9296875,87.33333333333333L415.9296875,91.5"/></g><g class="edgeLabels"><g transform="translate(88.8203125, 183.25)" class="edgeLabel"><g transform="translate(-80.8203125, -9.25)" class="label"><rect height="18.428998947143555" width="161.63169860839844" ry="0" rx="0"/><text style=""><tspan class="row" x="0" dy="1em" xml:space="preserve">Creates DOM Elements</tspan></text></g></g><g transform="translate(390.71875, 183.25)" class="edgeLabel"><g transform="translate(-15.2109375, -9.25)" class="label"><rect height="18.428998947143555" width="30.424049377441406" ry="0" rx="0"/><text style=""><tspan class="row" x="0" dy="1em" xml:space="preserve">uses</tspan></text></g></g><g transform="translate(541.142578125, 183.25)" class="edgeLabel"><g transform="translate(-15.2109375, -9.25)" class="label"><rect height="18.428998947143555" width="30.424049377441406" ry="0" rx="0"/><text style=""><tspan class="row" x="0" dy="1em" xml:space="preserve">uses</tspan></text></g></g><g transform="translate(272.57421875, 183.25)" class="edgeLabel"><g transform="translate(-82.93359375, -9.25)" class="label"><rect height="18.428998947143555" width="165.8610076904297" ry="0" rx="0"/><text style=""><tspan class="row" x="0" dy="1em" xml:space="preserve">Changes DOM Elements</tspan></text></g></g><g class="edgeLabel"><g transform="translate(0, 0)" class="label"><rect height="0" width="0" ry="0" rx="0"/><text style=""><tspan class="row" x="0" dy="1em" xml:space="preserve"/></text></g></g><g class="edgeLabel"><g transform="translate(0, 0)" class="label"><rect height="0" width="0" ry="0" rx="0"/><text style=""><tspan class="row" x="0" dy="1em" xml:space="preserve"/></text></g></g></g><g class="nodes"><g transform="translate(146.625, 120.25)" id="classId-DOM-0" class="node default"><rect height="57.5" width="48.453125" y="-28.75" x="-24.2265625" class="outer title-state"/><line y2="1.75" y1="1.75" x2="24.2265625" x1="-24.2265625" class="divider"/><line y2="17.75" y1="17.75" x2="24.2265625" x1="-24.2265625" class="divider"/><g class="label"><text style=""><tspan class="title-row" x="0" dy="1em" xml:space="preserve"/></text><text transform="translate( -16.7265625, -21.25)" class="classTitle" style=""><tspan class="title-row" x="0" dy="1em" xml:space="preserve">DOM</tspan></text></g></g><g transform="translate(205.697265625, 257.5)" id="classId-React-1" class="node default"><rect height="80" width="102.4765625" y="-40" x="-51.23828125" class="outer title-state"/><line y2="-9.5" y1="-9.5" x2="51.23828125" x1="-51.23828125" class="divider"/><line y2="6.5" y1="6.5" x2="51.23828125" x1="-51.23828125" class="divider"/><g class="label"><text style=""><tspan class="title-row" x="0" dy="1em" xml:space="preserve"/></text><text transform="translate( -21.01171875, -32.5)" class="classTitle" style=""><tspan class="title-row" x="0" dy="1em" xml:space="preserve">React</tspan></text><text transform="translate( -43.73828125, 14)" style=""><tspan class="title-row" x="0" dy="1em" xml:space="preserve">+useEffect()</tspan></text></g></g><g transform="translate(415.9296875, 120.25)" id="classId-Component-2" class="node default"><rect height="57.5" width="100.3984375" y="-28.75" x="-50.19921875" class="outer title-state"/><line y2="1.75" y1="1.75" x2="50.19921875" x1="-50.19921875" class="divider"/><line y2="17.75" y1="17.75" x2="50.19921875" x1="-50.19921875" class="divider"/><g class="label"><text style=""><tspan class="title-row" x="0" dy="1em" xml:space="preserve"/></text><text transform="translate( -42.69921875, -21.25)" class="classTitle" style=""><tspan class="title-row" x="0" dy="1em" xml:space="preserve">Component</tspan></text></g></g><g transform="translate(541.142578125, 257.5)" id="classId-D3-3" class="node default"><rect height="57.5" width="34.65625" y="-28.75" x="-17.328125" class="outer title-state"/><line y2="1.75" y1="1.75" x2="17.328125" x1="-17.328125" class="divider"/><line y2="17.75" y1="17.75" x2="17.328125" x1="-17.328125" class="divider"/><g class="label"><text style=""><tspan class="title-row" x="0" dy="1em" xml:space="preserve"/></text><text transform="translate( -9.828125, -21.25)" class="classTitle" style=""><tspan class="title-row" x="0" dy="1em" xml:space="preserve">D3</tspan></text></g></g><g transform="translate(701.56640625, 120.25)" id="note0" class="node undefined"><rect height="33.5" width="370.875" y="-16.75" x="-185.4375" ry="0" rx="0"/><g transform="translate(-177.9375, -9.25)" style="" class="label"><rect/><text style=""><tspan class="row" x="0" dy="1em" xml:space="preserve">useEffect() allows D3 to customize DOM elements</tspan></text></g></g><g transform="translate(415.9296875, 24.75)" id="note1" class="node undefined"><rect height="33.5" width="251.6484375" y="-16.75" x="-125.82421875" ry="0" rx="0"/><g transform="translate(-118.32421875, -9.25)" style="" class="label"><rect/><text style=""><tspan class="row" x="0" dy="1em" xml:space="preserve">Defines what should be rendered</tspan></text></g></g></g></g></g></svg>