<svg aria-roledescription="classDiagram" role="graphics-document document" viewBox="-8 -8 526.724609375 1196" style="max-width: 526.725px; background-color: white;" xmlns:xlink="http://www.w3.org/1999/xlink" xmlns="http://www.w3.org/2000/svg" width="100%" id="my-svg"><style>#my-svg{font-family:"trebuchet ms",verdana,arial,sans-serif;font-size:16px;fill:#000000;}#my-svg .error-icon{fill:#552222;}#my-svg .error-text{fill:#552222;stroke:#552222;}#my-svg .edge-thickness-normal{stroke-width:2px;}#my-svg .edge-thickness-thick{stroke-width:3.5px;}#my-svg .edge-pattern-solid{stroke-dasharray:0;}#my-svg .edge-pattern-dashed{stroke-dasharray:3;}#my-svg .edge-pattern-dotted{stroke-dasharray:2;}#my-svg .marker{fill:#666;stroke:#666;}#my-svg .marker.cross{stroke:#666;}#my-svg svg{font-family:"trebuchet ms",verdana,arial,sans-serif;font-size:16px;}#my-svg g.classGroup text{fill:#999;stroke:none;font-family:"trebuchet ms",verdana,arial,sans-serif;font-size:10px;}#my-svg g.classGroup text .title{font-weight:bolder;}#my-svg .nodeLabel,#my-svg .edgeLabel{color:#111111;}#my-svg .edgeLabel .label rect{fill:#eee;}#my-svg .label text{fill:#111111;}#my-svg .edgeLabel .label span{background:#eee;}#my-svg .classTitle{font-weight:bolder;}#my-svg .node rect,#my-svg .node circle,#my-svg .node ellipse,#my-svg .node polygon,#my-svg .node path{fill:#eee;stroke:#999;stroke-width:1px;}#my-svg .divider{stroke:#999;stroke-width:1;}#my-svg g.clickable{cursor:pointer;}#my-svg g.classGroup rect{fill:#eee;stroke:#999;}#my-svg g.classGroup line{stroke:#999;stroke-width:1;}#my-svg .classLabel .box{stroke:none;stroke-width:0;fill:#eee;opacity:0.5;}#my-svg .classLabel .label{fill:#999;font-size:10px;}#my-svg .relation{stroke:#666;stroke-width:1;fill:none;}#my-svg .dashed-line{stroke-dasharray:3;}#my-svg .dotted-line{stroke-dasharray:1 2;}#my-svg #compositionStart,#my-svg .composition{fill:#666!important;stroke:#666!important;stroke-width:1;}#my-svg #compositionEnd,#my-svg .composition{fill:#666!important;stroke:#666!important;stroke-width:1;}#my-svg #dependencyStart,#my-svg .dependency{fill:#666!important;stroke:#666!important;stroke-width:1;}#my-svg #dependencyStart,#my-svg .dependency{fill:#666!important;stroke:#666!important;stroke-width:1;}#my-svg #extensionStart,#my-svg .extension{fill:transparent!important;stroke:#666!important;stroke-width:1;}#my-svg #extensionEnd,#my-svg .extension{fill:transparent!important;stroke:#666!important;stroke-width:1;}#my-svg #aggregationStart,#my-svg .aggregation{fill:transparent!important;stroke:#666!important;stroke-width:1;}#my-svg #aggregationEnd,#my-svg .aggregation{fill:transparent!important;stroke:#666!important;stroke-width:1;}#my-svg #lollipopStart,#my-svg .lollipop{fill:#eee!important;stroke:#666!important;stroke-width:1;}#my-svg #lollipopEnd,#my-svg .lollipop{fill:#eee!important;stroke:#666!important;stroke-width:1;}#my-svg .edgeTerminals{font-size:11px;}#my-svg .classTitleText{text-anchor:middle;font-size:18px;fill:#000000;}#my-svg :root{--mermaid-font-family:"trebuchet ms",verdana,arial,sans-serif;}</style><g><defs><marker orient="auto" markerHeight="240" markerWidth="190" refY="7" refX="18" class="marker aggregation classDiagram" id="my-svg_classDiagram-aggregationStart"><path d="M 18,7 L9,13 L1,7 L9,1 Z"/></marker></defs><defs><marker orient="auto" markerHeight="28" markerWidth="20" refY="7" refX="1" class="marker aggregation classDiagram" id="my-svg_classDiagram-aggregationEnd"><path d="M 18,7 L9,13 L1,7 L9,1 Z"/></marker></defs><defs><marker orient="auto" markerHeight="240" markerWidth="190" refY="7" refX="18" class="marker extension classDiagram" id="my-svg_classDiagram-extensionStart"><path d="M 1,7 L18,13 V 1 Z"/></marker></defs><defs><marker orient="auto" markerHeight="28" markerWidth="20" refY="7" refX="1" class="marker extension classDiagram" id="my-svg_classDiagram-extensionEnd"><path d="M 1,1 V 13 L18,7 Z"/></marker></defs><defs><marker orient="auto" markerHeight="240" markerWidth="190" refY="7" refX="18" class="marker composition classDiagram" id="my-svg_classDiagram-compositionStart"><path d="M 18,7 L9,13 L1,7 L9,1 Z"/></marker></defs><defs><marker orient="auto" markerHeight="28" markerWidth="20" refY="7" refX="1" class="marker composition classDiagram" id="my-svg_classDiagram-compositionEnd"><path d="M 18,7 L9,13 L1,7 L9,1 Z"/></marker></defs><defs><marker orient="auto" markerHeight="240" markerWidth="190" refY="7" refX="6" class="marker dependency classDiagram" id="my-svg_classDiagram-dependencyStart"><path d="M 5,7 L9,13 L1,7 L9,1 Z"/></marker></defs><defs><marker orient="auto" markerHeight="28" markerWidth="20" refY="7" refX="13" class="marker dependency classDiagram" id="my-svg_classDiagram-dependencyEnd"><path d="M 18,7 L9,13 L14,7 L9,1 Z"/></marker></defs><defs><marker orient="auto" markerHeight="240" markerWidth="190" refY="7" refX="13" class="marker lollipop classDiagram" id="my-svg_classDiagram-lollipopStart"><circle r="6" cy="7" cx="7" fill="transparent" stroke="black"/></marker></defs><defs><marker orient="auto" markerHeight="240" markerWidth="190" refY="7" refX="1" class="marker lollipop classDiagram" id="my-svg_classDiagram-lollipopEnd"><circle r="6" cy="7" cx="7" fill="transparent" stroke="black"/></marker></defs><g class="root"><g class="clusters"/><g class="edgePaths"><path marker-start="url(#my-svg_classDiagram-compositionStart)" style="fill:none" class="edge-pattern-solid relation" id="id1" d="M63.57421875,401.5L63.57421875,405.8333333333333C63.57421875,410.1666666666667,63.57421875,418.8333333333333,74.126953125,428.89501204617824C84.6796875,438.9566907590233,105.78515625,450.4133815180465,116.337890625,456.1417268975581L126.890625,461.8700722770697"/><path marker-end="url(#my-svg_classDiagram-compositionEnd)" style="fill:none" class="edge-pattern-solid relation" id="id2" d="M378.53125,62.340607089789856L391.6819661458333,68.2005059081582C404.8326822916667,74.06040472652657,431.1341145833333,85.78020236326329,444.2848307291667,103.64010118163164C457.435546875,121.5,457.435546875,145.5,457.435546875,169.5C457.435546875,193.5,457.435546875,217.5,457.435546875,237.33333333333334C457.435546875,257.1666666666667,457.435546875,272.8333333333333,457.435546875,280.6666666666667L457.435546875,288.5"/><path style="fill:none" class="edge-pattern-dashed relation" id="id3" d="M260.3046875,59.544220698727514L244.421875,65.87018391560626C228.5390625,72.19614713248501,196.7734375,84.8480735662425,180.890625,98.50737011645458C165.0078125,112.16666666666667,165.0078125,126.83333333333333,165.0078125,134.16666666666666L165.0078125,141.5"/><path marker-end="url(#my-svg_classDiagram-dependencyEnd)" style="fill:none" class="edge-pattern-solid relation" id="id4" d="M234.8984375,394L234.8984375,399.5833333333333C234.8984375,405.1666666666667,234.8984375,416.3333333333333,234.8984375,426.5C234.8984375,436.6666666666667,234.8984375,445.8333333333333,234.8984375,450.4166666666667L234.8984375,455"/><path marker-end="url(#my-svg_classDiagram-compositionEnd)" style="fill:none" class="edge-pattern-solid relation" id="id5" d="M165.0078125,197.5L165.0078125,204.83333333333334C165.0078125,212.16666666666666,165.0078125,226.83333333333334,167.40143498693325,237.3517417934779C169.79505747386648,247.87015025362246,174.58230244773293,254.2403005072449,176.97592493466618,257.42537563405614L179.3695474215994,260.61045076086737"/><path marker-end="url(#my-svg_classDiagram-dependencyEnd)" style="fill:none" class="edge-pattern-solid relation" id="id6" d="M304.7890625,208L304.7890625,213.58333333333334C304.7890625,219.16666666666666,304.7890625,230.33333333333334,301.1938933108072,240.70058059782596C297.5987241216144,251.0678278623186,290.4083857432288,260.63565572463716,286.813216554036,265.41956965579647L283.2180473648432,270.20348358695577"/><path marker-start="url(#my-svg_classDiagram-compositionStart)" style="fill:none" class="edge-pattern-solid relation" id="id7" d="M457.435546875,380.5L457.435546875,388.3333333333333C457.435546875,396.1666666666667,457.435546875,411.8333333333333,438.3473307291667,427.64378161413856C419.2591145833333,443.4542298949438,381.0826822916667,459.40845978988756,361.9944661458333,467.3855747373595L342.90625,475.36268968483137"/><path marker-start="url(#my-svg_classDiagram-compositionStart)" style="fill:none" class="edge-pattern-solid relation" id="id8" d="M171.23121726625766,593.5712099558879L168.3372123052147,596.8926749632399C165.44320734417178,600.2141399705919,159.65519742208588,606.8570699852959,156.76119246104295,615.7618683259813C153.8671875,624.6666666666666,153.8671875,635.8333333333334,153.8671875,641.4166666666666L153.8671875,647"/><path marker-start="url(#my-svg_classDiagram-compositionStart)" style="fill:none" class="edge-pattern-solid relation" id="id9" d="M298.56565773374234,593.5712099558879L301.45966269478527,596.8926749632399C304.35366765582825,600.2141399705919,310.1416775779141,606.8570699852959,313.035682538957,615.7618683259813C315.9296875,624.6666666666666,315.9296875,635.8333333333334,315.9296875,641.4166666666666L315.9296875,647"/><path marker-start="url(#my-svg_classDiagram-compositionStart)" style="fill:none" class="edge-pattern-solid relation" id="id10" d="M153.8671875,763L153.8671875,765.5833333333334C153.8671875,768.1666666666666,153.8671875,773.3333333333334,157.83582328216374,781.5C161.8044590643275,789.6666666666666,169.74173062865498,800.8333333333334,173.7103664108187,806.4166666666666L177.67900219298247,812"/><path marker-start="url(#my-svg_classDiagram-compositionStart)" style="fill:none" class="edge-pattern-solid relation" id="id11" d="M315.9296875,763L315.9296875,765.5833333333334C315.9296875,768.1666666666666,315.9296875,773.3333333333334,311.96105171783626,781.5C307.9924159356725,789.6666666666666,300.055144371345,800.8333333333334,296.0865085891813,806.4166666666666L292.11787280701753,812"/><path marker-start="url(#my-svg_classDiagram-compositionStart)" style="fill:none" class="edge-pattern-solid relation" id="id12" d="M234.8984375,991L234.8984375,993.5833333333334C234.8984375,996.1666666666666,234.8984375,1001.3333333333334,234.8984375,1009.5C234.8984375,1017.6666666666666,234.8984375,1028.8333333333333,234.8984375,1034.4166666666667L234.8984375,1040"/></g><g class="edgeLabels"><g class="edgeLabel"><g transform="translate(0, 0)" class="label"><rect height="0" width="0" ry="0" rx="0"/><text style=""><tspan class="row" x="0" dy="1em" xml:space="preserve"/></text></g></g><g transform="translate(457.435546875, 169.5)" class="edgeLabel"><g transform="translate(-49.2421875, -8.5)" class="label"><rect height="17.00022315979004" width="98.39543914794922" ry="0" rx="0"/><text style=""><tspan class="row" x="0" dy="1em" xml:space="preserve">Defines UI for</tspan></text></g></g><g transform="translate(388.4108730024494, 83.16470308589223)" class="edgeTerminals"><g transform="translate(-3.0625, -6)" class="inner"><text style=""><tspan class="row" x="0" dy="1em" xml:space="preserve">1</tspan></text></g></g><g transform="translate(467.4355484374999, 284.0000013392857)" class="edgeTerminals"><g transform="translate(-3.0625, -6)" class="inner"/><text style=""><tspan class="row" x="0" dy="1em" xml:space="preserve">1</tspan></text></g><g transform="translate(165.0078125, 97.5)" class="edgeLabel"><g transform="translate(-69.640625, -8.5)" class="label"><rect height="17.00022315979004" width="139.1520538330078" ry="0" rx="0"/><text style=""><tspan class="row" x="0" dy="1em" xml:space="preserve">Defines structure of</tspan></text></g></g><g transform="translate(238.49646585959297, 52.08422666452011)" class="edgeTerminals"><g transform="translate(-3.0625, -6)" class="inner"><text style=""><tspan class="row" x="0" dy="1em" xml:space="preserve">1</tspan></text></g></g><g transform="translate(175.00781124999997, 118.99999892857143)" class="edgeTerminals"><g transform="translate(-3.0625, -6)" class="inner"/><text style=""><tspan class="row" x="0" dy="1em" xml:space="preserve">1</tspan></text></g><g transform="translate(234.8984375, 427.5)" class="edgeLabel"><g transform="translate(-34.96484375, -8.5)" class="label"><rect height="17.00022315979004" width="69.86726379394531" ry="0" rx="0"/><text style=""><tspan class="row" x="0" dy="1em" xml:space="preserve">Is input of</tspan></text></g></g><g transform="translate(219.89843875000003, 411.5000010714286)" class="edgeTerminals"><g transform="translate(-3.0625, -6)" class="inner"><text style=""><tspan class="row" x="0" dy="1em" xml:space="preserve">1</tspan></text></g></g><g transform="translate(244.89843874999997, 438.5000010714286)" class="edgeTerminals"><g transform="translate(-3.0625, -6)" class="inner"/><text style=""><tspan class="row" x="0" dy="1em" xml:space="preserve">1</tspan></text></g><g transform="translate(165.0078125, 241.5)" class="edgeLabel"><g transform="translate(-41.859375, -8.5)" class="label"><rect height="17.00022315979004" width="83.64694213867188" ry="0" rx="0"/><text style=""><tspan class="row" x="0" dy="1em" xml:space="preserve">wrapped by</tspan></text></g></g><g transform="translate(150.00781125000003, 214.99999892857144)" class="edgeTerminals"><g transform="translate(-3.0625, -6)" class="inner"><text style=""><tspan class="row" x="0" dy="1em" xml:space="preserve">1</tspan></text></g></g><g transform="translate(186.6612249533758, 246.9985597993164)" class="edgeTerminals"><g transform="translate(-3.0625, -6)" class="inner"/><text style=""><tspan class="row" x="0" dy="1em" xml:space="preserve">1</tspan></text></g><g transform="translate(304.7890625, 241.5)" class="edgeLabel"><g transform="translate(-22.234375, -8.5)" class="label"><rect height="17.00022315979004" width="44.43808364868164" ry="0" rx="0"/><text style=""><tspan class="row" x="0" dy="1em" xml:space="preserve">Feeds</tspan></text></g></g><g transform="translate(289.3435372921919, 224.9601350291512)" class="edgeTerminals"><g transform="translate(-3.0625, -6)" class="inner"><text style=""><tspan class="row" x="0" dy="1em" xml:space="preserve">1</tspan></text></g></g><g transform="translate(297.11823074059004, 265.0217588312447)" class="edgeTerminals"><g transform="translate(-3.0625, -6)" class="inner"/><text style=""><tspan class="row" x="0" dy="1em" xml:space="preserve">1</tspan></text></g><g transform="translate(457.435546875, 427.5)" class="edgeLabel"><g transform="translate(-31.125, -8.5)" class="label"><rect height="17.00022315979004" width="62.203941345214844" ry="0" rx="0"/><text style=""><tspan class="row" x="0" dy="1em" xml:space="preserve">Provides</tspan></text></g></g><g transform="translate(442.4355484375, 380.0000013392857)" class="edgeTerminals"><g transform="translate(-3.0625, -6)" class="inner"><text style=""><tspan class="row" x="0" dy="1em" xml:space="preserve">1</tspan></text></g></g><g transform="translate(359.8368335785801, 477.45489760621956)" class="edgeTerminals"><g transform="translate(-3.0625, -6)" class="inner"/><text style=""><tspan class="row" x="0" dy="1em" xml:space="preserve">1</tspan></text></g><g transform="translate(153.8671875, 613.5)" class="edgeLabel"><g transform="translate(-30.2421875, -8.5)" class="label"><rect height="17.00022315979004" width="60.4261474609375" ry="0" rx="0"/><text style=""><tspan class="row" x="0" dy="1em" xml:space="preserve">Renders</tspan></text></g></g><g transform="translate(160.25033995943969, 583.3403583034005)" class="edgeTerminals"><g transform="translate(-3.0625, -6)" class="inner"><text style=""><tspan class="row" x="0" dy="1em" xml:space="preserve">1</tspan></text></g></g><g transform="translate(164.35381028247514, 625.1111697377416)" class="edgeTerminals"><g transform="translate(-9.1796875, -6)" class="inner"/><text style=""><tspan class="row" x="0" dy="1em" xml:space="preserve">0..1</tspan></text></g><g transform="translate(315.9296875, 613.5)" class="edgeLabel"><g transform="translate(-30.2421875, -8.5)" class="label"><rect height="17.00022315979004" width="60.4261474609375" ry="0" rx="0"/><text style=""><tspan class="row" x="0" dy="1em" xml:space="preserve">Renders</tspan></text></g></g><g transform="translate(286.927854945512, 603.0481029147064)" class="edgeTerminals"><g transform="translate(-3.0625, -6)" class="inner"><text style=""><tspan class="row" x="0" dy="1em" xml:space="preserve">1</tspan></text></g></g><g transform="translate(325.43092522092746, 624.2578980991917)" class="edgeTerminals"><g transform="translate(-9.1796875, -6)" class="inner"/><text style=""><tspan class="row" x="0" dy="1em" xml:space="preserve">0..1</tspan></text></g><g transform="translate(153.8671875, 778.5)" class="edgeLabel"><g transform="translate(-30.2421875, -8.5)" class="label"><rect height="17.00022315979004" width="60.4261474609375" ry="0" rx="0"/><text style=""><tspan class="row" x="0" dy="1em" xml:space="preserve">Renders</tspan></text></g></g><g transform="translate(139.30639949607937, 762.7366053228745)" class="edgeTerminals"><g transform="translate(-3.0625, -6)" class="inner"><text style=""><tspan class="row" x="0" dy="1em" xml:space="preserve">1</tspan></text></g></g><g transform="translate(174.7664051275709, 784.0458567971443)" class="edgeTerminals"><g transform="translate(-3.0625, -6)" class="inner"/><text style=""><tspan class="row" x="0" dy="1em" xml:space="preserve">1</tspan></text></g><g transform="translate(315.9296875, 778.5)" class="edgeLabel"><g transform="translate(-30.2421875, -8.5)" class="label"><rect height="17.00022315979004" width="60.4261474609375" ry="0" rx="0"/><text style=""><tspan class="row" x="0" dy="1em" xml:space="preserve">Renders</tspan></text></g></g><g transform="translate(300.4998645500883, 761.9860025191775)" class="edgeTerminals"><g transform="translate(-3.0625, -6)" class="inner"><text style=""><tspan class="row" x="0" dy="1em" xml:space="preserve">1</tspan></text></g></g><g transform="translate(309.4827194226922, 801.4265246264569)" class="edgeTerminals"><g transform="translate(-3.0625, -6)" class="inner"/><text style=""><tspan class="row" x="0" dy="1em" xml:space="preserve">1</tspan></text></g><g transform="translate(234.8984375, 1006.5)" class="edgeLabel"><g transform="translate(-30.2421875, -8.5)" class="label"><rect height="17.00022315979004" width="60.4261474609375" ry="0" rx="0"/><text style=""><tspan class="row" x="0" dy="1em" xml:space="preserve">Renders</tspan></text></g></g><g transform="translate(219.89843875000003, 990.5000010714285)" class="edgeTerminals"><g transform="translate(-3.0625, -6)" class="inner"><text style=""><tspan class="row" x="0" dy="1em" xml:space="preserve">1</tspan></text></g></g><g transform="translate(244.89843874999997, 1017.5000010714285)" class="edgeTerminals"><g transform="translate(-3.0625, -6)" class="inner"/><text style=""><tspan class="row" x="0" dy="1em" xml:space="preserve">1</tspan></text></g></g><g class="nodes"><g transform="translate(457.435546875, 334.5)" id="classId-PanelPlugin-0" class="node default"><rect height="56" width="106.578125" y="-28" x="-53.2890625" class="outer title-state"/><line y2="1" y1="1" x2="53.2890625" x1="-53.2890625" class="divider"/><line y2="17" y1="17" x2="53.2890625" x1="-53.2890625" class="divider"/><g class="label"><text style=""><tspan class="title-row" x="0" dy="1em" xml:space="preserve"/></text><text transform="translate( -45.7890625, -20.5)" class="classTitle" style=""><tspan class="title-row" x="0" dy="1em" xml:space="preserve">PanelPlugin</tspan></text></g></g><g transform="translate(234.8984375, 334.5)" id="classId-PanelProps-1" class="node default"><rect height="119" width="131.5" y="-59.5" x="-65.75" class="outer title-state"/><line y2="-30.5" y1="-30.5" x2="65.75" x1="-65.75" class="divider"/><line y2="48.5" y1="48.5" x2="65.75" x1="-65.75" class="divider"/><g class="label"><text style=""><tspan class="title-row" x="0" dy="1em" xml:space="preserve"/></text><text transform="translate( -58.25, -52)" class="classTitle" style=""><tspan class="title-row" x="0" dy="1em" xml:space="preserve">PanelProps&lt;T&gt;</tspan></text><text transform="translate( -58.25, -19)" style=""><tspan class="title-row" x="0" dy="1em" xml:space="preserve">Options options</tspan></text><text transform="translate( -58.25, 2)" style=""><tspan class="title-row" x="0" dy="1em" xml:space="preserve">data</tspan></text><text transform="translate( -58.25, 23)" style=""><tspan class="title-row" x="0" dy="1em" xml:space="preserve">...</tspan></text></g></g><g transform="translate(234.8984375, 520.5)" id="classId-CorePanel-2" class="node default"><rect height="119" width="216.015625" y="-59.5" x="-108.0078125" class="outer title-state"/><line y2="-9.5" y1="-9.5" x2="108.0078125" x1="-108.0078125" class="divider"/><line y2="48.5" y1="48.5" x2="108.0078125" x1="-108.0078125" class="divider"/><g class="label"><text transform="translate( -48.53125, -52)" style=""><tspan class="title-row" x="0" dy="1em" xml:space="preserve">«component»</tspan></text><text transform="translate( -39.5703125, -31)" class="classTitle" style=""><tspan class="title-row" x="0" dy="1em" xml:space="preserve">CorePanel</tspan></text><text transform="translate( -100.5078125, 2)" style=""><tspan class="title-row" x="0" dy="1em" xml:space="preserve">PanelProps&lt;Options&gt; props</tspan></text><text transform="translate( -100.5078125, 23)" style=""><tspan class="title-row" x="0" dy="1em" xml:space="preserve">systemState</tspan></text></g></g><g transform="translate(153.8671875, 696)" id="classId-GlobalView-3" class="node default"><rect height="98" width="112.0625" y="-49" x="-56.03125" class="outer title-state"/><line y2="1" y1="1" x2="56.03125" x1="-56.03125" class="divider"/><line y2="38" y1="38" x2="56.03125" x1="-56.03125" class="divider"/><g class="label"><text transform="translate( -48.53125, -41.5)" style=""><tspan class="title-row" x="0" dy="1em" xml:space="preserve">«component»</tspan></text><text transform="translate( -43.25390625, -20.5)" class="classTitle" style=""><tspan class="title-row" x="0" dy="1em" xml:space="preserve">GlobalView</tspan></text><text transform="translate( -48.53125, 12.5)" style=""><tspan class="title-row" x="0" dy="1em" xml:space="preserve">systemState</tspan></text></g></g><g transform="translate(315.9296875, 696)" id="classId-RegionView-4" class="node default"><rect height="98" width="112.0625" y="-49" x="-56.03125" class="outer title-state"/><line y2="1" y1="1" x2="56.03125" x1="-56.03125" class="divider"/><line y2="38" y1="38" x2="56.03125" x1="-56.03125" class="divider"/><g class="label"><text transform="translate( -48.53125, -41.5)" style=""><tspan class="title-row" x="0" dy="1em" xml:space="preserve">«component»</tspan></text><text transform="translate( -45.47265625, -20.5)" class="classTitle" style=""><tspan class="title-row" x="0" dy="1em" xml:space="preserve">RegionView</tspan></text><text transform="translate( -48.53125, 12.5)" style=""><tspan class="title-row" x="0" dy="1em" xml:space="preserve">systemState</tspan></text></g></g><g transform="translate(304.7890625, 169.5)" id="classId-DataSource-5" class="node default"><rect height="77" width="104.0234375" y="-38.5" x="-52.01171875" class="outer title-state"/><line y2="11.5" y1="11.5" x2="52.01171875" x1="-52.01171875" class="divider"/><line y2="27.5" y1="27.5" x2="52.01171875" x1="-52.01171875" class="divider"/><g class="label"><text transform="translate( -37.41015625, -31)" style=""><tspan class="title-row" x="0" dy="1em" xml:space="preserve">«external»</tspan></text><text transform="translate( -44.51171875, -10)" class="classTitle" style=""><tspan class="title-row" x="0" dy="1em" xml:space="preserve">DataSource</tspan></text></g></g><g transform="translate(234.8984375, 892.5)" id="classId-TreeDisplay-6" class="node default"><rect height="161" width="114.7265625" y="-80.5" x="-57.36328125" class="outer title-state"/><line y2="-30.5" y1="-30.5" x2="57.36328125" x1="-57.36328125" class="divider"/><line y2="69.5" y1="69.5" x2="57.36328125" x1="-57.36328125" class="divider"/><g class="label"><text transform="translate( -48.53125, -73)" style=""><tspan class="title-row" x="0" dy="1em" xml:space="preserve">«component»</tspan></text><text transform="translate( -44.96484375, -52)" class="classTitle" style=""><tspan class="title-row" x="0" dy="1em" xml:space="preserve">TreeDisplay</tspan></text><text transform="translate( -49.86328125, -19)" style=""><tspan class="title-row" x="0" dy="1em" xml:space="preserve">monolithNode</tspan></text><text transform="translate( -49.86328125, 2)" style=""><tspan class="title-row" x="0" dy="1em" xml:space="preserve">balancerNode</tspan></text><text transform="translate( -49.86328125, 23)" style=""><tspan class="title-row" x="0" dy="1em" xml:space="preserve">clientNode</tspan></text><text transform="translate( -49.86328125, 44)" style=""><tspan class="title-row" x="0" dy="1em" xml:space="preserve">links</tspan></text></g></g><g transform="translate(63.57421875, 334.5)" id="classId-SystemState-7" class="node default"><rect height="98" width="111.1484375" y="-49" x="-55.57421875" class="outer title-state"/><line y2="-20" y1="-20" x2="55.57421875" x1="-55.57421875" class="divider"/><line y2="38" y1="38" x2="55.57421875" x1="-55.57421875" class="divider"/><g class="label"><text style=""><tspan class="title-row" x="0" dy="1em" xml:space="preserve"/></text><text transform="translate( -48.07421875, -41.5)" class="classTitle" style=""><tspan class="title-row" x="0" dy="1em" xml:space="preserve">SystemState</tspan></text><text transform="translate( -48.07421875, -8.5)" style=""><tspan class="title-row" x="0" dy="1em" xml:space="preserve">balancers[]</tspan></text><text transform="translate( -48.07421875, 12.5)" style=""><tspan class="title-row" x="0" dy="1em" xml:space="preserve">monoliths[]</tspan></text></g></g><g transform="translate(234.8984375, 1110)" id="classId-Legend-8" class="node default"><rect height="140" width="114.7265625" y="-70" x="-57.36328125" class="outer title-state"/><line y2="-20" y1="-20" x2="57.36328125" x1="-57.36328125" class="divider"/><line y2="59" y1="59" x2="57.36328125" x1="-57.36328125" class="divider"/><g class="label"><text transform="translate( -48.53125, -62.5)" style=""><tspan class="title-row" x="0" dy="1em" xml:space="preserve">«component»</tspan></text><text transform="translate( -28.4453125, -41.5)" class="classTitle" style=""><tspan class="title-row" x="0" dy="1em" xml:space="preserve">Legend</tspan></text><text transform="translate( -49.86328125, -8.5)" style=""><tspan class="title-row" x="0" dy="1em" xml:space="preserve">monolithNode</tspan></text><text transform="translate( -49.86328125, 12.5)" style=""><tspan class="title-row" x="0" dy="1em" xml:space="preserve">balancerNode</tspan></text><text transform="translate( -49.86328125, 33.5)" style=""><tspan class="title-row" x="0" dy="1em" xml:space="preserve">clientNode</tspan></text></g></g><g transform="translate(319.41796875, 36)" id="classId-PanelOptions-9" class="node default"><rect height="56" width="118.2265625" y="-28" x="-59.11328125" class="outer title-state"/><line y2="1" y1="1" x2="59.11328125" x1="-59.11328125" class="divider"/><line y2="17" y1="17" x2="59.11328125" x1="-59.11328125" class="divider"/><g class="label"><text style=""><tspan class="title-row" x="0" dy="1em" xml:space="preserve"/></text><text transform="translate( -51.61328125, -20.5)" class="classTitle" style=""><tspan class="title-row" x="0" dy="1em" xml:space="preserve">PanelOptions</tspan></text></g></g><g transform="translate(165.0078125, 169.5)" id="classId-Options-10" class="node default"><rect height="56" width="75.5390625" y="-28" x="-37.76953125" class="outer title-state"/><line y2="1" y1="1" x2="37.76953125" x1="-37.76953125" class="divider"/><line y2="17" y1="17" x2="37.76953125" x1="-37.76953125" class="divider"/><g class="label"><text style=""><tspan class="title-row" x="0" dy="1em" xml:space="preserve"/></text><text transform="translate( -30.26953125, -20.5)" class="classTitle" style=""><tspan class="title-row" x="0" dy="1em" xml:space="preserve">Options</tspan></text></g></g></g></g></g></svg>