<svg aria-roledescription="classDiagram" role="graphics-document document" viewBox="-8 -8 627.578125 1052" style="max-width: 627.578px; background-color: white;" xmlns:xlink="http://www.w3.org/1999/xlink" xmlns="http://www.w3.org/2000/svg" width="100%" id="my-svg"><style>#my-svg{font-family:"trebuchet ms",verdana,arial,sans-serif;font-size:16px;fill:#000000;}#my-svg .error-icon{fill:#552222;}#my-svg .error-text{fill:#552222;stroke:#552222;}#my-svg .edge-thickness-normal{stroke-width:2px;}#my-svg .edge-thickness-thick{stroke-width:3.5px;}#my-svg .edge-pattern-solid{stroke-dasharray:0;}#my-svg .edge-pattern-dashed{stroke-dasharray:3;}#my-svg .edge-pattern-dotted{stroke-dasharray:2;}#my-svg .marker{fill:#666;stroke:#666;}#my-svg .marker.cross{stroke:#666;}#my-svg svg{font-family:"trebuchet ms",verdana,arial,sans-serif;font-size:16px;}#my-svg g.classGroup text{fill:#999;stroke:none;font-family:"trebuchet ms",verdana,arial,sans-serif;font-size:10px;}#my-svg g.classGroup text .title{font-weight:bolder;}#my-svg .nodeLabel,#my-svg .edgeLabel{color:#111111;}#my-svg .edgeLabel .label rect{fill:#eee;}#my-svg .label text{fill:#111111;}#my-svg .edgeLabel .label span{background:#eee;}#my-svg .classTitle{font-weight:bolder;}#my-svg .node rect,#my-svg .node circle,#my-svg .node ellipse,#my-svg .node polygon,#my-svg .node path{fill:#eee;stroke:#999;stroke-width:1px;}#my-svg .divider{stroke:#999;stroke-width:1;}#my-svg g.clickable{cursor:pointer;}#my-svg g.classGroup rect{fill:#eee;stroke:#999;}#my-svg g.classGroup line{stroke:#999;stroke-width:1;}#my-svg .classLabel .box{stroke:none;stroke-width:0;fill:#eee;opacity:0.5;}#my-svg .classLabel .label{fill:#999;font-size:10px;}#my-svg .relation{stroke:#666;stroke-width:1;fill:none;}#my-svg .dashed-line{stroke-dasharray:3;}#my-svg .dotted-line{stroke-dasharray:1 2;}#my-svg #compositionStart,#my-svg .composition{fill:#666!important;stroke:#666!important;stroke-width:1;}#my-svg #compositionEnd,#my-svg .composition{fill:#666!important;stroke:#666!important;stroke-width:1;}#my-svg #dependencyStart,#my-svg .dependency{fill:#666!important;stroke:#666!important;stroke-width:1;}#my-svg #dependencyStart,#my-svg .dependency{fill:#666!important;stroke:#666!important;stroke-width:1;}#my-svg #extensionStart,#my-svg .extension{fill:transparent!important;stroke:#666!important;stroke-width:1;}#my-svg #extensionEnd,#my-svg .extension{fill:transparent!important;stroke:#666!important;stroke-width:1;}#my-svg #aggregationStart,#my-svg .aggregation{fill:transparent!important;stroke:#666!important;stroke-width:1;}#my-svg #aggregationEnd,#my-svg .aggregation{fill:transparent!important;stroke:#666!important;stroke-width:1;}#my-svg #lollipopStart,#my-svg .lollipop{fill:#eee!important;stroke:#666!important;stroke-width:1;}#my-svg #lollipopEnd,#my-svg .lollipop{fill:#eee!important;stroke:#666!important;stroke-width:1;}#my-svg .edgeTerminals{font-size:11px;}#my-svg .classTitleText{text-anchor:middle;font-size:18px;fill:#000000;}#my-svg :root{--mermaid-font-family:"trebuchet ms",verdana,arial,sans-serif;}</style><g><defs><marker orient="auto" markerHeight="240" markerWidth="190" refY="7" refX="18" class="marker aggregation classDiagram" id="my-svg_classDiagram-aggregationStart"><path d="M 18,7 L9,13 L1,7 L9,1 Z"/></marker></defs><defs><marker orient="auto" markerHeight="28" markerWidth="20" refY="7" refX="1" class="marker aggregation classDiagram" id="my-svg_classDiagram-aggregationEnd"><path d="M 18,7 L9,13 L1,7 L9,1 Z"/></marker></defs><defs><marker orient="auto" markerHeight="240" markerWidth="190" refY="7" refX="18" class="marker extension classDiagram" id="my-svg_classDiagram-extensionStart"><path d="M 1,7 L18,13 V 1 Z"/></marker></defs><defs><marker orient="auto" markerHeight="28" markerWidth="20" refY="7" refX="1" class="marker extension classDiagram" id="my-svg_classDiagram-extensionEnd"><path d="M 1,1 V 13 L18,7 Z"/></marker></defs><defs><marker orient="auto" markerHeight="240" markerWidth="190" refY="7" refX="18" class="marker composition classDiagram" id="my-svg_classDiagram-compositionStart"><path d="M 18,7 L9,13 L1,7 L9,1 Z"/></marker></defs><defs><marker orient="auto" markerHeight="28" markerWidth="20" refY="7" refX="1" class="marker composition classDiagram" id="my-svg_classDiagram-compositionEnd"><path d="M 18,7 L9,13 L1,7 L9,1 Z"/></marker></defs><defs><marker orient="auto" markerHeight="240" markerWidth="190" refY="7" refX="6" class="marker dependency classDiagram" id="my-svg_classDiagram-dependencyStart"><path d="M 5,7 L9,13 L1,7 L9,1 Z"/></marker></defs><defs><marker orient="auto" markerHeight="28" markerWidth="20" refY="7" refX="13" class="marker dependency classDiagram" id="my-svg_classDiagram-dependencyEnd"><path d="M 18,7 L9,13 L14,7 L9,1 Z"/></marker></defs><defs><marker orient="auto" markerHeight="240" markerWidth="190" refY="7" refX="13" class="marker lollipop classDiagram" id="my-svg_classDiagram-lollipopStart"><circle r="6" cy="7" cx="7" fill="transparent" stroke="black"/></marker></defs><defs><marker orient="auto" markerHeight="240" markerWidth="190" refY="7" refX="1" class="marker lollipop classDiagram" id="my-svg_classDiagram-lollipopEnd"><circle r="6" cy="7" cx="7" fill="transparent" stroke="black"/></marker></defs><g class="root"><g class="clusters"/><g class="edgePaths"><path marker-start="url(#my-svg_classDiagram-compositionStart)" style="fill:none" class="edge-pattern-solid relation" id="id1" d="M137.609375,401.5L137.609375,405.8333333333333C137.609375,410.1666666666667,137.609375,418.8333333333333,148.38411458333334,428.9703996983408C159.15885416666666,439.10746606334845,180.70833333333334,450.71493212669685,191.48307291666666,456.51866515837105L202.2578125,462.32239819004525"/><path marker-end="url(#my-svg_classDiagram-compositionEnd)" style="fill:none" class="edge-pattern-solid relation" id="id2" d="M452.56640625,62.08881943179111L465.9391276041667,67.99068285982592C479.3118489583333,73.89254628786074,506.0572916666667,85.69627314393036,519.4300130208334,103.59813657196518C532.802734375,121.5,532.802734375,145.5,532.802734375,169.5C532.802734375,193.5,532.802734375,217.5,532.802734375,237.33333333333334C532.802734375,257.1666666666667,532.802734375,272.8333333333333,532.802734375,280.6666666666667L532.802734375,288.5"/><path style="fill:none" class="edge-pattern-dashed relation" id="id3" d="M334.33984375,59.74909411044197L318.6790364583333,66.04091175870165C303.0182291666667,72.33272940696132,271.6966145833333,84.91636470348065,256.0358072916667,98.54151568507366C240.375,112.16666666666667,240.375,126.83333333333333,240.375,134.16666666666666L240.375,141.5"/><path marker-end="url(#my-svg_classDiagram-dependencyEnd)" style="fill:none" class="edge-pattern-solid relation" id="id4" d="M308.93359375,394L308.93359375,399.5833333333333C308.93359375,405.1666666666667,308.93359375,416.3333333333333,308.999241920307,426.50010255719184C309.06489009061397,436.6668717810503,309.196186431228,445.83374356210055,309.261834601535,450.4171794526257L309.32748277184197,455.0006153431508"/><path marker-end="url(#my-svg_classDiagram-compositionEnd)" style="fill:none" class="edge-pattern-solid relation" id="id5" d="M240.375,197.5L240.375,204.83333333333334C240.375,212.16666666666666,240.375,226.83333333333334,242.7108326648178,237.33523279304018C245.04666532963554,247.837132252747,249.71833065927112,254.17426450549408,252.0541633240889,257.34283063186757L254.38999598890666,260.5113967582411"/><path marker-end="url(#my-svg_classDiagram-dependencyEnd)" style="fill:none" class="edge-pattern-solid relation" id="id6" d="M380.15625,208L380.15625,213.58333333333334C380.15625,219.16666666666666,380.15625,230.33333333333334,376.4883534561877,240.70607493272723C372.82045691237545,251.07881653212112,365.48466382475095,260.65763306424225,361.8167672809387,265.4470413303028L358.14887073712646,270.23644959636334"/><path marker-start="url(#my-svg_classDiagram-compositionStart)" style="fill:none" class="edge-pattern-solid relation" id="id7" d="M532.802734375,380.5L532.802734375,388.3333333333333C532.802734375,396.1666666666667,532.802734375,411.8333333333333,513.7145182291666,427.64378161413856C494.6263020833333,443.4542298949438,456.4498697916667,459.40845978988756,437.3616536458333,467.3855747373595L418.2734375,475.36268968483137"/><path marker-start="url(#my-svg_classDiagram-compositionStart)" style="fill:none" class="edge-pattern-solid relation" id="id8" d="M185.4188203110711,567.6532572820931L165.18755859255927,575.294381068411C144.9562968740474,582.9355048547287,104.4937734370237,598.2177524273644,84.26251171851185,616.6922095470155C64.03125,635.1666666666666,64.03125,656.8333333333334,64.03125,667.6666666666666L64.03125,678.5"/><path marker-start="url(#my-svg_classDiagram-compositionStart)" style="fill:none" class="edge-pattern-solid relation" id="id9" d="M244.33499709719462,593.3455721695744L241.29478924766218,596.7046434746454C238.25458139812974,600.0637147797163,232.1741656990649,606.7818573898581,229.13395784953244,620.9742620282624C226.09375,635.1666666666666,226.09375,656.8333333333334,226.09375,667.6666666666666L226.09375,678.5"/><path marker-start="url(#my-svg_classDiagram-compositionStart)" style="fill:none" class="edge-pattern-solid relation" id="id10" d="M372.6235211279024,593.7023465811893L375.4343144815853,597.0019554843244C378.2451078352683,600.3015643874595,383.86669454263415,606.9007821937298,386.67748789631713,615.7837244301983C389.48828125,624.6666666666666,389.48828125,635.8333333333334,389.48828125,641.4166666666666L389.48828125,647"/><path marker-start="url(#my-svg_classDiagram-compositionStart)" style="fill:none" class="edge-pattern-solid relation" id="id11" d="M435.0926803270942,568.0874290760349L454.9463742309118,575.6561908966958C474.80006813472943,583.2249527173566,514.5074559423647,598.3624763586782,534.3611498461823,613.2645715126724C554.21484375,628.1666666666666,554.21484375,642.8333333333334,554.21484375,650.1666666666666L554.21484375,657.5"/><path marker-start="url(#my-svg_classDiagram-compositionStart)" style="fill:none" class="edge-pattern-solid relation" id="id12" d="M64.03125,794.5L64.03125,802.3333333333334C64.03125,810.1666666666666,64.03125,825.8333333333334,68.16634114583333,839.4032911051427C72.30143229166667,852.973248876952,80.57161458333333,864.446497753904,84.70670572916667,870.18312219238L88.841796875,875.9197466308559"/><path marker-start="url(#my-svg_classDiagram-compositionStart)" style="fill:none" class="edge-pattern-solid relation" id="id13" d="M226.09375,794.5L226.09375,802.3333333333334C226.09375,810.1666666666666,226.09375,825.8333333333334,222.18107381898758,839.25C218.26839763797514,852.6666666666666,210.4430452759503,863.8333333333334,206.5303690949379,869.4166666666666L202.61769291392545,875"/></g><g class="edgeLabels"><g class="edgeLabel"><g transform="translate(0, 0)" class="label"><rect height="0" width="0" ry="0" rx="0"/><text style=""><tspan class="row" x="0" dy="1em" xml:space="preserve"/></text></g></g><g transform="translate(532.802734375, 169.5)" class="edgeLabel"><g transform="translate(-49.2421875, -8.5)" class="label"><rect height="17" width="98.484375" ry="0" rx="0"/><text style=""><tspan class="row" x="0" dy="1em" xml:space="preserve">Defines UI for</tspan></text></g></g><g transform="translate(462.52008801505815, 82.87761835312328)" class="edgeTerminals"><g transform="translate(-3.0625, -6)" class="inner"><text style=""><tspan class="row" x="0" dy="1em" xml:space="preserve">1</tspan></text></g></g><g transform="translate(542.8027321874998, 283.999998125)" class="edgeTerminals"><g transform="translate(-3.0625, -6)" class="inner"/><text style=""><tspan class="row" x="0" dy="1em" xml:space="preserve">1</tspan></text></g><g transform="translate(240.375, 97.5)" class="edgeLabel"><g transform="translate(-69.640625, -8.5)" class="label"><rect height="17" width="139.28125" ry="0" rx="0"/><text style=""><tspan class="row" x="0" dy="1em" xml:space="preserve">Defines structure of</tspan></text></g></g><g transform="translate(312.50943071781694, 52.354294580320584)" class="edgeTerminals"><g transform="translate(-3.0625, -6)" class="inner"><text style=""><tspan class="row" x="0" dy="1em" xml:space="preserve">1</tspan></text></g></g><g transform="translate(250.375, 119)" class="edgeTerminals"><g transform="translate(-3.0625, -6)" class="inner"/><text style=""><tspan class="row" x="0" dy="1em" xml:space="preserve">1</tspan></text></g><g transform="translate(308.93359375, 427.5)" class="edgeLabel"><g transform="translate(-34.96484375, -8.5)" class="label"><rect height="17" width="69.9296875" ry="0" rx="0"/><text style=""><tspan class="row" x="0" dy="1em" xml:space="preserve">Is input of</tspan></text></g></g><g transform="translate(293.9443397015067, 411.50913343058664)" class="edgeTerminals"><g transform="translate(-3.0625, -6)" class="inner"><text style=""><tspan class="row" x="0" dy="1em" xml:space="preserve">1</tspan></text></g></g><g transform="translate(319.1720910877275, 438.29608134583543)" class="edgeTerminals"><g transform="translate(-3.0625, -6)" class="inner"/><text style=""><tspan class="row" x="0" dy="1em" xml:space="preserve">1</tspan></text></g><g transform="translate(240.375, 241.5)" class="edgeLabel"><g transform="translate(-41.859375, -8.5)" class="label"><rect height="17" width="83.71875" ry="0" rx="0"/><text style=""><tspan class="row" x="0" dy="1em" xml:space="preserve">wrapped by</tspan></text></g></g><g transform="translate(225.375, 215)" class="edgeTerminals"><g transform="translate(-3.0625, -6)" class="inner"><text style=""><tspan class="row" x="0" dy="1em" xml:space="preserve">1</tspan></text></g></g><g transform="translate(261.760518258467, 247.01315661948797)" class="edgeTerminals"><g transform="translate(-3.0625, -6)" class="inner"/><text style=""><tspan class="row" x="0" dy="1em" xml:space="preserve">1</tspan></text></g><g transform="translate(380.15625, 241.5)" class="edgeLabel"><g transform="translate(-22.234375, -8.5)" class="label"><rect height="17" width="44.46875" ry="0" rx="0"/><text style=""><tspan class="row" x="0" dy="1em" xml:space="preserve">Feeds</tspan></text></g></g><g transform="translate(364.7054210054668, 224.95123272065536)" class="edgeTerminals"><g transform="translate(-3.0625, -6)" class="inner"><text style=""><tspan class="row" x="0" dy="1em" xml:space="preserve">1</tspan></text></g></g><g transform="translate(372.04992568948614, 265.22654270963955)" class="edgeTerminals"><g transform="translate(-3.0625, -6)" class="inner"/><text style=""><tspan class="row" x="0" dy="1em" xml:space="preserve">1</tspan></text></g><g transform="translate(532.802734375, 427.5)" class="edgeLabel"><g transform="translate(-31.125, -8.5)" class="label"><rect height="17" width="62.25" ry="0" rx="0"/><text style=""><tspan class="row" x="0" dy="1em" xml:space="preserve">Provides</tspan></text></g></g><g transform="translate(517.8027321875, 379.999998125)" class="edgeTerminals"><g transform="translate(-3.0625, -6)" class="inner"><text style=""><tspan class="row" x="0" dy="1em" xml:space="preserve">1</tspan></text></g></g><g transform="translate(435.2040219473947, 477.45489776551995)" class="edgeTerminals"><g transform="translate(-3.0625, -6)" class="inner"/><text style=""><tspan class="row" x="0" dy="1em" xml:space="preserve">1</tspan></text></g><g transform="translate(64.03125, 613.5)" class="edgeLabel"><g transform="translate(-30.2421875, -8.5)" class="label"><rect height="17" width="60.484375" ry="0" rx="0"/><text style=""><tspan class="row" x="0" dy="1em" xml:space="preserve">Renders</tspan></text></g></g><g transform="translate(180.5866535406791, 553.4440996440512)" class="edgeTerminals"><g transform="translate(-3.0625, -6)" class="inner"><text style=""><tspan class="row" x="0" dy="1em" xml:space="preserve">1</tspan></text></g></g><g transform="translate(74.03125, 656)" class="edgeTerminals"><g transform="translate(-9.1796875, -6)" class="inner"/><text style=""><tspan class="row" x="0" dy="1em" xml:space="preserve">0..1</tspan></text></g><g transform="translate(226.09375, 613.5)" class="edgeLabel"><g transform="translate(-30.2421875, -8.5)" class="label"><rect height="17" width="60.484375" ry="0" rx="0"/><text style=""><tspan class="row" x="0" dy="1em" xml:space="preserve">Renders</tspan></text></g></g><g transform="translate(233.54920842894882, 582.9092518165191)" class="edgeTerminals"><g transform="translate(-3.0625, -6)" class="inner"><text style=""><tspan class="row" x="0" dy="1em" xml:space="preserve">1</tspan></text></g></g><g transform="translate(236.09375, 656)" class="edgeTerminals"><g transform="translate(-9.1796875, -6)" class="inner"/><text style=""><tspan class="row" x="0" dy="1em" xml:space="preserve">0..1</tspan></text></g><g transform="translate(389.48828125, 613.5)" class="edgeLabel"><g transform="translate(-30.2421875, -8.5)" class="label"><rect height="17" width="60.484375" ry="0" rx="0"/><text style=""><tspan class="row" x="0" dy="1em" xml:space="preserve">Renders</tspan></text></g></g><g transform="translate(360.8806679609637, 603.0487540970879)" class="edgeTerminals"><g transform="translate(-3.0625, -6)" class="inner"><text style=""><tspan class="row" x="0" dy="1em" xml:space="preserve">1</tspan></text></g></g><g transform="translate(398.9960209840494, 624.2580541990338)" class="edgeTerminals"><g transform="translate(-9.1796875, -6)" class="inner"/><text style=""><tspan class="row" x="0" dy="1em" xml:space="preserve">0..1</tspan></text></g><g transform="translate(554.21484375, 613.5)" class="edgeLabel"><g transform="translate(-30.2421875, -8.5)" class="label"><rect height="17" width="60.484375" ry="0" rx="0"/><text style=""><tspan class="row" x="0" dy="1em" xml:space="preserve">Renders</tspan></text></g></g><g transform="translate(429.28218803549936, 581.9253560463086)" class="edgeTerminals"><g transform="translate(-3.0625, -6)" class="inner"><text style=""><tspan class="row" x="0" dy="1em" xml:space="preserve">1</tspan></text></g></g><g transform="translate(564.2148418749999, 634.9999983928572)" class="edgeTerminals"><g transform="translate(-9.1796875, -6)" class="inner"/><text style=""><tspan class="row" x="0" dy="1em" xml:space="preserve">0..1</tspan></text></g><g transform="translate(64.03125, 841.5)" class="edgeLabel"><g transform="translate(-30.2421875, -8.5)" class="label"><rect height="17" width="60.484375" ry="0" rx="0"/><text style=""><tspan class="row" x="0" dy="1em" xml:space="preserve">Renders</tspan></text></g></g><g transform="translate(49.03125, 794)" class="edgeTerminals"><g transform="translate(-3.0625, -6)" class="inner"><text style=""><tspan class="row" x="0" dy="1em" xml:space="preserve">1</tspan></text></g></g><g transform="translate(85.77703189752262, 847.9522716674)" class="edgeTerminals"><g transform="translate(-3.0625, -6)" class="inner"/><text style=""><tspan class="row" x="0" dy="1em" xml:space="preserve">1</tspan></text></g><g transform="translate(226.09375, 841.5)" class="edgeLabel"><g transform="translate(-30.2421875, -8.5)" class="label"><rect height="17" width="60.484375" ry="0" rx="0"/><text style=""><tspan class="row" x="0" dy="1em" xml:space="preserve">Renders</tspan></text></g></g><g transform="translate(211.09375, 794)" class="edgeTerminals"><g transform="translate(-3.0625, -6)" class="inner"><text style=""><tspan class="row" x="0" dy="1em" xml:space="preserve">1</tspan></text></g></g><g transform="translate(219.94475085663217, 864.2770250458732)" class="edgeTerminals"><g transform="translate(-3.0625, -6)" class="inner"/><text style=""><tspan class="row" x="0" dy="1em" xml:space="preserve">1</tspan></text></g></g><g class="nodes"><g transform="translate(532.802734375, 334.5)" id="classId-PanelPlugin-0" class="node default"><rect height="56" width="106.578125" y="-28" x="-53.2890625" class="outer title-state"/><line y2="1" y1="1" x2="53.2890625" x1="-53.2890625" class="divider"/><line y2="17" y1="17" x2="53.2890625" x1="-53.2890625" class="divider"/><g class="label"><text style=""><tspan class="title-row" x="0" dy="1em" xml:space="preserve"/></text><text transform="translate( -45.7890625, -20.5)" class="classTitle" style=""><tspan class="title-row" x="0" dy="1em" xml:space="preserve">PanelPlugin</tspan></text></g></g><g transform="translate(308.93359375, 334.5)" id="classId-PanelProps-1" class="node default"><rect height="119" width="131.5" y="-59.5" x="-65.75" class="outer title-state"/><line y2="-30.5" y1="-30.5" x2="65.75" x1="-65.75" class="divider"/><line y2="48.5" y1="48.5" x2="65.75" x1="-65.75" class="divider"/><g class="label"><text style=""><tspan class="title-row" x="0" dy="1em" xml:space="preserve"/></text><text transform="translate( -58.25, -52)" class="classTitle" style=""><tspan class="title-row" x="0" dy="1em" xml:space="preserve">PanelProps&lt;T&gt;</tspan></text><text transform="translate( -58.25, -19)" style=""><tspan class="title-row" x="0" dy="1em" xml:space="preserve">Options options</tspan></text><text transform="translate( -58.25, 2)" style=""><tspan class="title-row" x="0" dy="1em" xml:space="preserve">data</tspan></text><text transform="translate( -58.25, 23)" style=""><tspan class="title-row" x="0" dy="1em" xml:space="preserve">...</tspan></text></g></g><g transform="translate(310.265625, 520.5)" id="classId-CorePanel-2" class="node default"><rect height="119" width="216.015625" y="-59.5" x="-108.0078125" class="outer title-state"/><line y2="-9.5" y1="-9.5" x2="108.0078125" x1="-108.0078125" class="divider"/><line y2="48.5" y1="48.5" x2="108.0078125" x1="-108.0078125" class="divider"/><g class="label"><text transform="translate( -48.53125, -52)" style=""><tspan class="title-row" x="0" dy="1em" xml:space="preserve">«component»</tspan></text><text transform="translate( -39.5703125, -31)" class="classTitle" style=""><tspan class="title-row" x="0" dy="1em" xml:space="preserve">CorePanel</tspan></text><text transform="translate( -100.5078125, 2)" style=""><tspan class="title-row" x="0" dy="1em" xml:space="preserve">PanelProps&lt;Options&gt; props</tspan></text><text transform="translate( -100.5078125, 23)" style=""><tspan class="title-row" x="0" dy="1em" xml:space="preserve">systemState</tspan></text></g></g><g transform="translate(64.03125, 727.5)" id="classId-GlobalView-3" class="node default"><rect height="98" width="112.0625" y="-49" x="-56.03125" class="outer title-state"/><line y2="1" y1="1" x2="56.03125" x1="-56.03125" class="divider"/><line y2="38" y1="38" x2="56.03125" x1="-56.03125" class="divider"/><g class="label"><text transform="translate( -48.53125, -41.5)" style=""><tspan class="title-row" x="0" dy="1em" xml:space="preserve">«component»</tspan></text><text transform="translate( -43.25390625, -20.5)" class="classTitle" style=""><tspan class="title-row" x="0" dy="1em" xml:space="preserve">GlobalView</tspan></text><text transform="translate( -48.53125, 12.5)" style=""><tspan class="title-row" x="0" dy="1em" xml:space="preserve">systemState</tspan></text></g></g><g transform="translate(226.09375, 727.5)" id="classId-RegionView-4" class="node default"><rect height="98" width="112.0625" y="-49" x="-56.03125" class="outer title-state"/><line y2="1" y1="1" x2="56.03125" x1="-56.03125" class="divider"/><line y2="38" y1="38" x2="56.03125" x1="-56.03125" class="divider"/><g class="label"><text transform="translate( -48.53125, -41.5)" style=""><tspan class="title-row" x="0" dy="1em" xml:space="preserve">«component»</tspan></text><text transform="translate( -45.47265625, -20.5)" class="classTitle" style=""><tspan class="title-row" x="0" dy="1em" xml:space="preserve">RegionView</tspan></text><text transform="translate( -48.53125, 12.5)" style=""><tspan class="title-row" x="0" dy="1em" xml:space="preserve">systemState</tspan></text></g></g><g transform="translate(380.15625, 169.5)" id="classId-DataSource-5" class="node default"><rect height="77" width="104.0234375" y="-38.5" x="-52.01171875" class="outer title-state"/><line y2="11.5" y1="11.5" x2="52.01171875" x1="-52.01171875" class="divider"/><line y2="27.5" y1="27.5" x2="52.01171875" x1="-52.01171875" class="divider"/><g class="label"><text transform="translate( -37.41015625, -31)" style=""><tspan class="title-row" x="0" dy="1em" xml:space="preserve">«external»</tspan></text><text transform="translate( -44.51171875, -10)" class="classTitle" style=""><tspan class="title-row" x="0" dy="1em" xml:space="preserve">DataSource</tspan></text></g></g><g transform="translate(389.48828125, 727.5)" id="classId-TreeDisplay-6" class="node default"><rect height="161" width="114.7265625" y="-80.5" x="-57.36328125" class="outer title-state"/><line y2="-30.5" y1="-30.5" x2="57.36328125" x1="-57.36328125" class="divider"/><line y2="69.5" y1="69.5" x2="57.36328125" x1="-57.36328125" class="divider"/><g class="label"><text transform="translate( -48.53125, -73)" style=""><tspan class="title-row" x="0" dy="1em" xml:space="preserve">«component»</tspan></text><text transform="translate( -44.96484375, -52)" class="classTitle" style=""><tspan class="title-row" x="0" dy="1em" xml:space="preserve">TreeDisplay</tspan></text><text transform="translate( -49.86328125, -19)" style=""><tspan class="title-row" x="0" dy="1em" xml:space="preserve">monolithNode</tspan></text><text transform="translate( -49.86328125, 2)" style=""><tspan class="title-row" x="0" dy="1em" xml:space="preserve">balancerNode</tspan></text><text transform="translate( -49.86328125, 23)" style=""><tspan class="title-row" x="0" dy="1em" xml:space="preserve">clientNode</tspan></text><text transform="translate( -49.86328125, 44)" style=""><tspan class="title-row" x="0" dy="1em" xml:space="preserve">links</tspan></text></g></g><g transform="translate(137.609375, 334.5)" id="classId-SystemState-7" class="node default"><rect height="98" width="111.1484375" y="-49" x="-55.57421875" class="outer title-state"/><line y2="-20" y1="-20" x2="55.57421875" x1="-55.57421875" class="divider"/><line y2="38" y1="38" x2="55.57421875" x1="-55.57421875" class="divider"/><g class="label"><text style=""><tspan class="title-row" x="0" dy="1em" xml:space="preserve"/></text><text transform="translate( -48.07421875, -41.5)" class="classTitle" style=""><tspan class="title-row" x="0" dy="1em" xml:space="preserve">SystemState</tspan></text><text transform="translate( -48.07421875, -8.5)" style=""><tspan class="title-row" x="0" dy="1em" xml:space="preserve">balancers[]</tspan></text><text transform="translate( -48.07421875, 12.5)" style=""><tspan class="title-row" x="0" dy="1em" xml:space="preserve">monoliths[]</tspan></text></g></g><g transform="translate(554.21484375, 727.5)" id="classId-Legend-8" class="node default"><rect height="140" width="114.7265625" y="-70" x="-57.36328125" class="outer title-state"/><line y2="-20" y1="-20" x2="57.36328125" x1="-57.36328125" class="divider"/><line y2="59" y1="59" x2="57.36328125" x1="-57.36328125" class="divider"/><g class="label"><text transform="translate( -48.53125, -62.5)" style=""><tspan class="title-row" x="0" dy="1em" xml:space="preserve">«component»</tspan></text><text transform="translate( -28.4453125, -41.5)" class="classTitle" style=""><tspan class="title-row" x="0" dy="1em" xml:space="preserve">Legend</tspan></text><text transform="translate( -49.86328125, -8.5)" style=""><tspan class="title-row" x="0" dy="1em" xml:space="preserve">monolithNode</tspan></text><text transform="translate( -49.86328125, 12.5)" style=""><tspan class="title-row" x="0" dy="1em" xml:space="preserve">balancerNode</tspan></text><text transform="translate( -49.86328125, 33.5)" style=""><tspan class="title-row" x="0" dy="1em" xml:space="preserve">clientNode</tspan></text></g></g><g transform="translate(146.205078125, 955.5)" id="classId-ForceGraph-9" class="node default"><rect height="161" width="114.7265625" y="-80.5" x="-57.36328125" class="outer title-state"/><line y2="-30.5" y1="-30.5" x2="57.36328125" x1="-57.36328125" class="divider"/><line y2="69.5" y1="69.5" x2="57.36328125" x1="-57.36328125" class="divider"/><g class="label"><text transform="translate( -48.53125, -73)" style=""><tspan class="title-row" x="0" dy="1em" xml:space="preserve">«component»</tspan></text><text transform="translate( -45.34375, -52)" class="classTitle" style=""><tspan class="title-row" x="0" dy="1em" xml:space="preserve">ForceGraph</tspan></text><text transform="translate( -49.86328125, -19)" style=""><tspan class="title-row" x="0" dy="1em" xml:space="preserve">monolithNode</tspan></text><text transform="translate( -49.86328125, 2)" style=""><tspan class="title-row" x="0" dy="1em" xml:space="preserve">balancerNode</tspan></text><text transform="translate( -49.86328125, 23)" style=""><tspan class="title-row" x="0" dy="1em" xml:space="preserve">clientNode</tspan></text><text transform="translate( -49.86328125, 44)" style=""><tspan class="title-row" x="0" dy="1em" xml:space="preserve">links</tspan></text></g></g><g transform="translate(393.453125, 36)" id="classId-PanelOptions-10" class="node default"><rect height="56" width="118.2265625" y="-28" x="-59.11328125" class="outer title-state"/><line y2="1" y1="1" x2="59.11328125" x1="-59.11328125" class="divider"/><line y2="17" y1="17" x2="59.11328125" x1="-59.11328125" class="divider"/><g class="label"><text style=""><tspan class="title-row" x="0" dy="1em" xml:space="preserve"/></text><text transform="translate( -51.61328125, -20.5)" class="classTitle" style=""><tspan class="title-row" x="0" dy="1em" xml:space="preserve">PanelOptions</tspan></text></g></g><g transform="translate(240.375, 169.5)" id="classId-Options-11" class="node default"><rect height="56" width="75.5390625" y="-28" x="-37.76953125" class="outer title-state"/><line y2="1" y1="1" x2="37.76953125" x1="-37.76953125" class="divider"/><line y2="17" y1="17" x2="37.76953125" x1="-37.76953125" class="divider"/><g class="label"><text style=""><tspan class="title-row" x="0" dy="1em" xml:space="preserve"/></text><text transform="translate( -30.26953125, -20.5)" class="classTitle" style=""><tspan class="title-row" x="0" dy="1em" xml:space="preserve">Options</tspan></text></g></g></g></g></g></svg>