<svg aria-roledescription="classDiagram" role="graphics-document document" viewBox="-8 -8 615.1171875 1010" style="max-width: 615.117px; background-color: white;" xmlns:xlink="http://www.w3.org/1999/xlink" xmlns="http://www.w3.org/2000/svg" width="100%" id="my-svg"><style>#my-svg{font-family:"trebuchet ms",verdana,arial,sans-serif;font-size:16px;fill:#000000;}#my-svg .error-icon{fill:#552222;}#my-svg .error-text{fill:#552222;stroke:#552222;}#my-svg .edge-thickness-normal{stroke-width:2px;}#my-svg .edge-thickness-thick{stroke-width:3.5px;}#my-svg .edge-pattern-solid{stroke-dasharray:0;}#my-svg .edge-pattern-dashed{stroke-dasharray:3;}#my-svg .edge-pattern-dotted{stroke-dasharray:2;}#my-svg .marker{fill:#666;stroke:#666;}#my-svg .marker.cross{stroke:#666;}#my-svg svg{font-family:"trebuchet ms",verdana,arial,sans-serif;font-size:16px;}#my-svg g.classGroup text{fill:#999;stroke:none;font-family:"trebuchet ms",verdana,arial,sans-serif;font-size:10px;}#my-svg g.classGroup text .title{font-weight:bolder;}#my-svg .nodeLabel,#my-svg .edgeLabel{color:#111111;}#my-svg .edgeLabel .label rect{fill:#eee;}#my-svg .label text{fill:#111111;}#my-svg .edgeLabel .label span{background:#eee;}#my-svg .classTitle{font-weight:bolder;}#my-svg .node rect,#my-svg .node circle,#my-svg .node ellipse,#my-svg .node polygon,#my-svg .node path{fill:#eee;stroke:#999;stroke-width:1px;}#my-svg .divider{stroke:#999;stroke-width:1;}#my-svg g.clickable{cursor:pointer;}#my-svg g.classGroup rect{fill:#eee;stroke:#999;}#my-svg g.classGroup line{stroke:#999;stroke-width:1;}#my-svg .classLabel .box{stroke:none;stroke-width:0;fill:#eee;opacity:0.5;}#my-svg .classLabel .label{fill:#999;font-size:10px;}#my-svg .relation{stroke:#666;stroke-width:1;fill:none;}#my-svg .dashed-line{stroke-dasharray:3;}#my-svg .dotted-line{stroke-dasharray:1 2;}#my-svg #compositionStart,#my-svg .composition{fill:#666!important;stroke:#666!important;stroke-width:1;}#my-svg #compositionEnd,#my-svg .composition{fill:#666!important;stroke:#666!important;stroke-width:1;}#my-svg #dependencyStart,#my-svg .dependency{fill:#666!important;stroke:#666!important;stroke-width:1;}#my-svg #dependencyStart,#my-svg .dependency{fill:#666!important;stroke:#666!important;stroke-width:1;}#my-svg #extensionStart,#my-svg .extension{fill:transparent!important;stroke:#666!important;stroke-width:1;}#my-svg #extensionEnd,#my-svg .extension{fill:transparent!important;stroke:#666!important;stroke-width:1;}#my-svg #aggregationStart,#my-svg .aggregation{fill:transparent!important;stroke:#666!important;stroke-width:1;}#my-svg #aggregationEnd,#my-svg .aggregation{fill:transparent!important;stroke:#666!important;stroke-width:1;}#my-svg #lollipopStart,#my-svg .lollipop{fill:#eee!important;stroke:#666!important;stroke-width:1;}#my-svg #lollipopEnd,#my-svg .lollipop{fill:#eee!important;stroke:#666!important;stroke-width:1;}#my-svg .edgeTerminals{font-size:11px;}#my-svg .classTitleText{text-anchor:middle;font-size:18px;fill:#000000;}#my-svg :root{--mermaid-font-family:"trebuchet ms",verdana,arial,sans-serif;}</style><g><defs><marker orient="auto" markerHeight="240" markerWidth="190" refY="7" refX="18" class="marker aggregation classDiagram" id="my-svg_classDiagram-aggregationStart"><path d="M 18,7 L9,13 L1,7 L9,1 Z"/></marker></defs><defs><marker orient="auto" markerHeight="28" markerWidth="20" refY="7" refX="1" class="marker aggregation classDiagram" id="my-svg_classDiagram-aggregationEnd"><path d="M 18,7 L9,13 L1,7 L9,1 Z"/></marker></defs><defs><marker orient="auto" markerHeight="240" markerWidth="190" refY="7" refX="18" class="marker extension classDiagram" id="my-svg_classDiagram-extensionStart"><path d="M 1,7 L18,13 V 1 Z"/></marker></defs><defs><marker orient="auto" markerHeight="28" markerWidth="20" refY="7" refX="1" class="marker extension classDiagram" id="my-svg_classDiagram-extensionEnd"><path d="M 1,1 V 13 L18,7 Z"/></marker></defs><defs><marker orient="auto" markerHeight="240" markerWidth="190" refY="7" refX="18" class="marker composition classDiagram" id="my-svg_classDiagram-compositionStart"><path d="M 18,7 L9,13 L1,7 L9,1 Z"/></marker></defs><defs><marker orient="auto" markerHeight="28" markerWidth="20" refY="7" refX="1" class="marker composition classDiagram" id="my-svg_classDiagram-compositionEnd"><path d="M 18,7 L9,13 L1,7 L9,1 Z"/></marker></defs><defs><marker orient="auto" markerHeight="240" markerWidth="190" refY="7" refX="6" class="marker dependency classDiagram" id="my-svg_classDiagram-dependencyStart"><path d="M 5,7 L9,13 L1,7 L9,1 Z"/></marker></defs><defs><marker orient="auto" markerHeight="28" markerWidth="20" refY="7" refX="13" class="marker dependency classDiagram" id="my-svg_classDiagram-dependencyEnd"><path d="M 18,7 L9,13 L14,7 L9,1 Z"/></marker></defs><defs><marker orient="auto" markerHeight="240" markerWidth="190" refY="7" refX="13" class="marker lollipop classDiagram" id="my-svg_classDiagram-lollipopStart"><circle r="6" cy="7" cx="7" fill="transparent" stroke="black"/></marker></defs><defs><marker orient="auto" markerHeight="240" markerWidth="190" refY="7" refX="1" class="marker lollipop classDiagram" id="my-svg_classDiagram-lollipopEnd"><circle r="6" cy="7" cx="7" fill="transparent" stroke="black"/></marker></defs><g class="root"><g class="clusters"/><g class="edgePaths"><path marker-start="url(#my-svg_classDiagram-compositionStart)" style="fill:none" class="edge-pattern-solid relation" id="id1" d="M135.16015625,454L135.16015625,460.0833333333333C135.16015625,466.1666666666667,135.16015625,478.3333333333333,145.712890625,490.14501204617824C156.265625,501.95669075902316,177.37109375,513.4133815180464,187.923828125,519.141726897558L198.4765625,524.8700722770697"/><path marker-end="url(#my-svg_classDiagram-compositionEnd)" style="fill:none" class="edge-pattern-solid relation" id="id2" d="M433.8039104502688,95.5L449.6735061043907,106.33333333333333C465.5431017585126,117.16666666666667,497.28229306675627,138.83333333333334,513.1518887208781,161.66666666666666C529.021484375,184.5,529.021484375,208.5,529.021484375,232.5C529.021484375,256.5,529.021484375,280.5,529.021484375,300.3333333333333C529.021484375,320.1666666666667,529.021484375,335.8333333333333,529.021484375,343.6666666666667L529.021484375,351.5"/><path style="fill:none" class="edge-pattern-dashed relation" id="id3" d="M345.7611517137097,95.5L327.56658476142474,106.33333333333333C309.3720178091398,117.16666666666667,272.9828839045699,138.83333333333334,254.78831695228496,157C236.59375,175.16666666666666,236.59375,189.83333333333334,236.59375,197.16666666666666L236.59375,204.5"/><path marker-end="url(#my-svg_classDiagram-dependencyEnd)" style="fill:none" class="edge-pattern-solid relation" id="id4" d="M306.484375,457L306.484375,462.5833333333333C306.484375,468.1666666666667,306.484375,479.3333333333333,306.484375,489.5C306.484375,499.6666666666667,306.484375,508.8333333333333,306.484375,513.4166666666666L306.484375,518"/><path marker-end="url(#my-svg_classDiagram-compositionEnd)" style="fill:none" class="edge-pattern-solid relation" id="id5" d="M236.59375,260.5L236.59375,267.8333333333333C236.59375,275.1666666666667,236.59375,289.8333333333333,238.98737248693325,300.3517417934779C241.38099497386648,310.87015025362246,246.16823994773293,317.2403005072449,248.56186243466618,320.42537563405614L250.9554849215994,323.61045076086737"/><path marker-end="url(#my-svg_classDiagram-dependencyEnd)" style="fill:none" class="edge-pattern-solid relation" id="id6" d="M376.375,271L376.375,276.5833333333333C376.375,282.1666666666667,376.375,293.3333333333333,372.7798308108072,303.700580597826C369.1846616216144,314.0678278623186,361.9943232432288,323.63565572463716,358.399154054036,328.41956965579647L354.8039848648432,333.20348358695577"/><path marker-start="url(#my-svg_classDiagram-compositionStart)" style="fill:none" class="edge-pattern-solid relation" id="id7" d="M529.021484375,443.5L529.021484375,451.3333333333333C529.021484375,459.1666666666667,529.021484375,474.8333333333333,509.9332682291667,490.64378161413856C490.8450520833333,506.4542298949438,452.6686197916667,522.4084597898876,433.5804036458333,530.3855747373594L414.4921875,538.3626896848314"/><path marker-start="url(#my-svg_classDiagram-compositionStart)" style="fill:none" class="edge-pattern-solid relation" id="id8" d="M181.67051435575735,631.3760133114992L162.06397029646448,638.8966777595826C142.45742623717157,646.4173422076661,103.24433811858579,661.4586711038331,83.63779405929289,674.5626688852499C64.03125,687.6666666666666,64.03125,698.8333333333334,64.03125,704.4166666666666L64.03125,710"/><path marker-start="url(#my-svg_classDiagram-compositionStart)" style="fill:none" class="edge-pattern-solid relation" id="id9" d="M243.28043102121103,656.6175655124882L240.4159841843425,659.9313045937402C237.551537347474,663.2450436749922,231.82264367373702,669.872521837496,228.9581968368685,678.7695942520813C226.09375,687.6666666666666,226.09375,698.8333333333334,226.09375,704.4166666666666L226.09375,710"/><path marker-start="url(#my-svg_classDiagram-compositionStart)" style="fill:none" class="edge-pattern-solid relation" id="id10" d="M431.2776660245138,631.8235800580912L450.5067789787615,639.2696500484094C469.7358919330092,646.7157200387275,508.1941178415046,661.6078600193638,527.4232307957523,678.1372633430152C546.65234375,694.6666666666666,546.65234375,712.8333333333334,546.65234375,721.9166666666666L546.65234375,731"/><path marker-start="url(#my-svg_classDiagram-compositionStart)" style="fill:none" class="edge-pattern-solid relation" id="id11" d="M370.61432756792806,656.5249622506807L373.5379813066067,659.8541352089006C376.4616350452854,663.1833081671205,382.30894252264267,669.8416540835602,385.2325962613213,678.7541603751134C388.15625,687.6666666666666,388.15625,698.8333333333334,388.15625,704.4166666666666L388.15625,710"/><path marker-start="url(#my-svg_classDiagram-compositionStart)" style="fill:none" class="edge-pattern-solid relation" id="id12" d="M64.03125,826L64.03125,828.5833333333334C64.03125,831.1666666666666,64.03125,836.3333333333334,68.9646249859991,844.5C73.8979999719982,852.6666666666666,83.76474994399642,863.8333333333334,88.69812492999552,869.4166666666666L93.63149991599462,875"/><path marker-start="url(#my-svg_classDiagram-compositionStart)" style="fill:none" class="edge-pattern-solid relation" id="id13" d="M226.09375,826L226.09375,828.5833333333334C226.09375,831.1666666666666,226.09375,836.3333333333334,221.29756629424284,844.5C216.50138258848565,852.6666666666666,206.90901517697134,863.8333333333334,202.11283147121415,869.4166666666666L197.316647765457,875"/></g><g class="edgeLabels"><g class="edgeLabel"><g transform="translate(0, 0)" class="label"><rect height="0" width="0" ry="0" rx="0"/><text style=""><tspan class="row" x="0" dy="1em" xml:space="preserve"/></text></g></g><g transform="translate(529.021484375, 232.5)" class="edgeLabel"><g transform="translate(-49.2421875, -8.5)" class="label"><rect height="17.000263214111328" width="98.39567565917969" ry="0" rx="0"/><text style=""><tspan class="row" x="0" dy="1em" xml:space="preserve">Defines UI for</tspan></text></g></g><g transform="translate(439.80024979181513, 117.75519901321955)" class="edgeTerminals"><g transform="translate(-3.0625, -6)" class="inner"><text style=""><tspan class="row" x="0" dy="1em" xml:space="preserve">1</tspan></text></g></g><g transform="translate(539.0214821874998, 346.999998125)" class="edgeTerminals"><g transform="translate(-3.0625, -6)" class="inner"/><text style=""><tspan class="row" x="0" dy="1em" xml:space="preserve">1</tspan></text></g><g transform="translate(236.59375, 160.5)" class="edgeLabel"><g transform="translate(-69.640625, -8.5)" class="label"><rect height="17.000263214111328" width="139.15237426757812" ry="0" rx="0"/><text style=""><tspan class="row" x="0" dy="1em" xml:space="preserve">Defines structure of</tspan></text></g></g><g transform="translate(323.05075214778645, 91.5645533201014)" class="edgeTerminals"><g transform="translate(-3.0625, -6)" class="inner"><text style=""><tspan class="row" x="0" dy="1em" xml:space="preserve">1</tspan></text></g></g><g transform="translate(246.59375, 182)" class="edgeTerminals"><g transform="translate(-3.0625, -6)" class="inner"/><text style=""><tspan class="row" x="0" dy="1em" xml:space="preserve">1</tspan></text></g><g transform="translate(306.484375, 490.5)" class="edgeLabel"><g transform="translate(-34.96484375, -8.5)" class="label"><rect height="17.000263214111328" width="69.867431640625" ry="0" rx="0"/><text style=""><tspan class="row" x="0" dy="1em" xml:space="preserve">Is input of</tspan></text></g></g><g transform="translate(291.48437750000016, 474.5000021428571)" class="edgeTerminals"><g transform="translate(-3.0625, -6)" class="inner"><text style=""><tspan class="row" x="0" dy="1em" xml:space="preserve">1</tspan></text></g></g><g transform="translate(316.4843774999998, 501.5000021428571)" class="edgeTerminals"><g transform="translate(-3.0625, -6)" class="inner"/><text style=""><tspan class="row" x="0" dy="1em" xml:space="preserve">1</tspan></text></g><g transform="translate(236.59375, 304.5)" class="edgeLabel"><g transform="translate(-41.859375, -8.5)" class="label"><rect height="17.000263214111328" width="83.64714050292969" ry="0" rx="0"/><text style=""><tspan class="row" x="0" dy="1em" xml:space="preserve">wrapped by</tspan></text></g></g><g transform="translate(221.59375, 278)" class="edgeTerminals"><g transform="translate(-3.0625, -6)" class="inner"><text style=""><tspan class="row" x="0" dy="1em" xml:space="preserve">1</tspan></text></g></g><g transform="translate(258.2471642179507, 309.99856048403586)" class="edgeTerminals"><g transform="translate(-3.0625, -6)" class="inner"/><text style=""><tspan class="row" x="0" dy="1em" xml:space="preserve">1</tspan></text></g><g transform="translate(376.375, 304.5)" class="edgeLabel"><g transform="translate(-22.234375, -8.5)" class="label"><rect height="17.000263214111328" width="44.43819046020508" ry="0" rx="0"/><text style=""><tspan class="row" x="0" dy="1em" xml:space="preserve">Feeds</tspan></text></g></g><g transform="translate(360.92947601415324, 287.9601361087775)" class="edgeTerminals"><g transform="translate(-3.0625, -6)" class="inner"><text style=""><tspan class="row" x="0" dy="1em" xml:space="preserve">1</tspan></text></g></g><g transform="translate(368.7041689760152, 328.0217595159642)" class="edgeTerminals"><g transform="translate(-3.0625, -6)" class="inner"/><text style=""><tspan class="row" x="0" dy="1em" xml:space="preserve">1</tspan></text></g><g transform="translate(529.021484375, 490.5)" class="edgeLabel"><g transform="translate(-31.125, -8.5)" class="label"><rect height="17.000263214111328" width="62.2040901184082" ry="0" rx="0"/><text style=""><tspan class="row" x="0" dy="1em" xml:space="preserve">Provides</tspan></text></g></g><g transform="translate(514.0214821875, 442.999998125)" class="edgeTerminals"><g transform="translate(-3.0625, -6)" class="inner"><text style=""><tspan class="row" x="0" dy="1em" xml:space="preserve">1</tspan></text></g></g><g transform="translate(431.4227719473947, 540.45489776552)" class="edgeTerminals"><g transform="translate(-3.0625, -6)" class="inner"/><text style=""><tspan class="row" x="0" dy="1em" xml:space="preserve">1</tspan></text></g><g transform="translate(64.03125, 676.5)" class="edgeLabel"><g transform="translate(-30.2421875, -8.5)" class="label"><rect height="17.000263214111328" width="60.42628860473633" ry="0" rx="0"/><text style=""><tspan class="row" x="0" dy="1em" xml:space="preserve">Renders</tspan></text></g></g><g transform="translate(176.76530685022993, 617.1919057929812)" class="edgeTerminals"><g transform="translate(-3.0625, -6)" class="inner"><text style=""><tspan class="row" x="0" dy="1em" xml:space="preserve">1</tspan></text></g></g><g transform="translate(74.71881855283596, 688.5980705731743)" class="edgeTerminals"><g transform="translate(-9.1796875, -6)" class="inner"/><text style=""><tspan class="row" x="0" dy="1em" xml:space="preserve">0..1</tspan></text></g><g transform="translate(226.09375, 676.5)" class="edgeLabel"><g transform="translate(-30.2421875, -8.5)" class="label"><rect height="17.000263214111328" width="60.42628860473633" ry="0" rx="0"/><text style=""><tspan class="row" x="0" dy="1em" xml:space="preserve">Renders</tspan></text></g></g><g transform="translate(232.2594394908317, 646.4299408057647)" class="edgeTerminals"><g transform="translate(-3.0625, -6)" class="inner"><text style=""><tspan class="row" x="0" dy="1em" xml:space="preserve">1</tspan></text></g></g><g transform="translate(236.57820743755036, 688.1072654242839)" class="edgeTerminals"><g transform="translate(-9.1796875, -6)" class="inner"/><text style=""><tspan class="row" x="0" dy="1em" xml:space="preserve">0..1</tspan></text></g><g transform="translate(546.65234375, 676.5)" class="edgeLabel"><g transform="translate(-30.2421875, -8.5)" class="label"><rect height="17.000263214111328" width="60.42628860473633" ry="0" rx="0"/><text style=""><tspan class="row" x="0" dy="1em" xml:space="preserve">Renders</tspan></text></g></g><g transform="translate(425.39488510843296, 645.6309273436102)" class="edgeTerminals"><g transform="translate(-3.0625, -6)" class="inner"><text style=""><tspan class="row" x="0" dy="1em" xml:space="preserve">1</tspan></text></g></g><g transform="translate(556.6523418749999, 708.4999983928572)" class="edgeTerminals"><g transform="translate(-9.1796875, -6)" class="inner"/><text style=""><tspan class="row" x="0" dy="1em" xml:space="preserve">0..1</tspan></text></g><g transform="translate(388.15625, 676.5)" class="edgeLabel"><g transform="translate(-30.2421875, -8.5)" class="label"><rect height="17.000263214111328" width="60.42628860473633" ry="0" rx="0"/><text style=""><tspan class="row" x="0" dy="1em" xml:space="preserve">Renders</tspan></text></g></g><g transform="translate(359.0135928591388, 666.0471993831327)" class="edgeTerminals"><g transform="translate(-3.0625, -6)" class="inner"><text style=""><tspan class="row" x="0" dy="1em" xml:space="preserve">1</tspan></text></g></g><g transform="translate(397.65523079651723, 687.2578709210296)" class="edgeTerminals"><g transform="translate(-3.0625, -6)" class="inner"/><text style=""><tspan class="row" x="0" dy="1em" xml:space="preserve">1</tspan></text></g><g transform="translate(64.03125, 841.5)" class="edgeLabel"><g transform="translate(-30.2421875, -8.5)" class="label"><rect height="17.000263214111328" width="60.42628860473633" ry="0" rx="0"/><text style=""><tspan class="row" x="0" dy="1em" xml:space="preserve">Renders</tspan></text></g></g><g transform="translate(49.53402264366749, 825.7421411150417)" class="edgeTerminals"><g transform="translate(-3.0625, -6)" class="inner"><text style=""><tspan class="row" x="0" dy="1em" xml:space="preserve">1</tspan></text></g></g><g transform="translate(88.284674010389, 846.9537473018705)" class="edgeTerminals"><g transform="translate(-3.0625, -6)" class="inner"/><text style=""><tspan class="row" x="0" dy="1em" xml:space="preserve">1</tspan></text></g><g transform="translate(226.09375, 841.5)" class="edgeLabel"><g transform="translate(-30.2421875, -8.5)" class="label"><rect height="17.000263214111328" width="60.42628860473633" ry="0" rx="0"/><text style=""><tspan class="row" x="0" dy="1em" xml:space="preserve">Renders</tspan></text></g></g><g transform="translate(210.6110084709676, 824.8958092137223)" class="edgeTerminals"><g transform="translate(-3.0625, -6)" class="inner"><text style=""><tspan class="row" x="0" dy="1em" xml:space="preserve">1</tspan></text></g></g><g transform="translate(215.09813976316778, 866.4994783439489)" class="edgeTerminals"><g transform="translate(-3.0625, -6)" class="inner"/><text style=""><tspan class="row" x="0" dy="1em" xml:space="preserve">1</tspan></text></g></g><g class="nodes"><g transform="translate(529.021484375, 397.5)" id="classId-PanelPlugin-0" class="node default"><rect height="56" width="106.578125" y="-28" x="-53.2890625" class="outer title-state"/><line y2="1" y1="1" x2="53.2890625" x1="-53.2890625" class="divider"/><line y2="17" y1="17" x2="53.2890625" x1="-53.2890625" class="divider"/><g class="label"><text style=""><tspan class="title-row" x="0" dy="1em" xml:space="preserve"/></text><text transform="translate( -45.7890625, -20.5)" class="classTitle" style=""><tspan class="title-row" x="0" dy="1em" xml:space="preserve">PanelPlugin</tspan></text></g></g><g transform="translate(306.484375, 397.5)" id="classId-PanelProps-1" class="node default"><rect height="119" width="131.5" y="-59.5" x="-65.75" class="outer title-state"/><line y2="-30.5" y1="-30.5" x2="65.75" x1="-65.75" class="divider"/><line y2="48.5" y1="48.5" x2="65.75" x1="-65.75" class="divider"/><g class="label"><text style=""><tspan class="title-row" x="0" dy="1em" xml:space="preserve"/></text><text transform="translate( -58.25, -52)" class="classTitle" style=""><tspan class="title-row" x="0" dy="1em" xml:space="preserve">PanelProps&lt;T&gt;</tspan></text><text transform="translate( -58.25, -19)" style=""><tspan class="title-row" x="0" dy="1em" xml:space="preserve">Options options</tspan></text><text transform="translate( -58.25, 2)" style=""><tspan class="title-row" x="0" dy="1em" xml:space="preserve">data</tspan></text><text transform="translate( -58.25, 23)" style=""><tspan class="title-row" x="0" dy="1em" xml:space="preserve">...</tspan></text></g></g><g transform="translate(306.484375, 583.5)" id="classId-CorePanel-2" class="node default"><rect height="119" width="216.015625" y="-59.5" x="-108.0078125" class="outer title-state"/><line y2="-9.5" y1="-9.5" x2="108.0078125" x1="-108.0078125" class="divider"/><line y2="48.5" y1="48.5" x2="108.0078125" x1="-108.0078125" class="divider"/><g class="label"><text transform="translate( -48.53125, -52)" style=""><tspan class="title-row" x="0" dy="1em" xml:space="preserve">«component»</tspan></text><text transform="translate( -39.5703125, -31)" class="classTitle" style=""><tspan class="title-row" x="0" dy="1em" xml:space="preserve">CorePanel</tspan></text><text transform="translate( -100.5078125, 2)" style=""><tspan class="title-row" x="0" dy="1em" xml:space="preserve">PanelProps&lt;Options&gt; props</tspan></text><text transform="translate( -100.5078125, 23)" style=""><tspan class="title-row" x="0" dy="1em" xml:space="preserve">systemState</tspan></text></g></g><g transform="translate(64.03125, 759)" id="classId-GlobalView-3" class="node default"><rect height="98" width="112.0625" y="-49" x="-56.03125" class="outer title-state"/><line y2="1" y1="1" x2="56.03125" x1="-56.03125" class="divider"/><line y2="38" y1="38" x2="56.03125" x1="-56.03125" class="divider"/><g class="label"><text transform="translate( -48.53125, -41.5)" style=""><tspan class="title-row" x="0" dy="1em" xml:space="preserve">«component»</tspan></text><text transform="translate( -43.25390625, -20.5)" class="classTitle" style=""><tspan class="title-row" x="0" dy="1em" xml:space="preserve">GlobalView</tspan></text><text transform="translate( -48.53125, 12.5)" style=""><tspan class="title-row" x="0" dy="1em" xml:space="preserve">systemState</tspan></text></g></g><g transform="translate(226.09375, 759)" id="classId-RegionView-4" class="node default"><rect height="98" width="112.0625" y="-49" x="-56.03125" class="outer title-state"/><line y2="1" y1="1" x2="56.03125" x1="-56.03125" class="divider"/><line y2="38" y1="38" x2="56.03125" x1="-56.03125" class="divider"/><g class="label"><text transform="translate( -48.53125, -41.5)" style=""><tspan class="title-row" x="0" dy="1em" xml:space="preserve">«component»</tspan></text><text transform="translate( -45.47265625, -20.5)" class="classTitle" style=""><tspan class="title-row" x="0" dy="1em" xml:space="preserve">RegionView</tspan></text><text transform="translate( -48.53125, 12.5)" style=""><tspan class="title-row" x="0" dy="1em" xml:space="preserve">systemState</tspan></text></g></g><g transform="translate(376.375, 232.5)" id="classId-DataSource-5" class="node default"><rect height="77" width="104.0234375" y="-38.5" x="-52.01171875" class="outer title-state"/><line y2="11.5" y1="11.5" x2="52.01171875" x1="-52.01171875" class="divider"/><line y2="27.5" y1="27.5" x2="52.01171875" x1="-52.01171875" class="divider"/><g class="label"><text transform="translate( -37.41015625, -31)" style=""><tspan class="title-row" x="0" dy="1em" xml:space="preserve">«external»</tspan></text><text transform="translate( -44.51171875, -10)" class="classTitle" style=""><tspan class="title-row" x="0" dy="1em" xml:space="preserve">DataSource</tspan></text></g></g><g transform="translate(227.642578125, 67.5)" id="classId-TreeView-6" class="node default"><rect height="119" width="112.0625" y="-59.5" x="-56.03125" class="outer title-state"/><line y2="-9.5" y1="-9.5" x2="56.03125" x1="-56.03125" class="divider"/><line y2="48.5" y1="48.5" x2="56.03125" x1="-56.03125" class="divider"/><g class="label"><text transform="translate( -48.53125, -52)" style=""><tspan class="title-row" x="0" dy="1em" xml:space="preserve">«component»</tspan></text><text transform="translate( -34.8203125, -31)" class="classTitle" style=""><tspan class="title-row" x="0" dy="1em" xml:space="preserve">TreeView</tspan></text><text transform="translate( -48.53125, 2)" style=""><tspan class="title-row" x="0" dy="1em" xml:space="preserve">systemState</tspan></text><text transform="translate( -48.53125, 23)" style=""><tspan class="title-row" x="0" dy="1em" xml:space="preserve">links</tspan></text></g></g><g transform="translate(135.16015625, 397.5)" id="classId-SystemState-7" class="node default"><rect height="77" width="111.1484375" y="-38.5" x="-55.57421875" class="outer title-state"/><line y2="-9.5" y1="-9.5" x2="55.57421875" x1="-55.57421875" class="divider"/><line y2="27.5" y1="27.5" x2="55.57421875" x1="-55.57421875" class="divider"/><g class="label"><text style=""><tspan class="title-row" x="0" dy="1em" xml:space="preserve"/></text><text transform="translate( -48.07421875, -31)" class="classTitle" style=""><tspan class="title-row" x="0" dy="1em" xml:space="preserve">SystemState</tspan></text><text transform="translate( -48.07421875, 2)" style=""><tspan class="title-row" x="0" dy="1em" xml:space="preserve">balancers[]</tspan></text></g></g><g transform="translate(388.15625, 759)" id="classId-Legend-8" class="node default"><rect height="98" width="112.0625" y="-49" x="-56.03125" class="outer title-state"/><line y2="1" y1="1" x2="56.03125" x1="-56.03125" class="divider"/><line y2="38" y1="38" x2="56.03125" x1="-56.03125" class="divider"/><g class="label"><text transform="translate( -48.53125, -41.5)" style=""><tspan class="title-row" x="0" dy="1em" xml:space="preserve">«component»</tspan></text><text transform="translate( -28.4453125, -20.5)" class="classTitle" style=""><tspan class="title-row" x="0" dy="1em" xml:space="preserve">Legend</tspan></text><text transform="translate( -48.53125, 12.5)" style=""><tspan class="title-row" x="0" dy="1em" xml:space="preserve">systemState</tspan></text></g></g><g transform="translate(146.205078125, 934.5)" id="classId-ForceGraph-9" class="node default"><rect height="119" width="112.0625" y="-59.5" x="-56.03125" class="outer title-state"/><line y2="-9.5" y1="-9.5" x2="56.03125" x1="-56.03125" class="divider"/><line y2="48.5" y1="48.5" x2="56.03125" x1="-56.03125" class="divider"/><g class="label"><text transform="translate( -48.53125, -52)" style=""><tspan class="title-row" x="0" dy="1em" xml:space="preserve">«component»</tspan></text><text transform="translate( -45.34375, -31)" class="classTitle" style=""><tspan class="title-row" x="0" dy="1em" xml:space="preserve">ForceGraph</tspan></text><text transform="translate( -48.53125, 2)" style=""><tspan class="title-row" x="0" dy="1em" xml:space="preserve">systemState</tspan></text><text transform="translate( -48.53125, 23)" style=""><tspan class="title-row" x="0" dy="1em" xml:space="preserve">links</tspan></text></g></g><g transform="translate(392.787109375, 67.5)" id="classId-PanelOptions-10" class="node default"><rect height="56" width="118.2265625" y="-28" x="-59.11328125" class="outer title-state"/><line y2="1" y1="1" x2="59.11328125" x1="-59.11328125" class="divider"/><line y2="17" y1="17" x2="59.11328125" x1="-59.11328125" class="divider"/><g class="label"><text style=""><tspan class="title-row" x="0" dy="1em" xml:space="preserve"/></text><text transform="translate( -51.61328125, -20.5)" class="classTitle" style=""><tspan class="title-row" x="0" dy="1em" xml:space="preserve">PanelOptions</tspan></text></g></g><g transform="translate(236.59375, 232.5)" id="classId-Options-11" class="node default"><rect height="56" width="75.5390625" y="-28" x="-37.76953125" class="outer title-state"/><line y2="1" y1="1" x2="37.76953125" x1="-37.76953125" class="divider"/><line y2="17" y1="17" x2="37.76953125" x1="-37.76953125" class="divider"/><g class="label"><text style=""><tspan class="title-row" x="0" dy="1em" xml:space="preserve"/></text><text transform="translate( -30.26953125, -20.5)" class="classTitle" style=""><tspan class="title-row" x="0" dy="1em" xml:space="preserve">Options</tspan></text></g></g><g transform="translate(546.65234375, 759)" id="classId-TreeDisplay-12" class="node default"><rect height="56" width="104.9296875" y="-28" x="-52.46484375" class="outer title-state"/><line y2="1" y1="1" x2="52.46484375" x1="-52.46484375" class="divider"/><line y2="17" y1="17" x2="52.46484375" x1="-52.46484375" class="divider"/><g class="label"><text style=""><tspan class="title-row" x="0" dy="1em" xml:space="preserve"/></text><text transform="translate( -44.96484375, -20.5)" class="classTitle" style=""><tspan class="title-row" x="0" dy="1em" xml:space="preserve">TreeDisplay</tspan></text></g></g></g></g></g></svg>