<svg aria-roledescription="classDiagram" role="graphics-document document" viewBox="-8 -8 622.25 968" style="max-width: 622.25px; background-color: white;" xmlns:xlink="http://www.w3.org/1999/xlink" xmlns="http://www.w3.org/2000/svg" width="100%" id="my-svg"><style>#my-svg{font-family:"trebuchet ms",verdana,arial,sans-serif;font-size:16px;fill:#000000;}#my-svg .error-icon{fill:#552222;}#my-svg .error-text{fill:#552222;stroke:#552222;}#my-svg .edge-thickness-normal{stroke-width:2px;}#my-svg .edge-thickness-thick{stroke-width:3.5px;}#my-svg .edge-pattern-solid{stroke-dasharray:0;}#my-svg .edge-pattern-dashed{stroke-dasharray:3;}#my-svg .edge-pattern-dotted{stroke-dasharray:2;}#my-svg .marker{fill:#666;stroke:#666;}#my-svg .marker.cross{stroke:#666;}#my-svg svg{font-family:"trebuchet ms",verdana,arial,sans-serif;font-size:16px;}#my-svg g.classGroup text{fill:#999;stroke:none;font-family:"trebuchet ms",verdana,arial,sans-serif;font-size:10px;}#my-svg g.classGroup text .title{font-weight:bolder;}#my-svg .nodeLabel,#my-svg .edgeLabel{color:#111111;}#my-svg .edgeLabel .label rect{fill:#eee;}#my-svg .label text{fill:#111111;}#my-svg .edgeLabel .label span{background:#eee;}#my-svg .classTitle{font-weight:bolder;}#my-svg .node rect,#my-svg .node circle,#my-svg .node ellipse,#my-svg .node polygon,#my-svg .node path{fill:#eee;stroke:#999;stroke-width:1px;}#my-svg .divider{stroke:#999;stroke-width:1;}#my-svg g.clickable{cursor:pointer;}#my-svg g.classGroup rect{fill:#eee;stroke:#999;}#my-svg g.classGroup line{stroke:#999;stroke-width:1;}#my-svg .classLabel .box{stroke:none;stroke-width:0;fill:#eee;opacity:0.5;}#my-svg .classLabel .label{fill:#999;font-size:10px;}#my-svg .relation{stroke:#666;stroke-width:1;fill:none;}#my-svg .dashed-line{stroke-dasharray:3;}#my-svg .dotted-line{stroke-dasharray:1 2;}#my-svg #compositionStart,#my-svg .composition{fill:#666!important;stroke:#666!important;stroke-width:1;}#my-svg #compositionEnd,#my-svg .composition{fill:#666!important;stroke:#666!important;stroke-width:1;}#my-svg #dependencyStart,#my-svg .dependency{fill:#666!important;stroke:#666!important;stroke-width:1;}#my-svg #dependencyStart,#my-svg .dependency{fill:#666!important;stroke:#666!important;stroke-width:1;}#my-svg #extensionStart,#my-svg .extension{fill:transparent!important;stroke:#666!important;stroke-width:1;}#my-svg #extensionEnd,#my-svg .extension{fill:transparent!important;stroke:#666!important;stroke-width:1;}#my-svg #aggregationStart,#my-svg .aggregation{fill:transparent!important;stroke:#666!important;stroke-width:1;}#my-svg #aggregationEnd,#my-svg .aggregation{fill:transparent!important;stroke:#666!important;stroke-width:1;}#my-svg #lollipopStart,#my-svg .lollipop{fill:#eee!important;stroke:#666!important;stroke-width:1;}#my-svg #lollipopEnd,#my-svg .lollipop{fill:#eee!important;stroke:#666!important;stroke-width:1;}#my-svg .edgeTerminals{font-size:11px;}#my-svg .classTitleText{text-anchor:middle;font-size:18px;fill:#000000;}#my-svg :root{--mermaid-font-family:"trebuchet ms",verdana,arial,sans-serif;}</style><g><defs><marker orient="auto" markerHeight="240" markerWidth="190" refY="7" refX="18" class="marker aggregation classDiagram" id="my-svg_classDiagram-aggregationStart"><path d="M 18,7 L9,13 L1,7 L9,1 Z"/></marker></defs><defs><marker orient="auto" markerHeight="28" markerWidth="20" refY="7" refX="1" class="marker aggregation classDiagram" id="my-svg_classDiagram-aggregationEnd"><path d="M 18,7 L9,13 L1,7 L9,1 Z"/></marker></defs><defs><marker orient="auto" markerHeight="240" markerWidth="190" refY="7" refX="18" class="marker extension classDiagram" id="my-svg_classDiagram-extensionStart"><path d="M 1,7 L18,13 V 1 Z"/></marker></defs><defs><marker orient="auto" markerHeight="28" markerWidth="20" refY="7" refX="1" class="marker extension classDiagram" id="my-svg_classDiagram-extensionEnd"><path d="M 1,1 V 13 L18,7 Z"/></marker></defs><defs><marker orient="auto" markerHeight="240" markerWidth="190" refY="7" refX="18" class="marker composition classDiagram" id="my-svg_classDiagram-compositionStart"><path d="M 18,7 L9,13 L1,7 L9,1 Z"/></marker></defs><defs><marker orient="auto" markerHeight="28" markerWidth="20" refY="7" refX="1" class="marker composition classDiagram" id="my-svg_classDiagram-compositionEnd"><path d="M 18,7 L9,13 L1,7 L9,1 Z"/></marker></defs><defs><marker orient="auto" markerHeight="240" markerWidth="190" refY="7" refX="6" class="marker dependency classDiagram" id="my-svg_classDiagram-dependencyStart"><path d="M 5,7 L9,13 L1,7 L9,1 Z"/></marker></defs><defs><marker orient="auto" markerHeight="28" markerWidth="20" refY="7" refX="13" class="marker dependency classDiagram" id="my-svg_classDiagram-dependencyEnd"><path d="M 18,7 L9,13 L14,7 L9,1 Z"/></marker></defs><defs><marker orient="auto" markerHeight="240" markerWidth="190" refY="7" refX="13" class="marker lollipop classDiagram" id="my-svg_classDiagram-lollipopStart"><circle r="6" cy="7" cx="7" fill="transparent" stroke="black"/></marker></defs><defs><marker orient="auto" markerHeight="240" markerWidth="190" refY="7" refX="1" class="marker lollipop classDiagram" id="my-svg_classDiagram-lollipopEnd"><circle r="6" cy="7" cx="7" fill="transparent" stroke="black"/></marker></defs><g class="root"><g class="clusters"/><g class="edgePaths"><path marker-start="url(#my-svg_classDiagram-compositionStart)" style="fill:none" class="edge-pattern-solid relation" id="id1" d="M136.943359375,401.5L136.943359375,405.8333333333333C136.943359375,410.1666666666667,136.943359375,418.8333333333333,147.49609375,428.89501204617824C158.048828125,438.9566907590233,179.154296875,450.4133815180465,189.70703125,456.1417268975581L200.259765625,461.8700722770697"/><path marker-end="url(#my-svg_classDiagram-compositionEnd)" style="fill:none" class="edge-pattern-solid relation" id="id2" d="M451.900390625,62.340607089789856L465.0511067708333,68.2005059081582C478.2018229166667,74.06040472652657,504.5032552083333,85.78020236326329,517.6539713541666,103.64010118163164C530.8046875,121.5,530.8046875,145.5,530.8046875,169.5C530.8046875,193.5,530.8046875,217.5,530.8046875,237.33333333333334C530.8046875,257.1666666666667,530.8046875,272.8333333333333,530.8046875,280.6666666666667L530.8046875,288.5"/><path style="fill:none" class="edge-pattern-dashed relation" id="id3" d="M333.673828125,59.544220698727514L317.791015625,65.87018391560626C301.908203125,72.19614713248501,270.142578125,84.8480735662425,254.259765625,98.50737011645458C238.376953125,112.16666666666667,238.376953125,126.83333333333333,238.376953125,134.16666666666666L238.376953125,141.5"/><path marker-end="url(#my-svg_classDiagram-dependencyEnd)" style="fill:none" class="edge-pattern-solid relation" id="id4" d="M308.267578125,394L308.267578125,399.5833333333333C308.267578125,405.1666666666667,308.267578125,416.3333333333333,308.267578125,426.5C308.267578125,436.6666666666667,308.267578125,445.8333333333333,308.267578125,450.4166666666667L308.267578125,455"/><path marker-end="url(#my-svg_classDiagram-compositionEnd)" style="fill:none" class="edge-pattern-solid relation" id="id5" d="M238.376953125,197.5L238.376953125,204.83333333333334C238.376953125,212.16666666666666,238.376953125,226.83333333333334,240.77057561193325,237.3517417934779C243.16419809886648,247.87015025362246,247.95144307273293,254.2403005072449,250.34506555966618,257.42537563405614L252.7386880465994,260.61045076086737"/><path marker-end="url(#my-svg_classDiagram-dependencyEnd)" style="fill:none" class="edge-pattern-solid relation" id="id6" d="M378.158203125,208L378.158203125,213.58333333333334C378.158203125,219.16666666666666,378.158203125,230.33333333333334,374.5630339358072,240.70058059782596C370.9678647466144,251.0678278623186,363.7775263682288,260.63565572463716,360.182357179036,265.41956965579647L356.5871879898432,270.20348358695577"/><path marker-start="url(#my-svg_classDiagram-compositionStart)" style="fill:none" class="edge-pattern-solid relation" id="id7" d="M530.8046875,380.5L530.8046875,388.3333333333333C530.8046875,396.1666666666667,530.8046875,411.8333333333333,511.7164713541667,427.64378161413856C492.6282552083333,443.4542298949438,454.4518229166667,459.40845978988756,435.3636067708333,467.3855747373595L416.275390625,475.36268968483137"/><path marker-start="url(#my-svg_classDiagram-compositionStart)" style="fill:none" class="edge-pattern-solid relation" id="id8" d="M183.4380148399766,568.0324431653166L163.53688736664716,575.6103693044305C143.63575989331773,583.1882954435445,103.83350494665888,598.3441477217722,83.93237747332944,613.2554071942194C64.03125,628.1666666666666,64.03125,642.8333333333334,64.03125,650.1666666666666L64.03125,657.5"/><path marker-start="url(#my-svg_classDiagram-compositionStart)" style="fill:none" class="edge-pattern-solid relation" id="id9" d="M243.77543467247725,593.4888028577788L240.82848722706436,596.8240023814823C237.88153978165147,600.1592019051858,231.98764489082575,606.829600952593,229.0406974454129,617.4981338096298C226.09375,628.1666666666666,226.09375,642.8333333333334,226.09375,650.1666666666666L226.09375,657.5"/><path marker-start="url(#my-svg_classDiagram-compositionStart)" style="fill:none" class="edge-pattern-solid relation" id="id10" d="M371.1081449256253,593.6539600708645L373.9494957713544,596.9616333923872C376.79084661708356,600.2693067139097,382.47354830854175,606.8846533569548,385.3148991542709,615.7756600118108C388.15625,624.6666666666666,388.15625,635.8333333333334,388.15625,641.4166666666666L388.15625,647"/><path marker-start="url(#my-svg_classDiagram-compositionStart)" style="fill:none" class="edge-pattern-solid relation" id="id11" d="M433.0769639619482,568.4736171264873L452.6005949682902,575.9780142720728C472.1242259746321,583.4824114176582,511.1714879873161,598.491205708829,530.6951189936581,613.3289361877479C550.21875,628.1666666666666,550.21875,642.8333333333334,550.21875,650.1666666666666L550.21875,657.5"/><path marker-start="url(#my-svg_classDiagram-compositionStart)" style="fill:none" class="edge-pattern-solid relation" id="id12" d="M64.03125,773.5L64.03125,777.8333333333334C64.03125,782.1666666666666,64.03125,790.8333333333334,68.9646249859991,800.75C73.8979999719982,810.6666666666666,83.76474994399642,821.8333333333334,88.69812492999552,827.4166666666666L93.63149991599462,833"/><path marker-start="url(#my-svg_classDiagram-compositionStart)" style="fill:none" class="edge-pattern-solid relation" id="id13" d="M226.09375,773.5L226.09375,777.8333333333334C226.09375,782.1666666666666,226.09375,790.8333333333334,221.29756629424284,800.75C216.50138258848565,810.6666666666666,206.90901517697134,821.8333333333334,202.11283147121415,827.4166666666666L197.316647765457,833"/></g><g class="edgeLabels"><g class="edgeLabel"><g transform="translate(0, 0)" class="label"><rect height="0" width="0" ry="0" rx="0"/><text style=""><tspan class="row" x="0" dy="1em" xml:space="preserve"/></text></g></g><g transform="translate(530.8046875, 169.5)" class="edgeLabel"><g transform="translate(-49.2421875, -8.5)" class="label"><rect height="17" width="98.484375" ry="0" rx="0"/><text style=""><tspan class="row" x="0" dy="1em" xml:space="preserve">Defines UI for</tspan></text></g></g><g transform="translate(461.78001321536624, 83.16470304151844)" class="edgeTerminals"><g transform="translate(-3.0625, -6)" class="inner"><text style=""><tspan class="row" x="0" dy="1em" xml:space="preserve">1</tspan></text></g></g><g transform="translate(540.80468875, 284.0000010714286)" class="edgeTerminals"><g transform="translate(-3.0625, -6)" class="inner"/><text style=""><tspan class="row" x="0" dy="1em" xml:space="preserve">1</tspan></text></g><g transform="translate(238.376953125, 97.5)" class="edgeLabel"><g transform="translate(-69.640625, -8.5)" class="label"><rect height="17" width="139.28125" ry="0" rx="0"/><text style=""><tspan class="row" x="0" dy="1em" xml:space="preserve">Defines structure of</tspan></text></g></g><g transform="translate(311.865606264171, 52.084226627846405)" class="edgeTerminals"><g transform="translate(-3.0625, -6)" class="inner"><text style=""><tspan class="row" x="0" dy="1em" xml:space="preserve">1</tspan></text></g></g><g transform="translate(248.37695156249993, 118.99999866071428)" class="edgeTerminals"><g transform="translate(-3.0625, -6)" class="inner"/><text style=""><tspan class="row" x="0" dy="1em" xml:space="preserve">1</tspan></text></g><g transform="translate(308.267578125, 427.5)" class="edgeLabel"><g transform="translate(-34.96484375, -8.5)" class="label"><rect height="17" width="69.9296875" ry="0" rx="0"/><text style=""><tspan class="row" x="0" dy="1em" xml:space="preserve">Is input of</tspan></text></g></g><g transform="translate(293.2675790625, 411.5000008035714)" class="edgeTerminals"><g transform="translate(-3.0625, -6)" class="inner"><text style=""><tspan class="row" x="0" dy="1em" xml:space="preserve">1</tspan></text></g></g><g transform="translate(318.2675790625, 438.5000008035714)" class="edgeTerminals"><g transform="translate(-3.0625, -6)" class="inner"/><text style=""><tspan class="row" x="0" dy="1em" xml:space="preserve">1</tspan></text></g><g transform="translate(238.376953125, 241.5)" class="edgeLabel"><g transform="translate(-41.859375, -8.5)" class="label"><rect height="17" width="83.71875" ry="0" rx="0"/><text style=""><tspan class="row" x="0" dy="1em" xml:space="preserve">wrapped by</tspan></text></g></g><g transform="translate(223.37695156250004, 214.99999866071428)" class="edgeTerminals"><g transform="translate(-3.0625, -6)" class="inner"><text style=""><tspan class="row" x="0" dy="1em" xml:space="preserve">1</tspan></text></g></g><g transform="translate(260.03036513723214, 246.9985596281366)" class="edgeTerminals"><g transform="translate(-3.0625, -6)" class="inner"/><text style=""><tspan class="row" x="0" dy="1em" xml:space="preserve">1</tspan></text></g><g transform="translate(378.158203125, 241.5)" class="edgeLabel"><g transform="translate(-22.234375, -8.5)" class="label"><rect height="17" width="44.46875" ry="0" rx="0"/><text style=""><tspan class="row" x="0" dy="1em" xml:space="preserve">Feeds</tspan></text></g></g><g transform="translate(362.71267761170157, 224.96013475924462)" class="edgeTerminals"><g transform="translate(-3.0625, -6)" class="inner"><text style=""><tspan class="row" x="0" dy="1em" xml:space="preserve">1</tspan></text></g></g><g transform="translate(370.48737412343434, 265.0217613989422)" class="edgeTerminals"><g transform="translate(-3.0625, -6)" class="inner"/><text style=""><tspan class="row" x="0" dy="1em" xml:space="preserve">1</tspan></text></g><g transform="translate(530.8046875, 427.5)" class="edgeLabel"><g transform="translate(-31.125, -8.5)" class="label"><rect height="17" width="62.25" ry="0" rx="0"/><text style=""><tspan class="row" x="0" dy="1em" xml:space="preserve">Provides</tspan></text></g></g><g transform="translate(515.80468875, 380.0000010714286)" class="edgeTerminals"><g transform="translate(-3.0625, -6)" class="inner"><text style=""><tspan class="row" x="0" dy="1em" xml:space="preserve">1</tspan></text></g></g><g transform="translate(433.20597398637653, 477.45489756639444)" class="edgeTerminals"><g transform="translate(-3.0625, -6)" class="inner"/><text style=""><tspan class="row" x="0" dy="1em" xml:space="preserve">1</tspan></text></g><g transform="translate(64.03125, 613.5)" class="edgeLabel"><g transform="translate(-30.2421875, -8.5)" class="label"><rect height="17" width="60.484375" ry="0" rx="0"/><text style=""><tspan class="row" x="0" dy="1em" xml:space="preserve">Renders</tspan></text></g></g><g transform="translate(178.56748475652552, 553.836388021919)" class="edgeTerminals"><g transform="translate(-3.0625, -6)" class="inner"><text style=""><tspan class="row" x="0" dy="1em" xml:space="preserve">1</tspan></text></g></g><g transform="translate(74.03125, 635)" class="edgeTerminals"><g transform="translate(-9.1796875, -6)" class="inner"/><text style=""><tspan class="row" x="0" dy="1em" xml:space="preserve">0..1</tspan></text></g><g transform="translate(226.09375, 613.5)" class="edgeLabel"><g transform="translate(-30.2421875, -8.5)" class="label"><rect height="17" width="60.484375" ry="0" rx="0"/><text style=""><tspan class="row" x="0" dy="1em" xml:space="preserve">Renders</tspan></text></g></g><g transform="translate(232.86583590560565, 583.1819773018707)" class="edgeTerminals"><g transform="translate(-3.0625, -6)" class="inner"><text style=""><tspan class="row" x="0" dy="1em" xml:space="preserve">1</tspan></text></g></g><g transform="translate(236.09375, 635)" class="edgeTerminals"><g transform="translate(-9.1796875, -6)" class="inner"/><text style=""><tspan class="row" x="0" dy="1em" xml:space="preserve">0..1</tspan></text></g><g transform="translate(388.15625, 613.5)" class="edgeLabel"><g transform="translate(-30.2421875, -8.5)" class="label"><rect height="17" width="60.484375" ry="0" rx="0"/><text style=""><tspan class="row" x="0" dy="1em" xml:space="preserve">Renders</tspan></text></g></g><g transform="translate(359.4040380022892, 603.0488483439489)" class="edgeTerminals"><g transform="translate(-3.0625, -6)" class="inner"><text style=""><tspan class="row" x="0" dy="1em" xml:space="preserve">1</tspan></text></g></g><g transform="translate(397.66157152903247, 624.2579792137221)" class="edgeTerminals"><g transform="translate(-9.1796875, -6)" class="inner"/><text style=""><tspan class="row" x="0" dy="1em" xml:space="preserve">0..1</tspan></text></g><g transform="translate(550.21875, 613.5)" class="edgeLabel"><g transform="translate(-30.2421875, -8.5)" class="label"><rect height="17" width="60.484375" ry="0" rx="0"/><text style=""><tspan class="row" x="0" dy="1em" xml:space="preserve">Renders</tspan></text></g></g><g transform="translate(427.22850059380886, 582.2955367813786)" class="edgeTerminals"><g transform="translate(-3.0625, -6)" class="inner"><text style=""><tspan class="row" x="0" dy="1em" xml:space="preserve">1</tspan></text></g></g><g transform="translate(560.21875, 635)" class="edgeTerminals"><g transform="translate(-3.0625, -6)" class="inner"/><text style=""><tspan class="row" x="0" dy="1em" xml:space="preserve">1</tspan></text></g><g transform="translate(64.03125, 799.5)" class="edgeLabel"><g transform="translate(-30.2421875, -8.5)" class="label"><rect height="17" width="60.484375" ry="0" rx="0"/><text style=""><tspan class="row" x="0" dy="1em" xml:space="preserve">Renders</tspan></text></g></g><g transform="translate(49.03125, 773)" class="edgeTerminals"><g transform="translate(-3.0625, -6)" class="inner"><text style=""><tspan class="row" x="0" dy="1em" xml:space="preserve">1</tspan></text></g></g><g transform="translate(88.284674010389, 804.9537473018705)" class="edgeTerminals"><g transform="translate(-3.0625, -6)" class="inner"/><text style=""><tspan class="row" x="0" dy="1em" xml:space="preserve">1</tspan></text></g><g transform="translate(226.09375, 799.5)" class="edgeLabel"><g transform="translate(-30.2421875, -8.5)" class="label"><rect height="17" width="60.484375" ry="0" rx="0"/><text style=""><tspan class="row" x="0" dy="1em" xml:space="preserve">Renders</tspan></text></g></g><g transform="translate(211.09375, 773)" class="edgeTerminals"><g transform="translate(-3.0625, -6)" class="inner"><text style=""><tspan class="row" x="0" dy="1em" xml:space="preserve">1</tspan></text></g></g><g transform="translate(215.09813976316778, 824.4994783439489)" class="edgeTerminals"><g transform="translate(-3.0625, -6)" class="inner"/><text style=""><tspan class="row" x="0" dy="1em" xml:space="preserve">1</tspan></text></g></g><g class="nodes"><g transform="translate(530.8046875, 334.5)" id="classId-PanelPlugin-0" class="node default"><rect height="56" width="106.578125" y="-28" x="-53.2890625" class="outer title-state"/><line y2="1" y1="1" x2="53.2890625" x1="-53.2890625" class="divider"/><line y2="17" y1="17" x2="53.2890625" x1="-53.2890625" class="divider"/><g class="label"><text style=""><tspan class="title-row" x="0" dy="1em" xml:space="preserve"/></text><text transform="translate( -45.7890625, -20.5)" class="classTitle" style=""><tspan class="title-row" x="0" dy="1em" xml:space="preserve">PanelPlugin</tspan></text></g></g><g transform="translate(308.267578125, 334.5)" id="classId-PanelProps-1" class="node default"><rect height="119" width="131.5" y="-59.5" x="-65.75" class="outer title-state"/><line y2="-30.5" y1="-30.5" x2="65.75" x1="-65.75" class="divider"/><line y2="48.5" y1="48.5" x2="65.75" x1="-65.75" class="divider"/><g class="label"><text style=""><tspan class="title-row" x="0" dy="1em" xml:space="preserve"/></text><text transform="translate( -58.25, -52)" class="classTitle" style=""><tspan class="title-row" x="0" dy="1em" xml:space="preserve">PanelProps&lt;T&gt;</tspan></text><text transform="translate( -58.25, -19)" style=""><tspan class="title-row" x="0" dy="1em" xml:space="preserve">Options options</tspan></text><text transform="translate( -58.25, 2)" style=""><tspan class="title-row" x="0" dy="1em" xml:space="preserve">data</tspan></text><text transform="translate( -58.25, 23)" style=""><tspan class="title-row" x="0" dy="1em" xml:space="preserve">...</tspan></text></g></g><g transform="translate(308.267578125, 520.5)" id="classId-CorePanel-2" class="node default"><rect height="119" width="216.015625" y="-59.5" x="-108.0078125" class="outer title-state"/><line y2="-9.5" y1="-9.5" x2="108.0078125" x1="-108.0078125" class="divider"/><line y2="48.5" y1="48.5" x2="108.0078125" x1="-108.0078125" class="divider"/><g class="label"><text transform="translate( -48.53125, -52)" style=""><tspan class="title-row" x="0" dy="1em" xml:space="preserve">«component»</tspan></text><text transform="translate( -39.5703125, -31)" class="classTitle" style=""><tspan class="title-row" x="0" dy="1em" xml:space="preserve">CorePanel</tspan></text><text transform="translate( -100.5078125, 2)" style=""><tspan class="title-row" x="0" dy="1em" xml:space="preserve">PanelProps&lt;Options&gt; props</tspan></text><text transform="translate( -100.5078125, 23)" style=""><tspan class="title-row" x="0" dy="1em" xml:space="preserve">systemState</tspan></text></g></g><g transform="translate(64.03125, 706.5)" id="classId-GlobalView-3" class="node default"><rect height="98" width="112.0625" y="-49" x="-56.03125" class="outer title-state"/><line y2="1" y1="1" x2="56.03125" x1="-56.03125" class="divider"/><line y2="38" y1="38" x2="56.03125" x1="-56.03125" class="divider"/><g class="label"><text transform="translate( -48.53125, -41.5)" style=""><tspan class="title-row" x="0" dy="1em" xml:space="preserve">«component»</tspan></text><text transform="translate( -43.25390625, -20.5)" class="classTitle" style=""><tspan class="title-row" x="0" dy="1em" xml:space="preserve">GlobalView</tspan></text><text transform="translate( -48.53125, 12.5)" style=""><tspan class="title-row" x="0" dy="1em" xml:space="preserve">systemState</tspan></text></g></g><g transform="translate(226.09375, 706.5)" id="classId-RegionView-4" class="node default"><rect height="98" width="112.0625" y="-49" x="-56.03125" class="outer title-state"/><line y2="1" y1="1" x2="56.03125" x1="-56.03125" class="divider"/><line y2="38" y1="38" x2="56.03125" x1="-56.03125" class="divider"/><g class="label"><text transform="translate( -48.53125, -41.5)" style=""><tspan class="title-row" x="0" dy="1em" xml:space="preserve">«component»</tspan></text><text transform="translate( -45.47265625, -20.5)" class="classTitle" style=""><tspan class="title-row" x="0" dy="1em" xml:space="preserve">RegionView</tspan></text><text transform="translate( -48.53125, 12.5)" style=""><tspan class="title-row" x="0" dy="1em" xml:space="preserve">systemState</tspan></text></g></g><g transform="translate(378.158203125, 169.5)" id="classId-DataSource-5" class="node default"><rect height="77" width="104.0234375" y="-38.5" x="-52.01171875" class="outer title-state"/><line y2="11.5" y1="11.5" x2="52.01171875" x1="-52.01171875" class="divider"/><line y2="27.5" y1="27.5" x2="52.01171875" x1="-52.01171875" class="divider"/><g class="label"><text transform="translate( -37.41015625, -31)" style=""><tspan class="title-row" x="0" dy="1em" xml:space="preserve">«external»</tspan></text><text transform="translate( -44.51171875, -10)" class="classTitle" style=""><tspan class="title-row" x="0" dy="1em" xml:space="preserve">DataSource</tspan></text></g></g><g transform="translate(388.15625, 706.5)" id="classId-TreeDisplay-6" class="node default"><rect height="119" width="112.0625" y="-59.5" x="-56.03125" class="outer title-state"/><line y2="-9.5" y1="-9.5" x2="56.03125" x1="-56.03125" class="divider"/><line y2="48.5" y1="48.5" x2="56.03125" x1="-56.03125" class="divider"/><g class="label"><text transform="translate( -48.53125, -52)" style=""><tspan class="title-row" x="0" dy="1em" xml:space="preserve">«component»</tspan></text><text transform="translate( -44.96484375, -31)" class="classTitle" style=""><tspan class="title-row" x="0" dy="1em" xml:space="preserve">TreeDisplay</tspan></text><text transform="translate( -48.53125, 2)" style=""><tspan class="title-row" x="0" dy="1em" xml:space="preserve">systemState</tspan></text><text transform="translate( -48.53125, 23)" style=""><tspan class="title-row" x="0" dy="1em" xml:space="preserve">links</tspan></text></g></g><g transform="translate(136.943359375, 334.5)" id="classId-SystemState-7" class="node default"><rect height="98" width="111.1484375" y="-49" x="-55.57421875" class="outer title-state"/><line y2="-20" y1="-20" x2="55.57421875" x1="-55.57421875" class="divider"/><line y2="38" y1="38" x2="55.57421875" x1="-55.57421875" class="divider"/><g class="label"><text style=""><tspan class="title-row" x="0" dy="1em" xml:space="preserve"/></text><text transform="translate( -48.07421875, -41.5)" class="classTitle" style=""><tspan class="title-row" x="0" dy="1em" xml:space="preserve">SystemState</tspan></text><text transform="translate( -48.07421875, -8.5)" style=""><tspan class="title-row" x="0" dy="1em" xml:space="preserve">balancers[]</tspan></text><text transform="translate( -48.07421875, 12.5)" style=""><tspan class="title-row" x="0" dy="1em" xml:space="preserve">monoliths[]</tspan></text></g></g><g transform="translate(550.21875, 706.5)" id="classId-Legend-8" class="node default"><rect height="98" width="112.0625" y="-49" x="-56.03125" class="outer title-state"/><line y2="1" y1="1" x2="56.03125" x1="-56.03125" class="divider"/><line y2="38" y1="38" x2="56.03125" x1="-56.03125" class="divider"/><g class="label"><text transform="translate( -48.53125, -41.5)" style=""><tspan class="title-row" x="0" dy="1em" xml:space="preserve">«component»</tspan></text><text transform="translate( -28.4453125, -20.5)" class="classTitle" style=""><tspan class="title-row" x="0" dy="1em" xml:space="preserve">Legend</tspan></text><text transform="translate( -48.53125, 12.5)" style=""><tspan class="title-row" x="0" dy="1em" xml:space="preserve">systemState</tspan></text></g></g><g transform="translate(146.205078125, 892.5)" id="classId-ForceGraph-9" class="node default"><rect height="119" width="112.0625" y="-59.5" x="-56.03125" class="outer title-state"/><line y2="-9.5" y1="-9.5" x2="56.03125" x1="-56.03125" class="divider"/><line y2="48.5" y1="48.5" x2="56.03125" x1="-56.03125" class="divider"/><g class="label"><text transform="translate( -48.53125, -52)" style=""><tspan class="title-row" x="0" dy="1em" xml:space="preserve">«component»</tspan></text><text transform="translate( -45.34375, -31)" class="classTitle" style=""><tspan class="title-row" x="0" dy="1em" xml:space="preserve">ForceGraph</tspan></text><text transform="translate( -48.53125, 2)" style=""><tspan class="title-row" x="0" dy="1em" xml:space="preserve">systemState</tspan></text><text transform="translate( -48.53125, 23)" style=""><tspan class="title-row" x="0" dy="1em" xml:space="preserve">links</tspan></text></g></g><g transform="translate(392.787109375, 36)" id="classId-PanelOptions-10" class="node default"><rect height="56" width="118.2265625" y="-28" x="-59.11328125" class="outer title-state"/><line y2="1" y1="1" x2="59.11328125" x1="-59.11328125" class="divider"/><line y2="17" y1="17" x2="59.11328125" x1="-59.11328125" class="divider"/><g class="label"><text style=""><tspan class="title-row" x="0" dy="1em" xml:space="preserve"/></text><text transform="translate( -51.61328125, -20.5)" class="classTitle" style=""><tspan class="title-row" x="0" dy="1em" xml:space="preserve">PanelOptions</tspan></text></g></g><g transform="translate(238.376953125, 169.5)" id="classId-Options-11" class="node default"><rect height="56" width="75.5390625" y="-28" x="-37.76953125" class="outer title-state"/><line y2="1" y1="1" x2="37.76953125" x1="-37.76953125" class="divider"/><line y2="17" y1="17" x2="37.76953125" x1="-37.76953125" class="divider"/><g class="label"><text style=""><tspan class="title-row" x="0" dy="1em" xml:space="preserve"/></text><text transform="translate( -30.26953125, -20.5)" class="classTitle" style=""><tspan class="title-row" x="0" dy="1em" xml:space="preserve">Options</tspan></text></g></g></g></g></g></svg>