<svg aria-roledescription="classDiagram" role="graphics-document document" viewBox="-8 -8 632.7109375 947" style="max-width: 632.711px; background-color: white;" xmlns:xlink="http://www.w3.org/1999/xlink" xmlns="http://www.w3.org/2000/svg" width="100%" id="my-svg"><style>#my-svg{font-family:"trebuchet ms",verdana,arial,sans-serif;font-size:16px;fill:#000000;}#my-svg .error-icon{fill:#552222;}#my-svg .error-text{fill:#552222;stroke:#552222;}#my-svg .edge-thickness-normal{stroke-width:2px;}#my-svg .edge-thickness-thick{stroke-width:3.5px;}#my-svg .edge-pattern-solid{stroke-dasharray:0;}#my-svg .edge-pattern-dashed{stroke-dasharray:3;}#my-svg .edge-pattern-dotted{stroke-dasharray:2;}#my-svg .marker{fill:#666;stroke:#666;}#my-svg .marker.cross{stroke:#666;}#my-svg svg{font-family:"trebuchet ms",verdana,arial,sans-serif;font-size:16px;}#my-svg g.classGroup text{fill:#999;stroke:none;font-family:"trebuchet ms",verdana,arial,sans-serif;font-size:10px;}#my-svg g.classGroup text .title{font-weight:bolder;}#my-svg .nodeLabel,#my-svg .edgeLabel{color:#111111;}#my-svg .edgeLabel .label rect{fill:#eee;}#my-svg .label text{fill:#111111;}#my-svg .edgeLabel .label span{background:#eee;}#my-svg .classTitle{font-weight:bolder;}#my-svg .node rect,#my-svg .node circle,#my-svg .node ellipse,#my-svg .node polygon,#my-svg .node path{fill:#eee;stroke:#999;stroke-width:1px;}#my-svg .divider{stroke:#999;stroke-width:1;}#my-svg g.clickable{cursor:pointer;}#my-svg g.classGroup rect{fill:#eee;stroke:#999;}#my-svg g.classGroup line{stroke:#999;stroke-width:1;}#my-svg .classLabel .box{stroke:none;stroke-width:0;fill:#eee;opacity:0.5;}#my-svg .classLabel .label{fill:#999;font-size:10px;}#my-svg .relation{stroke:#666;stroke-width:1;fill:none;}#my-svg .dashed-line{stroke-dasharray:3;}#my-svg .dotted-line{stroke-dasharray:1 2;}#my-svg #compositionStart,#my-svg .composition{fill:#666!important;stroke:#666!important;stroke-width:1;}#my-svg #compositionEnd,#my-svg .composition{fill:#666!important;stroke:#666!important;stroke-width:1;}#my-svg #dependencyStart,#my-svg .dependency{fill:#666!important;stroke:#666!important;stroke-width:1;}#my-svg #dependencyStart,#my-svg .dependency{fill:#666!important;stroke:#666!important;stroke-width:1;}#my-svg #extensionStart,#my-svg .extension{fill:transparent!important;stroke:#666!important;stroke-width:1;}#my-svg #extensionEnd,#my-svg .extension{fill:transparent!important;stroke:#666!important;stroke-width:1;}#my-svg #aggregationStart,#my-svg .aggregation{fill:transparent!important;stroke:#666!important;stroke-width:1;}#my-svg #aggregationEnd,#my-svg .aggregation{fill:transparent!important;stroke:#666!important;stroke-width:1;}#my-svg #lollipopStart,#my-svg .lollipop{fill:#eee!important;stroke:#666!important;stroke-width:1;}#my-svg #lollipopEnd,#my-svg .lollipop{fill:#eee!important;stroke:#666!important;stroke-width:1;}#my-svg .edgeTerminals{font-size:11px;}#my-svg .classTitleText{text-anchor:middle;font-size:18px;fill:#000000;}#my-svg :root{--mermaid-font-family:"trebuchet ms",verdana,arial,sans-serif;}</style><g><defs><marker orient="auto" markerHeight="240" markerWidth="190" refY="7" refX="18" class="marker aggregation classDiagram" id="my-svg_classDiagram-aggregationStart"><path d="M 18,7 L9,13 L1,7 L9,1 Z"/></marker></defs><defs><marker orient="auto" markerHeight="28" markerWidth="20" refY="7" refX="1" class="marker aggregation classDiagram" id="my-svg_classDiagram-aggregationEnd"><path d="M 18,7 L9,13 L1,7 L9,1 Z"/></marker></defs><defs><marker orient="auto" markerHeight="240" markerWidth="190" refY="7" refX="18" class="marker extension classDiagram" id="my-svg_classDiagram-extensionStart"><path d="M 1,7 L18,13 V 1 Z"/></marker></defs><defs><marker orient="auto" markerHeight="28" markerWidth="20" refY="7" refX="1" class="marker extension classDiagram" id="my-svg_classDiagram-extensionEnd"><path d="M 1,1 V 13 L18,7 Z"/></marker></defs><defs><marker orient="auto" markerHeight="240" markerWidth="190" refY="7" refX="18" class="marker composition classDiagram" id="my-svg_classDiagram-compositionStart"><path d="M 18,7 L9,13 L1,7 L9,1 Z"/></marker></defs><defs><marker orient="auto" markerHeight="28" markerWidth="20" refY="7" refX="1" class="marker composition classDiagram" id="my-svg_classDiagram-compositionEnd"><path d="M 18,7 L9,13 L1,7 L9,1 Z"/></marker></defs><defs><marker orient="auto" markerHeight="240" markerWidth="190" refY="7" refX="6" class="marker dependency classDiagram" id="my-svg_classDiagram-dependencyStart"><path d="M 5,7 L9,13 L1,7 L9,1 Z"/></marker></defs><defs><marker orient="auto" markerHeight="28" markerWidth="20" refY="7" refX="13" class="marker dependency classDiagram" id="my-svg_classDiagram-dependencyEnd"><path d="M 18,7 L9,13 L14,7 L9,1 Z"/></marker></defs><defs><marker orient="auto" markerHeight="240" markerWidth="190" refY="7" refX="13" class="marker lollipop classDiagram" id="my-svg_classDiagram-lollipopStart"><circle r="6" cy="7" cx="7" fill="transparent" stroke="black"/></marker></defs><defs><marker orient="auto" markerHeight="240" markerWidth="190" refY="7" refX="1" class="marker lollipop classDiagram" id="my-svg_classDiagram-lollipopEnd"><circle r="6" cy="7" cx="7" fill="transparent" stroke="black"/></marker></defs><g class="root"><g class="clusters"/><g class="edgePaths"><path marker-start="url(#my-svg_classDiagram-compositionStart)" style="fill:none" class="edge-pattern-solid relation" id="id1" d="M136.943359375,391L136.943359375,397.0833333333333C136.943359375,403.1666666666667,136.943359375,415.3333333333333,147.93196614583334,427.2919319462067C158.92057291666666,439.2505305590801,180.89778645833334,451.0010611181603,191.88639322916666,456.8763263977003L202.875,462.7515916772404"/><path marker-end="url(#my-svg_classDiagram-compositionEnd)" style="fill:none" class="edge-pattern-solid relation" id="id2" d="M451.900390625,61.85077217932337L465.4869791666667,67.79231014943615C479.0735677083333,73.73384811954891,506.2467447916667,85.61692405977446,519.8333333333334,103.55846202988722C533.419921875,121.5,533.419921875,145.5,533.419921875,169.5C533.419921875,193.5,533.419921875,217.5,533.419921875,237.33333333333334C533.419921875,257.1666666666667,533.419921875,272.8333333333333,533.419921875,280.6666666666667L533.419921875,288.5"/><path style="fill:none" class="edge-pattern-dashed relation" id="id3" d="M333.673828125,59.94985782112482L318.2268880208333,66.20821485093735C302.7799479166667,72.46657188074988,271.8860677083333,84.98328594037494,256.4391276041667,98.57497630352081C240.9921875,112.16666666666667,240.9921875,126.83333333333333,240.9921875,134.16666666666666L240.9921875,141.5"/><path marker-end="url(#my-svg_classDiagram-dependencyEnd)" style="fill:none" class="edge-pattern-solid relation" id="id4" d="M308.267578125,394L308.267578125,399.5833333333333C308.267578125,405.1666666666667,308.267578125,416.3333333333333,308.39647623585216,426.5003951553437C308.5253743467044,436.66745697735405,308.7831705684088,445.83491395470804,308.912068679261,450.41864244338507L309.0409667901132,455.00237093206204"/><path marker-end="url(#my-svg_classDiagram-compositionEnd)" style="fill:none" class="edge-pattern-solid relation" id="id5" d="M240.9921875,197.5L240.9921875,204.83333333333334C240.9921875,212.16666666666666,240.9921875,226.83333333333334,243.27278355928195,237.3193118099028C245.55337961856387,247.80529028647229,250.1145717371277,254.1105805729445,252.39516779640965,257.26322571618067L254.6757638556916,260.41587085941677"/><path marker-end="url(#my-svg_classDiagram-dependencyEnd)" style="fill:none" class="edge-pattern-solid relation" id="id6" d="M380.7734375,208L380.7734375,213.58333333333334C380.7734375,219.16666666666666,380.7734375,230.33333333333334,377.0353389429227,240.71135731380699C373.2972403858455,251.08938129428066,365.821043271691,260.67876258856137,362.0829447146137,265.4734532357017L358.3448461575365,270.268143882842"/><path marker-start="url(#my-svg_classDiagram-compositionStart)" style="fill:none" class="edge-pattern-solid relation" id="id7" d="M533.419921875,380.5L533.419921875,388.3333333333333C533.419921875,396.1666666666667,533.419921875,411.8333333333333,514.3317057291666,427.64378161413856C495.2434895833333,443.4542298949438,457.0670572916667,459.40845978988756,437.9788411458333,467.3855747373595L418.890625,475.36268968483137"/><path marker-start="url(#my-svg_classDiagram-compositionStart)" style="fill:none" class="edge-pattern-solid relation" id="id8" d="M244.50887208619278,593.3015651604129L241.4396850718273,596.6679709670108C238.37049805746187,600.0343767736086,232.23212402873094,606.7671883868043,229.16293701436544,615.7169275267355C226.09375,624.6666666666666,226.09375,635.8333333333334,226.09375,641.4166666666666L226.09375,647"/><path marker-start="url(#my-svg_classDiagram-compositionStart)" style="fill:none" class="edge-pattern-solid relation" id="id9" d="M371.8245970597648,593.8445560003478L374.54653921647065,597.1204633336232C377.2684813731765,600.3963706668985,382.71236568658827,606.9481853334493,385.4343078432941,615.807426000058C388.15625,624.6666666666666,388.15625,635.8333333333334,388.15625,641.4166666666666L388.15625,647"/><path marker-start="url(#my-svg_classDiagram-compositionStart)" style="fill:none" class="edge-pattern-solid relation" id="id10" d="M435.715249554954,567.9693839768139L455.6709110874617,575.5578199806782C475.6265726199693,583.1462559845426,515.5378956849846,598.3231279922712,535.4935572174924,611.4948973294689C555.44921875,624.6666666666666,555.44921875,635.8333333333334,555.44921875,641.4166666666666L555.44921875,647"/><path marker-start="url(#my-svg_classDiagram-compositionStart)" style="fill:none" class="edge-pattern-solid relation" id="id11" d="M186.03075595360255,567.5373415554741L165.69750496133545,575.1977846295617C145.36425396906836,582.8582277036494,104.6977519845342,598.1791138518247,84.3645009922671,611.4228902592457C64.03125,624.6666666666666,64.03125,635.8333333333334,64.03125,641.4166666666666L64.03125,647"/><path marker-end="url(#my-svg_classDiagram-dependencyEnd)" style="fill:none" class="edge-pattern-solid relation" id="id12" d="M64.03125,745L64.03125,750.5833333333334C64.03125,756.1666666666666,64.03125,767.3333333333334,91.39911714388758,783.3377684901387C118.76698428777517,799.3422036469441,173.50271857555035,820.1844072938881,200.87058571943794,830.6055091173602L228.23845286332553,841.0266109408321"/><path marker-start="url(#my-svg_classDiagram-dependencyStart)" style="fill:none" class="edge-pattern-solid relation" id="id13" d="M226.09375,751L226.09375,755.5833333333334C226.09375,760.1666666666666,226.09375,769.3333333333334,231.0271249859991,779.5C235.9604999719982,789.6666666666666,245.8272499439964,800.8333333333334,250.76062492999552,806.4166666666666L255.69399991599462,812"/><path marker-start="url(#my-svg_classDiagram-dependencyStart)" style="fill:none" class="edge-pattern-solid relation" id="id14" d="M388.15625,751L388.15625,755.5833333333334C388.15625,760.1666666666666,388.15625,769.3333333333334,383.3600662942428,779.5C378.5638825884857,789.6666666666666,368.9715151769713,800.8333333333334,364.1753314712141,806.4166666666666L359.379147765457,812"/><path marker-start="url(#my-svg_classDiagram-dependencyStart)" style="fill:none" class="edge-pattern-solid relation" id="id15" d="M555.44921875,751L555.44921875,755.5833333333334C555.44921875,760.1666666666666,555.44921875,769.3333333333334,526.6559244791666,784.749899913346C497.8626302083333,800.1664664933587,440.2760416666667,821.8329329867174,411.4827473958333,832.6661662333968L382.689453125,843.4993994800761"/></g><g class="edgeLabels"><g class="edgeLabel"><g transform="translate(0, 0)" class="label"><rect height="0" width="0" ry="0" rx="0"/><text style=""><tspan class="row" x="0" dy="1em" xml:space="preserve"/></text></g></g><g transform="translate(533.419921875, 169.5)" class="edgeLabel"><g transform="translate(-49.2421875, -8.5)" class="label"><rect height="17.000282287597656" width="98.39578247070312" ry="0" rx="0"/><text style=""><tspan class="row" x="0" dy="1em" xml:space="preserve">Defines UI for</tspan></text></g></g><g transform="translate(461.9241918435779, 82.60585517073463)" class="edgeTerminals"><g transform="translate(-3.0625, -6)" class="inner"><text style=""><tspan class="row" x="0" dy="1em" xml:space="preserve">1</tspan></text></g></g><g transform="translate(543.4199209375, 283.9999991964286)" class="edgeTerminals"><g transform="translate(-3.0625, -6)" class="inner"/><text style=""><tspan class="row" x="0" dy="1em" xml:space="preserve">1</tspan></text></g><g transform="translate(240.9921875, 97.5)" class="edgeLabel"><g transform="translate(-69.640625, -8.5)" class="label"><rect height="17.000282287597656" width="139.15252685546875" ry="0" rx="0"/><text style=""><tspan class="row" x="0" dy="1em" xml:space="preserve">Defines structure of</tspan></text></g></g><g transform="translate(311.8219109537145, 52.6188474919861)" class="edgeTerminals"><g transform="translate(-3.0625, -6)" class="inner"><text style=""><tspan class="row" x="0" dy="1em" xml:space="preserve">1</tspan></text></g></g><g transform="translate(250.99218874999997, 119.00000107142857)" class="edgeTerminals"><g transform="translate(-3.0625, -6)" class="inner"/><text style=""><tspan class="row" x="0" dy="1em" xml:space="preserve">1</tspan></text></g><g transform="translate(308.267578125, 427.5)" class="edgeLabel"><g transform="translate(-34.96484375, -8.5)" class="label"><rect height="17.000282287597656" width="69.86750793457031" ry="0" rx="0"/><text style=""><tspan class="row" x="0" dy="1em" xml:space="preserve">Is input of</tspan></text></g></g><g transform="translate(293.2886699462655, 411.5177746664921)" class="edgeTerminals"><g transform="translate(-3.0625, -6)" class="inner"><text style=""><tspan class="row" x="0" dy="1em" xml:space="preserve">1</tspan></text></g></g><g transform="translate(318.7331679408436, 438.1028800086243)" class="edgeTerminals"><g transform="translate(-3.0625, -6)" class="inner"/><text style=""><tspan class="row" x="0" dy="1em" xml:space="preserve">1</tspan></text></g><g transform="translate(240.9921875, 241.5)" class="edgeLabel"><g transform="translate(-41.859375, -8.5)" class="label"><rect height="17.000282287597656" width="83.64723205566406" ry="0" rx="0"/><text style=""><tspan class="row" x="0" dy="1em" xml:space="preserve">wrapped by</tspan></text></g></g><g transform="translate(225.99218875000003, 215.00000107142858)" class="edgeTerminals"><g transform="translate(-3.0625, -6)" class="inner"><text style=""><tspan class="row" x="0" dy="1em" xml:space="preserve">1</tspan></text></g></g><g transform="translate(262.1222581428718, 247.02929050477354)" class="edgeTerminals"><g transform="translate(-3.0625, -6)" class="inner"/><text style=""><tspan class="row" x="0" dy="1em" xml:space="preserve">1</tspan></text></g><g transform="translate(380.7734375, 241.5)" class="edgeLabel"><g transform="translate(-22.234375, -8.5)" class="label"><rect height="17.000282287597656" width="44.438236236572266" ry="0" rx="0"/><text style=""><tspan class="row" x="0" dy="1em" xml:space="preserve">Feeds</tspan></text></g></g><g transform="translate(365.31759931217005, 224.94274604214942)" class="edgeTerminals"><g transform="translate(-3.0625, -6)" class="inner"><text style=""><tspan class="row" x="0" dy="1em" xml:space="preserve">1</tspan></text></g></g><g transform="translate(372.24528192429676, 265.4215331398227)" class="edgeTerminals"><g transform="translate(-3.0625, -6)" class="inner"/><text style=""><tspan class="row" x="0" dy="1em" xml:space="preserve">1</tspan></text></g><g transform="translate(533.419921875, 427.5)" class="edgeLabel"><g transform="translate(-31.125, -8.5)" class="label"><rect height="17.000282287597656" width="62.20415496826172" ry="0" rx="0"/><text style=""><tspan class="row" x="0" dy="1em" xml:space="preserve">Provides</tspan></text></g></g><g transform="translate(518.4199209375, 379.9999991964286)" class="edgeTerminals"><g transform="translate(-3.0625, -6)" class="inner"><text style=""><tspan class="row" x="0" dy="1em" xml:space="preserve">1</tspan></text></g></g><g transform="translate(435.8212103162092, 477.4548979248203)" class="edgeTerminals"><g transform="translate(-3.0625, -6)" class="inner"/><text style=""><tspan class="row" x="0" dy="1em" xml:space="preserve">1</tspan></text></g><g transform="translate(226.09375, 613.5)" class="edgeLabel"><g transform="translate(-30.2421875, -8.5)" class="label"><rect height="17.000282287597656" width="60.426353454589844" ry="0" rx="0"/><text style=""><tspan class="row" x="0" dy="1em" xml:space="preserve">Renders</tspan></text></g></g><g transform="translate(233.76110146063795, 582.8260953367748)" class="edgeTerminals"><g transform="translate(-3.0625, -6)" class="inner"><text style=""><tspan class="row" x="0" dy="1em" xml:space="preserve">1</tspan></text></g></g><g transform="translate(236.59265886973097, 625.1335976618998)" class="edgeTerminals"><g transform="translate(-9.1796875, -6)" class="inner"/><text style=""><tspan class="row" x="0" dy="1em" xml:space="preserve">0..1</tspan></text></g><g transform="translate(388.15625, 613.5)" class="edgeLabel"><g transform="translate(-30.2421875, -8.5)" class="label"><rect height="17.000282287597656" width="60.426353454589844" ry="0" rx="0"/><text style=""><tspan class="row" x="0" dy="1em" xml:space="preserve">Renders</tspan></text></g></g><g transform="translate(359.96792693125883, 603.0461533355287)" class="edgeTerminals"><g transform="translate(-3.0625, -6)" class="inner"><text style=""><tspan class="row" x="0" dy="1em" xml:space="preserve">1</tspan></text></g></g><g transform="translate(397.6712040468384, 624.2583610879576)" class="edgeTerminals"><g transform="translate(-9.1796875, -6)" class="inner"/><text style=""><tspan class="row" x="0" dy="1em" xml:space="preserve">0..1</tspan></text></g><g transform="translate(555.44921875, 613.5)" class="edgeLabel"><g transform="translate(-30.2421875, -8.5)" class="label"><rect height="17.000282287597656" width="60.426353454589844" ry="0" rx="0"/><text style=""><tspan class="row" x="0" dy="1em" xml:space="preserve">Renders</tspan></text></g></g><g transform="translate(429.91638746692837, 581.8121862923608)" class="edgeTerminals"><g transform="translate(-3.0625, -6)" class="inner"><text style=""><tspan class="row" x="0" dy="1em" xml:space="preserve">1</tspan></text></g></g><g transform="translate(564.735481879068, 624.3660002917092)" class="edgeTerminals"><g transform="translate(-9.1796875, -6)" class="inner"/><text style=""><tspan class="row" x="0" dy="1em" xml:space="preserve">0..1</tspan></text></g><g transform="translate(64.03125, 613.5)" class="edgeLabel"><g transform="translate(-30.2421875, -8.5)" class="label"><rect height="17.000282287597656" width="60.426353454589844" ry="0" rx="0"/><text style=""><tspan class="row" x="0" dy="1em" xml:space="preserve">Renders</tspan></text></g></g><g transform="translate(181.21033344925456, 553.3241969559035)" class="edgeTerminals"><g transform="translate(-3.0625, -6)" class="inner"><text style=""><tspan class="row" x="0" dy="1em" xml:space="preserve">1</tspan></text></g></g><g transform="translate(74.7203495305083, 625.60380958521)" class="edgeTerminals"><g transform="translate(-3.0625, -6)" class="inner"/><text style=""><tspan class="row" x="0" dy="1em" xml:space="preserve">1</tspan></text></g><g transform="translate(64.03125, 778.5)" class="edgeLabel"><g transform="translate(-23.125, -8.5)" class="label"><rect height="17.000282287597656" width="46.21951675415039" ry="0" rx="0"/><text style=""><tspan class="row" x="0" dy="1em" xml:space="preserve">Reads</tspan></text></g></g><g transform="translate(49.744862702386925, 762.6341983394121)" class="edgeTerminals"><g transform="translate(-3.0625, -6)" class="inner"><text style=""><tspan class="row" x="0" dy="1em" xml:space="preserve">1</tspan></text></g></g><g transform="translate(217.82902384379642, 817.9161699346728)" class="edgeTerminals"><g transform="translate(-3.0625, -6)" class="inner"/><text style=""><tspan class="row" x="0" dy="1em" xml:space="preserve">1</tspan></text></g><g transform="translate(226.09375, 778.5)" class="edgeLabel"><g transform="translate(-47.578125, -8.5)" class="label"><rect height="17.000282287597656" width="95.06497192382812" ry="0" rx="0"/><text style=""><tspan class="row" x="0" dy="1em" xml:space="preserve">Feeds Colors</tspan></text></g></g><g transform="translate(211.59652264366747, 762.7421411150417)" class="edgeTerminals"><g transform="translate(-3.0625, -6)" class="inner"><text style=""><tspan class="row" x="0" dy="1em" xml:space="preserve">1</tspan></text></g></g><g transform="translate(250.34717401038898, 783.9537473018705)" class="edgeTerminals"><g transform="translate(-3.0625, -6)" class="inner"/><text style=""><tspan class="row" x="0" dy="1em" xml:space="preserve">1</tspan></text></g><g transform="translate(388.15625, 778.5)" class="edgeLabel"><g transform="translate(-47.578125, -8.5)" class="label"><rect height="17.000282287597656" width="95.06497192382812" ry="0" rx="0"/><text style=""><tspan class="row" x="0" dy="1em" xml:space="preserve">Feeds Colors</tspan></text></g></g><g transform="translate(372.6735084709676, 761.8958092137223)" class="edgeTerminals"><g transform="translate(-3.0625, -6)" class="inner"><text style=""><tspan class="row" x="0" dy="1em" xml:space="preserve">1</tspan></text></g></g><g transform="translate(377.16063976316775, 803.4994783439489)" class="edgeTerminals"><g transform="translate(-3.0625, -6)" class="inner"/><text style=""><tspan class="row" x="0" dy="1em" xml:space="preserve">1</tspan></text></g><g transform="translate(555.44921875, 778.5)" class="edgeLabel"><g transform="translate(-47.578125, -8.5)" class="label"><rect height="17.000282287597656" width="95.06497192382812" ry="0" rx="0"/><text style=""><tspan class="row" x="0" dy="1em" xml:space="preserve">Feeds Colors</tspan></text></g></g><g transform="translate(539.7600094576359, 761.3957685911814)" class="edgeTerminals"><g transform="translate(-3.0625, -6)" class="inner"><text style=""><tspan class="row" x="0" dy="1em" xml:space="preserve">1</tspan></text></g></g><g transform="translate(399.3506468807308, 846.3761134102339)" class="edgeTerminals"><g transform="translate(-3.0625, -6)" class="inner"/><text style=""><tspan class="row" x="0" dy="1em" xml:space="preserve">1</tspan></text></g></g><g class="nodes"><g transform="translate(533.419921875, 334.5)" id="classId-PanelPlugin-0" class="node default"><rect height="56" width="106.578125" y="-28" x="-53.2890625" class="outer title-state"/><line y2="1" y1="1" x2="53.2890625" x1="-53.2890625" class="divider"/><line y2="17" y1="17" x2="53.2890625" x1="-53.2890625" class="divider"/><g class="label"><text style=""><tspan class="title-row" x="0" dy="1em" xml:space="preserve"/></text><text transform="translate( -45.7890625, -20.5)" class="classTitle" style=""><tspan class="title-row" x="0" dy="1em" xml:space="preserve">PanelPlugin</tspan></text></g></g><g transform="translate(308.267578125, 334.5)" id="classId-PanelProps-1" class="node default"><rect height="119" width="131.5" y="-59.5" x="-65.75" class="outer title-state"/><line y2="-30.5" y1="-30.5" x2="65.75" x1="-65.75" class="divider"/><line y2="48.5" y1="48.5" x2="65.75" x1="-65.75" class="divider"/><g class="label"><text style=""><tspan class="title-row" x="0" dy="1em" xml:space="preserve"/></text><text transform="translate( -58.25, -52)" class="classTitle" style=""><tspan class="title-row" x="0" dy="1em" xml:space="preserve">PanelProps&lt;T&gt;</tspan></text><text transform="translate( -58.25, -19)" style=""><tspan class="title-row" x="0" dy="1em" xml:space="preserve">Options options</tspan></text><text transform="translate( -58.25, 2)" style=""><tspan class="title-row" x="0" dy="1em" xml:space="preserve">data</tspan></text><text transform="translate( -58.25, 23)" style=""><tspan class="title-row" x="0" dy="1em" xml:space="preserve">...</tspan></text></g></g><g transform="translate(310.8828125, 520.5)" id="classId-CorePanel-2" class="node default"><rect height="119" width="216.015625" y="-59.5" x="-108.0078125" class="outer title-state"/><line y2="-9.5" y1="-9.5" x2="108.0078125" x1="-108.0078125" class="divider"/><line y2="48.5" y1="48.5" x2="108.0078125" x1="-108.0078125" class="divider"/><g class="label"><text transform="translate( -48.53125, -52)" style=""><tspan class="title-row" x="0" dy="1em" xml:space="preserve">«component»</tspan></text><text transform="translate( -39.5703125, -31)" class="classTitle" style=""><tspan class="title-row" x="0" dy="1em" xml:space="preserve">CorePanel</tspan></text><text transform="translate( -100.5078125, 2)" style=""><tspan class="title-row" x="0" dy="1em" xml:space="preserve">PanelProps&lt;Options&gt; props</tspan></text><text transform="translate( -100.5078125, 23)" style=""><tspan class="title-row" x="0" dy="1em" xml:space="preserve">systemState</tspan></text></g></g><g transform="translate(226.09375, 696)" id="classId-RegionView-3" class="node default"><rect height="98" width="112.0625" y="-49" x="-56.03125" class="outer title-state"/><line y2="1" y1="1" x2="56.03125" x1="-56.03125" class="divider"/><line y2="38" y1="38" x2="56.03125" x1="-56.03125" class="divider"/><g class="label"><text transform="translate( -48.53125, -41.5)" style=""><tspan class="title-row" x="0" dy="1em" xml:space="preserve">«component»</tspan></text><text transform="translate( -45.47265625, -20.5)" class="classTitle" style=""><tspan class="title-row" x="0" dy="1em" xml:space="preserve">RegionView</tspan></text><text transform="translate( -48.53125, 12.5)" style=""><tspan class="title-row" x="0" dy="1em" xml:space="preserve">systemState</tspan></text></g></g><g transform="translate(380.7734375, 169.5)" id="classId-DataSource-4" class="node default"><rect height="77" width="104.0234375" y="-38.5" x="-52.01171875" class="outer title-state"/><line y2="11.5" y1="11.5" x2="52.01171875" x1="-52.01171875" class="divider"/><line y2="27.5" y1="27.5" x2="52.01171875" x1="-52.01171875" class="divider"/><g class="label"><text transform="translate( -37.41015625, -31)" style=""><tspan class="title-row" x="0" dy="1em" xml:space="preserve">«external»</tspan></text><text transform="translate( -44.51171875, -10)" class="classTitle" style=""><tspan class="title-row" x="0" dy="1em" xml:space="preserve">DataSource</tspan></text></g></g><g transform="translate(388.15625, 696)" id="classId-TreeView-5" class="node default"><rect height="98" width="112.0625" y="-49" x="-56.03125" class="outer title-state"/><line y2="1" y1="1" x2="56.03125" x1="-56.03125" class="divider"/><line y2="38" y1="38" x2="56.03125" x1="-56.03125" class="divider"/><g class="label"><text transform="translate( -48.53125, -41.5)" style=""><tspan class="title-row" x="0" dy="1em" xml:space="preserve">«component»</tspan></text><text transform="translate( -34.8203125, -20.5)" class="classTitle" style=""><tspan class="title-row" x="0" dy="1em" xml:space="preserve">TreeView</tspan></text><text transform="translate( -48.53125, 12.5)" style=""><tspan class="title-row" x="0" dy="1em" xml:space="preserve">systemState</tspan></text></g></g><g transform="translate(555.44921875, 696)" id="classId-TopologyView-6" class="node default"><rect height="98" width="122.5234375" y="-49" x="-61.26171875" class="outer title-state"/><line y2="1" y1="1" x2="61.26171875" x1="-61.26171875" class="divider"/><line y2="38" y1="38" x2="61.26171875" x1="-61.26171875" class="divider"/><g class="label"><text transform="translate( -48.53125, -41.5)" style=""><tspan class="title-row" x="0" dy="1em" xml:space="preserve">«component»</tspan></text><text transform="translate( -53.76171875, -20.5)" class="classTitle" style=""><tspan class="title-row" x="0" dy="1em" xml:space="preserve">TopologyView</tspan></text><text transform="translate( -53.76171875, 12.5)" style=""><tspan class="title-row" x="0" dy="1em" xml:space="preserve">systemState</tspan></text></g></g><g transform="translate(136.943359375, 334.5)" id="classId-SystemState-7" class="node default"><rect height="77" width="111.1484375" y="-38.5" x="-55.57421875" class="outer title-state"/><line y2="-9.5" y1="-9.5" x2="55.57421875" x1="-55.57421875" class="divider"/><line y2="27.5" y1="27.5" x2="55.57421875" x1="-55.57421875" class="divider"/><g class="label"><text style=""><tspan class="title-row" x="0" dy="1em" xml:space="preserve"/></text><text transform="translate( -48.07421875, -31)" class="classTitle" style=""><tspan class="title-row" x="0" dy="1em" xml:space="preserve">SystemState</tspan></text><text transform="translate( -48.07421875, 2)" style=""><tspan class="title-row" x="0" dy="1em" xml:space="preserve">balancers[]</tspan></text></g></g><g transform="translate(64.03125, 696)" id="classId-Legend-8" class="node default"><rect height="98" width="112.0625" y="-49" x="-56.03125" class="outer title-state"/><line y2="1" y1="1" x2="56.03125" x1="-56.03125" class="divider"/><line y2="38" y1="38" x2="56.03125" x1="-56.03125" class="divider"/><g class="label"><text transform="translate( -48.53125, -41.5)" style=""><tspan class="title-row" x="0" dy="1em" xml:space="preserve">«component»</tspan></text><text transform="translate( -28.4453125, -20.5)" class="classTitle" style=""><tspan class="title-row" x="0" dy="1em" xml:space="preserve">Legend</tspan></text><text transform="translate( -48.53125, 12.5)" style=""><tspan class="title-row" x="0" dy="1em" xml:space="preserve">systemState</tspan></text></g></g><g transform="translate(308.267578125, 871.5)" id="classId-ColorProvider-9" class="node default"><rect height="119" width="148.84375" y="-59.5" x="-74.421875" class="outer title-state"/><line y2="-30.5" y1="-30.5" x2="74.421875" x1="-74.421875" class="divider"/><line y2="6.5" y1="6.5" x2="74.421875" x1="-74.421875" class="divider"/><g class="label"><text style=""><tspan class="title-row" x="0" dy="1em" xml:space="preserve"/></text><text transform="translate( -53.34375, -52)" class="classTitle" style=""><tspan class="title-row" x="0" dy="1em" xml:space="preserve">ColorProvider</tspan></text><text transform="translate( -66.921875, -19)" style=""><tspan class="title-row" x="0" dy="1em" xml:space="preserve">assignments</tspan></text><text transform="translate( -66.921875, 14)" style=""><tspan class="title-row" x="0" dy="1em" xml:space="preserve">+assign()</tspan></text><text transform="translate( -66.921875, 35)" style=""><tspan class="title-row" x="0" dy="1em" xml:space="preserve">+getAssignments()</tspan></text></g></g><g transform="translate(392.787109375, 36)" id="classId-PanelOptions-10" class="node default"><rect height="56" width="118.2265625" y="-28" x="-59.11328125" class="outer title-state"/><line y2="1" y1="1" x2="59.11328125" x1="-59.11328125" class="divider"/><line y2="17" y1="17" x2="59.11328125" x1="-59.11328125" class="divider"/><g class="label"><text style=""><tspan class="title-row" x="0" dy="1em" xml:space="preserve"/></text><text transform="translate( -51.61328125, -20.5)" class="classTitle" style=""><tspan class="title-row" x="0" dy="1em" xml:space="preserve">PanelOptions</tspan></text></g></g><g transform="translate(240.9921875, 169.5)" id="classId-Options-11" class="node default"><rect height="56" width="75.5390625" y="-28" x="-37.76953125" class="outer title-state"/><line y2="1" y1="1" x2="37.76953125" x1="-37.76953125" class="divider"/><line y2="17" y1="17" x2="37.76953125" x1="-37.76953125" class="divider"/><g class="label"><text style=""><tspan class="title-row" x="0" dy="1em" xml:space="preserve"/></text><text transform="translate( -30.26953125, -20.5)" class="classTitle" style=""><tspan class="title-row" x="0" dy="1em" xml:space="preserve">Options</tspan></text></g></g></g></g></g></svg>