<?xml version="1.0" encoding="us-ascii" standalone="no"?><svg xmlns="http://www.w3.org/2000/svg" xmlns:xlink="http://www.w3.org/1999/xlink" contentStyleType="text/css" height="457px" preserveAspectRatio="none" style="width:621px;height:457px;background:#FFFFFF;" version="1.1" viewBox="0 0 621 457" width="621px" zoomAndPan="magnify"><defs/><g><!--cluster fly--><g id="cluster_fly"><path d="M35.187,35.5349 C44.093,21.6125 55.8455,18.7427 65.7923,34.4602 C70.6799,21.5113 83.7607,16.9874 93.3372,29.3594 C101.1203,16.0782 114.2808,16.7239 122.2341,29.1683 C132.2168,13.2057 144.9315,11.8662 154.9765,29.1068 C162.6084,13.9244 176.0174,14.6433 185.4111,27.1718 C192.4535,12.6542 202.4819,7.7716 215.1446,21.19 C225.7683,6 236.1351,8.8709 245.5224,22.4936 C253.3108,8.4787 265.7988,7.9107 273.4583,22.619 C286.1606,8.7074 297.3687,11.9658 305.044,27.9332 C313.167,14.1981 323.2552,11.5754 333.2954,26.0104 C341.3469,12.1688 353.8388,15.0706 361.3151,26.6445 C373.126,14.1331 386.4322,14.7944 392.3359,32.6741 C398.3507,15.9051 412.3292,18.0705 421.6453,29.2067 C437.5349,16.5077 448.8453,18.73 457.4854,37.4708 C459.9691,36.8069 461.6687,38.3142 461.1398,40.8797 C477.8407,50.4588 476.3446,62.2049 461.007,71.6457 C474.0088,79.541 476.3723,92.7892 461.8086,101.4264 C480.1311,111.8067 479.9307,124.468 461.8542,134.8979 C478.9842,145.4753 475.034,160.5298 459.3461,168.6701 C474.0725,179.0069 474.0555,188.7291 459.1557,198.8791 C473.2686,204.7881 477.9453,219.5618 464.796,230.3559 C481.0043,241.5404 479.2697,256.4583 460.3794,262.8759 C476.4317,272.2979 476.3908,286.68 458.7765,294.3897 C476.4558,303.513 474.219,316.527 459.4028,326.2882 C475.5626,335.2412 476.5037,345.8741 461.6104,357.0553 C475.4285,367.5389 479.5904,380.0683 461.283,390.2349 C476.4699,407.3839 471.1839,419.3047 450.4854,425.4508 C454.5609,424.0745 457.0206,426.8131 455.889,430.7482 C446.5797,446.893 435.6328,446.2929 425.7699,431.2834 C415.4913,446.9782 399.4441,445.4944 392.3722,428.0515 C384.8721,442.2401 370.5511,442.3641 362.8448,428.2667 C355.2472,443.0262 341.5837,444.213 331.5709,430.9635 C325.5332,444.5891 315.5707,445.0177 305.8224,435.0055 C296.2496,449.1535 283.0372,450.1425 273.4418,435.0305 C262.3703,449.2433 249.7746,449.3832 240.6066,432.9885 C234.0697,446.9724 220.6993,449.221 212.7834,434.3167 C203.709,446.6318 192.4054,448.0369 182.81,434.931 C173.0668,449.7638 159.5153,443.9571 153.7336,430.8137 C146.1645,443.6623 133.8502,448.9771 123.7512,433.4907 C113.594,446.1085 100.863,445.9524 93.906,430.1321 C84.3939,442.8187 73.6983,442.1281 65.0636,429.1462 C45.5745,447.1361 32.9929,439.2643 23.4854,418.4508 C25.9155,417.4079 27.8993,418.4032 28.0238,421.1859 C11.1907,411.1183 8.555,400.1676 25.7672,387.7988 C11.4315,377.7341 10.5578,365.4054 25.926,355.4867 C14.3071,345.675 14.774,337.4764 27.1787,328.7921 C11.1291,318.2651 9.5082,303.9666 26.0552,292.4324 C9.5821,284.2808 10.8903,274.8566 23.1608,263.7994 C7.3738,253.8894 8.5761,238.9321 25.3277,231.184 C6,221.0749 6.2562,208.5492 23.6597,196.6651 C10.1139,186.4232 9.4132,175.5596 22.9746,164.736 C10.4755,155.8751 11.1266,142.3806 24.6169,134.9528 C11.3885,127.8628 10.535,113.0091 22.4879,104.1772 C10.92,92.7979 11.6182,81.595 26.9528,74.2261 C9.975,60.6096 11.8765,41.2142 30.4854,30.4708 C34.6494,29.6565 35.9291,31.7944 35.187,35.5349 " fill="none" style="stroke:#181818;stroke-width:1.0;"/><text fill="#000000" font-family="sans-serif" font-size="14" font-weight="bold" lengthAdjust="spacing" textLength="19" x="230.9854" y="49.006">fly</text></g><!--cluster Prometheus--><g id="cluster_Prometheus"><polygon fill="none" points="271.4854,211.9608,281.4854,201.9608,433.4854,201.9608,433.4854,281.9608,423.4854,291.9608,271.4854,291.9608,271.4854,211.9608" style="stroke:#181818;stroke-width:1.0;"/><line style="stroke:#181818;stroke-width:1.0;" x1="423.4854" x2="433.4854" y1="211.9608" y2="201.9608"/><line style="stroke:#181818;stroke-width:1.0;" x1="271.4854" x2="423.4854" y1="211.9608" y2="211.9608"/><line style="stroke:#181818;stroke-width:1.0;" x1="423.4854" x2="423.4854" y1="211.9608" y2="291.9608"/><text fill="#000000" font-family="sans-serif" font-size="14" font-weight="bold" lengthAdjust="spacing" textLength="86" x="305.4854" y="228.496">Prometheus</text></g><!--cluster ott-prod--><g id="cluster_ott-prod"><rect fill="none" height="343.98" rx="2.5" ry="2.5" style="stroke:#181818;stroke-width:1.0;" width="197" x="39.4854" y="65.4708"/><path d="M112.4854,65.4708 L112.4854,74.9591 L102.4854,84.9591 L39.4854,84.9591 " fill="none" style="stroke:#181818;stroke-width:1.0;"/><text fill="#000000" font-family="sans-serif" font-size="14" font-weight="bold" lengthAdjust="spacing" textLength="63" x="42.4854" y="80.006">ott-prod</text></g><!--cluster self-hosted--><g id="cluster_self-hosted"><rect fill="none" height="97.49" rx="2.5" ry="2.5" style="stroke:#181818;stroke-width:1.0;" width="126" x="489.4854" y="200.7208"/><path d="M584.4854,200.7208 L584.4854,210.2091 L574.4854,220.2091 L489.4854,220.2091 " fill="none" style="stroke:#181818;stroke-width:1.0;"/><text fill="#000000" font-family="sans-serif" font-size="14" font-weight="bold" lengthAdjust="spacing" textLength="85" x="492.4854" y="215.256">self-hosted</text></g><!--entity PromQL--><g id="elem_PromQL"><ellipse cx="400.4854" cy="258.9608" fill="#F1F1F1" rx="8" ry="8" style="stroke:#181818;stroke-width:0.5;"/><text fill="#000000" font-family="sans-serif" font-size="14" lengthAdjust="spacing" textLength="54" x="373.4854" y="289.496">PromQL</text></g><!--entity b0--><g id="elem_b0"><rect fill="#F1F1F1" height="46.4883" rx="2.5" ry="2.5" style="stroke:#181818;stroke-width:0.5;" width="111" x="108.9854" y="100.4708"/><rect fill="#F1F1F1" height="10" style="stroke:#181818;stroke-width:0.5;" width="15" x="199.9854" y="105.4708"/><rect fill="#F1F1F1" height="2" style="stroke:#181818;stroke-width:0.5;" width="4" x="197.9854" y="107.4708"/><rect fill="#F1F1F1" height="2" style="stroke:#181818;stroke-width:0.5;" width="4" x="197.9854" y="111.4708"/><text fill="#000000" font-family="sans-serif" font-size="14" lengthAdjust="spacing" textLength="71" x="123.9854" y="134.006">Balancer 0</text></g><!--entity b1--><g id="elem_b1"><rect fill="#F1F1F1" height="46.4883" rx="2.5" ry="2.5" style="stroke:#181818;stroke-width:0.5;" width="111" x="55.9854" y="235.7208"/><rect fill="#F1F1F1" height="10" style="stroke:#181818;stroke-width:0.5;" width="15" x="146.9854" y="240.7208"/><rect fill="#F1F1F1" height="2" style="stroke:#181818;stroke-width:0.5;" width="4" x="144.9854" y="242.7208"/><rect fill="#F1F1F1" height="2" style="stroke:#181818;stroke-width:0.5;" width="4" x="144.9854" y="246.7208"/><text fill="#000000" font-family="sans-serif" font-size="14" lengthAdjust="spacing" textLength="71" x="70.9854" y="269.256">Balancer 1</text></g><!--entity bn--><g id="elem_bn"><rect fill="#F1F1F1" height="46.4883" rx="2.5" ry="2.5" style="stroke:#181818;stroke-width:0.5;" width="111" x="108.9854" y="346.9608"/><rect fill="#F1F1F1" height="10" style="stroke:#181818;stroke-width:0.5;" width="15" x="199.9854" y="351.9608"/><rect fill="#F1F1F1" height="2" style="stroke:#181818;stroke-width:0.5;" width="4" x="197.9854" y="353.9608"/><rect fill="#F1F1F1" height="2" style="stroke:#181818;stroke-width:0.5;" width="4" x="197.9854" y="357.9608"/><text fill="#000000" font-family="sans-serif" font-size="14" lengthAdjust="spacing" textLength="71" x="123.9854" y="380.496">Balancer n</text></g><!--entity HTTP--><g id="elem_HTTP"><ellipse cx="211.4854" cy="258.9608" fill="#F1F1F1" rx="8" ry="8" style="stroke:#181818;stroke-width:0.5;"/><text fill="#000000" font-family="sans-serif" font-size="14" lengthAdjust="spacing" textLength="36" x="193.4854" y="289.496">HTTP</text></g><!--entity Grafana--><g id="elem_Grafana"><polygon fill="#F1F1F1" points="505.4854,245.7208,515.4854,235.7208,599.4854,235.7208,599.4854,272.2091,589.4854,282.2091,505.4854,282.2091,505.4854,245.7208" style="stroke:#181818;stroke-width:0.5;"/><line style="stroke:#181818;stroke-width:0.5;" x1="589.4854" x2="599.4854" y1="245.7208" y2="235.7208"/><line style="stroke:#181818;stroke-width:0.5;" x1="505.4854" x2="589.4854" y1="245.7208" y2="245.7208"/><line style="stroke:#181818;stroke-width:0.5;" x1="589.4854" x2="589.4854" y1="245.7208" y2="282.2091"/><text fill="#000000" font-family="sans-serif" font-size="14" lengthAdjust="spacing" textLength="54" x="520.4854" y="269.256">Grafana</text></g><!--reverse link b0 to HTTP--><g id="link_b0_HTTP"><path d="M174.5354,153.2108 C185.3354,183.8308 201.8454,230.6408 208.5254,249.5708 " fill="none" id="b0-backto-HTTP" style="stroke:#181818;stroke-width:1.0;"/><polygon fill="#181818" points="172.9654,148.7508,172.2028,158.5701,174.6362,153.4634,179.743,155.8968,172.9654,148.7508" style="stroke:#181818;stroke-width:1.0;"/></g><!--reverse link b1 to HTTP--><g id="link_b1_HTTP"><path d="M173.6054,258.9608 C183.1254,258.9608 192.6554,258.9608 202.1754,258.9608 " fill="none" id="b1-backto-HTTP" style="stroke:#181818;stroke-width:1.0;"/><polygon fill="#181818" points="168.8554,258.9608,177.8554,262.9608,173.8554,258.9608,177.8554,254.9608,168.8554,258.9608" style="stroke:#181818;stroke-width:1.0;"/></g><!--link HTTP to bn--><g id="link_HTTP_bn"><path d="M207.9554,268.1708 C201.4154,283.3608 187.1654,316.4908 176.7554,340.6908 " fill="none" id="HTTP-to-bn" style="stroke:#181818;stroke-width:1.0;"/><polygon fill="#181818" points="174.7954,345.2408,182.0248,338.5523,176.7702,340.6473,174.6752,335.3927,174.7954,345.2408" style="stroke:#181818;stroke-width:1.0;"/></g><!--link Grafana to PromQL--><g id="link_Grafana_PromQL"><path d="M505.2654,258.9608 C474.6354,258.9608 436.6854,258.9608 415.8954,258.9608 " fill="none" id="Grafana-to-PromQL" style="stroke:#181818;stroke-width:1.0;"/><polygon fill="#181818" points="411.0554,258.9608,420.0554,262.9608,416.0554,258.9608,420.0554,254.9608,411.0554,258.9608" style="stroke:#181818;stroke-width:1.0;"/><text fill="#000000" font-family="sans-serif" font-size="13" lengthAdjust="spacing" textLength="46" x="434.4854" y="252.5292">queries</text></g><!--link Prometheus to HTTP--><g id="link_Prometheus_HTTP"><path d="M270.8972,258.9608 C267.5154,258.9608 264.173,258.9608 260.9006,258.9608 C247.8111,258.9608 235.8429,258.9608 226.9654,258.9608 " fill="none" id="Prometheus-to-HTTP" style="stroke:#181818;stroke-width:1.0;"/><polygon fill="#181818" points="222.0654,258.9608,231.0654,262.9608,227.0654,258.9608,231.0654,254.9608,222.0654,258.9608" style="stroke:#181818;stroke-width:1.0;"/><text fill="#000000" font-family="sans-serif" font-size="13" lengthAdjust="spacing" textLength="99" x="238.8054" y="252.5292">scrapes metrics</text></g><!--SRC=[NP0z2iCm38Ltdq8NC2HhXWvTsg532jbA1zMHIS2nKzaPIidTwvyKGWm2yJrPUf8oRkb1cmzyXG2mhYTesKqK1bfyX13VQ0EnHbMa-ot2DOPcd0XS279crs-rZpCQj8eOgYUWXrTrm7N1zG7RWkrXuBNhsenI0dAHft_70am2zGxq2TZiS1MYMFHaj1oS3rHSvYqlZ1ejfgejXVYrB0WDl1VYaRpO7IFAUKO3NZ7Ev24gF2h_0m00]--></g></svg>