<?xml version="1.0" encoding="us-ascii" standalone="no"?><svg xmlns="http://www.w3.org/2000/svg" xmlns:xlink="http://www.w3.org/1999/xlink" contentStyleType="text/css" height="460px" preserveAspectRatio="none" style="width:631px;height:460px;background:#FFFFFF;" version="1.1" viewBox="0 0 631 460" width="631px" zoomAndPan="magnify"><defs/><g><!--cluster fly--><g id="cluster_fly"><path d="M38.4685,33.5815 C47.1815,17.8252 57.4708,18.3767 69.1956,30.2297 C75.3662,17.0927 84.7296,16.0722 94.5559,26.2539 C104.2793,9.3185 115.7286,10.9693 127.0062,24.6042 C136.8772,7.9075 149.5629,8.0636 160.7985,23.1536 C171.4325,8.4826 180.9726,9.7347 191.1725,23.6154 C201.0863,8.2532 212.5659,9.3835 221.048,24.9963 C227.9489,10.8064 240.2737,9.0362 249.6408,22.4409 C257.7866,6 269.2734,6.8504 279.9702,19.8093 C290.9924,8.2525 305.5233,9.0018 311.47,25.5067 C319.8076,13.6018 331.7688,12.6484 340.5902,24.924 C353.3492,8.8943 367.1011,11.6804 375.7784,29.2046 C384.0457,18.9694 396.5376,19.6951 402.8585,31.5868 C411.8184,15.6354 425.4997,16.474 433.5542,32.457 C445.174,17.3492 460.6906,19.7196 469.0963,36.0865 C473.2673,35.5565 474.9369,37.7164 473.7982,41.6632 C485.786,49.4322 487.0989,59.7028 474.2247,67.8763 C490.622,78.8023 489.7578,95.2351 471.718,103.7552 C489.1436,112.5907 487.8081,122.5368 476.1325,135.4284 C491.1567,144.9288 490.4466,155.6575 476.6682,165.6682 C488.2212,174.0533 489.2622,187.5719 475.0941,194.5554 C493.2826,203.8611 493.8626,218.9515 476.7154,229.879 C492.1841,238.4429 491.5133,250.6188 476.17,258.5976 C493.7414,269.1346 489.7546,282.8867 474.6441,291.9274 C486.4242,303.0877 489.7406,312.7421 472.7973,322.1469 C492.3686,332.5106 493.3041,343.6924 475.4673,356.9278 C492.1258,367.2375 489.7219,380.2291 473.7583,388.7891 C486.021,406.1372 481.0959,416.3684 462.0963,423.0865 C464.7655,422.0095 465.9469,423.6339 465.6608,426.0781 C457.2986,440.4057 446.3723,441.1583 436.4387,427.7326 C427.2269,441.579 416.5049,443.2534 406.2541,428.8424 C396.3036,441.3846 385.7678,441.6174 375.8599,428.7914 C368.3444,445.9936 355.0492,448.4411 342.7294,433.7879 C333.7115,450.5452 324.4187,451.4852 312.3584,436.7191 C300.6804,452.0934 288.4094,450.7808 279.9146,433.5515 C273.3466,449.5791 257.8911,449.6477 248.5336,436.558 C239.1835,447.7977 229.9765,449.343 221.4805,435.6319 C213.2419,452.2256 196.4132,453.4485 187.4045,436.4124 C176.6122,450.6873 165.1981,448.2597 157.5091,433.2449 C148.7568,446.0624 138.6774,445.435 130.7424,432.3988 C118.9059,445.4806 107.7792,444.5746 99.1025,428.9198 C89.4697,444.7507 79.1597,446.4269 68.3692,430.0235 C50.5398,447.1681 29.6963,442.1014 26.0963,416.0865 C29.1496,415.6785 31.4661,417.6881 30.0174,420.927 C12.9211,412.8372 13.0714,398.172 27.5382,387.7253 C12.3632,380.6498 11.0911,366.8998 26.1219,358.367 C9.8949,347.9795 8.8666,335.282 25.2833,324.0958 C10.4369,313.8275 12.3535,297.5269 28.405,290.0955 C13.443,282.3405 11.013,273.1673 23.6921,260.9436 C6,250.9259 7.7403,238.2863 23.7812,228.3608 C10.7326,219.0669 12.6246,203.6086 26.3245,196.4463 C11.8117,187.6886 10.9411,176.5968 24.5148,166.1608 C9.6003,153.0926 9.8646,141.0948 29.0877,132.6907 C15.4525,126.4101 13.3169,113.999 25.904,104.7325 C9.4485,94.2161 10.6366,81.8253 26.373,71.7669 C6.1354,56.208 11.7779,38.0992 33.0963,29.0865 C36.688,28.253 38.9446,29.5534 38.4685,33.5815 " fill="none" style="stroke:#181818;stroke-width:1.0;"/><text fill="#000000" font-family="sans-serif" font-size="14" font-weight="bold" lengthAdjust="spacing" textLength="19" x="238.0963" y="47.0816">fly</text></g><!--cluster Prometheus--><g id="cluster_Prometheus"><polygon fill="none" points="273.0963,210.0865,283.0963,200.0865,445.0963,200.0865,445.0963,280.0865,435.0963,290.0865,273.0963,290.0865,273.0963,210.0865" style="stroke:#181818;stroke-width:1.0;"/><line style="stroke:#181818;stroke-width:1.0;" x1="435.0963" x2="445.0963" y1="210.0865" y2="200.0865"/><line style="stroke:#181818;stroke-width:1.0;" x1="273.0963" x2="435.0963" y1="210.0865" y2="210.0865"/><line style="stroke:#181818;stroke-width:1.0;" x1="435.0963" x2="435.0963" y1="210.0865" y2="290.0865"/><text fill="#000000" font-family="sans-serif" font-size="14" font-weight="bold" lengthAdjust="spacing" textLength="96" x="307.0963" y="226.0816">Prometheus</text></g><!--cluster ott-prod--><g id="cluster_ott-prod"><rect fill="none" height="343" rx="2.5" ry="2.5" style="stroke:#181818;stroke-width:1.0;" width="199" x="42.0963" y="64.0865"/><path d="M117.0963,64.0865 L117.0963,73.3833 L107.0963,83.3833 L42.0963,83.3833 " fill="none" style="stroke:#181818;stroke-width:1.0;"/><text fill="#000000" font-family="sans-serif" font-size="14" font-weight="bold" lengthAdjust="spacing" textLength="65" x="45.0963" y="78.0816">ott-prod</text></g><!--cluster self-hosted--><g id="cluster_self-hosted"><rect fill="none" height="97" rx="2.5" ry="2.5" style="stroke:#181818;stroke-width:1.0;" width="124" x="501.0963" y="199.0865"/><path d="M601.0963,199.0865 L601.0963,208.3833 L591.0963,218.3833 L501.0963,218.3833 " fill="none" style="stroke:#181818;stroke-width:1.0;"/><text fill="#000000" font-family="sans-serif" font-size="14" font-weight="bold" lengthAdjust="spacing" textLength="90" x="504.0963" y="213.0816">self-hosted</text></g><!--entity PromQL--><g id="elem_PromQL"><ellipse cx="412.0963" cy="257.0865" fill="#F1F1F1" rx="8" ry="8" style="stroke:#181818;stroke-width:0.5;"/><text fill="#000000" font-family="sans-serif" font-size="14" lengthAdjust="spacing" textLength="54" x="385.0963" y="287.0816">PromQL</text></g><!--entity b0--><g id="elem_b0"><rect fill="#F1F1F1" height="46.2969" rx="2.5" ry="2.5" style="stroke:#181818;stroke-width:0.5;" width="113" x="111.5963" y="99.0865"/><rect fill="#F1F1F1" height="10" style="stroke:#181818;stroke-width:0.5;" width="15" x="204.5963" y="104.0865"/><rect fill="#F1F1F1" height="2" style="stroke:#181818;stroke-width:0.5;" width="4" x="202.5963" y="106.0865"/><rect fill="#F1F1F1" height="2" style="stroke:#181818;stroke-width:0.5;" width="4" x="202.5963" y="110.0865"/><text fill="#000000" font-family="sans-serif" font-size="14" lengthAdjust="spacing" textLength="73" x="126.5963" y="132.0816">Balancer 0</text></g><!--entity b1--><g id="elem_b1"><rect fill="#F1F1F1" height="46.2969" rx="2.5" ry="2.5" style="stroke:#181818;stroke-width:0.5;" width="113" x="58.5963" y="234.0865"/><rect fill="#F1F1F1" height="10" style="stroke:#181818;stroke-width:0.5;" width="15" x="151.5963" y="239.0865"/><rect fill="#F1F1F1" height="2" style="stroke:#181818;stroke-width:0.5;" width="4" x="149.5963" y="241.0865"/><rect fill="#F1F1F1" height="2" style="stroke:#181818;stroke-width:0.5;" width="4" x="149.5963" y="245.0865"/><text fill="#000000" font-family="sans-serif" font-size="14" lengthAdjust="spacing" textLength="73" x="73.5963" y="267.0816">Balancer 1</text></g><!--entity bn--><g id="elem_bn"><rect fill="#F1F1F1" height="46.2969" rx="2.5" ry="2.5" style="stroke:#181818;stroke-width:0.5;" width="113" x="111.5963" y="345.0865"/><rect fill="#F1F1F1" height="10" style="stroke:#181818;stroke-width:0.5;" width="15" x="204.5963" y="350.0865"/><rect fill="#F1F1F1" height="2" style="stroke:#181818;stroke-width:0.5;" width="4" x="202.5963" y="352.0865"/><rect fill="#F1F1F1" height="2" style="stroke:#181818;stroke-width:0.5;" width="4" x="202.5963" y="356.0865"/><text fill="#000000" font-family="sans-serif" font-size="14" lengthAdjust="spacing" textLength="73" x="126.5963" y="378.0816">Balancer n</text></g><!--entity HTTP--><g id="elem_HTTP"><ellipse cx="216.0963" cy="257.0865" fill="#F1F1F1" rx="8" ry="8" style="stroke:#181818;stroke-width:0.5;"/><text fill="#000000" font-family="sans-serif" font-size="14" lengthAdjust="spacing" textLength="37" x="197.5963" y="287.0816">HTTP</text></g><!--entity Grafana--><g id="elem_Grafana"><polygon fill="#F1F1F1" points="516.5963,244.0865,526.5963,234.0865,609.5963,234.0865,609.5963,270.3833,599.5963,280.3833,516.5963,280.3833,516.5963,244.0865" style="stroke:#181818;stroke-width:0.5;"/><line style="stroke:#181818;stroke-width:0.5;" x1="599.5963" x2="609.5963" y1="244.0865" y2="234.0865"/><line style="stroke:#181818;stroke-width:0.5;" x1="516.5963" x2="599.5963" y1="244.0865" y2="244.0865"/><line style="stroke:#181818;stroke-width:0.5;" x1="599.5963" x2="599.5963" y1="244.0865" y2="280.3833"/><text fill="#000000" font-family="sans-serif" font-size="14" lengthAdjust="spacing" textLength="53" x="531.5963" y="267.0816">Grafana</text></g><!--reverse link b0 to HTTP--><g id="link_b0_HTTP"><path d="M177.8463,150.1065 C188.9063,180.7565 206.2963,228.9465 213.1663,247.9665 " fill="none" id="b0-backto-HTTP" style="stroke:#181818;stroke-width:1.0;"/><polygon fill="#181818" points="176.1263,145.3465,175.426,155.1704,177.827,150.0483,182.9491,152.4493,176.1263,145.3465" style="stroke:#181818;stroke-width:1.0;"/></g><!--reverse link b1 to HTTP--><g id="link_b1_HTTP"><path d="M177.0863,257.0865 C186.9863,257.0865 196.8763,257.0865 206.7763,257.0865 " fill="none" id="b1-backto-HTTP" style="stroke:#181818;stroke-width:1.0;"/><polygon fill="#181818" points="171.9063,257.0865,180.9063,261.0865,176.9063,257.0865,180.9063,253.0865,171.9063,257.0865" style="stroke:#181818;stroke-width:1.0;"/></g><!--link HTTP to bn--><g id="link_HTTP_bn"><path d="M212.4863,266.2765 C205.6663,281.7865 190.5863,316.0265 179.8963,340.2865 " fill="none" id="HTTP-to-bn" style="stroke:#181818;stroke-width:1.0;"/><polygon fill="#181818" points="177.8263,345.0065,185.1157,338.3834,179.8424,340.4309,177.7949,335.1577,177.8263,345.0065" style="stroke:#181818;stroke-width:1.0;"/></g><!--link Grafana to PromQL--><g id="link_Grafana_PromQL"><path d="M516.5463,257.0865 C485.6563,257.0865 447.1463,257.0865 426.5963,257.0865 " fill="none" id="Grafana-to-PromQL" style="stroke:#181818;stroke-width:1.0;"/><polygon fill="#181818" points="421.5463,257.0865,430.5463,261.0865,426.5463,257.0865,430.5463,253.0865,421.5463,257.0865" style="stroke:#181818;stroke-width:1.0;"/><text fill="#000000" font-family="sans-serif" font-size="13" lengthAdjust="spacing" textLength="47" x="445.3463" y="250.1534">queries</text></g><!--link Prometheus to HTTP--><g id="link_Prometheus_HTTP"><path d="M272.714,257.0865 C271.8493,257.0865 270.988,257.0865 270.1306,257.0865 C268.4157,257.0865 266.7163,257.0865 265.0365,257.0865 C251.5976,257.0865 239.4088,257.0865 230.5563,257.0865 " fill="none" id="Prometheus-to-HTTP" style="stroke:#181818;stroke-width:1.0;"/><polygon fill="#181818" points="225.3563,257.0865,234.3563,261.0865,230.3563,257.0865,234.3563,253.0865,225.3563,257.0865" style="stroke:#181818;stroke-width:1.0;"/><text fill="#000000" font-family="sans-serif" font-size="13" lengthAdjust="spacing" textLength="102" x="243.4163" y="250.1534">scrapes metrics</text></g><!--SRC=[NP0z2iCm38Ltdq8NC2HhXWvTsg532jbA1zMHIS2nKzaPIidTwvyKGWm2yJrPUf8oRkb1cmzyXG2mhYTesKqK1bfyX13VQ0EnHbMa-ot2DOPcd0XS279crs-rZpCQj8eOgYUWXrTrm7N1zG7RWkrXuBNhsenI0dAHft_70am2zGxq2TZiS1MYMFHaj1oS3rHSvYqlZ1ejfgejXVYrB0WDl1VYaRpO7IFAUKO3NZ7Ev24gF2h_0m00]--></g></svg>