<?xml version="1.0" encoding="us-ascii" standalone="no"?><svg xmlns="http://www.w3.org/2000/svg" xmlns:xlink="http://www.w3.org/1999/xlink" contentStyleType="text/css" height="616px" preserveAspectRatio="none" style="width:672px;height:616px;background:#FFFFFF;" version="1.1" viewBox="0 0 672 616" width="672px" zoomAndPan="magnify"><defs/><g><!--cluster ott_collector--><g id="cluster_ott_collector"><path d="M152,6 L251,6 A3.75,3.75 0 0 1 253.5,8.5 L260.5,28.2969 L475,28.2969 A2.5,2.5 0 0 1 477.5,30.7969 L477.5,607.36 A2.5,2.5 0 0 1 475,609.86 L152,609.86 A2.5,2.5 0 0 1 149.5,607.36 L149.5,8.5 A2.5,2.5 0 0 1 152,6 " fill="none" style="stroke:#000000;stroke-width:1.5;"/><line style="stroke:#000000;stroke-width:1.5;" x1="149.5" x2="260.5" y1="28.2969" y2="28.2969"/><text fill="#000000" font-family="sans-serif" font-size="14" font-weight="bold" lengthAdjust="spacing" textLength="98" x="153.5" y="20.9951">ott_collector</text></g><!--cluster Rocket--><g id="cluster_Rocket"><rect fill="none" height="173.86" rx="2.5" ry="2.5" style="stroke:#181818;stroke-width:1.0;" width="182" x="241.5" y="404"/><rect fill="none" height="10" style="stroke:#181818;stroke-width:1.0;" width="15" x="403.5" y="409"/><rect fill="none" height="2" style="stroke:#181818;stroke-width:1.0;" width="4" x="401.5" y="411"/><rect fill="none" height="2" style="stroke:#181818;stroke-width:1.0;" width="4" x="401.5" y="415"/><text fill="#000000" font-family="sans-serif" font-size="14" font-weight="bold" lengthAdjust="spacing" textLength="54" x="305.5" y="429.9951">Rocket</text></g><!--entity ServiceDiscovery--><g id="elem_ServiceDiscovery"><rect fill="#F1F1F1" height="46.2969" rx="2.5" ry="2.5" style="stroke:#181818;stroke-width:0.5;" width="157" x="166" y="41"/><rect fill="#F1F1F1" height="10" style="stroke:#181818;stroke-width:0.5;" width="15" x="303" y="46"/><rect fill="#F1F1F1" height="2" style="stroke:#181818;stroke-width:0.5;" width="4" x="301" y="48"/><rect fill="#F1F1F1" height="2" style="stroke:#181818;stroke-width:0.5;" width="4" x="301" y="52"/><text fill="#000000" font-family="sans-serif" font-size="14" lengthAdjust="spacing" textLength="117" x="181" y="73.9951">ServiceDiscovery</text></g><!--entity Collector--><g id="elem_Collector"><rect fill="#F1F1F1" height="46.2969" rx="2.5" ry="2.5" style="stroke:#181818;stroke-width:0.5;" width="101" x="194" y="164"/><rect fill="#F1F1F1" height="10" style="stroke:#181818;stroke-width:0.5;" width="15" x="275" y="169"/><rect fill="#F1F1F1" height="2" style="stroke:#181818;stroke-width:0.5;" width="4" x="273" y="171"/><rect fill="#F1F1F1" height="2" style="stroke:#181818;stroke-width:0.5;" width="4" x="273" y="175"/><text fill="#000000" font-family="sans-serif" font-size="14" lengthAdjust="spacing" textLength="61" x="209" y="196.9951">Collector</text></g><!--entity EventBus--><g id="elem_EventBus"><rect fill="#F1F1F1" height="46.2969" rx="2.5" ry="2.5" style="stroke:#181818;stroke-width:0.5;" width="106" x="191.5" y="287"/><rect fill="#F1F1F1" height="10" style="stroke:#181818;stroke-width:0.5;" width="15" x="277.5" y="292"/><rect fill="#F1F1F1" height="2" style="stroke:#181818;stroke-width:0.5;" width="4" x="275.5" y="294"/><rect fill="#F1F1F1" height="2" style="stroke:#181818;stroke-width:0.5;" width="4" x="275.5" y="298"/><text fill="#000000" font-family="sans-serif" font-size="14" lengthAdjust="spacing" textLength="66" x="206.5" y="319.9951">EventBus</text></g><!--entity SystemState--><g id="elem_SystemState"><path d="M293,518.86 C293,508.86 346.5,508.86 346.5,508.86 C346.5,508.86 400,508.86 400,518.86 L400,544.1569 C400,554.1569 346.5,554.1569 346.5,554.1569 C346.5,554.1569 293,554.1569 293,544.1569 L293,518.86 " fill="#F1F1F1" style="stroke:#181818;stroke-width:0.5;"/><path d="M293,518.86 C293,528.86 346.5,528.86 346.5,528.86 C346.5,528.86 400,528.86 400,518.86 " fill="none" style="stroke:#181818;stroke-width:0.5;"/><text fill="#000000" font-family="sans-serif" font-size="14" lengthAdjust="spacing" textLength="87" x="303" y="545.8551">SystemState</text></g><!--entity ott_balancer--><g id="elem_ott_balancer"><path d="M8.5,290.5 L106.5,290.5 A3.75,3.75 0 0 1 109,293 L116,312.7969 L130.5,312.7969 A2.5,2.5 0 0 1 133,315.2969 L133,327.2969 A2.5,2.5 0 0 1 130.5,329.7969 L8.5,329.7969 A2.5,2.5 0 0 1 6,327.2969 L6,293 A2.5,2.5 0 0 1 8.5,290.5 " fill="#F1F1F1" style="stroke:#181818;stroke-width:0.5;"/><line style="stroke:#181818;stroke-width:0.5;" x1="6" x2="116" y1="312.7969" y2="312.7969"/><text fill="#000000" font-family="sans-serif" font-size="14" lengthAdjust="spacing" textLength="85" x="16" y="306.4951">ott_balancer</text></g><!--entity ott_vis_datasource--><g id="elem_ott_vis_datasource"><path d="M496.5,167.5 L638.5,167.5 A3.75,3.75 0 0 1 641,170 L648,189.7969 L662.5,189.7969 A2.5,2.5 0 0 1 665,192.2969 L665,204.2969 A2.5,2.5 0 0 1 662.5,206.7969 L496.5,206.7969 A2.5,2.5 0 0 1 494,204.2969 L494,170 A2.5,2.5 0 0 1 496.5,167.5 " fill="#F1F1F1" style="stroke:#181818;stroke-width:0.5;"/><line style="stroke:#181818;stroke-width:0.5;" x1="494" x2="648" y1="189.7969" y2="189.7969"/><text fill="#000000" font-family="sans-serif" font-size="14" lengthAdjust="spacing" textLength="129" x="504" y="183.4951">ott_vis_datasource</text></g><!--link ServiceDiscovery to Collector--><g id="link_ServiceDiscovery_Collector"><path d="M244.5,87.19 C244.5,107.41 244.5,137.31 244.5,158.92 " fill="none" id="ServiceDiscovery-to-Collector" style="stroke:#181818;stroke-width:1.0;"/><polygon fill="#181818" points="244.5,163.95,248.5,154.95,244.5,158.95,240.5,154.95,244.5,163.95" style="stroke:#181818;stroke-width:1.0;"/><text fill="#000000" font-family="sans-serif" font-size="13" lengthAdjust="spacing" textLength="48" x="245.5" y="130.0669">Informs</text></g><!--link ServiceDiscovery to ott_balancer--><g id="link_ServiceDiscovery_ott_balancer"><path d="M202.17,87.1 C173,104.37 135.48,130.96 112.5,164 C86.42,201.49 75.93,254.97 71.88,285.41 " fill="none" id="ServiceDiscovery-to-ott_balancer" style="stroke:#181818;stroke-width:1.0;stroke-dasharray:7.0,7.0;"/><polygon fill="#181818" points="71.24,290.45,76.3404,282.0247,71.869,285.4897,68.4039,281.0183,71.24,290.45" style="stroke:#181818;stroke-width:1.0;"/><text fill="#000000" font-family="sans-serif" font-size="13" lengthAdjust="spacing" textLength="62" x="113.5" y="191.5669">Discovers</text></g><!--link Collector to SystemState--><g id="link_Collector_SystemState"><path d="M273.87,210.21 C315.15,243.5 388.41,310.74 416.5,388 C431.93,430.43 398.89,476.9 373.13,504.83 " fill="none" id="Collector-to-SystemState" style="stroke:#181818;stroke-width:1.0;"/><polygon fill="#181818" points="369.39,508.82,378.4711,505.0077,372.8168,505.179,372.6455,499.5247,369.39,508.82" style="stroke:#181818;stroke-width:1.0;"/><text fill="#000000" font-family="sans-serif" font-size="13" lengthAdjust="spacing" textLength="38" x="413.5" y="376.0669">Builds</text></g><!--link Collector to ott_balancer--><g id="link_Collector_ott_balancer"><path d="M212.4,210.19 C180.58,232.2 132.14,265.69 100.65,287.46 " fill="none" id="Collector-to-ott_balancer" style="stroke:#181818;stroke-width:1.0;"/><polygon fill="#181818" points="96.52,290.32,106.1982,288.4946,100.6335,287.4777,101.6505,281.913,96.52,290.32" style="stroke:#181818;stroke-width:1.0;"/><text fill="#000000" font-family="sans-serif" font-size="13" lengthAdjust="spacing" textLength="29" x="167.5" y="253.0669">Polls</text></g><!--link Collector to EventBus--><g id="link_Collector_EventBus"><path d="M244.5,210.19 C244.5,230.41 244.5,260.31 244.5,281.92 " fill="none" id="Collector-to-EventBus" style="stroke:#181818;stroke-width:1.0;"/><polygon fill="#181818" points="244.5,286.95,248.5,277.95,244.5,281.95,240.5,277.95,244.5,286.95" style="stroke:#181818;stroke-width:1.0;"/><text fill="#000000" font-family="sans-serif" font-size="13" lengthAdjust="spacing" textLength="38" x="245.5" y="253.0669">Feeds</text></g><!--reverse link EventBus to Rocket--><g id="link_EventBus_Rocket"><path d="M210.87,336.89 C198.82,349.44 189.88,365.01 197.5,380 C205.83,396.395 222.28,408.7225 237.0288,417.0762 C237.9505,417.5984 238.8657,418.1049 239.7718,418.596 C240.2249,418.8416 240.6757,419.0832 241.1239,419.321 C241.2359,419.3805 241.3478,419.4397 241.4596,419.4987 " fill="none" id="EventBus-backto-Rocket" style="stroke:#181818;stroke-width:1.0;"/><polygon fill="#181818" points="214.7,333.1,205.4934,336.5984,211.1502,336.6212,211.1274,342.2781,214.7,333.1" style="stroke:#181818;stroke-width:1.0;"/><text fill="#000000" font-family="sans-serif" font-size="13" lengthAdjust="spacing" textLength="179" x="198.5" y="376.0669">Uses to serve /state/stream</text></g><!--link Rocket to SystemState--><g id="link_Rocket_SystemState"><path d="M240.907,434.1455 C240.508,434.1921 240.1062,434.2396 239.7017,434.2879 C238.0835,434.4811 236.4214,434.6881 234.7239,434.9097 C231.329,435.3529 227.7927,435.8545 224.1844,436.4204 C216.9677,437.5524 209.4625,438.9422 202.2225,440.6388 C173.2625,447.425 148.545,459.12 163.5,478.86 C178.59,498.79 239.9,513.16 287.44,521.58 " fill="none" id="Rocket-to-SystemState" style="stroke:#181818;stroke-width:1.0;"/><polygon fill="#181818" points="292.58,522.48,284.3985,516.9971,287.6539,521.6233,283.0277,524.8788,292.58,522.48" style="stroke:#181818;stroke-width:1.0;"/><text fill="#000000" font-family="sans-serif" font-size="13" lengthAdjust="spacing" textLength="129" x="164.5" y="474.9269">Uses to serve /state</text></g><!--link ott_vis_datasource to SystemState--><g id="link_ott_vis_datasource_SystemState"><path d="M578.2,206.75 C573.7,257.47 554.54,398.9 477.5,478.86 C458.27,498.82 430.36,511.21 405.24,518.81 " fill="none" id="ott_vis_datasource-to-SystemState" style="stroke:#181818;stroke-width:1.0;stroke-dasharray:7.0,7.0;"/><polygon fill="#181818" points="400.25,520.27,410.01,521.59,405.05,518.87,407.77,513.91,400.25,520.27" style="stroke:#181818;stroke-width:1.0;"/><text fill="#000000" font-family="sans-serif" font-size="13" lengthAdjust="spacing" textLength="50" x="545.5" y="376.0669">Polls for</text></g><!--link ott_vis_datasource to EventBus--><g id="link_ott_vis_datasource_EventBus"><path d="M528.26,206.51 C467.43,228.48 366.25,265.03 302.57,288.02 " fill="none" id="ott_vis_datasource-to-EventBus" style="stroke:#181818;stroke-width:1.0;stroke-dasharray:7.0,7.0;"/><polygon fill="#181818" points="297.68,289.79,307.5039,290.4903,302.3819,288.0893,304.7828,282.9673,297.68,289.79" style="stroke:#181818;stroke-width:1.0;"/><text fill="#000000" font-family="sans-serif" font-size="13" lengthAdjust="spacing" textLength="89" x="432.5" y="253.0669">Streams from</text></g><!--SRC=[TP3FQiCm3CRlUWgzGBgx6JrqVs2tqR1pSLLjXCPHi9H06NttkQPPwsIx22nzd_Jprtiw-Yz6CTkHj2sJISHlG2G9lNJS6TOSnuRukL6IaUEf63vDfgBxCgQw6HIAxbReo9Qt8nwy-RrNnlgang4sRvm6PpW3z7TKUz_wZZWMpR7HtMM1oX290UQ8M5Nh6vh3j-vJOj2bRhLQ5rSSJZE5Nt_UTeVfS3CqxM6kAFUyfzbSCSNYy9Kv-QStFbRLDHs77ygA9gY9bV51BnTJZUm3N1DSyFpbWMLG-Rk5CLDY2kS_zGsvpWX972N03m00]--></g></svg>