<?xml version="1.0" encoding="us-ascii" standalone="no"?><svg xmlns="http://www.w3.org/2000/svg" xmlns:xlink="http://www.w3.org/1999/xlink" contentStyleType="text/css" height="316px" preserveAspectRatio="none" style="width:551px;height:316px;background:#FFFFFF;" version="1.1" viewBox="0 0 551 316" width="551px" zoomAndPan="magnify"><defs/><g><!--cluster ott-vis--><g id="cluster_ott-vis"><rect fill="none" height="303.98" rx="2.5" ry="2.5" style="stroke:#181818;stroke-width:1.0;" width="365" x="180.5" y="7"/><path d="M241.5,7 L241.5,16.4883 L231.5,26.4883 L180.5,26.4883 " fill="none" style="stroke:#181818;stroke-width:1.0;"/><text fill="#000000" font-family="sans-serif" font-size="14" font-weight="bold" lengthAdjust="spacing" textLength="51" x="183.5" y="21.5352">ott-vis</text></g><!--cluster Grafana--><g id="cluster_Grafana"><rect fill="none" height="220.98" rx="2.5" ry="2.5" style="stroke:#181818;stroke-width:1.0;" width="150" x="363.5" y="58"/><path d="M428.5,58 L428.5,67.4883 L418.5,77.4883 L363.5,77.4883 " fill="none" style="stroke:#181818;stroke-width:1.0;"/><text fill="#000000" font-family="sans-serif" font-size="14" font-weight="bold" lengthAdjust="spacing" textLength="55" x="366.5" y="72.5352">Grafana</text></g><!--entity Component--><g id="elem_Component"><polygon fill="#F1F1F1" points="224,103,234,93,345,93,345,129.4883,335,139.4883,224,139.4883,224,103" style="stroke:#181818;stroke-width:0.5;"/><line style="stroke:#181818;stroke-width:0.5;" x1="335" x2="345" y1="103" y2="93"/><line style="stroke:#181818;stroke-width:0.5;" x1="224" x2="335" y1="103" y2="103"/><line style="stroke:#181818;stroke-width:0.5;" x1="335" x2="335" y1="103" y2="139.4883"/><text fill="#000000" font-family="sans-serif" font-size="14" lengthAdjust="spacing" textLength="81" x="239" y="126.5352">Component</text></g><!--entity D3.js--><g id="elem_D3.js"><rect fill="#F1F1F1" height="46.4883" rx="2.5" ry="2.5" style="stroke:#181818;stroke-width:0.5;" width="74" x="247.5" y="216.49"/><rect fill="#F1F1F1" height="10" style="stroke:#181818;stroke-width:0.5;" width="15" x="301.5" y="221.49"/><rect fill="#F1F1F1" height="2" style="stroke:#181818;stroke-width:0.5;" width="4" x="299.5" y="223.49"/><rect fill="#F1F1F1" height="2" style="stroke:#181818;stroke-width:0.5;" width="4" x="299.5" y="227.49"/><text fill="#000000" font-family="sans-serif" font-size="14" lengthAdjust="spacing" textLength="34" x="262.5" y="250.0252">D3.js</text></g><!--entity Panel.tsx--><g id="elem_Panel.tsx"><rect fill="#F1F1F1" height="46.4883" rx="2.5" ry="2.5" style="stroke:#181818;stroke-width:0.5;" width="102" x="383.5" y="216.49"/><rect fill="#F1F1F1" height="10" style="stroke:#181818;stroke-width:0.5;" width="15" x="465.5" y="221.49"/><rect fill="#F1F1F1" height="2" style="stroke:#181818;stroke-width:0.5;" width="4" x="463.5" y="223.49"/><rect fill="#F1F1F1" height="2" style="stroke:#181818;stroke-width:0.5;" width="4" x="463.5" y="227.49"/><text fill="#000000" font-family="sans-serif" font-size="14" lengthAdjust="spacing" textLength="62" x="398.5" y="250.0252">Panel.tsx</text></g><!--entity module.tsx--><g id="elem_module.tsx"><rect fill="#F1F1F1" height="46.4883" rx="2.5" ry="2.5" style="stroke:#181818;stroke-width:0.5;" width="117" x="380" y="93"/><rect fill="#F1F1F1" height="10" style="stroke:#181818;stroke-width:0.5;" width="15" x="477" y="98"/><rect fill="#F1F1F1" height="2" style="stroke:#181818;stroke-width:0.5;" width="4" x="475" y="100"/><rect fill="#F1F1F1" height="2" style="stroke:#181818;stroke-width:0.5;" width="4" x="475" y="104"/><text fill="#000000" font-family="sans-serif" font-size="14" lengthAdjust="spacing" textLength="77" x="395" y="126.5352">module.tsx</text></g><!--entity DOM--><g id="elem_DOM"><rect fill="#F1F1F1" height="46.4883" rx="2.5" ry="2.5" style="stroke:#181818;stroke-width:0.5;" width="73" x="7" y="93"/><rect fill="#F1F1F1" height="10" style="stroke:#181818;stroke-width:0.5;" width="15" x="60" y="98"/><rect fill="#F1F1F1" height="2" style="stroke:#181818;stroke-width:0.5;" width="4" x="58" y="100"/><rect fill="#F1F1F1" height="2" style="stroke:#181818;stroke-width:0.5;" width="4" x="58" y="104"/><text fill="#000000" font-family="sans-serif" font-size="14" lengthAdjust="spacing" textLength="33" x="22" y="126.5352">DOM</text></g><!--entity React--><g id="elem_React"><rect fill="#F1F1F1" height="46.4883" rx="2.5" ry="2.5" style="stroke:#181818;stroke-width:0.5;" width="77" x="42" y="216.49"/><rect fill="#F1F1F1" height="10" style="stroke:#181818;stroke-width:0.5;" width="15" x="99" y="221.49"/><rect fill="#F1F1F1" height="2" style="stroke:#181818;stroke-width:0.5;" width="4" x="97" y="223.49"/><rect fill="#F1F1F1" height="2" style="stroke:#181818;stroke-width:0.5;" width="4" x="97" y="227.49"/><text fill="#000000" font-family="sans-serif" font-size="14" lengthAdjust="spacing" textLength="37" x="57" y="250.0252">React</text></g><!--link DOM to React--><g id="link_DOM_React"><path d="M38.43,139.97 C36.35,153.78 35.44,171.56 40.5,186.49 C44.17,197.31 51.07,207.65 58.13,216.23 " fill="none" id="DOM-React" style="stroke:#181818;stroke-width:1.0;stroke-dasharray:7.0,7.0;"/><text fill="#000000" font-family="sans-serif" font-size="13" lengthAdjust="spacing" textLength="83" x="41.5" y="183.0584">controlled by</text></g><!--link ott-vis to React--><g id="link_ott-vis_React"><path d="M180.4894,126.9401 C180.4281,127.0139 180.3665,127.0881 180.3046,127.1626 C180.1809,127.3116 180.0559,127.4619 179.9298,127.6137 C179.6776,127.9171 179.4208,128.2261 179.1594,128.5402 C178.1141,129.797 176.9967,131.1383 175.8156,132.5535 C173.4534,135.3838 170.8363,138.5094 168.03,141.845 C156.805,155.1875 142.555,171.89 129.5,186.49 C122.09,194.78 113.87,203.66 106.32,211.7 " fill="none" id="ott-vis-to-React" style="stroke:#181818;stroke-width:1.0;stroke-dasharray:7.0,7.0;"/><polygon fill="#181818" points="103.24,214.96,112.3211,211.1477,106.6668,211.319,106.4955,205.6647,103.24,214.96" style="stroke:#181818;stroke-width:1.0;"/><text fill="#000000" font-family="sans-serif" font-size="13" lengthAdjust="spacing" textLength="29" x="144.5" y="183.0584">uses</text></g><!--link Component to D3.js--><g id="link_Component_D3.js"><path d="M284.5,139.81 C284.5,161.64 284.5,194.51 284.5,216.29 " fill="none" id="Component-D3.js" style="stroke:#181818;stroke-width:1.0;stroke-dasharray:7.0,7.0;"/></g><!--link module.tsx to Panel.tsx--><g id="link_module.tsx_Panel.tsx"><path d="M437.76,139.81 C437.11,159.59 436.16,188.44 435.45,209.89 " fill="none" id="module.tsx-to-Panel.tsx" style="stroke:#181818;stroke-width:1.0;stroke-dasharray:7.0,7.0;"/><polygon fill="#181818" points="435.29,214.78,439.596,205.9223,435.4613,209.7829,431.6007,205.6482,435.29,214.78" style="stroke:#181818;stroke-width:1.0;"/></g><!--link Component to Panel.tsx--><g id="link_Component_Panel.tsx"><path d="M312.36,139.81 C337.65,160.29 374.95,190.5 401.67,212.15 " fill="none" id="Component-to-Panel.tsx" style="stroke:#181818;stroke-width:1.0;stroke-dasharray:7.0,7.0;"/><polygon fill="#181818" points="405.36,215.13,400.8937,206.3521,401.4781,211.9787,395.8515,212.5631,405.36,215.13" style="stroke:#181818;stroke-width:1.0;"/></g><!--SRC=[LOwn3i8m34HtVuL_W2ni32nKOa8WrYY3QLm9bCIeSH48yU-G4fKotlFT-Moptpaq1ksHgLM7AsmbQIyXiCVJ0w3hAJAAwk9splW4_89jJnqbAW3jWH87e_dkYehYXy1LlW0mYMVSIBnAugI0jbcQItRmkTbQN3QiPoE6p1cco3YmXdxjOsHw_UUUypS0]--></g></svg>