<?xml version="1.0" encoding="us-ascii" standalone="no"?><svg xmlns="http://www.w3.org/2000/svg" xmlns:xlink="http://www.w3.org/1999/xlink" contentStyleType="text/css" height="290px" preserveAspectRatio="none" style="width:331px;height:290px;background:#FFFFFF;" version="1.1" viewBox="0 0 331 290" width="331px" zoomAndPan="magnify"><defs/><g><!--entity React--><g id="elem_React"><rect fill="#F1F1F1" height="46.4883" rx="2.5" ry="2.5" style="stroke:#181818;stroke-width:0.5;" width="77" x="102.5" y="7"/><rect fill="#F1F1F1" height="10" style="stroke:#181818;stroke-width:0.5;" width="15" x="159.5" y="12"/><rect fill="#F1F1F1" height="2" style="stroke:#181818;stroke-width:0.5;" width="4" x="157.5" y="14"/><rect fill="#F1F1F1" height="2" style="stroke:#181818;stroke-width:0.5;" width="4" x="157.5" y="18"/><text fill="#000000" font-family="sans-serif" font-size="14" lengthAdjust="spacing" textLength="37" x="117.5" y="40.5352">React</text></g><!--entity Grafana--><g id="elem_Grafana"><rect fill="#F1F1F1" height="46.4883" rx="2.5" ry="2.5" style="stroke:#181818;stroke-width:0.5;" width="94" x="7" y="114.48"/><rect fill="#F1F1F1" height="10" style="stroke:#181818;stroke-width:0.5;" width="15" x="81" y="119.48"/><rect fill="#F1F1F1" height="2" style="stroke:#181818;stroke-width:0.5;" width="4" x="79" y="121.48"/><rect fill="#F1F1F1" height="2" style="stroke:#181818;stroke-width:0.5;" width="4" x="79" y="125.48"/><text fill="#000000" font-family="sans-serif" font-size="14" lengthAdjust="spacing" textLength="54" x="22" y="148.0152">Grafana</text></g><!--entity D3.js--><g id="elem_D3.js"><rect fill="#F1F1F1" height="46.4883" rx="2.5" ry="2.5" style="stroke:#181818;stroke-width:0.5;" width="74" x="76" y="237.97"/><rect fill="#F1F1F1" height="10" style="stroke:#181818;stroke-width:0.5;" width="15" x="130" y="242.97"/><rect fill="#F1F1F1" height="2" style="stroke:#181818;stroke-width:0.5;" width="4" x="128" y="244.97"/><rect fill="#F1F1F1" height="2" style="stroke:#181818;stroke-width:0.5;" width="4" x="128" y="248.97"/><text fill="#000000" font-family="sans-serif" font-size="14" lengthAdjust="spacing" textLength="34" x="91" y="271.5052">D3.js</text></g><!--reverse link React to Grafana--><g id="link_React_Grafana"><path d="M118.43,58.6 C104.2,75.86 86.04,97.87 72.63,114.14 " fill="none" id="React-backto-Grafana" style="stroke:#181818;stroke-width:1.0;stroke-dasharray:7.0,7.0;"/><polygon fill="#181818" points="121.37,55.04,112.5546,59.432,118.186,58.8951,118.7228,64.5264,121.37,55.04" style="stroke:#181818;stroke-width:1.0;"/></g><!--reverse link React to D3.js--><g id="link_React_D3.js"><path d="M148.24,60.25 C155.81,95.91 164.59,157.86 149,207.97 C145.69,218.59 139.39,228.97 132.98,237.63 " fill="none" id="React-backto-D3.js" style="stroke:#181818;stroke-width:1.0;stroke-dasharray:7.0,7.0;"/><polygon fill="#181818" points="147.17,55.38,145.1907,65.0279,148.241,60.2639,153.005,63.3143,147.17,55.38" style="stroke:#181818;stroke-width:1.0;"/><text fill="#000000" font-family="sans-serif" font-size="13" lengthAdjust="spacing" textLength="165" x="158" y="142.7984">Dependency for Web Apps</text></g><!--reverse link Grafana to D3.js--><g id="link_Grafana_D3.js"><path d="M67.8,167.15 C78.26,188.68 92.43,217.86 102.1,237.77 " fill="none" id="Grafana-backto-D3.js" style="stroke:#181818;stroke-width:1.0;stroke-dasharray:7.0,7.0;"/><polygon fill="#181818" points="65.62,162.66,65.9541,172.5032,67.8045,167.1575,73.1502,169.008,65.62,162.66" style="stroke:#181818;stroke-width:1.0;"/><text fill="#000000" font-family="sans-serif" font-size="13" lengthAdjust="spacing" textLength="53" x="89" y="204.5384">&#171;merge&#187;</text></g><!--SRC=[YmvAJKmkYLMmqTDJY7OlIanBp4kCvOf65dKnriigZbMmKd19BKZDIqdDIwvKICilKWXFJL9mB2WeveBhGrDlOvERMfIUQcS70000]--></g></svg>