<?xml version="1.0" encoding="us-ascii" standalone="no"?><svg xmlns="http://www.w3.org/2000/svg" xmlns:xlink="http://www.w3.org/1999/xlink" contentStyleType="text/css" height="413px" preserveAspectRatio="none" style="width:639px;height:413px;background:#FFFFFF;" version="1.1" viewBox="0 0 639 413" width="639px" zoomAndPan="magnify"><defs/><g><!--entity React--><g id="elem_React"><rect fill="#F1F1F1" height="46.4883" rx="2.5" ry="2.5" style="stroke:#181818;stroke-width:0.5;" width="77" x="7" y="7"/><rect fill="#F1F1F1" height="10" style="stroke:#181818;stroke-width:0.5;" width="15" x="64" y="12"/><rect fill="#F1F1F1" height="2" style="stroke:#181818;stroke-width:0.5;" width="4" x="62" y="14"/><rect fill="#F1F1F1" height="2" style="stroke:#181818;stroke-width:0.5;" width="4" x="62" y="18"/><text fill="#000000" font-family="sans-serif" font-size="14" lengthAdjust="spacing" textLength="37" x="22" y="40.5352">React</text></g><!--entity ott-vis--><g id="elem_ott-vis"><rect fill="#F1F1F1" height="46.4883" rx="2.5" ry="2.5" style="stroke:#181818;stroke-width:0.5;" width="85" x="133" y="130.49"/><rect fill="#F1F1F1" height="10" style="stroke:#181818;stroke-width:0.5;" width="15" x="198" y="135.49"/><rect fill="#F1F1F1" height="2" style="stroke:#181818;stroke-width:0.5;" width="4" x="196" y="137.49"/><rect fill="#F1F1F1" height="2" style="stroke:#181818;stroke-width:0.5;" width="4" x="196" y="141.49"/><text fill="#000000" font-family="sans-serif" font-size="14" lengthAdjust="spacing" textLength="45" x="148" y="164.0252">ott-vis</text></g><!--entity TypeScript--><g id="elem_TypeScript"><rect fill="#F1F1F1" height="46.4883" rx="2.5" ry="2.5" style="stroke:#181818;stroke-width:0.5;" width="112" x="119.5" y="7"/><rect fill="#F1F1F1" height="10" style="stroke:#181818;stroke-width:0.5;" width="15" x="211.5" y="12"/><rect fill="#F1F1F1" height="2" style="stroke:#181818;stroke-width:0.5;" width="4" x="209.5" y="14"/><rect fill="#F1F1F1" height="2" style="stroke:#181818;stroke-width:0.5;" width="4" x="209.5" y="18"/><text fill="#000000" font-family="sans-serif" font-size="14" lengthAdjust="spacing" textLength="72" x="134.5" y="40.5352">TypeScript</text></g><!--entity Grafana--><g id="elem_Grafana"><rect fill="#F1F1F1" height="46.4883" rx="2.5" ry="2.5" style="stroke:#181818;stroke-width:0.5;" width="94" x="266.5" y="7"/><rect fill="#F1F1F1" height="10" style="stroke:#181818;stroke-width:0.5;" width="15" x="340.5" y="12"/><rect fill="#F1F1F1" height="2" style="stroke:#181818;stroke-width:0.5;" width="4" x="338.5" y="14"/><rect fill="#F1F1F1" height="2" style="stroke:#181818;stroke-width:0.5;" width="4" x="338.5" y="18"/><text fill="#000000" font-family="sans-serif" font-size="14" lengthAdjust="spacing" textLength="54" x="281.5" y="40.5352">Grafana</text></g><!--entity /components--><g id="elem_/components"><rect fill="#F1F1F1" height="46.4883" rx="2.5" ry="2.5" style="stroke:#181818;stroke-width:0.5;" width="132" x="308.5" y="130.49"/><rect fill="#F1F1F1" height="10" style="stroke:#181818;stroke-width:0.5;" width="15" x="420.5" y="135.49"/><rect fill="#F1F1F1" height="2" style="stroke:#181818;stroke-width:0.5;" width="4" x="418.5" y="137.49"/><rect fill="#F1F1F1" height="2" style="stroke:#181818;stroke-width:0.5;" width="4" x="418.5" y="141.49"/><text fill="#000000" font-family="sans-serif" font-size="14" lengthAdjust="spacing" textLength="92" x="323.5" y="164.0252">/components</text></g><!--entity module.ts--><g id="elem_module.ts"><rect fill="#F1F1F1" height="46.4883" rx="2.5" ry="2.5" style="stroke:#181818;stroke-width:0.5;" width="108" x="211.5" y="253.97"/><rect fill="#F1F1F1" height="10" style="stroke:#181818;stroke-width:0.5;" width="15" x="299.5" y="258.97"/><rect fill="#F1F1F1" height="2" style="stroke:#181818;stroke-width:0.5;" width="4" x="297.5" y="260.97"/><rect fill="#F1F1F1" height="2" style="stroke:#181818;stroke-width:0.5;" width="4" x="297.5" y="264.97"/><text fill="#000000" font-family="sans-serif" font-size="14" lengthAdjust="spacing" textLength="68" x="226.5" y="287.5052">module.ts</text></g><!--entity Panel.tsx--><g id="elem_Panel.tsx"><rect fill="#F1F1F1" height="46.4883" rx="2.5" ry="2.5" style="stroke:#181818;stroke-width:0.5;" width="102" x="531.5" y="130.49"/><rect fill="#F1F1F1" height="10" style="stroke:#181818;stroke-width:0.5;" width="15" x="613.5" y="135.49"/><rect fill="#F1F1F1" height="2" style="stroke:#181818;stroke-width:0.5;" width="4" x="611.5" y="137.49"/><rect fill="#F1F1F1" height="2" style="stroke:#181818;stroke-width:0.5;" width="4" x="611.5" y="141.49"/><text fill="#000000" font-family="sans-serif" font-size="14" lengthAdjust="spacing" textLength="62" x="546.5" y="164.0252">Panel.tsx</text></g><!--entity ForceGraph.tsx--><g id="elem_ForceGraph.tsx"><rect fill="#F1F1F1" height="46.4883" rx="2.5" ry="2.5" style="stroke:#181818;stroke-width:0.5;" width="145" x="368" y="253.97"/><rect fill="#F1F1F1" height="10" style="stroke:#181818;stroke-width:0.5;" width="15" x="493" y="258.97"/><rect fill="#F1F1F1" height="2" style="stroke:#181818;stroke-width:0.5;" width="4" x="491" y="260.97"/><rect fill="#F1F1F1" height="2" style="stroke:#181818;stroke-width:0.5;" width="4" x="491" y="264.97"/><text fill="#000000" font-family="sans-serif" font-size="14" lengthAdjust="spacing" textLength="105" x="383" y="287.5052">ForceGraph.tsx</text></g><!--entity D3.js--><g id="elem_D3.js"><rect fill="#F1F1F1" height="46.4883" rx="2.5" ry="2.5" style="stroke:#181818;stroke-width:0.5;" width="74" x="403.5" y="361.46"/><rect fill="#F1F1F1" height="10" style="stroke:#181818;stroke-width:0.5;" width="15" x="457.5" y="366.46"/><rect fill="#F1F1F1" height="2" style="stroke:#181818;stroke-width:0.5;" width="4" x="455.5" y="368.46"/><rect fill="#F1F1F1" height="2" style="stroke:#181818;stroke-width:0.5;" width="4" x="455.5" y="372.46"/><text fill="#000000" font-family="sans-serif" font-size="14" lengthAdjust="spacing" textLength="34" x="418.5" y="394.9952">D3.js</text></g><!--reverse link React to ott-vis--><g id="link_React_ott-vis"><path d="M74.16,58.02 C97.35,79.69 129.63,109.86 151.48,130.28 " fill="none" id="React-backto-ott-vis" style="stroke:#181818;stroke-width:1.0;stroke-dasharray:7.0,7.0;"/><polygon fill="#181818" points="70.75,54.84,74.5813,63.9131,74.3981,58.2592,80.052,58.0761,70.75,54.84" style="stroke:#181818;stroke-width:1.0;"/></g><!--reverse link TypeScript to ott-vis--><g id="link_TypeScript_ott-vis"><path d="M175.5,60.22 C175.5,81.69 175.5,110.55 175.5,130.28 " fill="none" id="TypeScript-backto-ott-vis" style="stroke:#181818;stroke-width:1.0;stroke-dasharray:7.0,7.0;"/><polygon fill="#181818" points="175.5,55.32,171.5,64.32,175.5,60.32,179.5,64.32,175.5,55.32" style="stroke:#181818;stroke-width:1.0;"/><text fill="#000000" font-family="sans-serif" font-size="13" lengthAdjust="spacing" textLength="29" x="176.5" y="97.0584">uses</text></g><!--reverse link Grafana to ott-vis--><g id="link_Grafana_ott-vis"><path d="M283.08,58.02 C258.46,79.69 224.19,109.86 201,130.28 " fill="none" id="Grafana-backto-ott-vis" style="stroke:#181818;stroke-width:1.0;stroke-dasharray:7.0,7.0;"/><polygon fill="#181818" points="286.73,54.81,277.3339,57.7617,282.9796,58.1167,282.6246,63.7624,286.73,54.81" style="stroke:#181818;stroke-width:1.0;"/></g><!--link ott-vis to /components--><g id="link_ott-vis_/components"><path d="M218.19,153.73 C244.46,153.73 278.67,153.73 308.38,153.73 " fill="none" id="ott-vis-/components" style="stroke:#181818;stroke-width:1.0;"/><text fill="#000000" font-family="sans-serif" font-size="13" lengthAdjust="spacing" textLength="54" x="236.25" y="147.2984">contains</text></g><!--link ott-vis to module.ts--><g id="link_ott-vis_module.ts"><path d="M192.22,177.3 C208.38,199.12 232.74,231.99 248.87,253.77 " fill="none" id="ott-vis-module.ts" style="stroke:#181818;stroke-width:1.0;"/><text fill="#000000" font-family="sans-serif" font-size="13" lengthAdjust="spacing" textLength="54" x="226.5" y="220.5384">contains</text></g><!--link /components to Panel.tsx--><g id="link_/components_Panel.tsx"><path d="M440.88,153.73 C470.13,153.73 503.97,153.73 531.23,153.73 " fill="none" id="/components-Panel.tsx" style="stroke:#181818;stroke-width:1.0;"/><text fill="#000000" font-family="sans-serif" font-size="13" lengthAdjust="spacing" textLength="54" x="459" y="147.2984">contains</text></g><!--link /components to ForceGraph.tsx--><g id="link_/components_ForceGraph.tsx"><path d="M386.76,177.3 C398.61,199.12 416.47,231.99 428.31,253.77 " fill="none" id="/components-ForceGraph.tsx" style="stroke:#181818;stroke-width:1.0;"/><text fill="#000000" font-family="sans-serif" font-size="13" lengthAdjust="spacing" textLength="54" x="411.5" y="220.5384">contains</text></g><!--reverse link Panel.tsx to ForceGraph.tsx--><g id="link_Panel.tsx_ForceGraph.tsx"><path d="M567.28,182.59 C558.88,196.22 547.52,212.18 534.5,223.97 C521.77,235.5 506.05,245.49 491.13,253.56 " fill="none" id="Panel.tsx-backto-ForceGraph.tsx" style="stroke:#181818;stroke-width:1.0;stroke-dasharray:7.0,7.0;"/><polygon fill="#181818" points="569.69,178.6,561.6074,184.2278,567.1007,182.8773,568.4511,188.3706,569.69,178.6" style="stroke:#181818;stroke-width:1.0;"/></g><!--reverse link Panel.tsx to module.ts--><g id="link_Panel.tsx_module.ts"><path d="M548.23,180.9 C527.78,195.42 500.75,212.76 474.5,223.97 C422.36,246.25 405.48,240.13 350.5,253.97 C340.59,256.47 330.04,259.18 319.88,261.83 " fill="none" id="Panel.tsx-backto-module.ts" style="stroke:#181818;stroke-width:1.0;stroke-dasharray:7.0,7.0;"/><polygon fill="#181818" points="552.05,178.16,542.4034,180.1458,547.9842,181.0702,547.0598,186.651,552.05,178.16" style="stroke:#181818;stroke-width:1.0;"/></g><!--link ForceGraph.tsx to D3.js--><g id="link_ForceGraph.tsx_D3.js"><path d="M440.5,300.85 C440.5,316.7 440.5,338.01 440.5,355.05 " fill="none" id="ForceGraph.tsx-to-D3.js" style="stroke:#181818;stroke-width:1.0;stroke-dasharray:7.0,7.0;"/><polygon fill="#181818" points="440.5,359.6,444.5,350.6,440.5,354.6,436.5,350.6,440.5,359.6" style="stroke:#181818;stroke-width:1.0;"/></g><!--SRC=[VSwn2W8n40JGFb-nFt2ni1En4cr5xPOKIrmnSfSDIKxqxmrNg9U0zRmP1ezCDXjOQmqeENSFbup2yolmoKONwWXMC2PE2lUHhkIfQNvW1xYmCWJnxFDKjE8pEP_cQ93BsBEkoQnRs84yzqKz_xETHClbMxYrzcTYEbtP5dolgMPOwmtWTgdloRm1]--></g></svg>