<?xml version="1.0" encoding="us-ascii" standalone="no"?><svg xmlns="http://www.w3.org/2000/svg" xmlns:xlink="http://www.w3.org/1999/xlink" contentStyleType="text/css" height="396px" preserveAspectRatio="none" style="width:532px;height:396px;background:#FFFFFF;" version="1.1" viewBox="0 0 532 396" width="532px" zoomAndPan="magnify"><defs/><g><!--entity React--><g id="elem_React"><rect fill="#F1F1F1" height="46.2969" rx="2.5" ry="2.5" style="stroke:#181818;stroke-width:0.5;" width="80" x="7" y="7"/><rect fill="#F1F1F1" height="10" style="stroke:#181818;stroke-width:0.5;" width="15" x="67" y="12"/><rect fill="#F1F1F1" height="2" style="stroke:#181818;stroke-width:0.5;" width="4" x="65" y="14"/><rect fill="#F1F1F1" height="2" style="stroke:#181818;stroke-width:0.5;" width="4" x="65" y="18"/><text fill="#000000" font-family="sans-serif" font-size="14" lengthAdjust="spacing" textLength="40" x="22" y="39.9951">React</text></g><!--entity ott-vis--><g id="elem_ott-vis"><rect fill="#F1F1F1" height="46.2969" rx="2.5" ry="2.5" style="stroke:#181818;stroke-width:0.5;" width="82" x="138" y="130"/><rect fill="#F1F1F1" height="10" style="stroke:#181818;stroke-width:0.5;" width="15" x="200" y="135"/><rect fill="#F1F1F1" height="2" style="stroke:#181818;stroke-width:0.5;" width="4" x="198" y="137"/><rect fill="#F1F1F1" height="2" style="stroke:#181818;stroke-width:0.5;" width="4" x="198" y="141"/><text fill="#000000" font-family="sans-serif" font-size="14" lengthAdjust="spacing" textLength="42" x="153" y="162.9951">ott-vis</text></g><!--entity TypeScript--><g id="elem_TypeScript"><rect fill="#F1F1F1" height="46.2969" rx="2.5" ry="2.5" style="stroke:#181818;stroke-width:0.5;" width="113" x="122.5" y="7"/><rect fill="#F1F1F1" height="10" style="stroke:#181818;stroke-width:0.5;" width="15" x="215.5" y="12"/><rect fill="#F1F1F1" height="2" style="stroke:#181818;stroke-width:0.5;" width="4" x="213.5" y="14"/><rect fill="#F1F1F1" height="2" style="stroke:#181818;stroke-width:0.5;" width="4" x="213.5" y="18"/><text fill="#000000" font-family="sans-serif" font-size="14" lengthAdjust="spacing" textLength="73" x="137.5" y="39.9951">TypeScript</text></g><!--entity Grafana--><g id="elem_Grafana"><rect fill="#F1F1F1" height="46.2969" rx="2.5" ry="2.5" style="stroke:#181818;stroke-width:0.5;" width="93" x="270.5" y="7"/><rect fill="#F1F1F1" height="10" style="stroke:#181818;stroke-width:0.5;" width="15" x="343.5" y="12"/><rect fill="#F1F1F1" height="2" style="stroke:#181818;stroke-width:0.5;" width="4" x="341.5" y="14"/><rect fill="#F1F1F1" height="2" style="stroke:#181818;stroke-width:0.5;" width="4" x="341.5" y="18"/><text fill="#000000" font-family="sans-serif" font-size="14" lengthAdjust="spacing" textLength="53" x="285.5" y="39.9951">Grafana</text></g><!--entity /components--><g id="elem_/components"><rect fill="#F1F1F1" height="46.2969" rx="2.5" ry="2.5" style="stroke:#181818;stroke-width:0.5;" width="133" x="255.5" y="130"/><rect fill="#F1F1F1" height="10" style="stroke:#181818;stroke-width:0.5;" width="15" x="368.5" y="135"/><rect fill="#F1F1F1" height="2" style="stroke:#181818;stroke-width:0.5;" width="4" x="366.5" y="137"/><rect fill="#F1F1F1" height="2" style="stroke:#181818;stroke-width:0.5;" width="4" x="366.5" y="141"/><text fill="#000000" font-family="sans-serif" font-size="14" lengthAdjust="spacing" textLength="93" x="270.5" y="162.9951">/components</text></g><!--entity module.ts--><g id="elem_module.ts"><rect fill="#F1F1F1" height="46.2969" rx="2.5" ry="2.5" style="stroke:#181818;stroke-width:0.5;" width="109" x="199.5" y="237"/><rect fill="#F1F1F1" height="10" style="stroke:#181818;stroke-width:0.5;" width="15" x="288.5" y="242"/><rect fill="#F1F1F1" height="2" style="stroke:#181818;stroke-width:0.5;" width="4" x="286.5" y="244"/><rect fill="#F1F1F1" height="2" style="stroke:#181818;stroke-width:0.5;" width="4" x="286.5" y="248"/><text fill="#000000" font-family="sans-serif" font-size="14" lengthAdjust="spacing" textLength="69" x="214.5" y="269.9951">module.ts</text></g><!--entity Panel.tsx--><g id="elem_Panel.tsx"><rect fill="#F1F1F1" height="46.2969" rx="2.5" ry="2.5" style="stroke:#181818;stroke-width:0.5;" width="102" x="424" y="130"/><rect fill="#F1F1F1" height="10" style="stroke:#181818;stroke-width:0.5;" width="15" x="506" y="135"/><rect fill="#F1F1F1" height="2" style="stroke:#181818;stroke-width:0.5;" width="4" x="504" y="137"/><rect fill="#F1F1F1" height="2" style="stroke:#181818;stroke-width:0.5;" width="4" x="504" y="141"/><text fill="#000000" font-family="sans-serif" font-size="14" lengthAdjust="spacing" textLength="62" x="439" y="162.9951">Panel.tsx</text></g><!--entity ForceGraph.tsx--><g id="elem_ForceGraph.tsx"><rect fill="#F1F1F1" height="46.2969" rx="2.5" ry="2.5" style="stroke:#181818;stroke-width:0.5;" width="145" x="359.5" y="237"/><rect fill="#F1F1F1" height="10" style="stroke:#181818;stroke-width:0.5;" width="15" x="484.5" y="242"/><rect fill="#F1F1F1" height="2" style="stroke:#181818;stroke-width:0.5;" width="4" x="482.5" y="244"/><rect fill="#F1F1F1" height="2" style="stroke:#181818;stroke-width:0.5;" width="4" x="482.5" y="248"/><text fill="#000000" font-family="sans-serif" font-size="14" lengthAdjust="spacing" textLength="105" x="374.5" y="269.9951">ForceGraph.tsx</text></g><!--entity D3.js--><g id="elem_D3.js"><rect fill="#F1F1F1" height="46.2969" rx="2.5" ry="2.5" style="stroke:#181818;stroke-width:0.5;" width="75" x="394.5" y="344"/><rect fill="#F1F1F1" height="10" style="stroke:#181818;stroke-width:0.5;" width="15" x="449.5" y="349"/><rect fill="#F1F1F1" height="2" style="stroke:#181818;stroke-width:0.5;" width="4" x="447.5" y="351"/><rect fill="#F1F1F1" height="2" style="stroke:#181818;stroke-width:0.5;" width="4" x="447.5" y="355"/><text fill="#000000" font-family="sans-serif" font-size="14" lengthAdjust="spacing" textLength="35" x="409.5" y="376.9951">D3.js</text></g><!--reverse link React to ott-vis--><g id="link_React_ott-vis"><path d="M74.93,56.6 C98.67,78.36 132.39,109.27 154.94,129.95 " fill="none" id="React-backto-ott-vis" style="stroke:#181818;stroke-width:1.0;stroke-dasharray:7.0,7.0;"/><polygon fill="#181818" points="71.21,53.19,75.132,62.2243,74.8922,56.5725,80.544,56.3327,71.21,53.19" style="stroke:#181818;stroke-width:1.0;"/></g><!--reverse link TypeScript to ott-vis--><g id="link_TypeScript_ott-vis"><path d="M179,58.23 C179,79.88 179,109.78 179,129.95 " fill="none" id="TypeScript-backto-ott-vis" style="stroke:#181818;stroke-width:1.0;stroke-dasharray:7.0,7.0;"/><polygon fill="#181818" points="179,53.19,175,62.19,179,58.19,183,62.19,179,53.19" style="stroke:#181818;stroke-width:1.0;"/><text fill="#000000" font-family="sans-serif" font-size="13" lengthAdjust="spacing" textLength="30" x="180" y="96.0669">uses</text></g><!--reverse link Grafana to ott-vis--><g id="link_Grafana_ott-vis"><path d="M287.8,56.6 C262.98,78.36 227.73,109.27 204.15,129.95 " fill="none" id="Grafana-backto-ott-vis" style="stroke:#181818;stroke-width:1.0;stroke-dasharray:7.0,7.0;"/><polygon fill="#181818" points="291.69,53.19,282.2765,56.086,287.92,56.4744,287.5316,62.1179,291.69,53.19" style="stroke:#181818;stroke-width:1.0;"/></g><!--reverse link ott-vis to /components--><g id="link_ott-vis_/components"><path d="M233.07,153 C240.55,153 248.02,153 255.5,153 " fill="none" id="ott-vis-backto-/components" style="stroke:#181818;stroke-width:1.0;"/><polygon fill="none" points="220.06,153,226.06,157,232.06,153,226.06,149,220.06,153" style="stroke:#181818;stroke-width:1.0;"/></g><!--reverse link ott-vis to module.ts--><g id="link_ott-vis_module.ts"><path d="M202.35,186.68 C213.94,202.92 227.66,222.12 238.04,236.66 " fill="none" id="ott-vis-backto-module.ts" style="stroke:#181818;stroke-width:1.0;"/><polygon fill="none" points="194.72,176.01,194.9488,183.2175,201.6899,185.7784,201.4611,178.5709,194.72,176.01" style="stroke:#181818;stroke-width:1.0;"/></g><!--reverse link /components to Panel.tsx--><g id="link_/components_Panel.tsx"><path d="M401.8,153 C409.1,153 416.41,153 423.72,153 " fill="none" id="/components-backto-Panel.tsx" style="stroke:#181818;stroke-width:1.0;"/><polygon fill="none" points="388.64,153,394.64,157,400.64,153,394.64,149,388.64,153" style="stroke:#181818;stroke-width:1.0;"/></g><!--reverse link /components to ForceGraph.tsx--><g id="link_/components_ForceGraph.tsx"><path d="M354.78,185.29 C372.09,201.81 392.93,221.7 408.59,236.66 " fill="none" id="/components-backto-ForceGraph.tsx" style="stroke:#181818;stroke-width:1.0;"/><polygon fill="none" points="345.06,176.01,346.6387,183.0462,353.7409,184.2951,352.1621,177.2589,345.06,176.01" style="stroke:#181818;stroke-width:1.0;"/></g><!--reverse link Panel.tsx to ForceGraph.tsx--><g id="link_Panel.tsx_ForceGraph.tsx"><path d="M464.05,180.75 C456.96,198.05 447.85,220.3 441.15,236.66 " fill="none" id="Panel.tsx-backto-ForceGraph.tsx" style="stroke:#181818;stroke-width:1.0;stroke-dasharray:7.0,7.0;"/><polygon fill="#181818" points="465.99,176.01,458.89,182.8356,464.1035,180.6405,466.2987,185.854,465.99,176.01" style="stroke:#181818;stroke-width:1.0;"/></g><!--reverse link Panel.tsx to module.ts--><g id="link_Panel.tsx_module.ts"><path d="M423.74,178.35 C386.57,196.01 336.71,219.71 300.65,236.84 " fill="none" id="Panel.tsx-backto-module.ts" style="stroke:#181818;stroke-width:1.0;stroke-dasharray:7.0,7.0;"/><polygon fill="#181818" points="428.67,176.01,418.8249,176.2813,424.1586,178.1658,422.2741,183.4995,428.67,176.01" style="stroke:#181818;stroke-width:1.0;"/></g><!--link ForceGraph.tsx to D3.js--><g id="link_ForceGraph.tsx_D3.js"><path d="M432,283.01 C432,299.14 432,321.15 432,338.45 " fill="none" id="ForceGraph.tsx-to-D3.js" style="stroke:#181818;stroke-width:1.0;stroke-dasharray:7.0,7.0;"/><polygon fill="#181818" points="432,343.66,436,334.66,432,338.66,428,334.66,432,343.66" style="stroke:#181818;stroke-width:1.0;"/></g><!--SRC=[YmvAJKmkYLMmqTDJYCulAT4joooEvOeEgIn83KukoYn0brAmKYWjJYtcYdOlIanBp4l4q0bNcA-h4AsVd9zRa9-NcbU28PMRdrAQawe7ba1M1fOCICnBpG7ALM2JTCilIau5Mb-G0LM1K0rn3445o7QZALRGqxDJY7OnriigZWK0]--></g></svg>