<?xml version="1.0" encoding="us-ascii" standalone="no"?><svg xmlns="http://www.w3.org/2000/svg" xmlns:xlink="http://www.w3.org/1999/xlink" contentStyleType="text/css" height="397px" preserveAspectRatio="none" style="width:528px;height:397px;background:#FFFFFF;" version="1.1" viewBox="0 0 528 397" width="528px" zoomAndPan="magnify"><defs/><g><!--entity React--><g id="elem_React"><rect fill="#F1F1F1" height="46.4883" rx="2.5" ry="2.5" style="stroke:#181818;stroke-width:0.5;" width="77" x="7" y="7"/><rect fill="#F1F1F1" height="10" style="stroke:#181818;stroke-width:0.5;" width="15" x="64" y="12"/><rect fill="#F1F1F1" height="2" style="stroke:#181818;stroke-width:0.5;" width="4" x="62" y="14"/><rect fill="#F1F1F1" height="2" style="stroke:#181818;stroke-width:0.5;" width="4" x="62" y="18"/><text fill="#000000" font-family="sans-serif" font-size="14" lengthAdjust="spacing" textLength="37" x="22" y="40.5352">React</text></g><!--entity ott-vis--><g id="elem_ott-vis"><rect fill="#F1F1F1" height="46.4883" rx="2.5" ry="2.5" style="stroke:#181818;stroke-width:0.5;" width="85" x="133" y="130.49"/><rect fill="#F1F1F1" height="10" style="stroke:#181818;stroke-width:0.5;" width="15" x="198" y="135.49"/><rect fill="#F1F1F1" height="2" style="stroke:#181818;stroke-width:0.5;" width="4" x="196" y="137.49"/><rect fill="#F1F1F1" height="2" style="stroke:#181818;stroke-width:0.5;" width="4" x="196" y="141.49"/><text fill="#000000" font-family="sans-serif" font-size="14" lengthAdjust="spacing" textLength="45" x="148" y="164.0252">ott-vis</text></g><!--entity TypeScript--><g id="elem_TypeScript"><rect fill="#F1F1F1" height="46.4883" rx="2.5" ry="2.5" style="stroke:#181818;stroke-width:0.5;" width="112" x="119.5" y="7"/><rect fill="#F1F1F1" height="10" style="stroke:#181818;stroke-width:0.5;" width="15" x="211.5" y="12"/><rect fill="#F1F1F1" height="2" style="stroke:#181818;stroke-width:0.5;" width="4" x="209.5" y="14"/><rect fill="#F1F1F1" height="2" style="stroke:#181818;stroke-width:0.5;" width="4" x="209.5" y="18"/><text fill="#000000" font-family="sans-serif" font-size="14" lengthAdjust="spacing" textLength="72" x="134.5" y="40.5352">TypeScript</text></g><!--entity Grafana--><g id="elem_Grafana"><rect fill="#F1F1F1" height="46.4883" rx="2.5" ry="2.5" style="stroke:#181818;stroke-width:0.5;" width="94" x="266.5" y="7"/><rect fill="#F1F1F1" height="10" style="stroke:#181818;stroke-width:0.5;" width="15" x="340.5" y="12"/><rect fill="#F1F1F1" height="2" style="stroke:#181818;stroke-width:0.5;" width="4" x="338.5" y="14"/><rect fill="#F1F1F1" height="2" style="stroke:#181818;stroke-width:0.5;" width="4" x="338.5" y="18"/><text fill="#000000" font-family="sans-serif" font-size="14" lengthAdjust="spacing" textLength="54" x="281.5" y="40.5352">Grafana</text></g><!--entity /components--><g id="elem_/components"><rect fill="#F1F1F1" height="46.4883" rx="2.5" ry="2.5" style="stroke:#181818;stroke-width:0.5;" width="132" x="253.5" y="130.49"/><rect fill="#F1F1F1" height="10" style="stroke:#181818;stroke-width:0.5;" width="15" x="365.5" y="135.49"/><rect fill="#F1F1F1" height="2" style="stroke:#181818;stroke-width:0.5;" width="4" x="363.5" y="137.49"/><rect fill="#F1F1F1" height="2" style="stroke:#181818;stroke-width:0.5;" width="4" x="363.5" y="141.49"/><text fill="#000000" font-family="sans-serif" font-size="14" lengthAdjust="spacing" textLength="92" x="268.5" y="164.0252">/components</text></g><!--entity module.ts--><g id="elem_module.ts"><rect fill="#F1F1F1" height="46.4883" rx="2.5" ry="2.5" style="stroke:#181818;stroke-width:0.5;" width="108" x="196.5" y="237.97"/><rect fill="#F1F1F1" height="10" style="stroke:#181818;stroke-width:0.5;" width="15" x="284.5" y="242.97"/><rect fill="#F1F1F1" height="2" style="stroke:#181818;stroke-width:0.5;" width="4" x="282.5" y="244.97"/><rect fill="#F1F1F1" height="2" style="stroke:#181818;stroke-width:0.5;" width="4" x="282.5" y="248.97"/><text fill="#000000" font-family="sans-serif" font-size="14" lengthAdjust="spacing" textLength="68" x="211.5" y="271.5052">module.ts</text></g><!--entity Panel.tsx--><g id="elem_Panel.tsx"><rect fill="#F1F1F1" height="46.4883" rx="2.5" ry="2.5" style="stroke:#181818;stroke-width:0.5;" width="102" x="420.5" y="130.49"/><rect fill="#F1F1F1" height="10" style="stroke:#181818;stroke-width:0.5;" width="15" x="502.5" y="135.49"/><rect fill="#F1F1F1" height="2" style="stroke:#181818;stroke-width:0.5;" width="4" x="500.5" y="137.49"/><rect fill="#F1F1F1" height="2" style="stroke:#181818;stroke-width:0.5;" width="4" x="500.5" y="141.49"/><text fill="#000000" font-family="sans-serif" font-size="14" lengthAdjust="spacing" textLength="62" x="435.5" y="164.0252">Panel.tsx</text></g><!--entity ForceGraph.tsx--><g id="elem_ForceGraph.tsx"><rect fill="#F1F1F1" height="46.4883" rx="2.5" ry="2.5" style="stroke:#181818;stroke-width:0.5;" width="145" x="356" y="237.97"/><rect fill="#F1F1F1" height="10" style="stroke:#181818;stroke-width:0.5;" width="15" x="481" y="242.97"/><rect fill="#F1F1F1" height="2" style="stroke:#181818;stroke-width:0.5;" width="4" x="479" y="244.97"/><rect fill="#F1F1F1" height="2" style="stroke:#181818;stroke-width:0.5;" width="4" x="479" y="248.97"/><text fill="#000000" font-family="sans-serif" font-size="14" lengthAdjust="spacing" textLength="105" x="371" y="271.5052">ForceGraph.tsx</text></g><!--entity D3.js--><g id="elem_D3.js"><rect fill="#F1F1F1" height="46.4883" rx="2.5" ry="2.5" style="stroke:#181818;stroke-width:0.5;" width="74" x="391.5" y="345.46"/><rect fill="#F1F1F1" height="10" style="stroke:#181818;stroke-width:0.5;" width="15" x="445.5" y="350.46"/><rect fill="#F1F1F1" height="2" style="stroke:#181818;stroke-width:0.5;" width="4" x="443.5" y="352.46"/><rect fill="#F1F1F1" height="2" style="stroke:#181818;stroke-width:0.5;" width="4" x="443.5" y="356.46"/><text fill="#000000" font-family="sans-serif" font-size="14" lengthAdjust="spacing" textLength="34" x="406.5" y="378.9952">D3.js</text></g><!--reverse link React to ott-vis--><g id="link_React_ott-vis"><path d="M74.16,58.02 C97.35,79.69 129.63,109.86 151.48,130.28 " fill="none" id="React-backto-ott-vis" style="stroke:#181818;stroke-width:1.0;stroke-dasharray:7.0,7.0;"/><polygon fill="#181818" points="70.75,54.84,74.5813,63.9131,74.3981,58.2592,80.052,58.0761,70.75,54.84" style="stroke:#181818;stroke-width:1.0;"/></g><!--reverse link TypeScript to ott-vis--><g id="link_TypeScript_ott-vis"><path d="M175.5,60.22 C175.5,81.69 175.5,110.55 175.5,130.28 " fill="none" id="TypeScript-backto-ott-vis" style="stroke:#181818;stroke-width:1.0;stroke-dasharray:7.0,7.0;"/><polygon fill="#181818" points="175.5,55.32,171.5,64.32,175.5,60.32,179.5,64.32,175.5,55.32" style="stroke:#181818;stroke-width:1.0;"/><text fill="#000000" font-family="sans-serif" font-size="13" lengthAdjust="spacing" textLength="29" x="176.5" y="97.0584">uses</text></g><!--reverse link Grafana to ott-vis--><g id="link_Grafana_ott-vis"><path d="M283.08,58.02 C258.46,79.69 224.19,109.86 201,130.28 " fill="none" id="Grafana-backto-ott-vis" style="stroke:#181818;stroke-width:1.0;stroke-dasharray:7.0,7.0;"/><polygon fill="#181818" points="286.73,54.81,277.3339,57.7617,282.9796,58.1167,282.6246,63.7624,286.73,54.81" style="stroke:#181818;stroke-width:1.0;"/></g><!--reverse link ott-vis to /components--><g id="link_ott-vis_/components"><path d="M232.66,153.73 C239.46,153.73 246.26,153.73 253.05,153.73 " fill="none" id="ott-vis-backto-/components" style="stroke:#181818;stroke-width:1.0;"/><polygon fill="none" points="219.76,153.73,225.76,157.73,231.76,153.73,225.76,149.73,219.76,153.73" style="stroke:#181818;stroke-width:1.0;"/></g><!--reverse link ott-vis to module.ts--><g id="link_ott-vis_module.ts"><path d="M199.82,188.94 C211.17,204.9 224.36,223.45 234.44,237.63 " fill="none" id="ott-vis-backto-module.ts" style="stroke:#181818;stroke-width:1.0;"/><polygon fill="none" points="192.47,178.59,192.6832,185.798,199.4186,188.3735,199.2055,181.1655,192.47,178.59" style="stroke:#181818;stroke-width:1.0;"/></g><!--reverse link /components to Panel.tsx--><g id="link_/components_Panel.tsx"><path d="M400,153.73 C406.74,153.73 413.48,153.73 420.22,153.73 " fill="none" id="/components-backto-Panel.tsx" style="stroke:#181818;stroke-width:1.0;"/><polygon fill="none" points="387.22,153.73,393.22,157.73,399.22,153.73,393.22,149.73,387.22,153.73" style="stroke:#181818;stroke-width:1.0;"/></g><!--reverse link /components to ForceGraph.tsx--><g id="link_/components_ForceGraph.tsx"><path d="M352.92,187.08 C369.83,203.44 389.93,222.89 405.16,237.63 " fill="none" id="/components-backto-ForceGraph.tsx" style="stroke:#181818;stroke-width:1.0;"/><polygon fill="none" points="343.97,178.41,345.4994,185.4571,352.5926,186.7557,351.0632,179.7087,343.97,178.41" style="stroke:#181818;stroke-width:1.0;"/></g><!--reverse link Panel.tsx to ForceGraph.tsx--><g id="link_Panel.tsx_ForceGraph.tsx"><path d="M459.98,182.98 C453.01,200.1 444.22,221.64 437.71,237.63 " fill="none" id="Panel.tsx-backto-ForceGraph.tsx" style="stroke:#181818;stroke-width:1.0;stroke-dasharray:7.0,7.0;"/><polygon fill="#181818" points="461.7,178.76,454.6,185.5856,459.8135,183.3905,462.0087,188.604,461.7,178.76" style="stroke:#181818;stroke-width:1.0;"/></g><!--reverse link Panel.tsx to module.ts--><g id="link_Panel.tsx_module.ts"><path d="M418.3,180.12 C381.59,197.65 333.21,220.74 297.83,237.63 " fill="none" id="Panel.tsx-backto-module.ts" style="stroke:#181818;stroke-width:1.0;stroke-dasharray:7.0,7.0;"/><polygon fill="#181818" points="422.72,178.01,412.8752,178.2934,418.2113,180.1713,416.3333,185.5074,422.72,178.01" style="stroke:#181818;stroke-width:1.0;"/></g><!--link ForceGraph.tsx to D3.js--><g id="link_ForceGraph.tsx_D3.js"><path d="M428.5,284.85 C428.5,300.7 428.5,322.01 428.5,339.05 " fill="none" id="ForceGraph.tsx-to-D3.js" style="stroke:#181818;stroke-width:1.0;stroke-dasharray:7.0,7.0;"/><polygon fill="#181818" points="428.5,343.6,432.5,334.6,428.5,338.6,424.5,334.6,428.5,343.6" style="stroke:#181818;stroke-width:1.0;"/></g><!--SRC=[YmvAJKmkYLMmqTDJYCulAT4joooEvOeEgIn83KukoYn0brAmKYWjJYtcYdOlIanBp4l4q0bNcA-h4AsVd9zRa9-NcbU28PMRdrAQawe7ba1M1fOCICnBpG7ALM2JTCilIau5Mb-G0LM1K0rn3445o7QZALRGqxDJY7OnriigZWK0]--></g></svg>