<?xml version="1.0" encoding="us-ascii" standalone="no"?><svg xmlns="http://www.w3.org/2000/svg" xmlns:xlink="http://www.w3.org/1999/xlink" contentStyleType="text/css" height="289px" preserveAspectRatio="none" style="width:331px;height:289px;background:#FFFFFF;" version="1.1" viewBox="0 0 331 289" width="331px" zoomAndPan="magnify"><defs/><g><!--entity React--><g id="elem_React"><rect fill="#F1F1F1" height="46.2969" rx="2.5" ry="2.5" style="stroke:#181818;stroke-width:0.5;" width="80" x="71.5" y="7"/><rect fill="#F1F1F1" height="10" style="stroke:#181818;stroke-width:0.5;" width="15" x="131.5" y="12"/><rect fill="#F1F1F1" height="2" style="stroke:#181818;stroke-width:0.5;" width="4" x="129.5" y="14"/><rect fill="#F1F1F1" height="2" style="stroke:#181818;stroke-width:0.5;" width="4" x="129.5" y="18"/><text fill="#000000" font-family="sans-serif" font-size="14" lengthAdjust="spacing" textLength="40" x="86.5" y="39.9951">React</text></g><!--entity Grafana--><g id="elem_Grafana"><rect fill="#F1F1F1" height="46.2969" rx="2.5" ry="2.5" style="stroke:#181818;stroke-width:0.5;" width="93" x="7" y="114"/><rect fill="#F1F1F1" height="10" style="stroke:#181818;stroke-width:0.5;" width="15" x="80" y="119"/><rect fill="#F1F1F1" height="2" style="stroke:#181818;stroke-width:0.5;" width="4" x="78" y="121"/><rect fill="#F1F1F1" height="2" style="stroke:#181818;stroke-width:0.5;" width="4" x="78" y="125"/><text fill="#000000" font-family="sans-serif" font-size="14" lengthAdjust="spacing" textLength="53" x="22" y="146.9951">Grafana</text></g><!--entity D3.js--><g id="elem_D3.js"><rect fill="#F1F1F1" height="46.2969" rx="2.5" ry="2.5" style="stroke:#181818;stroke-width:0.5;" width="75" x="74" y="237"/><rect fill="#F1F1F1" height="10" style="stroke:#181818;stroke-width:0.5;" width="15" x="129" y="242"/><rect fill="#F1F1F1" height="2" style="stroke:#181818;stroke-width:0.5;" width="4" x="127" y="244"/><rect fill="#F1F1F1" height="2" style="stroke:#181818;stroke-width:0.5;" width="4" x="127" y="248"/><text fill="#000000" font-family="sans-serif" font-size="14" lengthAdjust="spacing" textLength="35" x="89" y="269.9951">D3.js</text></g><!--reverse link React to Grafana--><g id="link_React_Grafana"><path d="M96.72,57.75 C87.17,75.05 74.87,97.3 65.84,113.66 " fill="none" id="React-backto-Grafana" style="stroke:#181818;stroke-width:1.0;stroke-dasharray:7.0,7.0;"/><polygon fill="#181818" points="99.34,53.01,91.4956,58.9653,96.9288,57.3902,98.5039,62.8233,99.34,53.01" style="stroke:#181818;stroke-width:1.0;"/></g><!--reverse link React to D3.js--><g id="link_React_D3.js"><path d="M125.49,57.57 C141.95,92.41 165.05,155.19 148.5,207 C145.06,217.77 138.49,228.21 131.83,236.87 " fill="none" id="React-backto-D3.js" style="stroke:#181818;stroke-width:1.0;stroke-dasharray:7.0,7.0;"/><polygon fill="#181818" points="123.32,53.05,123.5913,62.8951,125.4758,57.5614,130.8095,59.4459,123.32,53.05" style="stroke:#181818;stroke-width:1.0;"/><text fill="#000000" font-family="sans-serif" font-size="13" lengthAdjust="spacing" textLength="168" x="155.5" y="141.5669">Dependency for Web Apps</text></g><!--reverse link Grafana to D3.js--><g id="link_Grafana_D3.js"><path d="M65.12,164.81 C70.8,177.65 77.83,193.21 84.5,207 C89.28,216.89 94.84,227.69 99.66,236.87 " fill="none" id="Grafana-backto-D3.js" style="stroke:#181818;stroke-width:1.0;stroke-dasharray:7.0,7.0;"/><polygon fill="#181818" points="63.1,160.21,63.0685,170.0588,65.1161,164.7855,70.3894,166.8331,63.1,160.21" style="stroke:#181818;stroke-width:1.0;"/><text fill="#000000" font-family="sans-serif" font-size="13" lengthAdjust="spacing" textLength="58" x="85.5" y="203.0669">&#171;merge&#187;</text></g><!--SRC=[YmvAJKmkYLMmqTDJY7OlIanBp4kCvOf65dKnriigZbMmKd19BKZDIqdDIwvKICilKWXFJL9mB2WeveBhGrDlOvERMfIUQcS70000]--></g></svg>