<?xml version="1.0" encoding="us-ascii" standalone="no"?><svg xmlns="http://www.w3.org/2000/svg" xmlns:xlink="http://www.w3.org/1999/xlink" contentStyleType="text/css" height="408px" preserveAspectRatio="none" style="width:598px;height:408px;background:#FFFFFF;" version="1.1" viewBox="0 0 598 408" width="598px" zoomAndPan="magnify"><defs/><g><ellipse cx="400.25" cy="20" fill="#222222" rx="10" ry="10" style="stroke:#222222;stroke-width:1.0;"/><rect fill="#F1F1F1" height="33.9688" rx="12.5" ry="12.5" style="stroke:#181818;stroke-width:0.5;" width="167" x="316.75" y="50"/><text fill="#000000" font-family="sans-serif" font-size="12" lengthAdjust="spacing" textLength="147" x="326.75" y="71.1387">HTTP Request Received</text><polygon fill="#F1F1F1" points="331.75,103.9688,468.75,103.9688,480.75,115.9688,468.75,127.9688,331.75,127.9688,319.75,115.9688,331.75,103.9688" style="stroke:#181818;stroke-width:0.5;"/><text fill="#000000" font-family="sans-serif" font-size="11" lengthAdjust="spacing" textLength="137" x="331.75" y="119.7769">Needs to be forwarded?</text><text fill="#000000" font-family="sans-serif" font-size="11" lengthAdjust="spacing" textLength="20" x="299.75" y="113.3745">yes</text><text fill="#000000" font-family="sans-serif" font-size="11" lengthAdjust="spacing" textLength="14" x="480.75" y="113.3745">no</text><polygon fill="#F1F1F1" points="212,137.9688,326,137.9688,338,149.9688,326,161.9688,212,161.9688,200,149.9688,212,137.9688" style="stroke:#181818;stroke-width:0.5;"/><text fill="#000000" font-family="sans-serif" font-size="11" lengthAdjust="spacing" textLength="114" x="212" y="153.7769">Monoliths available?</text><text fill="#000000" font-family="sans-serif" font-size="11" lengthAdjust="spacing" textLength="20" x="180" y="147.3745">yes</text><text fill="#000000" font-family="sans-serif" font-size="11" lengthAdjust="spacing" textLength="14" x="338" y="147.3745">no</text><polygon fill="#F1F1F1" points="114,171.9688,195,171.9688,207,183.9688,195,195.9688,114,195.9688,102,183.9688,114,171.9688" style="stroke:#181818;stroke-width:0.5;"/><text fill="#000000" font-family="sans-serif" font-size="11" lengthAdjust="spacing" textLength="81" x="114" y="187.7769">Is WebSocket?</text><text fill="#000000" font-family="sans-serif" font-size="11" lengthAdjust="spacing" textLength="20" x="82" y="181.3745">yes</text><text fill="#000000" font-family="sans-serif" font-size="11" lengthAdjust="spacing" textLength="14" x="207" y="181.3745">no</text><rect fill="#F1F1F1" height="33.9688" rx="12.5" ry="12.5" style="stroke:#181818;stroke-width:0.5;" width="137" x="11" y="205.9688"/><text fill="#000000" font-family="sans-serif" font-size="12" lengthAdjust="spacing" textLength="117" x="21" y="227.1074">Accept WebSocket</text><rect fill="#F1F1F1" height="33.9688" rx="12.5" ry="12.5" style="stroke:#181818;stroke-width:0.5;" width="123" x="168" y="205.9688"/><text fill="#000000" font-family="sans-serif" font-size="12" lengthAdjust="spacing" textLength="103" x="178" y="227.1074">Forward request</text><polygon fill="#F1F1F1" points="154.5,245.9375,166.5,257.9375,154.5,269.9375,142.5,257.9375,154.5,245.9375" style="stroke:#181818;stroke-width:0.5;"/><rect fill="#F1F1F1" height="33.9688" rx="12.5" ry="12.5" style="stroke:#181818;stroke-width:0.5;" width="125" x="321" y="171.9688"/><text fill="#000000" font-family="sans-serif" font-size="12" lengthAdjust="spacing" textLength="105" x="331" y="193.1074">Return HTTP 502</text><ellipse cx="383.5" cy="251.9375" fill="none" rx="11" ry="11" style="stroke:#222222;stroke-width:1.0;"/><ellipse cx="383.5" cy="251.9375" fill="#222222" rx="6" ry="6" style="stroke:#111111;stroke-width:1.0;"/><rect fill="#F1F1F1" height="33.9688" rx="12.5" ry="12.5" style="stroke:#181818;stroke-width:0.5;" width="111" x="476" y="137.9688"/><text fill="#000000" font-family="sans-serif" font-size="12" lengthAdjust="spacing" textLength="91" x="486" y="159.1074">Serve Request</text><polygon fill="#F1F1F1" points="400.25,279.9375,412.25,291.9375,400.25,303.9375,388.25,291.9375,400.25,279.9375" style="stroke:#181818;stroke-width:0.5;"/><rect fill="#F1F1F1" height="33.9688" rx="12.5" ry="12.5" style="stroke:#181818;stroke-width:0.5;" width="118" x="341.25" y="323.9375"/><text fill="#000000" font-family="sans-serif" font-size="12" lengthAdjust="spacing" textLength="98" x="351.25" y="345.0762">Send Response</text><ellipse cx="400.25" cy="387.9063" fill="none" rx="10" ry="10" style="stroke:#222222;stroke-width:1.5;"/><line style="stroke:#222222;stroke-width:2.5;" x1="394.0628" x2="406.4372" y1="381.7191" y2="394.0934"/><line style="stroke:#222222;stroke-width:2.5;" x1="406.4372" x2="394.0628" y1="381.7191" y2="394.0934"/><line style="stroke:#181818;stroke-width:1.0;" x1="400.25" x2="400.25" y1="30" y2="50"/><polygon fill="#181818" points="396.25,40,400.25,50,404.25,40,400.25,44" style="stroke:#181818;stroke-width:1.0;"/><line style="stroke:#181818;stroke-width:1.0;" x1="102" x2="79.5" y1="183.9688" y2="183.9688"/><line style="stroke:#181818;stroke-width:1.0;" x1="79.5" x2="79.5" y1="183.9688" y2="205.9688"/><polygon fill="#181818" points="75.5,195.9688,79.5,205.9688,83.5,195.9688,79.5,199.9688" style="stroke:#181818;stroke-width:1.0;"/><line style="stroke:#181818;stroke-width:1.0;" x1="207" x2="229.5" y1="183.9688" y2="183.9688"/><line style="stroke:#181818;stroke-width:1.0;" x1="229.5" x2="229.5" y1="183.9688" y2="205.9688"/><polygon fill="#181818" points="225.5,195.9688,229.5,205.9688,233.5,195.9688,229.5,199.9688" style="stroke:#181818;stroke-width:1.0;"/><line style="stroke:#181818;stroke-width:1.0;" x1="79.5" x2="79.5" y1="239.9375" y2="257.9375"/><line style="stroke:#181818;stroke-width:1.0;" x1="79.5" x2="142.5" y1="257.9375" y2="257.9375"/><polygon fill="#181818" points="132.5,253.9375,142.5,257.9375,132.5,261.9375,136.5,257.9375" style="stroke:#181818;stroke-width:1.0;"/><line style="stroke:#181818;stroke-width:1.0;" x1="229.5" x2="229.5" y1="239.9375" y2="257.9375"/><line style="stroke:#181818;stroke-width:1.0;" x1="229.5" x2="166.5" y1="257.9375" y2="257.9375"/><polygon fill="#181818" points="176.5,253.9375,166.5,257.9375,176.5,261.9375,172.5,257.9375" style="stroke:#181818;stroke-width:1.0;"/><line style="stroke:#181818;stroke-width:1.0;" x1="383.5" x2="383.5" y1="205.9375" y2="240.9375"/><polygon fill="#181818" points="379.5,230.9375,383.5,240.9375,387.5,230.9375,383.5,234.9375" style="stroke:#181818;stroke-width:1.0;"/><line style="stroke:#181818;stroke-width:1.0;" x1="200" x2="154.5" y1="149.9688" y2="149.9688"/><line style="stroke:#181818;stroke-width:1.0;" x1="154.5" x2="154.5" y1="149.9688" y2="171.9688"/><polygon fill="#181818" points="150.5,161.9688,154.5,171.9688,158.5,161.9688,154.5,165.9688" style="stroke:#181818;stroke-width:1.0;"/><line style="stroke:#181818;stroke-width:1.0;" x1="338" x2="383.5" y1="149.9688" y2="149.9688"/><line style="stroke:#181818;stroke-width:1.0;" x1="383.5" x2="383.5" y1="149.9688" y2="171.9688"/><polygon fill="#181818" points="379.5,161.9688,383.5,171.9688,387.5,161.9688,383.5,165.9688" style="stroke:#181818;stroke-width:1.0;"/><line style="stroke:#181818;stroke-width:1.0;" x1="154.5" x2="154.5" y1="269.9375" y2="291.9375"/><line style="stroke:#181818;stroke-width:1.0;" x1="154.5" x2="388.25" y1="291.9375" y2="291.9375"/><polygon fill="#181818" points="378.25,287.9375,388.25,291.9375,378.25,295.9375,382.25,291.9375" style="stroke:#181818;stroke-width:1.0;"/><line style="stroke:#181818;stroke-width:1.0;" x1="319.75" x2="269" y1="115.9688" y2="115.9688"/><line style="stroke:#181818;stroke-width:1.0;" x1="269" x2="269" y1="115.9688" y2="137.9688"/><polygon fill="#181818" points="265,127.9688,269,137.9688,273,127.9688,269,131.9688" style="stroke:#181818;stroke-width:1.0;"/><line style="stroke:#181818;stroke-width:1.0;" x1="480.75" x2="531.5" y1="115.9688" y2="115.9688"/><line style="stroke:#181818;stroke-width:1.0;" x1="531.5" x2="531.5" y1="115.9688" y2="137.9688"/><polygon fill="#181818" points="527.5,127.9688,531.5,137.9688,535.5,127.9688,531.5,131.9688" style="stroke:#181818;stroke-width:1.0;"/><line style="stroke:#181818;stroke-width:1.0;" x1="531.5" x2="531.5" y1="171.9375" y2="291.9375"/><line style="stroke:#181818;stroke-width:1.0;" x1="531.5" x2="412.25" y1="291.9375" y2="291.9375"/><polygon fill="#181818" points="422.25,287.9375,412.25,291.9375,422.25,295.9375,418.25,291.9375" style="stroke:#181818;stroke-width:1.0;"/><line style="stroke:#181818;stroke-width:1.0;" x1="400.25" x2="400.25" y1="83.9688" y2="103.9688"/><polygon fill="#181818" points="396.25,93.9688,400.25,103.9688,404.25,93.9688,400.25,97.9688" style="stroke:#181818;stroke-width:1.0;"/><line style="stroke:#181818;stroke-width:1.0;" x1="400.25" x2="400.25" y1="303.9375" y2="323.9375"/><polygon fill="#181818" points="396.25,313.9375,400.25,323.9375,404.25,313.9375,400.25,317.9375" style="stroke:#181818;stroke-width:1.0;"/><line style="stroke:#181818;stroke-width:1.0;" x1="400.25" x2="400.25" y1="357.9063" y2="377.9063"/><polygon fill="#181818" points="396.25,367.9063,400.25,377.9063,404.25,367.9063,400.25,371.9063" style="stroke:#181818;stroke-width:1.0;"/><!--SRC=[NS-z3e9040JWcdkABQ4p9ZPG61kZXSOWYVN13U4YkSFR5UFRYw3nfzfazYjcM7GGbMwAua0vBbUm3BU2xM4oPMkAzu1X4aybgFRXfeE1MIOa3Hp5Tt2YegVRUUTRAmsJxhLjTTdYJuriotH2UVJL6VB_Zz9LLQ6JZyY652s3OkSdiPugK9ZAZi0PMwiVb-QGQt0qxbhCva_6uZlrmbysFIBqU8_Fr0I6r9aXvCuxnfW-0000]--></g></svg>