<?xml version="1.0" encoding="us-ascii" standalone="no"?><svg xmlns="http://www.w3.org/2000/svg" xmlns:xlink="http://www.w3.org/1999/xlink" contentStyleType="text/css" height="409px" preserveAspectRatio="none" style="width:566px;height:409px;background:#FFFFFF;" version="1.1" viewBox="0 0 566 409" width="566px" zoomAndPan="magnify"><defs/><g><ellipse cx="378.375" cy="20" fill="#222222" rx="10" ry="10" style="stroke:#222222;stroke-width:1.0;"/><rect fill="#F1F1F1" height="34.1328" rx="12.5" ry="12.5" style="stroke:#181818;stroke-width:0.5;" width="159" x="298.875" y="50"/><text fill="#000000" font-family="sans-serif" font-size="12" lengthAdjust="spacing" textLength="139" x="308.875" y="71.6016">HTTP Request Received</text><polygon fill="#F1F1F1" points="315.375,104.1328,441.375,104.1328,453.375,116.1328,441.375,128.1328,315.375,128.1328,303.375,116.1328,315.375,104.1328" style="stroke:#181818;stroke-width:0.5;"/><text fill="#000000" font-family="sans-serif" font-size="11" lengthAdjust="spacing" textLength="126" x="315.375" y="120.29">Needs to be forwarded?</text><text fill="#000000" font-family="sans-serif" font-size="11" lengthAdjust="spacing" textLength="18" x="285.375" y="113.8125">yes</text><text fill="#000000" font-family="sans-serif" font-size="11" lengthAdjust="spacing" textLength="14" x="453.375" y="113.8125">no</text><polygon fill="#F1F1F1" points="199.25,138.1328,306.25,138.1328,318.25,150.1328,306.25,162.1328,199.25,162.1328,187.25,150.1328,199.25,138.1328" style="stroke:#181818;stroke-width:0.5;"/><text fill="#000000" font-family="sans-serif" font-size="11" lengthAdjust="spacing" textLength="107" x="199.25" y="154.29">Monoliths available?</text><text fill="#000000" font-family="sans-serif" font-size="11" lengthAdjust="spacing" textLength="18" x="169.25" y="147.8125">yes</text><text fill="#000000" font-family="sans-serif" font-size="11" lengthAdjust="spacing" textLength="14" x="318.25" y="147.8125">no</text><polygon fill="#F1F1F1" points="106.5,172.1328,180.5,172.1328,192.5,184.1328,180.5,196.1328,106.5,196.1328,94.5,184.1328,106.5,172.1328" style="stroke:#181818;stroke-width:0.5;"/><text fill="#000000" font-family="sans-serif" font-size="11" lengthAdjust="spacing" textLength="74" x="106.5" y="188.29">Is WebSocket?</text><text fill="#000000" font-family="sans-serif" font-size="11" lengthAdjust="spacing" textLength="18" x="76.5" y="181.8125">yes</text><text fill="#000000" font-family="sans-serif" font-size="11" lengthAdjust="spacing" textLength="14" x="192.5" y="181.8125">no</text><rect fill="#F1F1F1" height="34.1328" rx="12.5" ry="12.5" style="stroke:#181818;stroke-width:0.5;" width="125" x="11" y="206.1328"/><text fill="#000000" font-family="sans-serif" font-size="12" lengthAdjust="spacing" textLength="105" x="21" y="227.7344">Accept WebSocket</text><rect fill="#F1F1F1" height="34.1328" rx="12.5" ry="12.5" style="stroke:#181818;stroke-width:0.5;" width="115" x="156" y="206.1328"/><text fill="#000000" font-family="sans-serif" font-size="12" lengthAdjust="spacing" textLength="95" x="166" y="227.7344">Forward request</text><polygon fill="#F1F1F1" points="143.5,246.2656,155.5,258.2656,143.5,270.2656,131.5,258.2656,143.5,246.2656" style="stroke:#181818;stroke-width:0.5;"/><rect fill="#F1F1F1" height="34.1328" rx="12.5" ry="12.5" style="stroke:#181818;stroke-width:0.5;" width="122" x="301" y="172.1328"/><text fill="#000000" font-family="sans-serif" font-size="12" lengthAdjust="spacing" textLength="102" x="311" y="193.7344">Return HTTP 502</text><ellipse cx="362" cy="252.2656" fill="none" rx="11" ry="11" style="stroke:#222222;stroke-width:1.0;"/><ellipse cx="362" cy="252.2656" fill="#222222" rx="6" ry="6" style="stroke:#111111;stroke-width:1.0;"/><rect fill="#F1F1F1" height="34.1328" rx="12.5" ry="12.5" style="stroke:#181818;stroke-width:0.5;" width="102" x="453" y="138.1328"/><text fill="#000000" font-family="sans-serif" font-size="12" lengthAdjust="spacing" textLength="82" x="463" y="159.7344">Serve Request</text><polygon fill="#F1F1F1" points="378.375,280.2656,390.375,292.2656,378.375,304.2656,366.375,292.2656,378.375,280.2656" style="stroke:#181818;stroke-width:0.5;"/><rect fill="#F1F1F1" height="34.1328" rx="12.5" ry="12.5" style="stroke:#181818;stroke-width:0.5;" width="108" x="324.375" y="324.2656"/><text fill="#000000" font-family="sans-serif" font-size="12" lengthAdjust="spacing" textLength="88" x="334.375" y="345.8672">Send Response</text><ellipse cx="378.375" cy="388.3984" fill="none" rx="10" ry="10" style="stroke:#222222;stroke-width:1.5;"/><line style="stroke:#222222;stroke-width:2.5;" x1="372.1878" x2="384.5622" y1="382.2113" y2="394.5856"/><line style="stroke:#222222;stroke-width:2.5;" x1="384.5622" x2="372.1878" y1="382.2113" y2="394.5856"/><line style="stroke:#181818;stroke-width:1.0;" x1="378.375" x2="378.375" y1="30" y2="50"/><polygon fill="#181818" points="374.375,40,378.375,50,382.375,40,378.375,44" style="stroke:#181818;stroke-width:1.0;"/><line style="stroke:#181818;stroke-width:1.0;" x1="94.5" x2="73.5" y1="184.1328" y2="184.1328"/><line style="stroke:#181818;stroke-width:1.0;" x1="73.5" x2="73.5" y1="184.1328" y2="206.1328"/><polygon fill="#181818" points="69.5,196.1328,73.5,206.1328,77.5,196.1328,73.5,200.1328" style="stroke:#181818;stroke-width:1.0;"/><line style="stroke:#181818;stroke-width:1.0;" x1="192.5" x2="213.5" y1="184.1328" y2="184.1328"/><line style="stroke:#181818;stroke-width:1.0;" x1="213.5" x2="213.5" y1="184.1328" y2="206.1328"/><polygon fill="#181818" points="209.5,196.1328,213.5,206.1328,217.5,196.1328,213.5,200.1328" style="stroke:#181818;stroke-width:1.0;"/><line style="stroke:#181818;stroke-width:1.0;" x1="73.5" x2="73.5" y1="240.2656" y2="258.2656"/><line style="stroke:#181818;stroke-width:1.0;" x1="73.5" x2="131.5" y1="258.2656" y2="258.2656"/><polygon fill="#181818" points="121.5,254.2656,131.5,258.2656,121.5,262.2656,125.5,258.2656" style="stroke:#181818;stroke-width:1.0;"/><line style="stroke:#181818;stroke-width:1.0;" x1="213.5" x2="213.5" y1="240.2656" y2="258.2656"/><line style="stroke:#181818;stroke-width:1.0;" x1="213.5" x2="155.5" y1="258.2656" y2="258.2656"/><polygon fill="#181818" points="165.5,254.2656,155.5,258.2656,165.5,262.2656,161.5,258.2656" style="stroke:#181818;stroke-width:1.0;"/><line style="stroke:#181818;stroke-width:1.0;" x1="362" x2="362" y1="206.2656" y2="241.2656"/><polygon fill="#181818" points="358,231.2656,362,241.2656,366,231.2656,362,235.2656" style="stroke:#181818;stroke-width:1.0;"/><line style="stroke:#181818;stroke-width:1.0;" x1="187.25" x2="143.5" y1="150.1328" y2="150.1328"/><line style="stroke:#181818;stroke-width:1.0;" x1="143.5" x2="143.5" y1="150.1328" y2="172.1328"/><polygon fill="#181818" points="139.5,162.1328,143.5,172.1328,147.5,162.1328,143.5,166.1328" style="stroke:#181818;stroke-width:1.0;"/><line style="stroke:#181818;stroke-width:1.0;" x1="318.25" x2="362" y1="150.1328" y2="150.1328"/><line style="stroke:#181818;stroke-width:1.0;" x1="362" x2="362" y1="150.1328" y2="172.1328"/><polygon fill="#181818" points="358,162.1328,362,172.1328,366,162.1328,362,166.1328" style="stroke:#181818;stroke-width:1.0;"/><line style="stroke:#181818;stroke-width:1.0;" x1="143.5" x2="143.5" y1="270.2656" y2="292.2656"/><line style="stroke:#181818;stroke-width:1.0;" x1="143.5" x2="366.375" y1="292.2656" y2="292.2656"/><polygon fill="#181818" points="356.375,288.2656,366.375,292.2656,356.375,296.2656,360.375,292.2656" style="stroke:#181818;stroke-width:1.0;"/><line style="stroke:#181818;stroke-width:1.0;" x1="303.375" x2="252.75" y1="116.1328" y2="116.1328"/><line style="stroke:#181818;stroke-width:1.0;" x1="252.75" x2="252.75" y1="116.1328" y2="138.1328"/><polygon fill="#181818" points="248.75,128.1328,252.75,138.1328,256.75,128.1328,252.75,132.1328" style="stroke:#181818;stroke-width:1.0;"/><line style="stroke:#181818;stroke-width:1.0;" x1="453.375" x2="504" y1="116.1328" y2="116.1328"/><line style="stroke:#181818;stroke-width:1.0;" x1="504" x2="504" y1="116.1328" y2="138.1328"/><polygon fill="#181818" points="500,128.1328,504,138.1328,508,128.1328,504,132.1328" style="stroke:#181818;stroke-width:1.0;"/><line style="stroke:#181818;stroke-width:1.0;" x1="504" x2="504" y1="172.2656" y2="292.2656"/><line style="stroke:#181818;stroke-width:1.0;" x1="504" x2="390.375" y1="292.2656" y2="292.2656"/><polygon fill="#181818" points="400.375,288.2656,390.375,292.2656,400.375,296.2656,396.375,292.2656" style="stroke:#181818;stroke-width:1.0;"/><line style="stroke:#181818;stroke-width:1.0;" x1="378.375" x2="378.375" y1="84.1328" y2="104.1328"/><polygon fill="#181818" points="374.375,94.1328,378.375,104.1328,382.375,94.1328,378.375,98.1328" style="stroke:#181818;stroke-width:1.0;"/><line style="stroke:#181818;stroke-width:1.0;" x1="378.375" x2="378.375" y1="304.2656" y2="324.2656"/><polygon fill="#181818" points="374.375,314.2656,378.375,324.2656,382.375,314.2656,378.375,318.2656" style="stroke:#181818;stroke-width:1.0;"/><line style="stroke:#181818;stroke-width:1.0;" x1="378.375" x2="378.375" y1="358.3984" y2="378.3984"/><polygon fill="#181818" points="374.375,368.3984,378.375,378.3984,382.375,368.3984,378.375,372.3984" style="stroke:#181818;stroke-width:1.0;"/><!--SRC=[NS-z3e9040JWcdkABQ4p9ZPG61kZXSOWYVN13U4YkSFR5UFRYw3nfzfazYjcM7GGbMwAua0vBbUm3BU2xM4oPMkAzu1X4aybgFRXfeE1MIOa3Hp5Tt2YegVRUUTRAmsJxhLjTTdYJuriotH2UVJL6VB_Zz9LLQ6JZyY652s3OkSdiPugK9ZAZi0PMwiVb-QGQt0qxbhCva_6uZlrmbysFIBqU8_Fr0I6r9aXvCuxnfW-0000]--></g></svg>