<?xml version="1.0" encoding="us-ascii" standalone="no"?><svg xmlns="http://www.w3.org/2000/svg" xmlns:xlink="http://www.w3.org/1999/xlink" contentStyleType="text/css" height="860px" preserveAspectRatio="none" style="width:562px;height:860px;background:#FFFFFF;" version="1.1" viewBox="0 0 562 860" width="562px" zoomAndPan="magnify"><defs/><g><!--cluster Balancer--><g id="cluster_Balancer"><rect fill="none" height="122" rx="2.5" ry="2.5" style="stroke:#181818;stroke-width:1.0;" width="101" x="356" y="187"/><rect fill="none" height="10" style="stroke:#181818;stroke-width:1.0;" width="15" x="437" y="192"/><rect fill="none" height="2" style="stroke:#181818;stroke-width:1.0;" width="4" x="435" y="194"/><rect fill="none" height="2" style="stroke:#181818;stroke-width:1.0;" width="4" x="435" y="198"/><text fill="#000000" font-family="sans-serif" font-size="14" font-weight="bold" lengthAdjust="spacing" textLength="68" x="372.5" y="212.9951">Balancer</text></g><!--cluster BalancerClient--><g id="cluster_BalancerClient"><rect fill="none" height="91" rx="2.5" ry="2.5" style="stroke:#181818;stroke-width:1.0;" width="132" x="394" y="481"/><rect fill="none" height="10" style="stroke:#181818;stroke-width:1.0;" width="15" x="506" y="486"/><rect fill="none" height="2" style="stroke:#181818;stroke-width:1.0;" width="4" x="504" y="488"/><rect fill="none" height="2" style="stroke:#181818;stroke-width:1.0;" width="4" x="504" y="492"/><text fill="#000000" font-family="sans-serif" font-size="14" font-weight="bold" lengthAdjust="spacing" textLength="113" x="403.5" y="506.9951">BalancerClient</text></g><!--cluster BalancerMonolith--><g id="cluster_BalancerMonolith"><rect fill="none" height="227" rx="2.5" ry="2.5" style="stroke:#181818;stroke-width:1.0;" width="219.5" x="104.5" y="395"/><rect fill="none" height="10" style="stroke:#181818;stroke-width:1.0;" width="15" x="304" y="400"/><rect fill="none" height="2" style="stroke:#181818;stroke-width:1.0;" width="4" x="302" y="402"/><rect fill="none" height="2" style="stroke:#181818;stroke-width:1.0;" width="4" x="302" y="406"/><text fill="#000000" font-family="sans-serif" font-size="14" font-weight="bold" lengthAdjust="spacing" textLength="135" x="146.75" y="420.9951">BalancerMonolith</text></g><!--cluster Room--><g id="cluster_Room"><rect fill="none" height="83" rx="2.5" ry="2.5" style="stroke:#181818;stroke-width:1.0;" width="68.5" x="208" y="489"/><rect fill="none" height="10" style="stroke:#181818;stroke-width:1.0;" width="15" x="256.5" y="494"/><rect fill="none" height="2" style="stroke:#181818;stroke-width:1.0;" width="4" x="254.5" y="496"/><rect fill="none" height="2" style="stroke:#181818;stroke-width:1.0;" width="4" x="254.5" y="500"/><text fill="#000000" font-family="sans-serif" font-size="14" font-weight="bold" lengthAdjust="spacing" textLength="44" x="220.25" y="514.9951">Room</text></g><!--cluster BalancerLink--><g id="cluster_BalancerLink"><rect fill="none" height="83" rx="2.5" ry="2.5" style="stroke:#181818;stroke-width:1.0;" width="110" x="353" y="7"/><rect fill="none" height="10" style="stroke:#181818;stroke-width:1.0;" width="15" x="443" y="12"/><rect fill="none" height="2" style="stroke:#181818;stroke-width:1.0;" width="4" x="441" y="14"/><rect fill="none" height="2" style="stroke:#181818;stroke-width:1.0;" width="4" x="441" y="18"/><text fill="#000000" font-family="sans-serif" font-size="14" font-weight="bold" lengthAdjust="spacing" textLength="100" x="358" y="32.9951">BalancerLink</text></g><!--cluster ClientLink--><g id="cluster_ClientLink"><rect fill="none" height="146" rx="2.5" ry="2.5" style="stroke:#181818;stroke-width:1.0;" width="162.5" x="240.5" y="687"/><rect fill="none" height="10" style="stroke:#181818;stroke-width:1.0;" width="15" x="383" y="692"/><rect fill="none" height="2" style="stroke:#181818;stroke-width:1.0;" width="4" x="381" y="694"/><rect fill="none" height="2" style="stroke:#181818;stroke-width:1.0;" width="4" x="381" y="698"/><text fill="#000000" font-family="sans-serif" font-size="14" font-weight="bold" lengthAdjust="spacing" textLength="77" x="283.25" y="712.9951">ClientLink</text></g><text fill="#000000" font-family="sans-serif" font-size="14" lengthAdjust="spacing" textLength="150" x="364" y="165.6982">monolith_message_rx</text><rect fill="#F1F1F1" height="12" style="stroke:#181818;stroke-width:1.5;" width="12" x="433" y="181"/><text fill="#000000" font-family="sans-serif" font-size="14" lengthAdjust="spacing" textLength="69" x="377.5" y="590.9951">unicast_tx</text><rect fill="#F1F1F1" height="12" style="stroke:#181818;stroke-width:1.5;" width="12" x="406" y="566"/><text fill="#000000" font-family="sans-serif" font-size="14" lengthAdjust="spacing" textLength="154" x="45.5" y="373.6982">monolith_outbound_rx</text><rect fill="#F1F1F1" height="12" style="stroke:#181818;stroke-width:1.5;" width="12" x="116.5" y="389"/><text fill="#000000" font-family="sans-serif" font-size="14" lengthAdjust="spacing" textLength="88" x="214.5" y="590.9951">broadcast_tx</text><rect fill="#F1F1F1" height="12" style="stroke:#181818;stroke-width:1.5;" width="12" x="252.5" y="566"/><text fill="#000000" font-family="sans-serif" font-size="14" lengthAdjust="spacing" textLength="150" x="364" y="108.9951">monolith_message_tx</text><rect fill="#F1F1F1" height="12" style="stroke:#181818;stroke-width:1.5;" width="12" x="433" y="84"/><text fill="#000000" font-family="sans-serif" font-size="14" lengthAdjust="spacing" textLength="55" x="235" y="851.9951">room_tx</text><rect fill="#F1F1F1" height="12" style="stroke:#181818;stroke-width:1.5;" width="12" x="256.5" y="827"/><text fill="#000000" font-family="sans-serif" font-size="14" lengthAdjust="spacing" textLength="69" x="350.5" y="665.6982">unicast_rx</text><rect fill="#F1F1F1" height="12" style="stroke:#181818;stroke-width:1.5;" width="12" x="379" y="681"/><text fill="#000000" font-family="sans-serif" font-size="14" lengthAdjust="spacing" textLength="88" x="214.5" y="665.6982">broadcast_rx</text><rect fill="#F1F1F1" height="12" style="stroke:#181818;stroke-width:1.5;" width="12" x="252.5" y="681"/><!--entity BalancerContext--><g id="elem_BalancerContext"><rect fill="#F1F1F1" height="46.2969" rx="2.5" ry="2.5" style="stroke:#181818;stroke-width:0.5;" width="154" x="350" y="372"/><rect fill="#F1F1F1" height="10" style="stroke:#181818;stroke-width:0.5;" width="15" x="484" y="377"/><rect fill="#F1F1F1" height="2" style="stroke:#181818;stroke-width:0.5;" width="4" x="482" y="379"/><rect fill="#F1F1F1" height="2" style="stroke:#181818;stroke-width:0.5;" width="4" x="482" y="383"/><text fill="#000000" font-family="sans-serif" font-size="14" lengthAdjust="spacing" textLength="114" x="365" y="404.9951">BalancerContext</text></g><!--reverse link monolith_outbound_rx to room_tx--><g id="link_monolith_outbound_rx_room_tx"><path d="M111.79,400.71 C82.51,413.85 6,453.9 6,513.5 C6,513.5 6,513.5 6,736 C6,791.13 216.16,825.06 256.39,831.05 " fill="none" id="monolith_outbound_rx-backto-room_tx" style="stroke:#181818;stroke-width:1.0;"/><polygon fill="#181818" points="116.37,398.7,106.5212,398.6685,111.7945,400.7161,109.7469,405.9894,116.37,398.7" style="stroke:#181818;stroke-width:1.0;"/></g><!--link unicast_tx to unicast_rx--><g id="link_unicast_tx_unicast_rx"><path d="M410.77,578.15 C406.61,595.58 392.99,652.56 387.41,675.89 " fill="none" id="unicast_tx-to-unicast_rx" style="stroke:#181818;stroke-width:1.0;"/><polygon fill="#181818" points="386.24,680.82,392.2168,672.992,387.3987,675.9561,384.4346,671.138,386.24,680.82" style="stroke:#181818;stroke-width:1.0;"/></g><!--link broadcast_tx to broadcast_rx--><g id="link_broadcast_tx_broadcast_rx"><path d="M259,578.15 C259,595.5 259,652.08 259,675.6 " fill="none" id="broadcast_tx-to-broadcast_rx" style="stroke:#181818;stroke-width:1.0;"/><polygon fill="#181818" points="259,680.82,263,671.82,259,675.82,255,671.82,259,680.82" style="stroke:#181818;stroke-width:1.0;"/></g><!--link monolith_message_tx to monolith_message_rx--><g id="link_monolith_message_tx_monolith_message_rx"><path d="M439,96.11 C439,111.12 439,155.32 439,175.61 " fill="none" id="monolith_message_tx-to-monolith_message_rx" style="stroke:#181818;stroke-width:1.0;"/><polygon fill="#181818" points="439,180.87,443,171.87,439,175.87,435,171.87,439,180.87" style="stroke:#181818;stroke-width:1.0;"/></g><!--link Balancer to BalancerContext--><g id="link_Balancer_BalancerContext"><path d="M427,309.0331 C427,309.2269 427,309.4212 427,309.6159 C427,310.0054 427,310.3967 427,310.7899 C427,311.5761 427,312.3695 427,313.1693 C427,314.7688 427,316.3939 427,318.0388 C427,331.1975 427,345.62 427,358.33 " fill="none" id="Balancer-to-BalancerContext" style="stroke:#181818;stroke-width:1.0;stroke-dasharray:7.0,7.0;"/><polygon fill="#181818" points="427,371.59,431,365.59,427,359.59,423,365.59,427,371.59" style="stroke:#181818;stroke-width:1.0;"/><text fill="#000000" font-family="sans-serif" font-size="13" lengthAdjust="spacing" textLength="126" x="428" y="338.0669">owns, dispatches to</text></g><!--link BalancerContext to BalancerMonolith--><g id="link_BalancerContext_BalancerMonolith"><path d="M358.2,418.01 C352.76,419.8162 347.1066,421.7089 341.2814,423.6783 C338.3688,424.663 335.4132,425.6669 332.42,426.6887 C330.9233,427.1997 329.4173,427.7151 327.9024,428.2349 C327.145,428.4947 326.3854,428.7557 325.6236,429.0177 C325.2428,429.1488 324.8614,429.28 324.4795,429.4116 " fill="none" id="BalancerContext-to-BalancerMonolith" style="stroke:#181818;stroke-width:1.0;stroke-dasharray:7.0,7.0;"/><polygon fill="#181818" points="324.4795,429.4116,331.4551,431.2395,335.8253,425.5036,328.8497,423.6756,324.4795,429.4116" style="stroke:#181818;stroke-width:1.0;"/><text fill="#000000" font-family="sans-serif" font-size="13" lengthAdjust="spacing" textLength="32" x="268" y="461.0669">owns</text></g><!--link BalancerContext to BalancerClient--><g id="link_BalancerContext_BalancerClient"><path d="M428.88,418.1 C429.995,431.195 431.455,448.3375 432.8288,464.4738 C433.1722,468.5078 433.5102,472.479 433.8362,476.3083 C433.9176,477.2656 433.9984,478.2141 434.0782,479.1525 C434.1181,479.6216 434.1579,480.0883 434.1973,480.5523 C434.2072,480.6683 434.2171,480.7841 434.2269,480.8998 " fill="none" id="BalancerContext-to-BalancerClient" style="stroke:#181818;stroke-width:1.0;stroke-dasharray:7.0,7.0;"/><polygon fill="#181818" points="434.2269,480.8998,437.7038,474.5822,433.2094,468.943,429.7326,475.2605,434.2269,480.8998" style="stroke:#181818;stroke-width:1.0;"/><text fill="#000000" font-family="sans-serif" font-size="13" lengthAdjust="spacing" textLength="32" x="433" y="461.0669">owns</text></g><!--SRC=[VP913e8m44NtFSMiZNW05ovqgnilG4fff15cI3j44-FT1LkWGkEodNdp_-zKKTCIQcGuobgYqXPU0g0bomQX8QJQS9KtsZbvqxbzYhSGQWMTQZCSHvGwXWwDaevp7f0rSGcZat8zNr27vQ3NbsVwIjHyYLcdi2JBKGdWdJPuDdZ_iRUAnejeFjAAixq3hnHCZpbjT3TxyWyM8CZgx91EERyMP6NV54sD0_hYp_X44CXYcMXtgSqHidwo4DF-TxlDiWfxe0UwBPJ6jP9LfHqmYMLNJ4xxzUZVtl1xGkS7]--></g></svg>