<svg aria-roledescription="classDiagram" role="graphics-document document" viewBox="-8 -8 1007.08984375 1307" style="max-width: 1007.09px; background-color: white;" xmlns:xlink="http://www.w3.org/1999/xlink" xmlns="http://www.w3.org/2000/svg" width="100%" id="my-svg"><style>#my-svg{font-family:"trebuchet ms",verdana,arial,sans-serif;font-size:16px;fill:#000000;}#my-svg .error-icon{fill:#552222;}#my-svg .error-text{fill:#552222;stroke:#552222;}#my-svg .edge-thickness-normal{stroke-width:2px;}#my-svg .edge-thickness-thick{stroke-width:3.5px;}#my-svg .edge-pattern-solid{stroke-dasharray:0;}#my-svg .edge-pattern-dashed{stroke-dasharray:3;}#my-svg .edge-pattern-dotted{stroke-dasharray:2;}#my-svg .marker{fill:#666;stroke:#666;}#my-svg .marker.cross{stroke:#666;}#my-svg svg{font-family:"trebuchet ms",verdana,arial,sans-serif;font-size:16px;}#my-svg g.classGroup text{fill:#999;stroke:none;font-family:"trebuchet ms",verdana,arial,sans-serif;font-size:10px;}#my-svg g.classGroup text .title{font-weight:bolder;}#my-svg .nodeLabel,#my-svg .edgeLabel{color:#111111;}#my-svg .edgeLabel .label rect{fill:#eee;}#my-svg .label text{fill:#111111;}#my-svg .edgeLabel .label span{background:#eee;}#my-svg .classTitle{font-weight:bolder;}#my-svg .node rect,#my-svg .node circle,#my-svg .node ellipse,#my-svg .node polygon,#my-svg .node path{fill:#eee;stroke:#999;stroke-width:1px;}#my-svg .divider{stroke:#999;stroke-width:1;}#my-svg g.clickable{cursor:pointer;}#my-svg g.classGroup rect{fill:#eee;stroke:#999;}#my-svg g.classGroup line{stroke:#999;stroke-width:1;}#my-svg .classLabel .box{stroke:none;stroke-width:0;fill:#eee;opacity:0.5;}#my-svg .classLabel .label{fill:#999;font-size:10px;}#my-svg .relation{stroke:#666;stroke-width:1;fill:none;}#my-svg .dashed-line{stroke-dasharray:3;}#my-svg .dotted-line{stroke-dasharray:1 2;}#my-svg #compositionStart,#my-svg .composition{fill:#666!important;stroke:#666!important;stroke-width:1;}#my-svg #compositionEnd,#my-svg .composition{fill:#666!important;stroke:#666!important;stroke-width:1;}#my-svg #dependencyStart,#my-svg .dependency{fill:#666!important;stroke:#666!important;stroke-width:1;}#my-svg #dependencyStart,#my-svg .dependency{fill:#666!important;stroke:#666!important;stroke-width:1;}#my-svg #extensionStart,#my-svg .extension{fill:transparent!important;stroke:#666!important;stroke-width:1;}#my-svg #extensionEnd,#my-svg .extension{fill:transparent!important;stroke:#666!important;stroke-width:1;}#my-svg #aggregationStart,#my-svg .aggregation{fill:transparent!important;stroke:#666!important;stroke-width:1;}#my-svg #aggregationEnd,#my-svg .aggregation{fill:transparent!important;stroke:#666!important;stroke-width:1;}#my-svg #lollipopStart,#my-svg .lollipop{fill:#eee!important;stroke:#666!important;stroke-width:1;}#my-svg #lollipopEnd,#my-svg .lollipop{fill:#eee!important;stroke:#666!important;stroke-width:1;}#my-svg .edgeTerminals{font-size:11px;}#my-svg .classTitleText{text-anchor:middle;font-size:18px;fill:#000000;}#my-svg :root{--mermaid-font-family:"trebuchet ms",verdana,arial,sans-serif;}</style><g><defs><marker orient="auto" markerHeight="240" markerWidth="190" refY="7" refX="18" class="marker aggregation classDiagram" id="my-svg_classDiagram-aggregationStart"><path d="M 18,7 L9,13 L1,7 L9,1 Z"/></marker></defs><defs><marker orient="auto" markerHeight="28" markerWidth="20" refY="7" refX="1" class="marker aggregation classDiagram" id="my-svg_classDiagram-aggregationEnd"><path d="M 18,7 L9,13 L1,7 L9,1 Z"/></marker></defs><defs><marker orient="auto" markerHeight="240" markerWidth="190" refY="7" refX="18" class="marker extension classDiagram" id="my-svg_classDiagram-extensionStart"><path d="M 1,7 L18,13 V 1 Z"/></marker></defs><defs><marker orient="auto" markerHeight="28" markerWidth="20" refY="7" refX="1" class="marker extension classDiagram" id="my-svg_classDiagram-extensionEnd"><path d="M 1,1 V 13 L18,7 Z"/></marker></defs><defs><marker orient="auto" markerHeight="240" markerWidth="190" refY="7" refX="18" class="marker composition classDiagram" id="my-svg_classDiagram-compositionStart"><path d="M 18,7 L9,13 L1,7 L9,1 Z"/></marker></defs><defs><marker orient="auto" markerHeight="28" markerWidth="20" refY="7" refX="1" class="marker composition classDiagram" id="my-svg_classDiagram-compositionEnd"><path d="M 18,7 L9,13 L1,7 L9,1 Z"/></marker></defs><defs><marker orient="auto" markerHeight="240" markerWidth="190" refY="7" refX="6" class="marker dependency classDiagram" id="my-svg_classDiagram-dependencyStart"><path d="M 5,7 L9,13 L1,7 L9,1 Z"/></marker></defs><defs><marker orient="auto" markerHeight="28" markerWidth="20" refY="7" refX="13" class="marker dependency classDiagram" id="my-svg_classDiagram-dependencyEnd"><path d="M 18,7 L9,13 L14,7 L9,1 Z"/></marker></defs><defs><marker orient="auto" markerHeight="240" markerWidth="190" refY="7" refX="13" class="marker lollipop classDiagram" id="my-svg_classDiagram-lollipopStart"><circle r="6" cy="7" cx="7" fill="transparent" stroke="black"/></marker></defs><defs><marker orient="auto" markerHeight="240" markerWidth="190" refY="7" refX="1" class="marker lollipop classDiagram" id="my-svg_classDiagram-lollipopEnd"><circle r="6" cy="7" cx="7" fill="transparent" stroke="black"/></marker></defs><g class="root"><g class="clusters"/><g class="edgePaths"><path marker-end="url(#my-svg_classDiagram-dependencyEnd)" style="fill:none" class="edge-pattern-solid relation" id="id1" d="M349.53125,85L349.53125,90.58333333333333C349.53125,96.16666666666667,349.53125,107.33333333333333,349.53125,119.25C349.53125,131.16666666666666,349.53125,143.83333333333334,349.53125,150.16666666666666L349.53125,156.5"/><path marker-end="url(#my-svg_classDiagram-dependencyEnd)" style="fill:none" class="edge-pattern-solid relation" id="id2" d="M349.53125,239.5L349.53125,246.83333333333334C349.53125,254.16666666666666,349.53125,268.8333333333333,363.0216029939065,285.4164116186704C376.51195598781305,301.9994899040075,403.4926619756261,320.49897980801495,416.98301496953263,329.74872476001866L430.4733679634391,338.9984697120224"/><path marker-end="url(#my-svg_classDiagram-dependencyEnd)" style="fill:none" class="edge-pattern-solid relation" id="id3" d="M657.265625,250L657.265625,255.58333333333334C657.265625,261.1666666666667,657.265625,272.3333333333333,643.7752720060935,287.1664116186704C630.284919012187,301.9994899040075,603.3042130243739,320.49897980801495,589.8138600304674,329.74872476001866L576.3235070365608,338.9984697120224"/><path marker-start="url(#my-svg_classDiagram-compositionStart)" style="fill:none" class="edge-pattern-solid relation" id="id4" d="M503.3984375,704L503.3984375,706.5833333333334C503.3984375,709.1666666666666,503.3984375,714.3333333333334,503.3984375,722.5C503.3984375,730.6666666666666,503.3984375,741.8333333333334,503.3984375,747.4166666666666L503.3984375,753"/><path marker-end="url(#my-svg_classDiagram-dependencyEnd)" marker-start="url(#my-svg_classDiagram-dependencyStart)" style="fill:none" class="edge-pattern-solid relation" id="id5" d="M503.3984375,467L503.3984375,472.9166666666667C503.3984375,478.8333333333333,503.3984375,490.6666666666667,503.3984375,502.5C503.3984375,514.3333333333334,503.3984375,526.1666666666666,503.3984375,532.0833333333334L503.3984375,538"/><path marker-start="url(#my-svg_classDiagram-aggregationStart)" style="fill:none" class="edge-pattern-solid relation" id="id6" d="M156.26953125,1111.5L156.26953125,1115.8333333333333C156.26953125,1120.1666666666667,156.26953125,1128.8333333333333,156.26953125,1140.5833333333333C156.26953125,1152.3333333333333,156.26953125,1167.1666666666667,156.26953125,1174.5833333333333L156.26953125,1182"/><path marker-end="url(#my-svg_classDiagram-dependencyEnd)" style="fill:none" class="edge-pattern-solid relation" id="id7" d="M97.7734375,874L97.7734375,886.75C97.7734375,899.5,97.7734375,925,101.83098550111067,944.2355738867836C105.88853350222138,963.4711477735673,114.00362950444276,976.4422955471347,118.06117750555343,982.9278694339183L122.11872550666413,989.4134433207021"/><path marker-start="url(#my-svg_classDiagram-aggregationStart)" style="fill:none" class="edge-pattern-solid relation" id="id8" d="M386.8866248893942,928.2472939577857L382.25252594949524,931.9560782981548C377.61842700959613,935.6648626385237,368.35022912979804,943.0824313192619,347.809267444801,954.1245489929643C327.2683057598039,965.1666666666666,295.45458026960785,979.8333333333334,279.5477175245098,987.1666666666666L263.64085477941177,994.5"/><path marker-start="url(#my-svg_classDiagram-aggregationStart)" style="fill:none" class="edge-pattern-solid relation" id="id9" d="M610.0695084138191,928.8928978560313L614.1607882615159,932.4940815466927C618.2520681092127,936.095265237354,626.4346278046064,943.2976326186771,630.5259076523032,962.482149642672C634.6171875,981.6666666666666,634.6171875,1012.8333333333334,634.6171875,1044C634.6171875,1075.1666666666667,634.6171875,1106.3333333333333,655.5517578125,1131.7770496964688C676.486328125,1157.2207660596043,718.35546875,1176.9415321192084,739.2900390625,1186.8019151490107L760.224609375,1196.6622981788128"/><path marker-end="url(#my-svg_classDiagram-dependencyEnd)" style="fill:none" class="edge-pattern-solid relation" id="id10" d="M900.41796875,884.5L900.41796875,895.5C900.41796875,906.5,900.41796875,928.5,900.41796875,944.0833333333334C900.41796875,959.6666666666666,900.41796875,968.8333333333334,900.41796875,973.4166666666666L900.41796875,978"/><path marker-end="url(#my-svg_classDiagram-dependencyEnd)" style="fill:none" class="edge-pattern-solid relation" id="id11" d="M900.41796875,1104L900.41796875,1109.5833333333333C900.41796875,1115.1666666666667,900.41796875,1126.3333333333333,896.9838385541962,1136.6883463675206C893.5497083583924,1147.0433594017077,886.681447966785,1156.5867188034156,883.2473177709811,1161.3583985042694L879.8131875751773,1166.1300782051233"/><path marker-end="url(#my-svg_classDiagram-dependencyEnd)" style="fill:none" class="edge-pattern-solid relation" id="id12" d="M697.2265625,666.0177396027037L731.091796875,674.9314496689198C764.95703125,683.8451597351359,832.6875,701.672579867568,866.552734375,720.586289933784C900.41796875,739.5,900.41796875,759.5,900.41796875,769.5L900.41796875,779.5"/><path marker-end="url(#my-svg_classDiagram-dependencyEnd)" style="fill:none" class="edge-pattern-solid relation" id="id13" d="M309.5703125,664.9353813559322L274.2708333333333,674.0294844632768C238.97135416666666,683.1235875706216,168.37239583333334,701.3117937853108,133.07291666666666,722.1558968926553C97.7734375,743,97.7734375,766.5,97.7734375,778.25L97.7734375,790"/><path style="fill:none" class="edge-pattern-dotted relation" id="edgeNote14" d="M657.265625,62.5L657.265625,71.83333333333333C657.265625,81.16666666666667,657.265625,99.83333333333333,657.265625,114.75C657.265625,129.66666666666666,657.265625,140.83333333333334,657.265625,146.41666666666666L657.265625,152"/></g><g class="edgeLabels"><g transform="translate(349.53125, 118.5)" class="edgeLabel"><g transform="translate(-89.8359375, -8.5)" class="label"><rect height="17.983844757080078" width="179.4169464111328" ry="0" rx="0"/><text style=""><tspan class="row" x="0" dy="1em" xml:space="preserve">sends connection configs</tspan></text></g></g><g transform="translate(334.53125, 102.5)" class="edgeTerminals"><g transform="translate(-3.0625, -6)" class="inner"><text style=""><tspan class="row" x="0" dy="1em" xml:space="preserve">1</tspan></text></g></g><g transform="translate(359.53125, 140)" class="edgeTerminals"><g transform="translate(-3.0625, -6)" class="inner"/><text style=""><tspan class="row" x="0" dy="1em" xml:space="preserve">1</tspan></text></g><g transform="translate(349.53125, 283.5)" class="edgeLabel"><g transform="translate(-127.2265625, -8.5)" class="label"><rect height="17.983844757080078" width="254.087890625" ry="0" rx="0"/><text style=""><tspan class="row" x="0" dy="1em" xml:space="preserve">sends new monolith websockets via</tspan></text></g></g><g transform="translate(334.53125, 257)" class="edgeTerminals"><g transform="translate(-3.0625, -6)" class="inner"><text style=""><tspan class="row" x="0" dy="1em" xml:space="preserve">1</tspan></text></g></g><g transform="translate(424.47116416916646, 315.1239994170749)" class="edgeTerminals"><g transform="translate(-3.0625, -6)" class="inner"/><text style=""><tspan class="row" x="0" dy="1em" xml:space="preserve">1</tspan></text></g><g transform="translate(657.265625, 283.5)" class="edgeLabel"><g transform="translate(-115.6640625, -8.5)" class="label"><rect height="17.983844757080078" width="230.99655151367188" ry="0" rx="0"/><text style=""><tspan class="row" x="0" dy="1em" xml:space="preserve">sends new client websockets via</tspan></text></g></g><g transform="translate(641.6567822963888, 266.6342131402339)" class="edgeTerminals"><g transform="translate(-3.0625, -6)" class="inner"><text style=""><tspan class="row" x="0" dy="1em" xml:space="preserve">1</tspan></text></g></g><g transform="translate(589.2905826685807, 339.86653442673884)" class="edgeTerminals"><g transform="translate(-3.0625, -6)" class="inner"/><text style=""><tspan class="row" x="0" dy="1em" xml:space="preserve">1</tspan></text></g><g class="edgeLabel"><g transform="translate(0, 0)" class="label"><rect height="0" width="0" ry="0" rx="0"/><text style=""><tspan class="row" x="0" dy="1em" xml:space="preserve"/></text></g></g><g transform="translate(488.39843875, 703.5000010714285)" class="edgeTerminals"><g transform="translate(-3.0625, -6)" class="inner"><text style=""><tspan class="row" x="0" dy="1em" xml:space="preserve">1</tspan></text></g></g><g transform="translate(513.39843875, 730.5000010714285)" class="edgeTerminals"><g transform="translate(-3.0625, -6)" class="inner"/><text style=""><tspan class="row" x="0" dy="1em" xml:space="preserve">1</tspan></text></g><g transform="translate(503.3984375, 502.5)" class="edgeLabel"><g transform="translate(-166.3125, -16.5)" class="label"><rect height="33.983848571777344" width="332.1391296386719" ry="0" rx="0"/><text style=""><tspan class="row" x="0" dy="1em" xml:space="preserve">sends inbound msgs via channels,</tspan><tspan class="row" x="0" dy="1em" xml:space="preserve">receives channel Receivers for outbound msgs</tspan></text></g></g><g transform="translate(488.39843875, 478.5000010714286)" class="edgeTerminals"><g transform="translate(-3.0625, -6)" class="inner"><text style=""><tspan class="row" x="0" dy="1em" xml:space="preserve">1</tspan></text></g></g><g transform="translate(513.39843875, 521.5000010714285)" class="edgeTerminals"><g transform="translate(-3.0625, -6)" class="inner"/><text style=""><tspan class="row" x="0" dy="1em" xml:space="preserve">1</tspan></text></g><g transform="translate(156.26953125, 1137.5)" class="edgeLabel"><g transform="translate(-28.453125, -8.5)" class="label"><rect height="17.983844757080078" width="56.841793060302734" ry="0" rx="0"/><text style=""><tspan class="row" x="0" dy="1em" xml:space="preserve">Collects</tspan></text></g></g><g transform="translate(141.26953062500002, 1110.9999994642858)" class="edgeTerminals"><g transform="translate(-3.0625, -6)" class="inner"><text style=""><tspan class="row" x="0" dy="1em" xml:space="preserve">1</tspan></text></g></g><g transform="translate(166.26953062500002, 1159.4999994642858)" class="edgeTerminals"><g transform="translate(-8.614990234375, -6)" class="inner"/><text style=""><tspan class="row" x="0" dy="1em" xml:space="preserve">0..*</tspan></text></g><g transform="translate(97.7734375, 950.5)" class="edgeLabel"><g transform="translate(-70.3125, -8.5)" class="label"><rect height="17.983844757080078" width="140.42539978027344" ry="0" rx="0"/><text style=""><tspan class="row" x="0" dy="1em" xml:space="preserve">consumed to create</tspan></text></g></g><g transform="translate(82.77343875000004, 891.5000010714285)" class="edgeTerminals"><g transform="translate(-3.0625, -6)" class="inner"><text style=""><tspan class="row" x="0" dy="1em" xml:space="preserve">1</tspan></text></g></g><g transform="translate(123.73573736575258, 966.7084964373689)" class="edgeTerminals"><g transform="translate(-3.0625, -6)" class="inner"/><text style=""><tspan class="row" x="0" dy="1em" xml:space="preserve">1</tspan></text></g><g transform="translate(359.08203125, 950.5)" class="edgeLabel"><g transform="translate(-26.6796875, -8.5)" class="label"><rect height="17.983844757080078" width="53.289180755615234" ry="0" rx="0"/><text style=""><tspan class="row" x="0" dy="1em" xml:space="preserve">collects</tspan></text></g></g><g transform="translate(377.9042524950318, 916.2236942789515)" class="edgeTerminals"><g transform="translate(-3.0625, -6)" class="inner"><text style=""><tspan class="row" x="0" dy="1em" xml:space="preserve">1</tspan></text></g></g><g transform="translate(280.8133126404423, 995.7954076604732)" class="edgeTerminals"><g transform="translate(-8.614990234375, -6)" class="inner"/><text style=""><tspan class="row" x="0" dy="1em" xml:space="preserve">0..*</tspan></text></g><g transform="translate(634.6171875, 1044)" class="edgeLabel"><g transform="translate(-26.6796875, -8.5)" class="label"><rect height="17.983844757080078" width="53.289180755615234" ry="0" rx="0"/><text style=""><tspan class="row" x="0" dy="1em" xml:space="preserve">collects</tspan></text></g></g><g transform="translate(599.7834409696657, 939.8220718850239)" class="edgeTerminals"><g transform="translate(-3.0625, -6)" class="inner"><text style=""><tspan class="row" x="0" dy="1em" xml:space="preserve">1</tspan></text></g></g><g transform="translate(745.7844915752372, 1170.635312527525)" class="edgeTerminals"><g transform="translate(-8.614990234375, -6)" class="inner"/><text style=""><tspan class="row" x="0" dy="1em" xml:space="preserve">0..*</tspan></text></g><g transform="translate(900.41796875, 950.5)" class="edgeLabel"><g transform="translate(-91.671875, -8.5)" class="label"><rect height="17.983844757080078" width="183.46942138671875" ry="0" rx="0"/><text style=""><tspan class="row" x="0" dy="1em" xml:space="preserve">when auth token received</tspan></text></g></g><g transform="translate(900.41796875, 1137.5)" class="edgeLabel"><g transform="translate(-70.3125, -8.5)" class="label"><rect height="17.983844757080078" width="140.42539978027344" ry="0" rx="0"/><text style=""><tspan class="row" x="0" dy="1em" xml:space="preserve">consumed to create</tspan></text></g></g><g transform="translate(900.41796875, 719.5)" class="edgeLabel"><g transform="translate(-82.55078125, -8.5)" class="label"><rect height="17.983844757080078" width="165.00685119628906" ry="0" rx="0"/><text style=""><tspan class="row" x="0" dy="1em" xml:space="preserve">create upon websocket</tspan></text></g></g><g transform="translate(97.7734375, 719.5)" class="edgeLabel"><g transform="translate(-82.55078125, -8.5)" class="label"><rect height="17.983844757080078" width="165.00685119628906" ry="0" rx="0"/><text style=""><tspan class="row" x="0" dy="1em" xml:space="preserve">create upon websocket</tspan></text></g></g><g class="edgeLabel"><g transform="translate(0, 0)" class="label"><rect height="0" width="0" ry="0" rx="0"/><text style=""><tspan class="row" x="0" dy="1em" xml:space="preserve"/></text></g></g></g><g class="nodes"><g transform="translate(503.3984375, 615)" id="classId-Balancer-0" class="node default"><rect height="142" width="387.65625" y="-71" x="-193.828125" class="outer title-state"/><line y2="-42" y1="-42" x2="193.828125" x1="-193.828125" class="divider"/><line y2="16" y1="16" x2="193.828125" x1="-193.828125" class="divider"/><g class="label"><text style=""><tspan class="title-row" x="0" dy="1em" xml:space="preserve"/></text><text transform="translate( -33.796875, -63.5)" class="classTitle" style=""><tspan class="title-row" x="0" dy="1em" xml:space="preserve">Balancer</tspan></text><text transform="translate( -186.328125, -30.5)" style=""><tspan class="title-row" x="0" dy="1em" xml:space="preserve">ctx: Arc&lt;RwLock&lt;BalancerContext&gt;&gt;</tspan></text><text transform="translate( -186.328125, -9.5)" style=""><tspan class="title-row" x="0" dy="1em" xml:space="preserve">...[channels for receiving new nodes, and messages]</tspan></text><text transform="translate( -186.328125, 23.5)" style=""><tspan class="title-row" x="0" dy="1em" xml:space="preserve">new_link() : : BalancerLink</tspan></text><text transform="translate( -186.328125, 45.5)" style=""><tspan class="title-row" x="0" dy="1em" xml:space="preserve">dispatch_loop()</tspan></text></g></g><g transform="translate(349.53125, 46.5)" id="classId-MonolithDiscoverer-1" class="node default"><rect height="77" width="164.359375" y="-38.5" x="-82.1796875" class="outer title-state"/><line y2="11.5" y1="11.5" x2="82.1796875" x1="-82.1796875" class="divider"/><line y2="27.5" y1="27.5" x2="82.1796875" x1="-82.1796875" class="divider"/><g class="label"><text transform="translate( -22.28515625, -31)" style=""><tspan class="title-row" x="0" dy="1em" xml:space="preserve">«trait»</tspan></text><text transform="translate( -74.6796875, -10)" class="classTitle" style=""><tspan class="title-row" x="0" dy="1em" xml:space="preserve">MonolithDiscoverer</tspan></text></g></g><g transform="translate(349.53125, 201)" id="classId-MonolithConnectionManager-2" class="node default"><rect height="77" width="235.4375" y="-38.5" x="-117.71875" class="outer title-state"/><line y2="-9.5" y1="-9.5" x2="117.71875" x1="-117.71875" class="divider"/><line y2="27.5" y1="27.5" x2="117.71875" x1="-117.71875" class="divider"/><g class="label"><text style=""><tspan class="title-row" x="0" dy="1em" xml:space="preserve"/></text><text transform="translate( -110.21875, -31)" class="classTitle" style=""><tspan class="title-row" x="0" dy="1em" xml:space="preserve">MonolithConnectionManager</tspan></text><text transform="translate( -110.21875, 2)" style=""><tspan class="title-row" x="0" dy="1em" xml:space="preserve">link: BalancerLink</tspan></text></g></g><g transform="translate(503.3984375, 389)" id="classId-BalancerLink-3" class="node default"><rect height="144" width="135.953125" y="-72" x="-67.9765625" class="outer title-state"/><line y2="-43" y1="-43" x2="67.9765625" x1="-67.9765625" class="divider"/><line y2="61" y1="61" x2="67.9765625" x1="-67.9765625" class="divider"/><g class="label"><text style=""><tspan class="title-row" x="0" dy="1em" xml:space="preserve"/></text><text transform="translate( -50.29296875, -64.5)" class="classTitle" style=""><tspan class="title-row" x="0" dy="1em" xml:space="preserve">BalancerLink</tspan></text><text transform="translate( -60.4765625, -31.5)" style=""><tspan class="title-row" x="0" dy="1em" xml:space="preserve">new_client_tx</tspan></text><text transform="translate( -60.4765625, -9.5)" style=""><tspan class="title-row" x="0" dy="1em" xml:space="preserve">client_msg_tx</tspan></text><text transform="translate( -60.4765625, 12.5)" style=""><tspan class="title-row" x="0" dy="1em" xml:space="preserve">new_monolith_tx</tspan></text><text transform="translate( -60.4765625, 34.5)" style=""><tspan class="title-row" x="0" dy="1em" xml:space="preserve">monolith_msg_tx</tspan></text></g></g><g transform="translate(657.265625, 201)" id="classId-BalancerService-4" class="node default"><rect height="98" width="280.03125" y="-49" x="-140.015625" class="outer title-state"/><line y2="-20" y1="-20" x2="140.015625" x1="-140.015625" class="divider"/><line y2="38" y1="38" x2="140.015625" x1="-140.015625" class="divider"/><g class="label"><text style=""><tspan class="title-row" x="0" dy="1em" xml:space="preserve"/></text><text transform="translate( -62.31640625, -41.5)" class="classTitle" style=""><tspan class="title-row" x="0" dy="1em" xml:space="preserve">BalancerService</tspan></text><text transform="translate( -132.515625, -8.5)" style=""><tspan class="title-row" x="0" dy="1em" xml:space="preserve">ctx: Arc&lt;RwLock&lt;BalancerContext&gt;&gt;</tspan></text><text transform="translate( -132.515625, 12.5)" style=""><tspan class="title-row" x="0" dy="1em" xml:space="preserve">link: BalancerLink</tspan></text></g></g><g transform="translate(97.7734375, 835)" id="classId-NewMonolith-5" class="node default"><rect height="78" width="179.546875" y="-39" x="-89.7734375" class="outer title-state"/><line y2="-10" y1="-10" x2="89.7734375" x1="-89.7734375" class="divider"/><line y2="28" y1="28" x2="89.7734375" x1="-89.7734375" class="divider"/><g class="label"><text style=""><tspan class="title-row" x="0" dy="1em" xml:space="preserve"/></text><text transform="translate( -49.7734375, -31.5)" class="classTitle" style=""><tspan class="title-row" x="0" dy="1em" xml:space="preserve">NewMonolith</tspan></text><text transform="translate( -82.2734375, 1.5)" style=""><tspan class="title-row" x="0" dy="1em" xml:space="preserve">monolith_id: MonolithId</tspan></text></g></g><g transform="translate(503.3984375, 835)" id="classId-BalancerContext-6" class="node default"><rect height="164" width="531.703125" y="-82" x="-265.8515625" class="outer title-state"/><line y2="-53" y1="-53" x2="265.8515625" x1="-265.8515625" class="divider"/><line y2="71" y1="71" x2="265.8515625" x1="-265.8515625" class="divider"/><g class="label"><text style=""><tspan class="title-row" x="0" dy="1em" xml:space="preserve"/></text><text transform="translate( -63.91015625, -74.5)" class="classTitle" style=""><tspan class="title-row" x="0" dy="1em" xml:space="preserve">BalancerContext</tspan></text><text transform="translate( -258.3515625, -41.5)" style=""><tspan class="title-row" x="0" dy="1em" xml:space="preserve">clients: HashMap&lt;ClientId-BalancerClient&gt;,</tspan></text><text transform="translate( -258.3515625, -20.5)" style=""><tspan class="title-row" x="0" dy="1em" xml:space="preserve">monoliths: HashMap&lt;MonolithId-BalancerMonolith&gt;,</tspan></text><text transform="translate( -258.3515625, 0.5)" style=""><tspan class="title-row" x="0" dy="1em" xml:space="preserve">rooms_to_monoliths: HashMap&lt;RoomName-MonolithId&gt;,</tspan></text><text transform="translate( -258.3515625, 22.5)" style=""><tspan class="title-row" x="0" dy="1em" xml:space="preserve">monoliths_by_region: HashMap&lt;String-Vec&lt;MonolithId&gt;&gt;,</tspan></text><text transform="translate( -258.3515625, 44.5)" style=""><tspan class="title-row" x="0" dy="1em" xml:space="preserve">monolith_selection: Box&lt;dyn MonolithSelection + Send + Sync + 'static&gt;,</tspan></text></g></g><g transform="translate(156.26953125, 1044)" id="classId-BalancerMonolith-7" class="node default"><rect height="99" width="288.875" y="-49.5" x="-144.4375" class="outer title-state"/><line y2="-20.5" y1="-20.5" x2="144.4375" x1="-144.4375" class="divider"/><line y2="38.5" y1="38.5" x2="144.4375" x1="-144.4375" class="divider"/><g class="label"><text style=""><tspan class="title-row" x="0" dy="1em" xml:space="preserve"/></text><text transform="translate( -67.1171875, -42)" class="classTitle" style=""><tspan class="title-row" x="0" dy="1em" xml:space="preserve">BalancerMonolith</tspan></text><text transform="translate( -136.9375, -9)" style=""><tspan class="title-row" x="0" dy="1em" xml:space="preserve">monolith_id: MonolithId</tspan></text><text transform="translate( -136.9375, 13)" style=""><tspan class="title-row" x="0" dy="1em" xml:space="preserve">rooms: Hashmap&lt;RoomName-Room&gt;</tspan></text></g></g><g transform="translate(156.26953125, 1231)" id="classId-Room-8" class="node default"><rect height="98" width="168.875" y="-49" x="-84.4375" class="outer title-state"/><line y2="-20" y1="-20" x2="84.4375" x1="-84.4375" class="divider"/><line y2="38" y1="38" x2="84.4375" x1="-84.4375" class="divider"/><g class="label"><text style=""><tspan class="title-row" x="0" dy="1em" xml:space="preserve"/></text><text transform="translate( -22.6640625, -41.5)" class="classTitle" style=""><tspan class="title-row" x="0" dy="1em" xml:space="preserve">Room</tspan></text><text transform="translate( -76.9375, -8.5)" style=""><tspan class="title-row" x="0" dy="1em" xml:space="preserve">name: RoomName</tspan></text><text transform="translate( -76.9375, 12.5)" style=""><tspan class="title-row" x="0" dy="1em" xml:space="preserve">clients: Vec&lt;ClientId&gt;</tspan></text></g></g><g transform="translate(833.126953125, 1231)" id="classId-BalancerClient-9" class="node default"><rect height="120" width="145.8046875" y="-60" x="-72.90234375" class="outer title-state"/><line y2="-31" y1="-31" x2="72.90234375" x1="-72.90234375" class="divider"/><line y2="49" y1="49" x2="72.90234375" x1="-72.90234375" class="divider"/><g class="label"><text style=""><tspan class="title-row" x="0" dy="1em" xml:space="preserve"/></text><text transform="translate( -56.35546875, -52.5)" class="classTitle" style=""><tspan class="title-row" x="0" dy="1em" xml:space="preserve">BalancerClient</tspan></text><text transform="translate( -65.40234375, -19.5)" style=""><tspan class="title-row" x="0" dy="1em" xml:space="preserve">client_id: ClientId</tspan></text><text transform="translate( -65.40234375, 2.5)" style=""><tspan class="title-row" x="0" dy="1em" xml:space="preserve">room: RoomName</tspan></text><text transform="translate( -65.40234375, 23.5)" style=""><tspan class="title-row" x="0" dy="1em" xml:space="preserve">token: String</tspan></text></g></g><g transform="translate(900.41796875, 835)" id="classId-UnauthorizedClient-10" class="node default"><rect height="99" width="162.3359375" y="-49.5" x="-81.16796875" class="outer title-state"/><line y2="-20.5" y1="-20.5" x2="81.16796875" x1="-81.16796875" class="divider"/><line y2="38.5" y1="38.5" x2="81.16796875" x1="-81.16796875" class="divider"/><g class="label"><text style=""><tspan class="title-row" x="0" dy="1em" xml:space="preserve"/></text><text transform="translate( -73.66796875, -42)" class="classTitle" style=""><tspan class="title-row" x="0" dy="1em" xml:space="preserve">UnauthorizedClient</tspan></text><text transform="translate( -73.66796875, -9)" style=""><tspan class="title-row" x="0" dy="1em" xml:space="preserve">client_id: ClientId</tspan></text><text transform="translate( -73.66796875, 13)" style=""><tspan class="title-row" x="0" dy="1em" xml:space="preserve">room: RoomName</tspan></text></g></g><g transform="translate(900.41796875, 1044)" id="classId-NewClient-11" class="node default"><rect height="120" width="145.8046875" y="-60" x="-72.90234375" class="outer title-state"/><line y2="-31" y1="-31" x2="72.90234375" x1="-72.90234375" class="divider"/><line y2="49" y1="49" x2="72.90234375" x1="-72.90234375" class="divider"/><g class="label"><text style=""><tspan class="title-row" x="0" dy="1em" xml:space="preserve"/></text><text transform="translate( -39.0078125, -52.5)" class="classTitle" style=""><tspan class="title-row" x="0" dy="1em" xml:space="preserve">NewClient</tspan></text><text transform="translate( -65.40234375, -19.5)" style=""><tspan class="title-row" x="0" dy="1em" xml:space="preserve">client_id: ClientId</tspan></text><text transform="translate( -65.40234375, 2.5)" style=""><tspan class="title-row" x="0" dy="1em" xml:space="preserve">room: RoomName</tspan></text><text transform="translate( -65.40234375, 23.5)" style=""><tspan class="title-row" x="0" dy="1em" xml:space="preserve">token: String</tspan></text></g></g><g transform="translate(657.265625, 46.5)" id="note0" class="node undefined"><rect height="32" width="119.921875" y="-16" x="-59.9609375" ry="0" rx="0"/><g transform="translate(-52.4609375, -8.5)" style="" class="label"><rect/><text style=""><tspan class="row" x="0" dy="1em" xml:space="preserve">Handles HTTP</tspan></text></g></g></g></g></g></svg>