<?xml version="1.0" encoding="us-ascii" standalone="no"?><svg xmlns="http://www.w3.org/2000/svg" xmlns:xlink="http://www.w3.org/1999/xlink" contentStyleType="text/css" height="418px" preserveAspectRatio="none" style="width:770px;height:418px;background:#FFFFFF;" version="1.1" viewBox="0 0 770 418" width="770px" zoomAndPan="magnify"><defs/><g><!--cluster Rust crates--><g id="cluster_Rust crates"><path d="M8.5,6 L99.5,6 A3.75,3.75 0 0 1 102,8.5 L109,28.2969 L760.5,28.2969 A2.5,2.5 0 0 1 763,30.7969 L763,408.5 A2.5,2.5 0 0 1 760.5,411 L8.5,411 A2.5,2.5 0 0 1 6,408.5 L6,8.5 A2.5,2.5 0 0 1 8.5,6 " fill="none" style="stroke:#000000;stroke-width:1.5;"/><line style="stroke:#000000;stroke-width:1.5;" x1="6" x2="109" y1="28.2969" y2="28.2969"/><text fill="#000000" font-family="sans-serif" font-size="14" font-weight="bold" lengthAdjust="spacing" textLength="90" x="10" y="20.9951">Rust crates</text></g><!--entity ott_common--><g id="elem_ott_common"><path d="M507.5,331 L607.5,331 A3.75,3.75 0 0 1 610,333.5 L617,353.2969 L744.5,353.2969 A2.5,2.5 0 0 1 747,355.7969 L747,384.0938 A2.5,2.5 0 0 1 744.5,386.5938 L507.5,386.5938 A2.5,2.5 0 0 1 505,384.0938 L505,333.5 A2.5,2.5 0 0 1 507.5,331 " fill="#F1F1F1" style="stroke:#181818;stroke-width:0.5;"/><line style="stroke:#181818;stroke-width:0.5;" x1="505" x2="617" y1="353.2969" y2="353.2969"/><text fill="#000000" font-family="sans-serif" font-size="14" lengthAdjust="spacing" textLength="87" x="515" y="346.9951">ott_common</text><text fill="#000000" font-family="sans-serif" font-size="14" lengthAdjust="spacing" textLength="212" x="515" y="373.292">Contains common functionality</text></g><!--entity ott_balancer_bin--><g id="elem_ott_balancer_bin"><path d="M594,182 L720,182 A3.75,3.75 0 0 1 722.5,184.5 L729.5,204.2969 L744,204.2969 A2.5,2.5 0 0 1 746.5,206.7969 L746.5,235.0938 A2.5,2.5 0 0 1 744,237.5938 L594,237.5938 A2.5,2.5 0 0 1 591.5,235.0938 L591.5,184.5 A2.5,2.5 0 0 1 594,182 " fill="#F1F1F1" style="stroke:#181818;stroke-width:0.5;"/><line style="stroke:#181818;stroke-width:0.5;" x1="591.5" x2="729.5" y1="204.2969" y2="204.2969"/><text fill="#000000" font-family="sans-serif" font-size="14" lengthAdjust="spacing" textLength="113" x="601.5" y="197.9951">ott_balancer_bin</text><text fill="#000000" font-family="sans-serif" font-size="14" lengthAdjust="spacing" textLength="91" x="601.5" y="224.292">The Balancer</text></g><!--entity ott_balancer_protocol--><g id="elem_ott_balancer_protocol"><path d="M151.5,323 L313.5,323 A3.75,3.75 0 0 1 316,325.5 L323,345.2969 L394.5,345.2969 A2.5,2.5 0 0 1 397,347.7969 L397,392.3906 A2.5,2.5 0 0 1 394.5,394.8906 L151.5,394.8906 A2.5,2.5 0 0 1 149,392.3906 L149,325.5 A2.5,2.5 0 0 1 151.5,323 " fill="#F1F1F1" style="stroke:#181818;stroke-width:0.5;"/><line style="stroke:#181818;stroke-width:0.5;" x1="149" x2="323" y1="345.2969" y2="345.2969"/><text fill="#000000" font-family="sans-serif" font-size="14" lengthAdjust="spacing" textLength="149" x="159" y="338.9951">ott_balancer_protocol</text><text fill="#000000" font-family="sans-serif" font-size="14" lengthAdjust="spacing" textLength="218" x="159" y="365.292">Provides types shared between</text><text fill="#000000" font-family="sans-serif" font-size="14" lengthAdjust="spacing" textLength="180" x="159" y="381.5889">the Balancer and Monolith</text></g><!--entity harness--><g id="elem_harness"><path d="M152,174 L221,174 A3.75,3.75 0 0 1 223.5,176.5 L230.5,196.2969 L394,196.2969 A2.5,2.5 0 0 1 396.5,198.7969 L396.5,243.3906 A2.5,2.5 0 0 1 394,245.8906 L152,245.8906 A2.5,2.5 0 0 1 149.5,243.3906 L149.5,176.5 A2.5,2.5 0 0 1 152,174 " fill="#F1F1F1" style="stroke:#181818;stroke-width:0.5;"/><line style="stroke:#181818;stroke-width:0.5;" x1="149.5" x2="230.5" y1="196.2969" y2="196.2969"/><text fill="#000000" font-family="sans-serif" font-size="14" lengthAdjust="spacing" textLength="56" x="159.5" y="189.9951">harness</text><text fill="#000000" font-family="sans-serif" font-size="14" lengthAdjust="spacing" textLength="193" x="159.5" y="216.292">Provides abstraction around</text><text fill="#000000" font-family="sans-serif" font-size="14" lengthAdjust="spacing" textLength="217" x="159.5" y="232.5889">integration testing the Balancer</text></g><!--entity harness_tests--><g id="elem_harness_tests"><path d="M84.5,41 L195.5,41 A3.75,3.75 0 0 1 198,43.5 L205,63.2969 L341.5,63.2969 A2.5,2.5 0 0 1 344,65.7969 L344,94.0938 A2.5,2.5 0 0 1 341.5,96.5938 L84.5,96.5938 A2.5,2.5 0 0 1 82,94.0938 L82,43.5 A2.5,2.5 0 0 1 84.5,41 " fill="#F1F1F1" style="stroke:#181818;stroke-width:0.5;"/><line style="stroke:#181818;stroke-width:0.5;" x1="82" x2="205" y1="63.2969" y2="63.2969"/><text fill="#000000" font-family="sans-serif" font-size="14" lengthAdjust="spacing" textLength="98" x="92" y="56.9951">harness_tests</text><text fill="#000000" font-family="sans-serif" font-size="14" lengthAdjust="spacing" textLength="232" x="92" y="83.292">Tests the Balancer using harness</text></g><!--link ott_balancer_bin to ott_common--><g id="link_ott_balancer_bin_ott_common"><path codeLine="23" d="M661.01,238.31 C653.77,263.06 643.09,299.57 635.43,325.75 " fill="none" id="ott_balancer_bin-to-ott_common" style="stroke:#181818;stroke-width:1.0;"/><polygon fill="#181818" points="633.94,330.84,640.3,323.32,635.34,326.04,632.62,321.08,633.94,330.84" style="stroke:#181818;stroke-width:1.0;"/><text fill="#000000" font-family="sans-serif" font-size="13" lengthAdjust="spacing" textLength="55" x="649" y="289.0669">depends</text></g><!--link ott_balancer_bin to ott_balancer_protocol--><g id="link_ott_balancer_bin_ott_balancer_protocol"><path codeLine="24" d="M595.91,238.13 C533.05,261.47 441.82,295.33 372.34,321.12 " fill="none" id="ott_balancer_bin-to-ott_balancer_protocol" style="stroke:#181818;stroke-width:1.0;"/><polygon fill="#181818" points="367.38,322.96,377.2092,323.5813,372.0681,321.2216,374.4278,316.0804,367.38,322.96" style="stroke:#181818;stroke-width:1.0;"/><text fill="#000000" font-family="sans-serif" font-size="13" lengthAdjust="spacing" textLength="55" x="483" y="289.0669">depends</text></g><!--link harness to ott_balancer_protocol--><g id="link_harness_ott_balancer_protocol"><path codeLine="25" d="M273,246.21 C273,267.68 273,295.19 273,317.55 " fill="none" id="harness-to-ott_balancer_protocol" style="stroke:#181818;stroke-width:1.0;"/><polygon fill="#181818" points="273,322.82,277,313.82,273,317.82,269,313.82,273,322.82" style="stroke:#181818;stroke-width:1.0;"/><text fill="#000000" font-family="sans-serif" font-size="13" lengthAdjust="spacing" textLength="55" x="274" y="289.0669">depends</text></g><!--link harness_tests to harness--><g id="link_harness_tests_harness"><path codeLine="26" d="M224.71,97.13 C233.53,117.56 245.76,145.89 255.7,168.93 " fill="none" id="harness_tests-to-harness" style="stroke:#181818;stroke-width:1.0;"/><polygon fill="#181818" points="257.79,173.76,257.8955,163.9117,255.8084,169.1695,250.5506,167.0823,257.79,173.76" style="stroke:#181818;stroke-width:1.0;"/><text fill="#000000" font-family="sans-serif" font-size="13" lengthAdjust="spacing" textLength="55" x="245" y="140.0669">depends</text></g><!--link harness_tests to ott_balancer_protocol--><g id="link_harness_tests_ott_balancer_protocol"><path codeLine="27" d="M155.43,97.05 C125.56,114.45 91.87,140.17 75,174 C60.72,202.64 58.88,218.36 75,246 C94.42,279.3 127.82,303.49 161.72,320.68 " fill="none" id="harness_tests-to-ott_balancer_protocol" style="stroke:#181818;stroke-width:1.0;"/><polygon fill="#181818" points="166.28,322.95,159.9996,315.3634,161.8022,320.7253,156.4402,322.5279,166.28,322.95" style="stroke:#181818;stroke-width:1.0;"/><text fill="#000000" font-family="sans-serif" font-size="13" lengthAdjust="spacing" textLength="55" x="76" y="214.5669">depends</text></g><!--link harness to ott_balancer_bin--><g id="link_harness_ott_balancer_bin"><path codeLine="28" d="M401.92,210 C462.49,210 532.93,210 586.26,210 " fill="none" id="harness-ott_balancer_bin" style="stroke:#181818;stroke-width:1.0;"/><polygon fill="#181818" points="396.67,210,405.67,214,401.67,210,405.67,206,396.67,210" style="stroke:#181818;stroke-width:1.0;"/><polygon fill="#181818" points="591.36,210,582.36,206,586.36,210,582.36,214,591.36,210" style="stroke:#181818;stroke-width:1.0;"/><text fill="#000000" font-family="sans-serif" font-size="13" lengthAdjust="spacing" textLength="158" x="415" y="203.0669">connects via websockets</text></g><!--SRC=[ZL91QiCm4Bpx5Klk_a0eERJdGYcvbM9MqiOMSNQDTfqGIlzUsTWqSPEIYn6ZcTcTaNVI1agmUk_Lm2SqqXLy5G0T-ZtM169MUJaSXE4Zmm0lmeQH5IPqrxEtA8njj7DcV2x43bjaJwboSRRODWJF4_oVeajYugMTP6z9ZZ6GWfsx_DK64mLmP2SY7XbsOGp80Lw59U_LBAPa9PFgqXUTMi8n3M2IdiDu7zcepjKCSEx78jTNaswRLmDr7h4TprVhzJhuJEJHuhieYZ-DbUNcyWtM4AWZ3dg3kRdJtgzcpbq-pfrY38fPVPVp-09FI-uGO9r_AMRosUeO4KxaLFoUJ8iV]--></g></svg>