<svg aria-roledescription="classDiagram" role="graphics-document document" viewBox="-8 -8 959.318359375 1285" style="max-width: 959.318px; background-color: white;" xmlns:xlink="http://www.w3.org/1999/xlink" xmlns="http://www.w3.org/2000/svg" width="100%" id="my-svg"><style>#my-svg{font-family:"trebuchet ms",verdana,arial,sans-serif;font-size:16px;fill:#000000;}#my-svg .error-icon{fill:#552222;}#my-svg .error-text{fill:#552222;stroke:#552222;}#my-svg .edge-thickness-normal{stroke-width:2px;}#my-svg .edge-thickness-thick{stroke-width:3.5px;}#my-svg .edge-pattern-solid{stroke-dasharray:0;}#my-svg .edge-pattern-dashed{stroke-dasharray:3;}#my-svg .edge-pattern-dotted{stroke-dasharray:2;}#my-svg .marker{fill:#666;stroke:#666;}#my-svg .marker.cross{stroke:#666;}#my-svg svg{font-family:"trebuchet ms",verdana,arial,sans-serif;font-size:16px;}#my-svg g.classGroup text{fill:#999;stroke:none;font-family:"trebuchet ms",verdana,arial,sans-serif;font-size:10px;}#my-svg g.classGroup text .title{font-weight:bolder;}#my-svg .nodeLabel,#my-svg .edgeLabel{color:#111111;}#my-svg .edgeLabel .label rect{fill:#eee;}#my-svg .label text{fill:#111111;}#my-svg .edgeLabel .label span{background:#eee;}#my-svg .classTitle{font-weight:bolder;}#my-svg .node rect,#my-svg .node circle,#my-svg .node ellipse,#my-svg .node polygon,#my-svg .node path{fill:#eee;stroke:#999;stroke-width:1px;}#my-svg .divider{stroke:#999;stroke-width:1;}#my-svg g.clickable{cursor:pointer;}#my-svg g.classGroup rect{fill:#eee;stroke:#999;}#my-svg g.classGroup line{stroke:#999;stroke-width:1;}#my-svg .classLabel .box{stroke:none;stroke-width:0;fill:#eee;opacity:0.5;}#my-svg .classLabel .label{fill:#999;font-size:10px;}#my-svg .relation{stroke:#666;stroke-width:1;fill:none;}#my-svg .dashed-line{stroke-dasharray:3;}#my-svg .dotted-line{stroke-dasharray:1 2;}#my-svg #compositionStart,#my-svg .composition{fill:#666!important;stroke:#666!important;stroke-width:1;}#my-svg #compositionEnd,#my-svg .composition{fill:#666!important;stroke:#666!important;stroke-width:1;}#my-svg #dependencyStart,#my-svg .dependency{fill:#666!important;stroke:#666!important;stroke-width:1;}#my-svg #dependencyStart,#my-svg .dependency{fill:#666!important;stroke:#666!important;stroke-width:1;}#my-svg #extensionStart,#my-svg .extension{fill:transparent!important;stroke:#666!important;stroke-width:1;}#my-svg #extensionEnd,#my-svg .extension{fill:transparent!important;stroke:#666!important;stroke-width:1;}#my-svg #aggregationStart,#my-svg .aggregation{fill:transparent!important;stroke:#666!important;stroke-width:1;}#my-svg #aggregationEnd,#my-svg .aggregation{fill:transparent!important;stroke:#666!important;stroke-width:1;}#my-svg #lollipopStart,#my-svg .lollipop{fill:#eee!important;stroke:#666!important;stroke-width:1;}#my-svg #lollipopEnd,#my-svg .lollipop{fill:#eee!important;stroke:#666!important;stroke-width:1;}#my-svg .edgeTerminals{font-size:11px;}#my-svg .classTitleText{text-anchor:middle;font-size:18px;fill:#000000;}#my-svg :root{--mermaid-font-family:"trebuchet ms",verdana,arial,sans-serif;}</style><g><defs><marker orient="auto" markerHeight="240" markerWidth="190" refY="7" refX="18" class="marker aggregation classDiagram" id="my-svg_classDiagram-aggregationStart"><path d="M 18,7 L9,13 L1,7 L9,1 Z"/></marker></defs><defs><marker orient="auto" markerHeight="28" markerWidth="20" refY="7" refX="1" class="marker aggregation classDiagram" id="my-svg_classDiagram-aggregationEnd"><path d="M 18,7 L9,13 L1,7 L9,1 Z"/></marker></defs><defs><marker orient="auto" markerHeight="240" markerWidth="190" refY="7" refX="18" class="marker extension classDiagram" id="my-svg_classDiagram-extensionStart"><path d="M 1,7 L18,13 V 1 Z"/></marker></defs><defs><marker orient="auto" markerHeight="28" markerWidth="20" refY="7" refX="1" class="marker extension classDiagram" id="my-svg_classDiagram-extensionEnd"><path d="M 1,1 V 13 L18,7 Z"/></marker></defs><defs><marker orient="auto" markerHeight="240" markerWidth="190" refY="7" refX="18" class="marker composition classDiagram" id="my-svg_classDiagram-compositionStart"><path d="M 18,7 L9,13 L1,7 L9,1 Z"/></marker></defs><defs><marker orient="auto" markerHeight="28" markerWidth="20" refY="7" refX="1" class="marker composition classDiagram" id="my-svg_classDiagram-compositionEnd"><path d="M 18,7 L9,13 L1,7 L9,1 Z"/></marker></defs><defs><marker orient="auto" markerHeight="240" markerWidth="190" refY="7" refX="6" class="marker dependency classDiagram" id="my-svg_classDiagram-dependencyStart"><path d="M 5,7 L9,13 L1,7 L9,1 Z"/></marker></defs><defs><marker orient="auto" markerHeight="28" markerWidth="20" refY="7" refX="13" class="marker dependency classDiagram" id="my-svg_classDiagram-dependencyEnd"><path d="M 18,7 L9,13 L14,7 L9,1 Z"/></marker></defs><defs><marker orient="auto" markerHeight="240" markerWidth="190" refY="7" refX="13" class="marker lollipop classDiagram" id="my-svg_classDiagram-lollipopStart"><circle r="6" cy="7" cx="7" fill="transparent" stroke="black"/></marker></defs><defs><marker orient="auto" markerHeight="240" markerWidth="190" refY="7" refX="1" class="marker lollipop classDiagram" id="my-svg_classDiagram-lollipopEnd"><circle r="6" cy="7" cx="7" fill="transparent" stroke="black"/></marker></defs><g class="root"><g class="clusters"/><g class="edgePaths"><path marker-end="url(#my-svg_classDiagram-dependencyEnd)" style="fill:none" class="edge-pattern-solid relation" id="id1" d="M470.25,85L470.25,90.58333333333333C470.25,96.16666666666667,470.25,107.33333333333333,470.25,119.25C470.25,131.16666666666666,470.25,143.83333333333334,470.25,150.16666666666666L470.25,156.5"/><path marker-end="url(#my-svg_classDiagram-dependencyEnd)" style="fill:none" class="edge-pattern-solid relation" id="id2" d="M470.25,239.5L470.25,246.83333333333334C470.25,254.16666666666666,470.25,268.8333333333333,483.89717677057985,284.4879858796285C497.54435354115975,300.1426384259237,524.8387070823195,316.7852768518474,538.4858838528993,325.10659606480925L552.1330606234792,333.4279152777711"/><path marker-end="url(#my-svg_classDiagram-dependencyEnd)" style="fill:none" class="edge-pattern-solid relation" id="id3" d="M777.984375,250L777.984375,255.58333333333334C777.984375,261.1666666666667,777.984375,272.3333333333333,764.7055596625556,286.1316061402171C751.4267443251114,299.9298789471009,724.8691136502226,316.3597578942018,711.5902983127784,324.5746973677522L698.311482975334,332.7896368413027"/><path marker-end="url(#my-svg_classDiagram-aggregationEnd)" style="fill:none" class="edge-pattern-solid relation" id="id4" d="M281.1332330293062,652.5L293.77476450358853,660C306.4162959778708,667.5,331.6993589264354,682.5,347.0384041049508,693.2693249116375C362.3774492834662,704.038649823275,367.7724766919325,710.5772996465502,370.46999039616566,713.8466245581876L373.1675041003988,717.1159494698252"/><path marker-start="url(#my-svg_classDiagram-extensionStart)" style="fill:none" class="edge-pattern-solid relation" id="id5" d="M180.84375,434.5L180.84375,442.1666666666667C180.84375,449.8333333333333,180.84375,465.1666666666667,180.84375,481.6666666666667C180.84375,498.1666666666667,180.84375,515.8333333333334,180.84375,524.6666666666666L180.84375,533.5"/><path marker-start="url(#my-svg_classDiagram-compositionStart)" style="fill:none" class="edge-pattern-solid relation" id="id6" d="M627.9468795580315,681.9916322750719L628.0257199441929,684.5763602292267C628.1045603303543,687.1610881833813,628.2622411026772,692.3305440916906,619.8264415064251,700.4986053791787C611.3906419101731,708.6666666666666,594.3613619453463,719.8333333333334,585.8467219629329,725.4166666666666L577.3320819805194,731"/><path marker-end="url(#my-svg_classDiagram-dependencyEnd)" marker-start="url(#my-svg_classDiagram-dependencyStart)" style="fill:none" class="edge-pattern-solid relation" id="id7" d="M625.232421875,445L625.232421875,450.9166666666667C625.232421875,456.8333333333333,625.232421875,468.6666666666667,625.232421875,480.5C625.232421875,492.3333333333333,625.232421875,504.1666666666667,625.232421875,510.0833333333333L625.232421875,516"/><path marker-start="url(#my-svg_classDiagram-aggregationStart)" style="fill:none" class="edge-pattern-solid relation" id="id8" d="M156.26953125,1089.5L156.26953125,1093.8333333333333C156.26953125,1098.1666666666667,156.26953125,1106.8333333333333,156.26953125,1118.5833333333333C156.26953125,1130.3333333333333,156.26953125,1145.1666666666667,156.26953125,1152.5833333333333L156.26953125,1160"/><path marker-end="url(#my-svg_classDiagram-dependencyEnd)" style="fill:none" class="edge-pattern-solid relation" id="id9" d="M97.7734375,852L97.7734375,864.75C97.7734375,877.5,97.7734375,903,101.83098550111067,922.2355738867836C105.88853350222138,941.4711477735673,114.00362950444276,954.4422955471347,118.06117750555343,960.9278694339183L122.11872550666413,967.4134433207021"/><path marker-start="url(#my-svg_classDiagram-aggregationStart)" style="fill:none" class="edge-pattern-solid relation" id="id10" d="M355.064663221789,907.5497019228387L351.4744589348241,911.0414182690323C347.88425464785934,914.5331346152258,340.7038460739297,921.516567307613,323.21137463010206,932.3416169871398C305.71890318627453,943.1666666666666,277.914368872549,957.8333333333334,264.01210171568624,965.1666666666666L250.10983455882354,972.5"/><path marker-start="url(#my-svg_classDiagram-aggregationStart)" style="fill:none" class="edge-pattern-solid relation" id="id11" d="M580.5601547778944,905.5301747062874L585.8675117940786,909.3584789219062C591.1748688102629,913.1867831375249,601.7895828426314,920.8433915687625,607.0969398588157,940.2550291177146C612.404296875,959.6666666666666,612.404296875,990.8333333333334,612.404296875,1022C612.404296875,1053.1666666666667,612.404296875,1084.3333333333333,631.2171223958334,1109.3848863003186C650.0299479166666,1134.4364392673037,687.6555989583334,1153.3728785346075,706.4684244791666,1162.8410981682594L725.28125,1172.3093178019112"/><path marker-end="url(#my-svg_classDiagram-dependencyEnd)" style="fill:none" class="edge-pattern-solid relation" id="id12" d="M852.646484375,862.5L852.646484375,873.5C852.646484375,884.5,852.646484375,906.5,852.646484375,922.0833333333334C852.646484375,937.6666666666666,852.646484375,946.8333333333334,852.646484375,951.4166666666666L852.646484375,956"/><path marker-end="url(#my-svg_classDiagram-dependencyEnd)" style="fill:none" class="edge-pattern-solid relation" id="id13" d="M852.646484375,1082L852.646484375,1087.5833333333333C852.646484375,1093.1666666666667,852.646484375,1104.3333333333333,849.8975717644462,1114.635904410702C847.1486591538925,1124.938475488071,841.6508339327851,1134.3769509761416,838.9019213222313,1139.0961887201772L836.1530087116776,1143.8154264642126"/><path marker-end="url(#my-svg_classDiagram-dependencyEnd)" style="fill:none" class="edge-pattern-solid relation" id="id14" d="M779.7434117075359,664L791.8939238187799,669.5833333333334C804.044435930024,675.1666666666666,828.3454601525119,686.3333333333334,840.4959722637559,701.9166666666666C852.646484375,717.5,852.646484375,737.5,852.646484375,747.5L852.646484375,757.5"/><path marker-end="url(#my-svg_classDiagram-dependencyEnd)" style="fill:none" class="edge-pattern-solid relation" id="id15" d="M431.404296875,631.4011641900473L375.7991536458333,642.4176368250395C320.1940104166667,653.4341094600316,208.98372395833334,675.4670547300158,153.37858072916666,698.2335273650078C97.7734375,721,97.7734375,744.5,97.7734375,756.25L97.7734375,768"/><path style="fill:none" class="edge-pattern-dotted relation" id="edgeNote16" d="M777.984375,62.5L777.984375,71.83333333333333C777.984375,81.16666666666667,777.984375,99.83333333333333,777.984375,114.75C777.984375,129.66666666666666,777.984375,140.83333333333334,777.984375,146.41666666666666L777.984375,152"/></g><g class="edgeLabels"><g transform="translate(470.25, 118.5)" class="edgeLabel"><g transform="translate(-89.8359375, -8.5)" class="label"><rect height="18.35441017150879" width="180.06166076660156" ry="0" rx="0"/><text style=""><tspan class="row" x="0" dy="1em" xml:space="preserve">sends connection configs</tspan></text></g></g><g transform="translate(455.25, 102.5)" class="edgeTerminals"><g transform="translate(-3.0625, -6)" class="inner"><text style=""><tspan class="row" x="0" dy="1em" xml:space="preserve">1</tspan></text></g></g><g transform="translate(480.25, 140)" class="edgeTerminals"><g transform="translate(-3.0625, -6)" class="inner"/><text style=""><tspan class="row" x="0" dy="1em" xml:space="preserve">1</tspan></text></g><g transform="translate(470.25, 283.5)" class="edgeLabel"><g transform="translate(-127.2265625, -8.5)" class="label"><rect height="18.35441017150879" width="254.99107360839844" ry="0" rx="0"/><text style=""><tspan class="row" x="0" dy="1em" xml:space="preserve">sends new monolith websockets via</tspan></text></g></g><g transform="translate(455.25, 257)" class="edgeTerminals"><g transform="translate(-3.0625, -6)" class="inner"><text style=""><tspan class="row" x="0" dy="1em" xml:space="preserve">1</tspan></text></g></g><g transform="translate(545.1233883425853, 309.6340010026743)" class="edgeTerminals"><g transform="translate(-3.0625, -6)" class="inner"/><text style=""><tspan class="row" x="0" dy="1em" xml:space="preserve">1</tspan></text></g><g transform="translate(777.984375, 283.5)" class="edgeLabel"><g transform="translate(-115.6640625, -8.5)" class="label"><rect height="18.35441017150879" width="231.8897247314453" ry="0" rx="0"/><text style=""><tspan class="row" x="0" dy="1em" xml:space="preserve">sends new client websockets via</tspan></text></g></g><g transform="translate(762.3569316427692, 266.5869410598797)" class="edgeTerminals"><g transform="translate(-3.0625, -6)" class="inner"><text style=""><tspan class="row" x="0" dy="1em" xml:space="preserve">1</tspan></text></g></g><g transform="translate(710.9829251215243, 334.49561494701817)" class="edgeTerminals"><g transform="translate(-3.0625, -6)" class="inner"/><text style=""><tspan class="row" x="0" dy="1em" xml:space="preserve">1</tspan></text></g><g transform="translate(356.982421875, 697.5)" class="edgeLabel"><g transform="translate(-61.359375, -8.5)" class="label"><rect height="18.35441017150879" width="123.16679382324219" ry="0" rx="0"/><text style=""><tspan class="row" x="0" dy="1em" xml:space="preserve">selects monoliths</tspan></text></g></g><g transform="translate(288.5301540652439, 674.3296925652435)" class="edgeTerminals"><g transform="translate(-3.0625, -6)" class="inner"><text style=""><tspan class="row" x="0" dy="1em" xml:space="preserve">1</tspan></text></g></g><g transform="translate(380.0557602999338, 702.9551997922342)" class="edgeTerminals"><g transform="translate(-3.0625, -6)" class="inner"/><text style=""><tspan class="row" x="0" dy="1em" xml:space="preserve">1</tspan></text></g><g transform="translate(180.84375, 480.5)" class="edgeLabel"><g transform="translate(-40.90625, -8.5)" class="label"><rect height="18.35441017150879" width="82.29458618164062" ry="0" rx="0"/><text style=""><tspan class="row" x="0" dy="1em" xml:space="preserve">implements</tspan></text></g></g><g transform="translate(165.84375, 434)" class="edgeTerminals"><g transform="translate(-3.0625, -6)" class="inner"><text style=""><tspan class="row" x="0" dy="1em" xml:space="preserve">1</tspan></text></g></g><g transform="translate(190.84375, 511)" class="edgeTerminals"><g transform="translate(-3.0625, -6)" class="inner"/><text style=""><tspan class="row" x="0" dy="1em" xml:space="preserve">1</tspan></text></g><g class="edgeLabel"><g transform="translate(0, 0)" class="label"><rect height="0" width="0" ry="0" rx="0"/><text style=""><tspan class="row" x="0" dy="1em" xml:space="preserve"/></text></g></g><g transform="translate(612.2886427827435, 681.0610397176209)" class="edgeTerminals"><g transform="translate(-3.0625, -6)" class="inner"><text style=""><tspan class="row" x="0" dy="1em" xml:space="preserve">1</tspan></text></g></g><g transform="translate(595.1917015075624, 728.9474910293909)" class="edgeTerminals"><g transform="translate(-3.0625, -6)" class="inner"/><text style=""><tspan class="row" x="0" dy="1em" xml:space="preserve">1</tspan></text></g><g transform="translate(625.232421875, 480.5)" class="edgeLabel"><g transform="translate(-166.3125, -16.5)" class="label"><rect height="34.35441207885742" width="332.85052490234375" ry="0" rx="0"/><text style=""><tspan class="row" x="0" dy="1em" xml:space="preserve">sends inbound msgs via channels,</tspan><tspan class="row" x="0" dy="1em" xml:space="preserve">receives channel Receivers for outbound msgs</tspan></text></g></g><g transform="translate(610.2324209375, 456.4999991964286)" class="edgeTerminals"><g transform="translate(-3.0625, -6)" class="inner"><text style=""><tspan class="row" x="0" dy="1em" xml:space="preserve">1</tspan></text></g></g><g transform="translate(635.2324209375, 499.4999991964286)" class="edgeTerminals"><g transform="translate(-3.0625, -6)" class="inner"/><text style=""><tspan class="row" x="0" dy="1em" xml:space="preserve">1</tspan></text></g><g transform="translate(156.26953125, 1115.5)" class="edgeLabel"><g transform="translate(-28.453125, -8.5)" class="label"><rect height="18.35441017150879" width="57.42161560058594" ry="0" rx="0"/><text style=""><tspan class="row" x="0" dy="1em" xml:space="preserve">Collects</tspan></text></g></g><g transform="translate(141.26953062500002, 1088.9999994642858)" class="edgeTerminals"><g transform="translate(-3.0625, -6)" class="inner"><text style=""><tspan class="row" x="0" dy="1em" xml:space="preserve">1</tspan></text></g></g><g transform="translate(166.26953062500002, 1137.4999994642858)" class="edgeTerminals"><g transform="translate(-8.614990234375, -6)" class="inner"/><text style=""><tspan class="row" x="0" dy="1em" xml:space="preserve">0..*</tspan></text></g><g transform="translate(97.7734375, 928.5)" class="edgeLabel"><g transform="translate(-70.3125, -8.5)" class="label"><rect height="18.35441017150879" width="140.3921356201172" ry="0" rx="0"/><text style=""><tspan class="row" x="0" dy="1em" xml:space="preserve">consumed to create</tspan></text></g></g><g transform="translate(82.77343875000004, 869.5000010714285)" class="edgeTerminals"><g transform="translate(-3.0625, -6)" class="inner"><text style=""><tspan class="row" x="0" dy="1em" xml:space="preserve">1</tspan></text></g></g><g transform="translate(123.73573736575258, 944.7084964373689)" class="edgeTerminals"><g transform="translate(-3.0625, -6)" class="inner"/><text style=""><tspan class="row" x="0" dy="1em" xml:space="preserve">1</tspan></text></g><g transform="translate(333.5234375, 928.5)" class="edgeLabel"><g transform="translate(-26.6796875, -8.5)" class="label"><rect height="18.35441017150879" width="53.87056350708008" ry="0" rx="0"/><text style=""><tspan class="row" x="0" dy="1em" xml:space="preserve">collects</tspan></text></g></g><g transform="translate(344.9650124812617, 896.4480322252161)" class="edgeTerminals"><g transform="translate(-3.0625, -6)" class="inner"><text style=""><tspan class="row" x="0" dy="1em" xml:space="preserve">1</tspan></text></g></g><g transform="translate(267.58680567250394, 972.6025212051087)" class="edgeTerminals"><g transform="translate(-8.614990234375, -6)" class="inner"/><text style=""><tspan class="row" x="0" dy="1em" xml:space="preserve">0..*</tspan></text></g><g transform="translate(612.404296875, 1022)" class="edgeLabel"><g transform="translate(-26.6796875, -8.5)" class="label"><rect height="18.35441017150879" width="53.87056350708008" ry="0" rx="0"/><text style=""><tspan class="row" x="0" dy="1em" xml:space="preserve">collects</tspan></text></g></g><g transform="translate(571.3794947532921, 917.4030640469923)" class="edgeTerminals"><g transform="translate(-3.0625, -6)" class="inner"><text style=""><tspan class="row" x="0" dy="1em" xml:space="preserve">1</tspan></text></g></g><g transform="translate(711.3927649301431, 1146.0432693015116)" class="edgeTerminals"><g transform="translate(-8.614990234375, -6)" class="inner"/><text style=""><tspan class="row" x="0" dy="1em" xml:space="preserve">0..*</tspan></text></g><g transform="translate(852.646484375, 928.5)" class="edgeLabel"><g transform="translate(-91.671875, -8.5)" class="label"><rect height="18.35441017150879" width="183.3911590576172" ry="0" rx="0"/><text style=""><tspan class="row" x="0" dy="1em" xml:space="preserve">when auth token received</tspan></text></g></g><g transform="translate(852.646484375, 1115.5)" class="edgeLabel"><g transform="translate(-70.3125, -8.5)" class="label"><rect height="18.35441017150879" width="140.3921356201172" ry="0" rx="0"/><text style=""><tspan class="row" x="0" dy="1em" xml:space="preserve">consumed to create</tspan></text></g></g><g transform="translate(852.646484375, 697.5)" class="edgeLabel"><g transform="translate(-82.55078125, -8.5)" class="label"><rect height="18.35441017150879" width="164.83230590820312" ry="0" rx="0"/><text style=""><tspan class="row" x="0" dy="1em" xml:space="preserve">create upon websocket</tspan></text></g></g><g transform="translate(97.7734375, 697.5)" class="edgeLabel"><g transform="translate(-82.55078125, -8.5)" class="label"><rect height="18.35441017150879" width="164.83230590820312" ry="0" rx="0"/><text style=""><tspan class="row" x="0" dy="1em" xml:space="preserve">create upon websocket</tspan></text></g></g><g class="edgeLabel"><g transform="translate(0, 0)" class="label"><rect height="0" width="0" ry="0" rx="0"/><text style=""><tspan class="row" x="0" dy="1em" xml:space="preserve"/></text></g></g></g><g class="nodes"><g transform="translate(625.232421875, 593)" id="classId-Balancer-0" class="node default"><rect height="142" width="387.65625" y="-71" x="-193.828125" class="outer title-state"/><line y2="-42" y1="-42" x2="193.828125" x1="-193.828125" class="divider"/><line y2="16" y1="16" x2="193.828125" x1="-193.828125" class="divider"/><g class="label"><text style=""><tspan class="title-row" x="0" dy="1em" xml:space="preserve"/></text><text transform="translate( -33.796875, -63.5)" class="classTitle" style=""><tspan class="title-row" x="0" dy="1em" xml:space="preserve">Balancer</tspan></text><text transform="translate( -186.328125, -30.5)" style=""><tspan class="title-row" x="0" dy="1em" xml:space="preserve">ctx: Arc&lt;RwLock&lt;BalancerContext&gt;&gt;</tspan></text><text transform="translate( -186.328125, -9.5)" style=""><tspan class="title-row" x="0" dy="1em" xml:space="preserve">...[channels for receiving new nodes, and messages]</tspan></text><text transform="translate( -186.328125, 23.5)" style=""><tspan class="title-row" x="0" dy="1em" xml:space="preserve">new_link() : : BalancerLink</tspan></text><text transform="translate( -186.328125, 45.5)" style=""><tspan class="title-row" x="0" dy="1em" xml:space="preserve">dispatch_loop()</tspan></text></g></g><g transform="translate(470.25, 46.5)" id="classId-ServiceDiscoverer-1" class="node default"><rect height="77" width="154.65625" y="-38.5" x="-77.328125" class="outer title-state"/><line y2="11.5" y1="11.5" x2="77.328125" x1="-77.328125" class="divider"/><line y2="27.5" y1="27.5" x2="77.328125" x1="-77.328125" class="divider"/><g class="label"><text transform="translate( -22.28515625, -31)" style=""><tspan class="title-row" x="0" dy="1em" xml:space="preserve">«trait»</tspan></text><text transform="translate( -69.828125, -10)" class="classTitle" style=""><tspan class="title-row" x="0" dy="1em" xml:space="preserve">ServiceDiscoverer</tspan></text></g></g><g transform="translate(470.25, 201)" id="classId-MonolithConnectionManager-2" class="node default"><rect height="77" width="235.4375" y="-38.5" x="-117.71875" class="outer title-state"/><line y2="-9.5" y1="-9.5" x2="117.71875" x1="-117.71875" class="divider"/><line y2="27.5" y1="27.5" x2="117.71875" x1="-117.71875" class="divider"/><g class="label"><text style=""><tspan class="title-row" x="0" dy="1em" xml:space="preserve"/></text><text transform="translate( -110.21875, -31)" class="classTitle" style=""><tspan class="title-row" x="0" dy="1em" xml:space="preserve">MonolithConnectionManager</tspan></text><text transform="translate( -110.21875, 2)" style=""><tspan class="title-row" x="0" dy="1em" xml:space="preserve">link: BalancerLink</tspan></text></g></g><g transform="translate(625.232421875, 378)" id="classId-BalancerLink-3" class="node default"><rect height="122" width="135.953125" y="-61" x="-67.9765625" class="outer title-state"/><line y2="-32" y1="-32" x2="67.9765625" x1="-67.9765625" class="divider"/><line y2="50" y1="50" x2="67.9765625" x1="-67.9765625" class="divider"/><g class="label"><text style=""><tspan class="title-row" x="0" dy="1em" xml:space="preserve"/></text><text transform="translate( -50.29296875, -53.5)" class="classTitle" style=""><tspan class="title-row" x="0" dy="1em" xml:space="preserve">BalancerLink</tspan></text><text transform="translate( -60.4765625, -20.5)" style=""><tspan class="title-row" x="0" dy="1em" xml:space="preserve">new_client_tx</tspan></text><text transform="translate( -60.4765625, 1.5)" style=""><tspan class="title-row" x="0" dy="1em" xml:space="preserve">new_monolith_tx</tspan></text><text transform="translate( -60.4765625, 23.5)" style=""><tspan class="title-row" x="0" dy="1em" xml:space="preserve">monolith_msg_tx</tspan></text></g></g><g transform="translate(777.984375, 201)" id="classId-BalancerService-4" class="node default"><rect height="98" width="280.03125" y="-49" x="-140.015625" class="outer title-state"/><line y2="-20" y1="-20" x2="140.015625" x1="-140.015625" class="divider"/><line y2="38" y1="38" x2="140.015625" x1="-140.015625" class="divider"/><g class="label"><text style=""><tspan class="title-row" x="0" dy="1em" xml:space="preserve"/></text><text transform="translate( -62.31640625, -41.5)" class="classTitle" style=""><tspan class="title-row" x="0" dy="1em" xml:space="preserve">BalancerService</tspan></text><text transform="translate( -132.515625, -8.5)" style=""><tspan class="title-row" x="0" dy="1em" xml:space="preserve">ctx: Arc&lt;RwLock&lt;BalancerContext&gt;&gt;</tspan></text><text transform="translate( -132.515625, 12.5)" style=""><tspan class="title-row" x="0" dy="1em" xml:space="preserve">link: BalancerLink</tspan></text></g></g><g transform="translate(97.7734375, 813)" id="classId-NewMonolith-5" class="node default"><rect height="78" width="179.546875" y="-39" x="-89.7734375" class="outer title-state"/><line y2="-10" y1="-10" x2="89.7734375" x1="-89.7734375" class="divider"/><line y2="28" y1="28" x2="89.7734375" x1="-89.7734375" class="divider"/><g class="label"><text style=""><tspan class="title-row" x="0" dy="1em" xml:space="preserve"/></text><text transform="translate( -49.7734375, -31.5)" class="classTitle" style=""><tspan class="title-row" x="0" dy="1em" xml:space="preserve">NewMonolith</tspan></text><text transform="translate( -82.2734375, 1.5)" style=""><tspan class="title-row" x="0" dy="1em" xml:space="preserve">monolith_id: MonolithId</tspan></text></g></g><g transform="translate(180.84375, 378)" id="classId-MonolithSelection-6" class="node default"><rect height="77" width="152.78125" y="-38.5" x="-76.390625" class="outer title-state"/><line y2="11.5" y1="11.5" x2="76.390625" x1="-76.390625" class="divider"/><line y2="27.5" y1="27.5" x2="76.390625" x1="-76.390625" class="divider"/><g class="label"><text transform="translate( -22.28515625, -31)" style=""><tspan class="title-row" x="0" dy="1em" xml:space="preserve">«trait»</tspan></text><text transform="translate( -68.890625, -10)" class="classTitle" style=""><tspan class="title-row" x="0" dy="1em" xml:space="preserve">MonolithSelection</tspan></text></g></g><g transform="translate(180.84375, 593)" id="classId-MonolithSelectionStrategy-7" class="node default"><rect height="119" width="216.8984375" y="-59.5" x="-108.44921875" class="outer title-state"/><line y2="-9.5" y1="-9.5" x2="108.44921875" x1="-108.44921875" class="divider"/><line y2="48.5" y1="48.5" x2="108.44921875" x1="-108.44921875" class="divider"/><g class="label"><text transform="translate( -28.9609375, -52)" style=""><tspan class="title-row" x="0" dy="1em" xml:space="preserve">«enum»</tspan></text><text transform="translate( -100.94921875, -31)" class="classTitle" style=""><tspan class="title-row" x="0" dy="1em" xml:space="preserve">MonolithSelectionStrategy</tspan></text><text transform="translate( -100.94921875, 2)" style=""><tspan class="title-row" x="0" dy="1em" xml:space="preserve">MinRooms</tspan></text><text transform="translate( -100.94921875, 23)" style=""><tspan class="title-row" x="0" dy="1em" xml:space="preserve">HashRing</tspan></text></g></g><g transform="translate(452.28125, 813)" id="classId-BalancerContext-8" class="node default"><rect height="164" width="429.46875" y="-82" x="-214.734375" class="outer title-state"/><line y2="-53" y1="-53" x2="214.734375" x1="-214.734375" class="divider"/><line y2="71" y1="71" x2="214.734375" x1="-214.734375" class="divider"/><g class="label"><text style=""><tspan class="title-row" x="0" dy="1em" xml:space="preserve"/></text><text transform="translate( -63.91015625, -74.5)" class="classTitle" style=""><tspan class="title-row" x="0" dy="1em" xml:space="preserve">BalancerContext</tspan></text><text transform="translate( -207.234375, -41.5)" style=""><tspan class="title-row" x="0" dy="1em" xml:space="preserve">clients: HashMap&lt;ClientId-BalancerClient&gt;,</tspan></text><text transform="translate( -207.234375, -20.5)" style=""><tspan class="title-row" x="0" dy="1em" xml:space="preserve">monoliths: HashMap&lt;MonolithId-BalancerMonolith&gt;,</tspan></text><text transform="translate( -207.234375, 0.5)" style=""><tspan class="title-row" x="0" dy="1em" xml:space="preserve">rooms_to_monoliths: HashMap&lt;RoomName-MonolithId&gt;,</tspan></text><text transform="translate( -207.234375, 22.5)" style=""><tspan class="title-row" x="0" dy="1em" xml:space="preserve">monoliths_by_region: HashMap&lt;String-Vec&lt;MonolithId&gt;&gt;,</tspan></text><text transform="translate( -207.234375, 44.5)" style=""><tspan class="title-row" x="0" dy="1em" xml:space="preserve">monolith_selection: MonolithSelectionStrategy,</tspan></text></g></g><g transform="translate(156.26953125, 1022)" id="classId-BalancerMonolith-9" class="node default"><rect height="99" width="288.875" y="-49.5" x="-144.4375" class="outer title-state"/><line y2="-20.5" y1="-20.5" x2="144.4375" x1="-144.4375" class="divider"/><line y2="38.5" y1="38.5" x2="144.4375" x1="-144.4375" class="divider"/><g class="label"><text style=""><tspan class="title-row" x="0" dy="1em" xml:space="preserve"/></text><text transform="translate( -67.1171875, -42)" class="classTitle" style=""><tspan class="title-row" x="0" dy="1em" xml:space="preserve">BalancerMonolith</tspan></text><text transform="translate( -136.9375, -9)" style=""><tspan class="title-row" x="0" dy="1em" xml:space="preserve">monolith_id: MonolithId</tspan></text><text transform="translate( -136.9375, 13)" style=""><tspan class="title-row" x="0" dy="1em" xml:space="preserve">rooms: Hashmap&lt;RoomName-Room&gt;</tspan></text></g></g><g transform="translate(156.26953125, 1209)" id="classId-Room-10" class="node default"><rect height="98" width="168.875" y="-49" x="-84.4375" class="outer title-state"/><line y2="-20" y1="-20" x2="84.4375" x1="-84.4375" class="divider"/><line y2="38" y1="38" x2="84.4375" x1="-84.4375" class="divider"/><g class="label"><text style=""><tspan class="title-row" x="0" dy="1em" xml:space="preserve"/></text><text transform="translate( -22.6640625, -41.5)" class="classTitle" style=""><tspan class="title-row" x="0" dy="1em" xml:space="preserve">Room</tspan></text><text transform="translate( -76.9375, -8.5)" style=""><tspan class="title-row" x="0" dy="1em" xml:space="preserve">name: RoomName</tspan></text><text transform="translate( -76.9375, 12.5)" style=""><tspan class="title-row" x="0" dy="1em" xml:space="preserve">clients: Vec&lt;ClientId&gt;</tspan></text></g></g><g transform="translate(798.18359375, 1209)" id="classId-BalancerClient-11" class="node default"><rect height="120" width="145.8046875" y="-60" x="-72.90234375" class="outer title-state"/><line y2="-31" y1="-31" x2="72.90234375" x1="-72.90234375" class="divider"/><line y2="49" y1="49" x2="72.90234375" x1="-72.90234375" class="divider"/><g class="label"><text style=""><tspan class="title-row" x="0" dy="1em" xml:space="preserve"/></text><text transform="translate( -56.35546875, -52.5)" class="classTitle" style=""><tspan class="title-row" x="0" dy="1em" xml:space="preserve">BalancerClient</tspan></text><text transform="translate( -65.40234375, -19.5)" style=""><tspan class="title-row" x="0" dy="1em" xml:space="preserve">client_id: ClientId</tspan></text><text transform="translate( -65.40234375, 2.5)" style=""><tspan class="title-row" x="0" dy="1em" xml:space="preserve">room: RoomName</tspan></text><text transform="translate( -65.40234375, 23.5)" style=""><tspan class="title-row" x="0" dy="1em" xml:space="preserve">token: String</tspan></text></g></g><g transform="translate(852.646484375, 813)" id="classId-UnauthorizedClient-12" class="node default"><rect height="99" width="162.3359375" y="-49.5" x="-81.16796875" class="outer title-state"/><line y2="-20.5" y1="-20.5" x2="81.16796875" x1="-81.16796875" class="divider"/><line y2="38.5" y1="38.5" x2="81.16796875" x1="-81.16796875" class="divider"/><g class="label"><text style=""><tspan class="title-row" x="0" dy="1em" xml:space="preserve"/></text><text transform="translate( -73.66796875, -42)" class="classTitle" style=""><tspan class="title-row" x="0" dy="1em" xml:space="preserve">UnauthorizedClient</tspan></text><text transform="translate( -73.66796875, -9)" style=""><tspan class="title-row" x="0" dy="1em" xml:space="preserve">client_id: ClientId</tspan></text><text transform="translate( -73.66796875, 13)" style=""><tspan class="title-row" x="0" dy="1em" xml:space="preserve">room: RoomName</tspan></text></g></g><g transform="translate(852.646484375, 1022)" id="classId-NewClient-13" class="node default"><rect height="120" width="145.8046875" y="-60" x="-72.90234375" class="outer title-state"/><line y2="-31" y1="-31" x2="72.90234375" x1="-72.90234375" class="divider"/><line y2="49" y1="49" x2="72.90234375" x1="-72.90234375" class="divider"/><g class="label"><text style=""><tspan class="title-row" x="0" dy="1em" xml:space="preserve"/></text><text transform="translate( -39.0078125, -52.5)" class="classTitle" style=""><tspan class="title-row" x="0" dy="1em" xml:space="preserve">NewClient</tspan></text><text transform="translate( -65.40234375, -19.5)" style=""><tspan class="title-row" x="0" dy="1em" xml:space="preserve">client_id: ClientId</tspan></text><text transform="translate( -65.40234375, 2.5)" style=""><tspan class="title-row" x="0" dy="1em" xml:space="preserve">room: RoomName</tspan></text><text transform="translate( -65.40234375, 23.5)" style=""><tspan class="title-row" x="0" dy="1em" xml:space="preserve">token: String</tspan></text></g></g><g transform="translate(777.984375, 46.5)" id="note0" class="node undefined"><rect height="32" width="119.921875" y="-16" x="-59.9609375" ry="0" rx="0"/><g transform="translate(-52.4609375, -8.5)" style="" class="label"><rect/><text style=""><tspan class="row" x="0" dy="1em" xml:space="preserve">Handles HTTP</tspan></text></g></g></g></g></g></svg>