<?xml version="1.0" encoding="us-ascii" standalone="no"?><svg xmlns="http://www.w3.org/2000/svg" xmlns:xlink="http://www.w3.org/1999/xlink" contentStyleType="text/css" height="418px" preserveAspectRatio="none" style="width:765px;height:418px;background:#FFFFFF;" version="1.1" viewBox="0 0 765 418" width="765px" zoomAndPan="magnify"><defs/><g><!--cluster Rust crates--><g id="cluster_Rust crates"><path d="M8.5,6 L90.5,6 A3.75,3.75 0 0 1 93,8.5 L100,28.4883 L755.5,28.4883 A2.5,2.5 0 0 1 758,30.9883 L758,409.41 A2.5,2.5 0 0 1 755.5,411.91 L8.5,411.91 A2.5,2.5 0 0 1 6,409.41 L6,8.5 A2.5,2.5 0 0 1 8.5,6 " fill="none" style="stroke:#000000;stroke-width:1.5;"/><line style="stroke:#000000;stroke-width:1.5;" x1="6" x2="100" y1="28.4883" y2="28.4883"/><text fill="#000000" font-family="sans-serif" font-size="14" font-weight="bold" lengthAdjust="spacing" textLength="81" x="10" y="21.5352">Rust crates</text></g><!--entity ott_common--><g id="elem_ott_common"><path d="M500.5,331.69 L599.5,331.69 A3.75,3.75 0 0 1 602,334.19 L609,354.1783 L739.5,354.1783 A2.5,2.5 0 0 1 742,356.6783 L742,385.1666 A2.5,2.5 0 0 1 739.5,387.6666 L500.5,387.6666 A2.5,2.5 0 0 1 498,385.1666 L498,334.19 A2.5,2.5 0 0 1 500.5,331.69 " fill="#F1F1F1" style="stroke:#181818;stroke-width:0.5;"/><line style="stroke:#181818;stroke-width:0.5;" x1="498" x2="609" y1="354.1783" y2="354.1783"/><text fill="#000000" font-family="sans-serif" font-size="14" lengthAdjust="spacing" textLength="86" x="508" y="348.2252">ott_common</text><text fill="#000000" font-family="sans-serif" font-size="14" lengthAdjust="spacing" textLength="214" x="508" y="374.7134">Contains common functionality</text></g><!--entity ott_balancer_bin--><g id="elem_ott_balancer_bin"><path d="M588.5,182.22 L715.5,182.22 A3.75,3.75 0 0 1 718,184.72 L725,204.7083 L739.5,204.7083 A2.5,2.5 0 0 1 742,207.2083 L742,235.6966 A2.5,2.5 0 0 1 739.5,238.1966 L588.5,238.1966 A2.5,2.5 0 0 1 586,235.6966 L586,184.72 A2.5,2.5 0 0 1 588.5,182.22 " fill="#F1F1F1" style="stroke:#181818;stroke-width:0.5;"/><line style="stroke:#181818;stroke-width:0.5;" x1="586" x2="725" y1="204.7083" y2="204.7083"/><text fill="#000000" font-family="sans-serif" font-size="14" lengthAdjust="spacing" textLength="114" x="596" y="198.7552">ott_balancer_bin</text><text fill="#000000" font-family="sans-serif" font-size="14" lengthAdjust="spacing" textLength="88" x="596" y="225.2434">The Balancer</text></g><!--entity ott_balancer_protocol--><g id="elem_ott_balancer_protocol"><path d="M152,323.45 L315,323.45 A3.75,3.75 0 0 1 317.5,325.95 L324.5,345.9383 L388,345.9383 A2.5,2.5 0 0 1 390.5,348.4383 L390.5,393.4148 A2.5,2.5 0 0 1 388,395.9148 L152,395.9148 A2.5,2.5 0 0 1 149.5,393.4148 L149.5,325.95 A2.5,2.5 0 0 1 152,323.45 " fill="#F1F1F1" style="stroke:#181818;stroke-width:0.5;"/><line style="stroke:#181818;stroke-width:0.5;" x1="149.5" x2="324.5" y1="345.9383" y2="345.9383"/><text fill="#000000" font-family="sans-serif" font-size="14" lengthAdjust="spacing" textLength="150" x="159.5" y="339.9852">ott_balancer_protocol</text><text fill="#000000" font-family="sans-serif" font-size="14" lengthAdjust="spacing" textLength="211" x="159.5" y="366.4734">Provides types shared between</text><text fill="#000000" font-family="sans-serif" font-size="14" lengthAdjust="spacing" textLength="179" x="159.5" y="382.9617">the Balancer and Monolith</text></g><!--entity harness--><g id="elem_harness"><path d="M150,173.98 L217,173.98 A3.75,3.75 0 0 1 219.5,176.48 L226.5,196.4683 L390,196.4683 A2.5,2.5 0 0 1 392.5,198.9683 L392.5,243.9448 A2.5,2.5 0 0 1 390,246.4448 L150,246.4448 A2.5,2.5 0 0 1 147.5,243.9448 L147.5,176.48 A2.5,2.5 0 0 1 150,173.98 " fill="#F1F1F1" style="stroke:#181818;stroke-width:0.5;"/><line style="stroke:#181818;stroke-width:0.5;" x1="147.5" x2="226.5" y1="196.4683" y2="196.4683"/><text fill="#000000" font-family="sans-serif" font-size="14" lengthAdjust="spacing" textLength="54" x="157.5" y="190.5152">harness</text><text fill="#000000" font-family="sans-serif" font-size="14" lengthAdjust="spacing" textLength="193" x="157.5" y="217.0034">Provides abstraction around</text><text fill="#000000" font-family="sans-serif" font-size="14" lengthAdjust="spacing" textLength="215" x="157.5" y="233.4917">integration testing the Balancer</text></g><!--entity harness_tests--><g id="elem_harness_tests"><path d="M84.5,41 L190.5,41 A3.75,3.75 0 0 1 193,43.5 L200,63.4883 L333.5,63.4883 A2.5,2.5 0 0 1 336,65.9883 L336,94.4766 A2.5,2.5 0 0 1 333.5,96.9766 L84.5,96.9766 A2.5,2.5 0 0 1 82,94.4766 L82,43.5 A2.5,2.5 0 0 1 84.5,41 " fill="#F1F1F1" style="stroke:#181818;stroke-width:0.5;"/><line style="stroke:#181818;stroke-width:0.5;" x1="82" x2="200" y1="63.4883" y2="63.4883"/><text fill="#000000" font-family="sans-serif" font-size="14" lengthAdjust="spacing" textLength="93" x="92" y="57.5352">harness_tests</text><text fill="#000000" font-family="sans-serif" font-size="14" lengthAdjust="spacing" textLength="224" x="92" y="84.0234">Tests the Balancer using harness</text></g><!--link ott_balancer_bin to ott_common--><g id="link_ott_balancer_bin_ott_common"><path codeLine="23" d="M655.83,238.6 C648.51,263.13 637.76,299.15 629.95,325.33 " fill="none" id="ott_balancer_bin-to-ott_common" style="stroke:#181818;stroke-width:1.0;"/><polygon fill="#181818" points="628.56,329.98,634.9611,322.4949,629.9863,325.1877,627.2935,320.2129,628.56,329.98" style="stroke:#181818;stroke-width:1.0;"/><text fill="#000000" font-family="sans-serif" font-size="13" lengthAdjust="spacing" textLength="53" x="644" y="290.0184">depends</text></g><!--link ott_balancer_bin to ott_balancer_protocol--><g id="link_ott_balancer_bin_ott_balancer_protocol"><path codeLine="24" d="M590.81,238.6 C528.91,261.77 439.57,295.21 370.88,320.92 " fill="none" id="ott_balancer_bin-to-ott_balancer_protocol" style="stroke:#181818;stroke-width:1.0;"/><polygon fill="#181818" points="366.55,322.54,376.3815,323.1252,371.2316,320.7844,373.5725,315.6346,366.55,322.54" style="stroke:#181818;stroke-width:1.0;"/><text fill="#000000" font-family="sans-serif" font-size="13" lengthAdjust="spacing" textLength="53" x="479" y="290.0184">depends</text></g><!--link harness to ott_balancer_protocol--><g id="link_harness_ott_balancer_protocol"><path codeLine="25" d="M270,246.91 C270,267.93 270,294.64 270,316.68 " fill="none" id="harness-to-ott_balancer_protocol" style="stroke:#181818;stroke-width:1.0;"/><polygon fill="#181818" points="270,321.54,274,312.54,270,316.54,266,312.54,270,321.54" style="stroke:#181818;stroke-width:1.0;"/><text fill="#000000" font-family="sans-serif" font-size="13" lengthAdjust="spacing" textLength="53" x="271" y="290.0184">depends</text></g><!--link harness_tests to harness--><g id="link_harness_tests_harness"><path codeLine="26" d="M220.91,97.17 C229.73,117.3 241.91,145.09 251.93,167.96 " fill="none" id="harness_tests-to-harness" style="stroke:#181818;stroke-width:1.0;"/><polygon fill="#181818" points="253.82,172.28,253.8515,162.4312,251.8039,167.7045,246.5306,165.6569,253.82,172.28" style="stroke:#181818;stroke-width:1.0;"/><text fill="#000000" font-family="sans-serif" font-size="13" lengthAdjust="spacing" textLength="53" x="242" y="140.5484">depends</text></g><!--link harness_tests to ott_balancer_protocol--><g id="link_harness_tests_ott_balancer_protocol"><path codeLine="27" d="M153.06,97.43 C124.04,114.95 91.32,140.66 75,173.98 C60.83,202.9 58.88,218.56 75,246.45 C93.81,278.97 126.01,302.9 158.89,320.1 " fill="none" id="harness_tests-to-ott_balancer_protocol" style="stroke:#181818;stroke-width:1.0;"/><polygon fill="#181818" points="163.25,322.33,157.0474,314.6796,158.7951,320.0597,153.415,321.8074,163.25,322.33" style="stroke:#181818;stroke-width:1.0;"/><text fill="#000000" font-family="sans-serif" font-size="13" lengthAdjust="spacing" textLength="53" x="76" y="215.2784">depends</text></g><!--link harness to ott_balancer_bin--><g id="link_harness_ott_balancer_bin"><path codeLine="28" d="M399.09,210.21 C458.33,210.21 526.9,210.21 579.44,210.21 " fill="none" id="harness-ott_balancer_bin" style="stroke:#181818;stroke-width:1.0;"/><polygon fill="#181818" points="394.29,210.21,403.29,214.21,399.29,210.21,403.29,206.21,394.29,210.21" style="stroke:#181818;stroke-width:1.0;"/><polygon fill="#181818" points="584.25,210.21,575.25,206.21,579.25,210.21,575.25,214.21,584.25,210.21" style="stroke:#181818;stroke-width:1.0;"/><text fill="#000000" font-family="sans-serif" font-size="13" lengthAdjust="spacing" textLength="157" x="410.75" y="203.7784">connects via websockets</text></g><!--SRC=[ZL91QiCm4Bpx5Klk_a0eERJdGYcvbM9MqiOMSNQDTfqGIlzUsTWqSPEIYn6ZcTcTaNVI1agmUk_Lm2SqqXLy5G0T-ZtM169MUJaSXE4Zmm0lmeQH5IPqrxEtA8njj7DcV2x43bjaJwboSRRODWJF4_oVeajYugMTP6z9ZZ6GWfsx_DK64mLmP2SY7XbsOGp80Lw59U_LBAPa9PFgqXUTMi8n3M2IdiDu7zcepjKCSEx78jTNaswRLmDr7h4TprVhzJhuJEJHuhieYZ-DbUNcyWtM4AWZ3dg3kRdJtgzcpbq-pfrY38fPVPVp-09FI-uGO9r_AMRosUeO4KxaLFoUJ8iV]--></g></svg>