<svg aria-roledescription="classDiagram" role="graphics-document document" viewBox="-8 -8 904.85546875 1285" style="max-width: 904.855px; background-color: white;" xmlns:xlink="http://www.w3.org/1999/xlink" xmlns="http://www.w3.org/2000/svg" width="100%" id="my-svg"><style>#my-svg{font-family:"trebuchet ms",verdana,arial,sans-serif;font-size:16px;fill:#000000;}#my-svg .error-icon{fill:#552222;}#my-svg .error-text{fill:#552222;stroke:#552222;}#my-svg .edge-thickness-normal{stroke-width:2px;}#my-svg .edge-thickness-thick{stroke-width:3.5px;}#my-svg .edge-pattern-solid{stroke-dasharray:0;}#my-svg .edge-pattern-dashed{stroke-dasharray:3;}#my-svg .edge-pattern-dotted{stroke-dasharray:2;}#my-svg .marker{fill:#666;stroke:#666;}#my-svg .marker.cross{stroke:#666;}#my-svg svg{font-family:"trebuchet ms",verdana,arial,sans-serif;font-size:16px;}#my-svg g.classGroup text{fill:#999;fill:#111111;stroke:none;font-family:"trebuchet ms",verdana,arial,sans-serif;font-size:10px;}#my-svg g.classGroup text .title{font-weight:bolder;}#my-svg .nodeLabel,#my-svg .edgeLabel{color:#111111;}#my-svg .edgeLabel .label rect{fill:#eee;}#my-svg .label text{fill:#111111;}#my-svg .edgeLabel .label span{background:#eee;}#my-svg .classTitle{font-weight:bolder;}#my-svg .node rect,#my-svg .node circle,#my-svg .node ellipse,#my-svg .node polygon,#my-svg .node path{fill:#eee;stroke:#999;stroke-width:1px;}#my-svg .divider{stroke:#999;stroke-width:1;}#my-svg g.clickable{cursor:pointer;}#my-svg g.classGroup rect{fill:#eee;stroke:#999;}#my-svg g.classGroup line{stroke:#999;stroke-width:1;}#my-svg .classLabel .box{stroke:none;stroke-width:0;fill:#eee;opacity:0.5;}#my-svg .classLabel .label{fill:#999;font-size:10px;}#my-svg .relation{stroke:#666;stroke-width:1;fill:none;}#my-svg .dashed-line{stroke-dasharray:3;}#my-svg .dotted-line{stroke-dasharray:1 2;}#my-svg #compositionStart,#my-svg .composition{fill:#666!important;stroke:#666!important;stroke-width:1;}#my-svg #compositionEnd,#my-svg .composition{fill:#666!important;stroke:#666!important;stroke-width:1;}#my-svg #dependencyStart,#my-svg .dependency{fill:#666!important;stroke:#666!important;stroke-width:1;}#my-svg #dependencyStart,#my-svg .dependency{fill:#666!important;stroke:#666!important;stroke-width:1;}#my-svg #extensionStart,#my-svg .extension{fill:#eee!important;stroke:#666!important;stroke-width:1;}#my-svg #extensionEnd,#my-svg .extension{fill:#eee!important;stroke:#666!important;stroke-width:1;}#my-svg #aggregationStart,#my-svg .aggregation{fill:#eee!important;stroke:#666!important;stroke-width:1;}#my-svg #aggregationEnd,#my-svg .aggregation{fill:#eee!important;stroke:#666!important;stroke-width:1;}#my-svg #lollipopStart,#my-svg .lollipop{fill:#eee!important;stroke:#666!important;stroke-width:1;}#my-svg #lollipopEnd,#my-svg .lollipop{fill:#eee!important;stroke:#666!important;stroke-width:1;}#my-svg .edgeTerminals{font-size:11px;}#my-svg .classTitleText{text-anchor:middle;font-size:18px;fill:#000000;}#my-svg :root{--mermaid-font-family:"trebuchet ms",verdana,arial,sans-serif;}</style><g><defs><marker orient="auto" markerHeight="240" markerWidth="190" refY="7" refX="0" class="marker aggregation classDiagram" id="classDiagram-aggregationStart"><path d="M 18,7 L9,13 L1,7 L9,1 Z"/></marker></defs><defs><marker orient="auto" markerHeight="28" markerWidth="20" refY="7" refX="19" class="marker aggregation classDiagram" id="classDiagram-aggregationEnd"><path d="M 18,7 L9,13 L1,7 L9,1 Z"/></marker></defs><defs><marker orient="auto" markerHeight="240" markerWidth="190" refY="7" refX="0" class="marker extension classDiagram" id="classDiagram-extensionStart"><path d="M 1,7 L18,13 V 1 Z"/></marker></defs><defs><marker orient="auto" markerHeight="28" markerWidth="20" refY="7" refX="19" class="marker extension classDiagram" id="classDiagram-extensionEnd"><path d="M 1,1 V 13 L18,7 Z"/></marker></defs><defs><marker orient="auto" markerHeight="240" markerWidth="190" refY="7" refX="0" class="marker composition classDiagram" id="classDiagram-compositionStart"><path d="M 18,7 L9,13 L1,7 L9,1 Z"/></marker></defs><defs><marker orient="auto" markerHeight="28" markerWidth="20" refY="7" refX="19" class="marker composition classDiagram" id="classDiagram-compositionEnd"><path d="M 18,7 L9,13 L1,7 L9,1 Z"/></marker></defs><defs><marker orient="auto" markerHeight="240" markerWidth="190" refY="7" refX="0" class="marker dependency classDiagram" id="classDiagram-dependencyStart"><path d="M 5,7 L9,13 L1,7 L9,1 Z"/></marker></defs><defs><marker orient="auto" markerHeight="28" markerWidth="20" refY="7" refX="19" class="marker dependency classDiagram" id="classDiagram-dependencyEnd"><path d="M 18,7 L9,13 L14,7 L9,1 Z"/></marker></defs><defs><marker orient="auto" markerHeight="240" markerWidth="190" refY="7" refX="0" class="marker lollipop classDiagram" id="classDiagram-lollipopStart"><circle r="6" cy="7" cx="6" fill="white" stroke="black"/></marker></defs><g class="root"><g class="clusters"/><g class="edgePaths"><path marker-end="url(#classDiagram-dependencyEnd)" style="fill:none" class="edge-pattern-solid relation" id="id1" d="M298.4140625,85L298.4140625,90.58333333333333C298.4140625,96.16666666666667,298.4140625,107.33333333333333,298.4140625,120.25C298.4140625,133.16666666666666,298.4140625,147.83333333333334,298.4140625,155.16666666666666L298.4140625,162.5"/><path marker-end="url(#classDiagram-dependencyEnd)" style="fill:none" class="edge-pattern-solid relation" id="id2" d="M298.4140625,239.5L298.4140625,246.83333333333334C298.4140625,254.16666666666666,298.4140625,268.8333333333333,312.7291666666667,285.9819074215114C327.0442708333333,303.13048150968945,355.6744791666667,322.76096301937883,369.9895833333333,332.5762037742236L384.3046875,342.3914445290683"/><path marker-end="url(#classDiagram-dependencyEnd)" style="fill:none" class="edge-pattern-solid relation" id="id3" d="M606.1484375,250L606.1484375,255.58333333333334C606.1484375,261.1666666666667,606.1484375,272.3333333333333,591.8333333333334,287.7319074215114C577.5182291666666,303.13048150968945,548.8880208333334,322.76096301937883,534.5729166666666,332.5762037742236L520.2578125,342.3914445290683"/><path marker-start="url(#classDiagram-compositionStart)" style="fill:none" class="edge-pattern-solid relation" id="id4" d="M452.28125,686L452.28125,691.5833333333334C452.28125,697.1666666666666,452.28125,708.3333333333334,452.28125,719.5C452.28125,730.6666666666666,452.28125,741.8333333333334,452.28125,747.4166666666666L452.28125,753"/><path marker-end="url(#classDiagram-dependencyEnd)" marker-start="url(#classDiagram-dependencyStart)" style="fill:none" class="edge-pattern-solid relation" id="id5" d="M452.28125,461L452.28125,467.9166666666667C452.28125,474.8333333333333,452.28125,488.6666666666667,452.28125,502.5C452.28125,516.3333333333334,452.28125,530.1666666666666,452.28125,537.0833333333334L452.28125,544"/><path marker-start="url(#classDiagram-aggregationStart)" style="fill:none" class="edge-pattern-solid relation" id="id6" d="M156.26953125,1071.5L156.26953125,1078.8333333333333C156.26953125,1086.1666666666667,156.26953125,1100.8333333333333,156.26953125,1115.5833333333333C156.26953125,1130.3333333333333,156.26953125,1145.1666666666667,156.26953125,1152.5833333333333L156.26953125,1160"/><path marker-end="url(#classDiagram-dependencyEnd)" style="fill:none" class="edge-pattern-solid relation" id="id7" d="M97.7734375,863L97.7734375,873.9166666666666C97.7734375,884.8333333333334,97.7734375,906.6666666666666,102.36136642156862,924.9166666666666C106.94929534313725,943.1666666666666,116.12515318627452,957.8333333333334,120.71308210784314,965.1666666666666L125.30101102941177,972.5"/><path marker-start="url(#classDiagram-aggregationStart)" style="fill:none" class="edge-pattern-solid relation" id="id8" d="M371.59412380382776,895L365.24900941985646,900.5833333333334C358.90389503588517,906.1666666666666,346.21366626794253,917.3333333333334,325.96628472710853,930.25C305.71890318627453,943.1666666666666,277.914368872549,957.8333333333334,264.01210171568624,965.1666666666666L250.10983455882354,972.5"/><path marker-start="url(#classDiagram-aggregationStart)" style="fill:none" class="edge-pattern-solid relation" id="id9" d="M524.069490131579,895L529.7148094846492,900.5833333333334C535.3601288377193,906.1666666666666,546.6507675438596,917.3333333333334,552.2960868969299,938.5C557.94140625,959.6666666666666,557.94140625,990.8333333333334,557.94140625,1022C557.94140625,1053.1666666666667,557.94140625,1084.3333333333333,574.6162109375,1108.9313164165285C591.291015625,1133.5292994997233,624.640625,1151.5585989994468,641.3154296875,1160.5732487493085L657.990234375,1169.58789849917"/><path marker-end="url(#classDiagram-dependencyEnd)" style="fill:none" class="edge-pattern-solid relation" id="id10" d="M798.18359375,873.5L798.18359375,882.6666666666666C798.18359375,891.8333333333334,798.18359375,910.1666666666666,798.18359375,924.9166666666666C798.18359375,939.6666666666666,798.18359375,950.8333333333334,798.18359375,956.4166666666666L798.18359375,962"/><path marker-end="url(#classDiagram-dependencyEnd)" style="fill:none" class="edge-pattern-solid relation" id="id11" d="M798.18359375,1082L798.18359375,1087.5833333333333C798.18359375,1093.1666666666667,798.18359375,1104.3333333333333,794.1653245460116,1115.5C790.1470553420231,1126.6666666666667,782.1105169340462,1137.8333333333333,778.0922477300579,1143.4166666666667L774.0739785260695,1149"/><path marker-end="url(#classDiagram-dependencyEnd)" style="fill:none" class="edge-pattern-solid relation" id="id12" d="M646.109375,673.5571026865874L671.455078125,681.2142522388228C696.80078125,688.8714017910582,747.4921875,704.1857008955291,772.837890625,721.0095171144312C798.18359375,737.8333333333334,798.18359375,756.1666666666666,798.18359375,765.3333333333334L798.18359375,774.5"/><path marker-end="url(#classDiagram-dependencyEnd)" style="fill:none" class="edge-pattern-solid relation" id="id13" d="M258.453125,672.1356634418318L231.67317708333334,680.0297195348597C204.89322916666666,687.9237756278877,151.33333333333334,703.7118878139439,124.55338541666667,722.5226105736386C97.7734375,741.3333333333334,97.7734375,763.1666666666666,97.7734375,774.0833333333334L97.7734375,785"/><path style="fill:none" class="edge-pattern-dotted relation" id="edgeNote14" d="M606.1484375,62.5L606.1484375,71.83333333333333C606.1484375,81.16666666666667,606.1484375,99.83333333333333,606.1484375,114.75C606.1484375,129.66666666666666,606.1484375,140.83333333333334,606.1484375,146.41666666666666L606.1484375,152"/></g><g class="edgeLabels"><g transform="translate(298.4140625, 118.5)" class="edgeLabel"><g transform="translate(-89.8359375, -8.5)" class="label"><rect height="18.466632843017578" width="179.70826721191406" ry="0" rx="0"/><text style=""><tspan class="row" x="0" dy="1em" xml:space="preserve">sends connection configs</tspan></text></g></g><g transform="translate(283.4140625, 102.5)" class="edgeTerminals"><g transform="translate(-3.0625, -6)" class="inner"><text style=""><tspan class="row" x="0" dy="1em" xml:space="preserve">1</tspan></text></g></g><g transform="translate(308.4140625, 140)" class="edgeTerminals"><g transform="translate(-3.0625, -6)" class="inner"/><text style=""><tspan class="row" x="0" dy="1em" xml:space="preserve">1</tspan></text></g><g transform="translate(298.4140625, 283.5)" class="edgeLabel"><g transform="translate(-127.2265625, -8.5)" class="label"><rect height="18.466632843017578" width="254.62527465820312" ry="0" rx="0"/><text style=""><tspan class="row" x="0" dy="1em" xml:space="preserve">sends new monolith websockets via</tspan></text></g></g><g transform="translate(283.4140625, 257)" class="edgeTerminals"><g transform="translate(-3.0625, -6)" class="inner"><text style=""><tspan class="row" x="0" dy="1em" xml:space="preserve">1</tspan></text></g></g><g transform="translate(373.3539790193121, 315.12400038794897)" class="edgeTerminals"><g transform="translate(-3.0625, -6)" class="inner"/><text style=""><tspan class="row" x="0" dy="1em" xml:space="preserve">1</tspan></text></g><g transform="translate(606.1484375, 283.5)" class="edgeLabel"><g transform="translate(-115.6640625, -8.5)" class="label"><rect height="18.466632843017578" width="231.50604248046875" ry="0" rx="0"/><text style=""><tspan class="row" x="0" dy="1em" xml:space="preserve">sends new client websockets via</tspan></text></g></g><g transform="translate(590.5395939423397, 266.6342142837847)" class="edgeTerminals"><g transform="translate(-3.0625, -6)" class="inner"><text style=""><tspan class="row" x="0" dy="1em" xml:space="preserve">1</tspan></text></g></g><g transform="translate(538.1733950659171, 339.8665355707534)" class="edgeTerminals"><g transform="translate(-3.0625, -6)" class="inner"/><text style=""><tspan class="row" x="0" dy="1em" xml:space="preserve">1</tspan></text></g><g class="edgeLabel"><g transform="translate(0, 0)" class="label"><rect height="0" width="0" ry="0" rx="0"/><text style=""><tspan class="row" x="0" dy="1em" xml:space="preserve"/></text></g></g><g transform="translate(437.28125, 703.5)" class="edgeTerminals"><g transform="translate(-3.0625, -6)" class="inner"><text style=""><tspan class="row" x="0" dy="1em" xml:space="preserve">1</tspan></text></g></g><g transform="translate(462.28125, 730.5)" class="edgeTerminals"><g transform="translate(-3.0625, -6)" class="inner"/><text style=""><tspan class="row" x="0" dy="1em" xml:space="preserve">1</tspan></text></g><g transform="translate(452.28125, 502.5)" class="edgeLabel"><g transform="translate(-166.3125, -16.5)" class="label"><rect height="34.46663284301758" width="332.6154479980469" ry="0" rx="0"/><text style=""><tspan class="row" x="0" dy="1em" xml:space="preserve">sends inbound msgs via channels,</tspan><tspan class="row" x="0" dy="1em" xml:space="preserve">receives channel Receivers for outbound msgs</tspan></text></g></g><g transform="translate(437.28125, 478.5)" class="edgeTerminals"><g transform="translate(-3.0625, -6)" class="inner"><text style=""><tspan class="row" x="0" dy="1em" xml:space="preserve">1</tspan></text></g></g><g transform="translate(462.28125, 521.5)" class="edgeTerminals"><g transform="translate(-3.0625, -6)" class="inner"/><text style=""><tspan class="row" x="0" dy="1em" xml:space="preserve">1</tspan></text></g><g transform="translate(156.26953125, 1115.5)" class="edgeLabel"><g transform="translate(-28.453125, -8.5)" class="label"><rect height="18.466632843017578" width="56.97322463989258" ry="0" rx="0"/><text style=""><tspan class="row" x="0" dy="1em" xml:space="preserve">Collects</tspan></text></g></g><g transform="translate(141.26953125, 1089)" class="edgeTerminals"><g transform="translate(-3.0625, -6)" class="inner"><text style=""><tspan class="row" x="0" dy="1em" xml:space="preserve">1</tspan></text></g></g><g transform="translate(166.26953125, 1137.5)" class="edgeTerminals"><g transform="translate(-8.614990234375, -6)" class="inner"/><text style=""><tspan class="row" x="0" dy="1em" xml:space="preserve">0..*</tspan></text></g><g transform="translate(97.7734375, 928.5)" class="edgeLabel"><g transform="translate(-70.3125, -8.5)" class="label"><rect height="18.466632843017578" width="140.8255157470703" ry="0" rx="0"/><text style=""><tspan class="row" x="0" dy="1em" xml:space="preserve">consumed to create</tspan></text></g></g><g transform="translate(82.7734375, 880.5)" class="edgeTerminals"><g transform="translate(-3.0625, -6)" class="inner"><text style=""><tspan class="row" x="0" dy="1em" xml:space="preserve">1</tspan></text></g></g><g transform="translate(123.73573661964278, 944.7084958785118)" class="edgeTerminals"><g transform="translate(-3.0625, -6)" class="inner"/><text style=""><tspan class="row" x="0" dy="1em" xml:space="preserve">1</tspan></text></g><g transform="translate(333.5234375, 928.5)" class="edgeLabel"><g transform="translate(-26.6796875, -8.5)" class="label"><rect height="18.466632843017578" width="53.41941833496094" ry="0" rx="0"/><text style=""><tspan class="row" x="0" dy="1em" xml:space="preserve">collects</tspan></text></g></g><g transform="translate(348.5472090492822, 895.2995334650923)" class="edgeTerminals"><g transform="translate(-3.0625, -6)" class="inner"><text style=""><tspan class="row" x="0" dy="1em" xml:space="preserve">1</tspan></text></g></g><g transform="translate(267.5868065586197, 972.6025218980795)" class="edgeTerminals"><g transform="translate(-8.614990234375, -6)" class="inner"/><text style=""><tspan class="row" x="0" dy="1em" xml:space="preserve">0..*</tspan></text></g><g transform="translate(557.94140625, 1022)" class="edgeLabel"><g transform="translate(-26.6796875, -8.5)" class="label"><rect height="18.466632843017578" width="53.41941833496094" ry="0" rx="0"/><text style=""><tspan class="row" x="0" dy="1em" xml:space="preserve">collects</tspan></text></g></g><g transform="translate(525.9640910667821, 917.9708617012146)" class="edgeTerminals"><g transform="translate(-3.0625, -6)" class="inner"><text style=""><tspan class="row" x="0" dy="1em" xml:space="preserve">1</tspan></text></g></g><g transform="translate(644.7293659728551, 1143.0702765756757)" class="edgeTerminals"><g transform="translate(-8.614990234375, -6)" class="inner"/><text style=""><tspan class="row" x="0" dy="1em" xml:space="preserve">0..*</tspan></text></g><g transform="translate(798.18359375, 928.5)" class="edgeLabel"><g transform="translate(-91.671875, -8.5)" class="label"><rect height="18.466632843017578" width="183.45806884765625" ry="0" rx="0"/><text style=""><tspan class="row" x="0" dy="1em" xml:space="preserve">when auth token received</tspan></text></g></g><g transform="translate(798.18359375, 1115.5)" class="edgeLabel"><g transform="translate(-70.3125, -8.5)" class="label"><rect height="18.466632843017578" width="140.8255157470703" ry="0" rx="0"/><text style=""><tspan class="row" x="0" dy="1em" xml:space="preserve">consumed to create</tspan></text></g></g><g transform="translate(798.18359375, 719.5)" class="edgeLabel"><g transform="translate(-82.55078125, -8.5)" class="label"><rect height="18.466632843017578" width="164.67831420898438" ry="0" rx="0"/><text style=""><tspan class="row" x="0" dy="1em" xml:space="preserve">create upon websocket</tspan></text></g></g><g transform="translate(97.7734375, 719.5)" class="edgeLabel"><g transform="translate(-82.55078125, -8.5)" class="label"><rect height="18.466632843017578" width="164.67831420898438" ry="0" rx="0"/><text style=""><tspan class="row" x="0" dy="1em" xml:space="preserve">create upon websocket</tspan></text></g></g><g class="edgeLabel"><g transform="translate(0, 0)" class="label"><rect height="0" width="0" ry="0" rx="0"/><text style=""><tspan class="row" x="0" dy="1em" xml:space="preserve"/></text></g></g></g><g class="nodes"><g transform="translate(452.28125, 615)" id="classId-Balancer-0" class="node default"><rect height="142" width="387.65625" y="-71" x="-193.828125" class="outer title-state"/><line y2="-42" y1="-42" x2="193.828125" x1="-193.828125" class="divider"/><line y2="16" y1="16" x2="193.828125" x1="-193.828125" class="divider"/><g class="label"><text style=""><tspan class="title-row" x="0" dy="1em" xml:space="preserve"/></text><text transform="translate( -33.796875, -63.5)" class="classTitle" style=""><tspan class="title-row" x="0" dy="1em" xml:space="preserve">Balancer</tspan></text><text transform="translate( -186.328125, -30.5)" style=""><tspan class="title-row" x="0" dy="1em" xml:space="preserve">ctx: Arc&lt;RwLock&lt;BalancerContext&gt;&gt;</tspan></text><text transform="translate( -186.328125, -9.5)" style=""><tspan class="title-row" x="0" dy="1em" xml:space="preserve">...[channels for receiving new nodes, and messages]</tspan></text><text transform="translate( -186.328125, 23.5)" style=""><tspan class="title-row" x="0" dy="1em" xml:space="preserve">new_link() : BalancerLink</tspan></text><text transform="translate( -186.328125, 45.5)" style=""><tspan class="title-row" x="0" dy="1em" xml:space="preserve">dispatch_loop()</tspan></text></g></g><g transform="translate(298.4140625, 46.5)" id="classId-MonolithDiscoverer-1" class="node default"><rect height="77" width="164.359375" y="-38.5" x="-82.1796875" class="outer title-state"/><line y2="11.5" y1="11.5" x2="82.1796875" x1="-82.1796875" class="divider"/><line y2="27.5" y1="27.5" x2="82.1796875" x1="-82.1796875" class="divider"/><g class="label"><text transform="translate( -22.28515625, -31)" style=""><tspan class="title-row" x="0" dy="1em" xml:space="preserve">«trait»</tspan></text><text transform="translate( -74.6796875, -10)" class="classTitle" style=""><tspan class="title-row" x="0" dy="1em" xml:space="preserve">MonolithDiscoverer</tspan></text></g></g><g transform="translate(298.4140625, 201)" id="classId-MonolithConnectionManager-2" class="node default"><rect height="77" width="235.4375" y="-38.5" x="-117.71875" class="outer title-state"/><line y2="-9.5" y1="-9.5" x2="117.71875" x1="-117.71875" class="divider"/><line y2="27.5" y1="27.5" x2="117.71875" x1="-117.71875" class="divider"/><g class="label"><text style=""><tspan class="title-row" x="0" dy="1em" xml:space="preserve"/></text><text transform="translate( -110.21875, -31)" class="classTitle" style=""><tspan class="title-row" x="0" dy="1em" xml:space="preserve">MonolithConnectionManager</tspan></text><text transform="translate( -110.21875, 2)" style=""><tspan class="title-row" x="0" dy="1em" xml:space="preserve">link: BalancerLink</tspan></text></g></g><g transform="translate(452.28125, 389)" id="classId-BalancerLink-3" class="node default"><rect height="144" width="135.953125" y="-72" x="-67.9765625" class="outer title-state"/><line y2="-43" y1="-43" x2="67.9765625" x1="-67.9765625" class="divider"/><line y2="61" y1="61" x2="67.9765625" x1="-67.9765625" class="divider"/><g class="label"><text style=""><tspan class="title-row" x="0" dy="1em" xml:space="preserve"/></text><text transform="translate( -50.29296875, -64.5)" class="classTitle" style=""><tspan class="title-row" x="0" dy="1em" xml:space="preserve">BalancerLink</tspan></text><text transform="translate( -60.4765625, -31.5)" style=""><tspan class="title-row" x="0" dy="1em" xml:space="preserve">new_client_tx</tspan></text><text transform="translate( -60.4765625, -9.5)" style=""><tspan class="title-row" x="0" dy="1em" xml:space="preserve">client_msg_tx</tspan></text><text transform="translate( -60.4765625, 12.5)" style=""><tspan class="title-row" x="0" dy="1em" xml:space="preserve">new_monolith_tx</tspan></text><text transform="translate( -60.4765625, 34.5)" style=""><tspan class="title-row" x="0" dy="1em" xml:space="preserve">monolith_msg_tx</tspan></text></g></g><g transform="translate(606.1484375, 201)" id="classId-BalancerService-4" class="node default"><rect height="98" width="280.03125" y="-49" x="-140.015625" class="outer title-state"/><line y2="-20" y1="-20" x2="140.015625" x1="-140.015625" class="divider"/><line y2="38" y1="38" x2="140.015625" x1="-140.015625" class="divider"/><g class="label"><text style=""><tspan class="title-row" x="0" dy="1em" xml:space="preserve"/></text><text transform="translate( -62.31640625, -41.5)" class="classTitle" style=""><tspan class="title-row" x="0" dy="1em" xml:space="preserve">BalancerService</tspan></text><text transform="translate( -132.515625, -8.5)" style=""><tspan class="title-row" x="0" dy="1em" xml:space="preserve">ctx: Arc&lt;RwLock&lt;BalancerContext&gt;&gt;</tspan></text><text transform="translate( -132.515625, 12.5)" style=""><tspan class="title-row" x="0" dy="1em" xml:space="preserve">link: BalancerLink</tspan></text></g></g><g transform="translate(97.7734375, 824)" id="classId-NewMonolith-5" class="node default"><rect height="78" width="179.546875" y="-39" x="-89.7734375" class="outer title-state"/><line y2="-10" y1="-10" x2="89.7734375" x1="-89.7734375" class="divider"/><line y2="28" y1="28" x2="89.7734375" x1="-89.7734375" class="divider"/><g class="label"><text style=""><tspan class="title-row" x="0" dy="1em" xml:space="preserve"/></text><text transform="translate( -49.7734375, -31.5)" class="classTitle" style=""><tspan class="title-row" x="0" dy="1em" xml:space="preserve">NewMonolith</tspan></text><text transform="translate( -82.2734375, 1.5)" style=""><tspan class="title-row" x="0" dy="1em" xml:space="preserve">monolith_id: MonolithId</tspan></text></g></g><g transform="translate(452.28125, 824)" id="classId-BalancerContext-6" class="node default"><rect height="142" width="429.46875" y="-71" x="-214.734375" class="outer title-state"/><line y2="-42" y1="-42" x2="214.734375" x1="-214.734375" class="divider"/><line y2="60" y1="60" x2="214.734375" x1="-214.734375" class="divider"/><g class="label"><text style=""><tspan class="title-row" x="0" dy="1em" xml:space="preserve"/></text><text transform="translate( -63.91015625, -63.5)" class="classTitle" style=""><tspan class="title-row" x="0" dy="1em" xml:space="preserve">BalancerContext</tspan></text><text transform="translate( -207.234375, -30.5)" style=""><tspan class="title-row" x="0" dy="1em" xml:space="preserve">clients: HashMap&lt;ClientId-BalancerClient&gt;,</tspan></text><text transform="translate( -207.234375, -9.5)" style=""><tspan class="title-row" x="0" dy="1em" xml:space="preserve">monoliths: HashMap&lt;MonolithId-BalancerMonolith&gt;,</tspan></text><text transform="translate( -207.234375, 11.5)" style=""><tspan class="title-row" x="0" dy="1em" xml:space="preserve">rooms_to_monoliths: HashMap&lt;RoomName-MonolithId&gt;,</tspan></text><text transform="translate( -207.234375, 33.5)" style=""><tspan class="title-row" x="0" dy="1em" xml:space="preserve">monoliths_by_region: HashMap&lt;String-Vec&lt;MonolithId&gt;&gt;,</tspan></text></g></g><g transform="translate(156.26953125, 1022)" id="classId-BalancerMonolith-7" class="node default"><rect height="99" width="288.875" y="-49.5" x="-144.4375" class="outer title-state"/><line y2="-20.5" y1="-20.5" x2="144.4375" x1="-144.4375" class="divider"/><line y2="38.5" y1="38.5" x2="144.4375" x1="-144.4375" class="divider"/><g class="label"><text style=""><tspan class="title-row" x="0" dy="1em" xml:space="preserve"/></text><text transform="translate( -67.1171875, -42)" class="classTitle" style=""><tspan class="title-row" x="0" dy="1em" xml:space="preserve">BalancerMonolith</tspan></text><text transform="translate( -136.9375, -9)" style=""><tspan class="title-row" x="0" dy="1em" xml:space="preserve">monolith_id: MonolithId</tspan></text><text transform="translate( -136.9375, 13)" style=""><tspan class="title-row" x="0" dy="1em" xml:space="preserve">rooms: Hashmap&lt;RoomName-Room&gt;</tspan></text></g></g><g transform="translate(156.26953125, 1209)" id="classId-Room-8" class="node default"><rect height="98" width="168.875" y="-49" x="-84.4375" class="outer title-state"/><line y2="-20" y1="-20" x2="84.4375" x1="-84.4375" class="divider"/><line y2="38" y1="38" x2="84.4375" x1="-84.4375" class="divider"/><g class="label"><text style=""><tspan class="title-row" x="0" dy="1em" xml:space="preserve"/></text><text transform="translate( -22.6640625, -41.5)" class="classTitle" style=""><tspan class="title-row" x="0" dy="1em" xml:space="preserve">Room</tspan></text><text transform="translate( -76.9375, -8.5)" style=""><tspan class="title-row" x="0" dy="1em" xml:space="preserve">name: RoomName</tspan></text><text transform="translate( -76.9375, 12.5)" style=""><tspan class="title-row" x="0" dy="1em" xml:space="preserve">clients: Vec&lt;ClientId&gt;</tspan></text></g></g><g transform="translate(730.892578125, 1209)" id="classId-BalancerClient-9" class="node default"><rect height="120" width="145.8046875" y="-60" x="-72.90234375" class="outer title-state"/><line y2="-31" y1="-31" x2="72.90234375" x1="-72.90234375" class="divider"/><line y2="49" y1="49" x2="72.90234375" x1="-72.90234375" class="divider"/><g class="label"><text style=""><tspan class="title-row" x="0" dy="1em" xml:space="preserve"/></text><text transform="translate( -56.35546875, -52.5)" class="classTitle" style=""><tspan class="title-row" x="0" dy="1em" xml:space="preserve">BalancerClient</tspan></text><text transform="translate( -65.40234375, -19.5)" style=""><tspan class="title-row" x="0" dy="1em" xml:space="preserve">client_id: ClientId</tspan></text><text transform="translate( -65.40234375, 2.5)" style=""><tspan class="title-row" x="0" dy="1em" xml:space="preserve">room: RoomName</tspan></text><text transform="translate( -65.40234375, 23.5)" style=""><tspan class="title-row" x="0" dy="1em" xml:space="preserve">token: String</tspan></text></g></g><g transform="translate(798.18359375, 824)" id="classId-UnauthorizedClient-10" class="node default"><rect height="99" width="162.3359375" y="-49.5" x="-81.16796875" class="outer title-state"/><line y2="-20.5" y1="-20.5" x2="81.16796875" x1="-81.16796875" class="divider"/><line y2="38.5" y1="38.5" x2="81.16796875" x1="-81.16796875" class="divider"/><g class="label"><text style=""><tspan class="title-row" x="0" dy="1em" xml:space="preserve"/></text><text transform="translate( -73.66796875, -42)" class="classTitle" style=""><tspan class="title-row" x="0" dy="1em" xml:space="preserve">UnauthorizedClient</tspan></text><text transform="translate( -73.66796875, -9)" style=""><tspan class="title-row" x="0" dy="1em" xml:space="preserve">client_id: ClientId</tspan></text><text transform="translate( -73.66796875, 13)" style=""><tspan class="title-row" x="0" dy="1em" xml:space="preserve">room: RoomName</tspan></text></g></g><g transform="translate(798.18359375, 1022)" id="classId-NewClient-11" class="node default"><rect height="120" width="145.8046875" y="-60" x="-72.90234375" class="outer title-state"/><line y2="-31" y1="-31" x2="72.90234375" x1="-72.90234375" class="divider"/><line y2="49" y1="49" x2="72.90234375" x1="-72.90234375" class="divider"/><g class="label"><text style=""><tspan class="title-row" x="0" dy="1em" xml:space="preserve"/></text><text transform="translate( -39.0078125, -52.5)" class="classTitle" style=""><tspan class="title-row" x="0" dy="1em" xml:space="preserve">NewClient</tspan></text><text transform="translate( -65.40234375, -19.5)" style=""><tspan class="title-row" x="0" dy="1em" xml:space="preserve">client_id: ClientId</tspan></text><text transform="translate( -65.40234375, 2.5)" style=""><tspan class="title-row" x="0" dy="1em" xml:space="preserve">room: RoomName</tspan></text><text transform="translate( -65.40234375, 23.5)" style=""><tspan class="title-row" x="0" dy="1em" xml:space="preserve">token: String</tspan></text></g></g><g transform="translate(606.1484375, 46.5)" id="note0" class="node undefined"><rect height="32" width="119.921875" y="-16" x="-59.9609375" ry="0" rx="0"/><g transform="translate(-52.4609375, -8.5)" style="" class="label"><rect/><text style=""><tspan class="row" x="0" dy="1em" xml:space="preserve">Handles HTTP</tspan></text></g></g></g></g></g></svg>