<?xml version="1.0" encoding="us-ascii" standalone="no"?><svg xmlns="http://www.w3.org/2000/svg" xmlns:xlink="http://www.w3.org/1999/xlink" contentStyleType="text/css" height="437px" preserveAspectRatio="none" style="width:584px;height:437px;background:#FFFFFF;" version="1.1" viewBox="0 0 584 437" width="584px" zoomAndPan="magnify"><defs/><g><!--cluster Rust crates--><g id="cluster_Rust crates"><path d="M8.5,6 L99.5,6 A3.75,3.75 0 0 1 102,8.5 L109,28.2969 L574.5,28.2969 A2.5,2.5 0 0 1 577,30.7969 L577,427.5 A2.5,2.5 0 0 1 574.5,430 L8.5,430 A2.5,2.5 0 0 1 6,427.5 L6,8.5 A2.5,2.5 0 0 1 8.5,6 " fill="none" style="stroke:#000000;stroke-width:1.5;"/><line style="stroke:#000000;stroke-width:1.5;" x1="6" x2="109" y1="28.2969" y2="28.2969"/><text fill="#000000" font-family="sans-serif" font-size="14" font-weight="bold" lengthAdjust="spacing" textLength="90" x="10" y="20.9951">Rust crates</text></g><!--entity ott_common--><g id="elem_ott_common"><path d="M321.5,350 L421.5,350 A3.75,3.75 0 0 1 424,352.5 L431,372.2969 L558.5,372.2969 A2.5,2.5 0 0 1 561,374.7969 L561,403.0938 A2.5,2.5 0 0 1 558.5,405.5938 L321.5,405.5938 A2.5,2.5 0 0 1 319,403.0938 L319,352.5 A2.5,2.5 0 0 1 321.5,350 " fill="#F1F1F1" style="stroke:#181818;stroke-width:0.5;"/><line style="stroke:#181818;stroke-width:0.5;" x1="319" x2="431" y1="372.2969" y2="372.2969"/><text fill="#000000" font-family="sans-serif" font-size="14" lengthAdjust="spacing" textLength="87" x="329" y="365.9951">ott_common</text><text fill="#000000" font-family="sans-serif" font-size="14" lengthAdjust="spacing" textLength="212" x="329" y="392.292">Contains common functionality</text></g><!--entity ott_balancer--><g id="elem_ott_balancer"><path d="M435,201 L533,201 A3.75,3.75 0 0 1 535.5,203.5 L542.5,223.2969 L557,223.2969 A2.5,2.5 0 0 1 559.5,225.7969 L559.5,254.0938 A2.5,2.5 0 0 1 557,256.5938 L435,256.5938 A2.5,2.5 0 0 1 432.5,254.0938 L432.5,203.5 A2.5,2.5 0 0 1 435,201 " fill="#F1F1F1" style="stroke:#181818;stroke-width:0.5;"/><line style="stroke:#181818;stroke-width:0.5;" x1="432.5" x2="542.5" y1="223.2969" y2="223.2969"/><text fill="#000000" font-family="sans-serif" font-size="14" lengthAdjust="spacing" textLength="85" x="442.5" y="216.9951">ott_balancer</text><text fill="#000000" font-family="sans-serif" font-size="14" lengthAdjust="spacing" textLength="91" x="442.5" y="243.292">The Balancer</text></g><!--entity ott_balancer_bin--><g id="elem_ott_balancer_bin"><path d="M322,60 L448,60 A3.75,3.75 0 0 1 450.5,62.5 L457.5,82.2969 L558,82.2969 A2.5,2.5 0 0 1 560.5,84.7969 L560.5,113.0938 A2.5,2.5 0 0 1 558,115.5938 L322,115.5938 A2.5,2.5 0 0 1 319.5,113.0938 L319.5,62.5 A2.5,2.5 0 0 1 322,60 " fill="#F1F1F1" style="stroke:#181818;stroke-width:0.5;"/><line style="stroke:#181818;stroke-width:0.5;" x1="319.5" x2="457.5" y1="82.2969" y2="82.2969"/><text fill="#000000" font-family="sans-serif" font-size="14" lengthAdjust="spacing" textLength="113" x="329.5" y="75.9951">ott_balancer_bin</text><text fill="#000000" font-family="sans-serif" font-size="14" lengthAdjust="spacing" textLength="211" x="329.5" y="102.292">The Balancer (builds as binary)</text></g><!--entity ott_balancer_protocol--><g id="elem_ott_balancer_protocol"><path d="M38.5,342 L200.5,342 A3.75,3.75 0 0 1 203,344.5 L210,364.2969 L281.5,364.2969 A2.5,2.5 0 0 1 284,366.7969 L284,411.3906 A2.5,2.5 0 0 1 281.5,413.8906 L38.5,413.8906 A2.5,2.5 0 0 1 36,411.3906 L36,344.5 A2.5,2.5 0 0 1 38.5,342 " fill="#F1F1F1" style="stroke:#181818;stroke-width:0.5;"/><line style="stroke:#181818;stroke-width:0.5;" x1="36" x2="210" y1="364.2969" y2="364.2969"/><text fill="#000000" font-family="sans-serif" font-size="14" lengthAdjust="spacing" textLength="149" x="46" y="357.9951">ott_balancer_protocol</text><text fill="#000000" font-family="sans-serif" font-size="14" lengthAdjust="spacing" textLength="218" x="46" y="384.292">Provides types shared between</text><text fill="#000000" font-family="sans-serif" font-size="14" lengthAdjust="spacing" textLength="180" x="46" y="400.5889">the Balancer and Monolith</text></g><!--entity harness--><g id="elem_harness"><path d="M25,193 L94,193 A3.75,3.75 0 0 1 96.5,195.5 L103.5,215.2969 L267,215.2969 A2.5,2.5 0 0 1 269.5,217.7969 L269.5,262.3906 A2.5,2.5 0 0 1 267,264.8906 L25,264.8906 A2.5,2.5 0 0 1 22.5,262.3906 L22.5,195.5 A2.5,2.5 0 0 1 25,193 " fill="#F1F1F1" style="stroke:#181818;stroke-width:0.5;"/><line style="stroke:#181818;stroke-width:0.5;" x1="22.5" x2="103.5" y1="215.2969" y2="215.2969"/><text fill="#000000" font-family="sans-serif" font-size="14" lengthAdjust="spacing" textLength="56" x="32.5" y="208.9951">harness</text><text fill="#000000" font-family="sans-serif" font-size="14" lengthAdjust="spacing" textLength="193" x="32.5" y="235.292">Provides abstraction around</text><text fill="#000000" font-family="sans-serif" font-size="14" lengthAdjust="spacing" textLength="217" x="32.5" y="251.5889">integration testing the Balancer</text></g><!--entity harness_tests--><g id="elem_harness_tests"><path d="M24.5,60 L135.5,60 A3.75,3.75 0 0 1 138,62.5 L145,82.2969 L281.5,82.2969 A2.5,2.5 0 0 1 284,84.7969 L284,113.0938 A2.5,2.5 0 0 1 281.5,115.5938 L24.5,115.5938 A2.5,2.5 0 0 1 22,113.0938 L22,62.5 A2.5,2.5 0 0 1 24.5,60 " fill="#F1F1F1" style="stroke:#181818;stroke-width:0.5;"/><line style="stroke:#181818;stroke-width:0.5;" x1="22" x2="145" y1="82.2969" y2="82.2969"/><text fill="#000000" font-family="sans-serif" font-size="14" lengthAdjust="spacing" textLength="98" x="32" y="75.9951">harness_tests</text><text fill="#000000" font-family="sans-serif" font-size="14" lengthAdjust="spacing" textLength="232" x="32" y="102.292">Tests the Balancer using harness</text></g><!--link ott_balancer to ott_common--><g id="link_ott_balancer_ott_common"><path codeLine="26" d="M485.6,257.31 C476.13,282.16 462.14,318.87 452.16,345.08 " fill="none" id="ott_balancer-to-ott_common" style="stroke:#181818;stroke-width:1.0;"/><polygon fill="#181818" points="450.35,349.84,457.2812,342.843,452.1228,345.1648,449.801,340.0065,450.35,349.84" style="stroke:#181818;stroke-width:1.0;"/><text fill="#000000" font-family="sans-serif" font-size="13" lengthAdjust="spacing" textLength="55" x="470" y="308.0669">depends</text></g><!--link ott_balancer to ott_balancer_protocol--><g id="link_ott_balancer_ott_balancer_protocol"><path codeLine="27" d="M452.35,257.05 C423.64,274.15 384.89,295.97 349,312 C326.28,322.15 301.45,331.71 277.49,340.22 " fill="none" id="ott_balancer-to-ott_balancer_protocol" style="stroke:#181818;stroke-width:1.0;"/><polygon fill="#181818" points="272.71,341.91,282.5264,342.7083,277.4286,340.2563,279.8806,335.1585,272.71,341.91" style="stroke:#181818;stroke-width:1.0;"/><text fill="#000000" font-family="sans-serif" font-size="13" lengthAdjust="spacing" textLength="55" x="384" y="308.0669">depends</text></g><!--link harness to ott_balancer_protocol--><g id="link_harness_ott_balancer_protocol"><path codeLine="28" d="M149.35,265.21 C151.41,286.77 154.04,314.42 156.17,336.83 " fill="none" id="harness-to-ott_balancer_protocol" style="stroke:#181818;stroke-width:1.0;"/><polygon fill="#181818" points="156.65,341.82,159.785,332.4834,156.1793,336.8422,151.8205,333.2365,156.65,341.82" style="stroke:#181818;stroke-width:1.0;"/><text fill="#000000" font-family="sans-serif" font-size="13" lengthAdjust="spacing" textLength="55" x="155" y="308.0669">depends</text></g><!--link harness_tests to harness--><g id="link_harness_tests_harness"><path codeLine="29" d="M151.63,116.13 C150.61,136.48 149.19,164.66 148.03,187.64 " fill="none" id="harness_tests-to-harness" style="stroke:#181818;stroke-width:1.0;"/><polygon fill="#181818" points="147.77,192.76,152.2283,183.978,148.0275,187.7666,144.2389,183.5659,147.77,192.76" style="stroke:#181818;stroke-width:1.0;"/><text fill="#000000" font-family="sans-serif" font-size="13" lengthAdjust="spacing" textLength="55" x="152" y="159.0669">depends</text></g><!--link harness_tests to ott_balancer_protocol--><g id="link_harness_tests_ott_balancer_protocol"><path codeLine="30" d="M284.01,114.11 C354.43,127.92 427.45,142.87 430,146 C463.2,186.72 407.35,159.7 358,193 C320.75,218.14 319.65,234.12 287,265 C260.44,290.12 229.72,317.26 205.15,338.53 " fill="none" id="harness_tests-to-ott_balancer_protocol" style="stroke:#181818;stroke-width:1.0;"/><polygon fill="#181818" points="201.26,341.9,210.685,339.0419,205.0432,338.6308,205.4543,332.9889,201.26,341.9" style="stroke:#181818;stroke-width:1.0;"/><text fill="#000000" font-family="sans-serif" font-size="13" lengthAdjust="spacing" textLength="55" x="359" y="233.5669">depends</text></g><!--link harness to ott_balancer--><g id="link_harness_ott_balancer"><path codeLine="31" d="M199.19,190.16 C219.91,177.27 244.54,164.55 269,158 C303.34,148.8 396.35,143.92 429,158 C447.49,165.98 463.25,181.84 474.83,196.56 " fill="none" id="harness-ott_balancer" style="stroke:#181818;stroke-width:1.0;stroke-dasharray:7.0,7.0;"/><polygon fill="#181818" points="194.82,192.91,204.5652,191.4848,199.0471,190.2395,200.2924,184.7214,194.82,192.91" style="stroke:#181818;stroke-width:1.0;"/><polygon fill="#181818" points="477.99,200.67,475.6748,191.0971,474.9421,196.7063,469.3329,195.9737,477.99,200.67" style="stroke:#181818;stroke-width:1.0;"/><text fill="#000000" font-family="sans-serif" font-size="13" lengthAdjust="spacing" textLength="158" x="270" y="159.0669">connects via websockets</text></g><!--link ott_balancer_bin to ott_balancer--><g id="link_ott_balancer_bin_ott_balancer"><path codeLine="32" d="M450.93,116.13 C460.18,139.09 473.45,172.03 483.2,196.22 " fill="none" id="ott_balancer_bin-to-ott_balancer" style="stroke:#181818;stroke-width:1.0;"/><polygon fill="#181818" points="485.1,200.94,485.4609,191.0978,483.2381,196.2996,478.0363,194.0768,485.1,200.94" style="stroke:#181818;stroke-width:1.0;"/><text fill="#000000" font-family="sans-serif" font-size="13" lengthAdjust="spacing" textLength="55" x="470" y="159.0669">depends</text></g><!--SRC=[ZPB1QiCm38RlUGhHqtRe7c2C7hRpO8pUoWYohRQcgHGifQMClVkSB6L9Q4ilmSZV__-IdBLKWHBCFXiry0cDT0RV1K2DVeSR0Z4hlUptmh3APO0tOSF82drrtR2tA8nLj5CclYPYXnMopnb_ykMMuBKltQ1B5_c20XvS4wkWW0gPm7Hwl6LI9p7nKlLE7qaECP22dUhyrIqc2k38ZaJS4JRCGWxmBYnviEqa9IkPLAU-wDGITki0JD9mwEuZ6stoRjjoNh15teoIBfkNBNgEM7RdKNkDjZuzt5dy54KnMlbylXW-u3C4gec3JgZ5bQtzy-Tvv_UpVVkjugo-ojpVmClJcCs85sRosUOG4OxaLFoER3nZzpjDcn_O_m80]--></g></svg>