<svg aria-roledescription="classDiagram" role="graphics-document document" viewBox="-8 -8 943.2890625 1307" style="max-width: 943.289px; background-color: white;" xmlns:xlink="http://www.w3.org/1999/xlink" xmlns="http://www.w3.org/2000/svg" width="100%" id="my-svg"><style>#my-svg{font-family:"trebuchet ms",verdana,arial,sans-serif;font-size:16px;fill:#000000;}#my-svg .error-icon{fill:#552222;}#my-svg .error-text{fill:#552222;stroke:#552222;}#my-svg .edge-thickness-normal{stroke-width:2px;}#my-svg .edge-thickness-thick{stroke-width:3.5px;}#my-svg .edge-pattern-solid{stroke-dasharray:0;}#my-svg .edge-pattern-dashed{stroke-dasharray:3;}#my-svg .edge-pattern-dotted{stroke-dasharray:2;}#my-svg .marker{fill:#666;stroke:#666;}#my-svg .marker.cross{stroke:#666;}#my-svg svg{font-family:"trebuchet ms",verdana,arial,sans-serif;font-size:16px;}#my-svg g.classGroup text{fill:#999;stroke:none;font-family:"trebuchet ms",verdana,arial,sans-serif;font-size:10px;}#my-svg g.classGroup text .title{font-weight:bolder;}#my-svg .nodeLabel,#my-svg .edgeLabel{color:#111111;}#my-svg .edgeLabel .label rect{fill:#eee;}#my-svg .label text{fill:#111111;}#my-svg .edgeLabel .label span{background:#eee;}#my-svg .classTitle{font-weight:bolder;}#my-svg .node rect,#my-svg .node circle,#my-svg .node ellipse,#my-svg .node polygon,#my-svg .node path{fill:#eee;stroke:#999;stroke-width:1px;}#my-svg .divider{stroke:#999;stroke-width:1;}#my-svg g.clickable{cursor:pointer;}#my-svg g.classGroup rect{fill:#eee;stroke:#999;}#my-svg g.classGroup line{stroke:#999;stroke-width:1;}#my-svg .classLabel .box{stroke:none;stroke-width:0;fill:#eee;opacity:0.5;}#my-svg .classLabel .label{fill:#999;font-size:10px;}#my-svg .relation{stroke:#666;stroke-width:1;fill:none;}#my-svg .dashed-line{stroke-dasharray:3;}#my-svg .dotted-line{stroke-dasharray:1 2;}#my-svg #compositionStart,#my-svg .composition{fill:#666!important;stroke:#666!important;stroke-width:1;}#my-svg #compositionEnd,#my-svg .composition{fill:#666!important;stroke:#666!important;stroke-width:1;}#my-svg #dependencyStart,#my-svg .dependency{fill:#666!important;stroke:#666!important;stroke-width:1;}#my-svg #dependencyStart,#my-svg .dependency{fill:#666!important;stroke:#666!important;stroke-width:1;}#my-svg #extensionStart,#my-svg .extension{fill:transparent!important;stroke:#666!important;stroke-width:1;}#my-svg #extensionEnd,#my-svg .extension{fill:transparent!important;stroke:#666!important;stroke-width:1;}#my-svg #aggregationStart,#my-svg .aggregation{fill:transparent!important;stroke:#666!important;stroke-width:1;}#my-svg #aggregationEnd,#my-svg .aggregation{fill:transparent!important;stroke:#666!important;stroke-width:1;}#my-svg #lollipopStart,#my-svg .lollipop{fill:#eee!important;stroke:#666!important;stroke-width:1;}#my-svg #lollipopEnd,#my-svg .lollipop{fill:#eee!important;stroke:#666!important;stroke-width:1;}#my-svg .edgeTerminals{font-size:11px;}#my-svg .classTitleText{text-anchor:middle;font-size:18px;fill:#000000;}#my-svg :root{--mermaid-font-family:"trebuchet ms",verdana,arial,sans-serif;}</style><g><defs><marker orient="auto" markerHeight="240" markerWidth="190" refY="7" refX="18" class="marker aggregation classDiagram" id="my-svg_classDiagram-aggregationStart"><path d="M 18,7 L9,13 L1,7 L9,1 Z"/></marker></defs><defs><marker orient="auto" markerHeight="28" markerWidth="20" refY="7" refX="1" class="marker aggregation classDiagram" id="my-svg_classDiagram-aggregationEnd"><path d="M 18,7 L9,13 L1,7 L9,1 Z"/></marker></defs><defs><marker orient="auto" markerHeight="240" markerWidth="190" refY="7" refX="18" class="marker extension classDiagram" id="my-svg_classDiagram-extensionStart"><path d="M 1,7 L18,13 V 1 Z"/></marker></defs><defs><marker orient="auto" markerHeight="28" markerWidth="20" refY="7" refX="1" class="marker extension classDiagram" id="my-svg_classDiagram-extensionEnd"><path d="M 1,1 V 13 L18,7 Z"/></marker></defs><defs><marker orient="auto" markerHeight="240" markerWidth="190" refY="7" refX="18" class="marker composition classDiagram" id="my-svg_classDiagram-compositionStart"><path d="M 18,7 L9,13 L1,7 L9,1 Z"/></marker></defs><defs><marker orient="auto" markerHeight="28" markerWidth="20" refY="7" refX="1" class="marker composition classDiagram" id="my-svg_classDiagram-compositionEnd"><path d="M 18,7 L9,13 L1,7 L9,1 Z"/></marker></defs><defs><marker orient="auto" markerHeight="240" markerWidth="190" refY="7" refX="6" class="marker dependency classDiagram" id="my-svg_classDiagram-dependencyStart"><path d="M 5,7 L9,13 L1,7 L9,1 Z"/></marker></defs><defs><marker orient="auto" markerHeight="28" markerWidth="20" refY="7" refX="13" class="marker dependency classDiagram" id="my-svg_classDiagram-dependencyEnd"><path d="M 18,7 L9,13 L14,7 L9,1 Z"/></marker></defs><defs><marker orient="auto" markerHeight="240" markerWidth="190" refY="7" refX="13" class="marker lollipop classDiagram" id="my-svg_classDiagram-lollipopStart"><circle r="6" cy="7" cx="7" fill="transparent" stroke="black"/></marker></defs><defs><marker orient="auto" markerHeight="240" markerWidth="190" refY="7" refX="1" class="marker lollipop classDiagram" id="my-svg_classDiagram-lollipopEnd"><circle r="6" cy="7" cx="7" fill="transparent" stroke="black"/></marker></defs><g class="root"><g class="clusters"/><g class="edgePaths"><path marker-end="url(#my-svg_classDiagram-dependencyEnd)" style="fill:none" class="edge-pattern-solid relation" id="id1" d="M454.220703125,85L454.220703125,90.58333333333333C454.220703125,96.16666666666667,454.220703125,107.33333333333333,454.220703125,119.25C454.220703125,131.16666666666666,454.220703125,143.83333333333334,454.220703125,150.16666666666666L454.220703125,156.5"/><path marker-end="url(#my-svg_classDiagram-dependencyEnd)" style="fill:none" class="edge-pattern-solid relation" id="id2" d="M454.220703125,239.5L454.220703125,246.83333333333334C454.220703125,254.16666666666666,454.220703125,268.8333333333333,468.4210090109618,285.6383301359888C482.62131489692365,302.44332693864425,511.0219266688473,321.38665387728855,525.2222325548091,330.85831734661065L539.422538440771,340.3299808159328"/><path marker-end="url(#my-svg_classDiagram-dependencyEnd)" style="fill:none" class="edge-pattern-solid relation" id="id3" d="M761.955078125,250L761.955078125,255.58333333333334C761.955078125,261.1666666666667,761.955078125,272.3333333333333,749.1742569908574,286.93202159545524C736.3934358567149,301.53070985757716,710.8317935884298,319.56141971515433,698.0509724542873,328.5767746439429L685.2701513201448,337.5921295727315"/><path marker-end="url(#my-svg_classDiagram-dependencyEnd)" style="fill:none" class="edge-pattern-solid relation" id="id4" d="M255.86071134868422,653.5L272.7143297697368,664.5C289.5679481907895,675.5,323.27518503289474,697.5,344.0991730938745,713.3119971927681C364.9231611548543,729.1239943855362,372.86390043470857,738.7479887710723,376.83427007463575,743.5599859638404L380.80463971456294,748.3719831566084"/><path marker-start="url(#my-svg_classDiagram-compositionStart)" style="fill:none" class="edge-pattern-solid relation" id="id5" d="M612.390625,704L612.390625,706.5833333333334C612.390625,709.1666666666666,612.390625,714.3333333333334,604.6508500180375,722.5C596.9110750360751,730.6666666666666,581.4315250721501,741.8333333333334,573.6917500901876,747.4166666666666L565.9519751082252,753"/><path marker-end="url(#my-svg_classDiagram-dependencyEnd)" marker-start="url(#my-svg_classDiagram-dependencyStart)" style="fill:none" class="edge-pattern-solid relation" id="id6" d="M612.390625,467L612.390625,472.9166666666667C612.390625,478.8333333333333,612.390625,490.6666666666667,612.390625,502.5C612.390625,514.3333333333334,612.390625,526.1666666666666,612.390625,532.0833333333334L612.390625,538"/><path marker-start="url(#my-svg_classDiagram-aggregationStart)" style="fill:none" class="edge-pattern-solid relation" id="id7" d="M156.26953125,1111.5L156.26953125,1115.8333333333333C156.26953125,1120.1666666666667,156.26953125,1128.8333333333333,156.26953125,1140.5833333333333C156.26953125,1152.3333333333333,156.26953125,1167.1666666666667,156.26953125,1174.5833333333333L156.26953125,1182"/><path marker-end="url(#my-svg_classDiagram-dependencyEnd)" style="fill:none" class="edge-pattern-solid relation" id="id8" d="M97.7734375,874L97.7734375,886.75C97.7734375,899.5,97.7734375,925,101.83098550111067,944.2355738867836C105.88853350222138,963.4711477735673,114.00362950444276,976.4422955471347,118.06117750555343,982.9278694339183L122.11872550666413,989.4134433207021"/><path marker-start="url(#my-svg_classDiagram-aggregationStart)" style="fill:none" class="edge-pattern-solid relation" id="id9" d="M355.064663221789,929.5497019228387L351.4744589348241,933.0414182690323C347.88425464785934,936.5331346152258,340.7038460739297,943.516567307613,323.21137463010206,954.3416169871398C305.71890318627453,965.1666666666666,277.914368872549,979.8333333333334,264.01210171568624,987.1666666666666L250.10983455882354,994.5"/><path marker-start="url(#my-svg_classDiagram-aggregationStart)" style="fill:none" class="edge-pattern-solid relation" id="id10" d="M568.6265088685212,928.2578782862837L573.2512573904344,931.9648985719031C577.8760059123475,935.6719188575225,587.1255029561738,943.0859594287613,591.7502514780869,962.376313047714C596.375,981.6666666666666,596.375,1012.8333333333334,596.375,1044C596.375,1075.1666666666667,596.375,1106.3333333333333,617.859375,1131.870598881211C639.34375,1157.4078644290885,682.3125,1177.3157288581772,703.796875,1187.2696610727214L725.28125,1197.2235932872657"/><path marker-end="url(#my-svg_classDiagram-dependencyEnd)" style="fill:none" class="edge-pattern-solid relation" id="id11" d="M836.6171875,884.5L836.6171875,895.5C836.6171875,906.5,836.6171875,928.5,836.6171875,944.0833333333334C836.6171875,959.6666666666666,836.6171875,968.8333333333334,836.6171875,973.4166666666666L836.6171875,978"/><path marker-end="url(#my-svg_classDiagram-dependencyEnd)" style="fill:none" class="edge-pattern-solid relation" id="id12" d="M836.6171875,1104L836.6171875,1109.5833333333333C836.6171875,1115.1666666666667,836.6171875,1126.3333333333333,834.7023213974849,1136.575090798164C832.7874552949697,1146.8168482629944,828.9577230899396,1156.133696525989,827.0428569874244,1160.7921206574863L825.1279908849094,1165.4505447889835"/><path marker-end="url(#my-svg_classDiagram-dependencyEnd)" style="fill:none" class="edge-pattern-solid relation" id="id13" d="M764.7359449760766,686L776.7161520633972,691.5833333333334C788.6963591507177,697.1666666666666,812.6567733253588,708.3333333333334,824.6369804126795,723.9166666666666C836.6171875,739.5,836.6171875,759.5,836.6171875,769.5L836.6171875,779.5"/><path marker-end="url(#my-svg_classDiagram-dependencyEnd)" style="fill:none" class="edge-pattern-solid relation" id="id14" d="M418.5625,654.3594297945986L365.09765625,665.2161914954987C311.6328125,676.072953196399,204.703125,697.7864765981994,151.23828125,720.3932382990997C97.7734375,743,97.7734375,766.5,97.7734375,778.25L97.7734375,790"/><path style="fill:none" class="edge-pattern-dotted relation" id="edgeNote15" d="M761.955078125,62.5L761.955078125,71.83333333333333C761.955078125,81.16666666666667,761.955078125,99.83333333333333,761.955078125,114.75C761.955078125,129.66666666666666,761.955078125,140.83333333333334,761.955078125,146.41666666666666L761.955078125,152"/></g><g class="edgeLabels"><g transform="translate(454.220703125, 118.5)" class="edgeLabel"><g transform="translate(-89.8359375, -8.5)" class="label"><rect height="18.047813415527344" width="179.8778076171875" ry="0" rx="0"/><text style=""><tspan class="row" x="0" dy="1em" xml:space="preserve">sends connection configs</tspan></text></g></g><g transform="translate(439.2207015625001, 102.4999986607143)" class="edgeTerminals"><g transform="translate(-3.0625, -6)" class="inner"><text style=""><tspan class="row" x="0" dy="1em" xml:space="preserve">1</tspan></text></g></g><g transform="translate(464.2207015625, 139.99999866071428)" class="edgeTerminals"><g transform="translate(-3.0625, -6)" class="inner"/><text style=""><tspan class="row" x="0" dy="1em" xml:space="preserve">1</tspan></text></g><g transform="translate(454.220703125, 283.5)" class="edgeLabel"><g transform="translate(-127.2265625, -8.5)" class="label"><rect height="18.047813415527344" width="254.76925659179688" ry="0" rx="0"/><text style=""><tspan class="row" x="0" dy="1em" xml:space="preserve">sends new monolith websockets via</tspan></text></g></g><g transform="translate(439.2207015625001, 256.9999986607143)" class="edgeTerminals"><g transform="translate(-3.0625, -6)" class="inner"><text style=""><tspan class="row" x="0" dy="1em" xml:space="preserve">1</tspan></text></g></g><g transform="translate(533.1788695486375, 316.46988377614764)" class="edgeTerminals"><g transform="translate(-3.0625, -6)" class="inner"/><text style=""><tspan class="row" x="0" dy="1em" xml:space="preserve">1</tspan></text></g><g transform="translate(761.955078125, 283.5)" class="edgeLabel"><g transform="translate(-115.6640625, -8.5)" class="label"><rect height="18.047813415527344" width="231.67340087890625" ry="0" rx="0"/><text style=""><tspan class="row" x="0" dy="1em" xml:space="preserve">sends new client websockets via</tspan></text></g></g><g transform="translate(746.3517418388434, 266.64762091606434)" class="edgeTerminals"><g transform="translate(-3.0625, -6)" class="inner"><text style=""><tspan class="row" x="0" dy="1em" xml:space="preserve">1</tspan></text></g></g><g transform="translate(698.3136486175396, 338.220824497819)" class="edgeTerminals"><g transform="translate(-3.0625, -6)" class="inner"/><text style=""><tspan class="row" x="0" dy="1em" xml:space="preserve">1</tspan></text></g><g transform="translate(356.982421875, 719.5)" class="edgeLabel"><g transform="translate(-61.359375, -8.5)" class="label"><rect height="18.047813415527344" width="122.99646759033203" ry="0" rx="0"/><text style=""><tspan class="row" x="0" dy="1em" xml:space="preserve">selects monoliths</tspan></text></g></g><g transform="translate(262.3170460813149, 675.6261320356983)" class="edgeTerminals"><g transform="translate(-3.0625, -6)" class="inner"><text style=""><tspan class="row" x="0" dy="1em" xml:space="preserve">1</tspan></text></g></g><g transform="translate(380.0557602999338, 724.9551997922342)" class="edgeTerminals"><g transform="translate(-3.0625, -6)" class="inner"/><text style=""><tspan class="row" x="0" dy="1em" xml:space="preserve">1</tspan></text></g><g class="edgeLabel"><g transform="translate(0, 0)" class="label"><rect height="0" width="0" ry="0" rx="0"/><text style=""><tspan class="row" x="0" dy="1em" xml:space="preserve"/></text></g></g><g transform="translate(596.791755275496, 702.6583130091287)" class="edgeTerminals"><g transform="translate(-3.0625, -6)" class="inner"><text style=""><tspan class="row" x="0" dy="1em" xml:space="preserve">1</tspan></text></g></g><g transform="translate(583.9201602131072, 749.9267944030614)" class="edgeTerminals"><g transform="translate(-3.0625, -6)" class="inner"/><text style=""><tspan class="row" x="0" dy="1em" xml:space="preserve">1</tspan></text></g><g transform="translate(612.390625, 502.5)" class="edgeLabel"><g transform="translate(-166.3125, -16.5)" class="label"><rect height="34.047813415527344" width="332.63037109375" ry="0" rx="0"/><text style=""><tspan class="row" x="0" dy="1em" xml:space="preserve">sends inbound msgs via channels,</tspan><tspan class="row" x="0" dy="1em" xml:space="preserve">receives channel Receivers for outbound msgs</tspan></text></g></g><g transform="translate(597.3906275, 478.5000021428571)" class="edgeTerminals"><g transform="translate(-3.0625, -6)" class="inner"><text style=""><tspan class="row" x="0" dy="1em" xml:space="preserve">1</tspan></text></g></g><g transform="translate(622.3906274999998, 521.5000021428572)" class="edgeTerminals"><g transform="translate(-3.0625, -6)" class="inner"/><text style=""><tspan class="row" x="0" dy="1em" xml:space="preserve">1</tspan></text></g><g transform="translate(156.26953125, 1137.5)" class="edgeLabel"><g transform="translate(-28.453125, -8.5)" class="label"><rect height="18.047813415527344" width="57.26692199707031" ry="0" rx="0"/><text style=""><tspan class="row" x="0" dy="1em" xml:space="preserve">Collects</tspan></text></g></g><g transform="translate(141.26953062500002, 1110.9999994642858)" class="edgeTerminals"><g transform="translate(-3.0625, -6)" class="inner"><text style=""><tspan class="row" x="0" dy="1em" xml:space="preserve">1</tspan></text></g></g><g transform="translate(166.26953062500002, 1159.4999994642858)" class="edgeTerminals"><g transform="translate(-8.614990234375, -6)" class="inner"/><text style=""><tspan class="row" x="0" dy="1em" xml:space="preserve">0..*</tspan></text></g><g transform="translate(97.7734375, 950.5)" class="edgeLabel"><g transform="translate(-70.3125, -8.5)" class="label"><rect height="18.047813415527344" width="140.35934448242188" ry="0" rx="0"/><text style=""><tspan class="row" x="0" dy="1em" xml:space="preserve">consumed to create</tspan></text></g></g><g transform="translate(82.77343875000004, 891.5000010714285)" class="edgeTerminals"><g transform="translate(-3.0625, -6)" class="inner"><text style=""><tspan class="row" x="0" dy="1em" xml:space="preserve">1</tspan></text></g></g><g transform="translate(123.73573736575258, 966.7084964373689)" class="edgeTerminals"><g transform="translate(-3.0625, -6)" class="inner"/><text style=""><tspan class="row" x="0" dy="1em" xml:space="preserve">1</tspan></text></g><g transform="translate(333.5234375, 950.5)" class="edgeLabel"><g transform="translate(-26.6796875, -8.5)" class="label"><rect height="18.047813415527344" width="53.716712951660156" ry="0" rx="0"/><text style=""><tspan class="row" x="0" dy="1em" xml:space="preserve">collects</tspan></text></g></g><g transform="translate(344.9650124812617, 918.4480322252161)" class="edgeTerminals"><g transform="translate(-3.0625, -6)" class="inner"><text style=""><tspan class="row" x="0" dy="1em" xml:space="preserve">1</tspan></text></g></g><g transform="translate(267.58680567250394, 994.6025212051087)" class="edgeTerminals"><g transform="translate(-8.614990234375, -6)" class="inner"/><text style=""><tspan class="row" x="0" dy="1em" xml:space="preserve">0..*</tspan></text></g><g transform="translate(596.375, 1044)" class="edgeLabel"><g transform="translate(-26.6796875, -8.5)" class="label"><rect height="18.047813415527344" width="53.716712951660156" ry="0" rx="0"/><text style=""><tspan class="row" x="0" dy="1em" xml:space="preserve">collects</tspan></text></g></g><g transform="translate(558.8548070311872, 939.6492717732335)" class="edgeTerminals"><g transform="translate(-3.0625, -6)" class="inner"><text style=""><tspan class="row" x="0" dy="1em" xml:space="preserve">1</tspan></text></g></g><g transform="translate(710.7084238097096, 1171.256689771276)" class="edgeTerminals"><g transform="translate(-8.614990234375, -6)" class="inner"/><text style=""><tspan class="row" x="0" dy="1em" xml:space="preserve">0..*</tspan></text></g><g transform="translate(836.6171875, 950.5)" class="edgeLabel"><g transform="translate(-91.671875, -8.5)" class="label"><rect height="18.047813415527344" width="183.335693359375" ry="0" rx="0"/><text style=""><tspan class="row" x="0" dy="1em" xml:space="preserve">when auth token received</tspan></text></g></g><g transform="translate(836.6171875, 1137.5)" class="edgeLabel"><g transform="translate(-70.3125, -8.5)" class="label"><rect height="18.047813415527344" width="140.35934448242188" ry="0" rx="0"/><text style=""><tspan class="row" x="0" dy="1em" xml:space="preserve">consumed to create</tspan></text></g></g><g transform="translate(836.6171875, 719.5)" class="edgeLabel"><g transform="translate(-82.55078125, -8.5)" class="label"><rect height="18.047813415527344" width="164.7125244140625" ry="0" rx="0"/><text style=""><tspan class="row" x="0" dy="1em" xml:space="preserve">create upon websocket</tspan></text></g></g><g transform="translate(97.7734375, 719.5)" class="edgeLabel"><g transform="translate(-82.55078125, -8.5)" class="label"><rect height="18.047813415527344" width="164.7125244140625" ry="0" rx="0"/><text style=""><tspan class="row" x="0" dy="1em" xml:space="preserve">create upon websocket</tspan></text></g></g><g class="edgeLabel"><g transform="translate(0, 0)" class="label"><rect height="0" width="0" ry="0" rx="0"/><text style=""><tspan class="row" x="0" dy="1em" xml:space="preserve"/></text></g></g></g><g class="nodes"><g transform="translate(612.390625, 615)" id="classId-Balancer-0" class="node default"><rect height="142" width="387.65625" y="-71" x="-193.828125" class="outer title-state"/><line y2="-42" y1="-42" x2="193.828125" x1="-193.828125" class="divider"/><line y2="16" y1="16" x2="193.828125" x1="-193.828125" class="divider"/><g class="label"><text style=""><tspan class="title-row" x="0" dy="1em" xml:space="preserve"/></text><text transform="translate( -33.796875, -63.5)" class="classTitle" style=""><tspan class="title-row" x="0" dy="1em" xml:space="preserve">Balancer</tspan></text><text transform="translate( -186.328125, -30.5)" style=""><tspan class="title-row" x="0" dy="1em" xml:space="preserve">ctx: Arc&lt;RwLock&lt;BalancerContext&gt;&gt;</tspan></text><text transform="translate( -186.328125, -9.5)" style=""><tspan class="title-row" x="0" dy="1em" xml:space="preserve">...[channels for receiving new nodes, and messages]</tspan></text><text transform="translate( -186.328125, 23.5)" style=""><tspan class="title-row" x="0" dy="1em" xml:space="preserve">new_link() : : BalancerLink</tspan></text><text transform="translate( -186.328125, 45.5)" style=""><tspan class="title-row" x="0" dy="1em" xml:space="preserve">dispatch_loop()</tspan></text></g></g><g transform="translate(454.220703125, 46.5)" id="classId-MonolithDiscoverer-1" class="node default"><rect height="77" width="164.359375" y="-38.5" x="-82.1796875" class="outer title-state"/><line y2="11.5" y1="11.5" x2="82.1796875" x1="-82.1796875" class="divider"/><line y2="27.5" y1="27.5" x2="82.1796875" x1="-82.1796875" class="divider"/><g class="label"><text transform="translate( -22.28515625, -31)" style=""><tspan class="title-row" x="0" dy="1em" xml:space="preserve">«trait»</tspan></text><text transform="translate( -74.6796875, -10)" class="classTitle" style=""><tspan class="title-row" x="0" dy="1em" xml:space="preserve">MonolithDiscoverer</tspan></text></g></g><g transform="translate(454.220703125, 201)" id="classId-MonolithConnectionManager-2" class="node default"><rect height="77" width="235.4375" y="-38.5" x="-117.71875" class="outer title-state"/><line y2="-9.5" y1="-9.5" x2="117.71875" x1="-117.71875" class="divider"/><line y2="27.5" y1="27.5" x2="117.71875" x1="-117.71875" class="divider"/><g class="label"><text style=""><tspan class="title-row" x="0" dy="1em" xml:space="preserve"/></text><text transform="translate( -110.21875, -31)" class="classTitle" style=""><tspan class="title-row" x="0" dy="1em" xml:space="preserve">MonolithConnectionManager</tspan></text><text transform="translate( -110.21875, 2)" style=""><tspan class="title-row" x="0" dy="1em" xml:space="preserve">link: BalancerLink</tspan></text></g></g><g transform="translate(612.390625, 389)" id="classId-BalancerLink-3" class="node default"><rect height="144" width="135.953125" y="-72" x="-67.9765625" class="outer title-state"/><line y2="-43" y1="-43" x2="67.9765625" x1="-67.9765625" class="divider"/><line y2="61" y1="61" x2="67.9765625" x1="-67.9765625" class="divider"/><g class="label"><text style=""><tspan class="title-row" x="0" dy="1em" xml:space="preserve"/></text><text transform="translate( -50.29296875, -64.5)" class="classTitle" style=""><tspan class="title-row" x="0" dy="1em" xml:space="preserve">BalancerLink</tspan></text><text transform="translate( -60.4765625, -31.5)" style=""><tspan class="title-row" x="0" dy="1em" xml:space="preserve">new_client_tx</tspan></text><text transform="translate( -60.4765625, -9.5)" style=""><tspan class="title-row" x="0" dy="1em" xml:space="preserve">client_msg_tx</tspan></text><text transform="translate( -60.4765625, 12.5)" style=""><tspan class="title-row" x="0" dy="1em" xml:space="preserve">new_monolith_tx</tspan></text><text transform="translate( -60.4765625, 34.5)" style=""><tspan class="title-row" x="0" dy="1em" xml:space="preserve">monolith_msg_tx</tspan></text></g></g><g transform="translate(761.955078125, 201)" id="classId-BalancerService-4" class="node default"><rect height="98" width="280.03125" y="-49" x="-140.015625" class="outer title-state"/><line y2="-20" y1="-20" x2="140.015625" x1="-140.015625" class="divider"/><line y2="38" y1="38" x2="140.015625" x1="-140.015625" class="divider"/><g class="label"><text style=""><tspan class="title-row" x="0" dy="1em" xml:space="preserve"/></text><text transform="translate( -62.31640625, -41.5)" class="classTitle" style=""><tspan class="title-row" x="0" dy="1em" xml:space="preserve">BalancerService</tspan></text><text transform="translate( -132.515625, -8.5)" style=""><tspan class="title-row" x="0" dy="1em" xml:space="preserve">ctx: Arc&lt;RwLock&lt;BalancerContext&gt;&gt;</tspan></text><text transform="translate( -132.515625, 12.5)" style=""><tspan class="title-row" x="0" dy="1em" xml:space="preserve">link: BalancerLink</tspan></text></g></g><g transform="translate(97.7734375, 835)" id="classId-NewMonolith-5" class="node default"><rect height="78" width="179.546875" y="-39" x="-89.7734375" class="outer title-state"/><line y2="-10" y1="-10" x2="89.7734375" x1="-89.7734375" class="divider"/><line y2="28" y1="28" x2="89.7734375" x1="-89.7734375" class="divider"/><g class="label"><text style=""><tspan class="title-row" x="0" dy="1em" xml:space="preserve"/></text><text transform="translate( -49.7734375, -31.5)" class="classTitle" style=""><tspan class="title-row" x="0" dy="1em" xml:space="preserve">NewMonolith</tspan></text><text transform="translate( -82.2734375, 1.5)" style=""><tspan class="title-row" x="0" dy="1em" xml:space="preserve">monolith_id: MonolithId</tspan></text></g></g><g transform="translate(196.873046875, 615)" id="classId-MonolithSelection-6" class="node default"><rect height="77" width="152.78125" y="-38.5" x="-76.390625" class="outer title-state"/><line y2="11.5" y1="11.5" x2="76.390625" x1="-76.390625" class="divider"/><line y2="27.5" y1="27.5" x2="76.390625" x1="-76.390625" class="divider"/><g class="label"><text transform="translate( -22.28515625, -31)" style=""><tspan class="title-row" x="0" dy="1em" xml:space="preserve">«trait»</tspan></text><text transform="translate( -68.890625, -10)" class="classTitle" style=""><tspan class="title-row" x="0" dy="1em" xml:space="preserve">MonolithSelection</tspan></text></g></g><g transform="translate(452.28125, 835)" id="classId-BalancerContext-7" class="node default"><rect height="164" width="429.46875" y="-82" x="-214.734375" class="outer title-state"/><line y2="-53" y1="-53" x2="214.734375" x1="-214.734375" class="divider"/><line y2="71" y1="71" x2="214.734375" x1="-214.734375" class="divider"/><g class="label"><text style=""><tspan class="title-row" x="0" dy="1em" xml:space="preserve"/></text><text transform="translate( -63.91015625, -74.5)" class="classTitle" style=""><tspan class="title-row" x="0" dy="1em" xml:space="preserve">BalancerContext</tspan></text><text transform="translate( -207.234375, -41.5)" style=""><tspan class="title-row" x="0" dy="1em" xml:space="preserve">clients: HashMap&lt;ClientId-BalancerClient&gt;,</tspan></text><text transform="translate( -207.234375, -20.5)" style=""><tspan class="title-row" x="0" dy="1em" xml:space="preserve">monoliths: HashMap&lt;MonolithId-BalancerMonolith&gt;,</tspan></text><text transform="translate( -207.234375, 0.5)" style=""><tspan class="title-row" x="0" dy="1em" xml:space="preserve">rooms_to_monoliths: HashMap&lt;RoomName-MonolithId&gt;,</tspan></text><text transform="translate( -207.234375, 22.5)" style=""><tspan class="title-row" x="0" dy="1em" xml:space="preserve">monoliths_by_region: HashMap&lt;String-Vec&lt;MonolithId&gt;&gt;,</tspan></text><text transform="translate( -207.234375, 44.5)" style=""><tspan class="title-row" x="0" dy="1em" xml:space="preserve">monolith_selection: Box&lt;MonolithSelection&gt;,</tspan></text></g></g><g transform="translate(156.26953125, 1044)" id="classId-BalancerMonolith-8" class="node default"><rect height="99" width="288.875" y="-49.5" x="-144.4375" class="outer title-state"/><line y2="-20.5" y1="-20.5" x2="144.4375" x1="-144.4375" class="divider"/><line y2="38.5" y1="38.5" x2="144.4375" x1="-144.4375" class="divider"/><g class="label"><text style=""><tspan class="title-row" x="0" dy="1em" xml:space="preserve"/></text><text transform="translate( -67.1171875, -42)" class="classTitle" style=""><tspan class="title-row" x="0" dy="1em" xml:space="preserve">BalancerMonolith</tspan></text><text transform="translate( -136.9375, -9)" style=""><tspan class="title-row" x="0" dy="1em" xml:space="preserve">monolith_id: MonolithId</tspan></text><text transform="translate( -136.9375, 13)" style=""><tspan class="title-row" x="0" dy="1em" xml:space="preserve">rooms: Hashmap&lt;RoomName-Room&gt;</tspan></text></g></g><g transform="translate(156.26953125, 1231)" id="classId-Room-9" class="node default"><rect height="98" width="168.875" y="-49" x="-84.4375" class="outer title-state"/><line y2="-20" y1="-20" x2="84.4375" x1="-84.4375" class="divider"/><line y2="38" y1="38" x2="84.4375" x1="-84.4375" class="divider"/><g class="label"><text style=""><tspan class="title-row" x="0" dy="1em" xml:space="preserve"/></text><text transform="translate( -22.6640625, -41.5)" class="classTitle" style=""><tspan class="title-row" x="0" dy="1em" xml:space="preserve">Room</tspan></text><text transform="translate( -76.9375, -8.5)" style=""><tspan class="title-row" x="0" dy="1em" xml:space="preserve">name: RoomName</tspan></text><text transform="translate( -76.9375, 12.5)" style=""><tspan class="title-row" x="0" dy="1em" xml:space="preserve">clients: Vec&lt;ClientId&gt;</tspan></text></g></g><g transform="translate(798.18359375, 1231)" id="classId-BalancerClient-10" class="node default"><rect height="120" width="145.8046875" y="-60" x="-72.90234375" class="outer title-state"/><line y2="-31" y1="-31" x2="72.90234375" x1="-72.90234375" class="divider"/><line y2="49" y1="49" x2="72.90234375" x1="-72.90234375" class="divider"/><g class="label"><text style=""><tspan class="title-row" x="0" dy="1em" xml:space="preserve"/></text><text transform="translate( -56.35546875, -52.5)" class="classTitle" style=""><tspan class="title-row" x="0" dy="1em" xml:space="preserve">BalancerClient</tspan></text><text transform="translate( -65.40234375, -19.5)" style=""><tspan class="title-row" x="0" dy="1em" xml:space="preserve">client_id: ClientId</tspan></text><text transform="translate( -65.40234375, 2.5)" style=""><tspan class="title-row" x="0" dy="1em" xml:space="preserve">room: RoomName</tspan></text><text transform="translate( -65.40234375, 23.5)" style=""><tspan class="title-row" x="0" dy="1em" xml:space="preserve">token: String</tspan></text></g></g><g transform="translate(836.6171875, 835)" id="classId-UnauthorizedClient-11" class="node default"><rect height="99" width="162.3359375" y="-49.5" x="-81.16796875" class="outer title-state"/><line y2="-20.5" y1="-20.5" x2="81.16796875" x1="-81.16796875" class="divider"/><line y2="38.5" y1="38.5" x2="81.16796875" x1="-81.16796875" class="divider"/><g class="label"><text style=""><tspan class="title-row" x="0" dy="1em" xml:space="preserve"/></text><text transform="translate( -73.66796875, -42)" class="classTitle" style=""><tspan class="title-row" x="0" dy="1em" xml:space="preserve">UnauthorizedClient</tspan></text><text transform="translate( -73.66796875, -9)" style=""><tspan class="title-row" x="0" dy="1em" xml:space="preserve">client_id: ClientId</tspan></text><text transform="translate( -73.66796875, 13)" style=""><tspan class="title-row" x="0" dy="1em" xml:space="preserve">room: RoomName</tspan></text></g></g><g transform="translate(836.6171875, 1044)" id="classId-NewClient-12" class="node default"><rect height="120" width="145.8046875" y="-60" x="-72.90234375" class="outer title-state"/><line y2="-31" y1="-31" x2="72.90234375" x1="-72.90234375" class="divider"/><line y2="49" y1="49" x2="72.90234375" x1="-72.90234375" class="divider"/><g class="label"><text style=""><tspan class="title-row" x="0" dy="1em" xml:space="preserve"/></text><text transform="translate( -39.0078125, -52.5)" class="classTitle" style=""><tspan class="title-row" x="0" dy="1em" xml:space="preserve">NewClient</tspan></text><text transform="translate( -65.40234375, -19.5)" style=""><tspan class="title-row" x="0" dy="1em" xml:space="preserve">client_id: ClientId</tspan></text><text transform="translate( -65.40234375, 2.5)" style=""><tspan class="title-row" x="0" dy="1em" xml:space="preserve">room: RoomName</tspan></text><text transform="translate( -65.40234375, 23.5)" style=""><tspan class="title-row" x="0" dy="1em" xml:space="preserve">token: String</tspan></text></g></g><g transform="translate(761.955078125, 46.5)" id="note0" class="node undefined"><rect height="32" width="119.921875" y="-16" x="-59.9609375" ry="0" rx="0"/><g transform="translate(-52.4609375, -8.5)" style="" class="label"><rect/><text style=""><tspan class="row" x="0" dy="1em" xml:space="preserve">Handles HTTP</tspan></text></g></g></g></g></g></svg>