<svg aria-roledescription="stateDiagram" role="graphics-document document" viewBox="-8 -8 950.42578125 534" style="max-width: 950.426px; background-color: white;" class="statediagram" xmlns:xlink="http://www.w3.org/1999/xlink" xmlns="http://www.w3.org/2000/svg" width="100%" id="my-svg"><style>#my-svg{font-family:"trebuchet ms",verdana,arial,sans-serif;font-size:16px;fill:#000000;}#my-svg .error-icon{fill:#552222;}#my-svg .error-text{fill:#552222;stroke:#552222;}#my-svg .edge-thickness-normal{stroke-width:2px;}#my-svg .edge-thickness-thick{stroke-width:3.5px;}#my-svg .edge-pattern-solid{stroke-dasharray:0;}#my-svg .edge-pattern-dashed{stroke-dasharray:3;}#my-svg .edge-pattern-dotted{stroke-dasharray:2;}#my-svg .marker{fill:#666;stroke:#666;}#my-svg .marker.cross{stroke:#666;}#my-svg svg{font-family:"trebuchet ms",verdana,arial,sans-serif;font-size:16px;}#my-svg defs #statediagram-barbEnd{fill:#000;stroke:#000;}#my-svg g.stateGroup text{fill:#999;stroke:none;font-size:10px;}#my-svg g.stateGroup text{fill:#000000;stroke:none;font-size:10px;}#my-svg g.stateGroup .state-title{font-weight:bolder;fill:#111111;}#my-svg g.stateGroup rect{fill:#eee;stroke:#999;}#my-svg g.stateGroup line{stroke:#666;stroke-width:1;}#my-svg .transition{stroke:#000;stroke-width:1;fill:none;}#my-svg .stateGroup .composit{fill:#ffffff;border-bottom:1px;}#my-svg .stateGroup .alt-composit{fill:#e0e0e0;border-bottom:1px;}#my-svg .state-note{stroke:#999;fill:#666;}#my-svg .state-note text{fill:#fff;stroke:none;font-size:10px;}#my-svg .stateLabel .box{stroke:none;stroke-width:0;fill:#eee;opacity:0.5;}#my-svg .edgeLabel .label rect{fill:#eee;opacity:0.5;}#my-svg .edgeLabel .label text{fill:#000000;}#my-svg .label div .edgeLabel{color:#000000;}#my-svg .stateLabel text{fill:#111111;font-size:10px;font-weight:bold;}#my-svg .node circle.state-start{fill:#222;stroke:#222;}#my-svg .node .fork-join{fill:#222;stroke:#222;}#my-svg .node circle.state-end{fill:hsl(0, 0%, 83.3333333333%);stroke:#ffffff;stroke-width:1.5;}#my-svg .end-state-inner{fill:#ffffff;stroke-width:1.5;}#my-svg .node rect{fill:#eee;stroke:#000;stroke-width:1px;}#my-svg .node polygon{fill:#eee;stroke:#000;stroke-width:1px;}#my-svg #statediagram-barbEnd{fill:#666;}#my-svg .statediagram-cluster rect{fill:#eee;stroke:#000;stroke-width:1px;}#my-svg .cluster-label,#my-svg .nodeLabel{color:#111111;}#my-svg .statediagram-cluster rect.outer{rx:5px;ry:5px;}#my-svg .statediagram-state .divider{stroke:#000;}#my-svg .statediagram-state .title-state{rx:5px;ry:5px;}#my-svg .statediagram-cluster.statediagram-cluster .inner{fill:#ffffff;}#my-svg .statediagram-cluster.statediagram-cluster-alt .inner{fill:#f4f4f4;}#my-svg .statediagram-cluster .inner{rx:0;ry:0;}#my-svg .statediagram-state rect.basic{rx:5px;ry:5px;}#my-svg .statediagram-state rect.divider{stroke-dasharray:10,10;fill:#f4f4f4;}#my-svg .note-edge{stroke-dasharray:5;}#my-svg .statediagram-note rect{fill:#666;stroke:#999;stroke-width:1px;rx:0;ry:0;}#my-svg .statediagram-note rect{fill:#666;stroke:#999;stroke-width:1px;rx:0;ry:0;}#my-svg .statediagram-note text{fill:#fff;}#my-svg .statediagram-note .nodeLabel{color:#fff;}#my-svg .statediagram .edgeLabel{color:red;}#my-svg #dependencyStart,#my-svg #dependencyEnd{fill:#666;stroke:#666;stroke-width:1;}#my-svg .statediagramTitleText{text-anchor:middle;font-size:18px;fill:#000000;}#my-svg :root{--mermaid-font-family:"trebuchet ms",verdana,arial,sans-serif;}</style><g><defs><marker orient="auto" markerUnits="strokeWidth" markerHeight="14" markerWidth="20" refY="7" refX="19" id="my-svg_statediagram-barbEnd"><path d="M 19,7 L9,13 L14,7 L9,1 Z"/></marker></defs><g class="root"><g class="clusters"/><g class="edgePaths"><path marker-end="url(#my-svg_statediagram-barbEnd)" style="fill:none" class="edge-thickness-normal transition" id="edge0" d="M440.22265625,22L440.22265625,27.583333333333332C440.22265625,33.166666666666664,440.22265625,44.333333333333336,440.22265625,55.5C440.22265625,66.66666666666667,440.22265625,77.83333333333333,440.22265625,83.41666666666667L440.22265625,89"/><path marker-end="url(#my-svg_statediagram-barbEnd)" style="fill:none" class="edge-thickness-normal transition" id="edge1" d="M440.22265625,121L440.22265625,125.16666666666667C440.22265625,129.33333333333334,440.22265625,137.66666666666666,440.22265625,146C440.22265625,154.33333333333334,440.22265625,162.66666666666666,440.22265625,166.83333333333334L440.22265625,171"/><path marker-end="url(#my-svg_statediagram-barbEnd)" style="fill:none" class="edge-thickness-normal transition" id="edge2" d="M440.22265625,203L440.22265625,207.16666666666666C440.22265625,211.33333333333334,440.22265625,219.66666666666666,440.22265625,228C440.22265625,236.33333333333334,440.22265625,244.66666666666666,440.22265625,248.83333333333334L440.22265625,253"/><path marker-end="url(#my-svg_statediagram-barbEnd)" style="fill:none" class="edge-thickness-normal transition" id="edge3" d="M401.47265625,266.6984049210135L352.7890625,272.9153374341779C304.10546875,279.1322699473423,206.73828125,291.5661349736711,158.0546875,303.3664008201689C109.37109375,315.1666666666667,109.37109375,326.3333333333333,109.37109375,331.9166666666667L109.37109375,337.5"/><path marker-end="url(#my-svg_statediagram-barbEnd)" style="fill:none" class="edge-thickness-normal transition" id="edge4" d="M440.22265625,270.5L440.22265625,276.0833333333333C440.22265625,281.6666666666667,440.22265625,292.8333333333333,440.22265625,304C440.22265625,315.1666666666667,440.22265625,326.3333333333333,440.22265625,331.9166666666667L440.22265625,337.5"/><path marker-end="url(#my-svg_statediagram-barbEnd)" style="fill:none" class="edge-thickness-normal transition" id="edge5" d="M478.97265625,266.441816858838L530.671875,272.7015140490317C582.37109375,278.96121123922535,685.76953125,291.4806056196127,737.46875,303.3236361431397C789.16796875,315.1666666666667,789.16796875,326.3333333333333,789.16796875,331.9166666666667L789.16796875,337.5"/><path marker-end="url(#my-svg_statediagram-barbEnd)" style="fill:none" class="edge-thickness-normal transition" id="edge6" d="M109.37109375,369.5L109.37109375,373.6666666666667C109.37109375,377.8333333333333,109.37109375,386.1666666666667,158.0546875,395.2995220272812C206.73828125,404.43237738789577,304.10546875,414.36475477579165,352.7890625,419.33094346973957L401.47265625,424.2971321636875"/><path marker-end="url(#my-svg_statediagram-barbEnd)" style="fill:none" class="edge-thickness-normal transition" id="edge7" d="M440.22265625,369.5L440.22265625,373.6666666666667C440.22265625,377.8333333333333,440.22265625,386.1666666666667,440.22265625,394.5C440.22265625,402.8333333333333,440.22265625,411.1666666666667,440.22265625,415.3333333333333L440.22265625,419.5"/><path marker-end="url(#my-svg_statediagram-barbEnd)" style="fill:none" class="edge-thickness-normal transition" id="edge8" d="M789.16796875,369.5L789.16796875,373.6666666666667C789.16796875,377.8333333333333,789.16796875,386.1666666666667,737.46875,395.33368315981943C685.76953125,404.5006996529721,582.37109375,414.50139930594423,530.671875,419.50174913243035L478.97265625,424.50209895891635"/><path marker-end="url(#my-svg_statediagram-barbEnd)" style="fill:none" class="edge-thickness-normal transition" id="edge9" d="M440.22265625,437L440.22265625,442.5833333333333C440.22265625,448.1666666666667,440.22265625,459.3333333333333,440.22265625,470.5C440.22265625,481.6666666666667,440.22265625,492.8333333333333,440.22265625,498.4166666666667L440.22265625,504"/></g><g class="edgeLabels"><g transform="translate(440.22265625, 55.5)" class="edgeLabel"><g transform="translate(-56.921875, -8.5)" class="label"><rect height="18.184526443481445" width="113.74800872802734" ry="0" rx="0"/><text style=""><tspan class="row" x="0" dy="1em" xml:space="preserve">Client connects.</tspan></text></g></g><g class="edgeLabel"><g transform="translate(0, 0)" class="label"><rect height="0" width="0" ry="0" rx="0"/><text style=""><tspan class="row" x="0" dy="1em" xml:space="preserve"/></text></g></g><g class="edgeLabel"><g transform="translate(0, 0)" class="label"><rect height="0" width="0" ry="0" rx="0"/><text style=""><tspan class="row" x="0" dy="1em" xml:space="preserve"/></text></g></g><g transform="translate(109.37109375, 304)" class="edgeLabel"><g transform="translate(-51.28125, -8.5)" class="label"><rect height="18.184526443481445" width="102.49633026123047" ry="0" rx="0"/><text style=""><tspan class="row" x="0" dy="1em" xml:space="preserve">Title is too big.</tspan></text></g></g><g transform="translate(440.22265625, 304)" class="edgeLabel"><g transform="translate(-80.03125, -8.5)" class="label"><rect height="18.184526443481445" width="159.9480743408203" ry="0" rx="0"/><text style=""><tspan class="row" x="0" dy="1em" xml:space="preserve">Name too small or big.</tspan></text></g></g><g transform="translate(789.16796875, 304)" class="edgeLabel"><g transform="translate(-145.2578125, -8.5)" class="label"><rect height="18.184526443481445" width="290.2894592285156" ry="0" rx="0"/><text style=""><tspan class="row" x="0" dy="1em" xml:space="preserve">Visibility is not public, private, or unlisted.</tspan></text></g></g><g class="edgeLabel"><g transform="translate(0, 0)" class="label"><rect height="0" width="0" ry="0" rx="0"/><text style=""><tspan class="row" x="0" dy="1em" xml:space="preserve"/></text></g></g><g class="edgeLabel"><g transform="translate(0, 0)" class="label"><rect height="0" width="0" ry="0" rx="0"/><text style=""><tspan class="row" x="0" dy="1em" xml:space="preserve"/></text></g></g><g class="edgeLabel"><g transform="translate(0, 0)" class="label"><rect height="0" width="0" ry="0" rx="0"/><text style=""><tspan class="row" x="0" dy="1em" xml:space="preserve"/></text></g></g><g transform="translate(440.22265625, 470.5)" class="edgeLabel"><g transform="translate(-108.7890625, -8.5)" class="label"><rect height="18.184526443481445" width="217.39981079101562" ry="0" rx="0"/><text style=""><tspan class="row" x="0" dy="1em" xml:space="preserve">Validation fails, error is thrown.</tspan></text></g></g></g><g class="nodes"><g transform="translate(440.22265625, 105)" id="state-conn-1" class="node  statediagram-state undefined"><rect height="32" width="205" y="-16" x="-102.5" style="" class="basic label-container"/><g transform="translate(-95, -8.5)" style="" class="label"><rect/><text style=""><tspan class="row" x="0" dy="1em" xml:space="preserve">Client hits /create endpoint</tspan></text></g></g><g transform="translate(440.22265625, 187)" id="state-param-2" class="node  statediagram-state undefined"><rect height="32" width="264.875" y="-16" x="-132.4375" style="" class="basic label-container"/><g transform="translate(-124.9375, -8.5)" style="" class="label"><rect/><text style=""><tspan class="row" x="0" dy="1em" xml:space="preserve">Client tries to edit room parameters</tspan></text></g></g><g transform="translate(440.22265625, 261.75)" id="state-fork_state-5" class="node default"><rect class="fork-join" height="10" width="70" y="-5" x="-35"/></g><g transform="translate(109.37109375, 353.5)" id="state-title-6" class="node  statediagram-state undefined"><rect height="32" width="202.7421875" y="-16" x="-101.37109375" style="" class="basic label-container"/><g transform="translate(-93.87109375, -8.5)" style="" class="label"><rect/><text style=""><tspan class="row" x="0" dy="1em" xml:space="preserve">Title greater than 255 char</tspan></text></g></g><g transform="translate(440.22265625, 353.5)" id="state-name-7" class="node  statediagram-state undefined"><rect height="32" width="358.9609375" y="-16" x="-179.48046875" style="" class="basic label-container"/><g transform="translate(-171.98046875, -8.5)" style="" class="label"><rect/><text style=""><tspan class="row" x="0" dy="1em" xml:space="preserve">Name is less than 3 char or greater than 32 char</tspan></text></g></g><g transform="translate(789.16796875, 353.5)" id="state-visibility-8" class="node  statediagram-state undefined"><rect height="32" width="238.9296875" y="-16" x="-119.46484375" style="" class="basic label-container"/><g transform="translate(-111.96484375, -8.5)" style="" class="label"><rect/><text style=""><tspan class="row" x="0" dy="1em" xml:space="preserve">Visibility is not an allowed value</tspan></text></g></g><g transform="translate(440.22265625, 428.25)" id="state-join_state-9" class="node default"><rect class="fork-join" height="10" width="70" y="-5" x="-35"/></g><g transform="translate(440.22265625, 15)" id="state-root_start-0" class="node default"><circle height="14" width="14" r="7" class="state-start"/></g><g transform="translate(440.22265625, 511)" id="state-root_end-9" class="node default"><circle height="14" width="14" r="7" class="state-start"/><circle height="10" width="10" r="5" class="state-end"/></g></g></g></g></svg>