<?xml version="1.0" encoding="us-ascii" standalone="no"?><svg xmlns="http://www.w3.org/2000/svg" xmlns:xlink="http://www.w3.org/1999/xlink" contentStyleType="text/css" height="322px" preserveAspectRatio="none" style="width:889px;height:322px;background:#FFFFFF;" version="1.1" viewBox="0 0 889 322" width="889px" zoomAndPan="magnify"><defs/><g><g id="cluster_##4"><rect fill="none" height="309" rx="2.5" ry="2.5" style="stroke:#181818;stroke-width:1.0;" width="707" x="85" y="7"/></g><g id="elem_Create Room"><ellipse cx="177.3288" cy="126.7658" fill="#F1F1F1" rx="69.3288" ry="16.2658" style="stroke:#181818;stroke-width:0.5;"/><text fill="#000000" font-family="sans-serif" font-size="14" lengthAdjust="spacing" textLength="91" x="128.8288" y="130.5133">Create Room</text></g><g id="elem_Join Room"><ellipse cx="479.0597" cy="284.782" fill="#F1F1F1" rx="61.5597" ry="14.782" style="stroke:#181818;stroke-width:0.5;"/><text fill="#000000" font-family="sans-serif" font-size="14" lengthAdjust="spacing" textLength="69" x="441.5597" y="288.5295">Join Room</text></g><g id="elem_Generate Room"><ellipse cx="177.5612" cy="210.2122" fill="#F1F1F1" rx="76.5612" ry="17.7122" style="stroke:#181818;stroke-width:0.5;"/><text fill="#000000" font-family="sans-serif" font-size="14" lengthAdjust="spacing" textLength="110" x="119.5612" y="213.9598">Generate Room</text></g><g id="elem_Get Link"><ellipse cx="177.3543" cy="281.2084" fill="#F1F1F1" rx="51.8543" ry="14.7084" style="stroke:#181818;stroke-width:0.5;"/><text fill="#000000" font-family="sans-serif" font-size="14" lengthAdjust="spacing" textLength="56" x="146.3543" y="284.956">Get Link</text></g><g id="elem_Create Permanent Room"><ellipse cx="479.1608" cy="127.0322" fill="#F1F1F1" rx="103.1608" ry="23.0322" style="stroke:#181818;stroke-width:0.5;"/><text fill="#000000" font-family="sans-serif" font-size="14" lengthAdjust="spacing" textLength="171" x="393.6608" y="129.8788">Create Permanent Room</text></g><g id="elem_Create Temporary Room"><ellipse cx="479.2481" cy="45.8496" fill="#F1F1F1" rx="102.2481" ry="22.8496" style="stroke:#181818;stroke-width:0.5;"/><text fill="#000000" font-family="sans-serif" font-size="14" lengthAdjust="spacing" textLength="169" x="394.7481" y="48.6963">Create Temporary Room</text></g><g id="elem_Generate Temporary Room"><ellipse cx="478.9811" cy="210.0962" fill="#F1F1F1" rx="110.9811" ry="24.5962" style="stroke:#181818;stroke-width:0.5;"/><text fill="#000000" font-family="sans-serif" font-size="14" lengthAdjust="spacing" textLength="188" x="384.9811" y="212.9429">Generate Temporary Room</text></g><g id="elem_Share Link"><ellipse cx="713.4096" cy="167.8819" fill="#F1F1F1" rx="62.4096" ry="14.8819" style="stroke:#181818;stroke-width:0.5;"/><text fill="#000000" font-family="sans-serif" font-size="14" lengthAdjust="spacing" textLength="71" x="674.9096" y="171.6295">Share Link</text></g><!--entity User--><g id="elem_User"><ellipse cx="22" cy="180.5" fill="#F1F1F1" rx="8" ry="8" style="stroke:#181818;stroke-width:0.5;"/><path d="M22,188.5 L22,215.5 M9,196.5 L35,196.5 M22,215.5 L9,230.5 M22,215.5 L35,230.5 " fill="none" style="stroke:#181818;stroke-width:0.5;"/><text fill="#000000" font-family="sans-serif" font-size="14" lengthAdjust="spacing" textLength="32" x="6" y="244.9951">User</text></g><!--entity Friend--><g id="elem_Friend"><ellipse cx="860.5" cy="138.5" fill="#F1F1F1" rx="8" ry="8" style="stroke:#181818;stroke-width:0.5;"/><path d="M860.5,146.5 L860.5,173.5 M847.5,154.5 L873.5,154.5 M860.5,173.5 L847.5,188.5 M860.5,173.5 L873.5,188.5 " fill="none" style="stroke:#181818;stroke-width:0.5;"/><text fill="#000000" font-family="sans-serif" font-size="14" lengthAdjust="spacing" textLength="43" x="839" y="202.9951">Friend</text></g><!--link User to Create Room--><g id="link_User_Create Room"><path d="M38.28,199.36 C48.92,192.14 63.56,182.56 77,175 C97.03,163.73 120.12,152.5 139,143.73 " fill="none" id="User-to-Create Room" style="stroke:#181818;stroke-width:1.0;"/><polygon fill="#181818" points="143.71,141.56,133.8619,141.68,139.166,143.6462,137.1998,148.9504,143.71,141.56" style="stroke:#181818;stroke-width:1.0;"/></g><!--link User to Generate Room--><g id="link_User_Generate Room"><path d="M38.28,210 C52.17,210 73.81,210 95.87,210 " fill="none" id="User-to-Generate Room" style="stroke:#181818;stroke-width:1.0;"/><polygon fill="#181818" points="100.88,210,91.88,206,95.88,210,91.88,214,100.88,210" style="stroke:#181818;stroke-width:1.0;"/></g><!--link User to Get Link--><g id="link_User_Get Link"><path d="M38.04,221.08 C48.58,228.51 63.19,238.14 77,245 C95.8,254.34 117.64,262.51 136.06,268.7 " fill="none" id="User-to-Get Link" style="stroke:#181818;stroke-width:1.0;"/><polygon fill="#181818" points="141.16,270.39,133.8748,263.7624,136.4137,268.8174,131.3587,271.3564,141.16,270.39" style="stroke:#181818;stroke-width:1.0;"/></g><!--link Get Link to Join Room--><g id="link_Get Link_Join Room"><path d="M229.65,281.68 C280.06,282.36 357.32,283.39 412.27,284.12 " fill="none" id="Get Link-to-Join Room" style="stroke:#181818;stroke-width:1.0;"/><polygon fill="#181818" points="417.51,284.19,408.5681,280.0618,412.5105,284.1186,408.4538,288.061,417.51,284.19" style="stroke:#181818;stroke-width:1.0;"/></g><!--link Create Room to Create Permanent Room--><g id="link_Create Room_Create Permanent Room"><path d="M247.21,127 C283.73,127 329.45,127 370.54,127 " fill="none" id="Create Room-to-Create Permanent Room" style="stroke:#181818;stroke-width:1.0;"/><polygon fill="#181818" points="375.79,127,366.79,123,370.79,127,366.79,131,375.79,127" style="stroke:#181818;stroke-width:1.0;"/><text fill="#000000" font-family="sans-serif" font-size="13" lengthAdjust="spacing" textLength="52" x="285" y="123.0669">includes</text></g><!--link Create Room to Create Temporary Room--><g id="link_Create Room_Create Temporary Room"><path d="M223.99,114.7 C272.83,101.49 351.06,80.33 407.81,64.98 " fill="none" id="Create Room-to-Create Temporary Room" style="stroke:#181818;stroke-width:1.0;"/><polygon fill="#181818" points="412.88,63.61,403.1496,62.0873,408.0519,64.9099,405.2294,69.8122,412.88,63.61" style="stroke:#181818;stroke-width:1.0;"/><text fill="#000000" font-family="sans-serif" font-size="13" lengthAdjust="spacing" textLength="52" x="285" y="81.0669">includes</text></g><!--link Generate Room to Generate Temporary Room--><g id="link_Generate Room_Generate Temporary Room"><path d="M254.08,210 C286.94,210 326.19,210 362.58,210 " fill="none" id="Generate Room-to-Generate Temporary Room" style="stroke:#181818;stroke-width:1.0;"/><polygon fill="#181818" points="367.93,210,358.93,206,362.93,210,358.93,214,367.93,210" style="stroke:#181818;stroke-width:1.0;"/><text fill="#000000" font-family="sans-serif" font-size="13" lengthAdjust="spacing" textLength="52" x="285" y="206.0669">includes</text></g><!--link Generate Temporary Room to Share Link--><g id="link_Generate Temporary Room_Share Link"><path d="M565.58,194.54 C596.42,188.97 630.36,182.84 657.84,177.87 " fill="none" id="Generate Temporary Room-to-Share Link" style="stroke:#181818;stroke-width:1.0;"/><polygon fill="#181818" points="662.9,176.96,653.3332,174.6198,657.9793,177.8469,654.7522,182.4929,662.9,176.96" style="stroke:#181818;stroke-width:1.0;"/></g><!--link Create Temporary Room to Share Link--><g id="link_Create Temporary Room_Share Link"><path d="M539.34,64.62 C556.07,70.66 574.05,77.91 590,86 C626.74,104.63 665.72,132.26 689.58,150.2 " fill="none" id="Create Temporary Room-to-Share Link" style="stroke:#181818;stroke-width:1.0;"/><polygon fill="#181818" points="693.86,153.43,689.0945,144.8109,689.872,150.414,684.2689,151.1916,693.86,153.43" style="stroke:#181818;stroke-width:1.0;"/></g><!--link Create Permanent Room to Share Link--><g id="link_Create Permanent Room_Share Link"><path d="M560.34,141.17 C592.48,146.83 628.67,153.22 657.7,158.34 " fill="none" id="Create Permanent Room-to-Share Link" style="stroke:#181818;stroke-width:1.0;"/><polygon fill="#181818" points="662.66,159.21,654.4939,153.7041,657.7364,158.3394,653.101,161.5819,662.66,159.21" style="stroke:#181818;stroke-width:1.0;"/></g><!--link Join Room to Share Link--><g id="link_Join Room_Share Link"><path d="M524.79,274.93 C545.23,269.49 569.41,261.85 590,252 C628.26,233.69 667.93,204.23 691.4,185.51 " fill="none" id="Join Room-to-Share Link" style="stroke:#181818;stroke-width:1.0;"/><polygon fill="#181818" points="695.3,182.37,685.7768,184.8815,691.3998,185.4987,690.7827,191.1218,695.3,182.37" style="stroke:#181818;stroke-width:1.0;"/></g><!--link Share Link to Friend--><g id="link_Share Link_Friend"><path d="M776.41,168 C796.47,168 817.63,168 833.58,168 " fill="none" id="Share Link-to-Friend" style="stroke:#181818;stroke-width:1.0;"/><polygon fill="#181818" points="838.77,168,829.77,164,833.77,168,829.77,172,838.77,168" style="stroke:#181818;stroke-width:1.0;"/></g><!--SRC=[VP8x3i8m38RtdCBg14ClmC22119YG3mE4AMcZMWTvAG3GjmTDQre4agtsD__-wNKU7FW3B0kAmU5PbHE6n92AcSOhXOPXlUMDL8XEeMaiaPu2O3Mef8M8TimIeTmCgR9mlpUQFhDxf2GGxrlbEThM0I5bX68F2boSD1qxx9ZqBFl01w6rQD-H-H64f8Rs0eqgRejqCxQBjWy34j-zYnsnHCdMoHE-6DDPRx8kPACuyRJiyn9qssdfEFXfd0KUy7mFzxY0m00]--></g></svg>