<?xml version="1.0" encoding="us-ascii" standalone="no"?><svg xmlns="http://www.w3.org/2000/svg" xmlns:xlink="http://www.w3.org/1999/xlink" contentStyleType="text/css" height="707px" preserveAspectRatio="none" style="width:1157px;height:707px;background:#FFFFFF;" version="1.1" viewBox="0 0 1157 707" width="1157px" zoomAndPan="magnify"><defs/><g><!--cluster Rust crates--><g id="cluster_Rust crates"><path d="M8.5,295 L99.5,295 A3.75,3.75 0 0 1 102,297.5 L109,317.2969 L760.5,317.2969 A2.5,2.5 0 0 1 763,319.7969 L763,697.5 A2.5,2.5 0 0 1 760.5,700 L8.5,700 A2.5,2.5 0 0 1 6,697.5 L6,297.5 A2.5,2.5 0 0 1 8.5,295 " fill="none" style="stroke:#000000;stroke-width:1.5;"/><line style="stroke:#000000;stroke-width:1.5;" x1="6" x2="109" y1="317.2969" y2="317.2969"/><text fill="#000000" font-family="sans-serif" font-size="14" font-weight="bold" lengthAdjust="spacing" textLength="90" x="10" y="309.9951">Rust crates</text></g><!--cluster Nodejs packages--><g id="cluster_Nodejs packages"><path d="M595.5,6 L730.5,6 A3.75,3.75 0 0 1 733,8.5 L740,28.2969 L1147.5,28.2969 A2.5,2.5 0 0 1 1150,30.7969 L1150,259.5 A2.5,2.5 0 0 1 1147.5,262 L595.5,262 A2.5,2.5 0 0 1 593,259.5 L593,8.5 A2.5,2.5 0 0 1 595.5,6 " fill="none" style="stroke:#000000;stroke-width:1.5;"/><line style="stroke:#000000;stroke-width:1.5;" x1="593" x2="740" y1="28.2969" y2="28.2969"/><text fill="#000000" font-family="sans-serif" font-size="14" font-weight="bold" lengthAdjust="spacing" textLength="134" x="597" y="20.9951">Nodejs packages</text></g><!--entity ott_common_rust--><g id="elem_ott_common_rust"><path d="M507.5,620 L641.5,620 A3.75,3.75 0 0 1 644,622.5 L651,642.2969 L744.5,642.2969 A2.5,2.5 0 0 1 747,644.7969 L747,673.0938 A2.5,2.5 0 0 1 744.5,675.5938 L507.5,675.5938 A2.5,2.5 0 0 1 505,673.0938 L505,622.5 A2.5,2.5 0 0 1 507.5,620 " fill="#F1F1F1" style="stroke:#181818;stroke-width:0.5;"/><line style="stroke:#181818;stroke-width:0.5;" x1="505" x2="651" y1="642.2969" y2="642.2969"/><text fill="#000000" font-family="sans-serif" font-size="14" lengthAdjust="spacing" textLength="121" x="515" y="635.9951">ott_common_rust</text><text fill="#000000" font-family="sans-serif" font-size="14" lengthAdjust="spacing" textLength="212" x="515" y="662.292">Contains common functionality</text></g><!--entity ott_balancer_bin--><g id="elem_ott_balancer_bin"><path d="M594,471 L720,471 A3.75,3.75 0 0 1 722.5,473.5 L729.5,493.2969 L744,493.2969 A2.5,2.5 0 0 1 746.5,495.7969 L746.5,524.0938 A2.5,2.5 0 0 1 744,526.5938 L594,526.5938 A2.5,2.5 0 0 1 591.5,524.0938 L591.5,473.5 A2.5,2.5 0 0 1 594,471 " fill="#F1F1F1" style="stroke:#181818;stroke-width:0.5;"/><line style="stroke:#181818;stroke-width:0.5;" x1="591.5" x2="729.5" y1="493.2969" y2="493.2969"/><text fill="#000000" font-family="sans-serif" font-size="14" lengthAdjust="spacing" textLength="113" x="601.5" y="486.9951">ott_balancer_bin</text><text fill="#000000" font-family="sans-serif" font-size="14" lengthAdjust="spacing" textLength="91" x="601.5" y="513.292">The Balancer</text></g><!--entity ott_balancer_protocol--><g id="elem_ott_balancer_protocol"><path d="M151.5,612 L313.5,612 A3.75,3.75 0 0 1 316,614.5 L323,634.2969 L394.5,634.2969 A2.5,2.5 0 0 1 397,636.7969 L397,681.3906 A2.5,2.5 0 0 1 394.5,683.8906 L151.5,683.8906 A2.5,2.5 0 0 1 149,681.3906 L149,614.5 A2.5,2.5 0 0 1 151.5,612 " fill="#F1F1F1" style="stroke:#181818;stroke-width:0.5;"/><line style="stroke:#181818;stroke-width:0.5;" x1="149" x2="323" y1="634.2969" y2="634.2969"/><text fill="#000000" font-family="sans-serif" font-size="14" lengthAdjust="spacing" textLength="149" x="159" y="627.9951">ott_balancer_protocol</text><text fill="#000000" font-family="sans-serif" font-size="14" lengthAdjust="spacing" textLength="218" x="159" y="654.292">Provides types shared between</text><text fill="#000000" font-family="sans-serif" font-size="14" lengthAdjust="spacing" textLength="180" x="159" y="670.5889">the Balancer and Monolith</text></g><!--entity harness--><g id="elem_harness"><path d="M152,463 L221,463 A3.75,3.75 0 0 1 223.5,465.5 L230.5,485.2969 L394,485.2969 A2.5,2.5 0 0 1 396.5,487.7969 L396.5,532.3906 A2.5,2.5 0 0 1 394,534.8906 L152,534.8906 A2.5,2.5 0 0 1 149.5,532.3906 L149.5,465.5 A2.5,2.5 0 0 1 152,463 " fill="#F1F1F1" style="stroke:#181818;stroke-width:0.5;"/><line style="stroke:#181818;stroke-width:0.5;" x1="149.5" x2="230.5" y1="485.2969" y2="485.2969"/><text fill="#000000" font-family="sans-serif" font-size="14" lengthAdjust="spacing" textLength="56" x="159.5" y="478.9951">harness</text><text fill="#000000" font-family="sans-serif" font-size="14" lengthAdjust="spacing" textLength="193" x="159.5" y="505.292">Provides abstraction around</text><text fill="#000000" font-family="sans-serif" font-size="14" lengthAdjust="spacing" textLength="217" x="159.5" y="521.5889">integration testing the Balancer</text></g><!--entity harness_tests--><g id="elem_harness_tests"><path d="M54.5,330 L165.5,330 A3.75,3.75 0 0 1 168,332.5 L175,352.2969 L311.5,352.2969 A2.5,2.5 0 0 1 314,354.7969 L314,383.0938 A2.5,2.5 0 0 1 311.5,385.5938 L54.5,385.5938 A2.5,2.5 0 0 1 52,383.0938 L52,332.5 A2.5,2.5 0 0 1 54.5,330 " fill="#F1F1F1" style="stroke:#181818;stroke-width:0.5;"/><line style="stroke:#181818;stroke-width:0.5;" x1="52" x2="175" y1="352.2969" y2="352.2969"/><text fill="#000000" font-family="sans-serif" font-size="14" lengthAdjust="spacing" textLength="98" x="62" y="345.9951">harness_tests</text><text fill="#000000" font-family="sans-serif" font-size="14" lengthAdjust="spacing" textLength="232" x="62" y="372.292">Tests the Balancer using harness</text></g><!--entity ott_common--><g id="elem_ott_common"><path d="M823,174 L923,174 A3.75,3.75 0 0 1 925.5,176.5 L932.5,196.2969 L1131,196.2969 A2.5,2.5 0 0 1 1133.5,198.7969 L1133.5,243.3906 A2.5,2.5 0 0 1 1131,245.8906 L823,245.8906 A2.5,2.5 0 0 1 820.5,243.3906 L820.5,176.5 A2.5,2.5 0 0 1 823,174 " fill="#F1F1F1" style="stroke:#181818;stroke-width:0.5;"/><line style="stroke:#181818;stroke-width:0.5;" x1="820.5" x2="932.5" y1="196.2969" y2="196.2969"/><text fill="#000000" font-family="sans-serif" font-size="14" lengthAdjust="spacing" textLength="87" x="830.5" y="189.9951">ott_common</text><text fill="#000000" font-family="sans-serif" font-size="14" lengthAdjust="spacing" textLength="221" x="830.5" y="216.292">Common types and functionality</text><text fill="#000000" font-family="sans-serif" font-size="14" lengthAdjust="spacing" textLength="283" x="830.5" y="232.5889">shared between ott_server and ott_client</text></g><!--entity ott_server--><g id="elem_ott_server"><path d="M611.5,182 L693.5,182 A3.75,3.75 0 0 1 696,184.5 L703,204.2969 L726.5,204.2969 A2.5,2.5 0 0 1 729,206.7969 L729,235.0938 A2.5,2.5 0 0 1 726.5,237.5938 L611.5,237.5938 A2.5,2.5 0 0 1 609,235.0938 L609,184.5 A2.5,2.5 0 0 1 611.5,182 " fill="#F1F1F1" style="stroke:#181818;stroke-width:0.5;"/><line style="stroke:#181818;stroke-width:0.5;" x1="609" x2="703" y1="204.2969" y2="204.2969"/><text fill="#000000" font-family="sans-serif" font-size="14" lengthAdjust="spacing" textLength="69" x="619" y="197.9951">ott_server</text><text fill="#000000" font-family="sans-serif" font-size="14" lengthAdjust="spacing" textLength="90" x="619" y="224.292">The Monolith</text></g><!--entity ott_client--><g id="elem_ott_client"><path d="M709,41 L785,41 A3.75,3.75 0 0 1 787.5,43.5 L794.5,63.2969 L835,63.2969 A2.5,2.5 0 0 1 837.5,65.7969 L837.5,94.0938 A2.5,2.5 0 0 1 835,96.5938 L709,96.5938 A2.5,2.5 0 0 1 706.5,94.0938 L706.5,43.5 A2.5,2.5 0 0 1 709,41 " fill="#F1F1F1" style="stroke:#181818;stroke-width:0.5;"/><line style="stroke:#181818;stroke-width:0.5;" x1="706.5" x2="794.5" y1="63.2969" y2="63.2969"/><text fill="#000000" font-family="sans-serif" font-size="14" lengthAdjust="spacing" textLength="63" x="716.5" y="56.9951">ott_client</text><text fill="#000000" font-family="sans-serif" font-size="14" lengthAdjust="spacing" textLength="101" x="716.5" y="83.292">The web client</text></g><!--link ott_balancer_bin to ott_common_rust--><g id="link_ott_balancer_bin_ott_common_rust"><path codeLine="38" d="M661.01,527.31 C653.77,552.06 643.09,588.57 635.43,614.75 " fill="none" id="ott_balancer_bin-to-ott_common_rust" style="stroke:#181818;stroke-width:1.0;"/><polygon fill="#181818" points="633.94,619.84,640.3,612.32,635.34,615.04,632.62,610.08,633.94,619.84" style="stroke:#181818;stroke-width:1.0;"/><text fill="#000000" font-family="sans-serif" font-size="13" lengthAdjust="spacing" textLength="55" x="649" y="578.0669">depends</text></g><!--link ott_balancer_bin to ott_balancer_protocol--><g id="link_ott_balancer_bin_ott_balancer_protocol"><path codeLine="39" d="M595.91,527.13 C533.05,550.47 441.82,584.33 372.34,610.12 " fill="none" id="ott_balancer_bin-to-ott_balancer_protocol" style="stroke:#181818;stroke-width:1.0;"/><polygon fill="#181818" points="367.38,611.96,377.2092,612.5813,372.0681,610.2216,374.4278,605.0804,367.38,611.96" style="stroke:#181818;stroke-width:1.0;"/><text fill="#000000" font-family="sans-serif" font-size="13" lengthAdjust="spacing" textLength="55" x="483" y="578.0669">depends</text></g><!--link harness to ott_balancer_protocol--><g id="link_harness_ott_balancer_protocol"><path codeLine="40" d="M273,535.21 C273,556.68 273,584.19 273,606.55 " fill="none" id="harness-to-ott_balancer_protocol" style="stroke:#181818;stroke-width:1.0;"/><polygon fill="#181818" points="273,611.82,277,602.82,273,606.82,269,602.82,273,611.82" style="stroke:#181818;stroke-width:1.0;"/><text fill="#000000" font-family="sans-serif" font-size="13" lengthAdjust="spacing" textLength="55" x="274" y="578.0669">depends</text></g><!--link harness_tests to harness--><g id="link_harness_tests_harness"><path codeLine="41" d="M200.57,386.13 C213.91,406.73 232.45,435.37 247.43,458.51 " fill="none" id="harness_tests-to-harness" style="stroke:#181818;stroke-width:1.0;"/><polygon fill="#181818" points="250.19,462.76,248.6645,453.03,247.4761,458.5606,241.9455,457.3722,250.19,462.76" style="stroke:#181818;stroke-width:1.0;"/><text fill="#000000" font-family="sans-serif" font-size="13" lengthAdjust="spacing" textLength="55" x="232" y="429.0669">depends</text></g><!--link harness_tests to ott_balancer_protocol--><g id="link_harness_tests_ott_balancer_protocol"><path codeLine="42" d="M141.27,386.1 C116.96,404.52 88.5,431.26 75,463 C62.48,492.45 58.88,507.36 75,535 C94.42,568.3 127.82,592.49 161.72,609.68 " fill="none" id="harness_tests-to-ott_balancer_protocol" style="stroke:#181818;stroke-width:1.0;"/><polygon fill="#181818" points="166.28,611.95,159.9996,604.3634,161.8022,609.7253,156.4402,611.5279,166.28,611.95" style="stroke:#181818;stroke-width:1.0;"/><text fill="#000000" font-family="sans-serif" font-size="13" lengthAdjust="spacing" textLength="55" x="76" y="503.5669">depends</text></g><!--link harness to ott_balancer_bin--><g id="link_harness_ott_balancer_bin"><path codeLine="43" d="M401.92,499 C462.49,499 532.93,499 586.26,499 " fill="none" id="harness-ott_balancer_bin" style="stroke:#181818;stroke-width:1.0;"/><polygon fill="#181818" points="396.67,499,405.67,503,401.67,499,405.67,495,396.67,499" style="stroke:#181818;stroke-width:1.0;"/><polygon fill="#181818" points="591.36,499,582.36,495,586.36,499,582.36,503,591.36,499" style="stroke:#181818;stroke-width:1.0;"/><text fill="#000000" font-family="sans-serif" font-size="13" lengthAdjust="spacing" textLength="158" x="415" y="492.0669">connects via websockets</text></g><!--link ott_server to ott_balancer_bin--><g id="link_ott_server_ott_balancer_bin"><path codeLine="44" d="M669,238 C669,290.99 669,408.41 669,465.53 " fill="none" id="ott_server-to-ott_balancer_bin" style="stroke:#181818;stroke-width:1.0;"/><polygon fill="#181818" points="669,470.86,673,461.86,669,465.86,665,461.86,669,470.86" style="stroke:#181818;stroke-width:1.0;"/><text fill="#000000" font-family="sans-serif" font-size="13" lengthAdjust="spacing" textLength="158" x="670" y="362.5669">connects via websockets</text></g><!--link ott_client to ott_server--><g id="link_ott_client_ott_server"><path codeLine="45" d="M751.9,97.13 C734.74,120.28 710.07,153.58 692.1,177.82 " fill="none" id="ott_client-to-ott_server" style="stroke:#181818;stroke-width:1.0;"/><polygon fill="#181818" points="689.05,181.94,697.6114,177.0714,692.0179,177.9162,691.1732,172.3227,689.05,181.94" style="stroke:#181818;stroke-width:1.0;"/><text fill="#000000" font-family="sans-serif" font-size="13" lengthAdjust="spacing" textLength="158" x="730" y="140.0669">connects via websockets</text></g><!--link ott_server to ott_common--><g id="link_ott_server_ott_common"><path codeLine="47" d="M729.12,210 C754.02,210 784.23,210 814.86,210 " fill="none" id="ott_server-to-ott_common" style="stroke:#181818;stroke-width:1.0;"/><polygon fill="#181818" points="820.18,210,811.18,206,815.18,210,811.18,214,820.18,210" style="stroke:#181818;stroke-width:1.0;"/><text fill="#000000" font-family="sans-serif" font-size="13" lengthAdjust="spacing" textLength="55" x="747.25" y="203.0669">depends</text></g><!--link ott_client to ott_common--><g id="link_ott_client_ott_common"><path codeLine="48" d="M837.75,94.52 C857.63,103.35 878.95,114.31 897,127 C914.25,139.13 930.93,155.27 944.56,170.03 " fill="none" id="ott_client-to-ott_common" style="stroke:#181818;stroke-width:1.0;"/><polygon fill="#181818" points="947.96,173.75,944.8369,164.4094,944.5853,170.0607,938.934,169.809,947.96,173.75" style="stroke:#181818;stroke-width:1.0;"/><text fill="#000000" font-family="sans-serif" font-size="13" lengthAdjust="spacing" textLength="55" x="917" y="140.0669">depends</text></g><!--SRC=[bLF1Ri8m3Btp5HRt_W2QE6pdJTF4RPggD36GKUmgSK5eshyl2UcW0IPsgThulMVxlNJ9hK47qxVU2sYd1FqKlYO0dT8RjK9WaLhpTijKkuXv3pM09oPHbZmSIx3iIOjbKgsLGq1y50gDQXLfT7LZAKiirWYF-VWlHkTOM7ERQQ-ETzQW1pbquUdNog611cMFI0aXPyAWoC0p4uUvraMNm2JqljHLZHUdqZQW7FTaKjsIu2hu4u-3IM9fDUfqNRoEqA758hsFnkjzrCdW9F4zcInp9YziyDCFaYcNgy7yPf8-Zhx4lSjGe70hINXqk-nJKcmjagH9YbuPU0flP6ivM98v0- -nWJFjiEN5jQYg-SLjcu713iduA_3vZNjouWm9L_TZSs2HCR1lOkuVuA74nWLcuUSXGXsaTbP5Xpph3SfnrsntLVsVciqVc5dfDcVKxpo3mlv2zmBp0m00]--></g></svg>