<?xml version="1.0" encoding="us-ascii" standalone="no"?><svg xmlns="http://www.w3.org/2000/svg" xmlns:xlink="http://www.w3.org/1999/xlink" contentStyleType="text/css" height="851px" preserveAspectRatio="none" style="width:1117px;height:851px;background:#FFFFFF;" version="1.1" viewBox="0 0 1117 851" width="1117px" zoomAndPan="magnify"><defs/><g><!--cluster Rust crates--><g id="cluster_Rust crates"><path d="M391.5,14 L482.5,14 A3.75,3.75 0 0 1 485,16.5 L492,36.2969 L1107.5,36.2969 A2.5,2.5 0 0 1 1110,38.7969 L1110,557.5 A2.5,2.5 0 0 1 1107.5,560 L391.5,560 A2.5,2.5 0 0 1 389,557.5 L389,16.5 A2.5,2.5 0 0 1 391.5,14 " fill="none" style="stroke:#000000;stroke-width:1.5;"/><line style="stroke:#000000;stroke-width:1.5;" x1="389" x2="492" y1="36.2969" y2="36.2969"/><text fill="#000000" font-family="sans-serif" font-size="14" font-weight="bold" lengthAdjust="spacing" textLength="90" x="393" y="28.9951">Rust crates</text></g><!--cluster Nodejs packages--><g id="cluster_Nodejs packages"><path d="M8.5,6 L143.5,6 A3.75,3.75 0 0 1 146,8.5 L153,28.2969 L362.5,28.2969 A2.5,2.5 0 0 1 365,30.7969 L365,841.5 A2.5,2.5 0 0 1 362.5,844 L8.5,844 A2.5,2.5 0 0 1 6,841.5 L6,8.5 A2.5,2.5 0 0 1 8.5,6 " fill="none" style="stroke:#000000;stroke-width:1.5;"/><line style="stroke:#000000;stroke-width:1.5;" x1="6" x2="153" y1="28.2969" y2="28.2969"/><text fill="#000000" font-family="sans-serif" font-size="14" font-weight="bold" lengthAdjust="spacing" textLength="134" x="10" y="20.9951">Nodejs packages</text></g><!--entity ott_common_rust--><g id="elem_ott_common_rust"><path d="M444.5,198 L578.5,198 A3.75,3.75 0 0 1 581,200.5 L588,220.2969 L681.5,220.2969 A2.5,2.5 0 0 1 684,222.7969 L684,251.0938 A2.5,2.5 0 0 1 681.5,253.5938 L444.5,253.5938 A2.5,2.5 0 0 1 442,251.0938 L442,200.5 A2.5,2.5 0 0 1 444.5,198 " fill="#F1F1F1" style="stroke:#181818;stroke-width:0.5;"/><line style="stroke:#181818;stroke-width:0.5;" x1="442" x2="588" y1="220.2969" y2="220.2969"/><text fill="#000000" font-family="sans-serif" font-size="14" lengthAdjust="spacing" textLength="121" x="452" y="213.9951">ott_common_rust</text><text fill="#000000" font-family="sans-serif" font-size="14" lengthAdjust="spacing" textLength="212" x="452" y="240.292">Contains common functionality</text></g><!--entity ott_balancer_protocol--><g id="elem_ott_balancer_protocol"><path d="M738.5,339 L900.5,339 A3.75,3.75 0 0 1 903,341.5 L910,361.2969 L981.5,361.2969 A2.5,2.5 0 0 1 984,363.7969 L984,408.3906 A2.5,2.5 0 0 1 981.5,410.8906 L738.5,410.8906 A2.5,2.5 0 0 1 736,408.3906 L736,341.5 A2.5,2.5 0 0 1 738.5,339 " fill="#F1F1F1" style="stroke:#181818;stroke-width:0.5;"/><line style="stroke:#181818;stroke-width:0.5;" x1="736" x2="910" y1="361.2969" y2="361.2969"/><text fill="#000000" font-family="sans-serif" font-size="14" lengthAdjust="spacing" textLength="149" x="746" y="354.9951">ott_balancer_protocol</text><text fill="#000000" font-family="sans-serif" font-size="14" lengthAdjust="spacing" textLength="218" x="746" y="381.292">Provides types shared between</text><text fill="#000000" font-family="sans-serif" font-size="14" lengthAdjust="spacing" textLength="180" x="746" y="397.5889">the Balancer and Monolith</text></g><!--entity harness--><g id="elem_harness"><path d="M722,190 L791,190 A3.75,3.75 0 0 1 793.5,192.5 L800.5,212.2969 L964,212.2969 A2.5,2.5 0 0 1 966.5,214.7969 L966.5,259.3906 A2.5,2.5 0 0 1 964,261.8906 L722,261.8906 A2.5,2.5 0 0 1 719.5,259.3906 L719.5,192.5 A2.5,2.5 0 0 1 722,190 " fill="#F1F1F1" style="stroke:#181818;stroke-width:0.5;"/><line style="stroke:#181818;stroke-width:0.5;" x1="719.5" x2="800.5" y1="212.2969" y2="212.2969"/><text fill="#000000" font-family="sans-serif" font-size="14" lengthAdjust="spacing" textLength="56" x="729.5" y="205.9951">harness</text><text fill="#000000" font-family="sans-serif" font-size="14" lengthAdjust="spacing" textLength="193" x="729.5" y="232.292">Provides abstraction around</text><text fill="#000000" font-family="sans-serif" font-size="14" lengthAdjust="spacing" textLength="217" x="729.5" y="248.5889">integration testing the Balancer</text></g><!--entity ott_balancer--><g id="elem_ott_balancer"><path d="M511,347 L609,347 A3.75,3.75 0 0 1 611.5,349.5 L618.5,369.2969 L633,369.2969 A2.5,2.5 0 0 1 635.5,371.7969 L635.5,400.0938 A2.5,2.5 0 0 1 633,402.5938 L511,402.5938 A2.5,2.5 0 0 1 508.5,400.0938 L508.5,349.5 A2.5,2.5 0 0 1 511,347 " fill="#F1F1F1" style="stroke:#181818;stroke-width:0.5;"/><line style="stroke:#181818;stroke-width:0.5;" x1="508.5" x2="618.5" y1="369.2969" y2="369.2969"/><text fill="#000000" font-family="sans-serif" font-size="14" lengthAdjust="spacing" textLength="85" x="518.5" y="362.9951">ott_balancer</text><text fill="#000000" font-family="sans-serif" font-size="14" lengthAdjust="spacing" textLength="91" x="518.5" y="389.292">The Balancer</text></g><!--entity ott_balancer_bin--><g id="elem_ott_balancer_bin"><path d="M423,488 L549,488 A3.75,3.75 0 0 1 551.5,490.5 L558.5,510.2969 L671,510.2969 A2.5,2.5 0 0 1 673.5,512.7969 L673.5,541.0938 A2.5,2.5 0 0 1 671,543.5938 L423,543.5938 A2.5,2.5 0 0 1 420.5,541.0938 L420.5,490.5 A2.5,2.5 0 0 1 423,488 " fill="#F1F1F1" style="stroke:#181818;stroke-width:0.5;"/><line style="stroke:#181818;stroke-width:0.5;" x1="420.5" x2="558.5" y1="510.2969" y2="510.2969"/><text fill="#000000" font-family="sans-serif" font-size="14" lengthAdjust="spacing" textLength="113" x="430.5" y="503.9951">ott_balancer_bin</text><text fill="#000000" font-family="sans-serif" font-size="14" lengthAdjust="spacing" textLength="223" x="430.5" y="530.292">The Balancer (builds as a binary)</text></g><!--entity harness_tests--><g id="elem_harness_tests"><path d="M786.5,49 L897.5,49 A3.75,3.75 0 0 1 900,51.5 L907,71.2969 L1043.5,71.2969 A2.5,2.5 0 0 1 1046,73.7969 L1046,102.0938 A2.5,2.5 0 0 1 1043.5,104.5938 L786.5,104.5938 A2.5,2.5 0 0 1 784,102.0938 L784,51.5 A2.5,2.5 0 0 1 786.5,49 " fill="#F1F1F1" style="stroke:#181818;stroke-width:0.5;"/><line style="stroke:#181818;stroke-width:0.5;" x1="784" x2="907" y1="71.2969" y2="71.2969"/><text fill="#000000" font-family="sans-serif" font-size="14" lengthAdjust="spacing" textLength="98" x="794" y="64.9951">harness_tests</text><text fill="#000000" font-family="sans-serif" font-size="14" lengthAdjust="spacing" textLength="232" x="794" y="91.292">Tests the Balancer using harness</text></g><!--entity ott_collector--><g id="elem_ott_collector"><path d="M412,49 L510,49 A3.75,3.75 0 0 1 512.5,51.5 L519.5,71.2969 L694,71.2969 A2.5,2.5 0 0 1 696.5,73.7969 L696.5,102.0938 A2.5,2.5 0 0 1 694,104.5938 L412,104.5938 A2.5,2.5 0 0 1 409.5,102.0938 L409.5,51.5 A2.5,2.5 0 0 1 412,49 " fill="#F1F1F1" style="stroke:#181818;stroke-width:0.5;"/><line style="stroke:#181818;stroke-width:0.5;" x1="409.5" x2="519.5" y1="71.2969" y2="71.2969"/><text fill="#000000" font-family="sans-serif" font-size="14" lengthAdjust="spacing" textLength="85" x="419.5" y="64.9951">ott_collector</text><text fill="#000000" font-family="sans-serif" font-size="14" lengthAdjust="spacing" textLength="257" x="419.5" y="91.292">Collects system state for visualization</text></g><!--entity ott_common--><g id="elem_ott_common"><path d="M31,756 L131,756 A3.75,3.75 0 0 1 133.5,758.5 L140.5,778.2969 L339,778.2969 A2.5,2.5 0 0 1 341.5,780.7969 L341.5,825.3906 A2.5,2.5 0 0 1 339,827.8906 L31,827.8906 A2.5,2.5 0 0 1 28.5,825.3906 L28.5,758.5 A2.5,2.5 0 0 1 31,756 " fill="#F1F1F1" style="stroke:#181818;stroke-width:0.5;"/><line style="stroke:#181818;stroke-width:0.5;" x1="28.5" x2="140.5" y1="778.2969" y2="778.2969"/><text fill="#000000" font-family="sans-serif" font-size="14" lengthAdjust="spacing" textLength="87" x="38.5" y="771.9951">ott_common</text><text fill="#000000" font-family="sans-serif" font-size="14" lengthAdjust="spacing" textLength="221" x="38.5" y="798.292">Common types and functionality</text><text fill="#000000" font-family="sans-serif" font-size="14" lengthAdjust="spacing" textLength="283" x="38.5" y="814.5889">shared between ott_server and ott_client</text></g><!--entity ott_server--><g id="elem_ott_server"><path d="M223.5,623 L305.5,623 A3.75,3.75 0 0 1 308,625.5 L315,645.2969 L338.5,645.2969 A2.5,2.5 0 0 1 341,647.7969 L341,676.0938 A2.5,2.5 0 0 1 338.5,678.5938 L223.5,678.5938 A2.5,2.5 0 0 1 221,676.0938 L221,625.5 A2.5,2.5 0 0 1 223.5,623 " fill="#F1F1F1" style="stroke:#181818;stroke-width:0.5;"/><line style="stroke:#181818;stroke-width:0.5;" x1="221" x2="315" y1="645.2969" y2="645.2969"/><text fill="#000000" font-family="sans-serif" font-size="14" lengthAdjust="spacing" textLength="69" x="231" y="638.9951">ott_server</text><text fill="#000000" font-family="sans-serif" font-size="14" lengthAdjust="spacing" textLength="90" x="231" y="665.292">The Monolith</text></g><!--entity ott_client--><g id="elem_ott_client"><path d="M99,488 L175,488 A3.75,3.75 0 0 1 177.5,490.5 L184.5,510.2969 L225,510.2969 A2.5,2.5 0 0 1 227.5,512.7969 L227.5,541.0938 A2.5,2.5 0 0 1 225,543.5938 L99,543.5938 A2.5,2.5 0 0 1 96.5,541.0938 L96.5,490.5 A2.5,2.5 0 0 1 99,488 " fill="#F1F1F1" style="stroke:#181818;stroke-width:0.5;"/><line style="stroke:#181818;stroke-width:0.5;" x1="96.5" x2="184.5" y1="510.2969" y2="510.2969"/><text fill="#000000" font-family="sans-serif" font-size="14" lengthAdjust="spacing" textLength="63" x="106.5" y="503.9951">ott_client</text><text fill="#000000" font-family="sans-serif" font-size="14" lengthAdjust="spacing" textLength="101" x="106.5" y="530.292">The web client</text></g><!--entity ott_vis--><g id="elem_ott_vis"><path d="M40,339 L97,339 A3.75,3.75 0 0 1 99.5,341.5 L106.5,361.2969 L284,361.2969 A2.5,2.5 0 0 1 286.5,363.7969 L286.5,408.3906 A2.5,2.5 0 0 1 284,410.8906 L40,410.8906 A2.5,2.5 0 0 1 37.5,408.3906 L37.5,341.5 A2.5,2.5 0 0 1 40,339 " fill="#F1F1F1" style="stroke:#181818;stroke-width:0.5;"/><line style="stroke:#181818;stroke-width:0.5;" x1="37.5" x2="106.5" y1="361.2969" y2="361.2969"/><text fill="#000000" font-family="sans-serif" font-size="14" lengthAdjust="spacing" textLength="44" x="47.5" y="354.9951">ott_vis</text><text fill="#000000" font-family="sans-serif" font-size="14" lengthAdjust="spacing" textLength="219" x="47.5" y="381.292">Common code shared between</text><text fill="#000000" font-family="sans-serif" font-size="14" lengthAdjust="spacing" textLength="192" x="47.5" y="397.5889">visualization grafana plugins</text></g><!--entity ott_vis_panel--><g id="elem_ott_vis_panel"><path d="M152,190 L254,190 A3.75,3.75 0 0 1 256.5,192.5 L263.5,212.2969 L346,212.2969 A2.5,2.5 0 0 1 348.5,214.7969 L348.5,259.3906 A2.5,2.5 0 0 1 346,261.8906 L152,261.8906 A2.5,2.5 0 0 1 149.5,259.3906 L149.5,192.5 A2.5,2.5 0 0 1 152,190 " fill="#F1F1F1" style="stroke:#181818;stroke-width:0.5;"/><line style="stroke:#181818;stroke-width:0.5;" x1="149.5" x2="263.5" y1="212.2969" y2="212.2969"/><text fill="#000000" font-family="sans-serif" font-size="14" lengthAdjust="spacing" textLength="89" x="159.5" y="205.9951">ott_vis_panel</text><text fill="#000000" font-family="sans-serif" font-size="14" lengthAdjust="spacing" textLength="141" x="159.5" y="232.292">Grafana Panel plugin</text><text fill="#000000" font-family="sans-serif" font-size="14" lengthAdjust="spacing" textLength="169" x="159.5" y="248.5889">for custom visualizations</text></g><!--entity ott_vis_datasource--><g id="elem_ott_vis_datasource"><path d="M74,41 L216,41 A3.75,3.75 0 0 1 218.5,43.5 L225.5,63.2969 L282,63.2969 A2.5,2.5 0 0 1 284.5,65.7969 L284.5,110.3906 A2.5,2.5 0 0 1 282,112.8906 L74,112.8906 A2.5,2.5 0 0 1 71.5,110.3906 L71.5,43.5 A2.5,2.5 0 0 1 74,41 " fill="#F1F1F1" style="stroke:#181818;stroke-width:0.5;"/><line style="stroke:#181818;stroke-width:0.5;" x1="71.5" x2="225.5" y1="63.2969" y2="63.2969"/><text fill="#000000" font-family="sans-serif" font-size="14" lengthAdjust="spacing" textLength="129" x="81.5" y="56.9951">ott_vis_datasource</text><text fill="#000000" font-family="sans-serif" font-size="14" lengthAdjust="spacing" textLength="183" x="81.5" y="83.292">Grafana Datasource plugin</text><text fill="#000000" font-family="sans-serif" font-size="14" lengthAdjust="spacing" textLength="175" x="81.5" y="99.5889">for querying system state</text></g><!--reverse link ott_common_rust to ott_balancer--><g id="link_ott_common_rust_ott_balancer"><path codeLine="59" d="M559.94,259.02 C558.97,274.2 558.5,292.56 560,309 C561.15,321.57 563.53,335.34 565.87,346.96 " fill="none" id="ott_common_rust-backto-ott_balancer" style="stroke:#181818;stroke-width:1.0;"/><polygon fill="#181818" points="560.28,254.01,555.672,262.7144,559.937,258.9982,563.6531,263.2632,560.28,254.01" style="stroke:#181818;stroke-width:1.0;"/><text fill="#000000" font-family="sans-serif" font-size="13" lengthAdjust="spacing" textLength="55" x="561" y="305.0669">depends</text></g><!--link ott_balancer to ott_balancer_protocol--><g id="link_ott_balancer_ott_balancer_protocol"><path codeLine="60" d="M635.56,375 C663.55,375 697.51,375 730.45,375 " fill="none" id="ott_balancer-to-ott_balancer_protocol" style="stroke:#181818;stroke-width:1.0;"/><polygon fill="#181818" points="735.72,375,726.72,371,730.72,375,726.72,379,735.72,375" style="stroke:#181818;stroke-width:1.0;"/><text fill="#000000" font-family="sans-serif" font-size="13" lengthAdjust="spacing" textLength="55" x="658.25" y="368.0669">depends</text></g><!--link harness to ott_balancer_protocol--><g id="link_harness_ott_balancer_protocol"><path codeLine="61" d="M847.07,262.21 C849.57,283.77 852.76,311.42 855.35,333.83 " fill="none" id="harness-to-ott_balancer_protocol" style="stroke:#181818;stroke-width:1.0;"/><polygon fill="#181818" points="855.93,338.82,858.8495,329.4138,855.345,333.8543,850.9044,330.3498,855.93,338.82" style="stroke:#181818;stroke-width:1.0;"/><text fill="#000000" font-family="sans-serif" font-size="13" lengthAdjust="spacing" textLength="55" x="853" y="305.0669">depends</text></g><!--link harness_tests to harness--><g id="link_harness_tests_harness"><path codeLine="62" d="M901.63,105.31 C890.64,127.74 874.92,159.83 862.53,185.13 " fill="none" id="harness_tests-to-harness" style="stroke:#181818;stroke-width:1.0;"/><polygon fill="#181818" points="860.25,189.78,867.8044,183.4609,862.4517,185.2908,860.6217,179.9382,860.25,189.78" style="stroke:#181818;stroke-width:1.0;"/><text fill="#000000" font-family="sans-serif" font-size="13" lengthAdjust="spacing" textLength="55" x="882" y="156.0669">depends</text></g><!--link harness_tests to ott_balancer_protocol--><g id="link_harness_tests_ott_balancer_protocol"><path codeLine="63" d="M938.63,105.22 C967.1,141.49 1008.24,207.44 984,262 C970.81,291.7 945.42,316.85 921.03,335.75 " fill="none" id="harness_tests-to-ott_balancer_protocol" style="stroke:#181818;stroke-width:1.0;"/><polygon fill="#181818" points="916.81,338.97,926.396,336.7098,920.7911,335.9449,921.5559,330.34,916.81,338.97" style="stroke:#181818;stroke-width:1.0;"/><text fill="#000000" font-family="sans-serif" font-size="13" lengthAdjust="spacing" textLength="55" x="992" y="230.5669">depends</text></g><!--link harness to ott_balancer--><g id="link_harness_ott_balancer"><path codeLine="64" d="M739.53,264.18 C720,272.47 700.05,281.85 682,292 C655.72,306.77 628.54,326.98 607.77,343.64 " fill="none" id="harness-ott_balancer" style="stroke:#181818;stroke-width:1.0;stroke-dasharray:7.0,7.0;"/><polygon fill="#181818" points="744.49,262.09,734.6431,261.896,739.8818,264.0303,737.7475,269.2691,744.49,262.09" style="stroke:#181818;stroke-width:1.0;"/><polygon fill="#181818" points="603.71,346.92,613.2231,344.3702,607.5976,343.7757,608.1921,338.1501,603.71,346.92" style="stroke:#181818;stroke-width:1.0;"/><text fill="#000000" font-family="sans-serif" font-size="13" lengthAdjust="spacing" textLength="158" x="683" y="305.0669">connects via websockets</text></g><!--link ott_server to ott_balancer_bin--><g id="link_ott_server_ott_balancer_bin"><path codeLine="65" d="M335.73,622.96 C354.81,613.51 376.36,602.81 396,593 C426.53,577.75 460.48,560.68 488.44,546.58 " fill="none" id="ott_server-to-ott_balancer_bin" style="stroke:#181818;stroke-width:1.0;stroke-dasharray:7.0,7.0;"/><polygon fill="#181818" points="493.23,544.16,483.3919,544.6198,488.7607,546.4018,486.9787,551.7706,493.23,544.16" style="stroke:#181818;stroke-width:1.0;"/><text fill="#000000" font-family="sans-serif" font-size="13" lengthAdjust="spacing" textLength="158" x="430" y="589.0669">connects via websockets</text></g><!--link ott_client to ott_server--><g id="link_ott_client_ott_server"><path codeLine="66" d="M186.37,544.24 C205.78,565.93 232.97,596.32 253.22,618.95 " fill="none" id="ott_client-to-ott_server" style="stroke:#181818;stroke-width:1.0;stroke-dasharray:7.0,7.0;"/><polygon fill="#181818" points="256.66,622.8,253.6324,613.428,253.3231,619.0764,247.6747,618.7671,256.66,622.8" style="stroke:#181818;stroke-width:1.0;"/><text fill="#000000" font-family="sans-serif" font-size="13" lengthAdjust="spacing" textLength="158" x="229" y="589.0669">connects via websockets</text></g><!--reverse link ott_balancer to ott_balancer_bin--><g id="link_ott_balancer_ott_balancer_bin"><path codeLine="67" d="M566.22,408.15 C561.87,432.33 555.98,465.09 551.87,487.94 " fill="none" id="ott_balancer-backto-ott_balancer_bin" style="stroke:#181818;stroke-width:1.0;"/><polygon fill="#181818" points="567.12,403.13,561.5912,411.2806,566.2356,408.0512,569.465,412.6956,567.12,403.13" style="stroke:#181818;stroke-width:1.0;"/><text fill="#000000" font-family="sans-serif" font-size="13" lengthAdjust="spacing" textLength="55" x="561" y="454.0669">depends</text></g><!--link ott_server to ott_common--><g id="link_ott_server_ott_common"><path codeLine="69" d="M262.26,679.13 C248.03,699.73 228.26,728.37 212.27,751.51 " fill="none" id="ott_server-to-ott_common" style="stroke:#181818;stroke-width:1.0;"/><polygon fill="#181818" points="209.34,755.76,217.7349,750.6097,212.1726,751.6398,211.1426,746.0775,209.34,755.76" style="stroke:#181818;stroke-width:1.0;"/><text fill="#000000" font-family="sans-serif" font-size="13" lengthAdjust="spacing" textLength="55" x="242" y="722.0669">depends</text></g><!--reverse link ott_common to ott_client--><g id="link_ott_common_ott_client"><path codeLine="70" d="M167.98,751.27 C159.87,730.22 151.07,703.67 147,679 C139.23,631.9 148.25,576.39 155.29,544.09 " fill="none" id="ott_common-backto-ott_client" style="stroke:#181818;stroke-width:1.0;"/><polygon fill="#181818" points="169.8,755.95,170.2602,746.1119,167.985,751.2911,162.8059,749.0159,169.8,755.95" style="stroke:#181818;stroke-width:1.0;"/><text fill="#000000" font-family="sans-serif" font-size="13" lengthAdjust="spacing" textLength="55" x="148" y="655.5669">depends</text></g><!--link ott_vis_panel to ott_vis--><g id="link_ott_vis_panel_ott_vis"><path codeLine="72" d="M228.16,262.21 C215.3,283.95 198.76,311.89 185.44,334.4 " fill="none" id="ott_vis_panel-to-ott_vis" style="stroke:#181818;stroke-width:1.0;"/><polygon fill="#181818" points="182.82,338.82,190.8442,333.1093,185.3651,334.5162,183.9581,329.0371,182.82,338.82" style="stroke:#181818;stroke-width:1.0;"/><text fill="#000000" font-family="sans-serif" font-size="13" lengthAdjust="spacing" textLength="55" x="209" y="305.0669">depends</text></g><!--link ott_vis_datasource to ott_vis--><g id="link_ott_vis_datasource_ott_vis"><path codeLine="73" d="M132.77,113.01 C110.85,132.91 86.76,159.85 75,190 C63.38,219.81 64.62,231.73 75,262 C84.36,289.29 103.38,315.07 121.25,335 " fill="none" id="ott_vis_datasource-to-ott_vis" style="stroke:#181818;stroke-width:1.0;"/><polygon fill="#181818" points="124.81,338.9,121.7247,329.5469,121.4502,335.1971,115.8,334.9226,124.81,338.9" style="stroke:#181818;stroke-width:1.0;"/><text fill="#000000" font-family="sans-serif" font-size="13" lengthAdjust="spacing" textLength="55" x="76" y="230.5669">depends</text></g><!--reverse link ott_vis_datasource to ott_vis_panel--><g id="link_ott_vis_datasource_ott_vis_panel"><path codeLine="74" d="M197.28,117.92 C208.13,140.38 221.56,168.18 232.01,189.82 " fill="none" id="ott_vis_datasource-backto-ott_vis_panel" style="stroke:#181818;stroke-width:1.0;stroke-dasharray:7.0,7.0;"/><polygon fill="#181818" points="195.01,113.21,195.3188,123.054,197.1829,117.7131,202.5238,119.5773,195.01,113.21" style="stroke:#181818;stroke-width:1.0;"/><text fill="#000000" font-family="sans-serif" font-size="13" lengthAdjust="spacing" textLength="47" x="216" y="156.0669">queries</text></g><!--link ott_vis_datasource to ott_collector--><g id="link_ott_vis_datasource_ott_collector"><path codeLine="75" d="M284.71,77 C321.8,77 364.1,77 403.98,77 " fill="none" id="ott_vis_datasource-to-ott_collector" style="stroke:#181818;stroke-width:1.0;stroke-dasharray:7.0,7.0;"/><polygon fill="#181818" points="409.34,77,400.34,73,404.34,77,400.34,81,409.34,77" style="stroke:#181818;stroke-width:1.0;"/><text fill="#000000" font-family="sans-serif" font-size="13" lengthAdjust="spacing" textLength="47" x="323.5" y="70.0669">queries</text></g><!--link ott_collector to ott_balancer_bin--><g id="link_ott_collector_ott_balancer_bin"><path codeLine="76" d="M505.28,105.08 C476.17,124.54 441.47,153.7 425,190 C377.21,295.32 469.62,425.36 518.89,483.88 " fill="none" id="ott_collector-to-ott_balancer_bin" style="stroke:#181818;stroke-width:1.0;stroke-dasharray:7.0,7.0;"/><polygon fill="#181818" points="522.36,487.97,519.5779,478.5223,519.1213,484.1607,513.4829,483.7041,522.36,487.97" style="stroke:#181818;stroke-width:1.0;"/><text fill="#000000" font-family="sans-serif" font-size="13" lengthAdjust="spacing" textLength="47" x="420" y="305.0669">queries</text></g><!--link ott_collector to ott_common_rust--><g id="link_ott_collector_ott_common_rust"><path codeLine="77" d="M554.86,105.31 C556.54,130.06 559.02,166.57 560.81,192.75 " fill="none" id="ott_collector-to-ott_common_rust" style="stroke:#181818;stroke-width:1.0;"/><polygon fill="#181818" points="561.15,197.84,564.5231,188.5868,560.807,192.8518,556.542,189.1356,561.15,197.84" style="stroke:#181818;stroke-width:1.0;"/><text fill="#000000" font-family="sans-serif" font-size="13" lengthAdjust="spacing" textLength="55" x="559" y="156.0669">depends</text></g><!--link ott_vis to ott_client--><!--SRC=[ZLJBRjim4BpxAnQvj3r87n04FhG5UceH5BaPXa2HQvknl5JuSE0M_VUI56MPZ6mOC0HBd9rzp2mtgXEeuU6tCnQuPXRD0_nT0FICxzaMGLdRS7KuA6fqmApy6S0tHPP9CZ0SmSOHjr8HwwGzUSIwO6XPnuYZRdgjhEAgIppFMXsbG0FsrFkdsJ6D0bgqxuWK4NQ7y3L50oC1FnKfdsLNPF6HXCQKlAmrLhDO6p2j78buBidYrdSRFlkMhQHjbkb62od3otteffKq4m6VMoSxuUlpF_0OfazVvZjgGdrZNo_nVpOJPqBn2JnJYHzsXzmgVPOklljXdup50nZhHOUDFpzAuxo0V-9O8jE_nMAJ3F9B2Nmr8tCqoQnBpbdYoo1haArq21HYHmg3-fXaZeoTHBAnaY9N0aw3pLnH5XPfBi3lsC9rRZ-6l0dkMv-pPZOly7RQC6BGTsxhD-CASzCpmj7zFrB8S_ms1CQ3e0RtswOEUPAhh89PPfJJ70lgxzD1mV_cK9-2TIvzCAgU6RwgtFB3FV080diaOGgiNbvP-2bWNDMgkXkRbY14ZD5NCVSNy5JNETXZk2AAwt6KB1Z5ABv7EtIPN5VNArAQqNwz_BZhjncI5SUyYV1sJ4P_rkAYvB6jonh7sQQbpDLALHIwbaoJMqUoi1avK-6zgXAta0DRNRlbd74VeoKbpZANCvzkjJni-bvgczIP1-VZAXs- -0IzCZ9iu73NylsvIAXMEoa4qbfKbvVMuZy0]--></g></svg>