<?xml version="1.0" encoding="us-ascii" standalone="no"?><svg xmlns="http://www.w3.org/2000/svg" xmlns:xlink="http://www.w3.org/1999/xlink" contentStyleType="text/css" height="904px" preserveAspectRatio="none" style="width:1945px;height:904px;background:#FFFFFF;" version="1.1" viewBox="0 0 1945 904" width="1945px" zoomAndPan="magnify"><defs/><g><!--cluster Rust crates--><g id="cluster_Rust crates"><path d="M8.5,325 L99.5,325 A3.75,3.75 0 0 1 102,327.5 L109,347.2969 L760.5,347.2969 A2.5,2.5 0 0 1 763,349.7969 L763,894.5 A2.5,2.5 0 0 1 760.5,897 L8.5,897 A2.5,2.5 0 0 1 6,894.5 L6,327.5 A2.5,2.5 0 0 1 8.5,325 " fill="none" style="stroke:#000000;stroke-width:1.5;"/><line style="stroke:#000000;stroke-width:1.5;" x1="6" x2="109" y1="347.2969" y2="347.2969"/><text fill="#000000" font-family="sans-serif" font-size="14" font-weight="bold" lengthAdjust="spacing" textLength="90" x="10" y="339.9951">Rust crates</text></g><!--cluster Nodejs packages--><g id="cluster_Nodejs packages"><path d="M805.5,6 L940.5,6 A3.75,3.75 0 0 1 943,8.5 L950,28.2969 L1935.5,28.2969 A2.5,2.5 0 0 1 1938,30.7969 L1938,445.5 A2.5,2.5 0 0 1 1935.5,448 L805.5,448 A2.5,2.5 0 0 1 803,445.5 L803,8.5 A2.5,2.5 0 0 1 805.5,6 " fill="none" style="stroke:#000000;stroke-width:1.5;"/><line style="stroke:#000000;stroke-width:1.5;" x1="803" x2="950" y1="28.2969" y2="28.2969"/><text fill="#000000" font-family="sans-serif" font-size="14" font-weight="bold" lengthAdjust="spacing" textLength="134" x="807" y="20.9951">Nodejs packages</text></g><!--entity ott_common_rust--><g id="elem_ott_common_rust"><path d="M372.5,817 L506.5,817 A3.75,3.75 0 0 1 509,819.5 L516,839.2969 L609.5,839.2969 A2.5,2.5 0 0 1 612,841.7969 L612,870.0938 A2.5,2.5 0 0 1 609.5,872.5938 L372.5,872.5938 A2.5,2.5 0 0 1 370,870.0938 L370,819.5 A2.5,2.5 0 0 1 372.5,817 " fill="#F1F1F1" style="stroke:#181818;stroke-width:0.5;"/><line style="stroke:#181818;stroke-width:0.5;" x1="370" x2="516" y1="839.2969" y2="839.2969"/><text fill="#000000" font-family="sans-serif" font-size="14" lengthAdjust="spacing" textLength="121" x="380" y="832.9951">ott_common_rust</text><text fill="#000000" font-family="sans-serif" font-size="14" lengthAdjust="spacing" textLength="212" x="380" y="859.292">Contains common functionality</text></g><!--entity ott_balancer_protocol--><g id="elem_ott_balancer_protocol"><path d="M40.5,668 L202.5,668 A3.75,3.75 0 0 1 205,670.5 L212,690.2969 L283.5,690.2969 A2.5,2.5 0 0 1 286,692.7969 L286,737.3906 A2.5,2.5 0 0 1 283.5,739.8906 L40.5,739.8906 A2.5,2.5 0 0 1 38,737.3906 L38,670.5 A2.5,2.5 0 0 1 40.5,668 " fill="#F1F1F1" style="stroke:#181818;stroke-width:0.5;"/><line style="stroke:#181818;stroke-width:0.5;" x1="38" x2="212" y1="690.2969" y2="690.2969"/><text fill="#000000" font-family="sans-serif" font-size="14" lengthAdjust="spacing" textLength="149" x="48" y="683.9951">ott_balancer_protocol</text><text fill="#000000" font-family="sans-serif" font-size="14" lengthAdjust="spacing" textLength="218" x="48" y="710.292">Provides types shared between</text><text fill="#000000" font-family="sans-serif" font-size="14" lengthAdjust="spacing" textLength="180" x="48" y="726.5889">the Balancer and Monolith</text></g><!--entity harness--><g id="elem_harness"><path d="M168,519 L237,519 A3.75,3.75 0 0 1 239.5,521.5 L246.5,541.2969 L410,541.2969 A2.5,2.5 0 0 1 412.5,543.7969 L412.5,588.3906 A2.5,2.5 0 0 1 410,590.8906 L168,590.8906 A2.5,2.5 0 0 1 165.5,588.3906 L165.5,521.5 A2.5,2.5 0 0 1 168,519 " fill="#F1F1F1" style="stroke:#181818;stroke-width:0.5;"/><line style="stroke:#181818;stroke-width:0.5;" x1="165.5" x2="246.5" y1="541.2969" y2="541.2969"/><text fill="#000000" font-family="sans-serif" font-size="14" lengthAdjust="spacing" textLength="56" x="175.5" y="534.9951">harness</text><text fill="#000000" font-family="sans-serif" font-size="14" lengthAdjust="spacing" textLength="193" x="175.5" y="561.292">Provides abstraction around</text><text fill="#000000" font-family="sans-serif" font-size="14" lengthAdjust="spacing" textLength="217" x="175.5" y="577.5889">integration testing the Balancer</text></g><!--entity ott_balancer--><g id="elem_ott_balancer"><path d="M380,676 L478,676 A3.75,3.75 0 0 1 480.5,678.5 L487.5,698.2969 L502,698.2969 A2.5,2.5 0 0 1 504.5,700.7969 L504.5,729.0938 A2.5,2.5 0 0 1 502,731.5938 L380,731.5938 A2.5,2.5 0 0 1 377.5,729.0938 L377.5,678.5 A2.5,2.5 0 0 1 380,676 " fill="#F1F1F1" style="stroke:#181818;stroke-width:0.5;"/><line style="stroke:#181818;stroke-width:0.5;" x1="377.5" x2="487.5" y1="698.2969" y2="698.2969"/><text fill="#000000" font-family="sans-serif" font-size="14" lengthAdjust="spacing" textLength="85" x="387.5" y="691.9951">ott_balancer</text><text fill="#000000" font-family="sans-serif" font-size="14" lengthAdjust="spacing" textLength="91" x="387.5" y="718.292">The Balancer</text></g><!--entity ott_balancer_bin--><g id="elem_ott_balancer_bin"><path d="M488,527 L614,527 A3.75,3.75 0 0 1 616.5,529.5 L623.5,549.2969 L736,549.2969 A2.5,2.5 0 0 1 738.5,551.7969 L738.5,580.0938 A2.5,2.5 0 0 1 736,582.5938 L488,582.5938 A2.5,2.5 0 0 1 485.5,580.0938 L485.5,529.5 A2.5,2.5 0 0 1 488,527 " fill="#F1F1F1" style="stroke:#181818;stroke-width:0.5;"/><line style="stroke:#181818;stroke-width:0.5;" x1="485.5" x2="623.5" y1="549.2969" y2="549.2969"/><text fill="#000000" font-family="sans-serif" font-size="14" lengthAdjust="spacing" textLength="113" x="495.5" y="542.9951">ott_balancer_bin</text><text fill="#000000" font-family="sans-serif" font-size="14" lengthAdjust="spacing" textLength="223" x="495.5" y="569.292">The Balancer (builds as a binary)</text></g><!--entity harness_tests--><g id="elem_harness_tests"><path d="M104.5,368 L215.5,368 A3.75,3.75 0 0 1 218,370.5 L225,390.2969 L361.5,390.2969 A2.5,2.5 0 0 1 364,392.7969 L364,421.0938 A2.5,2.5 0 0 1 361.5,423.5938 L104.5,423.5938 A2.5,2.5 0 0 1 102,421.0938 L102,370.5 A2.5,2.5 0 0 1 104.5,368 " fill="#F1F1F1" style="stroke:#181818;stroke-width:0.5;"/><line style="stroke:#181818;stroke-width:0.5;" x1="102" x2="225" y1="390.2969" y2="390.2969"/><text fill="#000000" font-family="sans-serif" font-size="14" lengthAdjust="spacing" textLength="98" x="112" y="383.9951">harness_tests</text><text fill="#000000" font-family="sans-serif" font-size="14" lengthAdjust="spacing" textLength="232" x="112" y="410.292">Tests the Balancer using harness</text></g><!--entity ott_collector--><g id="elem_ott_collector"><path d="M454,368 L552,368 A3.75,3.75 0 0 1 554.5,370.5 L561.5,390.2969 L736,390.2969 A2.5,2.5 0 0 1 738.5,392.7969 L738.5,421.0938 A2.5,2.5 0 0 1 736,423.5938 L454,423.5938 A2.5,2.5 0 0 1 451.5,421.0938 L451.5,370.5 A2.5,2.5 0 0 1 454,368 " fill="#F1F1F1" style="stroke:#181818;stroke-width:0.5;"/><line style="stroke:#181818;stroke-width:0.5;" x1="451.5" x2="561.5" y1="390.2969" y2="390.2969"/><text fill="#000000" font-family="sans-serif" font-size="14" lengthAdjust="spacing" textLength="85" x="461.5" y="383.9951">ott_collector</text><text fill="#000000" font-family="sans-serif" font-size="14" lengthAdjust="spacing" textLength="257" x="461.5" y="410.292">Collects system state for visualization</text></g><!--entity ott_common--><g id="elem_ott_common"><path d="M1392,182 L1492,182 A3.75,3.75 0 0 1 1494.5,184.5 L1501.5,204.2969 L1700,204.2969 A2.5,2.5 0 0 1 1702.5,206.7969 L1702.5,251.3906 A2.5,2.5 0 0 1 1700,253.8906 L1392,253.8906 A2.5,2.5 0 0 1 1389.5,251.3906 L1389.5,184.5 A2.5,2.5 0 0 1 1392,182 " fill="#F1F1F1" style="stroke:#181818;stroke-width:0.5;"/><line style="stroke:#181818;stroke-width:0.5;" x1="1389.5" x2="1501.5" y1="204.2969" y2="204.2969"/><text fill="#000000" font-family="sans-serif" font-size="14" lengthAdjust="spacing" textLength="87" x="1399.5" y="197.9951">ott_common</text><text fill="#000000" font-family="sans-serif" font-size="14" lengthAdjust="spacing" textLength="221" x="1399.5" y="224.292">Common types and functionality</text><text fill="#000000" font-family="sans-serif" font-size="14" lengthAdjust="spacing" textLength="283" x="1399.5" y="240.5889">shared between ott_server and ott_client</text></g><!--entity ott_server--><g id="elem_ott_server"><path d="M1796.5,190 L1878.5,190 A3.75,3.75 0 0 1 1881,192.5 L1888,212.2969 L1911.5,212.2969 A2.5,2.5 0 0 1 1914,214.7969 L1914,243.0938 A2.5,2.5 0 0 1 1911.5,245.5938 L1796.5,245.5938 A2.5,2.5 0 0 1 1794,243.0938 L1794,192.5 A2.5,2.5 0 0 1 1796.5,190 " fill="#F1F1F1" style="stroke:#181818;stroke-width:0.5;"/><line style="stroke:#181818;stroke-width:0.5;" x1="1794" x2="1888" y1="212.2969" y2="212.2969"/><text fill="#000000" font-family="sans-serif" font-size="14" lengthAdjust="spacing" textLength="69" x="1804" y="205.9951">ott_server</text><text fill="#000000" font-family="sans-serif" font-size="14" lengthAdjust="spacing" textLength="90" x="1804" y="232.292">The Monolith</text></g><!--entity ott_client--><g id="elem_ott_client"><path d="M1587,49 L1663,49 A3.75,3.75 0 0 1 1665.5,51.5 L1672.5,71.2969 L1713,71.2969 A2.5,2.5 0 0 1 1715.5,73.7969 L1715.5,102.0938 A2.5,2.5 0 0 1 1713,104.5938 L1587,104.5938 A2.5,2.5 0 0 1 1584.5,102.0938 L1584.5,51.5 A2.5,2.5 0 0 1 1587,49 " fill="#F1F1F1" style="stroke:#181818;stroke-width:0.5;"/><line style="stroke:#181818;stroke-width:0.5;" x1="1584.5" x2="1672.5" y1="71.2969" y2="71.2969"/><text fill="#000000" font-family="sans-serif" font-size="14" lengthAdjust="spacing" textLength="63" x="1594.5" y="64.9951">ott_client</text><text fill="#000000" font-family="sans-serif" font-size="14" lengthAdjust="spacing" textLength="101" x="1594.5" y="91.292">The web client</text></g><!--entity ott_vis--><g id="elem_ott_vis"><path d="M957,368 L1014,368 A3.75,3.75 0 0 1 1016.5,370.5 L1023.5,390.2969 L1397,390.2969 A2.5,2.5 0 0 1 1399.5,392.7969 L1399.5,421.0938 A2.5,2.5 0 0 1 1397,423.5938 L957,423.5938 A2.5,2.5 0 0 1 954.5,421.0938 L954.5,370.5 A2.5,2.5 0 0 1 957,368 " fill="#F1F1F1" style="stroke:#181818;stroke-width:0.5;"/><line style="stroke:#181818;stroke-width:0.5;" x1="954.5" x2="1023.5" y1="390.2969" y2="390.2969"/><text fill="#000000" font-family="sans-serif" font-size="14" lengthAdjust="spacing" textLength="44" x="964.5" y="383.9951">ott_vis</text><text fill="#000000" font-family="sans-serif" font-size="14" lengthAdjust="spacing" textLength="415" x="964.5" y="410.292">Common code shared between visualization grafana plugins</text></g><!--entity ott_vis_panel--><g id="elem_ott_vis_panel"><path d="M1046.5,49 L1148.5,49 A3.75,3.75 0 0 1 1151,51.5 L1158,71.2969 L1385.5,71.2969 A2.5,2.5 0 0 1 1388,73.7969 L1388,102.0938 A2.5,2.5 0 0 1 1385.5,104.5938 L1046.5,104.5938 A2.5,2.5 0 0 1 1044,102.0938 L1044,51.5 A2.5,2.5 0 0 1 1046.5,49 " fill="#F1F1F1" style="stroke:#181818;stroke-width:0.5;"/><line style="stroke:#181818;stroke-width:0.5;" x1="1044" x2="1158" y1="71.2969" y2="71.2969"/><text fill="#000000" font-family="sans-serif" font-size="14" lengthAdjust="spacing" textLength="89" x="1054" y="64.9951">ott_vis_panel</text><text fill="#000000" font-family="sans-serif" font-size="14" lengthAdjust="spacing" textLength="314" x="1054" y="91.292">Grafana Panel plugin for custom visualizations</text></g><!--entity ott_vis_datasource--><g id="elem_ott_vis_datasource"><path d="M837.5,190 L979.5,190 A3.75,3.75 0 0 1 982,192.5 L989,212.2969 L1224.5,212.2969 A2.5,2.5 0 0 1 1227,214.7969 L1227,243.0938 A2.5,2.5 0 0 1 1224.5,245.5938 L837.5,245.5938 A2.5,2.5 0 0 1 835,243.0938 L835,192.5 A2.5,2.5 0 0 1 837.5,190 " fill="#F1F1F1" style="stroke:#181818;stroke-width:0.5;"/><line style="stroke:#181818;stroke-width:0.5;" x1="835" x2="989" y1="212.2969" y2="212.2969"/><text fill="#000000" font-family="sans-serif" font-size="14" lengthAdjust="spacing" textLength="129" x="845" y="205.9951">ott_vis_datasource</text><text fill="#000000" font-family="sans-serif" font-size="14" lengthAdjust="spacing" textLength="362" x="845" y="232.292">Grafana Datasource plugin for querying system state</text></g><!--link ott_balancer to ott_common_rust--><g id="link_ott_balancer_ott_common_rust"><path codeLine="56" d="M450.76,732.13 C459.02,755.09 470.87,788.03 479.57,812.22 " fill="none" id="ott_balancer-to-ott_common_rust" style="stroke:#181818;stroke-width:1.0;"/><polygon fill="#181818" points="481.27,816.94,481.9703,807.1161,479.5693,812.2381,474.4473,809.8372,481.27,816.94" style="stroke:#181818;stroke-width:1.0;"/><text fill="#000000" font-family="sans-serif" font-size="13" lengthAdjust="spacing" textLength="55" x="471" y="783.0669">depends</text></g><!--link ott_balancer to ott_balancer_protocol--><g id="link_ott_balancer_ott_balancer_protocol"><path codeLine="57" d="M377.2,704 C351.69,704 321.32,704 291.56,704 " fill="none" id="ott_balancer-to-ott_balancer_protocol" style="stroke:#181818;stroke-width:1.0;"/><polygon fill="#181818" points="286.4,704,295.4,708,291.4,704,295.4,700,286.4,704" style="stroke:#181818;stroke-width:1.0;"/><text fill="#000000" font-family="sans-serif" font-size="13" lengthAdjust="spacing" textLength="55" x="304.25" y="697.0669">depends</text></g><!--link harness to ott_balancer_protocol--><g id="link_harness_ott_balancer_protocol"><path codeLine="58" d="M224.17,591.04 C212.31,599.64 200.89,609.68 192,621 C182.41,633.21 175.69,648.78 171.08,663.06 " fill="none" id="harness-to-ott_balancer_protocol" style="stroke:#181818;stroke-width:1.0;"/><polygon fill="#181818" points="169.6,667.85,176.0948,660.4461,171.0865,663.0761,168.4565,658.0677,169.6,667.85" style="stroke:#181818;stroke-width:1.0;"/><text fill="#000000" font-family="sans-serif" font-size="13" lengthAdjust="spacing" textLength="55" x="193" y="634.0669">depends</text></g><!--link harness_tests to harness--><g id="link_harness_tests_harness"><path codeLine="59" d="M242.75,424.35 C251.61,449.18 264.78,486.11 274.81,514.21 " fill="none" id="harness_tests-to-harness" style="stroke:#181818;stroke-width:1.0;"/><polygon fill="#181818" points="276.51,518.99,277.2462,509.1687,274.8265,514.2819,269.7133,511.8623,276.51,518.99" style="stroke:#181818;stroke-width:1.0;"/><text fill="#000000" font-family="sans-serif" font-size="13" lengthAdjust="spacing" textLength="55" x="265" y="485.0669">depends</text></g><!--link harness_tests to ott_balancer_protocol--><g id="link_harness_tests_ott_balancer_protocol"><path codeLine="60" d="M183.3,424.2 C150.39,445.27 109.92,477.8 91,519 C68.53,567.94 100.46,626.19 128.44,663.84 " fill="none" id="harness_tests-to-ott_balancer_protocol" style="stroke:#181818;stroke-width:1.0;"/><polygon fill="#181818" points="131.48,667.87,129.2416,658.2789,128.464,663.882,122.8609,663.1045,131.48,667.87" style="stroke:#181818;stroke-width:1.0;"/><text fill="#000000" font-family="sans-serif" font-size="13" lengthAdjust="spacing" textLength="55" x="92" y="559.5669">depends</text></g><!--link harness to ott_balancer--><g id="link_harness_ott_balancer"><path codeLine="61" d="M287.84,596.39 C289.27,610.72 293.12,626.21 302,638 C319.27,660.94 346.64,676.09 372.54,685.94 " fill="none" id="harness-ott_balancer" style="stroke:#181818;stroke-width:1.0;stroke-dasharray:7.0,7.0;"/><polygon fill="#181818" points="287.41,591.17,284.1426,600.4611,287.8099,596.154,292.1169,599.8213,287.41,591.17" style="stroke:#181818;stroke-width:1.0;"/><polygon fill="#181818" points="377.36,687.71,370.3191,680.8234,372.6737,685.9669,367.5301,688.3215,377.36,687.71" style="stroke:#181818;stroke-width:1.0;"/><text fill="#000000" font-family="sans-serif" font-size="13" lengthAdjust="spacing" textLength="158" x="303" y="634.0669">connects via websockets</text></g><!--link ott_server to ott_balancer_bin--><g id="link_ott_server_ott_balancer_bin"><path codeLine="62" d="M1817.79,246.06 C1745.77,298.28 1577.63,412.34 1417,464 C1295.08,503.21 939.17,532.18 743.93,545.64 " fill="none" id="ott_server-to-ott_balancer_bin" style="stroke:#181818;stroke-width:1.0;stroke-dasharray:7.0,7.0;"/><polygon fill="#181818" points="738.78,545.99,748.0326,549.3649,743.7683,545.6479,747.4853,541.3837,738.78,545.99" style="stroke:#181818;stroke-width:1.0;"/><text fill="#000000" font-family="sans-serif" font-size="13" lengthAdjust="spacing" textLength="158" x="1721" y="400.5669">connects via websockets</text></g><!--link ott_client to ott_server--><g id="link_ott_client_ott_server"><path codeLine="63" d="M1689.82,105.13 C1724.36,128.67 1774.28,162.68 1810,187.02 " fill="none" id="ott_client-to-ott_server" style="stroke:#181818;stroke-width:1.0;stroke-dasharray:7.0,7.0;"/><polygon fill="#181818" points="1814.28,189.94,1809.0964,181.5656,1810.1486,187.1238,1804.5904,188.1759,1814.28,189.94" style="stroke:#181818;stroke-width:1.0;"/><text fill="#000000" font-family="sans-serif" font-size="13" lengthAdjust="spacing" textLength="158" x="1759" y="148.0669">connects via websockets</text></g><!--link ott_balancer_bin to ott_balancer--><g id="link_ott_balancer_bin_ott_balancer"><path codeLine="64" d="M602.77,583.04 C595.72,600.46 584.56,622.64 569,638 C552.18,654.6 530.26,667.82 509.32,677.89 " fill="none" id="ott_balancer_bin-to-ott_balancer" style="stroke:#181818;stroke-width:1.0;"/><polygon fill="#181818" points="504.59,680.12,514.4364,679.8996,509.1125,677.9876,511.0245,672.6636,504.59,680.12" style="stroke:#181818;stroke-width:1.0;"/><text fill="#000000" font-family="sans-serif" font-size="13" lengthAdjust="spacing" textLength="55" x="582" y="634.0669">depends</text></g><!--link ott_server to ott_common--><g id="link_ott_server_ott_common"><path codeLine="66" d="M1793.68,218 C1768.78,218 1738.61,218 1708.02,218 " fill="none" id="ott_server-to-ott_common" style="stroke:#181818;stroke-width:1.0;"/><polygon fill="#181818" points="1702.71,218,1711.71,222,1707.71,218,1711.71,214,1702.71,218" style="stroke:#181818;stroke-width:1.0;"/><text fill="#000000" font-family="sans-serif" font-size="13" lengthAdjust="spacing" textLength="55" x="1720.75" y="211.0669">depends</text></g><!--link ott_client to ott_common--><g id="link_ott_client_ott_common"><path codeLine="67" d="M1629.7,105.13 C1614.29,125.73 1592.86,154.37 1575.55,177.51 " fill="none" id="ott_client-to-ott_common" style="stroke:#181818;stroke-width:1.0;"/><polygon fill="#181818" points="1572.36,181.76,1580.96,176.96,1575.36,177.76,1574.56,172.16,1572.36,181.76" style="stroke:#181818;stroke-width:1.0;"/><text fill="#000000" font-family="sans-serif" font-size="13" lengthAdjust="spacing" textLength="55" x="1608" y="148.0669">depends</text></g><!--link ott_vis_panel to ott_vis--><g id="link_ott_vis_panel_ott_vis"><path codeLine="69" d="M1226.93,105.04 C1239.5,139.76 1256.94,201.77 1245,254 C1235.86,293.99 1213.86,335.83 1197.34,363.45 " fill="none" id="ott_vis_panel-to-ott_vis" style="stroke:#181818;stroke-width:1.0;"/><polygon fill="#181818" points="1194.74,367.75,1202.8143,362.1103,1197.323,363.4688,1195.9644,357.9775,1194.74,367.75" style="stroke:#181818;stroke-width:1.0;"/><text fill="#000000" font-family="sans-serif" font-size="13" lengthAdjust="spacing" textLength="55" x="1249" y="222.5669">depends</text></g><!--link ott_vis_datasource to ott_vis--><g id="link_ott_vis_datasource_ott_vis"><path codeLine="70" d="M1053.49,246.11 C1079.86,277.9 1123.46,330.46 1151.18,363.88 " fill="none" id="ott_vis_datasource-to-ott_vis" style="stroke:#181818;stroke-width:1.0;"/><polygon fill="#181818" points="1154.48,367.85,1151.8328,358.3636,1151.296,363.9949,1145.6646,363.458,1154.48,367.85" style="stroke:#181818;stroke-width:1.0;"/><text fill="#000000" font-family="sans-serif" font-size="13" lengthAdjust="spacing" textLength="55" x="1096" y="297.0669">depends</text></g><!--link ott_vis_panel to ott_vis_datasource--><g id="link_ott_vis_panel_ott_vis_datasource"><path codeLine="71" d="M1179.89,105.13 C1148.69,128.57 1103.66,162.41 1071.3,186.72 " fill="none" id="ott_vis_panel-to-ott_vis_datasource" style="stroke:#181818;stroke-width:1.0;stroke-dasharray:7.0,7.0;"/><polygon fill="#181818" points="1067.02,189.94,1076.6111,187.7016,1071.008,186.924,1071.7855,181.3209,1067.02,189.94" style="stroke:#181818;stroke-width:1.0;"/><text fill="#000000" font-family="sans-serif" font-size="13" lengthAdjust="spacing" textLength="47" x="1141" y="148.0669">queries</text></g><!--link ott_vis_datasource to ott_collector--><g id="link_ott_vis_datasource_ott_collector"><path codeLine="72" d="M963.83,246.11 C883.38,278.59 749.18,332.76 666.75,366.04 " fill="none" id="ott_vis_datasource-to-ott_collector" style="stroke:#181818;stroke-width:1.0;stroke-dasharray:7.0,7.0;"/><polygon fill="#181818" points="661.89,368,671.7332,368.3348,666.5254,366.1258,668.7344,360.9181,661.89,368" style="stroke:#181818;stroke-width:1.0;"/><text fill="#000000" font-family="sans-serif" font-size="13" lengthAdjust="spacing" textLength="47" x="865" y="297.0669">queries</text></g><!--link ott_collector to ott_balancer_bin--><g id="link_ott_collector_ott_balancer_bin"><path codeLine="73" d="M597.96,424.35 C600.9,451.48 605.4,493.04 608.51,521.76 " fill="none" id="ott_collector-to-ott_balancer_bin" style="stroke:#181818;stroke-width:1.0;stroke-dasharray:7.0,7.0;"/><polygon fill="#181818" points="609.07,526.97,612.096,517.5975,608.5414,521.998,604.1409,518.4433,609.07,526.97" style="stroke:#181818;stroke-width:1.0;"/><text fill="#000000" font-family="sans-serif" font-size="13" lengthAdjust="spacing" textLength="47" x="605" y="485.0669">queries</text></g><!--link ott_collector to ott_common_rust--><g id="link_ott_collector_ott_common_rust"><path codeLine="74" d="M552.31,424.04 C522.49,445.66 485.08,478.92 468,519 C455.46,548.44 458.37,560.48 468,591 C480.58,630.86 506.92,629.02 522,668 C538.49,710.62 532.11,724.39 535,770 C535.48,777.54 537.44,779.85 535,787 C531.9,796.08 526.7,804.85 520.94,812.66 " fill="none" id="ott_collector-to-ott_common_rust" style="stroke:#181818;stroke-width:1.0;"/><polygon fill="#181818" points="517.7,816.91,526.3489,812.1987,520.741,812.941,519.9986,807.3331,517.7,816.91" style="stroke:#181818;stroke-width:1.0;"/><text fill="#000000" font-family="sans-serif" font-size="13" lengthAdjust="spacing" textLength="55" x="503" y="634.0669">depends</text></g><!--link Nodejs packages to Rust crates--><!--SRC=[ZLNBRjim4BphAnOvfGVv0u8WXxP0Jos28hSW42XoPREHbof9EL2B_djND1MBZ2GOC0oBd9bzpSgDQHLQkFdPEm_I2e_k1luM09sGhsAFOBolf3aU3LLsn3pp7S0NGrveSd2-WgOdwRKXqMe_CE8bKwX5AqYYhJfhl96cZJgFrfoqGWT-wFZR7OH51JNwDqGA27z0-1pP84Z1TqE6enooACmaT2xN5RNpLeJSG5ZJamhtcZpkkThnc4lsclP9f8qIOeIdwz1LhMc10RTrhrl5-V4762Fiy6cvechCRwhhAVnEUjAxCVa8NiY4czsYzCQ-ZouySxC7v_48plFGeU7xatOz3_1FQ4jG-bSKJJJ83wFmbvkKWqaMNV8U9JoSnpgEBNS8PCCE4WxjAOuvABOQoOTCibWHU6biueeyiI0p0xzX3UlQt8Qq2CcbvzaclGAsKYD8GDVsUzwA5TMg4uIJyxz5ocCuEnF352HlcJcc0LOLbV32cTvAp6I_NYvcshzxjCDeb_difqad9Y_BXm-hVmSAEoJbCkZ3oefVyDDobjTZe-r7niHUnLoVmFrkbu8P8mrHM8YJ5gCrd96lwCz5Hf_jSbfOwsrgTDt4Z4hRd4G-RzQid7bkoQ2o6SKSoZLCaJfpmeqRa0fbNji6diMcmZFgNJ2XnaNTYNDvPwNmo_dAG9R1ssOkFhxRokU3LWhfHPNfNsDH_0S0]--></g></svg>