<?xml version="1.0" encoding="us-ascii" standalone="no"?><svg xmlns="http://www.w3.org/2000/svg" xmlns:xlink="http://www.w3.org/1999/xlink" contentStyleType="text/css" height="708px" preserveAspectRatio="none" style="width:1145px;height:708px;background:#FFFFFF;" version="1.1" viewBox="0 0 1145 708" width="1145px" zoomAndPan="magnify"><defs/><g><!--cluster Rust crates--><g id="cluster_Rust crates"><path d="M8.5,295.44 L90.5,295.44 A3.75,3.75 0 0 1 93,297.94 L100,317.9283 L755.5,317.9283 A2.5,2.5 0 0 1 758,320.4283 L758,698.85 A2.5,2.5 0 0 1 755.5,701.35 L8.5,701.35 A2.5,2.5 0 0 1 6,698.85 L6,297.94 A2.5,2.5 0 0 1 8.5,295.44 " fill="none" style="stroke:#000000;stroke-width:1.5;"/><line style="stroke:#000000;stroke-width:1.5;" x1="6" x2="100" y1="317.9283" y2="317.9283"/><text fill="#000000" font-family="sans-serif" font-size="14" font-weight="bold" lengthAdjust="spacing" textLength="81" x="10" y="310.9752">Rust crates</text></g><!--cluster Nodejs packages--><g id="cluster_Nodejs packages"><path d="M589.5,6 L711.5,6 A3.75,3.75 0 0 1 714,8.5 L721,28.4883 L1135.5,28.4883 A2.5,2.5 0 0 1 1138,30.9883 L1138,259.94 A2.5,2.5 0 0 1 1135.5,262.44 L589.5,262.44 A2.5,2.5 0 0 1 587,259.94 L587,8.5 A2.5,2.5 0 0 1 589.5,6 " fill="none" style="stroke:#000000;stroke-width:1.5;"/><line style="stroke:#000000;stroke-width:1.5;" x1="587" x2="721" y1="28.4883" y2="28.4883"/><text fill="#000000" font-family="sans-serif" font-size="14" font-weight="bold" lengthAdjust="spacing" textLength="121" x="591" y="21.5352">Nodejs packages</text></g><!--entity ott_common_rust--><g id="elem_ott_common_rust"><path d="M500.5,621.13 L633.5,621.13 A3.75,3.75 0 0 1 636,623.63 L643,643.6183 L739.5,643.6183 A2.5,2.5 0 0 1 742,646.1183 L742,674.6066 A2.5,2.5 0 0 1 739.5,677.1066 L500.5,677.1066 A2.5,2.5 0 0 1 498,674.6066 L498,623.63 A2.5,2.5 0 0 1 500.5,621.13 " fill="#F1F1F1" style="stroke:#181818;stroke-width:0.5;"/><line style="stroke:#181818;stroke-width:0.5;" x1="498" x2="643" y1="643.6183" y2="643.6183"/><text fill="#000000" font-family="sans-serif" font-size="14" lengthAdjust="spacing" textLength="120" x="508" y="637.6652">ott_common_rust</text><text fill="#000000" font-family="sans-serif" font-size="14" lengthAdjust="spacing" textLength="214" x="508" y="664.1534">Contains common functionality</text></g><!--entity ott_balancer_bin--><g id="elem_ott_balancer_bin"><path d="M588.5,471.66 L715.5,471.66 A3.75,3.75 0 0 1 718,474.16 L725,494.1483 L739.5,494.1483 A2.5,2.5 0 0 1 742,496.6483 L742,525.1366 A2.5,2.5 0 0 1 739.5,527.6366 L588.5,527.6366 A2.5,2.5 0 0 1 586,525.1366 L586,474.16 A2.5,2.5 0 0 1 588.5,471.66 " fill="#F1F1F1" style="stroke:#181818;stroke-width:0.5;"/><line style="stroke:#181818;stroke-width:0.5;" x1="586" x2="725" y1="494.1483" y2="494.1483"/><text fill="#000000" font-family="sans-serif" font-size="14" lengthAdjust="spacing" textLength="114" x="596" y="488.1952">ott_balancer_bin</text><text fill="#000000" font-family="sans-serif" font-size="14" lengthAdjust="spacing" textLength="88" x="596" y="514.6834">The Balancer</text></g><!--entity ott_balancer_protocol--><g id="elem_ott_balancer_protocol"><path d="M152,612.89 L315,612.89 A3.75,3.75 0 0 1 317.5,615.39 L324.5,635.3783 L388,635.3783 A2.5,2.5 0 0 1 390.5,637.8783 L390.5,682.8548 A2.5,2.5 0 0 1 388,685.3548 L152,685.3548 A2.5,2.5 0 0 1 149.5,682.8548 L149.5,615.39 A2.5,2.5 0 0 1 152,612.89 " fill="#F1F1F1" style="stroke:#181818;stroke-width:0.5;"/><line style="stroke:#181818;stroke-width:0.5;" x1="149.5" x2="324.5" y1="635.3783" y2="635.3783"/><text fill="#000000" font-family="sans-serif" font-size="14" lengthAdjust="spacing" textLength="150" x="159.5" y="629.4252">ott_balancer_protocol</text><text fill="#000000" font-family="sans-serif" font-size="14" lengthAdjust="spacing" textLength="211" x="159.5" y="655.9134">Provides types shared between</text><text fill="#000000" font-family="sans-serif" font-size="14" lengthAdjust="spacing" textLength="179" x="159.5" y="672.4017">the Balancer and Monolith</text></g><!--entity harness--><g id="elem_harness"><path d="M150,463.42 L217,463.42 A3.75,3.75 0 0 1 219.5,465.92 L226.5,485.9083 L390,485.9083 A2.5,2.5 0 0 1 392.5,488.4083 L392.5,533.3848 A2.5,2.5 0 0 1 390,535.8848 L150,535.8848 A2.5,2.5 0 0 1 147.5,533.3848 L147.5,465.92 A2.5,2.5 0 0 1 150,463.42 " fill="#F1F1F1" style="stroke:#181818;stroke-width:0.5;"/><line style="stroke:#181818;stroke-width:0.5;" x1="147.5" x2="226.5" y1="485.9083" y2="485.9083"/><text fill="#000000" font-family="sans-serif" font-size="14" lengthAdjust="spacing" textLength="54" x="157.5" y="479.9552">harness</text><text fill="#000000" font-family="sans-serif" font-size="14" lengthAdjust="spacing" textLength="193" x="157.5" y="506.4434">Provides abstraction around</text><text fill="#000000" font-family="sans-serif" font-size="14" lengthAdjust="spacing" textLength="215" x="157.5" y="522.9317">integration testing the Balancer</text></g><!--entity harness_tests--><g id="elem_harness_tests"><path d="M55.5,330.44 L161.5,330.44 A3.75,3.75 0 0 1 164,332.94 L171,352.9283 L304.5,352.9283 A2.5,2.5 0 0 1 307,355.4283 L307,383.9166 A2.5,2.5 0 0 1 304.5,386.4166 L55.5,386.4166 A2.5,2.5 0 0 1 53,383.9166 L53,332.94 A2.5,2.5 0 0 1 55.5,330.44 " fill="#F1F1F1" style="stroke:#181818;stroke-width:0.5;"/><line style="stroke:#181818;stroke-width:0.5;" x1="53" x2="171" y1="352.9283" y2="352.9283"/><text fill="#000000" font-family="sans-serif" font-size="14" lengthAdjust="spacing" textLength="93" x="63" y="346.9752">harness_tests</text><text fill="#000000" font-family="sans-serif" font-size="14" lengthAdjust="spacing" textLength="224" x="63" y="373.4634">Tests the Balancer using harness</text></g><!--entity ott_common--><g id="elem_ott_common"><path d="M816.5,173.98 L915.5,173.98 A3.75,3.75 0 0 1 918,176.48 L925,196.4683 L1119.5,196.4683 A2.5,2.5 0 0 1 1122,198.9683 L1122,243.9448 A2.5,2.5 0 0 1 1119.5,246.4448 L816.5,246.4448 A2.5,2.5 0 0 1 814,243.9448 L814,176.48 A2.5,2.5 0 0 1 816.5,173.98 " fill="#F1F1F1" style="stroke:#181818;stroke-width:0.5;"/><line style="stroke:#181818;stroke-width:0.5;" x1="814" x2="925" y1="196.4683" y2="196.4683"/><text fill="#000000" font-family="sans-serif" font-size="14" lengthAdjust="spacing" textLength="86" x="824" y="190.5152">ott_common</text><text fill="#000000" font-family="sans-serif" font-size="14" lengthAdjust="spacing" textLength="222" x="824" y="217.0034">Common types and functionality</text><text fill="#000000" font-family="sans-serif" font-size="14" lengthAdjust="spacing" textLength="278" x="824" y="233.4917">shared between ott_server and ott_client</text></g><!--entity ott_server--><g id="elem_ott_server"><path d="M606,182.22 L687,182.22 A3.75,3.75 0 0 1 689.5,184.72 L696.5,204.7083 L722,204.7083 A2.5,2.5 0 0 1 724.5,207.2083 L724.5,235.6966 A2.5,2.5 0 0 1 722,238.1966 L606,238.1966 A2.5,2.5 0 0 1 603.5,235.6966 L603.5,184.72 A2.5,2.5 0 0 1 606,182.22 " fill="#F1F1F1" style="stroke:#181818;stroke-width:0.5;"/><line style="stroke:#181818;stroke-width:0.5;" x1="603.5" x2="696.5" y1="204.7083" y2="204.7083"/><text fill="#000000" font-family="sans-serif" font-size="14" lengthAdjust="spacing" textLength="68" x="613.5" y="198.7552">ott_server</text><text fill="#000000" font-family="sans-serif" font-size="14" lengthAdjust="spacing" textLength="91" x="613.5" y="225.2434">The Monolith</text></g><!--entity ott_client--><g id="elem_ott_client"><path d="M703,41 L779,41 A3.75,3.75 0 0 1 781.5,43.5 L788.5,63.4883 L827,63.4883 A2.5,2.5 0 0 1 829.5,65.9883 L829.5,94.4766 A2.5,2.5 0 0 1 827,96.9766 L703,96.9766 A2.5,2.5 0 0 1 700.5,94.4766 L700.5,43.5 A2.5,2.5 0 0 1 703,41 " fill="#F1F1F1" style="stroke:#181818;stroke-width:0.5;"/><line style="stroke:#181818;stroke-width:0.5;" x1="700.5" x2="788.5" y1="63.4883" y2="63.4883"/><text fill="#000000" font-family="sans-serif" font-size="14" lengthAdjust="spacing" textLength="63" x="710.5" y="57.5352">ott_client</text><text fill="#000000" font-family="sans-serif" font-size="14" lengthAdjust="spacing" textLength="99" x="710.5" y="84.0234">The web client</text></g><!--link ott_balancer_bin to ott_common_rust--><g id="link_ott_balancer_bin_ott_common_rust"><path codeLine="38" d="M655.83,528.04 C648.51,552.57 637.76,588.59 629.95,614.77 " fill="none" id="ott_balancer_bin-to-ott_common_rust" style="stroke:#181818;stroke-width:1.0;"/><polygon fill="#181818" points="628.56,619.42,634.9611,611.9349,629.9863,614.6277,627.2935,609.6529,628.56,619.42" style="stroke:#181818;stroke-width:1.0;"/><text fill="#000000" font-family="sans-serif" font-size="13" lengthAdjust="spacing" textLength="53" x="644" y="579.4584">depends</text></g><!--link ott_balancer_bin to ott_balancer_protocol--><g id="link_ott_balancer_bin_ott_balancer_protocol"><path codeLine="39" d="M590.81,528.04 C528.91,551.21 439.57,584.65 370.88,610.36 " fill="none" id="ott_balancer_bin-to-ott_balancer_protocol" style="stroke:#181818;stroke-width:1.0;"/><polygon fill="#181818" points="366.55,611.98,376.3815,612.5652,371.2316,610.2244,373.5725,605.0746,366.55,611.98" style="stroke:#181818;stroke-width:1.0;"/><text fill="#000000" font-family="sans-serif" font-size="13" lengthAdjust="spacing" textLength="53" x="479" y="579.4584">depends</text></g><!--link harness to ott_balancer_protocol--><g id="link_harness_ott_balancer_protocol"><path codeLine="40" d="M270,536.35 C270,557.37 270,584.08 270,606.12 " fill="none" id="harness-to-ott_balancer_protocol" style="stroke:#181818;stroke-width:1.0;"/><polygon fill="#181818" points="270,610.98,274,601.98,270,605.98,266,601.98,270,610.98" style="stroke:#181818;stroke-width:1.0;"/><text fill="#000000" font-family="sans-serif" font-size="13" lengthAdjust="spacing" textLength="53" x="271" y="579.4584">depends</text></g><!--link harness_tests to harness--><g id="link_harness_tests_harness"><path codeLine="41" d="M197.57,386.61 C210.64,406.83 228.7,434.77 243.52,457.69 " fill="none" id="harness_tests-to-harness" style="stroke:#181818;stroke-width:1.0;"/><polygon fill="#181818" points="246.2,461.83,244.6745,452.1,243.4861,457.6306,237.9555,456.4422,246.2,461.83" style="stroke:#181818;stroke-width:1.0;"/><text fill="#000000" font-family="sans-serif" font-size="13" lengthAdjust="spacing" textLength="53" x="229" y="429.9884">depends</text></g><!--link harness_tests to ott_balancer_protocol--><g id="link_harness_tests_ott_balancer_protocol"><path codeLine="42" d="M139.4,386.78 C115.75,405.29 88.09,432.05 75,463.42 C62.6,493.15 58.88,508 75,535.89 C93.81,568.41 126.01,592.34 158.89,609.54 " fill="none" id="harness_tests-to-ott_balancer_protocol" style="stroke:#181818;stroke-width:1.0;"/><polygon fill="#181818" points="163.25,611.77,157.0474,604.1196,158.7951,609.4997,153.415,611.2474,163.25,611.77" style="stroke:#181818;stroke-width:1.0;"/><text fill="#000000" font-family="sans-serif" font-size="13" lengthAdjust="spacing" textLength="53" x="76" y="504.7184">depends</text></g><!--link harness to ott_balancer_bin--><g id="link_harness_ott_balancer_bin"><path codeLine="43" d="M399.09,499.65 C458.33,499.65 526.9,499.65 579.44,499.65 " fill="none" id="harness-ott_balancer_bin" style="stroke:#181818;stroke-width:1.0;"/><polygon fill="#181818" points="394.29,499.65,403.29,503.65,399.29,499.65,403.29,495.65,394.29,499.65" style="stroke:#181818;stroke-width:1.0;"/><polygon fill="#181818" points="584.25,499.65,575.25,495.65,579.25,499.65,575.25,503.65,584.25,499.65" style="stroke:#181818;stroke-width:1.0;"/><text fill="#000000" font-family="sans-serif" font-size="13" lengthAdjust="spacing" textLength="157" x="410.75" y="493.2184">connects via websockets</text></g><!--link ott_server to ott_balancer_bin--><g id="link_ott_server_ott_balancer_bin"><path codeLine="44" d="M664,238.51 C664,291.41 664,407.69 664,465.16 " fill="none" id="ott_server-to-ott_balancer_bin" style="stroke:#181818;stroke-width:1.0;"/><polygon fill="#181818" points="664,470.02,668,461.02,664,465.02,660,461.02,664,470.02" style="stroke:#181818;stroke-width:1.0;"/><text fill="#000000" font-family="sans-serif" font-size="13" lengthAdjust="spacing" textLength="157" x="665" y="363.4984">connects via websockets</text></g><!--link ott_client to ott_server--><g id="link_ott_client_ott_server"><path codeLine="45" d="M745.29,97.16 C728.67,120.07 704.87,152.88 687.31,177.08 " fill="none" id="ott_client-to-ott_server" style="stroke:#181818;stroke-width:1.0;"/><polygon fill="#181818" points="684.55,180.88,693.0609,175.9237,687.4764,176.8259,686.5742,171.2414,684.55,180.88" style="stroke:#181818;stroke-width:1.0;"/><text fill="#000000" font-family="sans-serif" font-size="13" lengthAdjust="spacing" textLength="157" x="724" y="140.5484">connects via websockets</text></g><!--link ott_server to ott_common--><g id="link_ott_server_ott_common"><path codeLine="47" d="M724.79,210.21 C748.89,210.21 777.85,210.21 807.25,210.21 " fill="none" id="ott_server-to-ott_common" style="stroke:#181818;stroke-width:1.0;"/><polygon fill="#181818" points="812.01,210.21,803.01,206.21,807.01,210.21,803.01,214.21,812.01,210.21" style="stroke:#181818;stroke-width:1.0;"/><text fill="#000000" font-family="sans-serif" font-size="13" lengthAdjust="spacing" textLength="53" x="742.75" y="203.7784">depends</text></g><!--link ott_client to ott_common--><g id="link_ott_client_ott_common"><path codeLine="48" d="M829.89,93.93 C850.05,102.81 871.75,113.96 890,126.98 C906.55,138.79 922.45,154.46 935.52,168.95 " fill="none" id="ott_client-to-ott_common" style="stroke:#181818;stroke-width:1.0;"/><polygon fill="#181818" points="938.84,172.68,935.8303,163.3023,935.5102,168.9501,929.8624,168.6299,938.84,172.68" style="stroke:#181818;stroke-width:1.0;"/><text fill="#000000" font-family="sans-serif" font-size="13" lengthAdjust="spacing" textLength="53" x="910" y="140.5484">depends</text></g><!--SRC=[bLF1Ri8m3Btp5HRt_W2QE6pdJTF4RPggD36GKUmgSK5eshyl2UcW0IPsgThulMVxlNJ9hK47qxVU2sYd1FqKlYO0dT8RjK9WaLhpTijKkuXv3pM09oPHbZmSIx3iIOjbKgsLGq1y50gDQXLfT7LZAKiirWYF-VWlHkTOM7ERQQ-ETzQW1pbquUdNog611cMFI0aXPyAWoC0p4uUvraMNm2JqljHLZHUdqZQW7FTaKjsIu2hu4u-3IM9fDUfqNRoEqA758hsFnkjzrCdW9F4zcInp9YziyDCFaYcNgy7yPf8-Zhx4lSjGe70hINXqk-nJKcmjagH9YbuPU0flP6ivM98v0- -nWJFjiEN5jQYg-SLjcu713iduA_3vZNjouWm9L_TZSs2HCR1lOkuVuA74nWLcuUSXGXsaTbP5Xpph3SfnrsntLVsVciqVc5dfDcVKxpo3mlv2zmBp0m00]--></g></svg>