<?xml version="1.0" encoding="us-ascii" standalone="no"?><svg xmlns="http://www.w3.org/2000/svg" xmlns:xlink="http://www.w3.org/1999/xlink" contentStyleType="text/css" height="904px" preserveAspectRatio="none" style="width:1907px;height:904px;background:#FFFFFF;" version="1.1" viewBox="0 0 1907 904" width="1907px" zoomAndPan="magnify"><defs/><g><!--cluster Rust crates--><g id="cluster_Rust crates"><path d="M8.5,325 L99.5,325 A3.75,3.75 0 0 1 102,327.5 L109,347.2969 L722.5,347.2969 A2.5,2.5 0 0 1 725,349.7969 L725,894.5 A2.5,2.5 0 0 1 722.5,897 L8.5,897 A2.5,2.5 0 0 1 6,894.5 L6,327.5 A2.5,2.5 0 0 1 8.5,325 " fill="none" style="stroke:#000000;stroke-width:1.5;"/><line style="stroke:#000000;stroke-width:1.5;" x1="6" x2="109" y1="347.2969" y2="347.2969"/><text fill="#000000" font-family="sans-serif" font-size="14" font-weight="bold" lengthAdjust="spacing" textLength="90" x="10" y="339.9951">Rust crates</text></g><!--cluster Nodejs packages--><g id="cluster_Nodejs packages"><path d="M767.5,6 L902.5,6 A3.75,3.75 0 0 1 905,8.5 L912,28.2969 L1897.5,28.2969 A2.5,2.5 0 0 1 1900,30.7969 L1900,445.5 A2.5,2.5 0 0 1 1897.5,448 L767.5,448 A2.5,2.5 0 0 1 765,445.5 L765,8.5 A2.5,2.5 0 0 1 767.5,6 " fill="none" style="stroke:#000000;stroke-width:1.5;"/><line style="stroke:#000000;stroke-width:1.5;" x1="765" x2="912" y1="28.2969" y2="28.2969"/><text fill="#000000" font-family="sans-serif" font-size="14" font-weight="bold" lengthAdjust="spacing" textLength="134" x="769" y="20.9951">Nodejs packages</text></g><!--entity ott_common_rust--><g id="elem_ott_common_rust"><path d="M337.5,817 L471.5,817 A3.75,3.75 0 0 1 474,819.5 L481,839.2969 L574.5,839.2969 A2.5,2.5 0 0 1 577,841.7969 L577,870.0938 A2.5,2.5 0 0 1 574.5,872.5938 L337.5,872.5938 A2.5,2.5 0 0 1 335,870.0938 L335,819.5 A2.5,2.5 0 0 1 337.5,817 " fill="#F1F1F1" style="stroke:#181818;stroke-width:0.5;"/><line style="stroke:#181818;stroke-width:0.5;" x1="335" x2="481" y1="839.2969" y2="839.2969"/><text fill="#000000" font-family="sans-serif" font-size="14" lengthAdjust="spacing" textLength="121" x="345" y="832.9951">ott_common_rust</text><text fill="#000000" font-family="sans-serif" font-size="14" lengthAdjust="spacing" textLength="212" x="345" y="859.292">Contains common functionality</text></g><!--entity ott_balancer_protocol--><g id="elem_ott_balancer_protocol"><path d="M55.5,668 L217.5,668 A3.75,3.75 0 0 1 220,670.5 L227,690.2969 L298.5,690.2969 A2.5,2.5 0 0 1 301,692.7969 L301,737.3906 A2.5,2.5 0 0 1 298.5,739.8906 L55.5,739.8906 A2.5,2.5 0 0 1 53,737.3906 L53,670.5 A2.5,2.5 0 0 1 55.5,668 " fill="#F1F1F1" style="stroke:#181818;stroke-width:0.5;"/><line style="stroke:#181818;stroke-width:0.5;" x1="53" x2="227" y1="690.2969" y2="690.2969"/><text fill="#000000" font-family="sans-serif" font-size="14" lengthAdjust="spacing" textLength="149" x="63" y="683.9951">ott_balancer_protocol</text><text fill="#000000" font-family="sans-serif" font-size="14" lengthAdjust="spacing" textLength="218" x="63" y="710.292">Provides types shared between</text><text fill="#000000" font-family="sans-serif" font-size="14" lengthAdjust="spacing" textLength="180" x="63" y="726.5889">the Balancer and Monolith</text></g><!--entity harness--><g id="elem_harness"><path d="M168,519 L237,519 A3.75,3.75 0 0 1 239.5,521.5 L246.5,541.2969 L410,541.2969 A2.5,2.5 0 0 1 412.5,543.7969 L412.5,588.3906 A2.5,2.5 0 0 1 410,590.8906 L168,590.8906 A2.5,2.5 0 0 1 165.5,588.3906 L165.5,521.5 A2.5,2.5 0 0 1 168,519 " fill="#F1F1F1" style="stroke:#181818;stroke-width:0.5;"/><line style="stroke:#181818;stroke-width:0.5;" x1="165.5" x2="246.5" y1="541.2969" y2="541.2969"/><text fill="#000000" font-family="sans-serif" font-size="14" lengthAdjust="spacing" textLength="56" x="175.5" y="534.9951">harness</text><text fill="#000000" font-family="sans-serif" font-size="14" lengthAdjust="spacing" textLength="193" x="175.5" y="561.292">Provides abstraction around</text><text fill="#000000" font-family="sans-serif" font-size="14" lengthAdjust="spacing" textLength="217" x="175.5" y="577.5889">integration testing the Balancer</text></g><!--entity ott_balancer--><g id="elem_ott_balancer"><path d="M395,676 L493,676 A3.75,3.75 0 0 1 495.5,678.5 L502.5,698.2969 L517,698.2969 A2.5,2.5 0 0 1 519.5,700.7969 L519.5,729.0938 A2.5,2.5 0 0 1 517,731.5938 L395,731.5938 A2.5,2.5 0 0 1 392.5,729.0938 L392.5,678.5 A2.5,2.5 0 0 1 395,676 " fill="#F1F1F1" style="stroke:#181818;stroke-width:0.5;"/><line style="stroke:#181818;stroke-width:0.5;" x1="392.5" x2="502.5" y1="698.2969" y2="698.2969"/><text fill="#000000" font-family="sans-serif" font-size="14" lengthAdjust="spacing" textLength="85" x="402.5" y="691.9951">ott_balancer</text><text fill="#000000" font-family="sans-serif" font-size="14" lengthAdjust="spacing" textLength="91" x="402.5" y="718.292">The Balancer</text></g><!--entity ott_balancer_bin--><g id="elem_ott_balancer_bin"><path d="M450,527 L576,527 A3.75,3.75 0 0 1 578.5,529.5 L585.5,549.2969 L698,549.2969 A2.5,2.5 0 0 1 700.5,551.7969 L700.5,580.0938 A2.5,2.5 0 0 1 698,582.5938 L450,582.5938 A2.5,2.5 0 0 1 447.5,580.0938 L447.5,529.5 A2.5,2.5 0 0 1 450,527 " fill="#F1F1F1" style="stroke:#181818;stroke-width:0.5;"/><line style="stroke:#181818;stroke-width:0.5;" x1="447.5" x2="585.5" y1="549.2969" y2="549.2969"/><text fill="#000000" font-family="sans-serif" font-size="14" lengthAdjust="spacing" textLength="113" x="457.5" y="542.9951">ott_balancer_bin</text><text fill="#000000" font-family="sans-serif" font-size="14" lengthAdjust="spacing" textLength="223" x="457.5" y="569.292">The Balancer (builds as a binary)</text></g><!--entity harness_tests--><g id="elem_harness_tests"><path d="M85.5,368 L196.5,368 A3.75,3.75 0 0 1 199,370.5 L206,390.2969 L342.5,390.2969 A2.5,2.5 0 0 1 345,392.7969 L345,421.0938 A2.5,2.5 0 0 1 342.5,423.5938 L85.5,423.5938 A2.5,2.5 0 0 1 83,421.0938 L83,370.5 A2.5,2.5 0 0 1 85.5,368 " fill="#F1F1F1" style="stroke:#181818;stroke-width:0.5;"/><line style="stroke:#181818;stroke-width:0.5;" x1="83" x2="206" y1="390.2969" y2="390.2969"/><text fill="#000000" font-family="sans-serif" font-size="14" lengthAdjust="spacing" textLength="98" x="93" y="383.9951">harness_tests</text><text fill="#000000" font-family="sans-serif" font-size="14" lengthAdjust="spacing" textLength="232" x="93" y="410.292">Tests the Balancer using harness</text></g><!--entity ott_collector--><g id="elem_ott_collector"><path d="M416,368 L514,368 A3.75,3.75 0 0 1 516.5,370.5 L523.5,390.2969 L698,390.2969 A2.5,2.5 0 0 1 700.5,392.7969 L700.5,421.0938 A2.5,2.5 0 0 1 698,423.5938 L416,423.5938 A2.5,2.5 0 0 1 413.5,421.0938 L413.5,370.5 A2.5,2.5 0 0 1 416,368 " fill="#F1F1F1" style="stroke:#181818;stroke-width:0.5;"/><line style="stroke:#181818;stroke-width:0.5;" x1="413.5" x2="523.5" y1="390.2969" y2="390.2969"/><text fill="#000000" font-family="sans-serif" font-size="14" lengthAdjust="spacing" textLength="85" x="423.5" y="383.9951">ott_collector</text><text fill="#000000" font-family="sans-serif" font-size="14" lengthAdjust="spacing" textLength="257" x="423.5" y="410.292">Collects system state for visualization</text></g><!--entity ott_common--><g id="elem_ott_common"><path d="M1354,182 L1454,182 A3.75,3.75 0 0 1 1456.5,184.5 L1463.5,204.2969 L1662,204.2969 A2.5,2.5 0 0 1 1664.5,206.7969 L1664.5,251.3906 A2.5,2.5 0 0 1 1662,253.8906 L1354,253.8906 A2.5,2.5 0 0 1 1351.5,251.3906 L1351.5,184.5 A2.5,2.5 0 0 1 1354,182 " fill="#F1F1F1" style="stroke:#181818;stroke-width:0.5;"/><line style="stroke:#181818;stroke-width:0.5;" x1="1351.5" x2="1463.5" y1="204.2969" y2="204.2969"/><text fill="#000000" font-family="sans-serif" font-size="14" lengthAdjust="spacing" textLength="87" x="1361.5" y="197.9951">ott_common</text><text fill="#000000" font-family="sans-serif" font-size="14" lengthAdjust="spacing" textLength="221" x="1361.5" y="224.292">Common types and functionality</text><text fill="#000000" font-family="sans-serif" font-size="14" lengthAdjust="spacing" textLength="283" x="1361.5" y="240.5889">shared between ott_server and ott_client</text></g><!--entity ott_server--><g id="elem_ott_server"><path d="M1758.5,190 L1840.5,190 A3.75,3.75 0 0 1 1843,192.5 L1850,212.2969 L1873.5,212.2969 A2.5,2.5 0 0 1 1876,214.7969 L1876,243.0938 A2.5,2.5 0 0 1 1873.5,245.5938 L1758.5,245.5938 A2.5,2.5 0 0 1 1756,243.0938 L1756,192.5 A2.5,2.5 0 0 1 1758.5,190 " fill="#F1F1F1" style="stroke:#181818;stroke-width:0.5;"/><line style="stroke:#181818;stroke-width:0.5;" x1="1756" x2="1850" y1="212.2969" y2="212.2969"/><text fill="#000000" font-family="sans-serif" font-size="14" lengthAdjust="spacing" textLength="69" x="1766" y="205.9951">ott_server</text><text fill="#000000" font-family="sans-serif" font-size="14" lengthAdjust="spacing" textLength="90" x="1766" y="232.292">The Monolith</text></g><!--entity ott_client--><g id="elem_ott_client"><path d="M1549,49 L1625,49 A3.75,3.75 0 0 1 1627.5,51.5 L1634.5,71.2969 L1675,71.2969 A2.5,2.5 0 0 1 1677.5,73.7969 L1677.5,102.0938 A2.5,2.5 0 0 1 1675,104.5938 L1549,104.5938 A2.5,2.5 0 0 1 1546.5,102.0938 L1546.5,51.5 A2.5,2.5 0 0 1 1549,49 " fill="#F1F1F1" style="stroke:#181818;stroke-width:0.5;"/><line style="stroke:#181818;stroke-width:0.5;" x1="1546.5" x2="1634.5" y1="71.2969" y2="71.2969"/><text fill="#000000" font-family="sans-serif" font-size="14" lengthAdjust="spacing" textLength="63" x="1556.5" y="64.9951">ott_client</text><text fill="#000000" font-family="sans-serif" font-size="14" lengthAdjust="spacing" textLength="101" x="1556.5" y="91.292">The web client</text></g><!--entity ott_vis--><g id="elem_ott_vis"><path d="M919,368 L976,368 A3.75,3.75 0 0 1 978.5,370.5 L985.5,390.2969 L1359,390.2969 A2.5,2.5 0 0 1 1361.5,392.7969 L1361.5,421.0938 A2.5,2.5 0 0 1 1359,423.5938 L919,423.5938 A2.5,2.5 0 0 1 916.5,421.0938 L916.5,370.5 A2.5,2.5 0 0 1 919,368 " fill="#F1F1F1" style="stroke:#181818;stroke-width:0.5;"/><line style="stroke:#181818;stroke-width:0.5;" x1="916.5" x2="985.5" y1="390.2969" y2="390.2969"/><text fill="#000000" font-family="sans-serif" font-size="14" lengthAdjust="spacing" textLength="44" x="926.5" y="383.9951">ott_vis</text><text fill="#000000" font-family="sans-serif" font-size="14" lengthAdjust="spacing" textLength="415" x="926.5" y="410.292">Common code shared between visualization grafana plugins</text></g><!--entity ott_vis_panel--><g id="elem_ott_vis_panel"><path d="M1008.5,49 L1110.5,49 A3.75,3.75 0 0 1 1113,51.5 L1120,71.2969 L1347.5,71.2969 A2.5,2.5 0 0 1 1350,73.7969 L1350,102.0938 A2.5,2.5 0 0 1 1347.5,104.5938 L1008.5,104.5938 A2.5,2.5 0 0 1 1006,102.0938 L1006,51.5 A2.5,2.5 0 0 1 1008.5,49 " fill="#F1F1F1" style="stroke:#181818;stroke-width:0.5;"/><line style="stroke:#181818;stroke-width:0.5;" x1="1006" x2="1120" y1="71.2969" y2="71.2969"/><text fill="#000000" font-family="sans-serif" font-size="14" lengthAdjust="spacing" textLength="89" x="1016" y="64.9951">ott_vis_panel</text><text fill="#000000" font-family="sans-serif" font-size="14" lengthAdjust="spacing" textLength="314" x="1016" y="91.292">Grafana Panel plugin for custom visualizations</text></g><!--entity ott_vis_datasource--><g id="elem_ott_vis_datasource"><path d="M799.5,190 L941.5,190 A3.75,3.75 0 0 1 944,192.5 L951,212.2969 L1186.5,212.2969 A2.5,2.5 0 0 1 1189,214.7969 L1189,243.0938 A2.5,2.5 0 0 1 1186.5,245.5938 L799.5,245.5938 A2.5,2.5 0 0 1 797,243.0938 L797,192.5 A2.5,2.5 0 0 1 799.5,190 " fill="#F1F1F1" style="stroke:#181818;stroke-width:0.5;"/><line style="stroke:#181818;stroke-width:0.5;" x1="797" x2="951" y1="212.2969" y2="212.2969"/><text fill="#000000" font-family="sans-serif" font-size="14" lengthAdjust="spacing" textLength="129" x="807" y="205.9951">ott_vis_datasource</text><text fill="#000000" font-family="sans-serif" font-size="14" lengthAdjust="spacing" textLength="362" x="807" y="232.292">Grafana Datasource plugin for querying system state</text></g><!--link ott_balancer to ott_common_rust--><g id="link_ott_balancer_ott_common_rust"><path codeLine="56" d="M456,732.13 C456,755 456,787.76 456,811.92 " fill="none" id="ott_balancer-to-ott_common_rust" style="stroke:#181818;stroke-width:1.0;"/><polygon fill="#181818" points="456,816.94,460,807.94,456,811.94,452,807.94,456,816.94" style="stroke:#181818;stroke-width:1.0;"/><text fill="#000000" font-family="sans-serif" font-size="13" lengthAdjust="spacing" textLength="55" x="457" y="783.0669">depends</text></g><!--link ott_balancer to ott_balancer_protocol--><g id="link_ott_balancer_ott_balancer_protocol"><path codeLine="57" d="M392.2,704 C366.69,704 336.32,704 306.56,704 " fill="none" id="ott_balancer-to-ott_balancer_protocol" style="stroke:#181818;stroke-width:1.0;"/><polygon fill="#181818" points="301.4,704,310.4,708,306.4,704,310.4,700,301.4,704" style="stroke:#181818;stroke-width:1.0;"/><text fill="#000000" font-family="sans-serif" font-size="13" lengthAdjust="spacing" textLength="55" x="319.25" y="697.0669">depends</text></g><!--link harness to ott_balancer_protocol--><g id="link_harness_ott_balancer_protocol"><path codeLine="58" d="M238.59,591.07 C228.18,599.96 217.98,610.11 210,621 C200.79,633.57 193.7,649.06 188.49,663.19 " fill="none" id="harness-to-ott_balancer_protocol" style="stroke:#181818;stroke-width:1.0;"/><polygon fill="#181818" points="186.79,667.92,193.5867,660.7923,188.4735,663.2119,186.0538,658.0987,186.79,667.92" style="stroke:#181818;stroke-width:1.0;"/><text fill="#000000" font-family="sans-serif" font-size="13" lengthAdjust="spacing" textLength="55" x="211" y="634.0669">depends</text></g><!--link harness_tests to harness--><g id="link_harness_tests_harness"><path codeLine="59" d="M227.06,424.35 C238.93,449.18 256.57,486.11 269.99,514.21 " fill="none" id="harness_tests-to-harness" style="stroke:#181818;stroke-width:1.0;"/><polygon fill="#181818" points="272.28,518.99,272.0341,509.1442,270.1359,514.4731,264.807,512.5748,272.28,518.99" style="stroke:#181818;stroke-width:1.0;"/><text fill="#000000" font-family="sans-serif" font-size="13" lengthAdjust="spacing" textLength="55" x="256" y="485.0669">depends</text></g><!--link harness_tests to ott_balancer_protocol--><g id="link_harness_tests_ott_balancer_protocol"><path codeLine="60" d="M172.93,424.12 C143.98,445.88 107.54,479.3 91,519 C78.69,548.54 80.71,560.7 91,591 C100.24,618.2 119.04,643.97 136.71,663.92 " fill="none" id="harness_tests-to-ott_balancer_protocol" style="stroke:#181818;stroke-width:1.0;"/><polygon fill="#181818" points="140.23,667.83,137.1825,658.4645,136.8852,664.1135,131.2361,663.8162,140.23,667.83" style="stroke:#181818;stroke-width:1.0;"/><text fill="#000000" font-family="sans-serif" font-size="13" lengthAdjust="spacing" textLength="55" x="92" y="559.5669">depends</text></g><!--link harness to ott_balancer--><g id="link_harness_ott_balancer"><path codeLine="61" d="M310.03,595.83 C318.91,610.25 330.18,625.93 343,638 C357.51,651.66 375.4,663.61 392.64,673.41 " fill="none" id="harness-ott_balancer" style="stroke:#181818;stroke-width:1.0;stroke-dasharray:7.0,7.0;"/><polygon fill="#181818" points="307.35,591.41,308.5744,601.1825,309.933,595.6912,315.4243,597.0497,307.35,591.41" style="stroke:#181818;stroke-width:1.0;"/><polygon fill="#181818" points="397,675.86,391.1058,667.9696,392.6387,673.4148,387.1935,674.9477,397,675.86" style="stroke:#181818;stroke-width:1.0;"/><text fill="#000000" font-family="sans-serif" font-size="13" lengthAdjust="spacing" textLength="158" x="344" y="634.0669">connects via websockets</text></g><!--link ott_server to ott_balancer_bin--><g id="link_ott_server_ott_balancer_bin"><path codeLine="62" d="M1779.79,246.06 C1707.77,298.28 1539.63,412.34 1379,464 C1257.08,503.21 901.17,532.18 705.93,545.64 " fill="none" id="ott_server-to-ott_balancer_bin" style="stroke:#181818;stroke-width:1.0;stroke-dasharray:7.0,7.0;"/><polygon fill="#181818" points="700.78,545.99,710.0326,549.3649,705.7683,545.6479,709.4853,541.3837,700.78,545.99" style="stroke:#181818;stroke-width:1.0;"/><text fill="#000000" font-family="sans-serif" font-size="13" lengthAdjust="spacing" textLength="158" x="1683" y="400.5669">connects via websockets</text></g><!--link ott_client to ott_server--><g id="link_ott_client_ott_server"><path codeLine="63" d="M1651.82,105.13 C1686.36,128.67 1736.28,162.68 1772,187.02 " fill="none" id="ott_client-to-ott_server" style="stroke:#181818;stroke-width:1.0;stroke-dasharray:7.0,7.0;"/><polygon fill="#181818" points="1776.28,189.94,1771.0964,181.5656,1772.1486,187.1238,1766.5904,188.1759,1776.28,189.94" style="stroke:#181818;stroke-width:1.0;"/><text fill="#000000" font-family="sans-serif" font-size="13" lengthAdjust="spacing" textLength="158" x="1721" y="148.0669">connects via websockets</text></g><!--link ott_balancer_bin to ott_balancer--><g id="link_ott_balancer_bin_ott_balancer"><path codeLine="64" d="M552.08,583.31 C531.96,608.37 502.17,645.48 481.1,671.73 " fill="none" id="ott_balancer_bin-to-ott_balancer" style="stroke:#181818;stroke-width:1.0;"/><polygon fill="#181818" points="477.8,675.84,486.5518,671.3227,480.9287,671.9398,480.3115,666.3168,477.8,675.84" style="stroke:#181818;stroke-width:1.0;"/><text fill="#000000" font-family="sans-serif" font-size="13" lengthAdjust="spacing" textLength="55" x="519" y="634.0669">depends</text></g><!--link ott_server to ott_common--><g id="link_ott_server_ott_common"><path codeLine="66" d="M1755.68,218 C1730.78,218 1700.61,218 1670.02,218 " fill="none" id="ott_server-to-ott_common" style="stroke:#181818;stroke-width:1.0;"/><polygon fill="#181818" points="1664.71,218,1673.71,222,1669.71,218,1673.71,214,1664.71,218" style="stroke:#181818;stroke-width:1.0;"/><text fill="#000000" font-family="sans-serif" font-size="13" lengthAdjust="spacing" textLength="55" x="1682.75" y="211.0669">depends</text></g><!--link ott_client to ott_common--><g id="link_ott_client_ott_common"><path codeLine="67" d="M1591.7,105.13 C1576.29,125.73 1554.86,154.37 1537.55,177.51 " fill="none" id="ott_client-to-ott_common" style="stroke:#181818;stroke-width:1.0;"/><polygon fill="#181818" points="1534.36,181.76,1542.96,176.96,1537.36,177.76,1536.56,172.16,1534.36,181.76" style="stroke:#181818;stroke-width:1.0;"/><text fill="#000000" font-family="sans-serif" font-size="13" lengthAdjust="spacing" textLength="55" x="1570" y="148.0669">depends</text></g><!--link ott_vis_panel to ott_vis--><g id="link_ott_vis_panel_ott_vis"><path codeLine="69" d="M1188.93,105.04 C1201.5,139.76 1218.94,201.77 1207,254 C1197.86,293.99 1175.86,335.83 1159.34,363.45 " fill="none" id="ott_vis_panel-to-ott_vis" style="stroke:#181818;stroke-width:1.0;"/><polygon fill="#181818" points="1156.74,367.75,1164.8143,362.1103,1159.323,363.4688,1157.9644,357.9775,1156.74,367.75" style="stroke:#181818;stroke-width:1.0;"/><text fill="#000000" font-family="sans-serif" font-size="13" lengthAdjust="spacing" textLength="55" x="1211" y="222.5669">depends</text></g><!--link ott_vis_datasource to ott_vis--><g id="link_ott_vis_datasource_ott_vis"><path codeLine="70" d="M1015.49,246.11 C1041.86,277.9 1085.46,330.46 1113.18,363.88 " fill="none" id="ott_vis_datasource-to-ott_vis" style="stroke:#181818;stroke-width:1.0;"/><polygon fill="#181818" points="1116.48,367.85,1113.8328,358.3636,1113.296,363.9949,1107.6646,363.458,1116.48,367.85" style="stroke:#181818;stroke-width:1.0;"/><text fill="#000000" font-family="sans-serif" font-size="13" lengthAdjust="spacing" textLength="55" x="1058" y="297.0669">depends</text></g><!--link ott_vis_panel to ott_vis_datasource--><g id="link_ott_vis_panel_ott_vis_datasource"><path codeLine="71" d="M1141.89,105.13 C1110.69,128.57 1065.66,162.41 1033.3,186.72 " fill="none" id="ott_vis_panel-to-ott_vis_datasource" style="stroke:#181818;stroke-width:1.0;stroke-dasharray:7.0,7.0;"/><polygon fill="#181818" points="1029.02,189.94,1038.6111,187.7016,1033.008,186.924,1033.7855,181.3209,1029.02,189.94" style="stroke:#181818;stroke-width:1.0;"/><text fill="#000000" font-family="sans-serif" font-size="13" lengthAdjust="spacing" textLength="47" x="1103" y="148.0669">queries</text></g><!--link ott_vis_datasource to ott_collector--><g id="link_ott_vis_datasource_ott_collector"><path codeLine="72" d="M925.83,246.11 C845.38,278.59 711.18,332.76 628.75,366.04 " fill="none" id="ott_vis_datasource-to-ott_collector" style="stroke:#181818;stroke-width:1.0;stroke-dasharray:7.0,7.0;"/><polygon fill="#181818" points="623.89,368,633.7332,368.3348,628.5254,366.1258,630.7344,360.9181,623.89,368" style="stroke:#181818;stroke-width:1.0;"/><text fill="#000000" font-family="sans-serif" font-size="13" lengthAdjust="spacing" textLength="47" x="827" y="297.0669">queries</text></g><!--link ott_collector to ott_balancer_bin--><g id="link_ott_collector_ott_balancer_bin"><path codeLine="73" d="M559.96,424.35 C562.9,451.48 567.4,493.04 570.51,521.76 " fill="none" id="ott_collector-to-ott_balancer_bin" style="stroke:#181818;stroke-width:1.0;stroke-dasharray:7.0,7.0;"/><polygon fill="#181818" points="571.07,526.97,574.096,517.5975,570.5414,521.998,566.1409,518.4433,571.07,526.97" style="stroke:#181818;stroke-width:1.0;"/><text fill="#000000" font-family="sans-serif" font-size="13" lengthAdjust="spacing" textLength="47" x="567" y="485.0669">queries</text></g><!--link Nodejs packages to Rust crates--><!--SRC=[ZLNBRjim4BphAnOvfGVv0u8WXxP0Jos28hSW42XoPREHbof9EN2B_djN51cPZ6KOC0oBd9bzpSgTwHLQkFavEW_I2e_k1lvM08EGhsABOBnlfDdl3JLsmZpp7S0NGrveSZ1VGJUIzDgGwBK_CkAbK6X5BqYYRGPhl96cZpgFrXoqGWV-EF2tsmcB2bhqRuWK47w7y3coGP22xuOCHzaLKPX9w5ofArhdhGYvWR1c91NkDNdSShNJCPViDMspI1TAY16UhaCthQOp3BXjHzqhpey_m1XXZv_ELzHC-QMwdiBlh2UZcvAFu3EPSBDxbDxOzz65PsxsqNdSW_CyTEZu_g3To0Fy4zeIbFvLLHSDyiCe_EMISZ39MPUyHmaFyrYdiPKEWMBOGSAXFSGn1yLU8_cGIH4h0fV6Pgue4mio9-0tR65TczkG5o6vz3BRh5V0Lke42HZwSSjRiQBQ388mEVzRf3o6ivaOfY1voym-3x2gg8GNpenMOY7xTRauqVuzeZrETZcTVPfqPlAwVlYm-dUWS41Ihe0-hApuWa_BML-FZRQV68czYha-WVlD9WSpHXgYi107BIPhE2DVqSz5HfzjIbfOwylKwBh4Z4gNEPbysQoJSavpomPLp2ZcKAzXgjoP2JTjG2vKUEqoS1PBXHVKks12ZMTr4sTvP-NmvNnb80bSVNnVrSyxhHJIYwhplxkg-Wy0]--></g></svg>