<?xml version="1.0" encoding="us-ascii" standalone="no"?><svg xmlns="http://www.w3.org/2000/svg" xmlns:xlink="http://www.w3.org/1999/xlink" contentStyleType="text/css" height="840px" preserveAspectRatio="none" style="width:997px;height:840px;background:#FFFFFF;" version="1.1" viewBox="0 0 997 840" width="997px" zoomAndPan="magnify"><defs/><g><!--cluster Rust crates--><g id="cluster_Rust crates"><path d="M60.5,295 L151.5,295 A3.75,3.75 0 0 1 154,297.5 L161,317.2969 L750.5,317.2969 A2.5,2.5 0 0 1 753,319.7969 L753,830.5 A2.5,2.5 0 0 1 750.5,833 L60.5,833 A2.5,2.5 0 0 1 58,830.5 L58,297.5 A2.5,2.5 0 0 1 60.5,295 " fill="none" style="stroke:#000000;stroke-width:1.5;"/><line style="stroke:#000000;stroke-width:1.5;" x1="58" x2="161" y1="317.2969" y2="317.2969"/><text fill="#000000" font-family="sans-serif" font-size="14" font-weight="bold" lengthAdjust="spacing" textLength="90" x="62" y="309.9951">Rust crates</text></g><!--cluster Nodejs packages--><g id="cluster_Nodejs packages"><path d="M8.5,6 L143.5,6 A3.75,3.75 0 0 1 146,8.5 L153,28.2969 L987.5,28.2969 A2.5,2.5 0 0 1 990,30.7969 L990,259.5 A2.5,2.5 0 0 1 987.5,262 L8.5,262 A2.5,2.5 0 0 1 6,259.5 L6,8.5 A2.5,2.5 0 0 1 8.5,6 " fill="none" style="stroke:#000000;stroke-width:1.5;"/><line style="stroke:#000000;stroke-width:1.5;" x1="6" x2="153" y1="28.2969" y2="28.2969"/><text fill="#000000" font-family="sans-serif" font-size="14" font-weight="bold" lengthAdjust="spacing" textLength="134" x="10" y="20.9951">Nodejs packages</text></g><!--entity ott_common_rust--><g id="elem_ott_common_rust"><path d="M373.5,761 L507.5,761 A3.75,3.75 0 0 1 510,763.5 L517,783.2969 L610.5,783.2969 A2.5,2.5 0 0 1 613,785.7969 L613,814.0938 A2.5,2.5 0 0 1 610.5,816.5938 L373.5,816.5938 A2.5,2.5 0 0 1 371,814.0938 L371,763.5 A2.5,2.5 0 0 1 373.5,761 " fill="#F1F1F1" style="stroke:#181818;stroke-width:0.5;"/><line style="stroke:#181818;stroke-width:0.5;" x1="371" x2="517" y1="783.2969" y2="783.2969"/><text fill="#000000" font-family="sans-serif" font-size="14" lengthAdjust="spacing" textLength="121" x="381" y="776.9951">ott_common_rust</text><text fill="#000000" font-family="sans-serif" font-size="14" lengthAdjust="spacing" textLength="212" x="381" y="803.292">Contains common functionality</text></g><!--entity ott_balancer_protocol--><g id="elem_ott_balancer_protocol"><path d="M91.5,612 L253.5,612 A3.75,3.75 0 0 1 256,614.5 L263,634.2969 L334.5,634.2969 A2.5,2.5 0 0 1 337,636.7969 L337,681.3906 A2.5,2.5 0 0 1 334.5,683.8906 L91.5,683.8906 A2.5,2.5 0 0 1 89,681.3906 L89,614.5 A2.5,2.5 0 0 1 91.5,612 " fill="#F1F1F1" style="stroke:#181818;stroke-width:0.5;"/><line style="stroke:#181818;stroke-width:0.5;" x1="89" x2="263" y1="634.2969" y2="634.2969"/><text fill="#000000" font-family="sans-serif" font-size="14" lengthAdjust="spacing" textLength="149" x="99" y="627.9951">ott_balancer_protocol</text><text fill="#000000" font-family="sans-serif" font-size="14" lengthAdjust="spacing" textLength="218" x="99" y="654.292">Provides types shared between</text><text fill="#000000" font-family="sans-serif" font-size="14" lengthAdjust="spacing" textLength="180" x="99" y="670.5889">the Balancer and Monolith</text></g><!--entity harness--><g id="elem_harness"><path d="M204,463 L273,463 A3.75,3.75 0 0 1 275.5,465.5 L282.5,485.2969 L446,485.2969 A2.5,2.5 0 0 1 448.5,487.7969 L448.5,532.3906 A2.5,2.5 0 0 1 446,534.8906 L204,534.8906 A2.5,2.5 0 0 1 201.5,532.3906 L201.5,465.5 A2.5,2.5 0 0 1 204,463 " fill="#F1F1F1" style="stroke:#181818;stroke-width:0.5;"/><line style="stroke:#181818;stroke-width:0.5;" x1="201.5" x2="282.5" y1="485.2969" y2="485.2969"/><text fill="#000000" font-family="sans-serif" font-size="14" lengthAdjust="spacing" textLength="56" x="211.5" y="478.9951">harness</text><text fill="#000000" font-family="sans-serif" font-size="14" lengthAdjust="spacing" textLength="193" x="211.5" y="505.292">Provides abstraction around</text><text fill="#000000" font-family="sans-serif" font-size="14" lengthAdjust="spacing" textLength="217" x="211.5" y="521.5889">integration testing the Balancer</text></g><!--entity ott_balancer--><g id="elem_ott_balancer"><path d="M431,620 L529,620 A3.75,3.75 0 0 1 531.5,622.5 L538.5,642.2969 L553,642.2969 A2.5,2.5 0 0 1 555.5,644.7969 L555.5,673.0938 A2.5,2.5 0 0 1 553,675.5938 L431,675.5938 A2.5,2.5 0 0 1 428.5,673.0938 L428.5,622.5 A2.5,2.5 0 0 1 431,620 " fill="#F1F1F1" style="stroke:#181818;stroke-width:0.5;"/><line style="stroke:#181818;stroke-width:0.5;" x1="428.5" x2="538.5" y1="642.2969" y2="642.2969"/><text fill="#000000" font-family="sans-serif" font-size="14" lengthAdjust="spacing" textLength="85" x="438.5" y="635.9951">ott_balancer</text><text fill="#000000" font-family="sans-serif" font-size="14" lengthAdjust="spacing" textLength="91" x="438.5" y="662.292">The Balancer</text></g><!--entity ott_balancer_bin--><g id="elem_ott_balancer_bin"><path d="M486,471 L612,471 A3.75,3.75 0 0 1 614.5,473.5 L621.5,493.2969 L734,493.2969 A2.5,2.5 0 0 1 736.5,495.7969 L736.5,524.0938 A2.5,2.5 0 0 1 734,526.5938 L486,526.5938 A2.5,2.5 0 0 1 483.5,524.0938 L483.5,473.5 A2.5,2.5 0 0 1 486,471 " fill="#F1F1F1" style="stroke:#181818;stroke-width:0.5;"/><line style="stroke:#181818;stroke-width:0.5;" x1="483.5" x2="621.5" y1="493.2969" y2="493.2969"/><text fill="#000000" font-family="sans-serif" font-size="14" lengthAdjust="spacing" textLength="113" x="493.5" y="486.9951">ott_balancer_bin</text><text fill="#000000" font-family="sans-serif" font-size="14" lengthAdjust="spacing" textLength="223" x="493.5" y="513.292">The Balancer (builds as a binary)</text></g><!--entity harness_tests--><g id="elem_harness_tests"><path d="M136.5,330 L247.5,330 A3.75,3.75 0 0 1 250,332.5 L257,352.2969 L393.5,352.2969 A2.5,2.5 0 0 1 396,354.7969 L396,383.0938 A2.5,2.5 0 0 1 393.5,385.5938 L136.5,385.5938 A2.5,2.5 0 0 1 134,383.0938 L134,332.5 A2.5,2.5 0 0 1 136.5,330 " fill="#F1F1F1" style="stroke:#181818;stroke-width:0.5;"/><line style="stroke:#181818;stroke-width:0.5;" x1="134" x2="257" y1="352.2969" y2="352.2969"/><text fill="#000000" font-family="sans-serif" font-size="14" lengthAdjust="spacing" textLength="98" x="144" y="345.9951">harness_tests</text><text fill="#000000" font-family="sans-serif" font-size="14" lengthAdjust="spacing" textLength="232" x="144" y="372.292">Tests the Balancer using harness</text></g><!--entity ott_common--><g id="elem_ott_common"><path d="M25,174 L125,174 A3.75,3.75 0 0 1 127.5,176.5 L134.5,196.2969 L333,196.2969 A2.5,2.5 0 0 1 335.5,198.7969 L335.5,243.3906 A2.5,2.5 0 0 1 333,245.8906 L25,245.8906 A2.5,2.5 0 0 1 22.5,243.3906 L22.5,176.5 A2.5,2.5 0 0 1 25,174 " fill="#F1F1F1" style="stroke:#181818;stroke-width:0.5;"/><line style="stroke:#181818;stroke-width:0.5;" x1="22.5" x2="134.5" y1="196.2969" y2="196.2969"/><text fill="#000000" font-family="sans-serif" font-size="14" lengthAdjust="spacing" textLength="87" x="32.5" y="189.9951">ott_common</text><text fill="#000000" font-family="sans-serif" font-size="14" lengthAdjust="spacing" textLength="221" x="32.5" y="216.292">Common types and functionality</text><text fill="#000000" font-family="sans-serif" font-size="14" lengthAdjust="spacing" textLength="283" x="32.5" y="232.5889">shared between ott_server and ott_client</text></g><!--entity ott_server--><g id="elem_ott_server"><path d="M429.5,182 L511.5,182 A3.75,3.75 0 0 1 514,184.5 L521,204.2969 L544.5,204.2969 A2.5,2.5 0 0 1 547,206.7969 L547,235.0938 A2.5,2.5 0 0 1 544.5,237.5938 L429.5,237.5938 A2.5,2.5 0 0 1 427,235.0938 L427,184.5 A2.5,2.5 0 0 1 429.5,182 " fill="#F1F1F1" style="stroke:#181818;stroke-width:0.5;"/><line style="stroke:#181818;stroke-width:0.5;" x1="427" x2="521" y1="204.2969" y2="204.2969"/><text fill="#000000" font-family="sans-serif" font-size="14" lengthAdjust="spacing" textLength="69" x="437" y="197.9951">ott_server</text><text fill="#000000" font-family="sans-serif" font-size="14" lengthAdjust="spacing" textLength="90" x="437" y="224.292">The Monolith</text></g><!--entity ott_client--><g id="elem_ott_client"><path d="M218,41 L294,41 A3.75,3.75 0 0 1 296.5,43.5 L303.5,63.2969 L344,63.2969 A2.5,2.5 0 0 1 346.5,65.7969 L346.5,94.0938 A2.5,2.5 0 0 1 344,96.5938 L218,96.5938 A2.5,2.5 0 0 1 215.5,94.0938 L215.5,43.5 A2.5,2.5 0 0 1 218,41 " fill="#F1F1F1" style="stroke:#181818;stroke-width:0.5;"/><line style="stroke:#181818;stroke-width:0.5;" x1="215.5" x2="303.5" y1="63.2969" y2="63.2969"/><text fill="#000000" font-family="sans-serif" font-size="14" lengthAdjust="spacing" textLength="63" x="225.5" y="56.9951">ott_client</text><text fill="#000000" font-family="sans-serif" font-size="14" lengthAdjust="spacing" textLength="101" x="225.5" y="83.292">The web client</text></g><!--entity ott_vis--><g id="elem_ott_vis"><path d="M608.5,41 L665.5,41 A3.75,3.75 0 0 1 668,43.5 L675,63.2969 L947.5,63.2969 A2.5,2.5 0 0 1 950,65.7969 L950,94.0938 A2.5,2.5 0 0 1 947.5,96.5938 L608.5,96.5938 A2.5,2.5 0 0 1 606,94.0938 L606,43.5 A2.5,2.5 0 0 1 608.5,41 " fill="#F1F1F1" style="stroke:#181818;stroke-width:0.5;"/><line style="stroke:#181818;stroke-width:0.5;" x1="606" x2="675" y1="63.2969" y2="63.2969"/><text fill="#000000" font-family="sans-serif" font-size="14" lengthAdjust="spacing" textLength="44" x="616" y="56.9951">ott_vis</text><text fill="#000000" font-family="sans-serif" font-size="14" lengthAdjust="spacing" textLength="314" x="616" y="83.292">Grafana Panel plugin for custom visualizations</text></g><!--entity ott_vis_datasource--><g id="elem_ott_vis_datasource"><path d="M584.5,182 L726.5,182 A3.75,3.75 0 0 1 729,184.5 L736,204.2969 L971.5,204.2969 A2.5,2.5 0 0 1 974,206.7969 L974,235.0938 A2.5,2.5 0 0 1 971.5,237.5938 L584.5,237.5938 A2.5,2.5 0 0 1 582,235.0938 L582,184.5 A2.5,2.5 0 0 1 584.5,182 " fill="#F1F1F1" style="stroke:#181818;stroke-width:0.5;"/><line style="stroke:#181818;stroke-width:0.5;" x1="582" x2="736" y1="204.2969" y2="204.2969"/><text fill="#000000" font-family="sans-serif" font-size="14" lengthAdjust="spacing" textLength="129" x="592" y="197.9951">ott_vis_datasource</text><text fill="#000000" font-family="sans-serif" font-size="14" lengthAdjust="spacing" textLength="362" x="592" y="224.292">Grafana Datasource plugin for querying system state</text></g><!--link ott_balancer to ott_common_rust--><g id="link_ott_balancer_ott_common_rust"><path codeLine="49" d="M492,676.13 C492,699 492,731.76 492,755.92 " fill="none" id="ott_balancer-to-ott_common_rust" style="stroke:#181818;stroke-width:1.0;"/><polygon fill="#181818" points="492,760.94,496,751.94,492,755.94,488,751.94,492,760.94" style="stroke:#181818;stroke-width:1.0;"/><text fill="#000000" font-family="sans-serif" font-size="13" lengthAdjust="spacing" textLength="55" x="493" y="727.0669">depends</text></g><!--link ott_balancer to ott_balancer_protocol--><g id="link_ott_balancer_ott_balancer_protocol"><path codeLine="50" d="M428.2,648 C402.69,648 372.32,648 342.56,648 " fill="none" id="ott_balancer-to-ott_balancer_protocol" style="stroke:#181818;stroke-width:1.0;"/><polygon fill="#181818" points="337.4,648,346.4,652,342.4,648,346.4,644,337.4,648" style="stroke:#181818;stroke-width:1.0;"/><text fill="#000000" font-family="sans-serif" font-size="13" lengthAdjust="spacing" textLength="55" x="355.25" y="641.0669">depends</text></g><!--link harness to ott_balancer_protocol--><g id="link_harness_ott_balancer_protocol"><path codeLine="51" d="M274.59,535.07 C264.18,543.96 253.98,554.11 246,565 C236.79,577.57 229.7,593.06 224.49,607.19 " fill="none" id="harness-to-ott_balancer_protocol" style="stroke:#181818;stroke-width:1.0;"/><polygon fill="#181818" points="222.79,611.92,229.5867,604.7923,224.4735,607.2119,222.0538,602.0987,222.79,611.92" style="stroke:#181818;stroke-width:1.0;"/><text fill="#000000" font-family="sans-serif" font-size="13" lengthAdjust="spacing" textLength="55" x="247" y="578.0669">depends</text></g><!--link harness_tests to harness--><g id="link_harness_tests_harness"><path codeLine="52" d="M276.71,386.13 C285.53,406.56 297.76,434.89 307.7,457.93 " fill="none" id="harness_tests-to-harness" style="stroke:#181818;stroke-width:1.0;"/><polygon fill="#181818" points="309.79,462.76,309.8955,452.9117,307.8084,458.1695,302.5506,456.0823,309.79,462.76" style="stroke:#181818;stroke-width:1.0;"/><text fill="#000000" font-family="sans-serif" font-size="13" lengthAdjust="spacing" textLength="55" x="297" y="429.0669">depends</text></g><!--link harness_tests to ott_balancer_protocol--><g id="link_harness_tests_ott_balancer_protocol"><path codeLine="53" d="M207.43,386.05 C177.56,403.45 143.87,429.17 127,463 C102.33,512.48 140.14,570.37 173.15,607.81 " fill="none" id="harness_tests-to-ott_balancer_protocol" style="stroke:#181818;stroke-width:1.0;"/><polygon fill="#181818" points="176.73,611.82,173.6825,602.4545,173.3852,608.1035,167.7361,607.8062,176.73,611.82" style="stroke:#181818;stroke-width:1.0;"/><text fill="#000000" font-family="sans-serif" font-size="13" lengthAdjust="spacing" textLength="55" x="128" y="503.5669">depends</text></g><!--link harness to ott_balancer--><g id="link_harness_ott_balancer"><path codeLine="54" d="M346.03,539.83 C354.91,554.25 366.18,569.93 379,582 C393.51,595.66 411.4,607.61 428.64,617.41 " fill="none" id="harness-ott_balancer" style="stroke:#181818;stroke-width:1.0;stroke-dasharray:7.0,7.0;"/><polygon fill="#181818" points="343.35,535.41,344.5744,545.1825,345.933,539.6912,351.4243,541.0497,343.35,535.41" style="stroke:#181818;stroke-width:1.0;"/><polygon fill="#181818" points="433,619.86,427.1058,611.9696,428.6387,617.4148,423.1935,618.9477,433,619.86" style="stroke:#181818;stroke-width:1.0;"/><text fill="#000000" font-family="sans-serif" font-size="13" lengthAdjust="spacing" textLength="158" x="380" y="578.0669">connects via websockets</text></g><!--link ott_server to ott_balancer_bin--><g id="link_ott_server_ott_balancer_bin"><path codeLine="55" d="M497.79,238.11 C511.61,272.62 536.47,334 559,386 C570.81,413.27 584.85,443.97 595.2,466.33 " fill="none" id="ott_server-to-ott_balancer_bin" style="stroke:#181818;stroke-width:1.0;stroke-dasharray:7.0,7.0;"/><polygon fill="#181818" points="597.35,470.97,597.1789,461.1226,595.2403,466.4369,589.926,464.4982,597.35,470.97" style="stroke:#181818;stroke-width:1.0;"/><text fill="#000000" font-family="sans-serif" font-size="13" lengthAdjust="spacing" textLength="158" x="560" y="362.5669">connects via websockets</text></g><!--link ott_client to ott_server--><g id="link_ott_client_ott_server"><path codeLine="56" d="M321.21,97.13 C356.09,120.67 406.5,154.68 442.57,179.02 " fill="none" id="ott_client-to-ott_server" style="stroke:#181818;stroke-width:1.0;stroke-dasharray:7.0,7.0;"/><polygon fill="#181818" points="446.89,181.94,441.6732,173.5863,442.7474,179.1402,437.1935,180.2144,446.89,181.94" style="stroke:#181818;stroke-width:1.0;"/><text fill="#000000" font-family="sans-serif" font-size="13" lengthAdjust="spacing" textLength="158" x="391" y="140.0669">connects via websockets</text></g><!--link ott_balancer_bin to ott_balancer--><g id="link_ott_balancer_bin_ott_balancer"><path codeLine="57" d="M588.08,527.31 C567.96,552.37 538.17,589.48 517.1,615.73 " fill="none" id="ott_balancer_bin-to-ott_balancer" style="stroke:#181818;stroke-width:1.0;"/><polygon fill="#181818" points="513.8,619.84,522.5518,615.3227,516.9287,615.9398,516.3115,610.3168,513.8,619.84" style="stroke:#181818;stroke-width:1.0;"/><text fill="#000000" font-family="sans-serif" font-size="13" lengthAdjust="spacing" textLength="55" x="555" y="578.0669">depends</text></g><!--link ott_server to ott_common--><g id="link_ott_server_ott_common"><path codeLine="59" d="M426.68,210 C401.78,210 371.61,210 341.02,210 " fill="none" id="ott_server-to-ott_common" style="stroke:#181818;stroke-width:1.0;"/><polygon fill="#181818" points="335.71,210,344.71,214,340.71,210,344.71,206,335.71,210" style="stroke:#181818;stroke-width:1.0;"/><text fill="#000000" font-family="sans-serif" font-size="13" lengthAdjust="spacing" textLength="55" x="353.75" y="203.0669">depends</text></g><!--link ott_client to ott_common--><g id="link_ott_client_ott_common"><path codeLine="60" d="M261.09,97.13 C245.97,117.73 224.96,146.37 207.98,169.51 " fill="none" id="ott_client-to-ott_common" style="stroke:#181818;stroke-width:1.0;"/><polygon fill="#181818" points="204.86,173.76,213.4019,168.8573,207.8119,169.7244,206.9448,164.1343,204.86,173.76" style="stroke:#181818;stroke-width:1.0;"/><text fill="#000000" font-family="sans-serif" font-size="13" lengthAdjust="spacing" textLength="55" x="240" y="140.0669">depends</text></g><!--link ott_vis to ott_vis_datasource--><g id="link_ott_vis_ott_vis_datasource"><path codeLine="62" d="M778,97.13 C778,120 778,152.76 778,176.92 " fill="none" id="ott_vis-to-ott_vis_datasource" style="stroke:#181818;stroke-width:1.0;stroke-dasharray:7.0,7.0;"/><polygon fill="#181818" points="778,181.94,782,172.94,778,176.94,774,172.94,778,181.94" style="stroke:#181818;stroke-width:1.0;"/><text fill="#000000" font-family="sans-serif" font-size="13" lengthAdjust="spacing" textLength="47" x="779" y="140.0669">queries</text></g><!--link ott_vis_datasource to ott_balancer_bin--><g id="link_ott_vis_datasource_ott_balancer_bin"><path codeLine="63" d="M773.67,238.18 C767.05,274.1 752,338.4 723,386 C703.7,417.68 673.54,446.95 649.24,467.62 " fill="none" id="ott_vis_datasource-to-ott_balancer_bin" style="stroke:#181818;stroke-width:1.0;stroke-dasharray:7.0,7.0;"/><polygon fill="#181818" points="645.39,470.86,654.8498,468.1192,649.2134,467.638,649.6946,462.0016,645.39,470.86" style="stroke:#181818;stroke-width:1.0;"/><text fill="#000000" font-family="sans-serif" font-size="13" lengthAdjust="spacing" textLength="119" x="763" y="362.5669">collects state from</text></g><!--SRC=[ZLF1Rjim3BtxAuYUkaFo0KNHmpPWfmt5qDim6BH49rfbqfFa5DwmVv-io4kinK408x2ZnyT7lgTMh2O7Try77q0v3EJlu7S5qADwnHs1X50hwJhXsasOR_4Cu8DmGCCUZaVG3go24KPhmXWHtmk61Yso8bVtJe8eiPddsSd1QF8GnZx- -Zqwqj1GU2FYX0XxWlUv6f0rV1QMs6LVT8cLJDwNlDZuu31f0tGoi4xdXWFjuhJJtt7aO7Ytw7HbXDpXvJPqtHY-K07tpM2iZlhY0n63RdntUQ9wqZVFzPBU5piP_2G-WnF5dwfgiwrVHDCFFrCcQozw-y_Mz74qOrfswIiK5YKAJ-wGpKcCrX27fAJebO6dTIoyB8KbcZFm6pMmpdqmyuu-EMoH4PwHoK9lXrsqe1K7AkPNEeZ88SxpAxdlLxXgZG6z34vHGVlnT736_NCWDqv6-D47wi27U9LcDnRnsMoU_hjK3w2f9zQ-W3wjN9uJVexzvdPi3jHKCLUlOcuNyBZTBi4HeuIPLEGv69piyw9UAHo7p5dObcNfmbmlpScOApFJzPe5VRciit7EjIsCAZpA6ZPhc6hEvAoooDH3IemXNrquNDs9jMc-52vedNHLzHS0]--></g></svg>