<svg aria-roledescription="classDiagram" role="graphics-document document" viewBox="-8 -8 1257.716796875 649" style="max-width: 1257.72px; background-color: white;" xmlns:xlink="http://www.w3.org/1999/xlink" xmlns="http://www.w3.org/2000/svg" width="100%" id="my-svg"><style>#my-svg{font-family:"trebuchet ms",verdana,arial,sans-serif;font-size:16px;fill:#000000;}#my-svg .error-icon{fill:#552222;}#my-svg .error-text{fill:#552222;stroke:#552222;}#my-svg .edge-thickness-normal{stroke-width:2px;}#my-svg .edge-thickness-thick{stroke-width:3.5px;}#my-svg .edge-pattern-solid{stroke-dasharray:0;}#my-svg .edge-pattern-dashed{stroke-dasharray:3;}#my-svg .edge-pattern-dotted{stroke-dasharray:2;}#my-svg .marker{fill:#666;stroke:#666;}#my-svg .marker.cross{stroke:#666;}#my-svg svg{font-family:"trebuchet ms",verdana,arial,sans-serif;font-size:16px;}#my-svg g.classGroup text{fill:#999;fill:#111111;stroke:none;font-family:"trebuchet ms",verdana,arial,sans-serif;font-size:10px;}#my-svg g.classGroup text .title{font-weight:bolder;}#my-svg .nodeLabel,#my-svg .edgeLabel{color:#111111;}#my-svg .edgeLabel .label rect{fill:#eee;}#my-svg .label text{fill:#111111;}#my-svg .edgeLabel .label span{background:#eee;}#my-svg .classTitle{font-weight:bolder;}#my-svg .node rect,#my-svg .node circle,#my-svg .node ellipse,#my-svg .node polygon,#my-svg .node path{fill:#eee;stroke:#999;stroke-width:1px;}#my-svg .divider{stroke:#999;stroke-width:1;}#my-svg g.clickable{cursor:pointer;}#my-svg g.classGroup rect{fill:#eee;stroke:#999;}#my-svg g.classGroup line{stroke:#999;stroke-width:1;}#my-svg .classLabel .box{stroke:none;stroke-width:0;fill:#eee;opacity:0.5;}#my-svg .classLabel .label{fill:#999;font-size:10px;}#my-svg .relation{stroke:#666;stroke-width:1;fill:none;}#my-svg .dashed-line{stroke-dasharray:3;}#my-svg .dotted-line{stroke-dasharray:1 2;}#my-svg #compositionStart,#my-svg .composition{fill:#666!important;stroke:#666!important;stroke-width:1;}#my-svg #compositionEnd,#my-svg .composition{fill:#666!important;stroke:#666!important;stroke-width:1;}#my-svg #dependencyStart,#my-svg .dependency{fill:#666!important;stroke:#666!important;stroke-width:1;}#my-svg #dependencyStart,#my-svg .dependency{fill:#666!important;stroke:#666!important;stroke-width:1;}#my-svg #extensionStart,#my-svg .extension{fill:#eee!important;stroke:#666!important;stroke-width:1;}#my-svg #extensionEnd,#my-svg .extension{fill:#eee!important;stroke:#666!important;stroke-width:1;}#my-svg #aggregationStart,#my-svg .aggregation{fill:#eee!important;stroke:#666!important;stroke-width:1;}#my-svg #aggregationEnd,#my-svg .aggregation{fill:#eee!important;stroke:#666!important;stroke-width:1;}#my-svg #lollipopStart,#my-svg .lollipop{fill:#eee!important;stroke:#666!important;stroke-width:1;}#my-svg #lollipopEnd,#my-svg .lollipop{fill:#eee!important;stroke:#666!important;stroke-width:1;}#my-svg .edgeTerminals{font-size:11px;}#my-svg .classTitleText{text-anchor:middle;font-size:18px;fill:#000000;}#my-svg :root{--mermaid-font-family:"trebuchet ms",verdana,arial,sans-serif;}</style><g><defs><marker orient="auto" markerHeight="240" markerWidth="190" refY="7" refX="0" class="marker aggregation classDiagram" id="classDiagram-aggregationStart"><path d="M 18,7 L9,13 L1,7 L9,1 Z"/></marker></defs><defs><marker orient="auto" markerHeight="28" markerWidth="20" refY="7" refX="19" class="marker aggregation classDiagram" id="classDiagram-aggregationEnd"><path d="M 18,7 L9,13 L1,7 L9,1 Z"/></marker></defs><defs><marker orient="auto" markerHeight="240" markerWidth="190" refY="7" refX="0" class="marker extension classDiagram" id="classDiagram-extensionStart"><path d="M 1,7 L18,13 V 1 Z"/></marker></defs><defs><marker orient="auto" markerHeight="28" markerWidth="20" refY="7" refX="19" class="marker extension classDiagram" id="classDiagram-extensionEnd"><path d="M 1,1 V 13 L18,7 Z"/></marker></defs><defs><marker orient="auto" markerHeight="240" markerWidth="190" refY="7" refX="0" class="marker composition classDiagram" id="classDiagram-compositionStart"><path d="M 18,7 L9,13 L1,7 L9,1 Z"/></marker></defs><defs><marker orient="auto" markerHeight="28" markerWidth="20" refY="7" refX="19" class="marker composition classDiagram" id="classDiagram-compositionEnd"><path d="M 18,7 L9,13 L1,7 L9,1 Z"/></marker></defs><defs><marker orient="auto" markerHeight="240" markerWidth="190" refY="7" refX="0" class="marker dependency classDiagram" id="classDiagram-dependencyStart"><path d="M 5,7 L9,13 L1,7 L9,1 Z"/></marker></defs><defs><marker orient="auto" markerHeight="28" markerWidth="20" refY="7" refX="19" class="marker dependency classDiagram" id="classDiagram-dependencyEnd"><path d="M 18,7 L9,13 L14,7 L9,1 Z"/></marker></defs><defs><marker orient="auto" markerHeight="240" markerWidth="190" refY="7" refX="0" class="marker lollipop classDiagram" id="classDiagram-lollipopStart"><circle r="6" cy="7" cx="6" fill="white" stroke="black"/></marker></defs><g class="root"><g class="clusters"/><g class="edgePaths"><path marker-end="url(#classDiagram-extensionEnd)" style="fill:none" class="edge-pattern-solid relation" id="id1" d="M349.6879400321146,194L342.8906661725955,199.58333333333334C336.09339231307644,205.16666666666666,322.4988445940382,216.33333333333334,315.70157073451907,229.25C308.904296875,242.16666666666666,308.904296875,256.8333333333333,308.904296875,264.1666666666667L308.904296875,271.5"/><path marker-end="url(#classDiagram-aggregationEnd)" style="fill:none" class="edge-pattern-solid relation" id="id2" d="M202.09093225049406,194L186.43254770874503,199.58333333333334C170.77416316699603,205.16666666666666,139.45739408349803,216.33333333333334,123.799009541749,237.41666666666666C108.140625,258.5,108.140625,289.5,108.140625,320.5C108.140625,351.5,108.140625,382.5,109.16170536890645,410.9166666666667C110.18278573781292,439.3333333333333,112.22494647562583,465.1666666666667,113.2460268445323,478.0833333333333L114.26710721343873,491"/><path marker-end="url(#classDiagram-dependencyEnd)" style="fill:none" class="edge-pattern-solid relation" id="id3" d="M373.17975050403226,369.5L382.7992061491935,376.8333333333333C392.4186617943548,384.1666666666667,411.6575730846774,398.8333333333333,428.0743025893578,411.75C444.4910320940382,424.6666666666667,458.08557981307644,435.8333333333333,464.8828536725955,441.4166666666667L471.6801275321146,447"/><path marker-end="url(#classDiagram-dependencyEnd)" style="fill:none" class="edge-pattern-solid relation" id="id4" d="M576.1284662178854,194L582.9257400774045,199.58333333333334C589.7230139369236,205.16666666666666,603.3175616559619,216.33333333333334,610.1148355154809,237.41666666666666C616.912109375,258.5,616.912109375,289.5,616.912109375,320.5C616.912109375,351.5,616.912109375,382.5,615.4992074275362,403.5833333333333C614.0863054800725,424.6666666666667,611.2605015851449,435.8333333333333,609.8475996376811,441.4166666666667L608.4346976902174,447"/><path marker-end="url(#classDiagram-compositionEnd)" style="fill:none" class="edge-pattern-solid relation" id="id5" d="M262.90916918682797,369.5L256.02554463485666,376.8333333333333C249.14192008288532,384.1666666666667,235.37467097894265,398.8333333333333,217.9262549147019,419.0833333333333C200.47783885046113,439.3333333333333,179.34825582592225,465.1666666666667,168.78346431365284,478.0833333333333L158.2186728013834,491"/><path marker-end="url(#classDiagram-dependencyEnd)" style="fill:none" class="edge-pattern-solid relation" id="id6" d="M718.3566653285573,194L733.692728919631,199.58333333333334C749.0287925107049,205.16666666666666,779.7009196928524,216.33333333333334,808.7758105688723,227.5C837.8507014448925,238.66666666666666,865.3283560147851,249.83333333333334,879.0671832997313,255.41666666666666L892.8060105846774,261"/><path marker-end="url(#classDiagram-dependencyEnd)" style="fill:none" class="edge-pattern-solid relation" id="id7" d="M1039.216796875,380L1039.216796875,385.5833333333333C1039.216796875,391.1666666666667,1039.216796875,402.3333333333333,1039.216796875,419.0833333333333C1039.216796875,435.8333333333333,1039.216796875,458.1666666666667,1039.216796875,469.3333333333333L1039.216796875,480.5"/><path style="fill:none" class="edge-pattern-dotted relation" id="edgeNote8" d="M1057.220703125,125L1057.220703125,142.08333333333334C1057.220703125,159.16666666666666,1057.220703125,193.33333333333334,1056.1398234487008,216C1055.0589437724013,238.66666666666666,1052.897184419803,249.83333333333334,1051.8163047435035,255.41666666666666L1050.7354250672042,261"/></g><g class="edgeLabels"><g transform="translate(308.904296875, 227.5)" class="edgeLabel"><g transform="translate(-22.6875, -8.5)" class="label"><rect height="17.646902084350586" width="45.37100601196289" ry="0" rx="0"/><text style=""><tspan class="row" x="0" dy="1em" xml:space="preserve">Sends</tspan></text></g></g><g class="edgeLabel"><g transform="translate(0, 0)" class="label"><rect height="0" width="0" ry="0" rx="0"/><text style=""><tspan class="row" x="0" dy="1em" xml:space="preserve"/></text></g></g><g transform="translate(430.896484375, 413.5)" class="edgeLabel"><g transform="translate(-44.0234375, -8.5)" class="label"><rect height="17.646902084350586" width="88.03070068359375" ry="0" rx="0"/><text style=""><tspan class="row" x="0" dy="1em" xml:space="preserve">Received by</tspan></text></g></g><g transform="translate(616.912109375, 320.5)" class="edgeLabel"><g transform="translate(-113.4140625, -8.5)" class="label"><rect height="17.646902084350586" width="226.7276153564453" ry="0" rx="0"/><text style=""><tspan class="row" x="0" dy="1em" xml:space="preserve">Connected via one way channel</tspan></text></g></g><g class="edgeLabel"><g transform="translate(0, 0)" class="label"><rect height="0" width="0" ry="0" rx="0"/><text style=""><tspan class="row" x="0" dy="1em" xml:space="preserve"/></text></g></g><g transform="translate(810.373046875, 227.5)" class="edgeLabel"><g transform="translate(-16.0078125, -8.5)" class="label"><rect height="17.646902084350586" width="32.017887115478516" ry="0" rx="0"/><text style=""><tspan class="row" x="0" dy="1em" xml:space="preserve">calls</tspan></text></g></g><g class="edgeLabel"><g transform="translate(0, 0)" class="label"><rect height="0" width="0" ry="0" rx="0"/><text style=""><tspan class="row" x="0" dy="1em" xml:space="preserve"/></text></g></g><g class="edgeLabel"><g transform="translate(0, 0)" class="label"><rect height="0" width="0" ry="0" rx="0"/><text style=""><tspan class="row" x="0" dy="1em" xml:space="preserve"/></text></g></g></g><g class="nodes"><g transform="translate(1039.216796875, 320.5)" id="classId-MonolithDiscoverer-0" class="node default"><rect height="119" width="405" y="-59.5" x="-202.5" class="outer title-state"/><line y2="-9.5" y1="-9.5" x2="202.5" x1="-202.5" class="divider"/><line y2="6.5" y1="6.5" x2="202.5" x1="-202.5" class="divider"/><g class="label"><text transform="translate( -22.28515625, -52)" style=""><tspan class="title-row" x="0" dy="1em" xml:space="preserve">«trait»</tspan></text><text transform="translate( -74.6796875, -31)" class="classTitle" style=""><tspan class="title-row" x="0" dy="1em" xml:space="preserve">MonolithDiscoverer</tspan></text><text transform="translate( -195, 14)" style=""><tspan class="title-row" x="0" dy="1em" xml:space="preserve">+discover() : Result&lt;Vec&lt;MonolithConnectionConfig&gt;&gt;</tspan></text><text transform="translate( -195, 35)" style=""><tspan class="title-row" x="0" dy="1em" xml:space="preserve">+mode() : DiscoveryMode</tspan></text></g></g><g transform="translate(1039.216796875, 540)" id="classId-DiscoveryMode-1" class="node default"><rect height="119" width="133.3671875" y="-59.5" x="-66.68359375" class="outer title-state"/><line y2="-9.5" y1="-9.5" x2="66.68359375" x1="-66.68359375" class="divider"/><line y2="48.5" y1="48.5" x2="66.68359375" x1="-66.68359375" class="divider"/><g class="label"><text transform="translate( -28.9609375, -52)" style=""><tspan class="title-row" x="0" dy="1em" xml:space="preserve">«enum»</tspan></text><text transform="translate( -59.18359375, -31)" class="classTitle" style=""><tspan class="title-row" x="0" dy="1em" xml:space="preserve">DiscoveryMode</tspan></text><text transform="translate( -59.18359375, 2)" style=""><tspan class="title-row" x="0" dy="1em" xml:space="preserve">+Polling</tspan></text><text transform="translate( -59.18359375, 23)" style=""><tspan class="title-row" x="0" dy="1em" xml:space="preserve">+Continuous</tspan></text></g></g><g transform="translate(462.908203125, 101)" id="classId-DiscoveryTask-2" class="node default"><rect height="186" width="608.265625" y="-93" x="-304.1328125" class="outer title-state"/><line y2="-64" y1="-64" x2="304.1328125" x1="-304.1328125" class="divider"/><line y2="16" y1="16" x2="304.1328125" x1="-304.1328125" class="divider"/><g class="label"><text style=""><tspan class="title-row" x="0" dy="1em" xml:space="preserve"/></text><text transform="translate( -55.9375, -85.5)" class="classTitle" style=""><tspan class="title-row" x="0" dy="1em" xml:space="preserve">DiscoveryTask</tspan></text><text transform="translate( -296.6328125, -52.5)" style=""><tspan class="title-row" x="0" dy="1em" xml:space="preserve">discovery: dyn MonolithDiscovery</tspan></text><text transform="translate( -296.6328125, -31.5)" style=""><tspan class="title-row" x="0" dy="1em" xml:space="preserve">monoliths: HashSet&lt;MonolithConnectionConfig&gt;</tspan></text><text transform="translate( -296.6328125, -10.5)" style=""><tspan class="title-row" x="0" dy="1em" xml:space="preserve">discovery_tx: Sender&lt;MonolithDiscoveryMsg&gt;</tspan></text><text transform="translate( -296.6328125, 23.5)" style=""><tspan class="title-row" x="0" dy="1em" xml:space="preserve">+new(discovery: MonolithDiscovery, discovery_tx: Sender&lt;MonolithDiscoveryMsg&gt;)</tspan></text><text transform="translate( -296.6328125, 45.5)" style=""><tspan class="title-row" x="0" dy="1em" xml:space="preserve">+do_continuous_discovery()</tspan></text><text transform="translate( -296.6328125, 67.5)" style=""><tspan class="title-row" x="0" dy="1em" xml:space="preserve">-do_discovery()</tspan></text></g></g><g transform="translate(308.904296875, 320.5)" id="classId-MonolithDiscoveryMsg-3" class="node default"><rect height="98" width="319.1875" y="-49" x="-159.59375" class="outer title-state"/><line y2="-20" y1="-20" x2="159.59375" x1="-159.59375" class="divider"/><line y2="38" y1="38" x2="159.59375" x1="-159.59375" class="divider"/><g class="label"><text style=""><tspan class="title-row" x="0" dy="1em" xml:space="preserve"/></text><text transform="translate( -87.5703125, -41.5)" class="classTitle" style=""><tspan class="title-row" x="0" dy="1em" xml:space="preserve">MonolithDiscoveryMsg</tspan></text><text transform="translate( -152.09375, -8.5)" style=""><tspan class="title-row" x="0" dy="1em" xml:space="preserve">added: Vec&lt;MonolithConnectionConfig&gt;</tspan></text><text transform="translate( -152.09375, 12.5)" style=""><tspan class="title-row" x="0" dy="1em" xml:space="preserve">removed: Vec&lt;MonolithConnectionConfig&gt;</tspan></text></g></g><g transform="translate(584.900390625, 540)" id="classId-MonolithConnectionManager-4" class="node default"><rect height="186" width="581.5546875" y="-93" x="-290.77734375" class="outer title-state"/><line y2="-64" y1="-64" x2="290.77734375" x1="-290.77734375" class="divider"/><line y2="38" y1="38" x2="290.77734375" x1="-290.77734375" class="divider"/><g class="label"><text style=""><tspan class="title-row" x="0" dy="1em" xml:space="preserve"/></text><text transform="translate( -110.21875, -85.5)" class="classTitle" style=""><tspan class="title-row" x="0" dy="1em" xml:space="preserve">MonolithConnectionManager</tspan></text><text transform="translate( -283.27734375, -52.5)" style=""><tspan class="title-row" x="0" dy="1em" xml:space="preserve">discovery_rx: Receiver&lt;MonolithDiscoveryMsg&gt;</tspan></text><text transform="translate( -283.27734375, -30.5)" style=""><tspan class="title-row" x="0" dy="1em" xml:space="preserve">link: BalancerLink</tspan></text><text transform="translate( -283.27734375, -9.5)" style=""><tspan class="title-row" x="0" dy="1em" xml:space="preserve">monoliths: HashSet&lt;MonolithConnectionConfig&gt;</tspan></text><text transform="translate( -283.27734375, 11.5)" style=""><tspan class="title-row" x="0" dy="1em" xml:space="preserve">connection_tasks: HashMap</tspan></text><text transform="translate( -283.27734375, 45.5)" style=""><tspan class="title-row" x="0" dy="1em" xml:space="preserve">+new(discovery_rx: Receiver&lt;MonolithDiscoveryMsg&gt;, link: BalancerLink) : Self</tspan></text><text transform="translate( -283.27734375, 67.5)" style=""><tspan class="title-row" x="0" dy="1em" xml:space="preserve">+do_connection_job()</tspan></text></g></g><g transform="translate(118.140625, 540)" id="classId-MonolithConnectionConfig-5" class="node default"><rect height="98" width="220.28125" y="-49" x="-110.140625" class="outer title-state"/><line y2="-20" y1="-20" x2="110.140625" x1="-110.140625" class="divider"/><line y2="38" y1="38" x2="110.140625" x1="-110.140625" class="divider"/><g class="label"><text style=""><tspan class="title-row" x="0" dy="1em" xml:space="preserve"/></text><text transform="translate( -102.640625, -41.5)" class="classTitle" style=""><tspan class="title-row" x="0" dy="1em" xml:space="preserve">MonolithConnectionConfig</tspan></text><text transform="translate( -102.640625, -8.5)" style=""><tspan class="title-row" x="0" dy="1em" xml:space="preserve">host: HostOrIp</tspan></text><text transform="translate( -102.640625, 12.5)" style=""><tspan class="title-row" x="0" dy="1em" xml:space="preserve">port: u16</tspan></text></g></g><g transform="translate(1057.220703125, 101)" id="note0" class="node undefined"><rect height="48" width="279.125" y="-24" x="-139.5625" ry="0" rx="0"/><g transform="translate(-132.0625, -16.5)" style="" class="label"><rect/><text style=""><tspan class="row" x="0" dy="1em" xml:space="preserve">Abstraction over whatever method</tspan><tspan class="row" x="0" dy="1em" xml:space="preserve">is actually used to discover Monoliths</tspan></text></g></g></g></g></g></svg>