<svg aria-roledescription="classDiagram" role="graphics-document document" viewBox="-8 -8 1258.712890625 814" style="max-width: 1258.71px; background-color: white;" xmlns:xlink="http://www.w3.org/1999/xlink" xmlns="http://www.w3.org/2000/svg" width="100%" id="my-svg"><style>#my-svg{font-family:"trebuchet ms",verdana,arial,sans-serif;font-size:16px;fill:#000000;}#my-svg .error-icon{fill:#552222;}#my-svg .error-text{fill:#552222;stroke:#552222;}#my-svg .edge-thickness-normal{stroke-width:2px;}#my-svg .edge-thickness-thick{stroke-width:3.5px;}#my-svg .edge-pattern-solid{stroke-dasharray:0;}#my-svg .edge-pattern-dashed{stroke-dasharray:3;}#my-svg .edge-pattern-dotted{stroke-dasharray:2;}#my-svg .marker{fill:#666;stroke:#666;}#my-svg .marker.cross{stroke:#666;}#my-svg svg{font-family:"trebuchet ms",verdana,arial,sans-serif;font-size:16px;}#my-svg g.classGroup text{fill:#999;fill:#111111;stroke:none;font-family:"trebuchet ms",verdana,arial,sans-serif;font-size:10px;}#my-svg g.classGroup text .title{font-weight:bolder;}#my-svg .nodeLabel,#my-svg .edgeLabel{color:#111111;}#my-svg .edgeLabel .label rect{fill:#eee;}#my-svg .label text{fill:#111111;}#my-svg .edgeLabel .label span{background:#eee;}#my-svg .classTitle{font-weight:bolder;}#my-svg .node rect,#my-svg .node circle,#my-svg .node ellipse,#my-svg .node polygon,#my-svg .node path{fill:#eee;stroke:#999;stroke-width:1px;}#my-svg .divider{stroke:#999;stroke-width:1;}#my-svg g.clickable{cursor:pointer;}#my-svg g.classGroup rect{fill:#eee;stroke:#999;}#my-svg g.classGroup line{stroke:#999;stroke-width:1;}#my-svg .classLabel .box{stroke:none;stroke-width:0;fill:#eee;opacity:0.5;}#my-svg .classLabel .label{fill:#999;font-size:10px;}#my-svg .relation{stroke:#666;stroke-width:1;fill:none;}#my-svg .dashed-line{stroke-dasharray:3;}#my-svg .dotted-line{stroke-dasharray:1 2;}#my-svg #compositionStart,#my-svg .composition{fill:#666!important;stroke:#666!important;stroke-width:1;}#my-svg #compositionEnd,#my-svg .composition{fill:#666!important;stroke:#666!important;stroke-width:1;}#my-svg #dependencyStart,#my-svg .dependency{fill:#666!important;stroke:#666!important;stroke-width:1;}#my-svg #dependencyStart,#my-svg .dependency{fill:#666!important;stroke:#666!important;stroke-width:1;}#my-svg #extensionStart,#my-svg .extension{fill:#eee!important;stroke:#666!important;stroke-width:1;}#my-svg #extensionEnd,#my-svg .extension{fill:#eee!important;stroke:#666!important;stroke-width:1;}#my-svg #aggregationStart,#my-svg .aggregation{fill:#eee!important;stroke:#666!important;stroke-width:1;}#my-svg #aggregationEnd,#my-svg .aggregation{fill:#eee!important;stroke:#666!important;stroke-width:1;}#my-svg #lollipopStart,#my-svg .lollipop{fill:#eee!important;stroke:#666!important;stroke-width:1;}#my-svg #lollipopEnd,#my-svg .lollipop{fill:#eee!important;stroke:#666!important;stroke-width:1;}#my-svg .edgeTerminals{font-size:11px;}#my-svg .classTitleText{text-anchor:middle;font-size:18px;fill:#000000;}#my-svg :root{--mermaid-font-family:"trebuchet ms",verdana,arial,sans-serif;}</style><g><defs><marker orient="auto" markerHeight="240" markerWidth="190" refY="7" refX="0" class="marker aggregation classDiagram" id="classDiagram-aggregationStart"><path d="M 18,7 L9,13 L1,7 L9,1 Z"/></marker></defs><defs><marker orient="auto" markerHeight="28" markerWidth="20" refY="7" refX="19" class="marker aggregation classDiagram" id="classDiagram-aggregationEnd"><path d="M 18,7 L9,13 L1,7 L9,1 Z"/></marker></defs><defs><marker orient="auto" markerHeight="240" markerWidth="190" refY="7" refX="0" class="marker extension classDiagram" id="classDiagram-extensionStart"><path d="M 1,7 L18,13 V 1 Z"/></marker></defs><defs><marker orient="auto" markerHeight="28" markerWidth="20" refY="7" refX="19" class="marker extension classDiagram" id="classDiagram-extensionEnd"><path d="M 1,1 V 13 L18,7 Z"/></marker></defs><defs><marker orient="auto" markerHeight="240" markerWidth="190" refY="7" refX="0" class="marker composition classDiagram" id="classDiagram-compositionStart"><path d="M 18,7 L9,13 L1,7 L9,1 Z"/></marker></defs><defs><marker orient="auto" markerHeight="28" markerWidth="20" refY="7" refX="19" class="marker composition classDiagram" id="classDiagram-compositionEnd"><path d="M 18,7 L9,13 L1,7 L9,1 Z"/></marker></defs><defs><marker orient="auto" markerHeight="240" markerWidth="190" refY="7" refX="0" class="marker dependency classDiagram" id="classDiagram-dependencyStart"><path d="M 5,7 L9,13 L1,7 L9,1 Z"/></marker></defs><defs><marker orient="auto" markerHeight="28" markerWidth="20" refY="7" refX="19" class="marker dependency classDiagram" id="classDiagram-dependencyEnd"><path d="M 18,7 L9,13 L14,7 L9,1 Z"/></marker></defs><defs><marker orient="auto" markerHeight="240" markerWidth="190" refY="7" refX="0" class="marker lollipop classDiagram" id="classDiagram-lollipopStart"><circle r="6" cy="7" cx="6" fill="white" stroke="black"/></marker></defs><g class="root"><g class="clusters"/><g class="edgePaths"><path marker-end="url(#classDiagram-extensionEnd)" style="fill:none" class="edge-pattern-solid relation" id="id1" d="M929.369140625,185.02324728284052L954.994140625,192.10270606903376C980.619140625,199.18216485522703,1031.869140625,213.34108242761351,1057.494140625,226.00387454714007C1083.119140625,238.66666666666666,1083.119140625,249.83333333333334,1083.119140625,255.41666666666666L1083.119140625,261"/><path marker-end="url(#classDiagram-dependencyEnd)" style="fill:none" class="edge-pattern-solid relation" id="id2" d="M625.236328125,194L625.236328125,199.58333333333334C625.236328125,205.16666666666666,625.236328125,216.33333333333334,625.236328125,235.66666666666666C625.236328125,255,625.236328125,282.5,625.236328125,310C625.236328125,337.5,625.236328125,365,630.9097458106884,384.3333333333333C636.5831634963769,403.6666666666667,647.9299988677536,414.8333333333333,653.6034165534421,420.4166666666667L659.2768342391305,426"/><path marker-end="url(#classDiagram-compositionEnd)" style="fill:none" class="edge-pattern-solid relation" id="id3" d="M1101.208771306818,359L1103.2700047348483,364.5833333333333C1105.3312381628787,370.1666666666667,1109.4537050189394,381.3333333333333,1111.5149384469696,408C1113.576171875,434.6666666666667,1113.576171875,476.8333333333333,1113.576171875,519C1113.576171875,561.1666666666666,1113.576171875,603.3333333333334,1071.9664713541667,635.1718494131015C1030.3567708333333,667.0103654928698,947.1373697916666,688.5207309857396,905.5276692708334,699.2759137321746L863.91796875,710.0310964786095"/><path marker-end="url(#classDiagram-dependencyEnd)" style="fill:none" class="edge-pattern-solid relation" id="id4" d="M978.4500828598485,359L966.5235065498738,364.5833333333333C954.5969302398989,370.1666666666667,930.7437776199495,381.3333333333333,912.0592369860287,392.5C893.374696352108,403.6666666666667,879.858767704216,414.8333333333333,873.10080338027,420.4166666666667L866.3428390563241,426"/><path marker-end="url(#classDiagram-aggregationEnd)" style="fill:none" class="edge-pattern-solid relation" id="id5" d="M323.3146384016799,578.5L344.48713356389993,589.6666666666666C365.65962872611993,600.8333333333334,408.00461905056,623.1666666666666,461.3916324419467,644.2070194071642C514.7786458333334,665.2473721476618,579.2076822916666,684.9947442953236,611.4222005208334,694.8684303691545L643.63671875,704.7421164429854"/><path marker-end="url(#classDiagram-dependencyEnd)" style="fill:none" class="edge-pattern-solid relation" id="id6" d="M321.103515625,176.43368654047202L286.7887369791667,184.9447387837267C252.47395833333334,193.45579102698136,183.84440104166666,210.4778955134907,149.52962239583334,232.73894775674535C115.21484375,255,115.21484375,282.5,115.21484375,310C115.21484375,337.5,115.21484375,365,123.62604990118577,389.9166666666667C132.03725605237153,414.8333333333333,148.8596683547431,437.1666666666667,157.27087450592884,448.3333333333333L165.68208065711462,459.5"/><path marker-end="url(#classDiagram-dependencyEnd)" style="fill:none" class="edge-pattern-solid relation" id="id7" d="M199.5219707262846,578.5L197.4616683135705,589.6666666666666C195.4013659008564,600.8333333333334,191.28076107542822,623.1666666666666,189.2204586627141,639.9166666666666C187.16015625,656.6666666666666,187.16015625,667.8333333333334,187.16015625,673.4166666666666L187.16015625,679"/><path marker-end="url(#classDiagram-dependencyEnd)" style="fill:none" class="edge-pattern-dashed relation" id="id8" d="M753.77734375,612L753.77734375,617.5833333333334C753.77734375,623.1666666666666,753.77734375,634.3333333333334,753.77734375,647.25C753.77734375,660.1666666666666,753.77734375,674.8333333333334,753.77734375,682.1666666666666L753.77734375,689.5"/><path style="fill:none" class="edge-pattern-dotted relation" id="edgeNote9" d="M339.041015625,334L339.041015625,343.75C339.041015625,353.5,339.041015625,373,327.6941802536232,393.9166666666667C316.3473448822464,414.8333333333333,293.65367413949275,437.1666666666667,282.30683876811594,448.3333333333333L270.9600033967391,459.5"/></g><g class="edgeLabels"><g transform="translate(1083.119140625, 227.5)" class="edgeLabel"><g transform="translate(-21.3515625, -8.5)" class="label"><rect height="17.660749435424805" width="42.67952346801758" ry="0" rx="0"/><text style=""><tspan class="row" x="0" dy="1em" xml:space="preserve">sends</tspan></text></g></g><g transform="translate(625.236328125, 310)" class="edgeLabel"><g transform="translate(-111.6328125, -8.5)" class="label"><rect height="17.660749435424805" width="222.99203491210938" ry="0" rx="0"/><text style=""><tspan class="row" x="0" dy="1em" xml:space="preserve">connected via one way channel</tspan></text></g></g><g transform="translate(1113.576171875, 519)" class="edgeLabel"><g transform="translate(-26.6796875, -8.5)" class="label"><rect height="17.660749435424805" width="53.32245635986328" ry="0" rx="0"/><text style=""><tspan class="row" x="0" dy="1em" xml:space="preserve">collects</tspan></text></g></g><g transform="translate(906.890625, 392.5)" class="edgeLabel"><g transform="translate(-40.9140625, -8.5)" class="label"><rect height="17.660749435424805" width="81.75558471679688" ry="0" rx="0"/><text style=""><tspan class="row" x="0" dy="1em" xml:space="preserve">received by</tspan></text></g></g><g transform="translate(450.349609375, 645.5)" class="edgeLabel"><g transform="translate(-26.6796875, -8.5)" class="label"><rect height="17.660749435424805" width="53.32245635986328" ry="0" rx="0"/><text style=""><tspan class="row" x="0" dy="1em" xml:space="preserve">collects</tspan></text></g></g><g transform="translate(115.21484375, 310)" class="edgeLabel"><g transform="translate(-16.0078125, -8.5)" class="label"><rect height="17.660749435424805" width="32.00540542602539" ry="0" rx="0"/><text style=""><tspan class="row" x="0" dy="1em" xml:space="preserve">calls</tspan></text></g></g><g class="edgeLabel"><g transform="translate(0, 0)" class="label"><rect height="0" width="0" ry="0" rx="0"/><text style=""><tspan class="row" x="0" dy="1em" xml:space="preserve"/></text></g></g><g transform="translate(753.77734375, 645.5)" class="edgeLabel"><g transform="translate(-16.8984375, -8.5)" class="label"><rect height="17.660749435424805" width="33.792213439941406" ry="0" rx="0"/><text style=""><tspan class="row" x="0" dy="1em" xml:space="preserve">uses</tspan></text></g></g><g class="edgeLabel"><g transform="translate(0, 0)" class="label"><rect height="0" width="0" ry="0" rx="0"/><text style=""><tspan class="row" x="0" dy="1em" xml:space="preserve"/></text></g></g></g><g class="nodes"><g transform="translate(210.5, 519)" id="classId-MonolithDiscoverer-0" class="node default"><rect height="119" width="405" y="-59.5" x="-202.5" class="outer title-state"/><line y2="-9.5" y1="-9.5" x2="202.5" x1="-202.5" class="divider"/><line y2="6.5" y1="6.5" x2="202.5" x1="-202.5" class="divider"/><g class="label"><text transform="translate( -22.28515625, -52)" style=""><tspan class="title-row" x="0" dy="1em" xml:space="preserve">«trait»</tspan></text><text transform="translate( -74.6796875, -31)" class="classTitle" style=""><tspan class="title-row" x="0" dy="1em" xml:space="preserve">MonolithDiscoverer</tspan></text><text transform="translate( -195, 14)" style=""><tspan class="title-row" x="0" dy="1em" xml:space="preserve">+discover() : Result&lt;Vec&lt;MonolithConnectionConfig&gt;&gt;</tspan></text><text transform="translate( -195, 35)" style=""><tspan class="title-row" x="0" dy="1em" xml:space="preserve">+mode() : DiscoveryMode</tspan></text></g></g><g transform="translate(187.16015625, 738.5)" id="classId-DiscoveryMode-1" class="node default"><rect height="119" width="133.3671875" y="-59.5" x="-66.68359375" class="outer title-state"/><line y2="-9.5" y1="-9.5" x2="66.68359375" x1="-66.68359375" class="divider"/><line y2="48.5" y1="48.5" x2="66.68359375" x1="-66.68359375" class="divider"/><g class="label"><text transform="translate( -28.9609375, -52)" style=""><tspan class="title-row" x="0" dy="1em" xml:space="preserve">«enum»</tspan></text><text transform="translate( -59.18359375, -31)" class="classTitle" style=""><tspan class="title-row" x="0" dy="1em" xml:space="preserve">DiscoveryMode</tspan></text><text transform="translate( -59.18359375, 2)" style=""><tspan class="title-row" x="0" dy="1em" xml:space="preserve">+Polling</tspan></text><text transform="translate( -59.18359375, 23)" style=""><tspan class="title-row" x="0" dy="1em" xml:space="preserve">+Continuous</tspan></text></g></g><g transform="translate(625.236328125, 101)" id="classId-DiscoveryTask-2" class="node default"><rect height="186" width="608.265625" y="-93" x="-304.1328125" class="outer title-state"/><line y2="-64" y1="-64" x2="304.1328125" x1="-304.1328125" class="divider"/><line y2="16" y1="16" x2="304.1328125" x1="-304.1328125" class="divider"/><g class="label"><text style=""><tspan class="title-row" x="0" dy="1em" xml:space="preserve"/></text><text transform="translate( -55.9375, -85.5)" class="classTitle" style=""><tspan class="title-row" x="0" dy="1em" xml:space="preserve">DiscoveryTask</tspan></text><text transform="translate( -296.6328125, -52.5)" style=""><tspan class="title-row" x="0" dy="1em" xml:space="preserve">discovery: dyn MonolithDiscovery</tspan></text><text transform="translate( -296.6328125, -31.5)" style=""><tspan class="title-row" x="0" dy="1em" xml:space="preserve">monoliths: HashSet&lt;MonolithConnectionConfig&gt;</tspan></text><text transform="translate( -296.6328125, -10.5)" style=""><tspan class="title-row" x="0" dy="1em" xml:space="preserve">discovery_tx: Sender&lt;MonolithDiscoveryMsg&gt;</tspan></text><text transform="translate( -296.6328125, 23.5)" style=""><tspan class="title-row" x="0" dy="1em" xml:space="preserve">+new(discovery: MonolithDiscovery, discovery_tx: Sender&lt;MonolithDiscoveryMsg&gt;)</tspan></text><text transform="translate( -296.6328125, 45.5)" style=""><tspan class="title-row" x="0" dy="1em" xml:space="preserve">+do_continuous_discovery()</tspan></text><text transform="translate( -296.6328125, 67.5)" style=""><tspan class="title-row" x="0" dy="1em" xml:space="preserve">-do_discovery()</tspan></text></g></g><g transform="translate(1083.119140625, 310)" id="classId-MonolithDiscoveryMsg-3" class="node default"><rect height="98" width="319.1875" y="-49" x="-159.59375" class="outer title-state"/><line y2="-20" y1="-20" x2="159.59375" x1="-159.59375" class="divider"/><line y2="38" y1="38" x2="159.59375" x1="-159.59375" class="divider"/><g class="label"><text style=""><tspan class="title-row" x="0" dy="1em" xml:space="preserve"/></text><text transform="translate( -87.5703125, -41.5)" class="classTitle" style=""><tspan class="title-row" x="0" dy="1em" xml:space="preserve">MonolithDiscoveryMsg</tspan></text><text transform="translate( -152.09375, -8.5)" style=""><tspan class="title-row" x="0" dy="1em" xml:space="preserve">added: Vec&lt;MonolithConnectionConfig&gt;</tspan></text><text transform="translate( -152.09375, 12.5)" style=""><tspan class="title-row" x="0" dy="1em" xml:space="preserve">removed: Vec&lt;MonolithConnectionConfig&gt;</tspan></text></g></g><g transform="translate(753.77734375, 519)" id="classId-MonolithConnectionManager-4" class="node default"><rect height="186" width="581.5546875" y="-93" x="-290.77734375" class="outer title-state"/><line y2="-64" y1="-64" x2="290.77734375" x1="-290.77734375" class="divider"/><line y2="38" y1="38" x2="290.77734375" x1="-290.77734375" class="divider"/><g class="label"><text style=""><tspan class="title-row" x="0" dy="1em" xml:space="preserve"/></text><text transform="translate( -110.21875, -85.5)" class="classTitle" style=""><tspan class="title-row" x="0" dy="1em" xml:space="preserve">MonolithConnectionManager</tspan></text><text transform="translate( -283.27734375, -52.5)" style=""><tspan class="title-row" x="0" dy="1em" xml:space="preserve">discovery_rx: Receiver&lt;MonolithDiscoveryMsg&gt;</tspan></text><text transform="translate( -283.27734375, -30.5)" style=""><tspan class="title-row" x="0" dy="1em" xml:space="preserve">link: BalancerLink</tspan></text><text transform="translate( -283.27734375, -9.5)" style=""><tspan class="title-row" x="0" dy="1em" xml:space="preserve">monoliths: HashSet&lt;MonolithConnectionConfig&gt;</tspan></text><text transform="translate( -283.27734375, 11.5)" style=""><tspan class="title-row" x="0" dy="1em" xml:space="preserve">connection_tasks: HashMap</tspan></text><text transform="translate( -283.27734375, 45.5)" style=""><tspan class="title-row" x="0" dy="1em" xml:space="preserve">+new(discovery_rx: Receiver&lt;MonolithDiscoveryMsg&gt;, link: BalancerLink) : Self</tspan></text><text transform="translate( -283.27734375, 67.5)" style=""><tspan class="title-row" x="0" dy="1em" xml:space="preserve">+do_connection_job()</tspan></text></g></g><g transform="translate(753.77734375, 738.5)" id="classId-MonolithConnectionConfig-5" class="node default"><rect height="98" width="220.28125" y="-49" x="-110.140625" class="outer title-state"/><line y2="-20" y1="-20" x2="110.140625" x1="-110.140625" class="divider"/><line y2="38" y1="38" x2="110.140625" x1="-110.140625" class="divider"/><g class="label"><text style=""><tspan class="title-row" x="0" dy="1em" xml:space="preserve"/></text><text transform="translate( -102.640625, -41.5)" class="classTitle" style=""><tspan class="title-row" x="0" dy="1em" xml:space="preserve">MonolithConnectionConfig</tspan></text><text transform="translate( -102.640625, -8.5)" style=""><tspan class="title-row" x="0" dy="1em" xml:space="preserve">host: HostOrIp</tspan></text><text transform="translate( -102.640625, 12.5)" style=""><tspan class="title-row" x="0" dy="1em" xml:space="preserve">port: u16</tspan></text></g></g><g transform="translate(339.041015625, 310)" id="note0" class="node undefined"><rect height="48" width="279.125" y="-24" x="-139.5625" ry="0" rx="0"/><g transform="translate(-132.0625, -16.5)" style="" class="label"><rect/><text style=""><tspan class="row" x="0" dy="1em" xml:space="preserve">Abstraction over whatever method</tspan><tspan class="row" x="0" dy="1em" xml:space="preserve">is actually used to discover Monoliths</tspan></text></g></g></g></g></g></svg>