<svg aria-roledescription="classDiagram" role="graphics-document document" viewBox="0 0 946.65625 454" style="max-width: 946.656px; background-color: white;" xmlns:xlink="http://www.w3.org/1999/xlink" xmlns="http://www.w3.org/2000/svg" width="100%" id="my-svg"><style>#my-svg{font-family:"trebuchet ms",verdana,arial,sans-serif;font-size:16px;fill:#000000;}#my-svg .error-icon{fill:#552222;}#my-svg .error-text{fill:#552222;stroke:#552222;}#my-svg .edge-thickness-normal{stroke-width:2px;}#my-svg .edge-thickness-thick{stroke-width:3.5px;}#my-svg .edge-pattern-solid{stroke-dasharray:0;}#my-svg .edge-pattern-dashed{stroke-dasharray:3;}#my-svg .edge-pattern-dotted{stroke-dasharray:2;}#my-svg .marker{fill:#666;stroke:#666;}#my-svg .marker.cross{stroke:#666;}#my-svg svg{font-family:"trebuchet ms",verdana,arial,sans-serif;font-size:16px;}#my-svg g.classGroup text{fill:#999;stroke:none;font-family:"trebuchet ms",verdana,arial,sans-serif;font-size:10px;}#my-svg g.classGroup text .title{font-weight:bolder;}#my-svg .nodeLabel,#my-svg .edgeLabel{color:#111111;}#my-svg .edgeLabel .label rect{fill:#eee;}#my-svg .label text{fill:#111111;}#my-svg .edgeLabel .label span{background:#eee;}#my-svg .classTitle{font-weight:bolder;}#my-svg .node rect,#my-svg .node circle,#my-svg .node ellipse,#my-svg .node polygon,#my-svg .node path{fill:#eee;stroke:#999;stroke-width:1px;}#my-svg .divider{stroke:#999;stroke-width:1;}#my-svg g.clickable{cursor:pointer;}#my-svg g.classGroup rect{fill:#eee;stroke:#999;}#my-svg g.classGroup line{stroke:#999;stroke-width:1;}#my-svg .classLabel .box{stroke:none;stroke-width:0;fill:#eee;opacity:0.5;}#my-svg .classLabel .label{fill:#999;font-size:10px;}#my-svg .relation{stroke:#666;stroke-width:1;fill:none;}#my-svg .dashed-line{stroke-dasharray:3;}#my-svg .dotted-line{stroke-dasharray:1 2;}#my-svg #compositionStart,#my-svg .composition{fill:#666!important;stroke:#666!important;stroke-width:1;}#my-svg #compositionEnd,#my-svg .composition{fill:#666!important;stroke:#666!important;stroke-width:1;}#my-svg #dependencyStart,#my-svg .dependency{fill:#666!important;stroke:#666!important;stroke-width:1;}#my-svg #dependencyStart,#my-svg .dependency{fill:#666!important;stroke:#666!important;stroke-width:1;}#my-svg #extensionStart,#my-svg .extension{fill:transparent!important;stroke:#666!important;stroke-width:1;}#my-svg #extensionEnd,#my-svg .extension{fill:transparent!important;stroke:#666!important;stroke-width:1;}#my-svg #aggregationStart,#my-svg .aggregation{fill:transparent!important;stroke:#666!important;stroke-width:1;}#my-svg #aggregationEnd,#my-svg .aggregation{fill:transparent!important;stroke:#666!important;stroke-width:1;}#my-svg #lollipopStart,#my-svg .lollipop{fill:#eee!important;stroke:#666!important;stroke-width:1;}#my-svg #lollipopEnd,#my-svg .lollipop{fill:#eee!important;stroke:#666!important;stroke-width:1;}#my-svg .edgeTerminals{font-size:11px;}#my-svg .classTitleText{text-anchor:middle;font-size:18px;fill:#000000;}#my-svg :root{--mermaid-font-family:"trebuchet ms",verdana,arial,sans-serif;}</style><g><defs><marker orient="auto" markerHeight="240" markerWidth="190" refY="7" refX="18" class="marker aggregation classDiagram" id="my-svg_classDiagram-aggregationStart"><path d="M 18,7 L9,13 L1,7 L9,1 Z"/></marker></defs><defs><marker orient="auto" markerHeight="28" markerWidth="20" refY="7" refX="1" class="marker aggregation classDiagram" id="my-svg_classDiagram-aggregationEnd"><path d="M 18,7 L9,13 L1,7 L9,1 Z"/></marker></defs><defs><marker orient="auto" markerHeight="240" markerWidth="190" refY="7" refX="18" class="marker extension classDiagram" id="my-svg_classDiagram-extensionStart"><path d="M 1,7 L18,13 V 1 Z"/></marker></defs><defs><marker orient="auto" markerHeight="28" markerWidth="20" refY="7" refX="1" class="marker extension classDiagram" id="my-svg_classDiagram-extensionEnd"><path d="M 1,1 V 13 L18,7 Z"/></marker></defs><defs><marker orient="auto" markerHeight="240" markerWidth="190" refY="7" refX="18" class="marker composition classDiagram" id="my-svg_classDiagram-compositionStart"><path d="M 18,7 L9,13 L1,7 L9,1 Z"/></marker></defs><defs><marker orient="auto" markerHeight="28" markerWidth="20" refY="7" refX="1" class="marker composition classDiagram" id="my-svg_classDiagram-compositionEnd"><path d="M 18,7 L9,13 L1,7 L9,1 Z"/></marker></defs><defs><marker orient="auto" markerHeight="240" markerWidth="190" refY="7" refX="6" class="marker dependency classDiagram" id="my-svg_classDiagram-dependencyStart"><path d="M 5,7 L9,13 L1,7 L9,1 Z"/></marker></defs><defs><marker orient="auto" markerHeight="28" markerWidth="20" refY="7" refX="13" class="marker dependency classDiagram" id="my-svg_classDiagram-dependencyEnd"><path d="M 18,7 L9,13 L14,7 L9,1 Z"/></marker></defs><defs><marker orient="auto" markerHeight="240" markerWidth="190" refY="7" refX="13" class="marker lollipop classDiagram" id="my-svg_classDiagram-lollipopStart"><circle r="6" cy="7" cx="7" fill="transparent" stroke="black"/></marker></defs><defs><marker orient="auto" markerHeight="240" markerWidth="190" refY="7" refX="1" class="marker lollipop classDiagram" id="my-svg_classDiagram-lollipopEnd"><circle r="6" cy="7" cx="7" fill="transparent" stroke="black"/></marker></defs><g class="root"><g class="clusters"/><g class="edgePaths"><path marker-end="url(#my-svg_classDiagram-extensionEnd)" style="fill:none" class="edge-pattern-solid relation" id="id1" d="M150.453125,166.5L150.453125,160.58333333333334C150.453125,154.66666666666666,150.453125,142.83333333333334,190.23459834611901,128.21877378234834C230.01607169223803,113.60421423136331,309.579018384476,96.20842846272664,349.360491730595,87.51053557840828L389.14196507671403,78.81264269408994"/><path marker-end="url(#my-svg_classDiagram-extensionEnd)" style="fill:none" class="edge-pattern-solid relation" id="id2" d="M488.90625,166.5L488.90625,160.58333333333334C488.90625,154.66666666666666,488.90625,142.83333333333334,488.90625,135.75C488.90625,128.66666666666666,488.90625,126.33333333333333,488.90625,125.16666666666667L488.90625,124"/><path marker-end="url(#my-svg_classDiagram-extensionEnd)" style="fill:none" class="edge-pattern-solid relation" id="id3" d="M811.78125,156L811.78125,151.83333333333334C811.78125,147.66666666666666,811.78125,139.33333333333334,774.5895461324211,126.64266794827459C737.3978422648421,113.95200256321584,663.0144345296843,96.9040051264317,625.8227306621053,88.38000640803962L588.6310267945264,79.85600768964756"/><path marker-end="url(#my-svg_classDiagram-aggregationEnd)" style="fill:none" class="edge-pattern-solid relation" id="id4" d="M811.78125,346L811.78125,341.8333333333333C811.78125,337.6666666666667,811.78125,329.3333333333333,811.78125,324C811.78125,318.6666666666667,811.78125,316.3333333333333,811.78125,315.1666666666667L811.78125,314"/><path marker-end="url(#my-svg_classDiagram-aggregationEnd)" style="fill:none" class="edge-pattern-solid relation" id="id5" d="M150.453125,357.5L150.453125,351.4166666666667C150.453125,345.3333333333333,150.453125,333.1666666666667,150.453125,324.1666666666667C150.453125,315.1666666666667,150.453125,309.3333333333333,150.453125,306.4166666666667L150.453125,303.5"/><path marker-end="url(#my-svg_classDiagram-aggregationEnd)" style="fill:none" class="edge-pattern-solid relation" id="id6" d="M488.90625,357.5L488.90625,351.4166666666667C488.90625,345.3333333333333,488.90625,333.1666666666667,488.90625,324.1666666666667C488.90625,315.1666666666667,488.90625,309.3333333333333,488.90625,306.4166666666667L488.90625,303.5"/></g><g class="edgeLabels"><g class="edgeLabel"><g transform="translate(0, 0)" class="label"><rect height="0" width="0" ry="0" rx="0"/><text style=""><tspan class="row" x="0" dy="1em" xml:space="preserve"/></text></g></g><g class="edgeLabel"><g transform="translate(0, 0)" class="label"><rect height="0" width="0" ry="0" rx="0"/><text style=""><tspan class="row" x="0" dy="1em" xml:space="preserve"/></text></g></g><g class="edgeLabel"><g transform="translate(0, 0)" class="label"><rect height="0" width="0" ry="0" rx="0"/><text style=""><tspan class="row" x="0" dy="1em" xml:space="preserve"/></text></g></g><g class="edgeLabel"><g transform="translate(0, 0)" class="label"><rect height="0" width="0" ry="0" rx="0"/><text style=""><tspan class="row" x="0" dy="1em" xml:space="preserve"/></text></g></g><g class="edgeLabel"><g transform="translate(0, 0)" class="label"><rect height="0" width="0" ry="0" rx="0"/><text style=""><tspan class="row" x="0" dy="1em" xml:space="preserve"/></text></g></g><g class="edgeLabel"><g transform="translate(0, 0)" class="label"><rect height="0" width="0" ry="0" rx="0"/><text style=""><tspan class="row" x="0" dy="1em" xml:space="preserve"/></text></g></g></g><g class="nodes"><g transform="translate(488.90625, 57)" id="classId-MonolithDiscoverer-0" class="node default"><rect height="98" width="164.359375" y="-49" x="-82.1796875" class="outer title-state"/><line y2="1" y1="1" x2="82.1796875" x1="-82.1796875" class="divider"/><line y2="17" y1="17" x2="82.1796875" x1="-82.1796875" class="divider"/><g class="label"><text transform="translate( -24.65234375, -41.5)" style=""><tspan class="title-row" x="0" dy="1em" xml:space="preserve">«Trait»</tspan></text><text transform="translate( -74.6796875, -20.5)" class="classTitle" style=""><tspan class="title-row" x="0" dy="1em" xml:space="preserve">MonolithDiscoverer</tspan></text><text transform="translate( -74.6796875, 24.5)" style=""><tspan class="title-row" x="0" dy="1em" xml:space="preserve">+discover()</tspan></text></g></g><g transform="translate(150.453125, 226)" id="classId-ManualMonolithDiscoverer-1" class="node default"><rect height="119" width="284.90625" y="-59.5" x="-142.453125" class="outer title-state"/><line y2="-30.5" y1="-30.5" x2="142.453125" x1="-142.453125" class="divider"/><line y2="6.5" y1="6.5" x2="142.453125" x1="-142.453125" class="divider"/><g class="label"><text style=""><tspan class="title-row" x="0" dy="1em" xml:space="preserve"/></text><text transform="translate( -102.2421875, -52)" class="classTitle" style=""><tspan class="title-row" x="0" dy="1em" xml:space="preserve">ManualMonolithDiscoverer</tspan></text><text transform="translate( -134.953125, -19)" style=""><tspan class="title-row" x="0" dy="1em" xml:space="preserve">+ManualDiscoveryConfig config</tspan></text><text transform="translate( -134.953125, 14)" style=""><tspan class="title-row" x="0" dy="1em" xml:space="preserve">+new(config: ManualDiscoveryConfig)</tspan></text><text transform="translate( -134.953125, 35)" style=""><tspan class="title-row" x="0" dy="1em" xml:space="preserve">+discover()</tspan></text></g></g><g transform="translate(488.90625, 226)" id="classId-HarnessMonolithDiscoverer-2" class="node default"><rect height="119" width="292" y="-59.5" x="-146" class="outer title-state"/><line y2="-30.5" y1="-30.5" x2="146" x1="-146" class="divider"/><line y2="6.5" y1="6.5" x2="146" x1="-146" class="divider"/><g class="label"><text style=""><tspan class="title-row" x="0" dy="1em" xml:space="preserve"/></text><text transform="translate( -106.2578125, -52)" class="classTitle" style=""><tspan class="title-row" x="0" dy="1em" xml:space="preserve">HarnessMonolithDiscoverer</tspan></text><text transform="translate( -138.5, -19)" style=""><tspan class="title-row" x="0" dy="1em" xml:space="preserve">+HarnessDiscoveryConfig config</tspan></text><text transform="translate( -138.5, 14)" style=""><tspan class="title-row" x="0" dy="1em" xml:space="preserve">+new(config: HarnessDiscoveryConfig)</tspan></text><text transform="translate( -138.5, 35)" style=""><tspan class="title-row" x="0" dy="1em" xml:space="preserve">+discover()</tspan></text></g></g><g transform="translate(811.78125, 226)" id="classId-FlyMonolithDiscoverer-3" class="node default"><rect height="140" width="253.75" y="-70" x="-126.875" class="outer title-state"/><line y2="-41" y1="-41" x2="126.875" x1="-126.875" class="divider"/><line y2="17" y1="17" x2="126.875" x1="-126.875" class="divider"/><g class="label"><text style=""><tspan class="title-row" x="0" dy="1em" xml:space="preserve"/></text><text transform="translate( -86.2421875, -62.5)" class="classTitle" style=""><tspan class="title-row" x="0" dy="1em" xml:space="preserve">FlyMonolithDiscoverer</tspan></text><text transform="translate( -119.375, -29.5)" style=""><tspan class="title-row" x="0" dy="1em" xml:space="preserve">+FlyDiscoveryConfig config</tspan></text><text transform="translate( -119.375, -8.5)" style=""><tspan class="title-row" x="0" dy="1em" xml:space="preserve">+String query</tspan></text><text transform="translate( -119.375, 24.5)" style=""><tspan class="title-row" x="0" dy="1em" xml:space="preserve">+new(config: FlyDiscoveryConfig)</tspan></text><text transform="translate( -119.375, 45.5)" style=""><tspan class="title-row" x="0" dy="1em" xml:space="preserve">+discover()</tspan></text></g></g><g transform="translate(811.78125, 396)" id="classId-FlyDiscoveryConfig-4" class="node default"><rect height="100" width="165.265625" y="-50" x="-82.6328125" class="outer title-state"/><line y2="-21" y1="-21" x2="82.6328125" x1="-82.6328125" class="divider"/><line y2="39" y1="39" x2="82.6328125" x1="-82.6328125" class="divider"/><g class="label"><text style=""><tspan class="title-row" x="0" dy="1em" xml:space="preserve"/></text><text transform="translate( -75.1328125, -42.5)" class="classTitle" style=""><tspan class="title-row" x="0" dy="1em" xml:space="preserve">FlyDiscoveryConfig</tspan></text><text transform="translate( -75.1328125, -9.5)" style=""><tspan class="title-row" x="0" dy="1em" xml:space="preserve">+u16 monolith_port</tspan></text><text transform="translate( -75.1328125, 12.5)" style=""><tspan class="title-row" x="0" dy="1em" xml:space="preserve">+String fly_app</tspan></text></g></g><g transform="translate(150.453125, 396)" id="classId-ManualDiscoveryConfig-5" class="node default"><rect height="77" width="197.265625" y="-38.5" x="-98.6328125" class="outer title-state"/><line y2="-9.5" y1="-9.5" x2="98.6328125" x1="-98.6328125" class="divider"/><line y2="27.5" y1="27.5" x2="98.6328125" x1="-98.6328125" class="divider"/><g class="label"><text style=""><tspan class="title-row" x="0" dy="1em" xml:space="preserve"/></text><text transform="translate( -91.1328125, -31)" class="classTitle" style=""><tspan class="title-row" x="0" dy="1em" xml:space="preserve">ManualDiscoveryConfig</tspan></text><text transform="translate( -91.1328125, 2)" style=""><tspan class="title-row" x="0" dy="1em" xml:space="preserve">+Vec monoliths</tspan></text></g></g><g transform="translate(488.90625, 396)" id="classId-HarnessDiscoveryConfig-6" class="node default"><rect height="77" width="205.296875" y="-38.5" x="-102.6484375" class="outer title-state"/><line y2="-9.5" y1="-9.5" x2="102.6484375" x1="-102.6484375" class="divider"/><line y2="27.5" y1="27.5" x2="102.6484375" x1="-102.6484375" class="divider"/><g class="label"><text style=""><tspan class="title-row" x="0" dy="1em" xml:space="preserve"/></text><text transform="translate( -95.1484375, -31)" class="classTitle" style=""><tspan class="title-row" x="0" dy="1em" xml:space="preserve">HarnessDiscoveryConfig</tspan></text><text transform="translate( -95.1484375, 2)" style=""><tspan class="title-row" x="0" dy="1em" xml:space="preserve">+u16 port</tspan></text></g></g></g></g></g></svg>