<svg aria-roledescription="classDiagram" role="graphics-document document" viewBox="-8 -8 988.25 910" style="max-width: 988.25px; background-color: white;" xmlns:xlink="http://www.w3.org/1999/xlink" xmlns="http://www.w3.org/2000/svg" width="100%" id="my-svg"><style>#my-svg{font-family:"trebuchet ms",verdana,arial,sans-serif;font-size:16px;fill:#000000;}#my-svg .error-icon{fill:#552222;}#my-svg .error-text{fill:#552222;stroke:#552222;}#my-svg .edge-thickness-normal{stroke-width:2px;}#my-svg .edge-thickness-thick{stroke-width:3.5px;}#my-svg .edge-pattern-solid{stroke-dasharray:0;}#my-svg .edge-pattern-dashed{stroke-dasharray:3;}#my-svg .edge-pattern-dotted{stroke-dasharray:2;}#my-svg .marker{fill:#666;stroke:#666;}#my-svg .marker.cross{stroke:#666;}#my-svg svg{font-family:"trebuchet ms",verdana,arial,sans-serif;font-size:16px;}#my-svg g.classGroup text{fill:#999;fill:#111111;stroke:none;font-family:"trebuchet ms",verdana,arial,sans-serif;font-size:10px;}#my-svg g.classGroup text .title{font-weight:bolder;}#my-svg .nodeLabel,#my-svg .edgeLabel{color:#111111;}#my-svg .edgeLabel .label rect{fill:#eee;}#my-svg .label text{fill:#111111;}#my-svg .edgeLabel .label span{background:#eee;}#my-svg .classTitle{font-weight:bolder;}#my-svg .node rect,#my-svg .node circle,#my-svg .node ellipse,#my-svg .node polygon,#my-svg .node path{fill:#eee;stroke:#999;stroke-width:1px;}#my-svg .divider{stroke:#999;stroke-width:1;}#my-svg g.clickable{cursor:pointer;}#my-svg g.classGroup rect{fill:#eee;stroke:#999;}#my-svg g.classGroup line{stroke:#999;stroke-width:1;}#my-svg .classLabel .box{stroke:none;stroke-width:0;fill:#eee;opacity:0.5;}#my-svg .classLabel .label{fill:#999;font-size:10px;}#my-svg .relation{stroke:#666;stroke-width:1;fill:none;}#my-svg .dashed-line{stroke-dasharray:3;}#my-svg .dotted-line{stroke-dasharray:1 2;}#my-svg #compositionStart,#my-svg .composition{fill:#666!important;stroke:#666!important;stroke-width:1;}#my-svg #compositionEnd,#my-svg .composition{fill:#666!important;stroke:#666!important;stroke-width:1;}#my-svg #dependencyStart,#my-svg .dependency{fill:#666!important;stroke:#666!important;stroke-width:1;}#my-svg #dependencyStart,#my-svg .dependency{fill:#666!important;stroke:#666!important;stroke-width:1;}#my-svg #extensionStart,#my-svg .extension{fill:#eee!important;stroke:#666!important;stroke-width:1;}#my-svg #extensionEnd,#my-svg .extension{fill:#eee!important;stroke:#666!important;stroke-width:1;}#my-svg #aggregationStart,#my-svg .aggregation{fill:#eee!important;stroke:#666!important;stroke-width:1;}#my-svg #aggregationEnd,#my-svg .aggregation{fill:#eee!important;stroke:#666!important;stroke-width:1;}#my-svg #lollipopStart,#my-svg .lollipop{fill:#eee!important;stroke:#666!important;stroke-width:1;}#my-svg #lollipopEnd,#my-svg .lollipop{fill:#eee!important;stroke:#666!important;stroke-width:1;}#my-svg .edgeTerminals{font-size:11px;}#my-svg .classTitleText{text-anchor:middle;font-size:18px;fill:#000000;}#my-svg :root{--mermaid-font-family:"trebuchet ms",verdana,arial,sans-serif;}</style><g><defs><marker orient="auto" markerHeight="240" markerWidth="190" refY="7" refX="0" class="marker aggregation classDiagram" id="classDiagram-aggregationStart"><path d="M 18,7 L9,13 L1,7 L9,1 Z"/></marker></defs><defs><marker orient="auto" markerHeight="28" markerWidth="20" refY="7" refX="19" class="marker aggregation classDiagram" id="classDiagram-aggregationEnd"><path d="M 18,7 L9,13 L1,7 L9,1 Z"/></marker></defs><defs><marker orient="auto" markerHeight="240" markerWidth="190" refY="7" refX="0" class="marker extension classDiagram" id="classDiagram-extensionStart"><path d="M 1,7 L18,13 V 1 Z"/></marker></defs><defs><marker orient="auto" markerHeight="28" markerWidth="20" refY="7" refX="19" class="marker extension classDiagram" id="classDiagram-extensionEnd"><path d="M 1,1 V 13 L18,7 Z"/></marker></defs><defs><marker orient="auto" markerHeight="240" markerWidth="190" refY="7" refX="0" class="marker composition classDiagram" id="classDiagram-compositionStart"><path d="M 18,7 L9,13 L1,7 L9,1 Z"/></marker></defs><defs><marker orient="auto" markerHeight="28" markerWidth="20" refY="7" refX="19" class="marker composition classDiagram" id="classDiagram-compositionEnd"><path d="M 18,7 L9,13 L1,7 L9,1 Z"/></marker></defs><defs><marker orient="auto" markerHeight="240" markerWidth="190" refY="7" refX="0" class="marker dependency classDiagram" id="classDiagram-dependencyStart"><path d="M 5,7 L9,13 L1,7 L9,1 Z"/></marker></defs><defs><marker orient="auto" markerHeight="28" markerWidth="20" refY="7" refX="19" class="marker dependency classDiagram" id="classDiagram-dependencyEnd"><path d="M 18,7 L9,13 L14,7 L9,1 Z"/></marker></defs><defs><marker orient="auto" markerHeight="240" markerWidth="190" refY="7" refX="0" class="marker lollipop classDiagram" id="classDiagram-lollipopStart"><circle r="6" cy="7" cx="6" fill="white" stroke="black"/></marker></defs><g class="root"><g class="clusters"/><g class="edgePaths"><path marker-end="url(#classDiagram-dependencyEnd)" style="fill:none" class="edge-pattern-solid relation" id="id1" d="M368.5234375,65.67818296917262L343.3287760416667,74.64848580764385C318.1341145833333,83.61878864611508,267.7447916666667,101.55939432305753,242.55013020833334,116.11303049486212C217.35546875,130.66666666666666,217.35546875,141.83333333333334,217.35546875,147.41666666666666L217.35546875,153"/><path marker-end="url(#classDiagram-dependencyEnd)" style="fill:none" class="edge-pattern-solid relation" id="id2" d="M473.4453125,68.09736411600923L494.7483723958333,76.66447009667435C516.0514322916666,85.23157607733948,558.6575520833334,102.36578803866973,579.9606119791666,124.68289401933487C601.263671875,147,601.263671875,174.5,601.263671875,202C601.263671875,229.5,601.263671875,257,588.4902595360305,278.0833333333333C575.7168471970612,299.1666666666667,550.1700225191224,313.8333333333333,537.396610180153,321.1666666666667L524.6231978411836,328.5"/><path marker-start="url(#classDiagram-aggregationStart)" style="fill:none" class="edge-pattern-solid relation" id="id3" d="M148.94140625,243.0799476871464L137.44466145833334,249.98328973928867C125.94791666666667,256.88663179143094,102.95442708333333,270.69331589571544,91.45768229166667,283.17999128119106C79.9609375,295.6666666666667,79.9609375,306.8333333333333,79.9609375,312.4166666666667L79.9609375,318"/><path marker-start="url(#classDiagram-dependencyStart)" style="fill:none" class="edge-pattern-solid relation" id="id4" d="M211.27919034090908,251L210.5868252840909,256.5833333333333C209.8944602272727,262.1666666666667,208.50973011363635,273.3333333333333,224.39028172348483,286.9373432210613C240.27083333333334,300.54135310878934,273.4166666666667,316.58270621757873,289.9895833333333,324.6033827719734L306.5625,332.62405932636807"/><path marker-end="url(#classDiagram-dependencyEnd)" style="fill:none" class="edge-pattern-solid relation" id="id5" d="M285.76953125,243.0799476871464L297.2662760416667,249.98328973928867C308.7630208333333,256.88663179143094,331.7565104166667,270.69331589571544,347.946189990942,284.92999128119106C364.13586956521743,299.1666666666667,373.5217391304348,313.8333333333333,378.2146739130435,321.1666666666667L382.9076086956522,328.5"/><path marker-end="url(#classDiagram-dependencyEnd)" style="fill:none" class="edge-pattern-solid relation" id="id6" d="M341.62184858091786,447.5L331.8404727757649,454.8333333333333C322.0590969706119,462.1666666666667,302.49634536030595,476.8333333333333,292.714969555153,491.4166666666667C282.93359375,506,282.93359375,520.5,282.93359375,527.75L282.93359375,535"/><path marker-start="url(#classDiagram-aggregationStart)" style="fill:none" class="edge-pattern-solid relation" id="id7" d="M454.4418968900966,447.5L458.56551303341377,454.8333333333333C462.68912917673106,462.1666666666667,470.93636146336553,476.8333333333333,475.0599776066827,497.9166666666667C479.18359375,519,479.18359375,546.5,479.18359375,574C479.18359375,601.5,479.18359375,629,486.2701822916667,649.3639205029551C493.3567708333333,669.7278410059102,507.5299479166667,682.9556820118205,514.6165364583334,689.5696025147757L521.703125,696.1835230177307"/><path marker-start="url(#classDiagram-aggregationStart)" style="fill:none" class="edge-pattern-solid relation" id="id8" d="M79.9609375,458L79.9609375,463.5833333333333C79.9609375,469.1666666666667,79.9609375,480.3333333333333,79.9609375,491.5C79.9609375,502.6666666666667,79.9609375,513.8333333333334,79.9609375,519.4166666666666L79.9609375,525"/><path marker-start="url(#classDiagram-dependencyStart)" style="fill:none" class="edge-pattern-dashed relation" id="id9" d="M79.9609375,623L79.9609375,628.5833333333334C79.9609375,634.1666666666666,79.9609375,645.3333333333334,153.58463541666666,669.2412378259954C227.20833333333334,693.1491423186576,374.4557291666667,729.7982846373152,448.0794270833333,748.1228557966439L521.703125,766.4474269559727"/><path marker-end="url(#classDiagram-extensionEnd)" style="fill:none" class="edge-pattern-solid relation" id="id10" d="M672.9453125,612.5L672.9453125,619.8333333333334C672.9453125,627.1666666666666,672.9453125,641.8333333333334,670.9436308425585,654.75C668.9419491851169,667.6666666666666,664.9385858702337,678.8333333333334,662.9369042127922,684.4166666666666L660.9352225553506,690"/><path marker-end="url(#classDiagram-extensionEnd)" style="fill:none" class="edge-pattern-solid relation" id="id11" d="M891.3671875,602L891.3671875,611.0833333333334C891.3671875,620.1666666666666,891.3671875,638.3333333333334,863.9778645833334,661.3164915925405C836.5885416666666,684.2996498517477,781.8098958333334,712.0992997034956,754.4205729166666,725.9991246293695L727.03125,739.8989495552435"/><path marker-end="url(#classDiagram-dependencyEnd)" style="fill:none" class="edge-pattern-solid relation" id="id12" d="M494.240234375,241L494.240234375,248.25C494.240234375,255.5,494.240234375,270,489.0498031149356,284.5833333333333C483.8593718548712,299.1666666666667,473.47850933474234,313.8333333333333,468.28807807467797,321.1666666666667L463.09764681461354,328.5"/><path style="fill:none" class="edge-pattern-dotted relation" id="edgeNote13" d="M672.9453125,412L672.9453125,425.25C672.9453125,438.5,672.9453125,465,672.9453125,485.5833333333333C672.9453125,506.1666666666667,672.9453125,520.8333333333334,672.9453125,528.1666666666666L672.9453125,535.5"/><path style="fill:none" class="edge-pattern-dotted relation" id="edgeNote14" d="M891.3671875,412L891.3671875,425.25C891.3671875,438.5,891.3671875,465,891.3671875,487.3333333333333C891.3671875,509.6666666666667,891.3671875,527.8333333333334,891.3671875,536.9166666666666L891.3671875,546"/></g><g class="edgeLabels"><g transform="translate(217.35546875, 119.5)" class="edgeLabel"><g transform="translate(-19.5625, -8.5)" class="label"><rect height="17.6473388671875" width="39.11564254760742" ry="0" rx="0"/><text style=""><tspan class="row" x="0" dy="1em" xml:space="preserve">starts</tspan></text></g></g><g transform="translate(347.0059822734386, 57.416880373762815)" class="edgeTerminals"><g transform="translate(-3.0625, -6)" class="inner"><text style=""><tspan class="row" x="0" dy="1em" xml:space="preserve">1</tspan></text></g></g><g transform="translate(228.0490853715207, 131.6212732355094)" class="edgeTerminals"><g transform="translate(-3.0625, -6)" class="inner"/><text style=""><tspan class="row" x="0" dy="1em" xml:space="preserve">1</tspan></text></g><g transform="translate(601.263671875, 202)" class="edgeLabel"><g transform="translate(-19.5625, -8.5)" class="label"><rect height="17.6473388671875" width="39.11564254760742" ry="0" rx="0"/><text style=""><tspan class="row" x="0" dy="1em" xml:space="preserve">starts</tspan></text></g></g><g transform="translate(484.08487834737826, 88.54362633137032)" class="edgeTerminals"><g transform="translate(-3.0625, -6)" class="inner"><text style=""><tspan class="row" x="0" dy="1em" xml:space="preserve">1</tspan></text></g></g><g transform="translate(542.268253252277, 327.7955168988741)" class="edgeTerminals"><g transform="translate(-3.0625, -6)" class="inner"/><text style=""><tspan class="row" x="0" dy="1em" xml:space="preserve">1</tspan></text></g><g transform="translate(79.9609375, 284.5)" class="edgeLabel"><g transform="translate(-26.6796875, -8.5)" class="label"><rect height="17.6473388671875" width="53.335933685302734" ry="0" rx="0"/><text style=""><tspan class="row" x="0" dy="1em" xml:space="preserve">collects</tspan></text></g></g><g transform="translate(126.2165384848644, 239.22892378990795)" class="edgeTerminals"><g transform="translate(-3.0625, -6)" class="inner"><text style=""><tspan class="row" x="0" dy="1em" xml:space="preserve">1</tspan></text></g></g><g transform="translate(90.59337810330982, 296.4263522202879)" class="edgeTerminals"><g transform="translate(-8.614990234375, -6)" class="inner"/><text style=""><tspan class="row" x="0" dy="1em" xml:space="preserve">0..*</tspan></text></g><g transform="translate(207.125, 284.5)" class="edgeLabel"><g transform="translate(-80.484375, -8.5)" class="label"><rect height="17.6473388671875" width="160.89410400390625" ry="0" rx="0"/><text style=""><tspan class="row" x="0" dy="1em" xml:space="preserve">via direct function calls</tspan></text></g></g><g transform="translate(354.75, 284.5)" class="edgeLabel"><g transform="translate(-47.140625, -8.5)" class="label"><rect height="17.6473388671875" width="94.24388885498047" ry="0" rx="0"/><text style=""><tspan class="row" x="0" dy="1em" xml:space="preserve">via event bus</tspan></text></g></g><g transform="translate(282.93359375, 491.5)" class="edgeLabel"><g transform="translate(-40.96484375, -8.5)" class="label"><rect height="17.6473388671875" width="81.79621124267578" ry="0" rx="0"/><text style=""><tspan class="row" x="0" dy="1em" xml:space="preserve">connects to</tspan></text></g></g><g transform="translate(479.18359375, 574)" class="edgeLabel"><g transform="translate(-26.6796875, -8.5)" class="label"><rect height="17.6473388671875" width="53.335933685302734" ry="0" rx="0"/><text style=""><tspan class="row" x="0" dy="1em" xml:space="preserve">collects</tspan></text></g></g><g transform="translate(449.94459465592666, 470.105845983164)" class="edgeTerminals"><g transform="translate(-3.0625, -6)" class="inner"><text style=""><tspan class="row" x="0" dy="1em" xml:space="preserve">1</tspan></text></g></g><g transform="translate(514.1440362968905, 668.2771687680992)" class="edgeTerminals"><g transform="translate(-8.614990234375, -6)" class="inner"/><text style=""><tspan class="row" x="0" dy="1em" xml:space="preserve">0..*</tspan></text></g><g transform="translate(79.9609375, 491.5)" class="edgeLabel"><g transform="translate(-26.6796875, -8.5)" class="label"><rect height="17.6473388671875" width="53.335933685302734" ry="0" rx="0"/><text style=""><tspan class="row" x="0" dy="1em" xml:space="preserve">collects</tspan></text></g></g><g transform="translate(64.9609375, 475.5)" class="edgeTerminals"><g transform="translate(-3.0625, -6)" class="inner"><text style=""><tspan class="row" x="0" dy="1em" xml:space="preserve">1</tspan></text></g></g><g transform="translate(89.9609375, 502.5)" class="edgeTerminals"><g transform="translate(-8.614990234375, -6)" class="inner"/><text style=""><tspan class="row" x="0" dy="1em" xml:space="preserve">0..*</tspan></text></g><g transform="translate(79.9609375, 656.5)" class="edgeLabel"><g transform="translate(-53.3671875, -8.5)" class="label"><rect height="17.6473388671875" width="107.51424407958984" ry="0" rx="0"/><text style=""><tspan class="row" x="0" dy="1em" xml:space="preserve">represented by</tspan></text></g></g><g transform="translate(65.70257225544377, 640.57533409931)" class="edgeTerminals"><g transform="translate(-3.0625, -6)" class="inner"><text style=""><tspan class="row" x="0" dy="1em" xml:space="preserve">1</tspan></text></g></g><g transform="translate(503.3441196041613, 742.6648026762307)" class="edgeTerminals"><g transform="translate(-3.0625, -6)" class="inner"/><text style=""><tspan class="row" x="0" dy="1em" xml:space="preserve">1</tspan></text></g><g transform="translate(672.9453125, 656.5)" class="edgeLabel"><g transform="translate(-25.7890625, -8.5)" class="label"><rect height="17.6473388671875" width="51.56332015991211" ry="0" rx="0"/><text style=""><tspan class="row" x="0" dy="1em" xml:space="preserve">inherits</tspan></text></g></g><g transform="translate(891.3671875, 656.5)" class="edgeLabel"><g transform="translate(-25.7890625, -8.5)" class="label"><rect height="17.6473388671875" width="51.56332015991211" ry="0" rx="0"/><text style=""><tspan class="row" x="0" dy="1em" xml:space="preserve">inherits</tspan></text></g></g><g transform="translate(494.240234375, 284.5)" class="edgeLabel"><g transform="translate(-40.96484375, -8.5)" class="label"><rect height="17.6473388671875" width="81.79621124267578" ry="0" rx="0"/><text style=""><tspan class="row" x="0" dy="1em" xml:space="preserve">connects to</tspan></text></g></g><g class="edgeLabel"><g transform="translate(0, 0)" class="label"><rect height="0" width="0" ry="0" rx="0"/><text style=""><tspan class="row" x="0" dy="1em" xml:space="preserve"/></text></g></g><g class="edgeLabel"><g transform="translate(0, 0)" class="label"><rect height="0" width="0" ry="0" rx="0"/><text style=""><tspan class="row" x="0" dy="1em" xml:space="preserve"/></text></g></g></g><g class="nodes"><g transform="translate(420.984375, 47)" id="classId-Monolith-0" class="node default"><rect height="78" width="104.921875" y="-39" x="-52.4609375" class="outer title-state"/><line y2="12" y1="12" x2="52.4609375" x1="-52.4609375" class="divider"/><line y2="28" y1="28" x2="52.4609375" x1="-52.4609375" class="divider"/><g class="label"><text transform="translate( -44.9609375, -31.5)" style=""><tspan class="title-row" x="0" dy="1em" xml:space="preserve">«service»</tspan></text><text transform="translate( -33.3203125, -9.5)" class="classTitle" style=""><tspan class="title-row" x="0" dy="1em" xml:space="preserve">Monolith</tspan></text></g></g><g transform="translate(217.35546875, 202)" id="classId-RoomManager-1" class="node default"><rect height="98" width="136.828125" y="-49" x="-68.4140625" class="outer title-state"/><line y2="-20" y1="-20" x2="68.4140625" x1="-68.4140625" class="divider"/><line y2="38" y1="38" x2="68.4140625" x1="-68.4140625" class="divider"/><g class="label"><text style=""><tspan class="title-row" x="0" dy="1em" xml:space="preserve"/></text><text transform="translate( -55.5625, -41.5)" class="classTitle" style=""><tspan class="title-row" x="0" dy="1em" xml:space="preserve">RoomManager</tspan></text><text transform="translate( -60.9140625, -8.5)" style=""><tspan class="title-row" x="0" dy="1em" xml:space="preserve">Room[] room</tspan></text><text transform="translate( -60.9140625, 12.5)" style=""><tspan class="title-row" x="0" dy="1em" xml:space="preserve">EventEmitter bus</tspan></text></g></g><g transform="translate(420.984375, 388)" id="classId-ClientManager-2" class="node default"><rect height="119" width="228.84375" y="-59.5" x="-114.421875" class="outer title-state"/><line y2="-30.5" y1="-30.5" x2="114.421875" x1="-114.421875" class="divider"/><line y2="48.5" y1="48.5" x2="114.421875" x1="-114.421875" class="divider"/><g class="label"><text style=""><tspan class="title-row" x="0" dy="1em" xml:space="preserve"/></text><text transform="translate( -55.125, -52)" class="classTitle" style=""><tspan class="title-row" x="0" dy="1em" xml:space="preserve">ClientManager</tspan></text><text transform="translate( -106.921875, -19)" style=""><tspan class="title-row" x="0" dy="1em" xml:space="preserve">Client[] connections</tspan></text><text transform="translate( -106.921875, 2)" style=""><tspan class="title-row" x="0" dy="1em" xml:space="preserve">Map roomJoins</tspan></text><text transform="translate( -106.921875, 23)" style=""><tspan class="title-row" x="0" dy="1em" xml:space="preserve">Option&lt;WebSocket&gt; balancer</tspan></text></g></g><g transform="translate(282.93359375, 574)" id="classId-Redis-3" class="node default"><rect height="78" width="104.921875" y="-39" x="-52.4609375" class="outer title-state"/><line y2="12" y1="12" x2="52.4609375" x1="-52.4609375" class="divider"/><line y2="28" y1="28" x2="52.4609375" x1="-52.4609375" class="divider"/><g class="label"><text transform="translate( -44.9609375, -31.5)" style=""><tspan class="title-row" x="0" dy="1em" xml:space="preserve">«service»</tspan></text><text transform="translate( -21.8359375, -9.5)" class="classTitle" style=""><tspan class="title-row" x="0" dy="1em" xml:space="preserve">Redis</tspan></text></g></g><g transform="translate(79.9609375, 388)" id="classId-Room-4" class="node default"><rect height="140" width="143.921875" y="-70" x="-71.9609375" class="outer title-state"/><line y2="-41" y1="-41" x2="71.9609375" x1="-71.9609375" class="divider"/><line y2="59" y1="59" x2="71.9609375" x1="-71.9609375" class="divider"/><g class="label"><text style=""><tspan class="title-row" x="0" dy="1em" xml:space="preserve"/></text><text transform="translate( -22.6640625, -62.5)" class="classTitle" style=""><tspan class="title-row" x="0" dy="1em" xml:space="preserve">Room</tspan></text><text transform="translate( -64.4609375, -29.5)" style=""><tspan class="title-row" x="0" dy="1em" xml:space="preserve">String name</tspan></text><text transform="translate( -64.4609375, -8.5)" style=""><tspan class="title-row" x="0" dy="1em" xml:space="preserve">bool isTemporary</tspan></text><text transform="translate( -64.4609375, 12.5)" style=""><tspan class="title-row" x="0" dy="1em" xml:space="preserve">RoomUser[] users</tspan></text><text transform="translate( -64.4609375, 33.5)" style=""><tspan class="title-row" x="0" dy="1em" xml:space="preserve">...</tspan></text></g></g><g transform="translate(624.3671875, 792)" id="classId-Client-5" class="node default"><rect height="204" width="205.328125" y="-102" x="-102.6640625" class="outer title-state"/><line y2="-51" y1="-51" x2="102.6640625" x1="-102.6640625" class="divider"/><line y2="91" y1="91" x2="102.6640625" x1="-102.6640625" class="divider"/><g class="label"><text transform="translate( -48.078125, -94.5)" style=""><tspan class="title-row" x="0" dy="1em" xml:space="preserve">«abstract»</tspan></text><text transform="translate( -22.55859375, -72.5)" class="classTitle" style=""><tspan class="title-row" x="0" dy="1em" xml:space="preserve">Client</tspan></text><text transform="translate( -95.1640625, -39.5)" style=""><tspan class="title-row" x="0" dy="1em" xml:space="preserve">String id</tspan></text><text transform="translate( -95.1640625, -18.5)" style=""><tspan class="title-row" x="0" dy="1em" xml:space="preserve">String room</tspan></text><text transform="translate( -95.1640625, 2.5)" style=""><tspan class="title-row" x="0" dy="1em" xml:space="preserve">AuthToken token</tspan></text><text transform="translate( -95.1640625, 23.5)" style=""><tspan class="title-row" x="0" dy="1em" xml:space="preserve">SessionInfo session</tspan></text><text transform="translate( -95.1640625, 44.5)" style=""><tspan class="title-row" x="0" dy="1em" xml:space="preserve">ClientJoinStatus joinStatus</tspan></text><text transform="translate( -95.1640625, 65.5)" style=""><tspan class="title-row" x="0" dy="1em" xml:space="preserve">EventEmitter bus</tspan></text></g></g><g transform="translate(79.9609375, 574)" id="classId-RoomUser-6" class="node default"><rect height="98" width="134.203125" y="-49" x="-67.1015625" class="outer title-state"/><line y2="-20" y1="-20" x2="67.1015625" x1="-67.1015625" class="divider"/><line y2="38" y1="38" x2="67.1015625" x1="-67.1015625" class="divider"/><g class="label"><text style=""><tspan class="title-row" x="0" dy="1em" xml:space="preserve"/></text><text transform="translate( -40.453125, -41.5)" class="classTitle" style=""><tspan class="title-row" x="0" dy="1em" xml:space="preserve">RoomUser</tspan></text><text transform="translate( -59.6015625, -8.5)" style=""><tspan class="title-row" x="0" dy="1em" xml:space="preserve">String id</tspan></text><text transform="translate( -59.6015625, 12.5)" style=""><tspan class="title-row" x="0" dy="1em" xml:space="preserve">AuthToken token</tspan></text></g></g><g transform="translate(672.9453125, 574)" id="classId-DirectClient-7" class="node default"><rect height="77" width="147.765625" y="-38.5" x="-73.8828125" class="outer title-state"/><line y2="-9.5" y1="-9.5" x2="73.8828125" x1="-73.8828125" class="divider"/><line y2="27.5" y1="27.5" x2="73.8828125" x1="-73.8828125" class="divider"/><g class="label"><text style=""><tspan class="title-row" x="0" dy="1em" xml:space="preserve"/></text><text transform="translate( -45.234375, -31)" class="classTitle" style=""><tspan class="title-row" x="0" dy="1em" xml:space="preserve">DirectClient</tspan></text><text transform="translate( -66.3828125, 2)" style=""><tspan class="title-row" x="0" dy="1em" xml:space="preserve">WebSocket socket</tspan></text></g></g><g transform="translate(891.3671875, 574)" id="classId-BalancerClient-8" class="node default"><rect height="56" width="127.7109375" y="-28" x="-63.85546875" class="outer title-state"/><line y2="1" y1="1" x2="63.85546875" x1="-63.85546875" class="divider"/><line y2="17" y1="17" x2="63.85546875" x1="-63.85546875" class="divider"/><g class="label"><text style=""><tspan class="title-row" x="0" dy="1em" xml:space="preserve"/></text><text transform="translate( -56.35546875, -20.5)" class="classTitle" style=""><tspan class="title-row" x="0" dy="1em" xml:space="preserve">BalancerClient</tspan></text></g></g><g transform="translate(494.240234375, 202)" id="classId-Balancer-9" class="node default"><rect height="78" width="104.921875" y="-39" x="-52.4609375" class="outer title-state"/><line y2="12" y1="12" x2="52.4609375" x1="-52.4609375" class="divider"/><line y2="28" y1="28" x2="52.4609375" x1="-52.4609375" class="divider"/><g class="label"><text transform="translate( -44.9609375, -31.5)" style=""><tspan class="title-row" x="0" dy="1em" xml:space="preserve">«service»</tspan></text><text transform="translate( -33.796875, -9.5)" class="classTitle" style=""><tspan class="title-row" x="0" dy="1em" xml:space="preserve">Balancer</tspan></text></g></g><g transform="translate(672.9453125, 388)" id="note0" class="node undefined"><rect height="48" width="175.078125" y="-24" x="-87.5390625" ry="0" rx="0"/><g transform="translate(-80.0390625, -16.5)" style="" class="label"><rect/><text style=""><tspan class="row" x="0" dy="1em" xml:space="preserve">client that connected</tspan><tspan class="row" x="0" dy="1em" xml:space="preserve">directly to the Monolith</tspan></text></g></g><g transform="translate(891.3671875, 388)" id="note1" class="node undefined"><rect height="48" width="161.765625" y="-24" x="-80.8828125" ry="0" rx="0"/><g transform="translate(-73.3828125, -16.5)" style="" class="label"><rect/><text style=""><tspan class="row" x="0" dy="1em" xml:space="preserve">client that connected</tspan><tspan class="row" x="0" dy="1em" xml:space="preserve">via a Balancer</tspan></text></g></g></g></g></g></svg>