<svg aria-roledescription="classDiagram" role="graphics-document document" viewBox="0 0 498.5859375 870" style="max-width: 498.586px; background-color: white;" xmlns:xlink="http://www.w3.org/1999/xlink" xmlns="http://www.w3.org/2000/svg" width="100%" id="my-svg"><style>#my-svg{font-family:"trebuchet ms",verdana,arial,sans-serif;font-size:16px;fill:#000000;}#my-svg .error-icon{fill:#552222;}#my-svg .error-text{fill:#552222;stroke:#552222;}#my-svg .edge-thickness-normal{stroke-width:2px;}#my-svg .edge-thickness-thick{stroke-width:3.5px;}#my-svg .edge-pattern-solid{stroke-dasharray:0;}#my-svg .edge-pattern-dashed{stroke-dasharray:3;}#my-svg .edge-pattern-dotted{stroke-dasharray:2;}#my-svg .marker{fill:#666;stroke:#666;}#my-svg .marker.cross{stroke:#666;}#my-svg svg{font-family:"trebuchet ms",verdana,arial,sans-serif;font-size:16px;}#my-svg g.classGroup text{fill:#999;stroke:none;font-family:"trebuchet ms",verdana,arial,sans-serif;font-size:10px;}#my-svg g.classGroup text .title{font-weight:bolder;}#my-svg .nodeLabel,#my-svg .edgeLabel{color:#111111;}#my-svg .edgeLabel .label rect{fill:#eee;}#my-svg .label text{fill:#111111;}#my-svg .edgeLabel .label span{background:#eee;}#my-svg .classTitle{font-weight:bolder;}#my-svg .node rect,#my-svg .node circle,#my-svg .node ellipse,#my-svg .node polygon,#my-svg .node path{fill:#eee;stroke:#999;stroke-width:1px;}#my-svg .divider{stroke:#999;stroke-width:1;}#my-svg g.clickable{cursor:pointer;}#my-svg g.classGroup rect{fill:#eee;stroke:#999;}#my-svg g.classGroup line{stroke:#999;stroke-width:1;}#my-svg .classLabel .box{stroke:none;stroke-width:0;fill:#eee;opacity:0.5;}#my-svg .classLabel .label{fill:#999;font-size:10px;}#my-svg .relation{stroke:#666;stroke-width:1;fill:none;}#my-svg .dashed-line{stroke-dasharray:3;}#my-svg .dotted-line{stroke-dasharray:1 2;}#my-svg #compositionStart,#my-svg .composition{fill:#666!important;stroke:#666!important;stroke-width:1;}#my-svg #compositionEnd,#my-svg .composition{fill:#666!important;stroke:#666!important;stroke-width:1;}#my-svg #dependencyStart,#my-svg .dependency{fill:#666!important;stroke:#666!important;stroke-width:1;}#my-svg #dependencyStart,#my-svg .dependency{fill:#666!important;stroke:#666!important;stroke-width:1;}#my-svg #extensionStart,#my-svg .extension{fill:transparent!important;stroke:#666!important;stroke-width:1;}#my-svg #extensionEnd,#my-svg .extension{fill:transparent!important;stroke:#666!important;stroke-width:1;}#my-svg #aggregationStart,#my-svg .aggregation{fill:transparent!important;stroke:#666!important;stroke-width:1;}#my-svg #aggregationEnd,#my-svg .aggregation{fill:transparent!important;stroke:#666!important;stroke-width:1;}#my-svg #lollipopStart,#my-svg .lollipop{fill:#eee!important;stroke:#666!important;stroke-width:1;}#my-svg #lollipopEnd,#my-svg .lollipop{fill:#eee!important;stroke:#666!important;stroke-width:1;}#my-svg .edgeTerminals{font-size:11px;}#my-svg .classTitleText{text-anchor:middle;font-size:18px;fill:#000000;}#my-svg :root{--mermaid-font-family:"trebuchet ms",verdana,arial,sans-serif;}</style><g><defs><marker orient="auto" markerHeight="240" markerWidth="190" refY="7" refX="18" class="marker aggregation classDiagram" id="my-svg_classDiagram-aggregationStart"><path d="M 18,7 L9,13 L1,7 L9,1 Z"/></marker></defs><defs><marker orient="auto" markerHeight="28" markerWidth="20" refY="7" refX="1" class="marker aggregation classDiagram" id="my-svg_classDiagram-aggregationEnd"><path d="M 18,7 L9,13 L1,7 L9,1 Z"/></marker></defs><defs><marker orient="auto" markerHeight="240" markerWidth="190" refY="7" refX="18" class="marker extension classDiagram" id="my-svg_classDiagram-extensionStart"><path d="M 1,7 L18,13 V 1 Z"/></marker></defs><defs><marker orient="auto" markerHeight="28" markerWidth="20" refY="7" refX="1" class="marker extension classDiagram" id="my-svg_classDiagram-extensionEnd"><path d="M 1,1 V 13 L18,7 Z"/></marker></defs><defs><marker orient="auto" markerHeight="240" markerWidth="190" refY="7" refX="18" class="marker composition classDiagram" id="my-svg_classDiagram-compositionStart"><path d="M 18,7 L9,13 L1,7 L9,1 Z"/></marker></defs><defs><marker orient="auto" markerHeight="28" markerWidth="20" refY="7" refX="1" class="marker composition classDiagram" id="my-svg_classDiagram-compositionEnd"><path d="M 18,7 L9,13 L1,7 L9,1 Z"/></marker></defs><defs><marker orient="auto" markerHeight="240" markerWidth="190" refY="7" refX="6" class="marker dependency classDiagram" id="my-svg_classDiagram-dependencyStart"><path d="M 5,7 L9,13 L1,7 L9,1 Z"/></marker></defs><defs><marker orient="auto" markerHeight="28" markerWidth="20" refY="7" refX="13" class="marker dependency classDiagram" id="my-svg_classDiagram-dependencyEnd"><path d="M 18,7 L9,13 L14,7 L9,1 Z"/></marker></defs><defs><marker orient="auto" markerHeight="240" markerWidth="190" refY="7" refX="13" class="marker lollipop classDiagram" id="my-svg_classDiagram-lollipopStart"><circle r="6" cy="7" cx="7" fill="transparent" stroke="black"/></marker></defs><defs><marker orient="auto" markerHeight="240" markerWidth="190" refY="7" refX="1" class="marker lollipop classDiagram" id="my-svg_classDiagram-lollipopEnd"><circle r="6" cy="7" cx="7" fill="transparent" stroke="black"/></marker></defs><g class="root"><g class="clusters"/><g class="edgePaths"><path marker-end="url(#my-svg_classDiagram-dependencyEnd)" style="fill:none" class="edge-pattern-solid relation" id="id1" d="M251.6484375,75.71705137751303L263.1555989583333,83.47254281459419C274.6627604166667,91.22803425167535,297.6770833333333,106.73901712583768,309.1842447916667,119.20284189625217C320.69140625,131.66666666666666,320.69140625,141.08333333333334,320.69140625,145.79166666666666L320.69140625,150.5"/><path marker-end="url(#my-svg_classDiagram-dependencyEnd)" style="fill:none" class="edge-pattern-solid relation" id="id2" d="M171.34835332491582,88L165.7577423540965,93.70833333333333C160.16713138327722,99.41666666666667,148.9859094416386,110.83333333333333,143.3952984708193,128.91666666666666C137.8046875,147,137.8046875,171.75,137.8046875,196.5C137.8046875,221.25,137.8046875,246,142.3521947105893,265.1288396733118C146.8997019211786,284.25767934662366,155.99471634235718,297.76535869324726,160.54222355294647,304.5191983665591L165.08973076353578,311.2730380398709"/><path marker-start="url(#my-svg_classDiagram-aggregationStart)" style="fill:none" class="edge-pattern-solid relation" id="id3" d="M389.2111900637421,247.20757448828536L394.5132313031184,251.13131207357114C399.81527254249477,255.0550496588569,410.4193550212474,262.90252482942844,415.72139626062364,272.5345957480476C421.0234375,282.1666666666667,421.0234375,293.5833333333333,421.0234375,299.2916666666667L421.0234375,305"/><path style="fill:none" class="edge-pattern-dashed relation" id="id4" d="M292.23391466750843,236.5L288.17279347292373,242.20833333333334C284.111672278339,247.91666666666666,275.98942988916946,259.3333333333333,267.90185711279463,272.625C259.81428433641975,285.9166666666667,251.7613811728395,301.0833333333333,247.7349295910494,308.6666666666667L243.70847800925927,316.25"/><path marker-end="url(#my-svg_classDiagram-dependencyEnd)" style="fill:none" class="edge-pattern-solid relation" id="id5" d="M261.13671875,212.81193262053662L225.88151041666666,222.46827718378051C190.62630208333334,232.1246217470244,120.11588541666667,251.4373108735122,84.86067708333333,279.09365543675614C49.60546875,306.75,49.60546875,342.75,49.60546875,378.75C49.60546875,414.75,49.60546875,450.75,51.998544233928065,475.39252567271797C54.39161971785612,500.03505134543593,59.17777068571224,513.3201026908717,61.570846169640305,519.9626283635897L63.96392165356836,526.6051540363077"/><path marker-end="url(#my-svg_classDiagram-dependencyEnd)" style="fill:none" class="edge-pattern-solid relation" id="id6" d="M180.47944697627315,441.25L176.8341094593943,448.8333333333333C173.18877194251544,456.4166666666667,165.8980969087577,471.5833333333333,155.99186106622244,486.012090641489C146.08562522368717,500.44084794964465,133.56382857237432,514.1316958992892,127.3029302467179,520.9771198741115L121.0420319210615,527.8225438489338"/><path marker-start="url(#my-svg_classDiagram-aggregationStart)" style="fill:none" class="edge-pattern-solid relation" id="id7" d="M244.0021628454584,457.82563097272515L246.04314351704866,462.6463591439376C248.08412418863895,467.4670873151501,252.16608553181948,477.108543657575,254.2070662034097,496.17927182878753C256.248046875,515.25,256.248046875,543.75,256.248046875,572.25C256.248046875,600.75,256.248046875,629.25,261.01948279721347,649.2083333333334C265.790918719427,669.1666666666666,275.33379056385394,680.5833333333334,280.10522648606747,686.2916666666666L284.87666240828094,692"/><path marker-start="url(#my-svg_classDiagram-aggregationStart)" style="fill:none" class="edge-pattern-solid relation" id="id8" d="M421.0234375,470.5L421.0234375,473.2083333333333C421.0234375,475.9166666666667,421.0234375,481.3333333333333,421.0234375,489.75C421.0234375,498.1666666666667,421.0234375,509.5833333333333,421.0234375,515.2916666666666L421.0234375,521"/><path marker-start="url(#my-svg_classDiagram-dependencyStart)" style="fill:none" class="edge-pattern-dashed relation" id="id9" d="M421.0234375,629.5L421.0234375,634.2083333333334C421.0234375,638.9166666666666,421.0234375,648.3333333333334,417.907302312631,658.75C414.79116712526206,669.1666666666666,408.5588967505241,680.5833333333334,405.4427615631551,686.2916666666666L402.3266263757862,692"/></g><g class="edgeLabels"><g transform="translate(320.69140625, 122.25)" class="edgeLabel"><g transform="translate(-20.1328125, -9.25)" class="label"><rect height="18.500167846679688" width="40.2581787109375" ry="0" rx="0"/><text style=""><tspan class="row" x="0" dy="1em" xml:space="preserve">starts</tspan></text></g></g><g transform="translate(257.7769102899538, 97.936227470869)" class="edgeTerminals"><g transform="translate(-2.88671875, -6.5)" class="inner"><text style=""><tspan class="row" x="0" dy="1em" xml:space="preserve">1</tspan></text></g></g><g transform="translate(330.3780251014513, 133.8963756100239)" class="edgeTerminals"><g transform="translate(-2.88671875, -6.5)" class="inner"/><text style=""><tspan class="row" x="0" dy="1em" xml:space="preserve">1</tspan></text></g><g transform="translate(137.8046875, 196.5)" class="edgeLabel"><g transform="translate(-20.1328125, -9.25)" class="label"><rect height="18.500167846679688" width="40.2581787109375" ry="0" rx="0"/><text style=""><tspan class="row" x="0" dy="1em" xml:space="preserve">starts</tspan></text></g></g><g transform="translate(148.38704842348267, 90.00709107295154)" class="edgeTerminals"><g transform="translate(-2.88671875, -6.5)" class="inner"><text style=""><tspan class="row" x="0" dy="1em" xml:space="preserve">1</tspan></text></g></g><g transform="translate(166.1091983356585, 288.35611754138847)" class="edgeTerminals"><g transform="translate(-2.88671875, -6.5)" class="inner"/><text style=""><tspan class="row" x="0" dy="1em" xml:space="preserve">1</tspan></text></g><g transform="translate(421.0234375, 270.75)" class="edgeLabel"><g transform="translate(-27.70703125, -9.25)" class="label"><rect height="18.500167846679688" width="55.39894104003906" ry="0" rx="0"/><text style=""><tspan class="row" x="0" dy="1em" xml:space="preserve">collects</tspan></text></g></g><g transform="translate(379.88629786479163, 258.96752195583144)" class="edgeTerminals"><g transform="translate(-2.88671875, -6.5)" class="inner"><text style=""><tspan class="row" x="0" dy="1em" xml:space="preserve">1</tspan></text></g></g><g transform="translate(430.719739918448, 282.3913298702945)" class="edgeTerminals"><g transform="translate(-8.9453125, -6.5)" class="inner"/><text style=""><tspan class="row" x="0" dy="1em" xml:space="preserve">0..*</tspan></text></g><g transform="translate(267.8671875, 270.75)" class="edgeLabel"><g transform="translate(-59.25, -9.25)" class="label"><rect height="18.500167846679688" width="118.4698257446289" ry="0" rx="0"/><text style=""><tspan class="row" x="0" dy="1em" xml:space="preserve">via Redis Pubsub</tspan></text></g></g><g transform="translate(49.60546875, 378.75)" class="edgeLabel"><g transform="translate(-41.60546875, -9.25)" class="label"><rect height="18.500167846679688" width="83.1882553100586" ry="0" rx="0"/><text style=""><tspan class="row" x="0" dy="1em" xml:space="preserve">connects to</tspan></text></g></g><g transform="translate(158.607421875, 486.75)" class="edgeLabel"><g transform="translate(-41.60546875, -9.25)" class="label"><rect height="18.500167846679688" width="83.1882553100586" ry="0" rx="0"/><text style=""><tspan class="row" x="0" dy="1em" xml:space="preserve">connects to</tspan></text></g></g><g transform="translate(256.248046875, 572.25)" class="edgeLabel"><g transform="translate(-27.70703125, -9.25)" class="label"><rect height="18.500167846679688" width="55.39894104003906" ry="0" rx="0"/><text style=""><tspan class="row" x="0" dy="1em" xml:space="preserve">collects</tspan></text></g></g><g transform="translate(229.99419798294593, 463.2132979545856)" class="edgeTerminals"><g transform="translate(-2.88671875, -6.5)" class="inner"><text style=""><tspan class="row" x="0" dy="1em" xml:space="preserve">1</tspan></text></g></g><g transform="translate(280.1622689590103, 663.952907507561)" class="edgeTerminals"><g transform="translate(-8.9453125, -6.5)" class="inner"/><text style=""><tspan class="row" x="0" dy="1em" xml:space="preserve">0..*</tspan></text></g><g transform="translate(421.0234375, 486.75)" class="edgeLabel"><g transform="translate(-27.70703125, -9.25)" class="label"><rect height="18.500167846679688" width="55.39894104003906" ry="0" rx="0"/><text style=""><tspan class="row" x="0" dy="1em" xml:space="preserve">collects</tspan></text></g></g><g transform="translate(406.02343875, 470.0000010714286)" class="edgeTerminals"><g transform="translate(-2.88671875, -6.5)" class="inner"><text style=""><tspan class="row" x="0" dy="1em" xml:space="preserve">1</tspan></text></g></g><g transform="translate(431.0234387499999, 498.5000010714286)" class="edgeTerminals"><g transform="translate(-8.9453125, -6.5)" class="inner"/><text style=""><tspan class="row" x="0" dy="1em" xml:space="preserve">0..*</tspan></text></g><g transform="translate(421.0234375, 657.75)" class="edgeLabel"><g transform="translate(-54.1796875, -9.25)" class="label"><rect height="18.500167846679688" width="108.32910919189453" ry="0" rx="0"/><text style=""><tspan class="row" x="0" dy="1em" xml:space="preserve">represented by</tspan></text></g></g><g transform="translate(405.84455348579604, 640.7997432570269)" class="edgeTerminals"><g transform="translate(-2.88671875, -6.5)" class="inner"><text style=""><tspan class="row" x="0" dy="1em" xml:space="preserve">1</tspan></text></g></g><g transform="translate(418.87772897857417, 678.826876984861)" class="edgeTerminals"><g transform="translate(-2.88671875, -6.5)" class="inner"/><text style=""><tspan class="row" x="0" dy="1em" xml:space="preserve">1</tspan></text></g></g><g class="nodes"><g transform="translate(210.5234375, 48)" id="classId-Monolith-0" class="node default"><rect height="80" width="82.25" y="-40" x="-41.125" class="outer title-state"/><line y2="13" y1="13" x2="41.125" x1="-41.125" class="divider"/><line y2="29" y1="29" x2="41.125" x1="-41.125" class="divider"/><g class="label"><text transform="translate( -33.625, -32.5)" style=""><tspan class="title-row" x="0" dy="1em" xml:space="preserve">«service»</tspan></text><text transform="translate( -32.3984375, -10)" class="classTitle" style=""><tspan class="title-row" x="0" dy="1em" xml:space="preserve">Monolith</tspan></text></g></g><g transform="translate(320.69140625, 196.5)" id="classId-RoomManager-1" class="node default"><rect height="80" width="119.109375" y="-40" x="-59.5546875" class="outer title-state"/><line y2="-9.5" y1="-9.5" x2="59.5546875" x1="-59.5546875" class="divider"/><line y2="29" y1="29" x2="59.5546875" x1="-59.5546875" class="divider"/><g class="label"><text style=""><tspan class="title-row" x="0" dy="1em" xml:space="preserve"/></text><text transform="translate( -52.0546875, -32.5)" class="classTitle" style=""><tspan class="title-row" x="0" dy="1em" xml:space="preserve">RoomManager</tspan></text><text transform="translate( -52.0546875, 2)" style=""><tspan class="title-row" x="0" dy="1em" xml:space="preserve">Room[] room</tspan></text></g></g><g transform="translate(210.5234375, 378.75)" id="classId-ClientManager-2" class="node default"><rect height="125" width="159.5859375" y="-62.5" x="-79.79296875" class="outer title-state"/><line y2="-32" y1="-32" x2="79.79296875" x1="-79.79296875" class="divider"/><line y2="51.5" y1="51.5" x2="79.79296875" x1="-79.79296875" class="divider"/><g class="label"><text style=""><tspan class="title-row" x="0" dy="1em" xml:space="preserve"/></text><text transform="translate( -53.37109375, -55)" class="classTitle" style=""><tspan class="title-row" x="0" dy="1em" xml:space="preserve">ClientManager</tspan></text><text transform="translate( -72.29296875, -20.5)" style=""><tspan class="title-row" x="0" dy="1em" xml:space="preserve">Client[] connections</tspan></text><text transform="translate( -72.29296875, 2)" style=""><tspan class="title-row" x="0" dy="1em" xml:space="preserve">Map roomStates</tspan></text><text transform="translate( -72.29296875, 24.5)" style=""><tspan class="title-row" x="0" dy="1em" xml:space="preserve">Map roomJoins</tspan></text></g></g><g transform="translate(80.408203125, 572.25)" id="classId-Redis-3" class="node default"><rect height="80" width="82.25" y="-40" x="-41.125" class="outer title-state"/><line y2="13" y1="13" x2="41.125" x1="-41.125" class="divider"/><line y2="29" y1="29" x2="41.125" x1="-41.125" class="divider"/><g class="label"><text transform="translate( -33.625, -32.5)" style=""><tspan class="title-row" x="0" dy="1em" xml:space="preserve">«service»</tspan></text><text transform="translate( -19.9609375, -10)" class="classTitle" style=""><tspan class="title-row" x="0" dy="1em" xml:space="preserve">Redis</tspan></text></g></g><g transform="translate(421.0234375, 378.75)" id="classId-Room-4" class="node default"><rect height="147.5" width="139.125" y="-73.75" x="-69.5625" class="outer title-state"/><line y2="-43.25" y1="-43.25" x2="69.5625" x1="-69.5625" class="divider"/><line y2="62.75" y1="62.75" x2="69.5625" x1="-69.5625" class="divider"/><g class="label"><text style=""><tspan class="title-row" x="0" dy="1em" xml:space="preserve"/></text><text transform="translate( -20.81640625, -66.25)" class="classTitle" style=""><tspan class="title-row" x="0" dy="1em" xml:space="preserve">Room</tspan></text><text transform="translate( -62.0625, -31.75)" style=""><tspan class="title-row" x="0" dy="1em" xml:space="preserve">String name</tspan></text><text transform="translate( -62.0625, -9.25)" style=""><tspan class="title-row" x="0" dy="1em" xml:space="preserve">bool isTemporary</tspan></text><text transform="translate( -62.0625, 13.25)" style=""><tspan class="title-row" x="0" dy="1em" xml:space="preserve">RoomUser[] users</tspan></text><text transform="translate( -62.0625, 35.75)" style=""><tspan class="title-row" x="0" dy="1em" xml:space="preserve">...</tspan></text></g></g><g transform="translate(355.92578125, 777)" id="classId-Client-5" class="node default"><rect height="170" width="148.828125" y="-85" x="-74.4140625" class="outer title-state"/><line y2="-54.5" y1="-54.5" x2="74.4140625" x1="-74.4140625" class="divider"/><line y2="74" y1="74" x2="74.4140625" x1="-74.4140625" class="divider"/><g class="label"><text style=""><tspan class="title-row" x="0" dy="1em" xml:space="preserve"/></text><text transform="translate( -22.1328125, -77.5)" class="classTitle" style=""><tspan class="title-row" x="0" dy="1em" xml:space="preserve">Client</tspan></text><text transform="translate( -66.9140625, -43)" style=""><tspan class="title-row" x="0" dy="1em" xml:space="preserve">String id</tspan></text><text transform="translate( -66.9140625, -20.5)" style=""><tspan class="title-row" x="0" dy="1em" xml:space="preserve">WebSocket socket</tspan></text><text transform="translate( -66.9140625, 2)" style=""><tspan class="title-row" x="0" dy="1em" xml:space="preserve">SessionInfo session</tspan></text><text transform="translate( -66.9140625, 24.5)" style=""><tspan class="title-row" x="0" dy="1em" xml:space="preserve">String room</tspan></text><text transform="translate( -66.9140625, 47)" style=""><tspan class="title-row" x="0" dy="1em" xml:space="preserve">AuthToken token</tspan></text></g></g><g transform="translate(421.0234375, 572.25)" id="classId-RoomUser-6" class="node default"><rect height="102.5" width="134.9765625" y="-51.25" x="-67.48828125" class="outer title-state"/><line y2="-20.75" y1="-20.75" x2="67.48828125" x1="-67.48828125" class="divider"/><line y2="40.25" y1="40.25" x2="67.48828125" x1="-67.48828125" class="divider"/><g class="label"><text style=""><tspan class="title-row" x="0" dy="1em" xml:space="preserve"/></text><text transform="translate( -37.69921875, -43.75)" class="classTitle" style=""><tspan class="title-row" x="0" dy="1em" xml:space="preserve">RoomUser</tspan></text><text transform="translate( -59.98828125, -9.25)" style=""><tspan class="title-row" x="0" dy="1em" xml:space="preserve">String id</tspan></text><text transform="translate( -59.98828125, 13.25)" style=""><tspan class="title-row" x="0" dy="1em" xml:space="preserve">AuthToken token</tspan></text></g></g></g></g></g></svg>