<svg aria-labelledby="chart-title-my-svg" aria-roledescription="classDiagram" role="graphics-document document" viewBox="-8 -49 921.65234375 932" style="max-width: 921.652px; background-color: white;" xmlns:xlink="http://www.w3.org/1999/xlink" xmlns="http://www.w3.org/2000/svg" width="100%" id="my-svg"><title id="chart-title-my-svg">Monoliths's New Internals</title><style>#my-svg{font-family:"trebuchet ms",verdana,arial,sans-serif;font-size:16px;fill:#000000;}#my-svg .error-icon{fill:#552222;}#my-svg .error-text{fill:#552222;stroke:#552222;}#my-svg .edge-thickness-normal{stroke-width:2px;}#my-svg .edge-thickness-thick{stroke-width:3.5px;}#my-svg .edge-pattern-solid{stroke-dasharray:0;}#my-svg .edge-pattern-dashed{stroke-dasharray:3;}#my-svg .edge-pattern-dotted{stroke-dasharray:2;}#my-svg .marker{fill:#666;stroke:#666;}#my-svg .marker.cross{stroke:#666;}#my-svg svg{font-family:"trebuchet ms",verdana,arial,sans-serif;font-size:16px;}#my-svg g.classGroup text{fill:#999;fill:#111111;stroke:none;font-family:"trebuchet ms",verdana,arial,sans-serif;font-size:10px;}#my-svg g.classGroup text .title{font-weight:bolder;}#my-svg .nodeLabel,#my-svg .edgeLabel{color:#111111;}#my-svg .edgeLabel .label rect{fill:#eee;}#my-svg .label text{fill:#111111;}#my-svg .edgeLabel .label span{background:#eee;}#my-svg .classTitle{font-weight:bolder;}#my-svg .node rect,#my-svg .node circle,#my-svg .node ellipse,#my-svg .node polygon,#my-svg .node path{fill:#eee;stroke:#999;stroke-width:1px;}#my-svg .divider{stroke:#999;stroke-width:1;}#my-svg g.clickable{cursor:pointer;}#my-svg g.classGroup rect{fill:#eee;stroke:#999;}#my-svg g.classGroup line{stroke:#999;stroke-width:1;}#my-svg .classLabel .box{stroke:none;stroke-width:0;fill:#eee;opacity:0.5;}#my-svg .classLabel .label{fill:#999;font-size:10px;}#my-svg .relation{stroke:#666;stroke-width:1;fill:none;}#my-svg .dashed-line{stroke-dasharray:3;}#my-svg .dotted-line{stroke-dasharray:1 2;}#my-svg #compositionStart,#my-svg .composition{fill:#666!important;stroke:#666!important;stroke-width:1;}#my-svg #compositionEnd,#my-svg .composition{fill:#666!important;stroke:#666!important;stroke-width:1;}#my-svg #dependencyStart,#my-svg .dependency{fill:#666!important;stroke:#666!important;stroke-width:1;}#my-svg #dependencyStart,#my-svg .dependency{fill:#666!important;stroke:#666!important;stroke-width:1;}#my-svg #extensionStart,#my-svg .extension{fill:#eee!important;stroke:#666!important;stroke-width:1;}#my-svg #extensionEnd,#my-svg .extension{fill:#eee!important;stroke:#666!important;stroke-width:1;}#my-svg #aggregationStart,#my-svg .aggregation{fill:#eee!important;stroke:#666!important;stroke-width:1;}#my-svg #aggregationEnd,#my-svg .aggregation{fill:#eee!important;stroke:#666!important;stroke-width:1;}#my-svg #lollipopStart,#my-svg .lollipop{fill:#eee!important;stroke:#666!important;stroke-width:1;}#my-svg #lollipopEnd,#my-svg .lollipop{fill:#eee!important;stroke:#666!important;stroke-width:1;}#my-svg .edgeTerminals{font-size:11px;}#my-svg .classTitleText{text-anchor:middle;font-size:18px;fill:#000000;}#my-svg :root{--mermaid-font-family:"trebuchet ms",verdana,arial,sans-serif;}</style><g><defs><marker orient="auto" markerHeight="240" markerWidth="190" refY="7" refX="0" class="marker aggregation classDiagram" id="classDiagram-aggregationStart"><path d="M 18,7 L9,13 L1,7 L9,1 Z"/></marker></defs><defs><marker orient="auto" markerHeight="28" markerWidth="20" refY="7" refX="19" class="marker aggregation classDiagram" id="classDiagram-aggregationEnd"><path d="M 18,7 L9,13 L1,7 L9,1 Z"/></marker></defs><defs><marker orient="auto" markerHeight="240" markerWidth="190" refY="7" refX="0" class="marker extension classDiagram" id="classDiagram-extensionStart"><path d="M 1,7 L18,13 V 1 Z"/></marker></defs><defs><marker orient="auto" markerHeight="28" markerWidth="20" refY="7" refX="19" class="marker extension classDiagram" id="classDiagram-extensionEnd"><path d="M 1,1 V 13 L18,7 Z"/></marker></defs><defs><marker orient="auto" markerHeight="240" markerWidth="190" refY="7" refX="0" class="marker composition classDiagram" id="classDiagram-compositionStart"><path d="M 18,7 L9,13 L1,7 L9,1 Z"/></marker></defs><defs><marker orient="auto" markerHeight="28" markerWidth="20" refY="7" refX="19" class="marker composition classDiagram" id="classDiagram-compositionEnd"><path d="M 18,7 L9,13 L1,7 L9,1 Z"/></marker></defs><defs><marker orient="auto" markerHeight="240" markerWidth="190" refY="7" refX="0" class="marker dependency classDiagram" id="classDiagram-dependencyStart"><path d="M 5,7 L9,13 L1,7 L9,1 Z"/></marker></defs><defs><marker orient="auto" markerHeight="28" markerWidth="20" refY="7" refX="19" class="marker dependency classDiagram" id="classDiagram-dependencyEnd"><path d="M 18,7 L9,13 L14,7 L9,1 Z"/></marker></defs><defs><marker orient="auto" markerHeight="240" markerWidth="190" refY="7" refX="0" class="marker lollipop classDiagram" id="classDiagram-lollipopStart"><circle r="6" cy="7" cx="6" fill="white" stroke="black"/></marker></defs><g class="root"><g class="clusters"/><g class="edgePaths"><path marker-end="url(#classDiagram-dependencyEnd)" style="fill:none" class="edge-pattern-solid relation" id="id1" d="M312.59765625,71.21164059658058L301.6653645833333,77.67636716381715C290.7330729166667,84.14109373105372,268.8684895833333,97.07054686552686,257.9361979166667,107.70194009943009C247.00390625,118.33333333333333,247.00390625,126.66666666666667,247.00390625,130.83333333333334L247.00390625,135"/><path marker-end="url(#classDiagram-dependencyEnd)" style="fill:none" class="edge-pattern-solid relation" id="id2" d="M396.17578125,75.61550660037716L404.4010416666667,81.3462555003143C412.6263020833333,87.07700440025144,429.0768229166667,98.53850220012572,437.3020833333333,116.60258443339619C445.52734375,134.66666666666666,445.52734375,159.33333333333334,445.52734375,185.41666666666666C445.52734375,211.5,445.52734375,239,439.0697149255234,260.0833333333333C432.6120861010467,281.1666666666667,419.69682845209337,295.8333333333333,413.23919962761676,303.1666666666667L406.7815708031401,310.5"/><path marker-end="url(#classDiagram-dependencyEnd)" style="fill:none" class="edge-pattern-solid relation" id="id3" d="M178.58984375,217.7886724504829L162.15169270833334,225.90722704206908C145.71354166666666,234.02578163365524,112.83723958333333,250.26289081682762,96.39908854166667,263.9647787417471C79.9609375,277.6666666666667,79.9609375,288.8333333333333,79.9609375,294.4166666666667L79.9609375,300"/><path marker-start="url(#classDiagram-dependencyStart)" style="fill:none" class="edge-pattern-solid relation" id="id4" d="M207.47213541666667,233L202.96766493055557,238.58333333333334C198.46319444444444,244.16666666666666,189.45425347222223,255.33333333333334,197.2741338315217,268.25C205.09401419082124,281.1666666666667,229.7427158816425,295.8333333333333,242.06706672705312,303.1666666666667L254.39141757246375,310.5"/><path marker-end="url(#classDiagram-dependencyEnd)" style="fill:none" class="edge-pattern-solid relation" id="id5" d="M314.2652225378788,233L321.929352114899,238.58333333333334C329.5934816919192,244.16666666666666,344.9217408459596,255.33333333333334,352.17043664681233,268.25C359.41913244766505,281.1666666666667,358.58826489533004,295.8333333333333,358.1728311191626,303.1666666666667L357.75739734299515,310.5"/><path marker-end="url(#classDiagram-dependencyEnd)" style="fill:none" class="edge-pattern-solid relation" id="id6" d="M288.1700634057971,429.5L280.0089070048309,436.8333333333333C271.84775060386477,444.1666666666667,255.52543780193238,458.8333333333333,247.36428140096618,473.5C239.203125,488.1666666666667,239.203125,502.8333333333333,239.203125,510.1666666666667L239.203125,517.5"/><path marker-end="url(#classDiagram-dependencyEnd)" style="fill:none" class="edge-pattern-solid relation" id="id7" d="M354.38671875,429.5L354.38671875,436.8333333333333C354.38671875,444.1666666666667,354.38671875,458.8333333333333,354.38671875,479.9166666666667C354.38671875,501,354.38671875,528.5,354.38671875,556C354.38671875,583.5,354.38671875,611,365.6490885416667,633.6811282439595C376.9114583333333,656.3622564879191,399.4361979166667,674.2245129758381,410.6985677083333,683.1556412197975L421.9609375,692.0867694637572"/><path marker-end="url(#classDiagram-dependencyEnd)" style="fill:none" class="edge-pattern-solid relation" id="id8" d="M79.9609375,440L79.9609375,445.5833333333333C79.9609375,451.1666666666667,79.9609375,462.3333333333333,79.9609375,473.5C79.9609375,484.6666666666667,79.9609375,495.8333333333333,79.9609375,501.4166666666667L79.9609375,507"/><path marker-start="url(#classDiagram-dependencyStart)" style="fill:none" class="edge-pattern-dashed relation" id="id9" d="M79.9609375,605L79.9609375,610.5833333333334C79.9609375,616.1666666666666,79.9609375,627.3333333333334,136.9609375,650.2218654649167C193.9609375,673.1103975965002,307.9609375,707.7207951930004,364.9609375,725.0259939912504L421.9609375,742.3311927895005"/><path marker-end="url(#classDiagram-extensionEnd)" style="fill:none" class="edge-pattern-solid relation" id="id10" d="M606.34765625,594.5L606.34765625,601.8333333333334C606.34765625,609.1666666666666,606.34765625,623.8333333333334,602.9677686149691,636.75C599.5878809799383,649.6666666666666,592.8281057098766,660.8333333333334,589.4482180748457,666.4166666666666L586.0683304398149,672"/><path marker-end="url(#classDiagram-extensionEnd)" style="fill:none" class="edge-pattern-solid relation" id="id11" d="M824.76953125,584L824.76953125,593.0833333333334C824.76953125,602.1666666666666,824.76953125,620.3333333333334,791.8561197916666,644.2205697341992C758.9427083333334,668.1078061350651,693.1158854166666,697.7156122701302,660.2024739583334,712.5195153376629L627.2890625,727.3234184051954"/><path marker-end="url(#classDiagram-dependencyEnd)" style="fill:none" class="edge-pattern-solid relation" id="id12" d="M401.2618319746377,429.5L407.03915685386477,436.8333333333333C412.81648173309185,444.1666666666667,424.3711314915459,458.8333333333333,430.1484563707729,473.5C435.92578125,488.1666666666667,435.92578125,502.8333333333333,435.92578125,510.1666666666667L435.92578125,517.5"/><path style="fill:none" class="edge-pattern-dotted relation" id="edgeNote13" d="M606.34765625,394L606.34765625,407.25C606.34765625,420.5,606.34765625,447,606.34765625,467.5833333333333C606.34765625,488.1666666666667,606.34765625,502.8333333333333,606.34765625,510.1666666666667L606.34765625,517.5"/><path style="fill:none" class="edge-pattern-dotted relation" id="edgeNote14" d="M824.76953125,394L824.76953125,407.25C824.76953125,420.5,824.76953125,447,824.76953125,469.3333333333333C824.76953125,491.6666666666667,824.76953125,509.8333333333333,824.76953125,518.9166666666666L824.76953125,528"/></g><g class="edgeLabels"><g class="edgeLabel"><g transform="translate(0, 0)" class="label"><rect height="0" width="0" ry="0" rx="0"/><text style=""><tspan class="row" x="0" dy="1em" xml:space="preserve"/></text></g></g><g class="edgeLabel"><g transform="translate(0, 0)" class="label"><rect height="0" width="0" ry="0" rx="0"/><text style=""><tspan class="row" x="0" dy="1em" xml:space="preserve"/></text></g></g><g class="edgeLabel"><g transform="translate(0, 0)" class="label"><rect height="0" width="0" ry="0" rx="0"/><text style=""><tspan class="row" x="0" dy="1em" xml:space="preserve"/></text></g></g><g transform="translate(156.2568471407361, 212.08891259145298)" class="edgeTerminals"><g transform="translate(-3.0625, -6)" class="inner"><text style=""><tspan class="row" x="0" dy="1em" xml:space="preserve">1</tspan></text></g></g><g transform="translate(90.62178547101459, 278.5079188129215)" class="edgeTerminals"><g transform="translate(-8.614990234375, -6)" class="inner"/><text style=""><tspan class="row" x="0" dy="1em" xml:space="preserve">0..*</tspan></text></g><g transform="translate(180.4453125, 266.5)" class="edgeLabel"><g transform="translate(-80.484375, -8.5)" class="label"><rect height="17.633773803710938" width="161.18040466308594" ry="0" rx="0"/><text style=""><tspan class="row" x="0" dy="1em" xml:space="preserve">via direct function calls</tspan></text></g></g><g transform="translate(360.25, 266.5)" class="edgeLabel"><g transform="translate(-47.140625, -8.5)" class="label"><rect height="17.633773803710938" width="94.50491333007812" ry="0" rx="0"/><text style=""><tspan class="row" x="0" dy="1em" xml:space="preserve">via event bus</tspan></text></g></g><g class="edgeLabel"><g transform="translate(0, 0)" class="label"><rect height="0" width="0" ry="0" rx="0"/><text style=""><tspan class="row" x="0" dy="1em" xml:space="preserve"/></text></g></g><g class="edgeLabel"><g transform="translate(0, 0)" class="label"><rect height="0" width="0" ry="0" rx="0"/><text style=""><tspan class="row" x="0" dy="1em" xml:space="preserve"/></text></g></g><g class="edgeLabel"><g transform="translate(0, 0)" class="label"><rect height="0" width="0" ry="0" rx="0"/><text style=""><tspan class="row" x="0" dy="1em" xml:space="preserve"/></text></g></g><g transform="translate(64.9609375, 457.5)" class="edgeTerminals"><g transform="translate(-3.0625, -6)" class="inner"><text style=""><tspan class="row" x="0" dy="1em" xml:space="preserve">1</tspan></text></g></g><g transform="translate(89.9609375, 484.5)" class="edgeTerminals"><g transform="translate(-8.614990234375, -6)" class="inner"/><text style=""><tspan class="row" x="0" dy="1em" xml:space="preserve">0..*</tspan></text></g><g transform="translate(79.9609375, 638.5)" class="edgeLabel"><g transform="translate(-53.3671875, -8.5)" class="label"><rect height="17.633773803710938" width="106.95723724365234" ry="0" rx="0"/><text style=""><tspan class="row" x="0" dy="1em" xml:space="preserve">represented by</tspan></text></g></g><g transform="translate(65.69199070123105, 622.601736732956)" class="edgeTerminals"><g transform="translate(-3.0625, -6)" class="inner"><text style=""><tspan class="row" x="0" dy="1em" xml:space="preserve">1</tspan></text></g></g><g transform="translate(404.5732595618625, 717.8942322426202)" class="edgeTerminals"><g transform="translate(-3.0625, -6)" class="inner"/><text style=""><tspan class="row" x="0" dy="1em" xml:space="preserve">1</tspan></text></g><g class="edgeLabel"><g transform="translate(0, 0)" class="label"><rect height="0" width="0" ry="0" rx="0"/><text style=""><tspan class="row" x="0" dy="1em" xml:space="preserve"/></text></g></g><g class="edgeLabel"><g transform="translate(0, 0)" class="label"><rect height="0" width="0" ry="0" rx="0"/><text style=""><tspan class="row" x="0" dy="1em" xml:space="preserve"/></text></g></g><g transform="translate(435.92578125, 473.5)" class="edgeLabel"><g transform="translate(-40.96484375, -8.5)" class="label"><rect height="17.633773803710938" width="81.83173370361328" ry="0" rx="0"/><text style=""><tspan class="row" x="0" dy="1em" xml:space="preserve">connects to</tspan></text></g></g><g class="edgeLabel"><g transform="translate(0, 0)" class="label"><rect height="0" width="0" ry="0" rx="0"/><text style=""><tspan class="row" x="0" dy="1em" xml:space="preserve"/></text></g></g><g class="edgeLabel"><g transform="translate(0, 0)" class="label"><rect height="0" width="0" ry="0" rx="0"/><text style=""><tspan class="row" x="0" dy="1em" xml:space="preserve"/></text></g></g></g><g class="nodes"><g transform="translate(354.38671875, 46.5)" id="classId-Monolith-0" class="node default"><rect height="77" width="83.578125" y="-38.5" x="-41.7890625" class="outer title-state"/><line y2="11.5" y1="11.5" x2="41.7890625" x1="-41.7890625" class="divider"/><line y2="27.5" y1="27.5" x2="41.7890625" x1="-41.7890625" class="divider"/><g class="label"><text transform="translate( -34.2890625, -31)" style=""><tspan class="title-row" x="0" dy="1em" xml:space="preserve">«service»</tspan></text><text transform="translate( -33.3203125, -10)" class="classTitle" style=""><tspan class="title-row" x="0" dy="1em" xml:space="preserve">Monolith</tspan></text></g></g><g transform="translate(247.00390625, 184)" id="classId-RoomManager-1" class="node default"><rect height="98" width="136.828125" y="-49" x="-68.4140625" class="outer title-state"/><line y2="-20" y1="-20" x2="68.4140625" x1="-68.4140625" class="divider"/><line y2="38" y1="38" x2="68.4140625" x1="-68.4140625" class="divider"/><g class="label"><text style=""><tspan class="title-row" x="0" dy="1em" xml:space="preserve"/></text><text transform="translate( -55.5625, -41.5)" class="classTitle" style=""><tspan class="title-row" x="0" dy="1em" xml:space="preserve">RoomManager</tspan></text><text transform="translate( -60.9140625, -8.5)" style=""><tspan class="title-row" x="0" dy="1em" xml:space="preserve">Room[] room</tspan></text><text transform="translate( -60.9140625, 12.5)" style=""><tspan class="title-row" x="0" dy="1em" xml:space="preserve">EventEmitter bus</tspan></text></g></g><g transform="translate(354.38671875, 370)" id="classId-ClientManager-2" class="node default"><rect height="119" width="228.84375" y="-59.5" x="-114.421875" class="outer title-state"/><line y2="-30.5" y1="-30.5" x2="114.421875" x1="-114.421875" class="divider"/><line y2="48.5" y1="48.5" x2="114.421875" x1="-114.421875" class="divider"/><g class="label"><text style=""><tspan class="title-row" x="0" dy="1em" xml:space="preserve"/></text><text transform="translate( -55.125, -52)" class="classTitle" style=""><tspan class="title-row" x="0" dy="1em" xml:space="preserve">ClientManager</tspan></text><text transform="translate( -106.921875, -19)" style=""><tspan class="title-row" x="0" dy="1em" xml:space="preserve">Client[] connections</tspan></text><text transform="translate( -106.921875, 2)" style=""><tspan class="title-row" x="0" dy="1em" xml:space="preserve">Map roomJoins</tspan></text><text transform="translate( -106.921875, 23)" style=""><tspan class="title-row" x="0" dy="1em" xml:space="preserve">Option&lt;WebSocket&gt; balancer</tspan></text></g></g><g transform="translate(239.203125, 556)" id="classId-Redis-3" class="node default"><rect height="77" width="83.578125" y="-38.5" x="-41.7890625" class="outer title-state"/><line y2="11.5" y1="11.5" x2="41.7890625" x1="-41.7890625" class="divider"/><line y2="27.5" y1="27.5" x2="41.7890625" x1="-41.7890625" class="divider"/><g class="label"><text transform="translate( -34.2890625, -31)" style=""><tspan class="title-row" x="0" dy="1em" xml:space="preserve">«service»</tspan></text><text transform="translate( -21.8359375, -10)" class="classTitle" style=""><tspan class="title-row" x="0" dy="1em" xml:space="preserve">Redis</tspan></text></g></g><g transform="translate(79.9609375, 370)" id="classId-Room-4" class="node default"><rect height="140" width="143.921875" y="-70" x="-71.9609375" class="outer title-state"/><line y2="-41" y1="-41" x2="71.9609375" x1="-71.9609375" class="divider"/><line y2="59" y1="59" x2="71.9609375" x1="-71.9609375" class="divider"/><g class="label"><text style=""><tspan class="title-row" x="0" dy="1em" xml:space="preserve"/></text><text transform="translate( -22.6640625, -62.5)" class="classTitle" style=""><tspan class="title-row" x="0" dy="1em" xml:space="preserve">Room</tspan></text><text transform="translate( -64.4609375, -29.5)" style=""><tspan class="title-row" x="0" dy="1em" xml:space="preserve">String name</tspan></text><text transform="translate( -64.4609375, -8.5)" style=""><tspan class="title-row" x="0" dy="1em" xml:space="preserve">bool isTemporary</tspan></text><text transform="translate( -64.4609375, 12.5)" style=""><tspan class="title-row" x="0" dy="1em" xml:space="preserve">RoomUser[] users</tspan></text><text transform="translate( -64.4609375, 33.5)" style=""><tspan class="title-row" x="0" dy="1em" xml:space="preserve">...</tspan></text></g></g><g transform="translate(524.625, 773.5)" id="classId-Client-5" class="node default"><rect height="203" width="205.328125" y="-101.5" x="-102.6640625" class="outer title-state"/><line y2="-51.5" y1="-51.5" x2="102.6640625" x1="-102.6640625" class="divider"/><line y2="90.5" y1="90.5" x2="102.6640625" x1="-102.6640625" class="divider"/><g class="label"><text transform="translate( -37.40625, -94)" style=""><tspan class="title-row" x="0" dy="1em" xml:space="preserve">«abstract»</tspan></text><text transform="translate( -22.55859375, -73)" class="classTitle" style=""><tspan class="title-row" x="0" dy="1em" xml:space="preserve">Client</tspan></text><text transform="translate( -95.1640625, -40)" style=""><tspan class="title-row" x="0" dy="1em" xml:space="preserve">String id</tspan></text><text transform="translate( -95.1640625, -19)" style=""><tspan class="title-row" x="0" dy="1em" xml:space="preserve">String room</tspan></text><text transform="translate( -95.1640625, 2)" style=""><tspan class="title-row" x="0" dy="1em" xml:space="preserve">AuthToken token</tspan></text><text transform="translate( -95.1640625, 23)" style=""><tspan class="title-row" x="0" dy="1em" xml:space="preserve">SessionInfo session</tspan></text><text transform="translate( -95.1640625, 44)" style=""><tspan class="title-row" x="0" dy="1em" xml:space="preserve">ClientJoinStatus joinStatus</tspan></text><text transform="translate( -95.1640625, 65)" style=""><tspan class="title-row" x="0" dy="1em" xml:space="preserve">EventEmitter bus</tspan></text></g></g><g transform="translate(79.9609375, 556)" id="classId-RoomUser-6" class="node default"><rect height="98" width="134.203125" y="-49" x="-67.1015625" class="outer title-state"/><line y2="-20" y1="-20" x2="67.1015625" x1="-67.1015625" class="divider"/><line y2="38" y1="38" x2="67.1015625" x1="-67.1015625" class="divider"/><g class="label"><text style=""><tspan class="title-row" x="0" dy="1em" xml:space="preserve"/></text><text transform="translate( -40.453125, -41.5)" class="classTitle" style=""><tspan class="title-row" x="0" dy="1em" xml:space="preserve">RoomUser</tspan></text><text transform="translate( -59.6015625, -8.5)" style=""><tspan class="title-row" x="0" dy="1em" xml:space="preserve">String id</tspan></text><text transform="translate( -59.6015625, 12.5)" style=""><tspan class="title-row" x="0" dy="1em" xml:space="preserve">AuthToken token</tspan></text></g></g><g transform="translate(606.34765625, 556)" id="classId-DirectClient-7" class="node default"><rect height="77" width="147.765625" y="-38.5" x="-73.8828125" class="outer title-state"/><line y2="-9.5" y1="-9.5" x2="73.8828125" x1="-73.8828125" class="divider"/><line y2="27.5" y1="27.5" x2="73.8828125" x1="-73.8828125" class="divider"/><g class="label"><text style=""><tspan class="title-row" x="0" dy="1em" xml:space="preserve"/></text><text transform="translate( -45.234375, -31)" class="classTitle" style=""><tspan class="title-row" x="0" dy="1em" xml:space="preserve">DirectClient</tspan></text><text transform="translate( -66.3828125, 2)" style=""><tspan class="title-row" x="0" dy="1em" xml:space="preserve">WebSocket socket</tspan></text></g></g><g transform="translate(824.76953125, 556)" id="classId-BalancerClient-8" class="node default"><rect height="56" width="127.7109375" y="-28" x="-63.85546875" class="outer title-state"/><line y2="1" y1="1" x2="63.85546875" x1="-63.85546875" class="divider"/><line y2="17" y1="17" x2="63.85546875" x1="-63.85546875" class="divider"/><g class="label"><text style=""><tspan class="title-row" x="0" dy="1em" xml:space="preserve"/></text><text transform="translate( -56.35546875, -20.5)" class="classTitle" style=""><tspan class="title-row" x="0" dy="1em" xml:space="preserve">BalancerClient</tspan></text></g></g><g transform="translate(435.92578125, 556)" id="classId-Balancer-9" class="node default"><rect height="77" width="83.578125" y="-38.5" x="-41.7890625" class="outer title-state"/><line y2="11.5" y1="11.5" x2="41.7890625" x1="-41.7890625" class="divider"/><line y2="27.5" y1="27.5" x2="41.7890625" x1="-41.7890625" class="divider"/><g class="label"><text transform="translate( -34.2890625, -31)" style=""><tspan class="title-row" x="0" dy="1em" xml:space="preserve">«service»</tspan></text><text transform="translate( -33.796875, -10)" class="classTitle" style=""><tspan class="title-row" x="0" dy="1em" xml:space="preserve">Balancer</tspan></text></g></g><g transform="translate(606.34765625, 370)" id="note0" class="node undefined"><rect height="48" width="175.078125" y="-24" x="-87.5390625" ry="0" rx="0"/><g transform="translate(-80.0390625, -16.5)" style="" class="label"><rect/><text style=""><tspan class="row" x="0" dy="1em" xml:space="preserve">client that connected</tspan><tspan class="row" x="0" dy="1em" xml:space="preserve">directly to the Monolith</tspan></text></g></g><g transform="translate(824.76953125, 370)" id="note1" class="node undefined"><rect height="48" width="161.765625" y="-24" x="-80.8828125" ry="0" rx="0"/><g transform="translate(-73.3828125, -16.5)" style="" class="label"><rect/><text style=""><tspan class="row" x="0" dy="1em" xml:space="preserve">client that connected</tspan><tspan class="row" x="0" dy="1em" xml:space="preserve">via a Balancer</tspan></text></g></g></g></g></g><text class="classTitleText" y="-25" x="452.826171875">Monoliths's New Internals</text><style>.note:before {
	content: "";
	position: absolute;
	top: 0;
	right: 0;
	border-width: 0 16px 16px 0;
	border-style: solid;
	border-color: #658E15 #fff;
}</style></svg>