<svg aria-roledescription="classDiagram" role="graphics-document document" viewBox="0 0 500.732421875 837" style="max-width: 500.732px; background-color: white;" xmlns:xlink="http://www.w3.org/1999/xlink" xmlns="http://www.w3.org/2000/svg" width="100%" id="my-svg"><style>#my-svg{font-family:"trebuchet ms",verdana,arial,sans-serif;font-size:16px;fill:#000000;}#my-svg .error-icon{fill:#552222;}#my-svg .error-text{fill:#552222;stroke:#552222;}#my-svg .edge-thickness-normal{stroke-width:2px;}#my-svg .edge-thickness-thick{stroke-width:3.5px;}#my-svg .edge-pattern-solid{stroke-dasharray:0;}#my-svg .edge-pattern-dashed{stroke-dasharray:3;}#my-svg .edge-pattern-dotted{stroke-dasharray:2;}#my-svg .marker{fill:#666;stroke:#666;}#my-svg .marker.cross{stroke:#666;}#my-svg svg{font-family:"trebuchet ms",verdana,arial,sans-serif;font-size:16px;}#my-svg g.classGroup text{fill:#999;fill:#111111;stroke:none;font-family:"trebuchet ms",verdana,arial,sans-serif;font-size:10px;}#my-svg g.classGroup text .title{font-weight:bolder;}#my-svg .nodeLabel,#my-svg .edgeLabel{color:#111111;}#my-svg .edgeLabel .label rect{fill:#eee;}#my-svg .label text{fill:#111111;}#my-svg .edgeLabel .label span{background:#eee;}#my-svg .classTitle{font-weight:bolder;}#my-svg .node rect,#my-svg .node circle,#my-svg .node ellipse,#my-svg .node polygon,#my-svg .node path{fill:#eee;stroke:#999;stroke-width:1px;}#my-svg .divider{stroke:#999;stroke-width:1;}#my-svg g.clickable{cursor:pointer;}#my-svg g.classGroup rect{fill:#eee;stroke:#999;}#my-svg g.classGroup line{stroke:#999;stroke-width:1;}#my-svg .classLabel .box{stroke:none;stroke-width:0;fill:#eee;opacity:0.5;}#my-svg .classLabel .label{fill:#999;font-size:10px;}#my-svg .relation{stroke:#666;stroke-width:1;fill:none;}#my-svg .dashed-line{stroke-dasharray:3;}#my-svg .dotted-line{stroke-dasharray:1 2;}#my-svg #compositionStart,#my-svg .composition{fill:#666!important;stroke:#666!important;stroke-width:1;}#my-svg #compositionEnd,#my-svg .composition{fill:#666!important;stroke:#666!important;stroke-width:1;}#my-svg #dependencyStart,#my-svg .dependency{fill:#666!important;stroke:#666!important;stroke-width:1;}#my-svg #dependencyStart,#my-svg .dependency{fill:#666!important;stroke:#666!important;stroke-width:1;}#my-svg #extensionStart,#my-svg .extension{fill:#eee!important;stroke:#666!important;stroke-width:1;}#my-svg #extensionEnd,#my-svg .extension{fill:#eee!important;stroke:#666!important;stroke-width:1;}#my-svg #aggregationStart,#my-svg .aggregation{fill:#eee!important;stroke:#666!important;stroke-width:1;}#my-svg #aggregationEnd,#my-svg .aggregation{fill:#eee!important;stroke:#666!important;stroke-width:1;}#my-svg #lollipopStart,#my-svg .lollipop{fill:#eee!important;stroke:#666!important;stroke-width:1;}#my-svg #lollipopEnd,#my-svg .lollipop{fill:#eee!important;stroke:#666!important;stroke-width:1;}#my-svg .edgeTerminals{font-size:11px;}#my-svg .classTitleText{text-anchor:middle;font-size:18px;fill:#000000;}#my-svg :root{--mermaid-font-family:"trebuchet ms",verdana,arial,sans-serif;}</style><g><defs><marker orient="auto" markerHeight="240" markerWidth="190" refY="7" refX="0" class="marker aggregation classDiagram" id="classDiagram-aggregationStart"><path d="M 18,7 L9,13 L1,7 L9,1 Z"/></marker></defs><defs><marker orient="auto" markerHeight="28" markerWidth="20" refY="7" refX="19" class="marker aggregation classDiagram" id="classDiagram-aggregationEnd"><path d="M 18,7 L9,13 L1,7 L9,1 Z"/></marker></defs><defs><marker orient="auto" markerHeight="240" markerWidth="190" refY="7" refX="0" class="marker extension classDiagram" id="classDiagram-extensionStart"><path d="M 1,7 L18,13 V 1 Z"/></marker></defs><defs><marker orient="auto" markerHeight="28" markerWidth="20" refY="7" refX="19" class="marker extension classDiagram" id="classDiagram-extensionEnd"><path d="M 1,1 V 13 L18,7 Z"/></marker></defs><defs><marker orient="auto" markerHeight="240" markerWidth="190" refY="7" refX="0" class="marker composition classDiagram" id="classDiagram-compositionStart"><path d="M 18,7 L9,13 L1,7 L9,1 Z"/></marker></defs><defs><marker orient="auto" markerHeight="28" markerWidth="20" refY="7" refX="19" class="marker composition classDiagram" id="classDiagram-compositionEnd"><path d="M 18,7 L9,13 L1,7 L9,1 Z"/></marker></defs><defs><marker orient="auto" markerHeight="240" markerWidth="190" refY="7" refX="0" class="marker dependency classDiagram" id="classDiagram-dependencyStart"><path d="M 5,7 L9,13 L1,7 L9,1 Z"/></marker></defs><defs><marker orient="auto" markerHeight="28" markerWidth="20" refY="7" refX="19" class="marker dependency classDiagram" id="classDiagram-dependencyEnd"><path d="M 18,7 L9,13 L14,7 L9,1 Z"/></marker></defs><defs><marker orient="auto" markerHeight="240" markerWidth="190" refY="7" refX="0" class="marker lollipop classDiagram" id="classDiagram-lollipopStart"><circle r="6" cy="7" cx="6" fill="white" stroke="black"/></marker></defs><g class="root"><g class="clusters"/><g class="edgePaths"><path marker-end="url(#classDiagram-dependencyEnd)" style="fill:none" class="edge-pattern-solid relation" id="id1" d="M249.61328125,73.35222241589682L261.3235677083333,80.87685201324734C273.0338541666667,88.40148161059788,296.4544270833333,103.45074080529893,308.1647135416667,116.5587037359828C319.875,129.66666666666666,319.875,140.83333333333334,319.875,146.41666666666666L319.875,152"/><path marker-end="url(#classDiagram-dependencyEnd)" style="fill:none" class="edge-pattern-solid relation" id="id2" d="M169.20829264322916,85L163.60814751519095,90.58333333333333C158.00800238715277,96.16666666666667,146.80771213107639,107.33333333333333,141.20756700303818,124.91666666666667C135.607421875,142.5,135.607421875,166.5,135.607421875,190.5C135.607421875,214.5,135.607421875,238.5,140.72423195954107,257.8333333333333C145.84104204408212,277.1666666666667,156.07466221316426,291.8333333333333,161.1914722977053,299.1666666666667L166.30828238224638,306.5"/><path marker-start="url(#classDiagram-aggregationStart)" style="fill:none" class="edge-pattern-solid relation" id="id3" d="M373.82659233940973,229L381.65074101200815,234.58333333333334C389.47488968460647,240.16666666666666,405.1231870298032,251.33333333333334,412.94733570240163,262.5C420.771484375,273.6666666666667,420.771484375,284.8333333333333,420.771484375,290.4166666666667L420.771484375,296"/><path style="fill:none" class="edge-pattern-dashed relation" id="id4" d="M291.4073079427083,229L287.27887641059027,234.58333333333334C283.15044487847223,240.16666666666666,274.8935818142361,251.33333333333334,266.5980810389619,264.25C258.3025802636876,277.1666666666667,249.9684417773752,291.8333333333333,245.80137253421898,299.1666666666667L241.6343032910628,306.5"/><path marker-end="url(#classDiagram-dependencyEnd)" style="fill:none" class="edge-pattern-solid relation" id="id5" d="M256.8125,207.26016899052672L222.17122395833334,216.46680749210563C187.52994791666666,225.67344599368448,118.24739583333333,244.08672299684224,83.60611979166667,270.5433614984211C48.96484375,297,48.96484375,331.5,48.96484375,366C48.96484375,400.5,48.96484375,435,51.67439236111111,459.5833333333333C54.38394097222223,484.1666666666667,59.80303819444445,498.8333333333333,62.512586805555564,506.1666666666667L65.22213541666667,513.5"/><path marker-end="url(#classDiagram-dependencyEnd)" style="fill:none" class="edge-pattern-solid relation" id="id6" d="M178.0832012379227,425.5L174.41764165660229,432.8333333333333C170.7520820752818,440.1666666666667,163.4209629126409,454.8333333333333,152.94272972020934,469.5C142.46449652777778,484.1666666666667,128.83914930555557,498.8333333333333,122.02647569444446,506.1666666666667L115.21380208333333,513.5"/><path marker-start="url(#classDiagram-aggregationStart)" style="fill:none" class="edge-pattern-solid relation" id="id7" d="M235.94502000301932,425.5L239.4108890650161,432.8333333333333C242.87675812701286,440.1666666666667,249.80849625100643,454.8333333333333,253.27436531300324,475.9166666666667C256.740234375,497,256.740234375,524.5,256.740234375,552C256.740234375,579.5,256.740234375,607,261.6202942251462,626.3333333333334C266.50035407529236,645.6666666666666,276.2604737755848,656.8333333333334,281.140533625731,662.4166666666666L286.0205934758772,668"/><path marker-start="url(#classDiagram-aggregationStart)" style="fill:none" class="edge-pattern-solid relation" id="id8" d="M420.771484375,436L420.771484375,441.5833333333333C420.771484375,447.1666666666667,420.771484375,458.3333333333333,420.771484375,469.5C420.771484375,480.6666666666667,420.771484375,491.8333333333333,420.771484375,497.4166666666667L420.771484375,503"/><path marker-start="url(#classDiagram-dependencyStart)" style="fill:none" class="edge-pattern-dashed relation" id="id9" d="M420.771484375,601L420.771484375,606.5833333333334C420.771484375,612.1666666666666,420.771484375,623.3333333333334,417.6178499634503,634.5C414.4642155519006,645.6666666666666,408.1569467288012,656.8333333333334,405.0033123172514,662.4166666666666L401.84967790570175,668"/></g><g class="edgeLabels"><g transform="translate(319.875, 118.5)" class="edgeLabel"><g transform="translate(-19.5625, -8.5)" class="label"><rect height="17.000635147094727" width="39.09520721435547" ry="0" rx="0"/><text style=""><tspan class="row" x="0" dy="1em" xml:space="preserve">starts</tspan></text></g></g><g transform="translate(256.2270931042762, 95.43179425858062)" class="edgeTerminals"><g transform="translate(-3.0625, -6)" class="inner"><text style=""><tspan class="row" x="0" dy="1em" xml:space="preserve">1</tspan></text></g></g><g transform="translate(329.2338973643287, 129.29324300620294)" class="edgeTerminals"><g transform="translate(-3.0625, -6)" class="inner"/><text style=""><tspan class="row" x="0" dy="1em" xml:space="preserve">1</tspan></text></g><g transform="translate(135.607421875, 190.5)" class="edgeLabel"><g transform="translate(-19.5625, -8.5)" class="label"><rect height="17.000635147094727" width="39.09520721435547" ry="0" rx="0"/><text style=""><tspan class="row" x="0" dy="1em" xml:space="preserve">starts</tspan></text></g></g><g transform="translate(146.22469079194303, 86.73321837676555)" class="edgeTerminals"><g transform="translate(-3.0625, -6)" class="inner"><text style=""><tspan class="row" x="0" dy="1em" xml:space="preserve">1</tspan></text></g></g><g transform="translate(163.59589177100037, 278.5649429195285)" class="edgeTerminals"><g transform="translate(-3.0625, -6)" class="inner"/><text style=""><tspan class="row" x="0" dy="1em" xml:space="preserve">1</tspan></text></g><g transform="translate(420.771484375, 262.5)" class="edgeLabel"><g transform="translate(-26.6796875, -8.5)" class="label"><rect height="17.000635147094727" width="53.31448745727539" ry="0" rx="0"/><text style=""><tspan class="row" x="0" dy="1em" xml:space="preserve">collects</tspan></text></g></g><g transform="translate(379.35847908781045, 251.37516992120658)" class="edgeTerminals"><g transform="translate(-3.0625, -6)" class="inner"><text style=""><tspan class="row" x="0" dy="1em" xml:space="preserve">1</tspan></text></g></g><g transform="translate(430.1515315742798, 273.28182852035474)" class="edgeTerminals"><g transform="translate(-8.614990234375, -6)" class="inner"/><text style=""><tspan class="row" x="0" dy="1em" xml:space="preserve">0..*</tspan></text></g><g transform="translate(266.63671875, 262.5)" class="edgeLabel"><g transform="translate(-62.30859375, -8.5)" class="label"><rect height="17.000635147094727" width="124.5090103149414" ry="0" rx="0"/><text style=""><tspan class="row" x="0" dy="1em" xml:space="preserve">via Redis Pubsub</tspan></text></g></g><g transform="translate(48.96484375, 366)" class="edgeLabel"><g transform="translate(-40.96484375, -8.5)" class="label"><rect height="17.000635147094727" width="81.861572265625" ry="0" rx="0"/><text style=""><tspan class="row" x="0" dy="1em" xml:space="preserve">connects to</tspan></text></g></g><g transform="translate(156.08984375, 469.5)" class="edgeLabel"><g transform="translate(-40.96484375, -8.5)" class="label"><rect height="17.000635147094727" width="81.861572265625" ry="0" rx="0"/><text style=""><tspan class="row" x="0" dy="1em" xml:space="preserve">connects to</tspan></text></g></g><g transform="translate(256.740234375, 552)" class="edgeLabel"><g transform="translate(-26.6796875, -8.5)" class="label"><rect height="17.000635147094727" width="53.31448745727539" ry="0" rx="0"/><text style=""><tspan class="row" x="0" dy="1em" xml:space="preserve">collects</tspan></text></g></g><g transform="translate(229.8611028628, 447.7314181335997)" class="edgeTerminals"><g transform="translate(-3.0625, -6)" class="inner"><text style=""><tspan class="row" x="0" dy="1em" xml:space="preserve">1</tspan></text></g></g><g transform="translate(280.797943207432, 639.9522142742961)" class="edgeTerminals"><g transform="translate(-8.614990234375, -6)" class="inner"/><text style=""><tspan class="row" x="0" dy="1em" xml:space="preserve">0..*</tspan></text></g><g transform="translate(420.771484375, 469.5)" class="edgeLabel"><g transform="translate(-26.6796875, -8.5)" class="label"><rect height="17.000635147094727" width="53.31448745727539" ry="0" rx="0"/><text style=""><tspan class="row" x="0" dy="1em" xml:space="preserve">collects</tspan></text></g></g><g transform="translate(405.771484375, 453.5)" class="edgeTerminals"><g transform="translate(-3.0625, -6)" class="inner"><text style=""><tspan class="row" x="0" dy="1em" xml:space="preserve">1</tspan></text></g></g><g transform="translate(430.771484375, 480.5)" class="edgeTerminals"><g transform="translate(-8.614990234375, -6)" class="inner"/><text style=""><tspan class="row" x="0" dy="1em" xml:space="preserve">0..*</tspan></text></g><g transform="translate(420.771484375, 634.5)" class="edgeLabel"><g transform="translate(-53.3671875, -8.5)" class="label"><rect height="17.000635147094727" width="106.64460754394531" ry="0" rx="0"/><text style=""><tspan class="row" x="0" dy="1em" xml:space="preserve">represented by</tspan></text></g></g><g transform="translate(405.4060011195702, 618.0851820185653)" class="edgeTerminals"><g transform="translate(-3.0625, -6)" class="inner"><text style=""><tspan class="row" x="0" dy="1em" xml:space="preserve">1</tspan></text></g></g><g transform="translate(418.51681552249266, 655.1396471138347)" class="edgeTerminals"><g transform="translate(-3.0625, -6)" class="inner"/><text style=""><tspan class="row" x="0" dy="1em" xml:space="preserve">1</tspan></text></g></g><g class="nodes"><g transform="translate(207.82421875, 46.5)" id="classId-Monolith-0" class="node default"><rect height="77" width="83.578125" y="-38.5" x="-41.7890625" class="outer title-state"/><line y2="11.5" y1="11.5" x2="41.7890625" x1="-41.7890625" class="divider"/><line y2="27.5" y1="27.5" x2="41.7890625" x1="-41.7890625" class="divider"/><g class="label"><text transform="translate( -34.2890625, -31)" style=""><tspan class="title-row" x="0" dy="1em" xml:space="preserve">«service»</tspan></text><text transform="translate( -33.3203125, -10)" class="classTitle" style=""><tspan class="title-row" x="0" dy="1em" xml:space="preserve">Monolith</tspan></text></g></g><g transform="translate(319.875, 190.5)" id="classId-RoomManager-1" class="node default"><rect height="77" width="126.125" y="-38.5" x="-63.0625" class="outer title-state"/><line y2="-9.5" y1="-9.5" x2="63.0625" x1="-63.0625" class="divider"/><line y2="27.5" y1="27.5" x2="63.0625" x1="-63.0625" class="divider"/><g class="label"><text style=""><tspan class="title-row" x="0" dy="1em" xml:space="preserve"/></text><text transform="translate( -55.5625, -31)" class="classTitle" style=""><tspan class="title-row" x="0" dy="1em" xml:space="preserve">RoomManager</tspan></text><text transform="translate( -55.5625, 2)" style=""><tspan class="title-row" x="0" dy="1em" xml:space="preserve">Room[] room</tspan></text></g></g><g transform="translate(207.82421875, 366)" id="classId-ClientManager-2" class="node default"><rect height="119" width="154.640625" y="-59.5" x="-77.3203125" class="outer title-state"/><line y2="-30.5" y1="-30.5" x2="77.3203125" x1="-77.3203125" class="divider"/><line y2="48.5" y1="48.5" x2="77.3203125" x1="-77.3203125" class="divider"/><g class="label"><text style=""><tspan class="title-row" x="0" dy="1em" xml:space="preserve"/></text><text transform="translate( -55.125, -52)" class="classTitle" style=""><tspan class="title-row" x="0" dy="1em" xml:space="preserve">ClientManager</tspan></text><text transform="translate( -69.8203125, -19)" style=""><tspan class="title-row" x="0" dy="1em" xml:space="preserve">Client[] connections</tspan></text><text transform="translate( -69.8203125, 2)" style=""><tspan class="title-row" x="0" dy="1em" xml:space="preserve">Map roomStates</tspan></text><text transform="translate( -69.8203125, 23)" style=""><tspan class="title-row" x="0" dy="1em" xml:space="preserve">Map roomJoins</tspan></text></g></g><g transform="translate(79.447265625, 552)" id="classId-Redis-3" class="node default"><rect height="77" width="83.578125" y="-38.5" x="-41.7890625" class="outer title-state"/><line y2="11.5" y1="11.5" x2="41.7890625" x1="-41.7890625" class="divider"/><line y2="27.5" y1="27.5" x2="41.7890625" x1="-41.7890625" class="divider"/><g class="label"><text transform="translate( -34.2890625, -31)" style=""><tspan class="title-row" x="0" dy="1em" xml:space="preserve">«service»</tspan></text><text transform="translate( -21.8359375, -10)" class="classTitle" style=""><tspan class="title-row" x="0" dy="1em" xml:space="preserve">Redis</tspan></text></g></g><g transform="translate(420.771484375, 366)" id="classId-Room-4" class="node default"><rect height="140" width="143.921875" y="-70" x="-71.9609375" class="outer title-state"/><line y2="-41" y1="-41" x2="71.9609375" x1="-71.9609375" class="divider"/><line y2="59" y1="59" x2="71.9609375" x1="-71.9609375" class="divider"/><g class="label"><text style=""><tspan class="title-row" x="0" dy="1em" xml:space="preserve"/></text><text transform="translate( -22.6640625, -62.5)" class="classTitle" style=""><tspan class="title-row" x="0" dy="1em" xml:space="preserve">Room</tspan></text><text transform="translate( -64.4609375, -29.5)" style=""><tspan class="title-row" x="0" dy="1em" xml:space="preserve">String name</tspan></text><text transform="translate( -64.4609375, -8.5)" style=""><tspan class="title-row" x="0" dy="1em" xml:space="preserve">bool isTemporary</tspan></text><text transform="translate( -64.4609375, 12.5)" style=""><tspan class="title-row" x="0" dy="1em" xml:space="preserve">RoomUser[] users</tspan></text><text transform="translate( -64.4609375, 33.5)" style=""><tspan class="title-row" x="0" dy="1em" xml:space="preserve">...</tspan></text></g></g><g transform="translate(356.380859375, 748.5)" id="classId-Client-5" class="node default"><rect height="161" width="157.3125" y="-80.5" x="-78.65625" class="outer title-state"/><line y2="-51.5" y1="-51.5" x2="78.65625" x1="-78.65625" class="divider"/><line y2="69.5" y1="69.5" x2="78.65625" x1="-78.65625" class="divider"/><g class="label"><text style=""><tspan class="title-row" x="0" dy="1em" xml:space="preserve"/></text><text transform="translate( -22.55859375, -73)" class="classTitle" style=""><tspan class="title-row" x="0" dy="1em" xml:space="preserve">Client</tspan></text><text transform="translate( -71.15625, -40)" style=""><tspan class="title-row" x="0" dy="1em" xml:space="preserve">String id</tspan></text><text transform="translate( -71.15625, -19)" style=""><tspan class="title-row" x="0" dy="1em" xml:space="preserve">WebSocket socket</tspan></text><text transform="translate( -71.15625, 2)" style=""><tspan class="title-row" x="0" dy="1em" xml:space="preserve">SessionInfo session</tspan></text><text transform="translate( -71.15625, 23)" style=""><tspan class="title-row" x="0" dy="1em" xml:space="preserve">String room</tspan></text><text transform="translate( -71.15625, 44)" style=""><tspan class="title-row" x="0" dy="1em" xml:space="preserve">AuthToken token</tspan></text></g></g><g transform="translate(420.771484375, 552)" id="classId-RoomUser-6" class="node default"><rect height="98" width="134.203125" y="-49" x="-67.1015625" class="outer title-state"/><line y2="-20" y1="-20" x2="67.1015625" x1="-67.1015625" class="divider"/><line y2="38" y1="38" x2="67.1015625" x1="-67.1015625" class="divider"/><g class="label"><text style=""><tspan class="title-row" x="0" dy="1em" xml:space="preserve"/></text><text transform="translate( -40.453125, -41.5)" class="classTitle" style=""><tspan class="title-row" x="0" dy="1em" xml:space="preserve">RoomUser</tspan></text><text transform="translate( -59.6015625, -8.5)" style=""><tspan class="title-row" x="0" dy="1em" xml:space="preserve">String id</tspan></text><text transform="translate( -59.6015625, 12.5)" style=""><tspan class="title-row" x="0" dy="1em" xml:space="preserve">AuthToken token</tspan></text></g></g></g></g></g></svg>