<svg aria-labelledby="chart-title-my-svg" aria-roledescription="classDiagram" role="graphics-document document" viewBox="-8 -49 442.22265625 852" style="max-width: 442.223px; background-color: white;" xmlns:xlink="http://www.w3.org/1999/xlink" xmlns="http://www.w3.org/2000/svg" width="100%" id="my-svg"><title id="chart-title-my-svg">Monolith's Current Internals</title><style>#my-svg{font-family:"trebuchet ms",verdana,arial,sans-serif;font-size:16px;fill:#000000;}#my-svg .error-icon{fill:#552222;}#my-svg .error-text{fill:#552222;stroke:#552222;}#my-svg .edge-thickness-normal{stroke-width:2px;}#my-svg .edge-thickness-thick{stroke-width:3.5px;}#my-svg .edge-pattern-solid{stroke-dasharray:0;}#my-svg .edge-pattern-dashed{stroke-dasharray:3;}#my-svg .edge-pattern-dotted{stroke-dasharray:2;}#my-svg .marker{fill:#666;stroke:#666;}#my-svg .marker.cross{stroke:#666;}#my-svg svg{font-family:"trebuchet ms",verdana,arial,sans-serif;font-size:16px;}#my-svg g.classGroup text{fill:#999;fill:#111111;stroke:none;font-family:"trebuchet ms",verdana,arial,sans-serif;font-size:10px;}#my-svg g.classGroup text .title{font-weight:bolder;}#my-svg .nodeLabel,#my-svg .edgeLabel{color:#111111;}#my-svg .edgeLabel .label rect{fill:#eee;}#my-svg .label text{fill:#111111;}#my-svg .edgeLabel .label span{background:#eee;}#my-svg .classTitle{font-weight:bolder;}#my-svg .node rect,#my-svg .node circle,#my-svg .node ellipse,#my-svg .node polygon,#my-svg .node path{fill:#eee;stroke:#999;stroke-width:1px;}#my-svg .divider{stroke:#999;stroke-width:1;}#my-svg g.clickable{cursor:pointer;}#my-svg g.classGroup rect{fill:#eee;stroke:#999;}#my-svg g.classGroup line{stroke:#999;stroke-width:1;}#my-svg .classLabel .box{stroke:none;stroke-width:0;fill:#eee;opacity:0.5;}#my-svg .classLabel .label{fill:#999;font-size:10px;}#my-svg .relation{stroke:#666;stroke-width:1;fill:none;}#my-svg .dashed-line{stroke-dasharray:3;}#my-svg .dotted-line{stroke-dasharray:1 2;}#my-svg #compositionStart,#my-svg .composition{fill:#666!important;stroke:#666!important;stroke-width:1;}#my-svg #compositionEnd,#my-svg .composition{fill:#666!important;stroke:#666!important;stroke-width:1;}#my-svg #dependencyStart,#my-svg .dependency{fill:#666!important;stroke:#666!important;stroke-width:1;}#my-svg #dependencyStart,#my-svg .dependency{fill:#666!important;stroke:#666!important;stroke-width:1;}#my-svg #extensionStart,#my-svg .extension{fill:#eee!important;stroke:#666!important;stroke-width:1;}#my-svg #extensionEnd,#my-svg .extension{fill:#eee!important;stroke:#666!important;stroke-width:1;}#my-svg #aggregationStart,#my-svg .aggregation{fill:#eee!important;stroke:#666!important;stroke-width:1;}#my-svg #aggregationEnd,#my-svg .aggregation{fill:#eee!important;stroke:#666!important;stroke-width:1;}#my-svg #lollipopStart,#my-svg .lollipop{fill:#eee!important;stroke:#666!important;stroke-width:1;}#my-svg #lollipopEnd,#my-svg .lollipop{fill:#eee!important;stroke:#666!important;stroke-width:1;}#my-svg .edgeTerminals{font-size:11px;}#my-svg .classTitleText{text-anchor:middle;font-size:18px;fill:#000000;}#my-svg :root{--mermaid-font-family:"trebuchet ms",verdana,arial,sans-serif;}</style><g><defs><marker orient="auto" markerHeight="240" markerWidth="190" refY="7" refX="0" class="marker aggregation classDiagram" id="classDiagram-aggregationStart"><path d="M 18,7 L9,13 L1,7 L9,1 Z"/></marker></defs><defs><marker orient="auto" markerHeight="28" markerWidth="20" refY="7" refX="19" class="marker aggregation classDiagram" id="classDiagram-aggregationEnd"><path d="M 18,7 L9,13 L1,7 L9,1 Z"/></marker></defs><defs><marker orient="auto" markerHeight="240" markerWidth="190" refY="7" refX="0" class="marker extension classDiagram" id="classDiagram-extensionStart"><path d="M 1,7 L18,13 V 1 Z"/></marker></defs><defs><marker orient="auto" markerHeight="28" markerWidth="20" refY="7" refX="19" class="marker extension classDiagram" id="classDiagram-extensionEnd"><path d="M 1,1 V 13 L18,7 Z"/></marker></defs><defs><marker orient="auto" markerHeight="240" markerWidth="190" refY="7" refX="0" class="marker composition classDiagram" id="classDiagram-compositionStart"><path d="M 18,7 L9,13 L1,7 L9,1 Z"/></marker></defs><defs><marker orient="auto" markerHeight="28" markerWidth="20" refY="7" refX="19" class="marker composition classDiagram" id="classDiagram-compositionEnd"><path d="M 18,7 L9,13 L1,7 L9,1 Z"/></marker></defs><defs><marker orient="auto" markerHeight="240" markerWidth="190" refY="7" refX="0" class="marker dependency classDiagram" id="classDiagram-dependencyStart"><path d="M 5,7 L9,13 L1,7 L9,1 Z"/></marker></defs><defs><marker orient="auto" markerHeight="28" markerWidth="20" refY="7" refX="19" class="marker dependency classDiagram" id="classDiagram-dependencyEnd"><path d="M 18,7 L9,13 L14,7 L9,1 Z"/></marker></defs><defs><marker orient="auto" markerHeight="240" markerWidth="190" refY="7" refX="0" class="marker lollipop classDiagram" id="classDiagram-lollipopStart"><circle r="6" cy="7" cx="6" fill="white" stroke="black"/></marker></defs><g class="root"><g class="clusters"/><g class="edgePaths"><path marker-end="url(#classDiagram-dependencyEnd)" style="fill:none" class="edge-pattern-solid relation" id="id1" d="M196.76953125,69.18569043245951L209.30013020833334,75.98807536038292C221.83072916666666,82.79046028830633,246.89192708333334,96.39523014415317,259.4225260416667,107.36428173874326C271.953125,118.33333333333333,271.953125,126.66666666666667,271.953125,130.83333333333334L271.953125,135"/><path marker-end="url(#classDiagram-dependencyEnd)" style="fill:none" class="edge-pattern-solid relation" id="id2" d="M126.99360236220473,85L123.96472071850394,89.16666666666667C120.93583907480316,93.33333333333333,114.87807578740158,101.66666666666667,111.84919414370079,116.41666666666667C108.8203125,131.16666666666666,108.8203125,152.33333333333334,108.8203125,174.91666666666666C108.8203125,197.5,108.8203125,221.5,112.09091938405795,240.83333333333334C115.36152626811594,260.1666666666667,121.90274003623188,274.8333333333333,125.17334692028983,282.1666666666667L128.4439538043478,289.5"/><path marker-end="url(#classDiagram-dependencyEnd)" style="fill:none" class="edge-pattern-solid relation" id="id3" d="M315.9653591579861,212L322.34808575665505,217.58333333333334C328.7308123553241,223.16666666666666,341.496265552662,234.33333333333334,347.87899215133103,245.5C354.26171875,256.6666666666667,354.26171875,267.8333333333333,354.26171875,273.4166666666667L354.26171875,279"/><path style="fill:none" class="edge-pattern-dashed relation" id="id4" d="M240.67918565538196,212L236.1437875253183,217.58333333333334C231.60838939525465,223.16666666666666,222.5375931351273,234.33333333333334,213.8582361685097,247.25C205.1788792018921,260.1666666666667,196.89096152878423,274.8333333333333,192.74700269223027,282.1666666666667L188.60304385567633,289.5"/><path marker-end="url(#classDiagram-dependencyEnd)" style="fill:none" class="edge-pattern-solid relation" id="id5" d="M208.890625,193.30217720915178L181.185546875,202.00181434095984C153.48046875,210.70145147276784,98.0703125,228.1007257363839,70.365234375,254.05036286819197C42.66015625,280,42.66015625,314.5,42.66015625,347.5833333333333C42.66015625,380.6666666666667,42.66015625,412.3333333333333,43.23014762809685,434.0833333333333C43.800139006193696,455.8333333333333,44.940121762387385,467.6666666666667,45.510113140484236,473.5833333333333L46.08010451858108,479.5"/><path marker-end="url(#classDiagram-dependencyEnd)" style="fill:none" class="edge-pattern-solid relation" id="id6" d="M126.06963404605263,408.5L123.19474712171052,414.4166666666667C120.31986019736841,420.3333333333333,114.5700863486842,432.1666666666667,106.97535848965742,444C99.38063063063062,455.8333333333333,89.94094876126125,467.6666666666667,85.22110782657657,473.5833333333333L80.50126689189189,479.5"/><path marker-end="url(#classDiagram-dependencyEnd)" style="fill:none" class="edge-pattern-solid relation" id="id7" d="M185.4130550986842,408.5L188.43926466557016,414.4166666666667C191.46547423245613,420.3333333333333,197.5178933662281,432.1666666666667,200.54410293311403,450.4166666666667C203.5703125,468.6666666666667,203.5703125,493.3333333333333,203.5703125,519.4166666666666C203.5703125,545.5,203.5703125,573,208.45037235014618,592.3333333333334C213.3304322002924,611.6666666666666,223.0905519005848,622.8333333333334,227.970611750731,628.4166666666666L232.8506716008772,634"/><path marker-end="url(#classDiagram-dependencyEnd)" style="fill:none" class="edge-pattern-solid relation" id="id8" d="M354.26171875,419L354.26171875,423.1666666666667C354.26171875,427.3333333333333,354.26171875,435.6666666666667,354.26171875,444C354.26171875,452.3333333333333,354.26171875,460.6666666666667,354.26171875,464.8333333333333L354.26171875,469"/><path marker-start="url(#classDiagram-dependencyStart)" style="fill:none" class="edge-pattern-dashed relation" id="id9" d="M354.26171875,567L354.26171875,572.5833333333334C354.26171875,578.1666666666666,354.26171875,589.3333333333334,351.76142463907166,600.5C349.26113052814327,611.6666666666666,344.2605423062866,622.8333333333334,341.76024819535814,628.4166666666666L339.2599540844298,634"/></g><g class="edgeLabels"><g class="edgeLabel"><g transform="translate(0, 0)" class="label"><rect height="0" width="0" ry="0" rx="0"/><text style=""><tspan class="row" x="0" dy="1em" xml:space="preserve"/></text></g></g><g class="edgeLabel"><g transform="translate(0, 0)" class="label"><rect height="0" width="0" ry="0" rx="0"/><text style=""><tspan class="row" x="0" dy="1em" xml:space="preserve"/></text></g></g><g class="edgeLabel"><g transform="translate(0, 0)" class="label"><rect height="0" width="0" ry="0" rx="0"/><text style=""><tspan class="row" x="0" dy="1em" xml:space="preserve"/></text></g></g><g transform="translate(319.2610250990711, 234.81202722260284)" class="edgeTerminals"><g transform="translate(-3.0625, -6)" class="inner"><text style=""><tspan class="row" x="0" dy="1em" xml:space="preserve">1</tspan></text></g></g><g transform="translate(363.68918708964264, 256.2654156983014)" class="edgeTerminals"><g transform="translate(-8.614990234375, -6)" class="inner"/><text style=""><tspan class="row" x="0" dy="1em" xml:space="preserve">0..*</tspan></text></g><g transform="translate(213.466796875, 245.5)" class="edgeLabel"><g transform="translate(-62.30859375, -8.5)" class="label"><rect height="17.00031280517578" width="124.50665283203125" ry="0" rx="0"/><text style=""><tspan class="row" x="0" dy="1em" xml:space="preserve">via Redis Pubsub</tspan></text></g></g><g class="edgeLabel"><g transform="translate(0, 0)" class="label"><rect height="0" width="0" ry="0" rx="0"/><text style=""><tspan class="row" x="0" dy="1em" xml:space="preserve"/></text></g></g><g class="edgeLabel"><g transform="translate(0, 0)" class="label"><rect height="0" width="0" ry="0" rx="0"/><text style=""><tspan class="row" x="0" dy="1em" xml:space="preserve"/></text></g></g><g class="edgeLabel"><g transform="translate(0, 0)" class="label"><rect height="0" width="0" ry="0" rx="0"/><text style=""><tspan class="row" x="0" dy="1em" xml:space="preserve"/></text></g></g><g class="edgeLabel"><g transform="translate(0, 0)" class="label"><rect height="0" width="0" ry="0" rx="0"/><text style=""><tspan class="row" x="0" dy="1em" xml:space="preserve"/></text></g></g><g transform="translate(339.26171875, 436.5)" class="edgeTerminals"><g transform="translate(-3.0625, -6)" class="inner"><text style=""><tspan class="row" x="0" dy="1em" xml:space="preserve">1</tspan></text></g></g><g transform="translate(364.26171875, 446.5)" class="edgeTerminals"><g transform="translate(-8.614990234375, -6)" class="inner"/><text style=""><tspan class="row" x="0" dy="1em" xml:space="preserve">0..*</tspan></text></g><g transform="translate(354.26171875, 600.5)" class="edgeLabel"><g transform="translate(-53.3671875, -8.5)" class="label"><rect height="17.00031280517578" width="106.64258575439453" ry="0" rx="0"/><text style=""><tspan class="row" x="0" dy="1em" xml:space="preserve">represented by</tspan></text></g></g><g transform="translate(338.9575080041127, 584.1708148569063)" class="edgeTerminals"><g transform="translate(-3.0625, -6)" class="inner"><text style=""><tspan class="row" x="0" dy="1em" xml:space="preserve">1</tspan></text></g></g><g transform="translate(355.1022874134925, 619.1589054775272)" class="edgeTerminals"><g transform="translate(-3.0625, -6)" class="inner"/><text style=""><tspan class="row" x="0" dy="1em" xml:space="preserve">1</tspan></text></g></g><g class="nodes"><g transform="translate(154.98046875, 46.5)" id="classId-Monolith-0" class="node default"><rect height="77" width="83.578125" y="-38.5" x="-41.7890625" class="outer title-state"/><line y2="11.5" y1="11.5" x2="41.7890625" x1="-41.7890625" class="divider"/><line y2="27.5" y1="27.5" x2="41.7890625" x1="-41.7890625" class="divider"/><g class="label"><text transform="translate( -34.2890625, -31)" style=""><tspan class="title-row" x="0" dy="1em" xml:space="preserve">«service»</tspan></text><text transform="translate( -33.3203125, -10)" class="classTitle" style=""><tspan class="title-row" x="0" dy="1em" xml:space="preserve">Monolith</tspan></text></g></g><g transform="translate(271.953125, 173.5)" id="classId-RoomManager-1" class="node default"><rect height="77" width="126.125" y="-38.5" x="-63.0625" class="outer title-state"/><line y2="-9.5" y1="-9.5" x2="63.0625" x1="-63.0625" class="divider"/><line y2="27.5" y1="27.5" x2="63.0625" x1="-63.0625" class="divider"/><g class="label"><text style=""><tspan class="title-row" x="0" dy="1em" xml:space="preserve"/></text><text transform="translate( -55.5625, -31)" class="classTitle" style=""><tspan class="title-row" x="0" dy="1em" xml:space="preserve">RoomManager</tspan></text><text transform="translate( -55.5625, 2)" style=""><tspan class="title-row" x="0" dy="1em" xml:space="preserve">Room[] room</tspan></text></g></g><g transform="translate(154.98046875, 349)" id="classId-ClientManager-2" class="node default"><rect height="119" width="154.640625" y="-59.5" x="-77.3203125" class="outer title-state"/><line y2="-30.5" y1="-30.5" x2="77.3203125" x1="-77.3203125" class="divider"/><line y2="48.5" y1="48.5" x2="77.3203125" x1="-77.3203125" class="divider"/><g class="label"><text style=""><tspan class="title-row" x="0" dy="1em" xml:space="preserve"/></text><text transform="translate( -55.125, -52)" class="classTitle" style=""><tspan class="title-row" x="0" dy="1em" xml:space="preserve">ClientManager</tspan></text><text transform="translate( -69.8203125, -19)" style=""><tspan class="title-row" x="0" dy="1em" xml:space="preserve">Client[] connections</tspan></text><text transform="translate( -69.8203125, 2)" style=""><tspan class="title-row" x="0" dy="1em" xml:space="preserve">Map roomStates</tspan></text><text transform="translate( -69.8203125, 23)" style=""><tspan class="title-row" x="0" dy="1em" xml:space="preserve">Map roomJoins</tspan></text></g></g><g transform="translate(49.7890625, 518)" id="classId-Redis-3" class="node default"><rect height="77" width="83.578125" y="-38.5" x="-41.7890625" class="outer title-state"/><line y2="11.5" y1="11.5" x2="41.7890625" x1="-41.7890625" class="divider"/><line y2="27.5" y1="27.5" x2="41.7890625" x1="-41.7890625" class="divider"/><g class="label"><text transform="translate( -34.2890625, -31)" style=""><tspan class="title-row" x="0" dy="1em" xml:space="preserve">«service»</tspan></text><text transform="translate( -21.8359375, -10)" class="classTitle" style=""><tspan class="title-row" x="0" dy="1em" xml:space="preserve">Redis</tspan></text></g></g><g transform="translate(354.26171875, 349)" id="classId-Room-4" class="node default"><rect height="140" width="143.921875" y="-70" x="-71.9609375" class="outer title-state"/><line y2="-41" y1="-41" x2="71.9609375" x1="-71.9609375" class="divider"/><line y2="59" y1="59" x2="71.9609375" x1="-71.9609375" class="divider"/><g class="label"><text style=""><tspan class="title-row" x="0" dy="1em" xml:space="preserve"/></text><text transform="translate( -22.6640625, -62.5)" class="classTitle" style=""><tspan class="title-row" x="0" dy="1em" xml:space="preserve">Room</tspan></text><text transform="translate( -64.4609375, -29.5)" style=""><tspan class="title-row" x="0" dy="1em" xml:space="preserve">String name</tspan></text><text transform="translate( -64.4609375, -8.5)" style=""><tspan class="title-row" x="0" dy="1em" xml:space="preserve">bool isTemporary</tspan></text><text transform="translate( -64.4609375, 12.5)" style=""><tspan class="title-row" x="0" dy="1em" xml:space="preserve">RoomUser[] users</tspan></text><text transform="translate( -64.4609375, 33.5)" style=""><tspan class="title-row" x="0" dy="1em" xml:space="preserve">...</tspan></text></g></g><g transform="translate(303.2109375, 714.5)" id="classId-Client-5" class="node default"><rect height="161" width="157.3125" y="-80.5" x="-78.65625" class="outer title-state"/><line y2="-51.5" y1="-51.5" x2="78.65625" x1="-78.65625" class="divider"/><line y2="69.5" y1="69.5" x2="78.65625" x1="-78.65625" class="divider"/><g class="label"><text style=""><tspan class="title-row" x="0" dy="1em" xml:space="preserve"/></text><text transform="translate( -22.55859375, -73)" class="classTitle" style=""><tspan class="title-row" x="0" dy="1em" xml:space="preserve">Client</tspan></text><text transform="translate( -71.15625, -40)" style=""><tspan class="title-row" x="0" dy="1em" xml:space="preserve">String id</tspan></text><text transform="translate( -71.15625, -19)" style=""><tspan class="title-row" x="0" dy="1em" xml:space="preserve">WebSocket socket</tspan></text><text transform="translate( -71.15625, 2)" style=""><tspan class="title-row" x="0" dy="1em" xml:space="preserve">SessionInfo session</tspan></text><text transform="translate( -71.15625, 23)" style=""><tspan class="title-row" x="0" dy="1em" xml:space="preserve">String room</tspan></text><text transform="translate( -71.15625, 44)" style=""><tspan class="title-row" x="0" dy="1em" xml:space="preserve">AuthToken token</tspan></text></g></g><g transform="translate(354.26171875, 518)" id="classId-RoomUser-6" class="node default"><rect height="98" width="134.203125" y="-49" x="-67.1015625" class="outer title-state"/><line y2="-20" y1="-20" x2="67.1015625" x1="-67.1015625" class="divider"/><line y2="38" y1="38" x2="67.1015625" x1="-67.1015625" class="divider"/><g class="label"><text style=""><tspan class="title-row" x="0" dy="1em" xml:space="preserve"/></text><text transform="translate( -40.453125, -41.5)" class="classTitle" style=""><tspan class="title-row" x="0" dy="1em" xml:space="preserve">RoomUser</tspan></text><text transform="translate( -59.6015625, -8.5)" style=""><tspan class="title-row" x="0" dy="1em" xml:space="preserve">String id</tspan></text><text transform="translate( -59.6015625, 12.5)" style=""><tspan class="title-row" x="0" dy="1em" xml:space="preserve">AuthToken token</tspan></text></g></g></g></g></g><text class="classTitleText" y="-25" x="213.111328125">Monolith's Current Internals</text><style>.note:before {
	content: "";
	position: absolute;
	top: 0;
	right: 0;
	border-width: 0 16px 16px 0;
	border-style: solid;
	border-color: #658E15 #fff;
}</style></svg>