<svg aria-roledescription="classDiagram" role="graphics-document document" viewBox="-8 -8 982.9140625 908" style="max-width: 982.914px; background-color: white;" xmlns:xlink="http://www.w3.org/1999/xlink" xmlns="http://www.w3.org/2000/svg" width="100%" id="my-svg"><style>#my-svg{font-family:"trebuchet ms",verdana,arial,sans-serif;font-size:16px;fill:#000000;}#my-svg .error-icon{fill:#552222;}#my-svg .error-text{fill:#552222;stroke:#552222;}#my-svg .edge-thickness-normal{stroke-width:2px;}#my-svg .edge-thickness-thick{stroke-width:3.5px;}#my-svg .edge-pattern-solid{stroke-dasharray:0;}#my-svg .edge-pattern-dashed{stroke-dasharray:3;}#my-svg .edge-pattern-dotted{stroke-dasharray:2;}#my-svg .marker{fill:#666;stroke:#666;}#my-svg .marker.cross{stroke:#666;}#my-svg svg{font-family:"trebuchet ms",verdana,arial,sans-serif;font-size:16px;}#my-svg g.classGroup text{fill:#999;fill:#111111;stroke:none;font-family:"trebuchet ms",verdana,arial,sans-serif;font-size:10px;}#my-svg g.classGroup text .title{font-weight:bolder;}#my-svg .nodeLabel,#my-svg .edgeLabel{color:#111111;}#my-svg .edgeLabel .label rect{fill:#eee;}#my-svg .label text{fill:#111111;}#my-svg .edgeLabel .label span{background:#eee;}#my-svg .classTitle{font-weight:bolder;}#my-svg .node rect,#my-svg .node circle,#my-svg .node ellipse,#my-svg .node polygon,#my-svg .node path{fill:#eee;stroke:#999;stroke-width:1px;}#my-svg .divider{stroke:#999;stroke-width:1;}#my-svg g.clickable{cursor:pointer;}#my-svg g.classGroup rect{fill:#eee;stroke:#999;}#my-svg g.classGroup line{stroke:#999;stroke-width:1;}#my-svg .classLabel .box{stroke:none;stroke-width:0;fill:#eee;opacity:0.5;}#my-svg .classLabel .label{fill:#999;font-size:10px;}#my-svg .relation{stroke:#666;stroke-width:1;fill:none;}#my-svg .dashed-line{stroke-dasharray:3;}#my-svg .dotted-line{stroke-dasharray:1 2;}#my-svg #compositionStart,#my-svg .composition{fill:#666!important;stroke:#666!important;stroke-width:1;}#my-svg #compositionEnd,#my-svg .composition{fill:#666!important;stroke:#666!important;stroke-width:1;}#my-svg #dependencyStart,#my-svg .dependency{fill:#666!important;stroke:#666!important;stroke-width:1;}#my-svg #dependencyStart,#my-svg .dependency{fill:#666!important;stroke:#666!important;stroke-width:1;}#my-svg #extensionStart,#my-svg .extension{fill:#eee!important;stroke:#666!important;stroke-width:1;}#my-svg #extensionEnd,#my-svg .extension{fill:#eee!important;stroke:#666!important;stroke-width:1;}#my-svg #aggregationStart,#my-svg .aggregation{fill:#eee!important;stroke:#666!important;stroke-width:1;}#my-svg #aggregationEnd,#my-svg .aggregation{fill:#eee!important;stroke:#666!important;stroke-width:1;}#my-svg #lollipopStart,#my-svg .lollipop{fill:#eee!important;stroke:#666!important;stroke-width:1;}#my-svg #lollipopEnd,#my-svg .lollipop{fill:#eee!important;stroke:#666!important;stroke-width:1;}#my-svg .edgeTerminals{font-size:11px;}#my-svg .classTitleText{text-anchor:middle;font-size:18px;fill:#000000;}#my-svg :root{--mermaid-font-family:"trebuchet ms",verdana,arial,sans-serif;}</style><g><defs><marker orient="auto" markerHeight="240" markerWidth="190" refY="7" refX="0" class="marker aggregation classDiagram" id="classDiagram-aggregationStart"><path d="M 18,7 L9,13 L1,7 L9,1 Z"/></marker></defs><defs><marker orient="auto" markerHeight="28" markerWidth="20" refY="7" refX="19" class="marker aggregation classDiagram" id="classDiagram-aggregationEnd"><path d="M 18,7 L9,13 L1,7 L9,1 Z"/></marker></defs><defs><marker orient="auto" markerHeight="240" markerWidth="190" refY="7" refX="0" class="marker extension classDiagram" id="classDiagram-extensionStart"><path d="M 1,7 L18,13 V 1 Z"/></marker></defs><defs><marker orient="auto" markerHeight="28" markerWidth="20" refY="7" refX="19" class="marker extension classDiagram" id="classDiagram-extensionEnd"><path d="M 1,1 V 13 L18,7 Z"/></marker></defs><defs><marker orient="auto" markerHeight="240" markerWidth="190" refY="7" refX="0" class="marker composition classDiagram" id="classDiagram-compositionStart"><path d="M 18,7 L9,13 L1,7 L9,1 Z"/></marker></defs><defs><marker orient="auto" markerHeight="28" markerWidth="20" refY="7" refX="19" class="marker composition classDiagram" id="classDiagram-compositionEnd"><path d="M 18,7 L9,13 L1,7 L9,1 Z"/></marker></defs><defs><marker orient="auto" markerHeight="240" markerWidth="190" refY="7" refX="0" class="marker dependency classDiagram" id="classDiagram-dependencyStart"><path d="M 5,7 L9,13 L1,7 L9,1 Z"/></marker></defs><defs><marker orient="auto" markerHeight="28" markerWidth="20" refY="7" refX="19" class="marker dependency classDiagram" id="classDiagram-dependencyEnd"><path d="M 18,7 L9,13 L14,7 L9,1 Z"/></marker></defs><defs><marker orient="auto" markerHeight="240" markerWidth="190" refY="7" refX="0" class="marker lollipop classDiagram" id="classDiagram-lollipopStart"><circle r="6" cy="7" cx="6" fill="white" stroke="black"/></marker></defs><g class="root"><g class="clusters"/><g class="edgePaths"><path marker-end="url(#classDiagram-dependencyEnd)" style="fill:none" class="edge-pattern-solid relation" id="id1" d="M373.859375,61.67357130193251L347.775390625,71.14464275161042C321.69140625,80.61571420128834,269.5234375,99.55785710064417,243.439453125,114.61226188365542C217.35546875,129.66666666666666,217.35546875,140.83333333333334,217.35546875,146.41666666666666L217.35546875,152"/><path marker-end="url(#classDiagram-dependencyEnd)" style="fill:none" class="edge-pattern-solid relation" id="id2" d="M457.4375,64.23986342541946L478.7405598958333,73.28321952118289C500.0436197916667,82.3265756169463,542.6497395833334,100.41328780847316,563.9527994791666,123.20664390423657C585.255859375,146,585.255859375,173.5,585.255859375,201C585.255859375,228.5,585.255859375,256,573.2385863274959,277.0833333333333C561.2213132799919,298.1666666666667,537.1867671849839,312.8333333333333,525.1694941374798,320.1666666666667L513.1522210899758,327.5"/><path marker-end="url(#classDiagram-aggregationEnd)" style="fill:none" class="edge-pattern-solid relation" id="id3" d="M148.94140625,242.0799476871464L137.44466145833334,248.98328973928867C125.94791666666667,255.88663179143091,102.95442708333333,269.69331589571544,91.45768229166667,282.17999128119106C79.9609375,294.6666666666667,79.9609375,305.8333333333333,79.9609375,311.4166666666667L79.9609375,317"/><path marker-start="url(#classDiagram-dependencyStart)" style="fill:none" class="edge-pattern-solid relation" id="id4" d="M211.27919034090908,250L210.5868252840909,255.58333333333334C209.8944602272727,261.1666666666667,208.50973011363635,272.3333333333333,223.50095880681818,285.7011726799296C238.4921875,299.0690120265258,269.859375,314.6380240530516,285.54296875,322.4225300663145L301.2265625,330.2070360795774"/><path marker-end="url(#classDiagram-dependencyEnd)" style="fill:none" class="edge-pattern-solid relation" id="id5" d="M285.76953125,242.0799476871464L297.2662760416667,248.98328973928867C308.7630208333333,255.88663179143091,331.7565104166667,269.69331589571544,347.5681203452093,283.92999128119106C363.37973027375205,298.1666666666667,372.00946054750403,312.8333333333333,376.32432568438,320.1666666666667L380.639190821256,327.5"/><path marker-end="url(#classDiagram-dependencyEnd)" style="fill:none" class="edge-pattern-solid relation" id="id6" d="M336.28591108091786,446.5L326.5045352757649,453.8333333333333C316.7231594706119,461.1666666666667,297.16040786030595,475.8333333333333,287.379032055153,490.5C277.59765625,505.1666666666667,277.59765625,519.8333333333334,277.59765625,527.1666666666666L277.59765625,534.5"/><path marker-end="url(#classDiagram-aggregationEnd)" style="fill:none" class="edge-pattern-solid relation" id="id7" d="M449.1059593900966,446.5L453.22957553341377,453.8333333333333C457.35319167673106,461.1666666666667,465.60042396336553,475.8333333333333,469.7240401066827,496.9166666666667C473.84765625,518,473.84765625,545.5,473.84765625,573C473.84765625,600.5,473.84765625,628,480.9342447916667,648.3395148922431C488.0208333333333,668.6790297844863,502.1940104166667,681.8580595689724,509.2805989583333,688.4475744612155L516.3671875,695.0370893534587"/><path marker-end="url(#classDiagram-aggregationEnd)" style="fill:none" class="edge-pattern-solid relation" id="id8" d="M79.9609375,457L79.9609375,462.5833333333333C79.9609375,468.1666666666667,79.9609375,479.3333333333333,79.9609375,490.5C79.9609375,501.6666666666667,79.9609375,512.8333333333334,79.9609375,518.4166666666666L79.9609375,524"/><path marker-start="url(#classDiagram-dependencyStart)" style="fill:none" class="edge-pattern-dashed relation" id="id9" d="M79.9609375,622L79.9609375,627.5833333333334C79.9609375,633.1666666666666,79.9609375,644.3333333333334,152.6953125,668.1316200731391C225.4296875,691.9299068129448,370.8984375,728.3598136258894,443.6328125,746.5747670323618L516.3671875,764.7897204388343"/><path marker-end="url(#classDiagram-extensionEnd)" style="fill:none" class="edge-pattern-solid relation" id="id10" d="M667.609375,611.5L667.609375,618.8333333333334C667.609375,626.1666666666666,667.609375,640.8333333333334,665.60027970679,653.75C663.5911844135802,666.6666666666666,659.5729938271605,677.8333333333334,657.5638985339506,683.4166666666666L655.5548032407407,689"/><path marker-end="url(#classDiagram-extensionEnd)" style="fill:none" class="edge-pattern-solid relation" id="id11" d="M886.03125,601L886.03125,610.0833333333334C886.03125,619.1666666666666,886.03125,637.3333333333334,858.6419270833334,660.2652007256554C831.2526041666666,683.1970681179774,776.4739583333334,710.894136235955,749.0846354166666,724.7426702949438L721.6953125,738.5912043539325"/><path marker-end="url(#classDiagram-dependencyEnd)" style="fill:none" class="edge-pattern-solid relation" id="id12" d="M488.904296875,239.5L488.904296875,246.83333333333334C488.904296875,254.16666666666666,488.904296875,268.8333333333333,483.7138656149356,283.5C478.5234343548712,298.1666666666667,468.14257183474234,312.8333333333333,462.95214057467797,320.1666666666667L457.76170931461354,327.5"/><path style="fill:none" class="edge-pattern-dotted relation" id="edgeNote13" d="M667.609375,411L667.609375,424.25C667.609375,437.5,667.609375,464,667.609375,484.5833333333333C667.609375,505.1666666666667,667.609375,519.8333333333334,667.609375,527.1666666666666L667.609375,534.5"/><path style="fill:none" class="edge-pattern-dotted relation" id="edgeNote14" d="M886.03125,411L886.03125,424.25C886.03125,437.5,886.03125,464,886.03125,486.3333333333333C886.03125,508.6666666666667,886.03125,526.8333333333334,886.03125,535.9166666666666L886.03125,545"/></g><g class="edgeLabels"><g transform="translate(217.35546875, 118.5)" class="edgeLabel"><g transform="translate(-19.5625, -8.5)" class="label"><rect height="18.806066513061523" width="39.08135986328125" ry="0" rx="0"/><text style=""><tspan class="row" x="0" dy="1em" xml:space="preserve">starts</tspan></text></g></g><g transform="translate(352.2906985546628, 53.54693630358569)" class="edgeTerminals"><g transform="translate(-3.0625, -6)" class="inner"><text style=""><tspan class="row" x="0" dy="1em" xml:space="preserve">1</tspan></text></g></g><g transform="translate(228.04756367312825, 130.61530457443666)" class="edgeTerminals"><g transform="translate(-3.0625, -6)" class="inner"/><text style=""><tspan class="row" x="0" dy="1em" xml:space="preserve">1</tspan></text></g><g transform="translate(585.255859375, 201)" class="edgeLabel"><g transform="translate(-19.5625, -8.5)" class="label"><rect height="18.806066513061523" width="39.08135986328125" ry="0" rx="0"/><text style=""><tspan class="row" x="0" dy="1em" xml:space="preserve">starts</tspan></text></g></g><g transform="translate(467.68475733891347, 84.88553408611934)" class="edgeTerminals"><g transform="translate(-3.0625, -6)" class="inner"><text style=""><tspan class="row" x="0" dy="1em" xml:space="preserve">1</tspan></text></g></g><g transform="translate(530.9040481672632, 326.1884095007481)" class="edgeTerminals"><g transform="translate(-3.0625, -6)" class="inner"/><text style=""><tspan class="row" x="0" dy="1em" xml:space="preserve">1</tspan></text></g><g transform="translate(79.9609375, 283.5)" class="edgeLabel"><g transform="translate(-26.6796875, -8.5)" class="label"><rect height="18.806066513061523" width="53.30344772338867" ry="0" rx="0"/><text style=""><tspan class="row" x="0" dy="1em" xml:space="preserve">collects</tspan></text></g></g><g transform="translate(126.21653848486443, 238.2289237899079)" class="edgeTerminals"><g transform="translate(-3.0625, -6)" class="inner"><text style=""><tspan class="row" x="0" dy="1em" xml:space="preserve">1</tspan></text></g></g><g transform="translate(90.59337810330982, 295.4263522202879)" class="edgeTerminals"><g transform="translate(-8.614990234375, -6)" class="inner"/><text style=""><tspan class="row" x="0" dy="1em" xml:space="preserve">0..*</tspan></text></g><g transform="translate(207.125, 283.5)" class="edgeLabel"><g transform="translate(-80.484375, -8.5)" class="label"><rect height="18.806066513061523" width="160.8310546875" ry="0" rx="0"/><text style=""><tspan class="row" x="0" dy="1em" xml:space="preserve">via direct function calls</tspan></text></g></g><g transform="translate(354.75, 283.5)" class="edgeLabel"><g transform="translate(-47.140625, -8.5)" class="label"><rect height="18.806066513061523" width="94.2066421508789" ry="0" rx="0"/><text style=""><tspan class="row" x="0" dy="1em" xml:space="preserve">via event bus</tspan></text></g></g><g transform="translate(277.59765625, 490.5)" class="edgeLabel"><g transform="translate(-40.96484375, -8.5)" class="label"><rect height="18.806066513061523" width="81.7672119140625" ry="0" rx="0"/><text style=""><tspan class="row" x="0" dy="1em" xml:space="preserve">connects to</tspan></text></g></g><g transform="translate(473.84765625, 573)" class="edgeLabel"><g transform="translate(-26.6796875, -8.5)" class="label"><rect height="18.806066513061523" width="53.30344772338867" ry="0" rx="0"/><text style=""><tspan class="row" x="0" dy="1em" xml:space="preserve">collects</tspan></text></g></g><g transform="translate(444.6086571559266, 469.105845983164)" class="edgeTerminals"><g transform="translate(-3.0625, -6)" class="inner"><text style=""><tspan class="row" x="0" dy="1em" xml:space="preserve">1</tspan></text></g></g><g transform="translate(508.7658685057452, 667.1354924770369)" class="edgeTerminals"><g transform="translate(-8.614990234375, -6)" class="inner"/><text style=""><tspan class="row" x="0" dy="1em" xml:space="preserve">0..*</tspan></text></g><g transform="translate(79.9609375, 490.5)" class="edgeLabel"><g transform="translate(-26.6796875, -8.5)" class="label"><rect height="18.806066513061523" width="53.30344772338867" ry="0" rx="0"/><text style=""><tspan class="row" x="0" dy="1em" xml:space="preserve">collects</tspan></text></g></g><g transform="translate(64.9609375, 474.5)" class="edgeTerminals"><g transform="translate(-3.0625, -6)" class="inner"><text style=""><tspan class="row" x="0" dy="1em" xml:space="preserve">1</tspan></text></g></g><g transform="translate(89.9609375, 501.5)" class="edgeTerminals"><g transform="translate(-8.614990234375, -6)" class="inner"/><text style=""><tspan class="row" x="0" dy="1em" xml:space="preserve">0..*</tspan></text></g><g transform="translate(79.9609375, 655.5)" class="edgeLabel"><g transform="translate(-53.3671875, -8.5)" class="label"><rect height="18.806066513061523" width="107.4189453125" ry="0" rx="0"/><text style=""><tspan class="row" x="0" dy="1em" xml:space="preserve">represented by</tspan></text></g></g><g transform="translate(65.70229786663059, 639.5761142739552)" class="edgeTerminals"><g transform="translate(-3.0625, -6)" class="inner"><text style=""><tspan class="row" x="0" dy="1em" xml:space="preserve">1</tspan></text></g></g><g transform="translate(498.0353559058357, 740.9877985598124)" class="edgeTerminals"><g transform="translate(-3.0625, -6)" class="inner"/><text style=""><tspan class="row" x="0" dy="1em" xml:space="preserve">1</tspan></text></g><g transform="translate(667.609375, 655.5)" class="edgeLabel"><g transform="translate(-25.7890625, -8.5)" class="label"><rect height="18.806066513061523" width="51.54037857055664" ry="0" rx="0"/><text style=""><tspan class="row" x="0" dy="1em" xml:space="preserve">inherits</tspan></text></g></g><g transform="translate(886.03125, 655.5)" class="edgeLabel"><g transform="translate(-25.7890625, -8.5)" class="label"><rect height="18.806066513061523" width="51.54037857055664" ry="0" rx="0"/><text style=""><tspan class="row" x="0" dy="1em" xml:space="preserve">inherits</tspan></text></g></g><g transform="translate(488.904296875, 283.5)" class="edgeLabel"><g transform="translate(-40.96484375, -8.5)" class="label"><rect height="18.806066513061523" width="81.7672119140625" ry="0" rx="0"/><text style=""><tspan class="row" x="0" dy="1em" xml:space="preserve">connects to</tspan></text></g></g><g class="edgeLabel"><g transform="translate(0, 0)" class="label"><rect height="0" width="0" ry="0" rx="0"/><text style=""><tspan class="row" x="0" dy="1em" xml:space="preserve"/></text></g></g><g class="edgeLabel"><g transform="translate(0, 0)" class="label"><rect height="0" width="0" ry="0" rx="0"/><text style=""><tspan class="row" x="0" dy="1em" xml:space="preserve"/></text></g></g></g><g class="nodes"><g transform="translate(415.6484375, 46.5)" id="classId-Monolith-0" class="node default"><rect height="77" width="83.578125" y="-38.5" x="-41.7890625" class="outer title-state"/><line y2="11.5" y1="11.5" x2="41.7890625" x1="-41.7890625" class="divider"/><line y2="27.5" y1="27.5" x2="41.7890625" x1="-41.7890625" class="divider"/><g class="label"><text transform="translate( -34.2890625, -31)" style=""><tspan class="title-row" x="0" dy="1em" xml:space="preserve">«service»</tspan></text><text transform="translate( -33.3203125, -10)" class="classTitle" style=""><tspan class="title-row" x="0" dy="1em" xml:space="preserve">Monolith</tspan></text></g></g><g transform="translate(217.35546875, 201)" id="classId-RoomManager-1" class="node default"><rect height="98" width="136.828125" y="-49" x="-68.4140625" class="outer title-state"/><line y2="-20" y1="-20" x2="68.4140625" x1="-68.4140625" class="divider"/><line y2="38" y1="38" x2="68.4140625" x1="-68.4140625" class="divider"/><g class="label"><text style=""><tspan class="title-row" x="0" dy="1em" xml:space="preserve"/></text><text transform="translate( -55.5625, -41.5)" class="classTitle" style=""><tspan class="title-row" x="0" dy="1em" xml:space="preserve">RoomManager</tspan></text><text transform="translate( -60.9140625, -8.5)" style=""><tspan class="title-row" x="0" dy="1em" xml:space="preserve">Room[] room</tspan></text><text transform="translate( -60.9140625, 12.5)" style=""><tspan class="title-row" x="0" dy="1em" xml:space="preserve">EventEmitter bus</tspan></text></g></g><g transform="translate(415.6484375, 387)" id="classId-ClientManager-2" class="node default"><rect height="119" width="228.84375" y="-59.5" x="-114.421875" class="outer title-state"/><line y2="-30.5" y1="-30.5" x2="114.421875" x1="-114.421875" class="divider"/><line y2="48.5" y1="48.5" x2="114.421875" x1="-114.421875" class="divider"/><g class="label"><text style=""><tspan class="title-row" x="0" dy="1em" xml:space="preserve"/></text><text transform="translate( -55.125, -52)" class="classTitle" style=""><tspan class="title-row" x="0" dy="1em" xml:space="preserve">ClientManager</tspan></text><text transform="translate( -106.921875, -19)" style=""><tspan class="title-row" x="0" dy="1em" xml:space="preserve">Client[] connections</tspan></text><text transform="translate( -106.921875, 2)" style=""><tspan class="title-row" x="0" dy="1em" xml:space="preserve">Map roomJoins</tspan></text><text transform="translate( -106.921875, 23)" style=""><tspan class="title-row" x="0" dy="1em" xml:space="preserve">Option&lt;WebSocket&gt; balancer</tspan></text></g></g><g transform="translate(277.59765625, 573)" id="classId-Redis-3" class="node default"><rect height="77" width="83.578125" y="-38.5" x="-41.7890625" class="outer title-state"/><line y2="11.5" y1="11.5" x2="41.7890625" x1="-41.7890625" class="divider"/><line y2="27.5" y1="27.5" x2="41.7890625" x1="-41.7890625" class="divider"/><g class="label"><text transform="translate( -34.2890625, -31)" style=""><tspan class="title-row" x="0" dy="1em" xml:space="preserve">«service»</tspan></text><text transform="translate( -21.8359375, -10)" class="classTitle" style=""><tspan class="title-row" x="0" dy="1em" xml:space="preserve">Redis</tspan></text></g></g><g transform="translate(79.9609375, 387)" id="classId-Room-4" class="node default"><rect height="140" width="143.921875" y="-70" x="-71.9609375" class="outer title-state"/><line y2="-41" y1="-41" x2="71.9609375" x1="-71.9609375" class="divider"/><line y2="59" y1="59" x2="71.9609375" x1="-71.9609375" class="divider"/><g class="label"><text style=""><tspan class="title-row" x="0" dy="1em" xml:space="preserve"/></text><text transform="translate( -22.6640625, -62.5)" class="classTitle" style=""><tspan class="title-row" x="0" dy="1em" xml:space="preserve">Room</tspan></text><text transform="translate( -64.4609375, -29.5)" style=""><tspan class="title-row" x="0" dy="1em" xml:space="preserve">String name</tspan></text><text transform="translate( -64.4609375, -8.5)" style=""><tspan class="title-row" x="0" dy="1em" xml:space="preserve">bool isTemporary</tspan></text><text transform="translate( -64.4609375, 12.5)" style=""><tspan class="title-row" x="0" dy="1em" xml:space="preserve">RoomUser[] users</tspan></text><text transform="translate( -64.4609375, 33.5)" style=""><tspan class="title-row" x="0" dy="1em" xml:space="preserve">...</tspan></text></g></g><g transform="translate(619.03125, 790.5)" id="classId-Client-5" class="node default"><rect height="203" width="205.328125" y="-101.5" x="-102.6640625" class="outer title-state"/><line y2="-51.5" y1="-51.5" x2="102.6640625" x1="-102.6640625" class="divider"/><line y2="90.5" y1="90.5" x2="102.6640625" x1="-102.6640625" class="divider"/><g class="label"><text transform="translate( -37.40625, -94)" style=""><tspan class="title-row" x="0" dy="1em" xml:space="preserve">«abstract»</tspan></text><text transform="translate( -22.55859375, -73)" class="classTitle" style=""><tspan class="title-row" x="0" dy="1em" xml:space="preserve">Client</tspan></text><text transform="translate( -95.1640625, -40)" style=""><tspan class="title-row" x="0" dy="1em" xml:space="preserve">String id</tspan></text><text transform="translate( -95.1640625, -19)" style=""><tspan class="title-row" x="0" dy="1em" xml:space="preserve">String room</tspan></text><text transform="translate( -95.1640625, 2)" style=""><tspan class="title-row" x="0" dy="1em" xml:space="preserve">AuthToken token</tspan></text><text transform="translate( -95.1640625, 23)" style=""><tspan class="title-row" x="0" dy="1em" xml:space="preserve">SessionInfo session</tspan></text><text transform="translate( -95.1640625, 44)" style=""><tspan class="title-row" x="0" dy="1em" xml:space="preserve">ClientJoinStatus joinStatus</tspan></text><text transform="translate( -95.1640625, 65)" style=""><tspan class="title-row" x="0" dy="1em" xml:space="preserve">EventEmitter bus</tspan></text></g></g><g transform="translate(79.9609375, 573)" id="classId-RoomUser-6" class="node default"><rect height="98" width="134.203125" y="-49" x="-67.1015625" class="outer title-state"/><line y2="-20" y1="-20" x2="67.1015625" x1="-67.1015625" class="divider"/><line y2="38" y1="38" x2="67.1015625" x1="-67.1015625" class="divider"/><g class="label"><text style=""><tspan class="title-row" x="0" dy="1em" xml:space="preserve"/></text><text transform="translate( -40.453125, -41.5)" class="classTitle" style=""><tspan class="title-row" x="0" dy="1em" xml:space="preserve">RoomUser</tspan></text><text transform="translate( -59.6015625, -8.5)" style=""><tspan class="title-row" x="0" dy="1em" xml:space="preserve">String id</tspan></text><text transform="translate( -59.6015625, 12.5)" style=""><tspan class="title-row" x="0" dy="1em" xml:space="preserve">AuthToken token</tspan></text></g></g><g transform="translate(667.609375, 573)" id="classId-DirectClient-7" class="node default"><rect height="77" width="147.765625" y="-38.5" x="-73.8828125" class="outer title-state"/><line y2="-9.5" y1="-9.5" x2="73.8828125" x1="-73.8828125" class="divider"/><line y2="27.5" y1="27.5" x2="73.8828125" x1="-73.8828125" class="divider"/><g class="label"><text style=""><tspan class="title-row" x="0" dy="1em" xml:space="preserve"/></text><text transform="translate( -45.234375, -31)" class="classTitle" style=""><tspan class="title-row" x="0" dy="1em" xml:space="preserve">DirectClient</tspan></text><text transform="translate( -66.3828125, 2)" style=""><tspan class="title-row" x="0" dy="1em" xml:space="preserve">WebSocket socket</tspan></text></g></g><g transform="translate(886.03125, 573)" id="classId-BalancerClient-8" class="node default"><rect height="56" width="127.7109375" y="-28" x="-63.85546875" class="outer title-state"/><line y2="1" y1="1" x2="63.85546875" x1="-63.85546875" class="divider"/><line y2="17" y1="17" x2="63.85546875" x1="-63.85546875" class="divider"/><g class="label"><text style=""><tspan class="title-row" x="0" dy="1em" xml:space="preserve"/></text><text transform="translate( -56.35546875, -20.5)" class="classTitle" style=""><tspan class="title-row" x="0" dy="1em" xml:space="preserve">BalancerClient</tspan></text></g></g><g transform="translate(488.904296875, 201)" id="classId-Balancer-9" class="node default"><rect height="77" width="83.578125" y="-38.5" x="-41.7890625" class="outer title-state"/><line y2="11.5" y1="11.5" x2="41.7890625" x1="-41.7890625" class="divider"/><line y2="27.5" y1="27.5" x2="41.7890625" x1="-41.7890625" class="divider"/><g class="label"><text transform="translate( -34.2890625, -31)" style=""><tspan class="title-row" x="0" dy="1em" xml:space="preserve">«service»</tspan></text><text transform="translate( -33.796875, -10)" class="classTitle" style=""><tspan class="title-row" x="0" dy="1em" xml:space="preserve">Balancer</tspan></text></g></g><g transform="translate(667.609375, 387)" id="note0" class="node undefined"><rect height="48" width="175.078125" y="-24" x="-87.5390625" ry="0" rx="0"/><g transform="translate(-80.0390625, -16.5)" style="" class="label"><rect/><text style=""><tspan class="row" x="0" dy="1em" xml:space="preserve">client that connected</tspan><tspan class="row" x="0" dy="1em" xml:space="preserve">directly to the Monolith</tspan></text></g></g><g transform="translate(886.03125, 387)" id="note1" class="node undefined"><rect height="48" width="161.765625" y="-24" x="-80.8828125" ry="0" rx="0"/><g transform="translate(-73.3828125, -16.5)" style="" class="label"><rect/><text style=""><tspan class="row" x="0" dy="1em" xml:space="preserve">client that connected</tspan><tspan class="row" x="0" dy="1em" xml:space="preserve">via a Balancer</tspan></text></g></g></g></g></g></svg>