<?xml version="1.0" encoding="us-ascii" standalone="no"?><svg xmlns="http://www.w3.org/2000/svg" xmlns:xlink="http://www.w3.org/1999/xlink" contentStyleType="text/css" height="205px" preserveAspectRatio="none" style="width:625px;height:205px;background:#FFFFFF;" version="1.1" viewBox="0 0 625 205" width="625px" zoomAndPan="magnify"><defs/><g><line style="stroke:#333333;stroke-width:0.5;" x1="10" x2="10" y1="10" y2="175.4648"/><line style="stroke:#333333;stroke-width:0.5;" x1="597" x2="597" y1="10" y2="175.4648"/><line style="stroke:#333333;stroke-width:0.5;stroke-dasharray:3.0,5.0;" x1="92" x2="92" y1="10" y2="175.4648"/><line style="stroke:#333333;stroke-width:0.5;stroke-dasharray:3.0,5.0;" x1="142" x2="142" y1="10" y2="175.4648"/><line style="stroke:#333333;stroke-width:0.5;stroke-dasharray:3.0,5.0;" x1="192" x2="192" y1="10" y2="175.4648"/><line style="stroke:#333333;stroke-width:0.5;stroke-dasharray:3.0,5.0;" x1="242" x2="242" y1="10" y2="175.4648"/><line style="stroke:#333333;stroke-width:0.5;stroke-dasharray:3.0,5.0;" x1="292" x2="292" y1="10" y2="175.4648"/><line style="stroke:#333333;stroke-width:0.5;stroke-dasharray:3.0,5.0;" x1="342" x2="342" y1="10" y2="175.4648"/><line style="stroke:#333333;stroke-width:0.5;stroke-dasharray:3.0,5.0;" x1="392" x2="392" y1="10" y2="175.4648"/><line style="stroke:#333333;stroke-width:0.5;stroke-dasharray:3.0,5.0;" x1="442" x2="442" y1="10" y2="175.4648"/><line style="stroke:#333333;stroke-width:0.5;stroke-dasharray:3.0,5.0;" x1="492" x2="492" y1="10" y2="175.4648"/><line style="stroke:#333333;stroke-width:0.5;stroke-dasharray:3.0,5.0;" x1="542" x2="542" y1="10" y2="175.4648"/><line style="stroke:#333333;stroke-width:0.5;stroke-dasharray:3.0,5.0;" x1="592" x2="592" y1="10" y2="175.4648"/><line style="stroke:#333333;stroke-width:0.5;" x1="10" x2="597" y1="10" y2="10"/><text fill="#333333" font-family="sans-serif" font-size="14" font-weight="bold" lengthAdjust="spacing" textLength="35" x="15" y="23.5352">Alice</text><line style="stroke:#333333;stroke-width:0.5;" x1="10" x2="51" y1="27.4883" y2="27.4883"/><line style="stroke:#333333;stroke-width:0.5;" x1="51" x2="61" y1="27.4883" y2="10"/><text fill="#333333" font-family="sans-serif" font-size="12" lengthAdjust="spacing" textLength="77" x="15" y="58.0234">Disconnected</text><text fill="#333333" font-family="sans-serif" font-size="12" lengthAdjust="spacing" textLength="61" x="15" y="38.0234">Connected</text><line style="stroke:#006400;stroke-width:2.0;" x1="92" x2="142" y1="52.4883" y2="52.4883"/><line style="stroke:#006400;stroke-width:2.0;" x1="142" x2="242" y1="32.4883" y2="32.4883"/><line style="stroke:#006400;stroke-width:2.0;" x1="242" x2="592" y1="52.4883" y2="52.4883"/><line style="stroke:#006400;stroke-width:2.0;" x1="142" x2="142" y1="32.4883" y2="52.4883"/><line style="stroke:#006400;stroke-width:2.0;" x1="242" x2="242" y1="32.4883" y2="52.4883"/><line style="stroke:#333333;stroke-width:0.5;" x1="10" x2="597" y1="64.4883" y2="64.4883"/><text fill="#333333" font-family="sans-serif" font-size="14" font-weight="bold" lengthAdjust="spacing" textLength="27" x="15" y="78.0234">Bob</text><line style="stroke:#333333;stroke-width:0.5;" x1="10" x2="43" y1="81.9766" y2="81.9766"/><line style="stroke:#333333;stroke-width:0.5;" x1="43" x2="53" y1="81.9766" y2="64.4883"/><text fill="#333333" font-family="sans-serif" font-size="12" lengthAdjust="spacing" textLength="77" x="15" y="112.5117">Disconnected</text><text fill="#333333" font-family="sans-serif" font-size="12" lengthAdjust="spacing" textLength="61" x="15" y="92.5117">Connected</text><line style="stroke:#006400;stroke-width:2.0;" x1="92" x2="192" y1="106.9766" y2="106.9766"/><line style="stroke:#006400;stroke-width:2.0;" x1="192" x2="292" y1="86.9766" y2="86.9766"/><line style="stroke:#006400;stroke-width:2.0;" x1="292" x2="442" y1="106.9766" y2="106.9766"/><line style="stroke:#006400;stroke-width:2.0;" x1="442" x2="492" y1="86.9766" y2="86.9766"/><line style="stroke:#006400;stroke-width:2.0;" x1="492" x2="592" y1="106.9766" y2="106.9766"/><line style="stroke:#006400;stroke-width:2.0;" x1="192" x2="192" y1="86.9766" y2="106.9766"/><line style="stroke:#006400;stroke-width:2.0;" x1="292" x2="292" y1="86.9766" y2="106.9766"/><line style="stroke:#006400;stroke-width:2.0;" x1="442" x2="442" y1="86.9766" y2="106.9766"/><line style="stroke:#006400;stroke-width:2.0;" x1="492" x2="492" y1="86.9766" y2="106.9766"/><line style="stroke:#333333;stroke-width:0.5;" x1="10" x2="597" y1="118.9766" y2="118.9766"/><text fill="#333333" font-family="sans-serif" font-size="14" font-weight="bold" lengthAdjust="spacing" textLength="42" x="15" y="132.5117">Room</text><line style="stroke:#333333;stroke-width:0.5;" x1="10" x2="58" y1="136.4648" y2="136.4648"/><line style="stroke:#333333;stroke-width:0.5;" x1="58" x2="68" y1="136.4648" y2="118.9766"/><polygon fill="#E2E2F0" points="104,141.4648,130,141.4648,142,153.4648,130,165.4648,104,165.4648,92,153.4648" style="stroke:#006400;stroke-width:1.5;"/><polygon fill="#E2E2F0" points="154,141.4648,330,141.4648,342,153.4648,330,165.4648,154,165.4648,142,153.4648" style="stroke:#006400;stroke-width:1.5;"/><polygon fill="#E2E2F0" points="354,141.4648,430,141.4648,442,153.4648,430,165.4648,354,165.4648,342,153.4648" style="stroke:#006400;stroke-width:1.5;"/><polygon fill="#E2E2F0" points="454,141.4648,530,141.4648,542,153.4648,530,165.4648,454,165.4648,442,153.4648" style="stroke:#006400;stroke-width:1.5;"/><polygon fill="#E2E2F0" points="554,141.4648,592,141.4648,592,165.4648,554,165.4648,542,153.4648" style="stroke:#E2E2F0;stroke-width:1.5;"/><path d="M592,141.4648 L554,141.4648 L542,153.4648 L554,165.4648 L592,165.4648 " fill="#E2E2F0" style="stroke:#006400;stroke-width:1.5;"/><text fill="#333333" font-family="sans-serif" font-size="12" font-weight="bold" lengthAdjust="spacing" textLength="59" x="87.5" y="158">Unloaded</text><text fill="#333333" font-family="sans-serif" font-size="12" font-weight="bold" lengthAdjust="spacing" textLength="45" x="219.5" y="158">Loaded</text><text fill="#333333" font-family="sans-serif" font-size="12" font-weight="bold" lengthAdjust="spacing" textLength="59" x="362.5" y="158">Unloaded</text><text fill="#333333" font-family="sans-serif" font-size="12" font-weight="bold" lengthAdjust="spacing" textLength="45" x="469.5" y="158">Loaded</text><text fill="#333333" font-family="sans-serif" font-size="12" font-weight="bold" lengthAdjust="spacing" textLength="59" x="554" y="158">Unloaded</text><line style="stroke:#333333;stroke-width:2.0;" x1="92" x2="92" y1="175.4648" y2="180.4648"/><line style="stroke:#333333;stroke-width:2.0;" x1="142" x2="142" y1="175.4648" y2="180.4648"/><line style="stroke:#333333;stroke-width:2.0;" x1="192" x2="192" y1="175.4648" y2="180.4648"/><line style="stroke:#333333;stroke-width:2.0;" x1="242" x2="242" y1="175.4648" y2="180.4648"/><line style="stroke:#333333;stroke-width:2.0;" x1="292" x2="292" y1="175.4648" y2="180.4648"/><line style="stroke:#333333;stroke-width:2.0;" x1="342" x2="342" y1="175.4648" y2="180.4648"/><line style="stroke:#333333;stroke-width:2.0;" x1="392" x2="392" y1="175.4648" y2="180.4648"/><line style="stroke:#333333;stroke-width:2.0;" x1="442" x2="442" y1="175.4648" y2="180.4648"/><line style="stroke:#333333;stroke-width:2.0;" x1="492" x2="492" y1="175.4648" y2="180.4648"/><line style="stroke:#333333;stroke-width:2.0;" x1="542" x2="542" y1="175.4648" y2="180.4648"/><line style="stroke:#333333;stroke-width:2.0;" x1="592" x2="592" y1="175.4648" y2="180.4648"/><line style="stroke:#333333;stroke-width:2.0;" x1="92" x2="592" y1="175.4648" y2="175.4648"/><text fill="#333333" font-family="sans-serif" font-size="11" lengthAdjust="spacing" textLength="7" x="88.5" y="192.0996">0</text><text fill="#333333" font-family="sans-serif" font-size="11" lengthAdjust="spacing" textLength="21" x="131.5" y="192.0996">100</text><text fill="#333333" font-family="sans-serif" font-size="11" lengthAdjust="spacing" textLength="21" x="181.5" y="192.0996">200</text><text fill="#333333" font-family="sans-serif" font-size="11" lengthAdjust="spacing" textLength="21" x="231.5" y="192.0996">300</text><text fill="#333333" font-family="sans-serif" font-size="11" lengthAdjust="spacing" textLength="21" x="281.5" y="192.0996">400</text><text fill="#333333" font-family="sans-serif" font-size="11" lengthAdjust="spacing" textLength="21" x="331.5" y="192.0996">500</text><text fill="#333333" font-family="sans-serif" font-size="11" lengthAdjust="spacing" textLength="21" x="431.5" y="192.0996">700</text><text fill="#333333" font-family="sans-serif" font-size="11" lengthAdjust="spacing" textLength="21" x="481.5" y="192.0996">800</text><text fill="#333333" font-family="sans-serif" font-size="11" lengthAdjust="spacing" textLength="21" x="531.5" y="192.0996">900</text><!--SRC=[TOux3i8m341tdyBA2S9FmEQaZ4oHE42RPeXKOgakzoUa5Acf6Ftq_EoHkvTCgCmGVL3O2XeOlynoLuW5pyb72QWSyxCm1q0Q74R1HnguxKCFvZFTecGx1JzbOZS4QAVrR3O_M3BtEGAqpu9T2q27PQkg7HUvuYTTVmTqteRNboz_OjSwzWO0]--></g></svg>