<?xml version="1.0" encoding="us-ascii" standalone="no"?><svg xmlns="http://www.w3.org/2000/svg" xmlns:xlink="http://www.w3.org/1999/xlink" contentStyleType="text/css" height="204px" preserveAspectRatio="none" style="width:643px;height:204px;background:#FFFFFF;" version="1.1" viewBox="0 0 643 204" width="643px" zoomAndPan="magnify"><defs/><g><line style="stroke:#333333;stroke-width:0.5;" x1="10" x2="10" y1="10" y2="174.8906"/><line style="stroke:#333333;stroke-width:0.5;" x1="606" x2="606" y1="10" y2="174.8906"/><line style="stroke:#333333;stroke-width:0.5;stroke-dasharray:3.0,5.0;" x1="101" x2="101" y1="10" y2="174.8906"/><line style="stroke:#333333;stroke-width:0.5;stroke-dasharray:3.0,5.0;" x1="151" x2="151" y1="10" y2="174.8906"/><line style="stroke:#333333;stroke-width:0.5;stroke-dasharray:3.0,5.0;" x1="201" x2="201" y1="10" y2="174.8906"/><line style="stroke:#333333;stroke-width:0.5;stroke-dasharray:3.0,5.0;" x1="251" x2="251" y1="10" y2="174.8906"/><line style="stroke:#333333;stroke-width:0.5;stroke-dasharray:3.0,5.0;" x1="301" x2="301" y1="10" y2="174.8906"/><line style="stroke:#333333;stroke-width:0.5;stroke-dasharray:3.0,5.0;" x1="351" x2="351" y1="10" y2="174.8906"/><line style="stroke:#333333;stroke-width:0.5;stroke-dasharray:3.0,5.0;" x1="401" x2="401" y1="10" y2="174.8906"/><line style="stroke:#333333;stroke-width:0.5;stroke-dasharray:3.0,5.0;" x1="451" x2="451" y1="10" y2="174.8906"/><line style="stroke:#333333;stroke-width:0.5;stroke-dasharray:3.0,5.0;" x1="501" x2="501" y1="10" y2="174.8906"/><line style="stroke:#333333;stroke-width:0.5;stroke-dasharray:3.0,5.0;" x1="551" x2="551" y1="10" y2="174.8906"/><line style="stroke:#333333;stroke-width:0.5;stroke-dasharray:3.0,5.0;" x1="601" x2="601" y1="10" y2="174.8906"/><line style="stroke:#333333;stroke-width:0.5;" x1="10" x2="606" y1="10" y2="10"/><text fill="#333333" font-family="sans-serif" font-size="14" font-weight="bold" lengthAdjust="spacing" textLength="38" x="15" y="22.9951">Alice</text><line style="stroke:#333333;stroke-width:0.5;" x1="10" x2="54" y1="27.2969" y2="27.2969"/><line style="stroke:#333333;stroke-width:0.5;" x1="54" x2="64" y1="27.2969" y2="10"/><text fill="#333333" font-family="sans-serif" font-size="12" lengthAdjust="spacing" textLength="86" x="15" y="57.4512">Disconnected</text><text fill="#333333" font-family="sans-serif" font-size="12" lengthAdjust="spacing" textLength="68" x="15" y="37.4512">Connected</text><line style="stroke:#006400;stroke-width:2.0;" x1="101" x2="151" y1="52.2969" y2="52.2969"/><line style="stroke:#006400;stroke-width:2.0;" x1="151" x2="251" y1="32.2969" y2="32.2969"/><line style="stroke:#006400;stroke-width:2.0;" x1="251" x2="601" y1="52.2969" y2="52.2969"/><line style="stroke:#006400;stroke-width:2.0;" x1="151" x2="151" y1="32.2969" y2="52.2969"/><line style="stroke:#006400;stroke-width:2.0;" x1="251" x2="251" y1="32.2969" y2="52.2969"/><line style="stroke:#333333;stroke-width:0.5;" x1="10" x2="606" y1="64.2969" y2="64.2969"/><text fill="#333333" font-family="sans-serif" font-size="14" font-weight="bold" lengthAdjust="spacing" textLength="30" x="15" y="77.292">Bob</text><line style="stroke:#333333;stroke-width:0.5;" x1="10" x2="46" y1="81.5938" y2="81.5938"/><line style="stroke:#333333;stroke-width:0.5;" x1="46" x2="56" y1="81.5938" y2="64.2969"/><text fill="#333333" font-family="sans-serif" font-size="12" lengthAdjust="spacing" textLength="86" x="15" y="111.748">Disconnected</text><text fill="#333333" font-family="sans-serif" font-size="12" lengthAdjust="spacing" textLength="68" x="15" y="91.748">Connected</text><line style="stroke:#006400;stroke-width:2.0;" x1="101" x2="201" y1="106.5938" y2="106.5938"/><line style="stroke:#006400;stroke-width:2.0;" x1="201" x2="301" y1="86.5938" y2="86.5938"/><line style="stroke:#006400;stroke-width:2.0;" x1="301" x2="451" y1="106.5938" y2="106.5938"/><line style="stroke:#006400;stroke-width:2.0;" x1="451" x2="501" y1="86.5938" y2="86.5938"/><line style="stroke:#006400;stroke-width:2.0;" x1="501" x2="601" y1="106.5938" y2="106.5938"/><line style="stroke:#006400;stroke-width:2.0;" x1="201" x2="201" y1="86.5938" y2="106.5938"/><line style="stroke:#006400;stroke-width:2.0;" x1="301" x2="301" y1="86.5938" y2="106.5938"/><line style="stroke:#006400;stroke-width:2.0;" x1="451" x2="451" y1="86.5938" y2="106.5938"/><line style="stroke:#006400;stroke-width:2.0;" x1="501" x2="501" y1="86.5938" y2="106.5938"/><line style="stroke:#333333;stroke-width:0.5;" x1="10" x2="606" y1="118.5938" y2="118.5938"/><text fill="#333333" font-family="sans-serif" font-size="14" font-weight="bold" lengthAdjust="spacing" textLength="44" x="15" y="131.5889">Room</text><line style="stroke:#333333;stroke-width:0.5;" x1="10" x2="60" y1="135.8906" y2="135.8906"/><line style="stroke:#333333;stroke-width:0.5;" x1="60" x2="70" y1="135.8906" y2="118.5938"/><polygon fill="#E2E2F0" points="113,140.8906,139,140.8906,151,152.8906,139,164.8906,113,164.8906,101,152.8906" style="stroke:#006400;stroke-width:1.5;"/><polygon fill="#E2E2F0" points="163,140.8906,339,140.8906,351,152.8906,339,164.8906,163,164.8906,151,152.8906" style="stroke:#006400;stroke-width:1.5;"/><polygon fill="#E2E2F0" points="363,140.8906,439,140.8906,451,152.8906,439,164.8906,363,164.8906,351,152.8906" style="stroke:#006400;stroke-width:1.5;"/><polygon fill="#E2E2F0" points="463,140.8906,539,140.8906,551,152.8906,539,164.8906,463,164.8906,451,152.8906" style="stroke:#006400;stroke-width:1.5;"/><polygon fill="#E2E2F0" points="563,140.8906,601,140.8906,601,164.8906,563,164.8906,551,152.8906" style="stroke:#E2E2F0;stroke-width:1.5;"/><path d="M601,140.8906 L563,140.8906 L551,152.8906 L563,164.8906 L601,164.8906 " fill="#E2E2F0" style="stroke:#006400;stroke-width:1.5;"/><text fill="#333333" font-family="sans-serif" font-size="12" font-weight="bold" lengthAdjust="spacing" textLength="68" x="92" y="157.0449">Unloaded</text><text fill="#333333" font-family="sans-serif" font-size="12" font-weight="bold" lengthAdjust="spacing" textLength="53" x="224.5" y="157.0449">Loaded</text><text fill="#333333" font-family="sans-serif" font-size="12" font-weight="bold" lengthAdjust="spacing" textLength="68" x="367" y="157.0449">Unloaded</text><text fill="#333333" font-family="sans-serif" font-size="12" font-weight="bold" lengthAdjust="spacing" textLength="53" x="474.5" y="157.0449">Loaded</text><text fill="#333333" font-family="sans-serif" font-size="12" font-weight="bold" lengthAdjust="spacing" textLength="68" x="563" y="157.0449">Unloaded</text><line style="stroke:#333333;stroke-width:2.0;" x1="101" x2="101" y1="174.8906" y2="179.8906"/><line style="stroke:#333333;stroke-width:2.0;" x1="151" x2="151" y1="174.8906" y2="179.8906"/><line style="stroke:#333333;stroke-width:2.0;" x1="201" x2="201" y1="174.8906" y2="179.8906"/><line style="stroke:#333333;stroke-width:2.0;" x1="251" x2="251" y1="174.8906" y2="179.8906"/><line style="stroke:#333333;stroke-width:2.0;" x1="301" x2="301" y1="174.8906" y2="179.8906"/><line style="stroke:#333333;stroke-width:2.0;" x1="351" x2="351" y1="174.8906" y2="179.8906"/><line style="stroke:#333333;stroke-width:2.0;" x1="401" x2="401" y1="174.8906" y2="179.8906"/><line style="stroke:#333333;stroke-width:2.0;" x1="451" x2="451" y1="174.8906" y2="179.8906"/><line style="stroke:#333333;stroke-width:2.0;" x1="501" x2="501" y1="174.8906" y2="179.8906"/><line style="stroke:#333333;stroke-width:2.0;" x1="551" x2="551" y1="174.8906" y2="179.8906"/><line style="stroke:#333333;stroke-width:2.0;" x1="601" x2="601" y1="174.8906" y2="179.8906"/><line style="stroke:#333333;stroke-width:2.0;" x1="101" x2="601" y1="174.8906" y2="174.8906"/><text fill="#333333" font-family="sans-serif" font-size="11" lengthAdjust="spacing" textLength="7" x="97.5" y="191.1011">0</text><text fill="#333333" font-family="sans-serif" font-size="11" lengthAdjust="spacing" textLength="21" x="140.5" y="191.1011">100</text><text fill="#333333" font-family="sans-serif" font-size="11" lengthAdjust="spacing" textLength="21" x="190.5" y="191.1011">200</text><text fill="#333333" font-family="sans-serif" font-size="11" lengthAdjust="spacing" textLength="21" x="240.5" y="191.1011">300</text><text fill="#333333" font-family="sans-serif" font-size="11" lengthAdjust="spacing" textLength="21" x="290.5" y="191.1011">400</text><text fill="#333333" font-family="sans-serif" font-size="11" lengthAdjust="spacing" textLength="21" x="340.5" y="191.1011">500</text><text fill="#333333" font-family="sans-serif" font-size="11" lengthAdjust="spacing" textLength="21" x="440.5" y="191.1011">700</text><text fill="#333333" font-family="sans-serif" font-size="11" lengthAdjust="spacing" textLength="21" x="490.5" y="191.1011">800</text><text fill="#333333" font-family="sans-serif" font-size="11" lengthAdjust="spacing" textLength="21" x="540.5" y="191.1011">900</text><!--SRC=[TOux3i8m341tdyBA2S9FmEQaZ4oHE42RPeXKOgakzoUa5Acf6Ftq_EoHkvTCgCmGVL3O2XeOlynoLuW5pyb72QWSyxCm1q0Q74R1HnguxKCFvZFTecGx1JzbOZS4QAVrR3O_M3BtEGAqpu9T2q27PQkg7HUvuYTTVmTqteRNboz_OjSwzWO0]--></g></svg>