<?xml version="1.0" encoding="us-ascii" standalone="no"?><svg xmlns="http://www.w3.org/2000/svg" xmlns:xlink="http://www.w3.org/1999/xlink" contentStyleType="text/css" height="173px" preserveAspectRatio="none" style="width:519px;height:173px;background:#FFFFFF;" version="1.1" viewBox="0 0 519 173" width="519px" zoomAndPan="magnify"><defs/><g><!--cluster OTT--><g id="cluster_OTT"><rect fill="none" height="160" rx="2.5" ry="2.5" style="stroke:#181818;stroke-width:1.0;" width="212" x="301" y="7"/><text fill="#000000" font-family="sans-serif" font-size="14" font-weight="bold" lengthAdjust="spacing" textLength="34" x="390" y="21.9951">OTT</text></g><g id="elem_UC1"><ellipse cx="406.8142" cy="134.7628" fill="#F1F1F1" rx="66.8142" ry="15.7628" style="stroke:#181818;stroke-width:0.5;"/><text fill="#000000" font-family="sans-serif" font-size="14" lengthAdjust="spacing" textLength="84" x="361.8142" y="138.5104">Deploy OTT</text></g><g id="elem_UC2"><ellipse cx="407.1144" cy="62.9229" fill="#F1F1F1" rx="90.1144" ry="20.4229" style="stroke:#181818;stroke-width:0.5;"/><text fill="#000000" font-family="sans-serif" font-size="14" lengthAdjust="spacing" textLength="142" x="336.1144" y="65.7696">Use OTT as end user</text></g><!--entity hoster--><g id="elem_hoster"><ellipse cx="47" cy="77.5" fill="#F1F1F1" rx="8" ry="8" style="stroke:#181818;stroke-width:0.5;"/><path d="M47,85.5 L47,112.5 M34,93.5 L60,93.5 M47,112.5 L34,127.5 M47,112.5 L60,127.5 " fill="none" style="stroke:#181818;stroke-width:0.5;"/><text fill="#000000" font-family="sans-serif" font-size="14" lengthAdjust="spacing" textLength="82" x="6" y="141.9951">Self-Hoster</text></g><!--entity user--><g id="elem_user"><ellipse cx="238.5" cy="23.5" fill="#F1F1F1" rx="8" ry="8" style="stroke:#181818;stroke-width:0.5;"/><path d="M238.5,31.5 L238.5,58.5 M225.5,39.5 L251.5,39.5 M238.5,58.5 L225.5,73.5 M238.5,58.5 L251.5,73.5 " fill="none" style="stroke:#181818;stroke-width:0.5;"/><text fill="#000000" font-family="sans-serif" font-size="14" lengthAdjust="spacing" textLength="31" x="223" y="87.9951">User</text></g><!--link hoster to UC1--><g id="link_hoster_UC1"><path d="M88.0251,110.1305 C149.97,114.9753 263.5913,123.862 337.1523,129.6153 " fill="none" id="hoster-to-UC1" style="stroke:#181818;stroke-width:1.0;"/><polygon fill="#181818" points="343.134,130.0831,334.4733,125.3935,338.1492,129.6932,333.8495,133.3692,343.134,130.0831" style="stroke:#181818;stroke-width:1.0;"/></g><!--link hoster to user--><g id="link_hoster_user"><path d="M88.1881,95.548 C130.342,83.5357 177.0422,70.228 205.5752,62.097 " fill="none" id="hoster-to-user" style="stroke:#181818;stroke-width:1.0;"/><polygon fill="none" points="222.886,57.164,203.9308,56.3268,207.2195,67.8673,222.886,57.164" style="stroke:#181818;stroke-width:1.0;"/><text fill="#000000" font-family="sans-serif" font-size="13" lengthAdjust="spacing" textLength="73" x="119" y="63.0669">can also be</text></g><!--link user to UC2--><g id="link_user_UC2"><path d="M254.276,53.887 C269.477,54.8 288.4618,55.9403 313.8018,57.4623 " fill="none" id="user-to-UC2" style="stroke:#181818;stroke-width:1.0;"/><polygon fill="#181818" points="319.791,57.822,311.047,53.2896,314.8,57.5222,310.5674,61.2752,319.791,57.822" style="stroke:#181818;stroke-width:1.0;"/></g><!--SRC=[JOqx3i8m44HxdsBatWKfAT90GKT1SW3ZR19BbetifK30tOat0T7Dllbie9712TbFCsFmcHpx59Lrd3BqXS9eJgamPGrRC8lykdtPy7qHgbPjd0BXt7LuAbJiR27e8zr2UbGkyVwm-tUN6Qai3iL1nhPOezvgVGbZMkdzpbShIUpXR8GD9U5AIj2QRJu0]--></g></svg>