<?xml version="1.0" encoding="us-ascii" standalone="no"?><svg xmlns="http://www.w3.org/2000/svg" xmlns:xlink="http://www.w3.org/1999/xlink" contentStyleType="text/css" height="262px" preserveAspectRatio="none" style="width:1165px;height:262px;background:#FFFFFF;" version="1.1" viewBox="0 0 1165 262" width="1165px" zoomAndPan="magnify"><defs/><g><!--entity visitor--><g id="elem_visitor"><ellipse cx="245.5" cy="69.5" fill="#F1F1F1" rx="8" ry="8" style="stroke:#181818;stroke-width:0.5;"/><path d="M245.5,77.5 L245.5,104.5 M232.5,85.5 L258.5,85.5 M245.5,104.5 L232.5,119.5 M245.5,104.5 L258.5,119.5 " fill="none" style="stroke:#181818;stroke-width:0.5;"/><text fill="#000000" font-family="sans-serif" font-size="14" lengthAdjust="spacing" textLength="135" x="178" y="133.9951">Expo Booth Visitor</text></g><!--entity Smartphone--><g id="elem_Smartphone"><rect fill="#F1F1F1" height="36.2969" rx="2.5" ry="2.5" style="stroke:#181818;stroke-width:0.5;" width="110" x="7" y="139"/><text fill="#000000" font-family="sans-serif" font-size="14" lengthAdjust="spacing" textLength="90" x="17" y="161.9951">Smartphone</text></g><!--entity Visualization--><g id="elem_Visualization"><rect fill="#F1F1F1" height="36.2969" rx="2.5" ry="2.5" style="stroke:#181818;stroke-width:0.5;" width="110" x="487" y="81"/><text fill="#000000" font-family="sans-serif" font-size="14" lengthAdjust="spacing" textLength="90" x="497" y="103.9951">Visualization</text></g><!--entity Balancer--><g id="elem_Balancer"><rect fill="#F1F1F1" height="36.2969" rx="2.5" ry="2.5" style="stroke:#181818;stroke-width:0.5;" width="82" x="804" y="114"/><text fill="#000000" font-family="sans-serif" font-size="14" lengthAdjust="spacing" textLength="62" x="814" y="136.9951">Balancer</text></g><!--entity M1--><g id="elem_M1"><rect fill="#F1F1F1" height="36.2969" rx="2.5" ry="2.5" style="stroke:#181818;stroke-width:0.5;" width="96" x="1063" y="7"/><text fill="#000000" font-family="sans-serif" font-size="14" lengthAdjust="spacing" textLength="76" x="1073" y="29.9951">Monolith 1</text></g><!--entity M2--><g id="elem_M2"><rect fill="#F1F1F1" height="36.2969" rx="2.5" ry="2.5" style="stroke:#181818;stroke-width:0.5;" width="95" x="1063.5" y="78"/><text fill="#000000" font-family="sans-serif" font-size="14" lengthAdjust="spacing" textLength="75" x="1073.5" y="100.9951">Monolith 2</text></g><!--entity M3--><g id="elem_M3"><rect fill="#F1F1F1" height="36.2969" rx="2.5" ry="2.5" style="stroke:#181818;stroke-width:0.5;" width="96" x="1063" y="149"/><text fill="#000000" font-family="sans-serif" font-size="14" lengthAdjust="spacing" textLength="76" x="1073" y="171.9951">Monolith 3</text></g><!--entity MN--><g id="elem_MN"><rect fill="#F1F1F1" height="36.2969" rx="2.5" ry="2.5" style="stroke:#181818;stroke-width:0.5;" width="96" x="1063" y="220"/><text fill="#000000" font-family="sans-serif" font-size="14" lengthAdjust="spacing" textLength="76" x="1073" y="242.9951">Monolith n</text></g><!--link Smartphone to visitor--><g id="link_Smartphone_visitor"><path d="M117.456,139.598 C136.46,133.525 140.8602,132.1192 160.7402,125.7662 " fill="none" id="Smartphone-to-visitor" style="stroke:#181818;stroke-width:1.0;"/><polygon fill="none" points="177.886,120.287,158.9138,120.051,162.5666,131.4815,177.886,120.287" style="stroke:#181818;stroke-width:1.0;"/></g><!--link Smartphone to Balancer--><g id="link_Smartphone_Balancer"><path d="M117.4,162.2764 C237.023,172.6795 531.583,191.7208 774,154 C783.818,152.472 788.4123,151.5812 798.0353,148.6502 " fill="none" id="Smartphone-to-Balancer" style="stroke:#181818;stroke-width:1.0;stroke-dasharray:7.0,7.0;"/><polygon fill="#181818" points="803.775,146.902,794,145.6979,798.9919,148.3588,796.331,153.3508,803.775,146.902" style="stroke:#181818;stroke-width:1.0;"/><text fill="#000000" font-family="sans-serif" font-size="13" lengthAdjust="spacing" textLength="112" x="344" y="171.0669">connects through</text></g><!--link visitor to Visualization--><g id="link_visitor_Visualization"><path d="M313.327,99 C365.766,99 431.835,99 480.74,99 " fill="none" id="visitor-to-Visualization" style="stroke:#181818;stroke-width:1.0;"/><polygon fill="#181818" points="486.74,99,477.74,95,481.74,99,477.74,103,486.74,99" style="stroke:#181818;stroke-width:1.0;"/><text fill="#000000" font-family="sans-serif" font-size="13" lengthAdjust="spacing" textLength="73" x="363.5" y="95.0669">walks up to</text></g><!--link Visualization to Balancer--><g id="link_Visualization_Balancer"><path d="M597.46,99.673 C644.473,100.936 714.074,104.436 774,114 C783.789,115.562 788.385,116.4085 798.105,118.8585 " fill="none" id="Visualization-to-Balancer" style="stroke:#181818;stroke-width:1.0;"/><polygon fill="#181818" points="803.923,120.325,796.1736,114.2466,799.0746,119.1029,794.2183,122.004,803.923,120.325" style="stroke:#181818;stroke-width:1.0;"/><text fill="#000000" font-family="sans-serif" font-size="13" lengthAdjust="spacing" textLength="145" x="628" y="97.0669">add/remove monoliths</text></g><!--link Balancer to Visualization--><g id="link_Balancer_Visualization"><path d="M803.831,139.281 C759.835,145.878 687.481,152.665 627,139 C607.936,134.693 593.3995,128.3865 577.8085,119.9115 " fill="none" id="Balancer-to-Visualization" style="stroke:#181818;stroke-width:1.0;stroke-dasharray:7.0,7.0;"/><polygon fill="#181818" points="572.537,117.046,578.5339,124.8586,576.9299,119.4339,582.3546,117.8299,572.537,117.046" style="stroke:#181818;stroke-width:1.0;"/><text fill="#000000" font-family="sans-serif" font-size="13" lengthAdjust="spacing" textLength="95" x="653" y="135.0669">deliver metrics</text></g><!--link Balancer to M1--><g id="link_Balancer_M1"><path d="M869.26,113.869 C882.413,104.277 899.489,92.887 916,85 C963.877,62.131 1016.6839,46.8479 1056.8839,36.9539 " fill="none" id="Balancer-to-M1" style="stroke:#181818;stroke-width:1.0;"/><polygon fill="#181818" points="1062.71,35.52,1053.0148,33.7868,1057.8549,36.7149,1054.9267,41.555,1062.71,35.52" style="stroke:#181818;stroke-width:1.0;"/></g><!--link Balancer to M2--><g id="link_Balancer_M2"><path d="M886.243,123.347 C895.958,121.425 906.327,119.513 916,118 C966.066,110.169 1017.8476,104.5561 1057.2276,100.7641 " fill="none" id="Balancer-to-M2" style="stroke:#181818;stroke-width:1.0;"/><polygon fill="#181818" points="1063.2,100.189,1053.858,97.0701,1058.223,100.6682,1054.6248,105.0332,1063.2,100.189" style="stroke:#181818;stroke-width:1.0;"/></g><!--link Balancer to M3--><g id="link_Balancer_M3"><path d="M886.096,137.316 C933.552,143.607 1006.522,153.2814 1056.872,159.9569 " fill="none" id="Balancer-to-M3" style="stroke:#181818;stroke-width:1.0;"/><polygon fill="#181818" points="1062.82,160.7455,1054.4238,155.5973,1057.8634,160.0883,1053.3723,163.5279,1062.82,160.7455" style="stroke:#181818;stroke-width:1.0;"/><text fill="#000000" font-family="sans-serif" font-size="13" lengthAdjust="spacing" textLength="115" x="917" y="137.0669">routes user traffic</text></g><!--link Balancer to MN--><g id="link_Balancer_MN"><path d="M884.315,150.053 C894.551,154.729 905.647,159.6643 916,164 C965.542,184.7474 1017.497,204.3455 1056.987,218.831 " fill="none" id="Balancer-to-MN" style="stroke:#181818;stroke-width:1.0;"/><polygon fill="#181818" points="1062.62,220.8973,1055.548,214.0426,1057.9258,219.1754,1052.793,221.5532,1062.62,220.8973" style="stroke:#181818;stroke-width:1.0;"/></g><!--SRC=[RP0nRuCm48Lt_ueJUr85jWuCaJecIwJk9sF0gl4X-w1Hr1_V8qJ483RxVU_UFTkPce49WcrQXie6ezcILwYP0cHVzvxWJCGjVDjeHSi08uppMKrkz8qpSEimSD-IDuae8mCw-y1dv5i_eqElJJgVNSYJixBdzDnmEUt2V8RvBYncMEn2FyEhUZU5m-6lNDwIwCTZkNI4Jz3alIH6u3RGqBJgDIBpvVgDOlv5znDXwELJrPfDxYGLg-eZc8v60zshP5GBdofieolZx2YiCnoiJinJidpO-fvlxeKaI7qsqYwAo07hskgDw_eF]--></g></svg>