<?xml version="1.0" encoding="us-ascii" standalone="no"?><svg xmlns="http://www.w3.org/2000/svg" xmlns:xlink="http://www.w3.org/1999/xlink" contentStyleType="text/css" height="116px" preserveAspectRatio="none" style="width:607px;height:116px;background:#FFFFFF;" version="1.1" viewBox="0 0 607 116" width="607px" zoomAndPan="magnify"><defs/><g><!--cluster OTT--><g id="cluster_OTT"><rect fill="none" height="103" rx="2.5" ry="2.5" style="stroke:#181818;stroke-width:1.0;" width="516" x="85" y="7"/><text fill="#000000" font-family="sans-serif" font-size="14" font-weight="bold" lengthAdjust="spacing" textLength="32" x="327" y="21.9951">OTT</text></g><g id="elem_UC1"><ellipse cx="215.2303" cy="67.2461" fill="#F1F1F1" rx="114.2303" ry="25.2461" style="stroke:#181818;stroke-width:0.5;"/><text fill="#000000" font-family="sans-serif" font-size="14" lengthAdjust="spacing" textLength="195" x="117.7303" y="70.0927">Deploy Self-Hosted Instance</text></g><g id="elem_UC1.1"><ellipse cx="513.8049" cy="59.061" fill="#F1F1F1" rx="70.8049" ry="16.561" style="stroke:#181818;stroke-width:0.5;"/><text fill="#000000" font-family="sans-serif" font-size="14" lengthAdjust="spacing" textLength="95" x="463.3049" y="62.8085">Utilize Docker</text></g><!--entity user--><g id="elem_user"><ellipse cx="22" cy="37.5" fill="#F1F1F1" rx="8" ry="8" style="stroke:#181818;stroke-width:0.5;"/><path d="M22,45.5 L22,72.5 M9,53.5 L35,53.5 M22,72.5 L9,87.5 M22,72.5 L35,87.5 " fill="none" style="stroke:#181818;stroke-width:0.5;"/><text fill="#000000" font-family="sans-serif" font-size="14" lengthAdjust="spacing" textLength="32" x="6" y="101.9951">User</text></g><!--link user to UC1--><g id="link_user_UC1"><path d="M38.31,67 C51.8,67 72.84,67 95.73,67 " fill="none" id="user-to-UC1" style="stroke:#181818;stroke-width:1.0;"/><polygon fill="#181818" points="100.96,67,91.96,63,95.96,67,91.96,71,100.96,67" style="stroke:#181818;stroke-width:1.0;"/></g><!--link UC1 to UC1.1--><g id="link_UC1_UC1.1"><path d="M328.28,63.98 C364.93,62.99 404.7,61.92 437.93,61.02 " fill="none" id="UC1-to-UC1.1" style="stroke:#181818;stroke-width:1.0;stroke-dasharray:7.0,7.0;"/><polygon fill="#181818" points="443.2,60.88,434.0891,57.1394,438.2021,61.0232,434.3183,65.1361,443.2,60.88" style="stroke:#181818;stroke-width:1.0;"/><text fill="#000000" font-family="sans-serif" font-size="13" lengthAdjust="spacing" textLength="52" x="360" y="58.0669">includes</text></g><!--SRC=[JOsn3i8m34JtVCMfpAtKbO653Z0nq7v0bBYjHPIWs1q0yU-a5KWC9vtExto1HeKcP9vcXUTCJZb5OvscZ6eGoXMiO2d6h4SRfq2uz3rU1clih12gZkuXFN2bCDQd94eUvoY5ThJrXsFxZm_AWP-4BhdRTw4GJMlUPbr2NH-sIj7FDorsWICrtifStk_1qON5atm0]--></g></svg>