<?xml version="1.0" encoding="us-ascii" standalone="no"?><svg xmlns="http://www.w3.org/2000/svg" xmlns:xlink="http://www.w3.org/1999/xlink" contentStyleType="text/css" height="207px" preserveAspectRatio="none" style="width:889px;height:207px;background:#FFFFFF;" version="1.1" viewBox="0 0 889 207" width="889px" zoomAndPan="magnify"><defs/><g><!--cluster OTT--><g id="cluster_OTT"><rect fill="none" height="194" rx="2.5" ry="2.5" style="stroke:#181818;stroke-width:1.0;" width="582" x="301" y="7"/><text fill="#000000" font-family="sans-serif" font-size="14" font-weight="bold" lengthAdjust="spacing" textLength="34" x="575" y="21.9951">OTT</text></g><g id="elem_UC1"><ellipse cx="408.8872" cy="149.7774" fill="#F1F1F1" rx="91.8872" ry="20.7774" style="stroke:#181818;stroke-width:0.5;"/><text fill="#000000" font-family="sans-serif" font-size="14" lengthAdjust="spacing" textLength="146" x="335.8872" y="152.6241">Has Docker Installed</text></g><g id="elem_UC1.1"><ellipse cx="740.9468" cy="157.0894" fill="#F1F1F1" rx="125.9468" ry="27.5894" style="stroke:#181818;stroke-width:0.5;"/><text fill="#000000" font-family="sans-serif" font-size="14" lengthAdjust="spacing" textLength="220" x="630.9468" y="159.936">Has Docker-Compose Installed</text></g><g id="elem_UC1.2"><ellipse cx="740.8973" cy="68.1795" fill="#F1F1F1" rx="118.8973" ry="26.1795" style="stroke:#181818;stroke-width:0.5;"/><text fill="#000000" font-family="sans-serif" font-size="14" lengthAdjust="spacing" textLength="205" x="638.3973" y="71.0261">Deploy Self-Hosted Instance</text></g><g id="elem_UC2"><ellipse cx="409.1144" cy="62.9229" fill="#F1F1F1" rx="90.1144" ry="20.4229" style="stroke:#181818;stroke-width:0.5;"/><text fill="#000000" font-family="sans-serif" font-size="14" lengthAdjust="spacing" textLength="142" x="338.1144" y="65.7696">Use OTT as end user</text></g><!--entity hoster--><g id="elem_hoster"><ellipse cx="47" cy="85.5" fill="#F1F1F1" rx="8" ry="8" style="stroke:#181818;stroke-width:0.5;"/><path d="M47,93.5 L47,120.5 M34,101.5 L60,101.5 M47,120.5 L34,135.5 M47,120.5 L60,135.5 " fill="none" style="stroke:#181818;stroke-width:0.5;"/><text fill="#000000" font-family="sans-serif" font-size="14" lengthAdjust="spacing" textLength="82" x="6" y="149.9951">Self-Hoster</text></g><!--entity user--><g id="elem_user"><ellipse cx="238.5" cy="31.5" fill="#F1F1F1" rx="8" ry="8" style="stroke:#181818;stroke-width:0.5;"/><path d="M238.5,39.5 L238.5,66.5 M225.5,47.5 L251.5,47.5 M238.5,66.5 L225.5,81.5 M238.5,66.5 L251.5,81.5 " fill="none" style="stroke:#181818;stroke-width:0.5;"/><text fill="#000000" font-family="sans-serif" font-size="14" lengthAdjust="spacing" textLength="31" x="223" y="95.9951">User</text></g><!--link hoster to UC1--><g id="link_hoster_UC1"><path d="M88.2487,118.9131 C145.035,124.434 244.0362,134.0591 318.1892,141.2684 " fill="none" id="hoster-to-UC1" style="stroke:#181818;stroke-width:1.0;"/><polygon fill="#181818" points="324.161,141.849,315.5903,136.9969,319.1845,141.3652,314.8162,144.9593,324.161,141.849" style="stroke:#181818;stroke-width:1.0;"/></g><!--link UC1 to UC1.1--><g id="link_UC1_UC1.1"><path d="M501.048,151.9313 C536.341,152.68 571.3283,153.4222 609.2843,154.2273 " fill="none" id="UC1-to-UC1.1" style="stroke:#181818;stroke-width:1.0;stroke-dasharray:7.0,7.0;"/><polygon fill="#181818" points="615.283,154.3545,606.3699,150.1645,610.2841,154.2485,606.2002,158.1627,615.283,154.3545" style="stroke:#181818;stroke-width:1.0;"/><text fill="#000000" font-family="sans-serif" font-size="13" lengthAdjust="spacing" textLength="52" x="532" y="148.0669">includes</text></g><!--link UC1 to UC1.2--><g id="link_UC1_UC1.2"><path d="M472.07,134.5764 C525.748,121.2383 597.8011,103.3339 655.7741,88.9289 " fill="none" id="UC1-to-UC1.2" style="stroke:#181818;stroke-width:1.0;"/><polygon fill="#181818" points="661.597,87.482,651.898,85.7703,656.7446,88.6877,653.8272,93.5343,661.597,87.482" style="stroke:#181818;stroke-width:1.0;"/></g><!--link hoster to user--><g id="link_hoster_user"><path d="M88.1881,103.548 C130.342,91.536 188.5827,74.9393 217.1157,66.8083 " fill="none" id="hoster-to-user" style="stroke:#181818;stroke-width:1.0;stroke-dasharray:7.0,7.0;"/><polygon fill="#181818" points="222.886,65.164,213.1343,63.7837,218.0774,66.5343,215.3268,71.4774,222.886,65.164" style="stroke:#181818;stroke-width:1.0;"/><text fill="#000000" font-family="sans-serif" font-size="13" lengthAdjust="spacing" textLength="73" x="119" y="71.0669">can also be</text></g><!--link user to UC2--><g id="link_user_UC2"><path d="M254.159,61.174 C269.131,61.352 287.6894,61.5717 312.8324,61.8707 " fill="none" id="user-to-UC2" style="stroke:#181818;stroke-width:1.0;"/><polygon fill="#181818" points="318.832,61.942,309.8802,57.8353,313.8324,61.8825,309.7851,65.8347,318.832,61.942" style="stroke:#181818;stroke-width:1.0;"/></g><!--SRC=[RO-zZi8m48HxFyKer8b4IWeQABYA0dW0Oo_4kiMBR5CWnBlZEFpV5PP6E_FjZfbs2KaGtBvBi2wGIKwyqYP9GBKYtjKBYOb21HtH5VbmD_4-FcMXUbJxFHEMwpKk2ltOw4Ye5Zap5_DB0Jy-9irCje2RsVZ_N3sJmr7ox4- - -I3cT6GvuzNJ3eGtz0JQTo1tBlsoHzwMvlTWgwvg-1_gUbggvVVGpHWZTfuQgsENhqpWlE6JfVYHQjzNzCk_AQCzD4V1bbJn1xAz0G00]--></g></svg>