<?xml version="1.0" encoding="us-ascii" standalone="no"?><svg xmlns="http://www.w3.org/2000/svg" xmlns:xlink="http://www.w3.org/1999/xlink" contentStyleType="text/css" height="262px" preserveAspectRatio="none" style="width:1139px;height:262px;background:#FFFFFF;" version="1.1" viewBox="0 0 1139 262" width="1139px" zoomAndPan="magnify"><defs/><g><!--entity visitor--><g id="elem_visitor"><ellipse cx="235.5" cy="69.5" fill="#F1F1F1" rx="8" ry="8" style="stroke:#181818;stroke-width:0.5;"/><path d="M235.5,77.5 L235.5,104.5 M222.5,85.5 L248.5,85.5 M235.5,104.5 L222.5,119.5 M235.5,104.5 L248.5,119.5 " fill="none" style="stroke:#181818;stroke-width:0.5;"/><text fill="#000000" font-family="sans-serif" font-size="14" lengthAdjust="spacing" textLength="127" x="172" y="134.5352">Expo Booth Visitor</text></g><!--entity Smartphone--><g id="elem_Smartphone"><rect fill="#F1F1F1" height="36.4883" rx="2.5" ry="2.5" style="stroke:#181818;stroke-width:0.5;" width="104" x="7" y="152"/><text fill="#000000" font-family="sans-serif" font-size="14" lengthAdjust="spacing" textLength="84" x="17" y="175.5352">Smartphone</text></g><!--entity Visualization--><g id="elem_Visualization"><rect fill="#F1F1F1" height="36.4883" rx="2.5" ry="2.5" style="stroke:#181818;stroke-width:0.5;" width="108" x="472" y="81"/><text fill="#000000" font-family="sans-serif" font-size="14" lengthAdjust="spacing" textLength="88" x="482" y="104.5352">Visualization</text></g><!--entity Balancer--><g id="elem_Balancer"><rect fill="#F1F1F1" height="36.4883" rx="2.5" ry="2.5" style="stroke:#181818;stroke-width:0.5;" width="78" x="786" y="114"/><text fill="#000000" font-family="sans-serif" font-size="14" lengthAdjust="spacing" textLength="58" x="796" y="137.5352">Balancer</text></g><!--entity M1--><g id="elem_M1"><rect fill="#F1F1F1" height="36.4883" rx="2.5" ry="2.5" style="stroke:#181818;stroke-width:0.5;" width="94" x="1039" y="7"/><text fill="#000000" font-family="sans-serif" font-size="14" lengthAdjust="spacing" textLength="74" x="1049" y="30.5352">Monolith 1</text></g><!--entity M2--><g id="elem_M2"><rect fill="#F1F1F1" height="36.4883" rx="2.5" ry="2.5" style="stroke:#181818;stroke-width:0.5;" width="94" x="1039" y="78"/><text fill="#000000" font-family="sans-serif" font-size="14" lengthAdjust="spacing" textLength="74" x="1049" y="101.5352">Monolith 2</text></g><!--entity M3--><g id="elem_M3"><rect fill="#F1F1F1" height="36.4883" rx="2.5" ry="2.5" style="stroke:#181818;stroke-width:0.5;" width="94" x="1039" y="149"/><text fill="#000000" font-family="sans-serif" font-size="14" lengthAdjust="spacing" textLength="74" x="1049" y="172.5352">Monolith 3</text></g><!--entity MN--><g id="elem_MN"><rect fill="#F1F1F1" height="36.4883" rx="2.5" ry="2.5" style="stroke:#181818;stroke-width:0.5;" width="94" x="1039" y="220"/><text fill="#000000" font-family="sans-serif" font-size="14" lengthAdjust="spacing" textLength="74" x="1049" y="243.5352">Monolith n</text></g><!--link Smartphone to visitor--><g id="link_Smartphone_visitor"><path d="M105.85,151.59 C119.98,145.84 135.99,139.33 151.81,132.89 " fill="none" id="Smartphone-to-visitor" style="stroke:#181818;stroke-width:1.0;"/><polygon fill="none" points="149.01,126.47,170.17,125.42,154.29,139.44,149.01,126.47" style="stroke:#181818;stroke-width:1.0;"/></g><!--link Smartphone to Balancer--><g id="link_Smartphone_Balancer"><path d="M111.13,174.08 C226.93,181.69 517.67,194.65 756,154.25 C763.8,152.92 771.93,150.9 779.75,148.6 " fill="none" id="Smartphone-to-Balancer" style="stroke:#181818;stroke-width:1.0;stroke-dasharray:7.0,7.0;"/><polygon fill="#181818" points="784.2,147.23,774.4251,146.0249,779.4168,148.6864,776.7553,153.678,784.2,147.23" style="stroke:#181818;stroke-width:1.0;"/><text fill="#000000" font-family="sans-serif" font-size="13" lengthAdjust="spacing" textLength="111" x="330" y="177.8184">connects through</text></g><!--link visitor to Visualization--><g id="link_visitor_Visualization"><path d="M299.46,99.25 C348.8,99.25 417,99.25 465.45,99.25 " fill="none" id="visitor-to-Visualization" style="stroke:#181818;stroke-width:1.0;"/><polygon fill="#181818" points="470.34,99.25,461.34,95.25,465.34,99.25,461.34,103.25,470.34,99.25" style="stroke:#181818;stroke-width:1.0;"/><text fill="#000000" font-family="sans-serif" font-size="13" lengthAdjust="spacing" textLength="73" x="349" y="95.8184">walks up to</text></g><!--link Visualization to Balancer--><g id="link_Visualization_Balancer"><path d="M580.08,99.82 C626.71,101.02 696.23,104.47 756,114.25 C763.78,115.52 771.96,117.29 779.84,119.24 " fill="none" id="Visualization-to-Balancer" style="stroke:#181818;stroke-width:1.0;"/><polygon fill="#181818" points="784.33,120.38,776.5899,114.2897,779.4835,119.1505,774.6227,122.0441,784.33,120.38" style="stroke:#181818;stroke-width:1.0;"/><text fill="#000000" font-family="sans-serif" font-size="13" lengthAdjust="spacing" textLength="144" x="611" y="97.8184">add/remove monoliths</text></g><!--link Balancer to Visualization--><g id="link_Balancer_Visualization"><path d="M785.55,139.33 C742.28,145.96 670.16,152.99 610,139.25 C593.76,135.54 576.99,128.22 562.81,120.85 " fill="none" id="Balancer-to-Visualization" style="stroke:#181818;stroke-width:1.0;stroke-dasharray:7.0,7.0;"/><polygon fill="#181818" points="558.65,118.63,564.7245,126.3825,563.0665,120.974,568.4749,119.3161,558.65,118.63" style="stroke:#181818;stroke-width:1.0;"/><text fill="#000000" font-family="sans-serif" font-size="13" lengthAdjust="spacing" textLength="93" x="636.5" y="135.8184">deliver metrics</text></g><!--link Balancer to M1--><g id="link_Balancer_M1"><path d="M849.15,113.65 C861.82,104.15 878.14,93 894,85.25 C938.76,63.37 993.27,47.18 1032.59,37.17 " fill="none" id="Balancer-to-M1" style="stroke:#181818;stroke-width:1.0;"/><polygon fill="#181818" points="1037.29,35.99,1027.5874,34.299,1032.4401,37.206,1029.5331,42.0588,1037.29,35.99" style="stroke:#181818;stroke-width:1.0;"/></g><!--link Balancer to M2--><g id="link_Balancer_M2"><path d="M864.37,123.73 C874.01,121.76 884.36,119.79 894,118.25 C940.61,110.78 994.02,104.85 1032.49,101.03 " fill="none" id="Balancer-to-M2" style="stroke:#181818;stroke-width:1.0;"/><polygon fill="#181818" points="1037.02,100.59,1027.6649,97.5107,1032.0451,101.0903,1028.4655,105.4706,1037.02,100.59" style="stroke:#181818;stroke-width:1.0;"/></g><!--link Balancer to M3--><g id="link_Balancer_M3"><path d="M864.5,137.45 C909.09,143.47 982.8,153.43 1032.59,160.16 " fill="none" id="Balancer-to-M3" style="stroke:#181818;stroke-width:1.0;"/><polygon fill="#181818" points="1037.35,160.81,1028.9683,155.6382,1032.3952,160.1389,1027.8946,163.5658,1037.35,160.81" style="stroke:#181818;stroke-width:1.0;"/><text fill="#000000" font-family="sans-serif" font-size="13" lengthAdjust="spacing" textLength="113" x="895" y="137.8184">routes user traffic</text></g><!--link Balancer to MN--><g id="link_Balancer_MN"><path d="M864.27,150.83 C873.91,155.35 884.29,160.08 894,164.25 C940.39,184.12 994.04,204.7 1032.64,219.09 " fill="none" id="Balancer-to-MN" style="stroke:#181818;stroke-width:1.0;"/><polygon fill="#181818" points="1037.29,220.82,1030.2491,213.9334,1032.6037,219.0769,1027.4601,221.4315,1037.29,220.82" style="stroke:#181818;stroke-width:1.0;"/></g><!--SRC=[RP0nRuCm48Lt_ueJUr85jWuCaJecIwJk9sF0gl4X-w1Hr1_V8qJ483RxVU_UFTkPce49WcrQXie6ezcILwYP0cHVzvxWJCGjVDjeHSi08uppMKrkz8qpSEimSD-IDuae8mCw-y1dv5i_eqElJJgVNSYJixBdzDnmEUt2V8RvBYncMEn2FyEhUZU5m-6lNDwIwCTZkNI4Jz3alIH6u3RGqBJgDIBpvVgDOlv5znDXwELJrPfDxYGLg-eZc8v60zshP5GBdofieolZx2YiCnoiJinJidpO-fvlxeKaI7qsqYwAo07hskgDw_eF]--></g></svg>