<?xml version="1.0" encoding="us-ascii" standalone="no"?><svg xmlns="http://www.w3.org/2000/svg" xmlns:xlink="http://www.w3.org/1999/xlink" contentStyleType="text/css" height="199px" preserveAspectRatio="none" style="width:526px;height:199px;background:#FFFFFF;" version="1.1" viewBox="0 0 526 199" width="526px" zoomAndPan="magnify"><defs/><g><!--cluster OTT--><g id="cluster_OTT"><rect fill="none" height="186" rx="2.5" ry="2.5" style="stroke:#181818;stroke-width:1.0;" width="297" x="223" y="7"/><text fill="#000000" font-family="sans-serif" font-size="14" font-weight="bold" lengthAdjust="spacing" textLength="34" x="354.5" y="21.9951">OTT</text></g><g id="elem_UC1"><ellipse cx="371.5721" cy="147.9144" fill="#F1F1F1" rx="132.5721" ry="28.9144" style="stroke:#181818;stroke-width:0.5;"/><text fill="#000000" font-family="sans-serif" font-size="14" lengthAdjust="spacing" textLength="234" x="254.5721" y="150.7611">Deploy OTT via docker-compose</text></g><g id="elem_UC2"><ellipse cx="371.6144" cy="62.9229" fill="#F1F1F1" rx="90.1144" ry="20.4229" style="stroke:#181818;stroke-width:0.5;"/><text fill="#000000" font-family="sans-serif" font-size="14" lengthAdjust="spacing" textLength="142" x="300.6144" y="65.7696">Use OTT as end user</text></g><!--entity hoster--><g id="elem_hoster"><ellipse cx="47" cy="76.5" fill="#F1F1F1" rx="8" ry="8" style="stroke:#181818;stroke-width:0.5;"/><path d="M47,84.5 L47,111.5 M34,92.5 L60,92.5 M47,111.5 L34,126.5 M47,111.5 L60,126.5 " fill="none" style="stroke:#181818;stroke-width:0.5;"/><text fill="#000000" font-family="sans-serif" font-size="14" lengthAdjust="spacing" textLength="82" x="6" y="140.9951">Self-Hoster</text></g><!--entity user--><g id="elem_user"><ellipse cx="163.5" cy="30.5" fill="#F1F1F1" rx="8" ry="8" style="stroke:#181818;stroke-width:0.5;"/><path d="M163.5,38.5 L163.5,65.5 M150.5,46.5 L176.5,46.5 M163.5,65.5 L150.5,80.5 M163.5,65.5 L176.5,80.5 " fill="none" style="stroke:#181818;stroke-width:0.5;"/><text fill="#000000" font-family="sans-serif" font-size="14" lengthAdjust="spacing" textLength="31" x="148" y="94.9951">User</text></g><!--link hoster to UC1--><g id="link_hoster_UC1"><path d="M88.1928,111.2344 C130.321,116.7209 192.4792,124.816 251.2432,132.4689 " fill="none" id="hoster-to-UC1" style="stroke:#181818;stroke-width:1.0;"/><polygon fill="#181818" points="257.193,133.2437,248.7849,128.1149,252.2349,132.598,247.7518,136.0479,257.193,133.2437" style="stroke:#181818;stroke-width:1.0;"/></g><!--link hoster to user--><g id="link_hoster_user"><path d="M88.0465,89.911 C108.812,81.569 116.2045,78.5991 131.2265,72.5641 " fill="none" id="hoster-to-user" style="stroke:#181818;stroke-width:1.0;"/><polygon fill="none" points="147.929,65.854,128.9898,66.9966,133.4632,78.1316,147.929,65.854" style="stroke:#181818;stroke-width:1.0;"/></g><!--link user to UC2--><g id="link_user_UC2"><path d="M179.315,60.216 C200.856,60.529 236.5136,61.0487 275.4586,61.6157 " fill="none" id="user-to-UC2" style="stroke:#181818;stroke-width:1.0;"/><polygon fill="#181818" points="281.458,61.703,272.5172,57.5724,276.4585,61.6302,272.4007,65.5716,281.458,61.703" style="stroke:#181818;stroke-width:1.0;"/></g><!--SRC=[JKvB3i8W4DrpYWbx5lO0tUZ2dGlR0n2OjaHa6a0JezvTcA9nCtdpVdaUfmoP8BfvoM1TH9CT1Q5DfWZoZ7vIHqePemITO67uLSVKw5i1eaPrc3t2QHZWAQ3IHYS4US3LquFvkzDWoLmmAaFNbH9omxZV_GTACxkBWi5oVxDruYss5Q1KpxdV- -gt9VKqjVi0]--></g></svg>