<?xml version="1.0" encoding="us-ascii" standalone="no"?><svg xmlns="http://www.w3.org/2000/svg" xmlns:xlink="http://www.w3.org/1999/xlink" contentStyleType="text/css" height="236px" preserveAspectRatio="none" style="width:615px;height:236px;background:#FFFFFF;" version="1.1" viewBox="0 0 615 236" width="615px" zoomAndPan="magnify"><defs/><g><!--cluster OTT--><g id="cluster_OTT"><rect fill="none" height="223" rx="2.5" ry="2.5" style="stroke:#181818;stroke-width:1.0;" width="485" x="124" y="7"/><text fill="#000000" font-family="sans-serif" font-size="14" font-weight="bold" lengthAdjust="spacing" textLength="32" x="350.5" y="21.9951">OTT</text></g><g id="elem_UC1"><ellipse cx="227.24" cy="58.048" fill="#F1F1F1" rx="68.24" ry="16.048" style="stroke:#181818;stroke-width:0.5;"/><text fill="#000000" font-family="sans-serif" font-size="14" lengthAdjust="spacing" textLength="88" x="180.24" y="61.7956">Deploy to Fly</text></g><g id="elem_UC2"><ellipse cx="227.0368" cy="128.8074" fill="#F1F1F1" rx="87.0368" ry="19.8074" style="stroke:#181818;stroke-width:0.5;"/><text fill="#000000" font-family="sans-serif" font-size="14" lengthAdjust="spacing" textLength="135" x="159.5368" y="131.654">Access Diagnostics</text></g><g id="elem_UC2.1"><ellipse cx="510.5678" cy="197.0136" fill="#F1F1F1" rx="73.0678" ry="17.0136" style="stroke:#181818;stroke-width:0.5;"/><text fill="#000000" font-family="sans-serif" font-size="14" lengthAdjust="spacing" textLength="101" x="457.0678" y="200.7611">Collect Metrics</text></g><g id="elem_UC2.2"><ellipse cx="510.712" cy="125.9424" fill="#F1F1F1" rx="82.712" ry="18.9424" style="stroke:#181818;stroke-width:0.5;"/><text fill="#000000" font-family="sans-serif" font-size="14" lengthAdjust="spacing" textLength="125" x="447.5208" y="129.0215">View Stack Traces</text></g><g id="elem_UC2.3"><ellipse cx="510.5597" cy="56.782" fill="#F1F1F1" rx="61.5597" ry="14.782" style="stroke:#181818;stroke-width:0.5;"/><text fill="#000000" font-family="sans-serif" font-size="14" lengthAdjust="spacing" textLength="69" x="473.0597" y="60.5295">View Logs</text></g><!--entity maint--><g id="elem_maint"><ellipse cx="41.5" cy="64.5" fill="#F1F1F1" rx="8" ry="8" style="stroke:#181818;stroke-width:0.5;"/><path d="M41.5,72.5 L41.5,99.5 M28.5,80.5 L54.5,80.5 M41.5,99.5 L28.5,114.5 M41.5,99.5 L54.5,114.5 " fill="none" style="stroke:#181818;stroke-width:0.5;"/><text fill="#000000" font-family="sans-serif" font-size="14" lengthAdjust="spacing" textLength="71" x="6" y="128.9951">Maintainer</text></g><!--link maint to UC1--><g id="link_maint_UC1"><path d="M77.01,87.23 C102.92,82.15 138.97,75.07 169.12,69.16 " fill="none" id="maint-to-UC1" style="stroke:#181818;stroke-width:1.0;"/><polygon fill="#181818" points="174.29,68.14,164.6901,65.9396,169.3827,69.0986,166.2238,73.7912,174.29,68.14" style="stroke:#181818;stroke-width:1.0;"/></g><!--link maint to UC2--><g id="link_maint_UC2"><path d="M77.01,100.58 C98.81,104.74 127.78,110.27 154.38,115.34 " fill="none" id="maint-to-UC2" style="stroke:#181818;stroke-width:1.0;"/><polygon fill="#181818" points="159.31,116.28,151.2249,110.6558,154.3996,115.3379,149.7175,118.5125,159.31,116.28" style="stroke:#181818;stroke-width:1.0;"/></g><!--link UC2 to UC2.1--><g id="link_UC2_UC2.1"><path d="M287.7,143.42 C337,155.33 406.44,172.1 454.43,183.7 " fill="none" id="UC2-to-UC2.1" style="stroke:#181818;stroke-width:1.0;stroke-dasharray:7.0,7.0;"/><polygon fill="#181818" points="459.3,184.87,451.5054,178.8497,454.4426,183.6842,449.6081,186.6215,459.3,184.87" style="stroke:#181818;stroke-width:1.0;"/><text fill="#000000" font-family="sans-serif" font-size="13" lengthAdjust="spacing" textLength="52" x="345" y="155.0669">includes</text></g><!--link UC2 to UC2.2--><g id="link_UC2_UC2.2"><path d="M313.99,128.08 C348.51,127.72 388.24,127.29 422.82,126.92 " fill="none" id="UC2-to-UC2.2" style="stroke:#181818;stroke-width:1.0;stroke-dasharray:7.0,7.0;"/><polygon fill="#181818" points="427.89,126.87,418.8449,122.9731,422.8903,126.9271,418.9363,130.9726,427.89,126.87" style="stroke:#181818;stroke-width:1.0;"/><text fill="#000000" font-family="sans-serif" font-size="13" lengthAdjust="spacing" textLength="52" x="345" y="124.0669">includes</text></g><!--link UC2 to UC2.3--><g id="link_UC2_UC2.3"><path d="M285.99,114.17 C338.11,100.84 413.73,81.5 462.26,69.08 " fill="none" id="UC2-to-UC2.3" style="stroke:#181818;stroke-width:1.0;stroke-dasharray:7.0,7.0;"/><polygon fill="#181818" points="467.16,67.83,457.4527,66.1659,462.3135,69.0595,459.4199,73.9203,467.16,67.83" style="stroke:#181818;stroke-width:1.0;"/><text fill="#000000" font-family="sans-serif" font-size="13" lengthAdjust="spacing" textLength="52" x="345" y="83.0669">includes</text></g><!--SRC=[ZS_1QW8n40RWUvxYPtjsmVNcGIXAJue7jzw7xBY6naGo8qMAxsvsiUsA21u6CkJBFndFEuL69DVk5OrBRDN5OCXgJ2XMv8BcubI018UkDPsXq7h6kgxnOu2Ji2LX50i- -dZk0Z_ykN_oEHyFmRkrB8A5epP4KMVbfggXcaVlyn2iMDE0b7THMyVVs2ZPBzI9SkmVgnxOChR_rnDpCVqc68rc_GU7NMLo_PxBCTvyNhziIFRSO0eNh3yrB7UgUabDdgah]--></g></svg>