<?xml version="1.0" encoding="us-ascii" standalone="no"?><svg xmlns="http://www.w3.org/2000/svg" xmlns:xlink="http://www.w3.org/1999/xlink" contentStyleType="text/css" height="454px" preserveAspectRatio="none" style="width:1115px;height:454px;background:#FFFFFF;" version="1.1" viewBox="0 0 1115 454" width="1115px" zoomAndPan="magnify"><defs/><g><g id="cluster_##4"><rect fill="none" height="350" rx="2.5" ry="2.5" style="stroke:#181818;stroke-width:1.0;" width="1024" x="85" y="7"/></g><g id="elem_Create Room"><ellipse cx="170.3288" cy="126.7658" fill="#F1F1F1" rx="69.3288" ry="16.2658" style="stroke:#181818;stroke-width:0.5;"/><text fill="#000000" font-family="sans-serif" font-size="14" lengthAdjust="spacing" textLength="91" x="121.8288" y="130.5133">Create Room</text></g><g id="elem_Join Room"><ellipse cx="457.0597" cy="199.782" fill="#F1F1F1" rx="61.5597" ry="14.782" style="stroke:#181818;stroke-width:0.5;"/><text fill="#000000" font-family="sans-serif" font-size="14" lengthAdjust="spacing" textLength="69" x="419.5597" y="203.5295">Join Room</text></g><g id="elem_Get Link"><ellipse cx="170.3543" cy="195.2084" fill="#F1F1F1" rx="51.8543" ry="14.7084" style="stroke:#181818;stroke-width:0.5;"/><text fill="#000000" font-family="sans-serif" font-size="14" lengthAdjust="spacing" textLength="56" x="139.3543" y="198.956">Get Link</text></g><g id="elem_Create Permanent Room"><ellipse cx="457.1608" cy="46.0322" fill="#F1F1F1" rx="103.1608" ry="23.0322" style="stroke:#181818;stroke-width:0.5;"/><text fill="#000000" font-family="sans-serif" font-size="14" lengthAdjust="spacing" textLength="171" x="371.6608" y="48.8788">Create Permanent Room</text></g><g id="elem_Create Temporary Room"><ellipse cx="457.2481" cy="126.8496" fill="#F1F1F1" rx="102.2481" ry="22.8496" style="stroke:#181818;stroke-width:0.5;"/><text fill="#000000" font-family="sans-serif" font-size="14" lengthAdjust="spacing" textLength="169" x="372.7481" y="129.6963">Create Temporary Room</text></g><g id="elem_Share Link"><ellipse cx="719.4096" cy="37.8819" fill="#F1F1F1" rx="62.4096" ry="14.8819" style="stroke:#181818;stroke-width:0.5;"/><text fill="#000000" font-family="sans-serif" font-size="14" lengthAdjust="spacing" textLength="71" x="680.9096" y="41.6295">Share Link</text></g><g id="elem_Watch Video"><ellipse cx="719.5233" cy="253.9047" fill="#F1F1F1" rx="67.5233" ry="15.9047" style="stroke:#181818;stroke-width:0.5;"/><text fill="#000000" font-family="sans-serif" font-size="14" lengthAdjust="spacing" textLength="86" x="673.5233" y="257.6522">Watch Video</text></g><g id="elem_Control Playback"><ellipse cx="719.6551" cy="106.031" fill="#F1F1F1" rx="78.1551" ry="18.031" style="stroke:#181818;stroke-width:0.5;"/><text fill="#000000" font-family="sans-serif" font-size="14" lengthAdjust="spacing" textLength="114" x="660.2659" y="109.6166">Control Playback</text></g><g id="elem_Manage Queue"><ellipse cx="719.4948" cy="322.899" fill="#F1F1F1" rx="74.9948" ry="17.399" style="stroke:#181818;stroke-width:0.5;"/><text fill="#000000" font-family="sans-serif" font-size="14" lengthAdjust="spacing" textLength="106" x="663.4948" y="326.6465">Manage Queue</text></g><g id="elem_Manage Room Settings"><ellipse cx="719.6147" cy="181.1229" fill="#F1F1F1" rx="98.6147" ry="22.1229" style="stroke:#181818;stroke-width:0.5;"/><text fill="#000000" font-family="sans-serif" font-size="14" lengthAdjust="spacing" textLength="161" x="639.1147" y="183.9696">Manage Room Settings</text></g><g id="elem_Manage User Permissions"><ellipse cx="985.8276" cy="180.7655" fill="#F1F1F1" rx="106.8276" ry="23.7655" style="stroke:#181818;stroke-width:0.5;"/><text fill="#000000" font-family="sans-serif" font-size="14" lengthAdjust="spacing" textLength="179" x="896.3276" y="183.6122">Manage User Permissions</text></g><!--entity User--><g id="elem_User"><ellipse cx="22" cy="131.5" fill="#F1F1F1" rx="8" ry="8" style="stroke:#181818;stroke-width:0.5;"/><path d="M22,139.5 L22,166.5 M9,147.5 L35,147.5 M22,166.5 L9,181.5 M22,166.5 L35,181.5 " fill="none" style="stroke:#181818;stroke-width:0.5;"/><text fill="#000000" font-family="sans-serif" font-size="14" lengthAdjust="spacing" textLength="32" x="6" y="195.9951">User</text></g><!--entity Friend--><g id="elem_Friend"><ellipse cx="986" cy="381.5" fill="#F1F1F1" rx="8" ry="8" style="stroke:#181818;stroke-width:0.5;"/><path d="M986,389.5 L986,416.5 M973,397.5 L999,397.5 M986,416.5 L973,431.5 M986,416.5 L999,431.5 " fill="none" style="stroke:#181818;stroke-width:0.5;"/><text fill="#000000" font-family="sans-serif" font-size="14" lengthAdjust="spacing" textLength="43" x="964.5" y="445.9951">Friend</text></g><!--link User to Create Room--><g id="link_User_Create Room"><path d="M38.13,157.49 C56.23,153.29 87.54,146.02 115.06,139.63 " fill="none" id="User-to-Create Room" style="stroke:#181818;stroke-width:1.0;"/><polygon fill="#181818" points="120.15,138.45,110.4794,136.5845,115.279,139.5785,112.285,144.378,120.15,138.45" style="stroke:#181818;stroke-width:1.0;"/></g><!--link User to Get Link--><g id="link_User_Get Link"><path d="M38.13,164.51 C58.44,169.23 95.41,177.81 124.97,184.67 " fill="none" id="User-to-Get Link" style="stroke:#181818;stroke-width:1.0;"/><polygon fill="#181818" points="130.02,185.84,122.1715,179.8901,125.1522,184.698,120.3443,187.6786,130.02,185.84" style="stroke:#181818;stroke-width:1.0;"/></g><!--link Get Link to Join Room--><g id="link_Get Link_Join Room"><path d="M222.69,195.9 C269.63,196.72 339.4,197.95 390.41,198.85 " fill="none" id="Get Link-to-Join Room" style="stroke:#181818;stroke-width:1.0;"/><polygon fill="#181818" points="395.6,198.94,386.6699,194.7863,390.6007,198.8543,386.5328,202.7851,395.6,198.94" style="stroke:#181818;stroke-width:1.0;"/></g><!--link Create Room to Create Permanent Room--><g id="link_Create Room_Create Permanent Room"><path d="M215.64,114.43 C261.61,101.35 334.22,80.67 387.61,65.47 " fill="none" id="Create Room-to-Create Permanent Room" style="stroke:#181818;stroke-width:1.0;"/><polygon fill="#181818" points="392.72,64.02,382.9685,62.6387,387.9113,65.3898,385.1602,70.3327,392.72,64.02" style="stroke:#181818;stroke-width:1.0;"/><text fill="#000000" font-family="sans-serif" font-size="13" lengthAdjust="spacing" textLength="52" x="271" y="81.0669">includes</text></g><!--link Create Room to Create Temporary Room--><g id="link_Create Room_Create Temporary Room"><path d="M240.01,127 C272.84,127 312.91,127 349.59,127 " fill="none" id="Create Room-to-Create Temporary Room" style="stroke:#181818;stroke-width:1.0;"/><polygon fill="#181818" points="354.97,127,345.97,123,349.97,127,345.97,131,354.97,127" style="stroke:#181818;stroke-width:1.0;"/><text fill="#000000" font-family="sans-serif" font-size="13" lengthAdjust="spacing" textLength="52" x="271" y="123.0669">includes</text></g><!--link Create Temporary Room to Share Link--><g id="link_Create Temporary Room_Share Link"><path d="M512.61,107.61 C544.23,96.46 584.8,82.27 621,70 C639.2,63.83 659.37,57.18 676.62,51.55 " fill="none" id="Create Temporary Room-to-Share Link" style="stroke:#181818;stroke-width:1.0;"/><polygon fill="#181818" points="681.41,49.99,671.6141,48.9703,676.6553,51.5367,674.0888,56.5779,681.41,49.99" style="stroke:#181818;stroke-width:1.0;"/></g><!--link Create Permanent Room to Share Link--><g id="link_Create Permanent Room_Share Link"><path d="M559.09,42.9 C590.32,41.94 623.92,40.9 652.18,40.04 " fill="none" id="Create Permanent Room-to-Share Link" style="stroke:#181818;stroke-width:1.0;"/><polygon fill="#181818" points="657.39,39.88,648.2794,36.1387,652.392,40.0228,648.5079,44.1354,657.39,39.88" style="stroke:#181818;stroke-width:1.0;"/></g><!--link Join Room to Share Link--><g id="link_Join Room_Share Link"><path d="M507.54,191.34 C525.4,186.41 544.87,178.77 560,167 C600.2,135.73 580.87,101.36 621,70 C633.55,60.19 649.22,53.33 664.31,48.56 " fill="none" id="Join Room-to-Share Link" style="stroke:#181818;stroke-width:1.0;"/><polygon fill="#181818" points="669.4,47.02,659.6285,45.7882,664.6128,48.4633,661.9377,53.4477,669.4,47.02" style="stroke:#181818;stroke-width:1.0;"/></g><!--link Share Link to Friend--><g id="link_Share Link_Friend"><path d="M774.52,45.18 C790.52,49.83 806.75,57.47 818,70 C905.11,167.04 799.61,253.55 879,357 C898.96,383 934.91,397.52 959.35,404.8 " fill="none" id="Share Link-to-Friend" style="stroke:#181818;stroke-width:1.0;"/><polygon fill="#181818" points="964.39,406.24,956.8352,399.9214,959.5824,404.8664,954.6374,407.6136,964.39,406.24" style="stroke:#181818;stroke-width:1.0;"/></g><!--link Join Room to Watch Video--><g id="link_Join Room_Watch Video"><path d="M504.57,209.65 C548.91,218.84 615.68,232.69 662.81,242.46 " fill="none" id="Join Room-to-Watch Video" style="stroke:#181818;stroke-width:1.0;"/><polygon fill="#181818" points="667.88,243.51,659.8776,237.7687,662.9838,242.4965,658.256,245.6027,667.88,243.51" style="stroke:#181818;stroke-width:1.0;"/></g><!--link Join Room to Control Playback--><g id="link_Join Room_Control Playback"><path d="M496.55,188.43 C515.76,182.44 539.26,174.76 560,167 C587.6,156.68 593.56,151.76 621,141 C636.93,134.75 654.49,128.31 670.27,122.69 " fill="none" id="Join Room-to-Control Playback" style="stroke:#181818;stroke-width:1.0;"/><polygon fill="#181818" points="675.1,120.97,665.2787,120.2338,670.3919,122.6535,667.9723,127.7667,675.1,120.97" style="stroke:#181818;stroke-width:1.0;"/></g><!--link Join Room to Manage Queue--><g id="link_Join Room_Manage Queue"><path d="M481.52,213.87 C512.75,231.98 569.94,264.07 621,287 C636.96,294.17 654.82,301.07 670.85,306.88 " fill="none" id="Join Room-to-Manage Queue" style="stroke:#181818;stroke-width:1.0;"/><polygon fill="#181818" points="675.76,308.65,668.6572,301.8273,671.0581,306.9493,665.9361,309.3503,675.76,308.65" style="stroke:#181818;stroke-width:1.0;"/></g><!--link Join Room to Manage Room Settings--><g id="link_Join Room_Manage Room Settings"><path d="M516.14,195.76 C546.87,193.52 585.41,190.71 620.6,188.14 " fill="none" id="Join Room-to-Manage Room Settings" style="stroke:#181818;stroke-width:1.0;"/><polygon fill="#181818" points="625.76,187.76,616.4972,184.4133,620.7728,188.1173,617.0688,192.3928,625.76,187.76" style="stroke:#181818;stroke-width:1.0;"/></g><!--link Manage Room Settings to Manage User Permissions--><g id="link_Manage Room Settings_Manage User Permissions"><path d="M818.24,181 C836.26,181 855.21,181 873.6,181 " fill="none" id="Manage Room Settings-to-Manage User Permissions" style="stroke:#181818;stroke-width:1.0;"/><polygon fill="#181818" points="878.77,181,869.77,177,873.77,181,869.77,185,878.77,181" style="stroke:#181818;stroke-width:1.0;"/></g><!--SRC=[VPBFJiCm3CRlUGfh9pZi1JXmcGGI0ccm0MUJcjOYTIR7FKo8TsTfgxL5ORVOl-_xulm9z6bW4PJhng1Y9MySnJdq5XLU4-cul5CcgLmMeDI1uDi1T8ay9eBLHWcDu2N6TZNlFqIMSpUdmNfz2rSp-VK2t9F18yjNxax5mCvPFPn7B4Atf2qAYOti1bXyw2fA5srxQWzHKOy3Axh-Q0R_ha6bQUX_fYX9fmCLyQpi-VW21UCxcc_WZIkAnU1D5DCOO1lm-86-lFiJ2jO4pnrrT4cGEx0ZCvOwzS8YM7Zw1yvNmYcTljV9zkD-0G00]--></g></svg>