<?xml version="1.0" encoding="us-ascii" standalone="no"?><svg xmlns="http://www.w3.org/2000/svg" xmlns:xlink="http://www.w3.org/1999/xlink" contentStyleType="text/css" height="261px" preserveAspectRatio="none" style="width:930px;height:261px;background:#FFFFFF;" version="1.1" viewBox="0 0 930 261" width="930px" zoomAndPan="magnify"><defs/><g><!--cluster Balancer--><g id="cluster_Balancer"><rect fill="none" height="116.49" rx="2.5" ry="2.5" style="stroke:#181818;stroke-width:1.0;" width="207" x="536.5" y="98.62"/><path d="M606.5,98.62 L606.5,108.1083 L596.5,118.1083 L536.5,118.1083 " fill="none" style="stroke:#181818;stroke-width:1.0;"/><text fill="#000000" font-family="sans-serif" font-size="14" font-weight="bold" lengthAdjust="spacing" textLength="60" x="539.5" y="113.1552">Balancer</text></g><!--cluster Grafana--><g id="cluster_Grafana"><rect fill="none" height="215.49" rx="2.5" ry="2.5" style="stroke:#181818;stroke-width:1.0;" width="472" x="40.5" y="39.62"/><path d="M105.5,39.62 L105.5,49.1083 L95.5,59.1083 L40.5,59.1083 " fill="none" style="stroke:#181818;stroke-width:1.0;"/><text fill="#000000" font-family="sans-serif" font-size="14" font-weight="bold" lengthAdjust="spacing" textLength="55" x="43.5" y="54.1552">Grafana</text></g><!--cluster Panel--><g id="cluster_Panel"><rect fill="none" height="132.49" rx="2.5" ry="2.5" style="stroke:#181818;stroke-width:1.0;" width="331" x="149.5" y="90.62"/><path d="M198.5,90.62 L198.5,100.1083 L188.5,110.1083 L149.5,110.1083 " fill="none" style="stroke:#181818;stroke-width:1.0;"/><text fill="#000000" font-family="sans-serif" font-size="14" font-weight="bold" lengthAdjust="spacing" textLength="39" x="152.5" y="105.1552">Panel</text></g><!--cluster ott-instance--><g id="cluster_ott-instance"><rect fill="none" height="88" rx="2.5" ry="2.5" style="stroke:#181818;stroke-width:1.0;" width="106" x="818.5" y="112.87"/><path d="M918.5,112.87 L918.5,122.3583 L908.5,132.3583 L818.5,132.3583 " fill="none" style="stroke:#181818;stroke-width:1.0;"/><text fill="#000000" font-family="sans-serif" font-size="14" font-weight="bold" lengthAdjust="spacing" textLength="90" x="821.5" y="127.4052">ott-instance</text></g><!--entity Prometheus--><g id="elem_Prometheus"><polygon fill="#F1F1F1" points="605.5,162.62,615.5,152.62,727.5,152.62,727.5,189.1083,717.5,199.1083,605.5,199.1083,605.5,162.62" style="stroke:#181818;stroke-width:0.5;"/><line style="stroke:#181818;stroke-width:0.5;" x1="717.5" x2="727.5" y1="162.62" y2="152.62"/><line style="stroke:#181818;stroke-width:0.5;" x1="605.5" x2="717.5" y1="162.62" y2="162.62"/><line style="stroke:#181818;stroke-width:0.5;" x1="717.5" x2="717.5" y1="162.62" y2="199.1083"/><text fill="#000000" font-family="sans-serif" font-size="14" lengthAdjust="spacing" textLength="82" x="620.5" y="186.1552">Prometheus</text></g><!--entity 8081--><g id="elem_8081"><ellipse cx="561.5" cy="175.87" fill="#F1F1F1" rx="8" ry="8" style="stroke:#181818;stroke-width:0.5;"/><text fill="#000000" font-family="sans-serif" font-size="14" lengthAdjust="spacing" textLength="102" x="510.5" y="206.4052">localhost:8081</text></g><!--entity JSON--><g id="elem_JSON"><ellipse cx="65.5" cy="175.87" fill="#F1F1F1" rx="8" ry="8" style="stroke:#181818;stroke-width:0.5;"/><text fill="#000000" font-family="sans-serif" font-size="14" lengthAdjust="spacing" textLength="119" x="6" y="206.4052">JSON Data Source</text></g><!--entity Component--><g id="elem_Component"><polygon fill="#F1F1F1" points="294.5,162.62,304.5,152.62,456.5,152.62,456.5,189.1083,446.5,199.1083,294.5,199.1083,294.5,162.62" style="stroke:#181818;stroke-width:0.5;"/><line style="stroke:#181818;stroke-width:0.5;" x1="446.5" x2="456.5" y1="162.62" y2="152.62"/><line style="stroke:#181818;stroke-width:0.5;" x1="294.5" x2="446.5" y1="162.62" y2="162.62"/><line style="stroke:#181818;stroke-width:0.5;" x1="446.5" x2="446.5" y1="162.62" y2="199.1083"/><text fill="#000000" font-family="sans-serif" font-size="14" lengthAdjust="spacing" textLength="122" x="309.5" y="186.1552">React Component</text></g><!--entity props--><g id="elem_props"><ellipse cx="250.5" cy="175.87" fill="#F1F1F1" rx="8" ry="8" style="stroke:#181818;stroke-width:0.5;"/><text fill="#000000" font-family="sans-serif" font-size="14" lengthAdjust="spacing" textLength="40" x="230.5" y="206.4052">props</text></g><!--entity HTTP--><g id="elem_HTTP"><ellipse cx="871.5" cy="175.87" fill="#F1F1F1" rx="8" ry="8" style="stroke:#181818;stroke-width:0.5;"/><text fill="#000000" font-family="sans-serif" font-size="14" lengthAdjust="spacing" textLength="36" x="853.5" y="206.4052">HTTP</text></g><!--link Panel to JSON--><g id="link_Panel_JSON"><path d="M149.2953,175.87 C149.1472,175.87 148.9974,175.87 148.8459,175.87 C148.543,175.87 148.2335,175.87 147.9177,175.87 C147.286,175.87 146.629,175.87 145.9484,175.87 C140.5038,175.87 133.5513,175.87 126.02,175.87 C110.9575,175.87 93.58,175.87 81.32,175.87 " fill="none" id="Panel-to-JSON" style="stroke:#181818;stroke-width:1.0;"/><polygon fill="#181818" points="76.51,175.87,85.51,179.87,81.51,175.87,85.51,171.87,76.51,175.87" style="stroke:#181818;stroke-width:1.0;"/><text fill="#000000" font-family="sans-serif" font-size="13" lengthAdjust="spacing" textLength="46" x="92.82" y="169.4384">fetches</text></g><!--link Panel to props--><g id="link_Panel_props"><path d="M158.09,175.87 C163.83,175.87 209.8,175.87 234.66,175.87 " fill="none" id="Panel-to-props" style="stroke:#181818;stroke-width:1.0;"/><polygon fill="#181818" points="239.55,175.87,230.55,171.87,234.55,175.87,230.55,179.87,239.55,175.87" style="stroke:#181818;stroke-width:1.0;"/><text fill="#000000" font-family="sans-serif" font-size="13" lengthAdjust="spacing" textLength="47" x="176.18" y="169.4384">pass as</text></g><!--link props to Component--><g id="link_props_Component"><path d="M259.78,175.87 C269.08,175.87 278.39,175.87 287.69,175.87 " fill="none" id="props-to-Component" style="stroke:#181818;stroke-width:1.0;"/><polygon fill="#181818" points="292.62,175.87,283.62,171.87,287.62,175.87,283.62,179.87,292.62,175.87" style="stroke:#181818;stroke-width:1.0;"/></g><!--link JSON to 8081--><g id="link_JSON_8081"><path d="M67.47,166.52 C73.39,141.09 93.67,70.67 141.5,42.91 C205.12,6 407.62,8.27 472.5,42.91 C519.88,68.21 546.46,131.15 556.63,160.43 " fill="none" id="JSON-to-8081" style="stroke:#181818;stroke-width:1.0;"/><polygon fill="#181818" points="558.18,165.03,559.0933,155.2236,556.5817,160.2923,551.513,157.7808,558.18,165.03" style="stroke:#181818;stroke-width:1.0;"/><text fill="#000000" font-family="sans-serif" font-size="13" lengthAdjust="spacing" textLength="46" x="290.5" y="20.1884">queries</text></g><!--link 8081 to Prometheus--><g id="link_8081_Prometheus"><path d="M570.93,175.87 C580.24,175.87 589.54,175.87 598.84,175.87 " fill="none" id="8081-to-Prometheus" style="stroke:#181818;stroke-width:1.0;"/><polygon fill="#181818" points="603.76,175.87,594.76,171.87,598.76,175.87,594.76,179.87,603.76,175.87" style="stroke:#181818;stroke-width:1.0;"/></g><!--link Prometheus to HTTP--><g id="link_Prometheus_HTTP"><path d="M727.73,175.87 C772.1,175.87 828.87,175.87 855.87,175.87 " fill="none" id="Prometheus-to-HTTP" style="stroke:#181818;stroke-width:1.0;"/><polygon fill="#181818" points="860.56,175.87,851.56,171.87,855.56,175.87,851.56,179.87,860.56,175.87" style="stroke:#181818;stroke-width:1.0;"/><text fill="#000000" font-family="sans-serif" font-size="13" lengthAdjust="spacing" textLength="99" x="745.5" y="192.4384">scrapes metrics</text></g><!--SRC=[NL3DJiCm3BxdAQpU9y5jsc47G09n61NR2rZ1KIkrIR3T4zgxuxXedRZ5tv-_E37E14yuOOx4y1C0SlaYwBdCf0CjOiYObJXX9EYc4d4QYkXX_x1_x005sYDSGqWUzSgOCACdtVdUpnydU455E9U58xcpWIPRZJrccjpsLw7x98mApsMk9LDMjzmcrsqBAfVQgbgFMvMYkXkpQFlQlpvlbqlVXElItT6hm04IQHn8DjnpZQWeOll3EXkn5N6h8UqEflnUY4UByD7WkqjkpqQq3gQNo5X9m1WUe_m2]--></g></svg>