<svg aria-roledescription="classDiagram" role="graphics-document document" viewBox="-8 -8 879.171875 459.5" style="max-width: 879.172px; background-color: white;" xmlns:xlink="http://www.w3.org/1999/xlink" xmlns="http://www.w3.org/2000/svg" width="100%" id="my-svg"><style>#my-svg{font-family:"trebuchet ms",verdana,arial,sans-serif;font-size:16px;fill:#000000;}#my-svg .error-icon{fill:#552222;}#my-svg .error-text{fill:#552222;stroke:#552222;}#my-svg .edge-thickness-normal{stroke-width:2px;}#my-svg .edge-thickness-thick{stroke-width:3.5px;}#my-svg .edge-pattern-solid{stroke-dasharray:0;}#my-svg .edge-pattern-dashed{stroke-dasharray:3;}#my-svg .edge-pattern-dotted{stroke-dasharray:2;}#my-svg .marker{fill:#666;stroke:#666;}#my-svg .marker.cross{stroke:#666;}#my-svg svg{font-family:"trebuchet ms",verdana,arial,sans-serif;font-size:16px;}#my-svg g.classGroup text{fill:#999;stroke:none;font-family:"trebuchet ms",verdana,arial,sans-serif;font-size:10px;}#my-svg g.classGroup text .title{font-weight:bolder;}#my-svg .nodeLabel,#my-svg .edgeLabel{color:#111111;}#my-svg .edgeLabel .label rect{fill:#eee;}#my-svg .label text{fill:#111111;}#my-svg .edgeLabel .label span{background:#eee;}#my-svg .classTitle{font-weight:bolder;}#my-svg .node rect,#my-svg .node circle,#my-svg .node ellipse,#my-svg .node polygon,#my-svg .node path{fill:#eee;stroke:#999;stroke-width:1px;}#my-svg .divider{stroke:#999;stroke-width:1;}#my-svg g.clickable{cursor:pointer;}#my-svg g.classGroup rect{fill:#eee;stroke:#999;}#my-svg g.classGroup line{stroke:#999;stroke-width:1;}#my-svg .classLabel .box{stroke:none;stroke-width:0;fill:#eee;opacity:0.5;}#my-svg .classLabel .label{fill:#999;font-size:10px;}#my-svg .relation{stroke:#666;stroke-width:1;fill:none;}#my-svg .dashed-line{stroke-dasharray:3;}#my-svg .dotted-line{stroke-dasharray:1 2;}#my-svg #compositionStart,#my-svg .composition{fill:#666!important;stroke:#666!important;stroke-width:1;}#my-svg #compositionEnd,#my-svg .composition{fill:#666!important;stroke:#666!important;stroke-width:1;}#my-svg #dependencyStart,#my-svg .dependency{fill:#666!important;stroke:#666!important;stroke-width:1;}#my-svg #dependencyStart,#my-svg .dependency{fill:#666!important;stroke:#666!important;stroke-width:1;}#my-svg #extensionStart,#my-svg .extension{fill:transparent!important;stroke:#666!important;stroke-width:1;}#my-svg #extensionEnd,#my-svg .extension{fill:transparent!important;stroke:#666!important;stroke-width:1;}#my-svg #aggregationStart,#my-svg .aggregation{fill:transparent!important;stroke:#666!important;stroke-width:1;}#my-svg #aggregationEnd,#my-svg .aggregation{fill:transparent!important;stroke:#666!important;stroke-width:1;}#my-svg #lollipopStart,#my-svg .lollipop{fill:#eee!important;stroke:#666!important;stroke-width:1;}#my-svg #lollipopEnd,#my-svg .lollipop{fill:#eee!important;stroke:#666!important;stroke-width:1;}#my-svg .edgeTerminals{font-size:11px;}#my-svg .classTitleText{text-anchor:middle;font-size:18px;fill:#000000;}#my-svg :root{--mermaid-font-family:"trebuchet ms",verdana,arial,sans-serif;}</style><g><defs><marker orient="auto" markerHeight="240" markerWidth="190" refY="7" refX="18" class="marker aggregation classDiagram" id="my-svg_classDiagram-aggregationStart"><path d="M 18,7 L9,13 L1,7 L9,1 Z"/></marker></defs><defs><marker orient="auto" markerHeight="28" markerWidth="20" refY="7" refX="1" class="marker aggregation classDiagram" id="my-svg_classDiagram-aggregationEnd"><path d="M 18,7 L9,13 L1,7 L9,1 Z"/></marker></defs><defs><marker orient="auto" markerHeight="240" markerWidth="190" refY="7" refX="18" class="marker extension classDiagram" id="my-svg_classDiagram-extensionStart"><path d="M 1,7 L18,13 V 1 Z"/></marker></defs><defs><marker orient="auto" markerHeight="28" markerWidth="20" refY="7" refX="1" class="marker extension classDiagram" id="my-svg_classDiagram-extensionEnd"><path d="M 1,1 V 13 L18,7 Z"/></marker></defs><defs><marker orient="auto" markerHeight="240" markerWidth="190" refY="7" refX="18" class="marker composition classDiagram" id="my-svg_classDiagram-compositionStart"><path d="M 18,7 L9,13 L1,7 L9,1 Z"/></marker></defs><defs><marker orient="auto" markerHeight="28" markerWidth="20" refY="7" refX="1" class="marker composition classDiagram" id="my-svg_classDiagram-compositionEnd"><path d="M 18,7 L9,13 L1,7 L9,1 Z"/></marker></defs><defs><marker orient="auto" markerHeight="240" markerWidth="190" refY="7" refX="6" class="marker dependency classDiagram" id="my-svg_classDiagram-dependencyStart"><path d="M 5,7 L9,13 L1,7 L9,1 Z"/></marker></defs><defs><marker orient="auto" markerHeight="28" markerWidth="20" refY="7" refX="13" class="marker dependency classDiagram" id="my-svg_classDiagram-dependencyEnd"><path d="M 18,7 L9,13 L14,7 L9,1 Z"/></marker></defs><defs><marker orient="auto" markerHeight="240" markerWidth="190" refY="7" refX="13" class="marker lollipop classDiagram" id="my-svg_classDiagram-lollipopStart"><circle r="6" cy="7" cx="7" fill="transparent" stroke="black"/></marker></defs><defs><marker orient="auto" markerHeight="240" markerWidth="190" refY="7" refX="1" class="marker lollipop classDiagram" id="my-svg_classDiagram-lollipopEnd"><circle r="6" cy="7" cx="7" fill="transparent" stroke="black"/></marker></defs><g class="root"><g class="clusters"/><g class="edgePaths"><path marker-start="url(#my-svg_classDiagram-dependencyStart)" style="fill:none" class="edge-pattern-dashed relation" id="id1" d="M83.6953125,71.5L83.6953125,76.20833333333333C83.6953125,80.91666666666667,83.6953125,90.33333333333333,83.6953125,100.75C83.6953125,111.16666666666667,83.6953125,122.58333333333333,83.6953125,128.29166666666666L83.6953125,134"/><path marker-start="url(#my-svg_classDiagram-dependencyStart)" style="fill:none" class="edge-pattern-dashed relation" id="id2" d="M83.6953125,197.5L83.6953125,202.20833333333334C83.6953125,206.91666666666666,83.6953125,216.33333333333334,83.6953125,226.75C83.6953125,237.16666666666666,83.6953125,248.58333333333334,83.6953125,254.29166666666666L83.6953125,260"/><path marker-start="url(#my-svg_classDiagram-compositionStart)" style="fill:none" class="edge-pattern-solid relation" id="id3" d="M83.6953125,335.5L83.6953125,338.2083333333333C83.6953125,340.9166666666667,83.6953125,346.3333333333333,137.30729166666666,358.70746511281277C190.91927083333334,371.0815968922922,298.1432291666667,390.4131937845844,351.7552083333333,400.07899223073053L405.3671875,409.7447906768766"/><path marker-start="url(#my-svg_classDiagram-dependencyStart)" style="fill:none" class="edge-pattern-dashed relation" id="id4" d="M214.41796875,323.5L214.41796875,328.2083333333333C214.41796875,332.9166666666667,214.41796875,342.3333333333333,246.24283854166666,356.20886616657737C278.0677083333333,370.0843989998214,341.7174479166667,388.4187979996428,373.5423177083333,397.5859974995535L405.3671875,406.7531969994642"/><path marker-start="url(#my-svg_classDiagram-dependencyStart)" style="fill:none" class="edge-pattern-dashed relation" id="id5" d="M364.25,323.5L364.25,328.2083333333333C364.25,332.9166666666667,364.25,342.3333333333333,371.1028645833333,353.30963014423713C377.9557291666667,364.2859269551409,391.6614583333333,376.82185391028185,398.5143229166667,383.0898173878523L405.3671875,389.3577808654228"/><path marker-start="url(#my-svg_classDiagram-dependencyStart)" style="fill:none" class="edge-pattern-dashed relation" id="id6" d="M502.0078125,323.5L502.0078125,328.2083333333333C502.0078125,332.9166666666667,502.0078125,342.3333333333333,495.1549479166667,353.30963014423713C488.3020833333333,364.2859269551409,474.5963541666667,376.82185391028185,467.7434895833333,383.0898173878523L460.890625,389.3577808654228"/><path marker-start="url(#my-svg_classDiagram-dependencyStart)" style="fill:none" class="edge-pattern-dashed relation" id="id7" d="M652.828125,323.5L652.828125,328.2083333333333C652.828125,332.9166666666667,652.828125,342.3333333333333,620.8385416666666,356.2148615531414C588.8489583333334,370.0963897729495,524.8697916666666,388.442779545899,492.8802083333333,397.61597443237383L460.890625,406.78916931884856"/><path marker-start="url(#my-svg_classDiagram-dependencyStart)" style="fill:none" class="edge-pattern-dashed relation" id="id8" d="M814.890625,323.5L814.890625,328.2083333333333C814.890625,332.9166666666667,814.890625,342.3333333333333,755.890625,356.7781064861712C696.890625,371.2228796390091,578.890625,390.6957592780182,519.890625,400.43219909752275L460.890625,410.16863891702735"/></g><g class="edgeLabels"><g transform="translate(83.6953125, 99.75)" class="edgeLabel"><g transform="translate(-26.18359375, -9.25)" class="label"><rect height="18.50300407409668" width="52.36384963989258" ry="0" rx="0"/><text style=""><tspan class="row" x="0" dy="1em" xml:space="preserve">queries</tspan></text></g></g><g transform="translate(83.6953125, 225.75)" class="edgeLabel"><g transform="translate(-67.453125, -9.25)" class="label"><rect height="18.50300407409668" width="134.8826904296875" ry="0" rx="0"/><text style=""><tspan class="row" x="0" dy="1em" xml:space="preserve">recieves data from</tspan></text></g></g><g class="edgeLabel"><g transform="translate(0, 0)" class="label"><rect height="0" width="0" ry="0" rx="0"/><text style=""><tspan class="row" x="0" dy="1em" xml:space="preserve"/></text></g></g><g transform="translate(214.41796875, 351.75)" class="edgeLabel"><g transform="translate(-27.19140625, -9.25)" class="label"><rect height="18.50300407409668" width="54.37885665893555" ry="0" rx="0"/><text style=""><tspan class="row" x="0" dy="1em" xml:space="preserve">imports</tspan></text></g></g><g transform="translate(364.25, 351.75)" class="edgeLabel"><g transform="translate(-27.19140625, -9.25)" class="label"><rect height="18.50300407409668" width="54.37885665893555" ry="0" rx="0"/><text style=""><tspan class="row" x="0" dy="1em" xml:space="preserve">imports</tspan></text></g></g><g transform="translate(502.0078125, 351.75)" class="edgeLabel"><g transform="translate(-27.19140625, -9.25)" class="label"><rect height="18.50300407409668" width="54.37885665893555" ry="0" rx="0"/><text style=""><tspan class="row" x="0" dy="1em" xml:space="preserve">imports</tspan></text></g></g><g transform="translate(652.828125, 351.75)" class="edgeLabel"><g transform="translate(-27.19140625, -9.25)" class="label"><rect height="18.50300407409668" width="54.37885665893555" ry="0" rx="0"/><text style=""><tspan class="row" x="0" dy="1em" xml:space="preserve">imports</tspan></text></g></g><g transform="translate(814.890625, 351.75)" class="edgeLabel"><g transform="translate(-27.19140625, -9.25)" class="label"><rect height="18.50300407409668" width="54.37885665893555" ry="0" rx="0"/><text style=""><tspan class="row" x="0" dy="1em" xml:space="preserve">imports</tspan></text></g></g></g><g class="nodes"><g transform="translate(83.6953125, 36.75)" id="classId-Balancers-0" class="node default"><rect height="57.5" width="86.84375" y="-28.75" x="-43.421875" class="outer title-state"/><line y2="1.75" y1="1.75" x2="43.421875" x1="-43.421875" class="divider"/><line y2="17.75" y1="17.75" x2="43.421875" x1="-43.421875" class="divider"/><g class="label"><text style=""><tspan class="title-row" x="0" dy="1em" xml:space="preserve"/></text><text transform="translate( -35.921875, -21.25)" class="classTitle" style=""><tspan class="title-row" x="0" dy="1em" xml:space="preserve">Balancers</tspan></text></g></g><g transform="translate(83.6953125, 162.75)" id="classId-ott-vis-datasource-1" class="node default"><rect height="57.5" width="151.390625" y="-28.75" x="-75.6953125" class="outer title-state"/><line y2="1.75" y1="1.75" x2="75.6953125" x1="-75.6953125" class="divider"/><line y2="17.75" y1="17.75" x2="75.6953125" x1="-75.6953125" class="divider"/><g class="label"><text style=""><tspan class="title-row" x="0" dy="1em" xml:space="preserve"/></text><text transform="translate( -68.1953125, -21.25)" class="classTitle" style=""><tspan class="title-row" x="0" dy="1em" xml:space="preserve">ott-vis-datasource</tspan></text></g></g><g transform="translate(83.6953125, 288.75)" id="classId-ott-vis-2" class="node default"><rect height="57.5" width="63.21875" y="-28.75" x="-31.609375" class="outer title-state"/><line y2="1.75" y1="1.75" x2="31.609375" x1="-31.609375" class="divider"/><line y2="17.75" y1="17.75" x2="31.609375" x1="-31.609375" class="divider"/><g class="label"><text style=""><tspan class="title-row" x="0" dy="1em" xml:space="preserve"/></text><text transform="translate( -24.109375, -21.25)" class="classTitle" style=""><tspan class="title-row" x="0" dy="1em" xml:space="preserve">ott-vis</tspan></text></g></g><g transform="translate(433.12890625, 414.75)" id="classId-Panel-3" class="node default"><rect height="57.5" width="55.5234375" y="-28.75" x="-27.76171875" class="outer title-state"/><line y2="1.75" y1="1.75" x2="27.76171875" x1="-27.76171875" class="divider"/><line y2="17.75" y1="17.75" x2="27.76171875" x1="-27.76171875" class="divider"/><g class="label"><text style=""><tspan class="title-row" x="0" dy="1em" xml:space="preserve"/></text><text transform="translate( -20.26171875, -21.25)" class="classTitle" style=""><tspan class="title-row" x="0" dy="1em" xml:space="preserve">Panel</tspan></text></g></g><g transform="translate(214.41796875, 288.75)" id="classId-GlobalView-4" class="node default"><rect height="57.5" width="98.2265625" y="-28.75" x="-49.11328125" class="outer title-state"/><line y2="1.75" y1="1.75" x2="49.11328125" x1="-49.11328125" class="divider"/><line y2="17.75" y1="17.75" x2="49.11328125" x1="-49.11328125" class="divider"/><g class="label"><text style=""><tspan class="title-row" x="0" dy="1em" xml:space="preserve"/></text><text transform="translate( -41.61328125, -21.25)" class="classTitle" style=""><tspan class="title-row" x="0" dy="1em" xml:space="preserve">GlobalView</tspan></text></g></g><g transform="translate(364.25, 288.75)" id="classId-RegionView-5" class="node default"><rect height="57.5" width="101.4375" y="-28.75" x="-50.71875" class="outer title-state"/><line y2="1.75" y1="1.75" x2="50.71875" x1="-50.71875" class="divider"/><line y2="17.75" y1="17.75" x2="50.71875" x1="-50.71875" class="divider"/><g class="label"><text style=""><tspan class="title-row" x="0" dy="1em" xml:space="preserve"/></text><text transform="translate( -43.21875, -21.25)" class="classTitle" style=""><tspan class="title-row" x="0" dy="1em" xml:space="preserve">RegionView</tspan></text></g></g><g transform="translate(502.0078125, 288.75)" id="classId-Latency-6" class="node default"><rect height="57.5" width="74.078125" y="-28.75" x="-37.0390625" class="outer title-state"/><line y2="1.75" y1="1.75" x2="37.0390625" x1="-37.0390625" class="divider"/><line y2="17.75" y1="17.75" x2="37.0390625" x1="-37.0390625" class="divider"/><g class="label"><text style=""><tspan class="title-row" x="0" dy="1em" xml:space="preserve"/></text><text transform="translate( -29.5390625, -21.25)" class="classTitle" style=""><tspan class="title-row" x="0" dy="1em" xml:space="preserve">Latency</tspan></text></g></g><g transform="translate(652.828125, 288.75)" id="classId-TrafficHeatMap-7" class="node default"><rect height="57.5" width="127.5625" y="-28.75" x="-63.78125" class="outer title-state"/><line y2="1.75" y1="1.75" x2="63.78125" x1="-63.78125" class="divider"/><line y2="17.75" y1="17.75" x2="63.78125" x1="-63.78125" class="divider"/><g class="label"><text style=""><tspan class="title-row" x="0" dy="1em" xml:space="preserve"/></text><text transform="translate( -56.28125, -21.25)" class="classTitle" style=""><tspan class="title-row" x="0" dy="1em" xml:space="preserve">TrafficHeatMap</tspan></text></g></g><g transform="translate(814.890625, 288.75)" id="classId-UserTraffic-8" class="node default"><rect height="57.5" width="96.5625" y="-28.75" x="-48.28125" class="outer title-state"/><line y2="1.75" y1="1.75" x2="48.28125" x1="-48.28125" class="divider"/><line y2="17.75" y1="17.75" x2="48.28125" x1="-48.28125" class="divider"/><g class="label"><text style=""><tspan class="title-row" x="0" dy="1em" xml:space="preserve"/></text><text transform="translate( -40.78125, -21.25)" class="classTitle" style=""><tspan class="title-row" x="0" dy="1em" xml:space="preserve">UserTraffic</tspan></text></g></g></g></g></g></svg>